<?xml version="1.0" encoding="UTF-8"?>
<svg id="Layer_2" xmlns="http://www.w3.org/2000/svg" viewBox="0 0 939.07 939.07">
  <defs>
    <style>
      .cls-1 {
        fill: #fff;
        stroke: #000;
        stroke-miterlimit: 113.83;
        stroke-width: 28.46px;
      }
    </style>
  </defs>
  <g id="Layer_1-2" data-name="Layer_1">
    <path class="cls-1" d="M0,14.23h199.2M256.11,14.23h28.46M313.03,14.23h56.91M398.4,14.23h28.45M512.22,14.23h113.83M654.51,14.23h28.45M739.88,14.23h199.19M0,42.69h28.46M170.74,42.69h28.46M313.03,42.69h56.91M426.85,42.69h28.46M512.22,42.69h28.46M569.14,42.69h56.91M739.88,42.69h28.45M910.61,42.69h28.45M0,71.14h28.46M56.92,71.14h85.37M170.74,71.14h28.46M227.66,71.14h28.45M284.57,71.14h56.91M398.4,71.14h56.91M540.68,71.14h28.46M597.59,71.14h56.92M682.96,71.14h28.46M739.88,71.14h28.45M796.79,71.14h85.37M910.61,71.14h28.45M0,99.6h28.46M56.92,99.6h85.37M170.74,99.6h28.46M227.66,99.6h28.45M284.57,99.6h28.46M341.48,99.6h28.46M512.22,99.6h28.46M597.59,99.6h28.46M654.51,99.6h56.91M739.88,99.6h28.45M796.79,99.6h85.37M910.61,99.6h28.45M0,128.06h28.46M56.92,128.06h85.37M170.74,128.06h28.46M227.66,128.06h28.45M284.57,128.06h28.46M341.48,128.06h170.74M569.14,128.06h28.45M626.05,128.06h28.46M739.88,128.06h28.45M796.79,128.06h85.37M910.61,128.06h28.45M0,156.51h28.46M170.74,156.51h28.46M227.66,156.51h28.45M284.57,156.51h28.46M369.94,156.51h56.91M483.77,156.51h28.45M540.68,156.51h28.46M626.05,156.51h85.37M739.88,156.51h28.45M910.61,156.51h28.45M0,184.97h199.2M227.66,184.97h28.45M284.57,184.97h28.46M341.48,184.97h28.46M398.4,184.97h28.45M455.31,184.97h28.46M512.22,184.97h28.46M569.14,184.97h28.45M626.05,184.97h28.46M682.96,184.97h28.46M739.88,184.97h199.19M227.66,213.43h28.45M284.57,213.43h56.91M398.4,213.43h28.45M455.31,213.43h28.46M540.68,213.43h142.28M0,241.88h28.46M56.92,241.88h142.28M256.11,241.88h170.74M483.77,241.88h28.45M540.68,241.88h28.46M626.05,241.88h56.91M739.88,241.88h142.28M56.92,270.34h56.91M142.29,270.34h28.45M227.66,270.34h113.82M369.94,270.34h56.91M455.31,270.34h142.28M626.05,270.34h56.91M739.88,270.34h56.91M825.24,270.34h113.82M0,298.8h28.46M56.92,298.8h28.45M113.83,298.8h28.46M170.74,298.8h85.37M313.03,298.8h199.19M626.05,298.8h28.46M682.96,298.8h56.92M796.79,298.8h28.46M853.7,298.8h56.92M0,327.25h28.46M56.92,327.25h28.45M142.29,327.25h28.45M199.2,327.25h28.46M256.11,327.25h85.37M369.94,327.25h28.46M483.77,327.25h113.82M654.51,327.25h28.45M711.42,327.25h56.91M796.79,327.25h85.37M28.46,355.71h28.46M170.74,355.71h142.29M398.4,355.71h85.37M540.68,355.71h199.2M768.33,355.71h85.37M882.16,355.71h28.46M0,384.17h28.46M85.37,384.17h85.37M256.11,384.17h28.46M369.94,384.17h28.46M426.85,384.17h28.46M483.77,384.17h56.91M597.59,384.17h28.46M682.96,384.17h56.92M853.7,384.17h85.37M0,412.62h28.46M56.92,412.62h28.45M170.74,412.62h56.92M398.4,412.62h85.37M569.14,412.62h85.37M711.42,412.62h142.28M882.16,412.62h28.46M28.46,441.08h28.46M142.29,441.08h28.45M199.2,441.08h56.91M369.94,441.08h85.37M597.59,441.08h56.92M711.42,441.08h56.91M825.24,441.08h56.91M0,469.54h28.46M113.83,469.54h113.83M313.03,469.54h142.28M483.77,469.54h56.91M626.05,469.54h28.46M682.96,469.54h56.92M768.33,469.54h56.92M853.7,469.54h28.46M910.61,469.54h28.45M0,497.99h28.46M56.92,497.99h56.91M142.29,497.99h28.45M256.11,497.99h56.92M369.94,497.99h56.91M455.31,497.99h28.46M512.22,497.99h56.92M597.59,497.99h199.2M825.24,497.99h85.37M28.46,526.45h199.2M284.57,526.45h56.91M426.85,526.45h28.46M512.22,526.45h28.46M569.14,526.45h56.91M711.42,526.45h28.46M768.33,526.45h56.92M853.7,526.45h56.92M56.92,554.91h28.45M113.83,554.91h56.91M199.2,554.91h28.46M256.11,554.91h85.37M369.94,554.91h28.46M426.85,554.91h56.92M569.14,554.91h113.82M711.42,554.91h28.46M768.33,554.91h142.29M0,583.36h28.46M85.37,583.36h28.46M170.74,583.36h28.46M256.11,583.36h28.46M313.03,583.36h56.91M398.4,583.36h56.91M512.22,583.36h28.46M597.59,583.36h28.46M682.96,583.36h56.92M796.79,583.36h56.91M882.16,583.36h56.91M0,611.82h56.92M85.37,611.82h28.46M227.66,611.82h56.91M313.03,611.82h28.45M369.94,611.82h142.28M569.14,611.82h85.37M711.42,611.82h85.37M853.7,611.82h28.46M910.61,611.82h28.45M0,640.28h28.46M85.37,640.28h28.46M170.74,640.28h85.37M284.57,640.28h56.91M398.4,640.28h28.45M483.77,640.28h28.45M540.68,640.28h28.46M597.59,640.28h56.92M682.96,640.28h56.92M796.79,640.28h56.91M882.16,640.28h28.46M0,668.73h28.46M199.2,668.73h28.46M313.03,668.73h28.45M369.94,668.73h28.46M455.31,668.73h28.46M540.68,668.73h85.37M711.42,668.73h56.91M853.7,668.73h85.37M0,697.19h28.46M56.92,697.19h85.37M170.74,697.19h28.46M227.66,697.19h113.82M455.31,697.19h56.91M540.68,697.19h28.46M626.05,697.19h28.46M682.96,697.19h170.74M910.61,697.19h28.45M227.66,725.64h113.82M455.31,725.64h56.91M540.68,725.64h56.91M626.05,725.64h85.37M796.79,725.64h28.46M853.7,725.64h85.37M0,754.1h199.2M284.57,754.1h85.37M398.4,754.1h113.82M626.05,754.1h85.37M739.88,754.1h28.45M796.79,754.1h28.46M853.7,754.1h28.46M0,782.56h28.46M170.74,782.56h28.46M227.66,782.56h85.37M341.48,782.56h56.92M426.85,782.56h28.46M483.77,782.56h85.37M654.51,782.56h56.91M796.79,782.56h85.37M910.61,782.56h28.45M0,811.01h28.46M56.92,811.01h85.37M170.74,811.01h28.46M227.66,811.01h28.45M284.57,811.01h85.37M398.4,811.01h85.37M569.14,811.01h85.37M682.96,811.01h170.74M882.16,811.01h28.46M0,839.47h28.46M56.92,839.47h85.37M170.74,839.47h28.46M227.66,839.47h28.45M284.57,839.47h28.46M426.85,839.47h28.46M512.22,839.47h28.46M597.59,839.47h28.46M654.51,839.47h28.45M711.42,839.47h28.46M796.79,839.47h28.46M853.7,839.47h28.46M910.61,839.47h28.45M0,867.93h28.46M56.92,867.93h85.37M170.74,867.93h28.46M227.66,867.93h113.82M398.4,867.93h113.82M569.14,867.93h227.65M0,896.38h28.46M170.74,896.38h28.46M284.57,896.38h113.83M426.85,896.38h28.46M597.59,896.38h85.37M739.88,896.38h28.45M796.79,896.38h28.46M853.7,896.38h28.46M0,924.84h199.2M227.66,924.84h113.82M369.94,924.84h85.37M483.77,924.84h28.45M626.05,924.84h85.37M739.88,924.84h56.91M825.24,924.84h28.45M882.16,924.84h28.46"/>
  </g>
</svg>