<svg xmlns="http://www.w3.org/2000/svg" xmlns:xlink="http://www.w3.org/1999/xlink" width="62" zoomAndPan="magnify" viewBox="0 0 46.5 46.5" height="62" preserveAspectRatio="xMidYMid meet" version="1.0"><defs><clipPath id="11f8452993"><path d="M 11.152344 7.148438 L 34.851562 7.148438 L 34.851562 38.855469 L 11.152344 38.855469 Z M 11.152344 7.148438 " clip-rule="nonzero"/></clipPath><clipPath id="ecbab7134b"><path d="M 1.175781 19.269531 L 2.402344 19.269531 L 2.402344 22.902344 L 1.175781 22.902344 Z M 1.175781 19.269531 " clip-rule="nonzero"/></clipPath><clipPath id="0e3641a486"><path d="M 1.175781 22.03125 L 2.554688 22.03125 L 2.554688 25.507812 L 1.175781 25.507812 Z M 1.175781 22.03125 " clip-rule="nonzero"/></clipPath><clipPath id="448921696c"><path d="M 11.042969 3.476562 L 14.261719 3.476562 L 14.261719 5.367188 L 11.042969 5.367188 Z M 11.042969 3.476562 " clip-rule="nonzero"/></clipPath><clipPath id="8ab4adad05"><path d="M 28.320312 41.355469 L 32.050781 41.355469 L 32.050781 42.542969 L 28.320312 42.542969 Z M 28.320312 41.355469 " clip-rule="nonzero"/></clipPath><clipPath id="d3f3d0219f"><path d="M 11.179688 7.238281 L 34.679688 7.238281 L 34.679688 38.542969 L 11.179688 38.542969 Z M 11.179688 7.238281 " clip-rule="nonzero"/></clipPath><clipPath id="51b5976725"><path d="M 11.179688 36.703125 L 12.882812 36.703125 L 12.882812 38.75 L 11.179688 38.75 Z M 11.179688 36.703125 " clip-rule="nonzero"/></clipPath><clipPath id="1ac61b8d18"><path d="M 12.675781 38.082031 L 15.183594 38.082031 L 15.183594 38.75 L 12.675781 38.75 Z M 12.675781 38.082031 " clip-rule="nonzero"/></clipPath><clipPath id="9922632b51"><path d="M 32.96875 36.804688 L 34.679688 36.804688 L 34.679688 38.75 L 32.96875 38.75 Z M 32.96875 36.804688 " clip-rule="nonzero"/></clipPath><clipPath id="ba2e27edaa"><path d="M 30.671875 38.183594 L 33.175781 38.183594 L 33.175781 38.75 L 30.671875 38.75 Z M 30.671875 38.183594 " clip-rule="nonzero"/></clipPath><clipPath id="a539402b07"><path d="M 32.613281 18.503906 L 34.679688 18.503906 L 34.679688 24.894531 L 32.613281 24.894531 Z M 32.613281 18.503906 " clip-rule="nonzero"/></clipPath></defs><g clip-path="url(#11f8452993)"><path fill="#040707" d="M 11.152344 7.148438 L 34.851562 7.148438 L 34.851562 38.855469 L 11.152344 38.855469 Z M 11.152344 7.148438 " fill-opacity="1" fill-rule="nonzero"/></g><path fill="#040707" d="M 19.972656 31.246094 L 23.234375 29.773438 L 26.464844 31.246094 L 23.21875 32.746094 Z M 19.972656 31.246094 " fill-opacity="1" fill-rule="nonzero"/><path fill="#040707" d="M 23.179688 38.53125 C 23.121094 38.53125 23.0625 38.53125 23.003906 38.53125 C 19.398438 38.496094 16 37.34375 13.175781 35.203125 C 10.421875 33.117188 8.402344 30.25 7.34375 26.910156 L 7.871094 26.742188 C 8.898438 29.96875 10.847656 32.742188 13.507812 34.761719 C 16.238281 36.828125 19.523438 37.941406 23.011719 37.976562 C 23.066406 37.976562 23.125 37.976562 23.179688 37.976562 C 30.191406 37.976562 36.226562 33.484375 38.234375 26.746094 L 38.765625 26.902344 C 36.6875 33.878906 30.4375 38.53125 23.179688 38.53125 Z M 7.773438 17.277344 L 7.242188 17.113281 C 8.261719 13.890625 10.351562 10.964844 13.136719 8.882812 C 16.03125 6.710938 19.464844 5.539062 23.070312 5.492188 C 23.144531 5.492188 23.214844 5.492188 23.289062 5.492188 C 26.835938 5.492188 30.183594 6.613281 32.976562 8.742188 C 35.703125 10.816406 37.753906 13.789062 38.757812 17.113281 L 38.226562 17.273438 C 37.257812 14.058594 35.273438 11.1875 32.644531 9.183594 C 29.890625 7.085938 26.582031 6.003906 23.078125 6.046875 C 19.589844 6.089844 16.269531 7.226562 13.46875 9.324219 C 10.777344 11.339844 8.753906 14.167969 7.773438 17.277344 Z M 7.773438 17.277344 " fill-opacity="1" fill-rule="nonzero"/><path fill="#040707" d="M 23.21875 32.992188 L 21.5625 32.21875 L 21.5625 32.992188 C 22.160156 33.839844 24.203125 33.882812 24.894531 32.992188 L 24.894531 32.21875 C 24.894531 32.21875 23.21875 32.992188 23.21875 32.992188 Z M 23.21875 32.992188 " fill-opacity="1" fill-rule="nonzero"/><path fill="#040707" d="M 26.339844 31.304688 L 26.339844 31.96875 C 26.636719 32.027344 26.582031 32.382812 26.402344 32.433594 L 26.644531 33.464844 L 25.917969 33.464844 L 26.164062 32.441406 C 25.964844 32.304688 26.007812 32.035156 26.246094 31.972656 L 26.28125 31.324219 Z M 26.339844 31.304688 " fill-opacity="1" fill-rule="nonzero"/><path fill="#040707" d="M 9.085938 6.582031 L 9.675781 4.734375 L 11.273438 3.621094 L 10.5625 5.53125 Z M 9.910156 4.90625 L 9.601562 5.871094 L 10.332031 5.351562 L 10.703125 4.355469 Z M 9.910156 4.90625 " fill-opacity="1" fill-rule="nonzero"/><path fill="#040707" d="M 11.210938 6.90625 L 9.269531 6.847656 L 10.75 5.804688 L 12.789062 5.769531 Z M 10.113281 6.59375 L 11.125 6.625 L 11.910156 6.0625 L 10.84375 6.082031 Z M 10.113281 6.59375 " fill-opacity="1" fill-rule="nonzero"/><path fill="#040707" d="M 7.265625 8.445312 L 7.621094 6.539062 L 9.066406 5.234375 L 8.597656 7.21875 Z M 7.875 6.683594 L 7.691406 7.679688 L 8.347656 7.074219 L 8.59375 6.035156 Z M 7.875 6.683594 " fill-opacity="1" fill-rule="nonzero"/><path fill="#040707" d="M 7.484375 8.6875 L 8.820312 7.46875 L 10.839844 7.175781 L 9.414062 8.503906 Z M 8.945312 7.730469 L 8.285156 8.332031 L 9.292969 8.234375 L 10 7.578125 Z M 8.945312 7.730469 " fill-opacity="1" fill-rule="nonzero"/><path fill="#040707" d="M 5.695312 10.527344 L 5.804688 8.589844 L 7.078125 7.117188 L 6.863281 9.140625 Z M 6.078125 8.699219 L 6.019531 9.710938 L 6.597656 9.027344 L 6.710938 7.96875 Z M 6.078125 8.699219 " fill-opacity="1" fill-rule="nonzero"/><path fill="#040707" d="M 5.941406 10.738281 L 7.113281 9.363281 L 9.078125 8.820312 L 7.832031 10.3125 L 5.9375 10.738281 Z M 7.269531 9.605469 L 6.691406 10.285156 L 7.679688 10.0625 L 8.300781 9.320312 L 7.273438 9.605469 Z M 7.269531 9.605469 " fill-opacity="1" fill-rule="nonzero"/><path fill="#040707" d="M 4.394531 12.789062 L 4.265625 10.851562 L 5.339844 9.230469 L 5.378906 11.265625 Z M 4.546875 10.925781 L 4.617188 11.9375 L 5.101562 11.1875 L 5.082031 10.121094 Z M 4.546875 10.925781 " fill-opacity="1" fill-rule="nonzero"/><path fill="#040707" d="M 4.664062 12.964844 L 5.660156 11.453125 L 7.542969 10.667969 L 6.488281 12.308594 Z M 5.84375 11.675781 L 5.355469 12.421875 L 6.304688 12.078125 L 6.828125 11.265625 Z M 5.84375 11.675781 " fill-opacity="1" fill-rule="nonzero"/><path fill="#040707" d="M 3.390625 15.191406 L 3.019531 13.289062 L 3.882812 11.542969 L 4.175781 13.5625 Z M 3.308594 13.328125 L 3.503906 14.320312 L 3.890625 13.515625 L 3.734375 12.460938 Z M 3.308594 13.328125 " fill-opacity="1" fill-rule="nonzero"/><path fill="#040707" d="M 3.679688 15.335938 L 4.476562 13.710938 L 6.246094 12.695312 L 5.40625 14.453125 Z M 4.6875 13.910156 L 4.296875 14.710938 L 5.199219 14.25 L 5.613281 13.378906 Z M 4.6875 13.910156 " fill-opacity="1" fill-rule="nonzero"/><path fill="#040707" d="M 2.695312 17.703125 L 2.085938 15.863281 L 2.726562 14.023438 L 3.273438 15.988281 Z M 2.378906 15.867188 L 2.695312 16.828125 L 2.980469 15.980469 L 2.695312 14.953125 Z M 2.378906 15.867188 " fill-opacity="1" fill-rule="nonzero"/><path fill="#040707" d="M 3 17.8125 L 3.585938 16.097656 L 5.214844 14.871094 L 4.605469 16.71875 Z M 3.820312 16.269531 L 3.53125 17.113281 L 4.371094 16.542969 L 4.671875 15.625 Z M 3.820312 16.269531 " fill-opacity="1" fill-rule="nonzero"/><path fill="#040707" d="M 2.320312 20.285156 L 1.484375 18.535156 L 1.886719 16.628906 L 2.675781 18.507812 Z M 1.777344 18.5 L 2.210938 19.414062 L 2.386719 18.539062 L 1.976562 17.554688 Z M 1.777344 18.5 " fill-opacity="1" fill-rule="nonzero"/><path fill="#040707" d="M 2.636719 20.351562 L 3.003906 18.578125 L 4.464844 17.15625 L 4.089844 19.066406 Z M 3.257812 18.71875 L 3.078125 19.59375 L 3.835938 18.921875 L 4.019531 17.976562 Z M 3.257812 18.71875 " fill-opacity="1" fill-rule="nonzero"/><g clip-path="url(#ecbab7134b)"><path fill="#040707" d="M 2.269531 22.890625 L 1.222656 21.257812 L 1.382812 19.316406 L 2.402344 21.085938 Z M 1.507812 21.1875 L 2.054688 22.042969 L 2.117188 21.148438 L 1.585938 20.226562 Z M 1.507812 21.1875 " fill-opacity="1" fill-rule="nonzero"/></g><path fill="#040707" d="M 2.59375 22.917969 L 2.734375 21.113281 L 4.007812 19.519531 L 3.875 21.460938 Z M 3.003906 21.21875 L 2.933594 22.109375 L 3.601562 21.347656 L 3.667969 20.386719 Z M 3.003906 21.21875 " fill-opacity="1" fill-rule="nonzero"/><g clip-path="url(#0e3641a486)"><path fill="#040707" d="M 2.546875 25.484375 L 1.304688 23.996094 L 1.222656 22.050781 L 2.453125 23.675781 Z M 1.578125 23.890625 L 2.226562 24.667969 L 2.179688 23.773438 L 1.539062 22.925781 Z M 1.578125 23.890625 " fill-opacity="1" fill-rule="nonzero"/></g><path fill="#040707" d="M 2.871094 25.46875 L 2.785156 23.660156 L 3.847656 21.921875 L 3.960938 23.863281 Z M 3.066406 23.734375 L 3.109375 24.625 L 3.679688 23.785156 L 3.621094 22.820312 L 3.066406 23.730469 Z M 3.066406 23.734375 " fill-opacity="1" fill-rule="nonzero"/><path fill="#040707" d="M 3.148438 28.019531 L 1.730469 26.699219 L 1.402344 24.78125 L 2.824219 26.238281 Z M 1.988281 26.5625 L 2.726562 27.25 L 2.570312 26.371094 L 1.824219 25.609375 L 1.988281 26.558594 Z M 1.988281 26.5625 " fill-opacity="1" fill-rule="nonzero"/><path fill="#040707" d="M 3.46875 27.964844 L 3.15625 26.183594 L 3.992188 24.324219 L 4.347656 26.238281 Z M 3.445312 26.21875 L 3.597656 27.097656 L 4.054688 26.195312 L 3.878906 25.246094 L 3.441406 26.21875 Z M 3.445312 26.21875 " fill-opacity="1" fill-rule="nonzero"/><path fill="#040707" d="M 4.0625 30.460938 L 2.488281 29.332031 L 1.921875 27.464844 L 3.519531 28.734375 Z M 2.726562 29.160156 L 3.546875 29.75 L 3.28125 28.898438 L 2.445312 28.234375 Z M 2.726562 29.160156 " fill-opacity="1" fill-rule="nonzero"/><path fill="#040707" d="M 4.371094 30.367188 L 3.839844 28.636719 L 4.433594 26.6875 L 5.027344 28.542969 Z M 4.128906 28.636719 L 4.394531 29.492188 L 4.734375 28.539062 L 4.441406 27.617188 Z M 4.128906 28.636719 " fill-opacity="1" fill-rule="nonzero"/><path fill="#040707" d="M 5.273438 32.769531 L 3.570312 31.84375 L 2.777344 30.066406 L 4.519531 31.125 Z M 3.785156 31.644531 L 4.675781 32.128906 L 4.304688 31.316406 L 3.390625 30.761719 Z M 3.785156 31.644531 " fill-opacity="1" fill-rule="nonzero"/><path fill="#040707" d="M 5.570312 32.636719 L 4.824219 30.988281 L 5.171875 28.976562 L 5.992188 30.746094 Z M 5.113281 30.949219 L 5.480469 31.765625 L 5.699219 30.777344 L 5.292969 29.898438 Z M 5.113281 30.949219 " fill-opacity="1" fill-rule="nonzero"/><path fill="#040707" d="M 6.765625 34.90625 L 4.960938 34.203125 L 3.949219 32.539062 L 5.8125 33.367188 Z M 5.148438 33.980469 L 6.09375 34.347656 L 5.621094 33.585938 L 4.648438 33.152344 Z M 5.148438 33.980469 " fill-opacity="1" fill-rule="nonzero"/><path fill="#040707" d="M 7.042969 34.738281 L 6.097656 33.195312 L 6.1875 31.15625 L 7.222656 32.808594 Z M 6.378906 33.121094 L 6.84375 33.882812 L 6.9375 32.875 L 6.425781 32.058594 Z M 6.378906 33.121094 " fill-opacity="1" fill-rule="nonzero"/><path fill="#040707" d="M 8.515625 36.839844 L 6.636719 36.367188 L 5.425781 34.84375 L 7.375 35.433594 Z M 6.792969 36.121094 L 7.773438 36.367188 L 7.210938 35.675781 L 6.191406 35.367188 Z M 6.792969 36.121094 " fill-opacity="1" fill-rule="nonzero"/><path fill="#040707" d="M 8.769531 36.640625 L 7.636719 35.226562 L 7.472656 33.195312 L 8.707031 34.703125 Z M 7.90625 35.121094 L 8.464844 35.816406 L 8.433594 34.804688 L 7.820312 34.054688 L 7.90625 35.117188 Z M 7.90625 35.121094 " fill-opacity="1" fill-rule="nonzero"/><path fill="#040707" d="M 10.492188 38.539062 L 8.566406 38.304688 L 7.175781 36.945312 L 9.183594 37.289062 Z M 8.695312 38.042969 L 9.699219 38.164062 L 9.054688 37.546875 L 8.003906 37.367188 Z M 8.695312 38.042969 " fill-opacity="1" fill-rule="nonzero"/><path fill="#040707" d="M 10.71875 38.308594 L 9.417969 37.046875 L 9 35.050781 L 10.410156 36.394531 Z M 9.671875 36.910156 L 10.3125 37.53125 L 10.152344 36.53125 L 9.453125 35.863281 L 9.671875 36.90625 Z M 9.671875 36.910156 " fill-opacity="1" fill-rule="nonzero"/><path fill="#040707" d="M 10.726562 39.988281 L 9.175781 38.8125 L 11.210938 38.898438 L 12.667969 39.976562 Z M 10.050781 39.125 L 10.820312 39.710938 L 11.832031 39.707031 L 11.113281 39.171875 Z M 10.050781 39.125 " fill-opacity="1" fill-rule="nonzero"/><path fill="#040707" d="M 12.863281 39.71875 L 11.414062 38.632812 L 10.75 36.707031 L 12.320312 37.859375 L 12.863281 39.722656 Z M 11.648438 38.460938 L 12.363281 39 L 12.078125 38.027344 L 11.300781 37.453125 Z M 11.648438 38.460938 " fill-opacity="1" fill-rule="nonzero"/><path fill="#040707" d="M 13.082031 41.386719 L 11.394531 40.414062 L 13.425781 40.246094 L 15.003906 41.132812 L 13.078125 41.386719 Z M 12.300781 40.617188 L 13.136719 41.097656 L 14.140625 40.964844 L 13.363281 40.527344 Z M 12.300781 40.617188 " fill-opacity="1" fill-rule="nonzero"/><path fill="#040707" d="M 15.164062 40.851562 L 13.59375 39.953125 L 12.691406 38.125 L 14.394531 39.074219 Z M 13.804688 39.757812 L 14.578125 40.199219 L 14.175781 39.269531 L 13.332031 38.800781 Z M 13.804688 39.757812 " fill-opacity="1" fill-rule="nonzero"/><path fill="#040707" d="M 15.589844 42.476562 L 13.796875 41.722656 L 15.789062 41.300781 L 17.464844 41.984375 Z M 14.722656 41.8125 L 15.613281 42.183594 L 16.589844 41.925781 L 15.761719 41.589844 L 14.71875 41.808594 Z M 14.722656 41.8125 " fill-opacity="1" fill-rule="nonzero"/><path fill="#040707" d="M 17.59375 41.6875 L 15.917969 40.992188 L 14.796875 39.292969 L 16.601562 40.019531 L 17.59375 41.683594 Z M 16.105469 40.769531 L 16.929688 41.113281 L 16.414062 40.242188 L 15.515625 39.878906 Z M 16.105469 40.769531 " fill-opacity="1" fill-rule="nonzero"/><g clip-path="url(#448921696c)"><path fill="#040707" d="M 11.066406 5.351562 L 12.328125 3.878906 L 14.234375 3.476562 L 12.835938 4.957031 Z M 12.480469 4.132812 L 11.820312 4.902344 L 12.691406 4.707031 L 13.421875 3.933594 Z M 12.480469 4.132812 " fill-opacity="1" fill-rule="nonzero"/></g><path fill="#040707" d="M 37.070312 6.710938 L 35.605469 5.644531 L 34.910156 3.730469 L 36.496094 4.859375 Z M 35.835938 5.472656 L 36.558594 5.996094 L 36.261719 5.027344 L 35.472656 4.46875 Z M 35.835938 5.472656 " fill-opacity="1" fill-rule="nonzero"/><path fill="#040707" d="M 34.945312 7.015625 L 33.375 5.863281 L 35.410156 5.917969 L 36.882812 6.972656 Z M 34.253906 6.164062 L 35.03125 6.734375 L 36.042969 6.714844 L 35.316406 6.195312 Z M 34.253906 6.164062 " fill-opacity="1" fill-rule="nonzero"/><path fill="#040707" d="M 38.871094 8.59375 L 37.550781 7.355469 L 37.101562 5.367188 L 38.535156 6.683594 Z M 37.804688 7.210938 L 38.453125 7.820312 L 38.277344 6.824219 L 37.566406 6.171875 L 37.800781 7.210938 Z M 37.804688 7.210938 " fill-opacity="1" fill-rule="nonzero"/><path fill="#040707" d="M 38.652344 8.832031 L 36.726562 8.628906 L 35.3125 7.289062 L 37.324219 7.601562 Z M 36.847656 8.363281 L 37.855469 8.46875 L 37.199219 7.863281 L 36.144531 7.699219 Z M 36.847656 8.363281 " fill-opacity="1" fill-rule="nonzero"/><path fill="#040707" d="M 40.425781 10.6875 L 39.269531 9.292969 L 39.074219 7.261719 L 40.332031 8.75 Z M 39.539062 9.179688 L 40.109375 9.871094 L 40.058594 8.859375 L 39.433594 8.121094 Z M 39.539062 9.179688 " fill-opacity="1" fill-rule="nonzero"/><path fill="#040707" d="M 40.179688 10.894531 L 38.289062 10.453125 L 37.054688 8.949219 L 39.015625 9.507812 Z M 38.445312 10.203125 L 39.429688 10.4375 L 38.855469 9.75 L 37.832031 9.457031 Z M 38.445312 10.203125 " fill-opacity="1" fill-rule="nonzero"/><path fill="#040707" d="M 41.703125 12.960938 L 40.730469 11.429688 L 40.789062 9.394531 L 41.851562 11.027344 Z M 41.011719 11.355469 L 41.488281 12.109375 L 41.566406 11.097656 L 41.039062 10.289062 L 41.011719 11.351562 Z M 41.011719 11.355469 " fill-opacity="1" fill-rule="nonzero"/><path fill="#040707" d="M 41.429688 13.136719 L 39.613281 12.460938 L 38.578125 10.8125 L 40.453125 11.613281 Z M 39.796875 12.234375 L 40.746094 12.585938 L 40.261719 11.835938 L 39.285156 11.414062 Z M 39.796875 12.234375 " fill-opacity="1" fill-rule="nonzero"/><path fill="#040707" d="M 42.683594 15.375 L 41.914062 13.734375 L 42.226562 11.71875 L 43.074219 13.472656 L 42.6875 15.375 Z M 42.199219 13.695312 L 42.582031 14.503906 L 42.785156 13.511719 L 42.363281 12.640625 Z M 42.199219 13.695312 " fill-opacity="1" fill-rule="nonzero"/><path fill="#040707" d="M 42.394531 15.515625 L 40.675781 14.617188 L 39.851562 12.851562 L 41.613281 13.882812 Z M 40.886719 14.414062 L 41.785156 14.882812 L 41.398438 14.078125 L 40.480469 13.539062 Z M 40.886719 14.414062 " fill-opacity="1" fill-rule="nonzero"/><path fill="#040707" d="M 43.359375 17.890625 L 42.796875 16.171875 L 43.363281 14.210938 L 43.984375 16.054688 Z M 43.085938 16.164062 L 43.363281 17.015625 L 43.691406 16.054688 L 43.382812 15.140625 Z M 43.085938 16.164062 " fill-opacity="1" fill-rule="nonzero"/><path fill="#040707" d="M 43.050781 17.996094 L 41.460938 16.890625 L 40.867188 15.035156 L 42.480469 16.277344 Z M 41.695312 16.714844 L 42.523438 17.292969 L 42.242188 16.445312 L 41.398438 15.796875 L 41.691406 16.714844 Z M 41.695312 16.714844 " fill-opacity="1" fill-rule="nonzero"/><path fill="#040707" d="M 43.710938 20.476562 L 43.371094 18.695312 L 44.175781 16.824219 L 44.558594 18.734375 L 43.707031 20.476562 Z M 43.65625 18.730469 L 43.824219 19.605469 L 44.269531 18.695312 L 44.078125 17.75 L 43.660156 18.730469 Z M 43.65625 18.730469 " fill-opacity="1" fill-rule="nonzero"/><path fill="#040707" d="M 43.390625 20.539062 L 41.949219 19.242188 L 41.59375 17.328125 L 43.039062 18.765625 L 43.390625 20.542969 Z M 42.207031 19.101562 L 42.960938 19.777344 L 42.785156 18.902344 L 42.03125 18.148438 Z M 42.207031 19.101562 " fill-opacity="1" fill-rule="nonzero"/><path fill="#040707" d="M 43.734375 23.082031 L 43.621094 21.273438 L 44.652344 19.519531 L 44.796875 21.460938 Z M 43.902344 21.34375 L 43.957031 22.234375 L 44.511719 21.386719 L 44.441406 20.421875 Z M 43.902344 21.34375 " fill-opacity="1" fill-rule="nonzero"/><path fill="#040707" d="M 43.410156 23.105469 L 42.144531 21.636719 L 42.03125 19.695312 L 43.285156 21.300781 Z M 42.414062 21.527344 L 43.078125 22.296875 L 43.015625 21.402344 L 42.359375 20.5625 Z M 42.414062 21.527344 " fill-opacity="1" fill-rule="nonzero"/><path fill="#040707" d="M 43.433594 25.671875 L 43.546875 23.863281 L 44.789062 22.25 L 44.6875 24.195312 Z M 43.816406 23.96875 L 43.761719 24.859375 L 44.417969 24.085938 L 44.46875 23.125 L 43.816406 23.964844 Z M 43.816406 23.96875 " fill-opacity="1" fill-rule="nonzero"/><path fill="#040707" d="M 43.109375 25.65625 L 42.035156 24.039062 L 42.167969 22.097656 L 43.210938 23.847656 Z M 42.320312 23.964844 L 42.878906 24.808594 L 42.929688 23.917969 L 42.386719 23 Z M 42.320312 23.964844 " fill-opacity="1" fill-rule="nonzero"/><path fill="#040707" d="M 42.808594 28.203125 L 43.148438 26.425781 L 44.585938 24.980469 L 44.238281 26.898438 Z M 43.402344 26.558594 L 43.238281 27.4375 L 43.984375 26.753906 L 44.15625 25.804688 Z M 43.402344 26.558594 " fill-opacity="1" fill-rule="nonzero"/><path fill="#040707" d="M 42.488281 28.148438 L 41.628906 26.410156 L 42 24.496094 L 42.816406 26.367188 Z M 41.917969 26.371094 L 42.367188 27.277344 L 42.53125 26.398438 L 42.101562 25.421875 Z M 41.917969 26.371094 " fill-opacity="1" fill-rule="nonzero"/><path fill="#040707" d="M 41.871094 30.636719 L 42.433594 28.914062 L 44.039062 27.660156 L 43.457031 29.519531 Z M 42.667969 29.082031 L 42.394531 29.929688 L 43.222656 29.347656 L 43.507812 28.425781 Z M 42.667969 29.082031 " fill-opacity="1" fill-rule="nonzero"/><path fill="#040707" d="M 41.5625 30.539062 L 40.925781 28.707031 L 41.535156 26.859375 L 42.113281 28.816406 Z M 41.21875 28.707031 L 41.550781 29.660156 L 41.824219 28.808594 L 41.519531 27.785156 L 41.21875 28.703125 Z M 41.21875 28.707031 " fill-opacity="1" fill-rule="nonzero"/><path fill="#040707" d="M 40.640625 32.933594 L 41.410156 31.292969 L 43.160156 30.25 L 42.351562 32.023438 Z M 41.625 31.488281 L 41.242188 32.296875 L 42.136719 31.820312 L 42.539062 30.945312 Z M 41.625 31.488281 " fill-opacity="1" fill-rule="nonzero"/><path fill="#040707" d="M 40.34375 32.796875 L 39.941406 30.902344 L 40.777344 29.140625 L 41.105469 31.152344 Z M 40.230469 30.933594 L 40.441406 31.925781 L 40.816406 31.113281 L 40.644531 30.0625 Z M 40.230469 30.933594 " fill-opacity="1" fill-rule="nonzero"/><path fill="#040707" d="M 39.128906 35.058594 L 40.097656 33.527344 L 41.964844 32.714844 L 40.941406 34.367188 Z M 40.285156 33.746094 L 39.808594 34.503906 L 40.753906 34.144531 L 41.261719 33.320312 Z M 40.285156 33.746094 " fill-opacity="1" fill-rule="nonzero"/><path fill="#040707" d="M 38.851562 34.886719 L 38.6875 32.953125 L 39.738281 31.3125 L 39.8125 33.351562 Z M 38.972656 33.023438 L 39.058594 34.03125 L 39.53125 33.277344 L 39.496094 32.210938 Z M 38.972656 33.023438 " fill-opacity="1" fill-rule="nonzero"/><path fill="#040707" d="M 37.359375 36.972656 L 38.515625 35.578125 L 40.472656 35.003906 L 39.246094 36.519531 L 37.363281 36.976562 Z M 38.671875 35.820312 L 38.105469 36.507812 L 39.089844 36.269531 L 39.699219 35.519531 L 38.675781 35.820312 Z M 38.671875 35.820312 " fill-opacity="1" fill-rule="nonzero"/><path fill="#040707" d="M 37.109375 36.769531 L 37.191406 34.832031 L 38.4375 33.335938 L 38.253906 35.367188 Z M 37.464844 34.9375 L 37.421875 35.949219 L 37.988281 35.257812 L 38.082031 34.195312 Z M 37.464844 34.9375 " fill-opacity="1" fill-rule="nonzero"/><path fill="#040707" d="M 35.371094 38.65625 L 36.6875 37.414062 L 38.703125 37.089844 L 37.296875 38.441406 Z M 36.816406 37.675781 L 36.164062 38.285156 L 37.171875 38.175781 L 37.867188 37.503906 Z M 36.816406 37.675781 " fill-opacity="1" fill-rule="nonzero"/><path fill="#040707" d="M 35.144531 38.421875 L 35.46875 36.507812 L 36.894531 35.183594 L 36.457031 37.171875 Z M 35.726562 36.648438 L 35.558594 37.648438 L 36.203125 37.03125 L 36.433594 35.988281 Z M 35.726562 36.648438 " fill-opacity="1" fill-rule="nonzero"/><path fill="#040707" d="M 35.121094 40.101562 L 33.183594 40.074219 L 34.648438 39.007812 L 36.683594 38.9375 Z M 34.019531 39.808594 L 35.03125 39.824219 L 35.804688 39.246094 L 34.742188 39.28125 Z M 34.019531 39.808594 " fill-opacity="1" fill-rule="nonzero"/><path fill="#040707" d="M 32.988281 39.8125 L 33.550781 37.957031 L 35.128906 36.820312 L 34.445312 38.738281 Z M 33.785156 38.128906 L 33.492188 39.097656 L 34.214844 38.566406 L 34.570312 37.5625 Z M 33.785156 38.128906 " fill-opacity="1" fill-rule="nonzero"/><path fill="#040707" d="M 32.753906 41.476562 L 30.832031 41.203125 L 32.421875 40.332031 L 34.449219 40.519531 Z M 31.695312 41.046875 L 32.699219 41.1875 L 33.539062 40.714844 L 32.480469 40.617188 Z M 31.695312 41.046875 " fill-opacity="1" fill-rule="nonzero"/><path fill="#040707" d="M 30.675781 40.921875 L 31.464844 39.152344 L 33.171875 38.21875 L 32.253906 40.039062 Z M 31.675781 39.351562 L 31.265625 40.277344 L 32.046875 39.839844 L 32.527344 38.890625 L 31.679688 39.351562 Z M 31.675781 39.351562 " fill-opacity="1" fill-rule="nonzero"/><g clip-path="url(#8ab4adad05)"><path fill="#040707" d="M 30.234375 42.542969 L 28.363281 42.035156 L 30.046875 41.367188 L 32.035156 41.808594 Z M 29.238281 41.984375 L 30.214844 42.25 L 31.109375 41.886719 L 30.070312 41.65625 Z M 29.238281 41.984375 " fill-opacity="1" fill-rule="nonzero"/></g><path fill="#040707" d="M 28.238281 41.734375 L 29.242188 40.078125 L 31.058594 39.367188 L 29.917969 41.058594 Z M 29.433594 40.300781 L 28.90625 41.167969 L 29.734375 40.832031 L 30.332031 39.949219 Z M 29.433594 40.300781 " fill-opacity="1" fill-rule="nonzero"/><path fill="#040707" d="M 35.101562 5.460938 L 33.335938 5.054688 L 31.949219 3.558594 L 33.851562 3.980469 Z M 33.480469 4.800781 L 34.351562 5.003906 L 33.699219 4.230469 L 32.757812 4.019531 Z M 33.480469 4.800781 " fill-opacity="1" fill-rule="nonzero"/><path fill="#040707" d="M 19.070312 11.257812 L 19.070312 10.558594 L 22.820312 9.214844 L 26.570312 10.585938 L 26.570312 11.257812 Z M 19.070312 11.257812 " fill-opacity="1" fill-rule="nonzero"/><path fill="#040707" d="M 19.910156 11.578125 L 20.734375 11.578125 L 20.734375 14.296875 L 19.910156 14.296875 Z M 19.910156 11.578125 " fill-opacity="1" fill-rule="nonzero"/><path fill="#040707" d="M 19.496094 14.632812 L 26.160156 14.632812 L 26.160156 15.316406 L 26.992188 15.316406 L 26.992188 15.984375 L 18.679688 15.984375 L 18.679688 15.328125 L 19.496094 15.308594 Z M 19.496094 14.632812 " fill-opacity="1" fill-rule="nonzero"/><path fill="#040707" d="M 21.574219 11.585938 L 22.402344 11.585938 L 22.402344 14.304688 L 21.574219 14.304688 Z M 21.574219 11.585938 " fill-opacity="1" fill-rule="nonzero"/><path fill="#040707" d="M 23.246094 11.585938 L 24.074219 11.585938 L 24.074219 14.304688 L 23.246094 14.304688 Z M 23.246094 11.585938 " fill-opacity="1" fill-rule="nonzero"/><path fill="#040707" d="M 24.90625 11.585938 L 25.734375 11.585938 L 25.734375 14.304688 L 24.90625 14.304688 Z M 24.90625 11.585938 " fill-opacity="1" fill-rule="nonzero"/><path fill="#040707" d="M 8.289062 21.4375 L 7.921875 24.816406 L 6.542969 24.816406 L 5.828125 18.472656 L 6.808594 18.472656 L 7.347656 23.472656 L 7.832031 18.472656 L 8.800781 18.472656 L 9.304688 23.511719 L 9.828125 18.472656 L 10.703125 18.472656 L 9.992188 24.816406 L 8.65625 24.816406 Z M 8.289062 21.4375 " fill-opacity="1" fill-rule="nonzero"/><path fill="#040707" d="M 12.050781 20.019531 C 12.050781 19.007812 12.589844 18.425781 13.578125 18.425781 C 14.566406 18.425781 15.105469 19.007812 15.105469 20.019531 L 15.105469 23.320312 C 15.105469 24.332031 14.566406 24.914062 13.578125 24.914062 C 12.589844 24.914062 12.050781 24.332031 12.050781 23.320312 Z M 13.058594 23.382812 C 13.058594 23.835938 13.257812 24.007812 13.578125 24.007812 C 13.898438 24.007812 14.097656 23.835938 14.097656 23.382812 L 14.097656 19.957031 C 14.097656 19.503906 13.898438 19.332031 13.578125 19.332031 C 13.257812 19.332031 13.058594 19.503906 13.058594 19.957031 Z M 13.058594 23.382812 " fill-opacity="1" fill-rule="nonzero"/><path fill="#040707" d="M 18.785156 24.835938 C 18.730469 24.675781 18.691406 24.574219 18.691406 24.058594 L 18.691406 23.0625 C 18.691406 22.472656 18.492188 22.257812 18.035156 22.257812 L 17.6875 22.257812 L 17.6875 24.835938 L 16.679688 24.835938 L 16.679688 18.496094 L 18.199219 18.496094 C 19.242188 18.496094 19.691406 18.976562 19.691406 19.953125 L 19.691406 20.453125 C 19.691406 21.105469 19.480469 21.53125 19.03125 21.738281 C 19.535156 21.945312 19.699219 22.425781 19.699219 23.089844 L 19.699219 24.066406 C 19.699219 24.375 19.707031 24.601562 19.808594 24.835938 Z M 17.6875 19.402344 L 17.6875 21.351562 L 18.078125 21.351562 C 18.453125 21.351562 18.683594 21.1875 18.683594 20.679688 L 18.683594 20.054688 C 18.683594 19.601562 18.527344 19.402344 18.171875 19.402344 Z M 17.6875 19.402344 " fill-opacity="1" fill-rule="nonzero"/><path fill="#040707" d="M 22.601562 22.285156 L 22.289062 22.867188 L 22.289062 24.8125 L 21.285156 24.8125 L 21.285156 18.472656 L 22.289062 18.472656 L 22.289062 21.234375 L 23.609375 18.472656 L 24.613281 18.472656 L 23.214844 21.300781 L 24.613281 24.8125 L 23.582031 24.8125 Z M 22.601562 22.285156 " fill-opacity="1" fill-rule="nonzero"/><path fill="#040707" d="M 27.273438 18.421875 C 28.25 18.421875 28.753906 19.003906 28.753906 20.015625 L 28.753906 20.21875 L 27.800781 20.21875 L 27.800781 19.953125 C 27.800781 19.5 27.621094 19.328125 27.300781 19.328125 C 26.980469 19.328125 26.796875 19.5 26.796875 19.953125 C 26.796875 21.257812 28.761719 21.503906 28.761719 23.316406 C 28.761719 24.328125 28.25 24.910156 27.261719 24.910156 C 26.273438 24.910156 25.761719 24.328125 25.761719 23.316406 L 25.761719 22.925781 L 26.714844 22.925781 L 26.714844 23.378906 C 26.714844 23.832031 26.914062 23.996094 27.234375 23.996094 C 27.554688 23.996094 27.753906 23.832031 27.753906 23.378906 C 27.753906 22.074219 25.789062 21.832031 25.789062 20.019531 C 25.789062 19.003906 26.292969 18.425781 27.269531 18.425781 Z M 27.273438 18.421875 " fill-opacity="1" fill-rule="nonzero"/><path fill="#040707" d="M 30.265625 18.511719 L 31.269531 18.511719 L 31.269531 24.851562 L 30.265625 24.851562 Z M 30.265625 18.511719 " fill-opacity="1" fill-rule="nonzero"/><path fill="#040707" d="M 32.636719 18.523438 L 35.746094 18.523438 L 35.746094 19.429688 L 34.695312 19.429688 L 34.695312 24.863281 L 33.691406 24.863281 L 33.691406 19.429688 L 32.636719 19.429688 Z M 32.636719 18.523438 " fill-opacity="1" fill-rule="nonzero"/><path fill="#040707" d="M 38.039062 22.753906 L 36.765625 18.515625 L 37.820312 18.515625 L 38.585938 21.40625 L 39.355469 18.515625 L 40.316406 18.515625 L 39.046875 22.753906 L 39.046875 24.855469 L 38.039062 24.855469 Z M 38.039062 22.753906 " fill-opacity="1" fill-rule="nonzero"/><path fill="#ffffff" d="M 22.816406 30.9375 L 22.472656 30.9375 L 22.472656 31.164062 L 22.777344 31.164062 L 22.777344 31.308594 L 22.472656 31.308594 L 22.472656 31.546875 L 22.816406 31.546875 L 22.816406 31.695312 L 22.289062 31.695312 L 22.289062 30.789062 L 22.816406 30.789062 Z M 22.816406 30.9375 " fill-opacity="1" fill-rule="nonzero"/><path fill="#ffffff" d="M 23.277344 31.707031 C 23.097656 31.707031 22.96875 31.601562 22.960938 31.46875 L 23.144531 31.46875 C 23.152344 31.523438 23.203125 31.5625 23.277344 31.5625 C 23.347656 31.5625 23.386719 31.53125 23.386719 31.492188 C 23.386719 31.363281 22.976562 31.441406 22.976562 31.179688 C 22.976562 31.0625 23.085938 30.964844 23.265625 30.964844 C 23.441406 30.964844 23.542969 31.058594 23.554688 31.203125 L 23.378906 31.203125 C 23.375 31.148438 23.332031 31.109375 23.257812 31.109375 C 23.191406 31.109375 23.15625 31.136719 23.15625 31.179688 C 23.15625 31.308594 23.554688 31.226562 23.5625 31.492188 C 23.5625 31.613281 23.453125 31.707031 23.277344 31.707031 Z M 23.277344 31.707031 " fill-opacity="1" fill-rule="nonzero"/><path fill="#ffffff" d="M 23.757812 31.125 L 23.671875 31.125 L 23.671875 30.976562 L 23.757812 30.976562 L 23.757812 30.796875 L 23.941406 30.796875 L 23.941406 30.976562 L 24.105469 30.976562 L 24.105469 31.125 L 23.941406 31.125 L 23.941406 31.472656 C 23.941406 31.523438 23.960938 31.542969 24.019531 31.542969 L 24.105469 31.542969 L 24.105469 31.695312 L 23.988281 31.695312 C 23.851562 31.695312 23.757812 31.636719 23.757812 31.472656 Z M 23.757812 31.125 " fill-opacity="1" fill-rule="nonzero"/><path fill="#ffffff" d="M 24.335938 31.703125 C 24.269531 31.703125 24.222656 31.65625 24.222656 31.597656 C 24.222656 31.539062 24.269531 31.492188 24.335938 31.492188 C 24.402344 31.492188 24.445312 31.539062 24.445312 31.597656 C 24.445312 31.65625 24.398438 31.703125 24.335938 31.703125 Z M 24.335938 31.703125 " fill-opacity="1" fill-rule="nonzero"/><path fill="#040707" d="M 14.148438 33.027344 L 14.148438 33.003906 C 14.148438 32.609375 14.410156 32.210938 14.976562 31.785156 C 15.421875 31.457031 15.539062 31.351562 15.539062 31.050781 C 15.539062 30.78125 15.390625 30.578125 15.0625 30.578125 C 14.730469 30.578125 14.570312 30.746094 14.511719 31.078125 L 14.152344 31.078125 C 14.203125 30.617188 14.5 30.273438 15.0625 30.273438 C 15.679688 30.273438 15.917969 30.664062 15.917969 31.042969 C 15.917969 31.453125 15.742188 31.613281 15.234375 32 C 14.851562 32.285156 14.652344 32.5 14.585938 32.710938 L 16.027344 32.710938 L 15.972656 33.027344 Z M 14.148438 33.027344 " fill-opacity="1" fill-rule="nonzero"/><path fill="#040707" d="M 18.886719 31.65625 C 18.886719 32.324219 18.695312 33.074219 17.925781 33.074219 C 17.15625 33.074219 16.960938 32.375 16.960938 31.675781 C 16.960938 30.976562 17.191406 30.273438 17.9375 30.273438 C 18.683594 30.273438 18.886719 30.964844 18.886719 31.652344 Z M 17.351562 31.675781 C 17.351562 32.1875 17.445312 32.765625 17.929688 32.765625 C 18.414062 32.765625 18.503906 32.214844 18.503906 31.660156 C 18.503906 31.136719 18.410156 30.582031 17.941406 30.582031 C 17.472656 30.582031 17.351562 31.078125 17.351562 31.675781 Z M 17.351562 31.675781 " fill-opacity="1" fill-rule="nonzero"/><path fill="#040707" d="M 28.4375 33.027344 L 28.4375 30.753906 C 28.304688 30.847656 28.023438 30.960938 27.871094 30.988281 L 27.871094 30.695312 C 28.082031 30.640625 28.351562 30.488281 28.539062 30.308594 L 28.816406 30.308594 L 28.816406 33.023438 L 28.4375 33.023438 Z M 28.4375 33.027344 " fill-opacity="1" fill-rule="nonzero"/><path fill="#040707" d="M 32.210938 30.324219 L 32.210938 30.621094 C 31.730469 31.253906 31.28125 32.230469 31.144531 33.027344 L 30.761719 33.027344 C 30.890625 32.257812 31.378906 31.214844 31.824219 30.640625 L 30.402344 30.640625 L 30.402344 30.324219 L 32.214844 30.324219 Z M 32.210938 30.324219 " fill-opacity="1" fill-rule="nonzero"/><path fill="#ffffff" d="M 19.972656 31.246094 L 23.234375 29.773438 L 26.464844 31.246094 L 23.21875 32.746094 Z M 19.972656 31.246094 " fill-opacity="1" fill-rule="nonzero"/><g clip-path="url(#d3f3d0219f)"><path fill="#ffffff" d="M 23.179688 38.53125 C 23.121094 38.53125 23.0625 38.53125 23.003906 38.53125 C 19.398438 38.496094 16 37.34375 13.175781 35.203125 C 10.421875 33.117188 8.402344 30.25 7.34375 26.910156 L 7.871094 26.742188 C 8.898438 29.96875 10.847656 32.742188 13.507812 34.761719 C 16.238281 36.828125 19.523438 37.941406 23.011719 37.976562 C 23.066406 37.976562 23.125 37.976562 23.179688 37.976562 C 30.191406 37.976562 36.226562 33.484375 38.234375 26.746094 L 38.765625 26.902344 C 36.6875 33.878906 30.4375 38.53125 23.179688 38.53125 Z M 7.773438 17.277344 L 7.242188 17.113281 C 8.261719 13.890625 10.351562 10.964844 13.136719 8.882812 C 16.03125 6.710938 19.464844 5.539062 23.070312 5.492188 C 23.144531 5.492188 23.214844 5.492188 23.289062 5.492188 C 26.835938 5.492188 30.183594 6.613281 32.976562 8.742188 C 35.703125 10.816406 37.753906 13.789062 38.757812 17.113281 L 38.226562 17.273438 C 37.257812 14.058594 35.273438 11.1875 32.644531 9.183594 C 29.890625 7.085938 26.582031 6.003906 23.078125 6.046875 C 19.589844 6.089844 16.269531 7.226562 13.46875 9.324219 C 10.777344 11.339844 8.753906 14.167969 7.773438 17.277344 Z M 7.773438 17.277344 " fill-opacity="1" fill-rule="nonzero"/></g><path fill="#ffffff" d="M 23.21875 32.992188 L 21.5625 32.21875 L 21.5625 32.992188 C 22.160156 33.839844 24.203125 33.882812 24.894531 32.992188 L 24.894531 32.21875 C 24.894531 32.21875 23.21875 32.992188 23.21875 32.992188 Z M 23.21875 32.992188 " fill-opacity="1" fill-rule="nonzero"/><path fill="#ffffff" d="M 26.339844 31.304688 L 26.339844 31.96875 C 26.636719 32.027344 26.582031 32.382812 26.402344 32.433594 L 26.644531 33.464844 L 25.917969 33.464844 L 26.164062 32.441406 C 25.964844 32.304688 26.007812 32.035156 26.246094 31.972656 L 26.28125 31.324219 Z M 26.339844 31.304688 " fill-opacity="1" fill-rule="nonzero"/><g clip-path="url(#51b5976725)"><path fill="#ffffff" d="M 12.863281 39.71875 L 11.414062 38.632812 L 10.75 36.707031 L 12.320312 37.859375 L 12.863281 39.722656 Z M 11.648438 38.460938 L 12.363281 39 L 12.078125 38.027344 L 11.300781 37.453125 Z M 11.648438 38.460938 " fill-opacity="1" fill-rule="nonzero"/></g><g clip-path="url(#1ac61b8d18)"><path fill="#ffffff" d="M 15.164062 40.851562 L 13.59375 39.953125 L 12.691406 38.125 L 14.394531 39.074219 Z M 13.804688 39.757812 L 14.578125 40.199219 L 14.175781 39.269531 L 13.332031 38.800781 Z M 13.804688 39.757812 " fill-opacity="1" fill-rule="nonzero"/></g><g clip-path="url(#9922632b51)"><path fill="#ffffff" d="M 32.988281 39.8125 L 33.550781 37.957031 L 35.128906 36.820312 L 34.445312 38.738281 Z M 33.785156 38.128906 L 33.492188 39.097656 L 34.214844 38.566406 L 34.570312 37.5625 Z M 33.785156 38.128906 " fill-opacity="1" fill-rule="nonzero"/></g><g clip-path="url(#ba2e27edaa)"><path fill="#ffffff" d="M 30.675781 40.921875 L 31.464844 39.152344 L 33.171875 38.21875 L 32.253906 40.039062 Z M 31.675781 39.351562 L 31.265625 40.277344 L 32.046875 39.839844 L 32.527344 38.890625 L 31.679688 39.351562 Z M 31.675781 39.351562 " fill-opacity="1" fill-rule="nonzero"/></g><path fill="#ffffff" d="M 19.070312 11.257812 L 19.070312 10.558594 L 22.820312 9.214844 L 26.570312 10.585938 L 26.570312 11.257812 Z M 19.070312 11.257812 " fill-opacity="1" fill-rule="nonzero"/><path fill="#ffffff" d="M 19.910156 11.578125 L 20.734375 11.578125 L 20.734375 14.296875 L 19.910156 14.296875 Z M 19.910156 11.578125 " fill-opacity="1" fill-rule="nonzero"/><path fill="#ffffff" d="M 19.496094 14.632812 L 26.160156 14.632812 L 26.160156 15.316406 L 26.992188 15.316406 L 26.992188 15.984375 L 18.679688 15.984375 L 18.679688 15.328125 L 19.496094 15.308594 Z M 19.496094 14.632812 " fill-opacity="1" fill-rule="nonzero"/><path fill="#ffffff" d="M 21.574219 11.585938 L 22.402344 11.585938 L 22.402344 14.304688 L 21.574219 14.304688 Z M 21.574219 11.585938 " fill-opacity="1" fill-rule="nonzero"/><path fill="#ffffff" d="M 23.246094 11.585938 L 24.074219 11.585938 L 24.074219 14.304688 L 23.246094 14.304688 Z M 23.246094 11.585938 " fill-opacity="1" fill-rule="nonzero"/><path fill="#ffffff" d="M 24.90625 11.585938 L 25.734375 11.585938 L 25.734375 14.304688 L 24.90625 14.304688 Z M 24.90625 11.585938 " fill-opacity="1" fill-rule="nonzero"/><path fill="#ffffff" d="M 12.050781 20.019531 C 12.050781 19.007812 12.589844 18.425781 13.578125 18.425781 C 14.566406 18.425781 15.105469 19.007812 15.105469 20.019531 L 15.105469 23.320312 C 15.105469 24.332031 14.566406 24.914062 13.578125 24.914062 C 12.589844 24.914062 12.050781 24.332031 12.050781 23.320312 Z M 13.058594 23.382812 C 13.058594 23.835938 13.257812 24.007812 13.578125 24.007812 C 13.898438 24.007812 14.097656 23.835938 14.097656 23.382812 L 14.097656 19.957031 C 14.097656 19.503906 13.898438 19.332031 13.578125 19.332031 C 13.257812 19.332031 13.058594 19.503906 13.058594 19.957031 Z M 13.058594 23.382812 " fill-opacity="1" fill-rule="nonzero"/><path fill="#ffffff" d="M 18.785156 24.835938 C 18.730469 24.675781 18.691406 24.574219 18.691406 24.058594 L 18.691406 23.0625 C 18.691406 22.472656 18.492188 22.257812 18.035156 22.257812 L 17.6875 22.257812 L 17.6875 24.835938 L 16.679688 24.835938 L 16.679688 18.496094 L 18.199219 18.496094 C 19.242188 18.496094 19.691406 18.976562 19.691406 19.953125 L 19.691406 20.453125 C 19.691406 21.105469 19.480469 21.53125 19.03125 21.738281 C 19.535156 21.945312 19.699219 22.425781 19.699219 23.089844 L 19.699219 24.066406 C 19.699219 24.375 19.707031 24.601562 19.808594 24.835938 Z M 17.6875 19.402344 L 17.6875 21.351562 L 18.078125 21.351562 C 18.453125 21.351562 18.683594 21.1875 18.683594 20.679688 L 18.683594 20.054688 C 18.683594 19.601562 18.527344 19.402344 18.171875 19.402344 Z M 17.6875 19.402344 " fill-opacity="1" fill-rule="nonzero"/><path fill="#ffffff" d="M 22.601562 22.285156 L 22.289062 22.867188 L 22.289062 24.8125 L 21.285156 24.8125 L 21.285156 18.472656 L 22.289062 18.472656 L 22.289062 21.234375 L 23.609375 18.472656 L 24.613281 18.472656 L 23.214844 21.300781 L 24.613281 24.8125 L 23.582031 24.8125 Z M 22.601562 22.285156 " fill-opacity="1" fill-rule="nonzero"/><path fill="#ffffff" d="M 27.273438 18.421875 C 28.25 18.421875 28.753906 19.003906 28.753906 20.015625 L 28.753906 20.21875 L 27.800781 20.21875 L 27.800781 19.953125 C 27.800781 19.5 27.621094 19.328125 27.300781 19.328125 C 26.980469 19.328125 26.796875 19.5 26.796875 19.953125 C 26.796875 21.257812 28.761719 21.503906 28.761719 23.316406 C 28.761719 24.328125 28.25 24.910156 27.261719 24.910156 C 26.273438 24.910156 25.761719 24.328125 25.761719 23.316406 L 25.761719 22.925781 L 26.714844 22.925781 L 26.714844 23.378906 C 26.714844 23.832031 26.914062 23.996094 27.234375 23.996094 C 27.554688 23.996094 27.753906 23.832031 27.753906 23.378906 C 27.753906 22.074219 25.789062 21.832031 25.789062 20.019531 C 25.789062 19.003906 26.292969 18.425781 27.269531 18.425781 Z M 27.273438 18.421875 " fill-opacity="1" fill-rule="nonzero"/><path fill="#ffffff" d="M 30.265625 18.511719 L 31.269531 18.511719 L 31.269531 24.851562 L 30.265625 24.851562 Z M 30.265625 18.511719 " fill-opacity="1" fill-rule="nonzero"/><g clip-path="url(#a539402b07)"><path fill="#ffffff" d="M 32.636719 18.523438 L 35.746094 18.523438 L 35.746094 19.429688 L 34.695312 19.429688 L 34.695312 24.863281 L 33.691406 24.863281 L 33.691406 19.429688 L 32.636719 19.429688 Z M 32.636719 18.523438 " fill-opacity="1" fill-rule="nonzero"/></g><path fill="#ffffff" d="M 22.816406 30.9375 L 22.472656 30.9375 L 22.472656 31.164062 L 22.777344 31.164062 L 22.777344 31.308594 L 22.472656 31.308594 L 22.472656 31.546875 L 22.816406 31.546875 L 22.816406 31.695312 L 22.289062 31.695312 L 22.289062 30.789062 L 22.816406 30.789062 Z M 22.816406 30.9375 " fill-opacity="1" fill-rule="nonzero"/><path fill="#ffffff" d="M 23.277344 31.707031 C 23.097656 31.707031 22.96875 31.601562 22.960938 31.46875 L 23.144531 31.46875 C 23.152344 31.523438 23.203125 31.5625 23.277344 31.5625 C 23.347656 31.5625 23.386719 31.53125 23.386719 31.492188 C 23.386719 31.363281 22.976562 31.441406 22.976562 31.179688 C 22.976562 31.0625 23.085938 30.964844 23.265625 30.964844 C 23.441406 30.964844 23.542969 31.058594 23.554688 31.203125 L 23.378906 31.203125 C 23.375 31.148438 23.332031 31.109375 23.257812 31.109375 C 23.191406 31.109375 23.15625 31.136719 23.15625 31.179688 C 23.15625 31.308594 23.554688 31.226562 23.5625 31.492188 C 23.5625 31.613281 23.453125 31.707031 23.277344 31.707031 Z M 23.277344 31.707031 " fill-opacity="1" fill-rule="nonzero"/><path fill="#ffffff" d="M 23.757812 31.125 L 23.671875 31.125 L 23.671875 30.976562 L 23.757812 30.976562 L 23.757812 30.796875 L 23.941406 30.796875 L 23.941406 30.976562 L 24.105469 30.976562 L 24.105469 31.125 L 23.941406 31.125 L 23.941406 31.472656 C 23.941406 31.523438 23.960938 31.542969 24.019531 31.542969 L 24.105469 31.542969 L 24.105469 31.695312 L 23.988281 31.695312 C 23.851562 31.695312 23.757812 31.636719 23.757812 31.472656 Z M 23.757812 31.125 " fill-opacity="1" fill-rule="nonzero"/><path fill="#ffffff" d="M 24.335938 31.703125 C 24.269531 31.703125 24.222656 31.65625 24.222656 31.597656 C 24.222656 31.539062 24.269531 31.492188 24.335938 31.492188 C 24.402344 31.492188 24.445312 31.539062 24.445312 31.597656 C 24.445312 31.65625 24.398438 31.703125 24.335938 31.703125 Z M 24.335938 31.703125 " fill-opacity="1" fill-rule="nonzero"/><path fill="#ffffff" d="M 14.148438 33.027344 L 14.148438 33.003906 C 14.148438 32.609375 14.410156 32.210938 14.976562 31.785156 C 15.421875 31.457031 15.539062 31.351562 15.539062 31.050781 C 15.539062 30.78125 15.390625 30.578125 15.0625 30.578125 C 14.730469 30.578125 14.570312 30.746094 14.511719 31.078125 L 14.152344 31.078125 C 14.203125 30.617188 14.5 30.273438 15.0625 30.273438 C 15.679688 30.273438 15.917969 30.664062 15.917969 31.042969 C 15.917969 31.453125 15.742188 31.613281 15.234375 32 C 14.851562 32.285156 14.652344 32.5 14.585938 32.710938 L 16.027344 32.710938 L 15.972656 33.027344 Z M 14.148438 33.027344 " fill-opacity="1" fill-rule="nonzero"/><path fill="#ffffff" d="M 18.886719 31.65625 C 18.886719 32.324219 18.695312 33.074219 17.925781 33.074219 C 17.15625 33.074219 16.960938 32.375 16.960938 31.675781 C 16.960938 30.976562 17.191406 30.273438 17.9375 30.273438 C 18.683594 30.273438 18.886719 30.964844 18.886719 31.652344 Z M 17.351562 31.675781 C 17.351562 32.1875 17.445312 32.765625 17.929688 32.765625 C 18.414062 32.765625 18.503906 32.214844 18.503906 31.660156 C 18.503906 31.136719 18.410156 30.582031 17.941406 30.582031 C 17.472656 30.582031 17.351562 31.078125 17.351562 31.675781 Z M 17.351562 31.675781 " fill-opacity="1" fill-rule="nonzero"/><path fill="#ffffff" d="M 28.4375 33.027344 L 28.4375 30.753906 C 28.304688 30.847656 28.023438 30.960938 27.871094 30.988281 L 27.871094 30.695312 C 28.082031 30.640625 28.351562 30.488281 28.539062 30.308594 L 28.816406 30.308594 L 28.816406 33.023438 L 28.4375 33.023438 Z M 28.4375 33.027344 " fill-opacity="1" fill-rule="nonzero"/><path fill="#ffffff" d="M 32.210938 30.324219 L 32.210938 30.621094 C 31.730469 31.253906 31.28125 32.230469 31.144531 33.027344 L 30.761719 33.027344 C 30.890625 32.257812 31.378906 31.214844 31.824219 30.640625 L 30.402344 30.640625 L 30.402344 30.324219 L 32.214844 30.324219 Z M 32.210938 30.324219 " fill-opacity="1" fill-rule="nonzero"/></svg>