<svg xmlns="http://www.w3.org/2000/svg" xmlns:xlink="http://www.w3.org/1999/xlink" width="100" zoomAndPan="magnify" viewBox="0 0 75 74.999997" height="100" preserveAspectRatio="xMidYMid meet" version="1.0"><defs><clipPath id="d9258bb6f4"><path d="M 51 3.066406 L 60 3.066406 L 60 9 L 51 9 Z M 51 3.066406 " clip-rule="nonzero"/></clipPath><clipPath id="9ac1f18f41"><path d="M 60 3.066406 L 66 3.066406 L 66 11 L 60 11 Z M 60 3.066406 " clip-rule="nonzero"/></clipPath></defs><path fill="#040707" d="M 59.027344 38.320312 C 59.695312 38.320312 60.105469 38.261719 60.488281 38.332031 C 61.007812 38.429688 61.398438 38.773438 61.34375 39.332031 C 61.257812 40.210938 61.054688 41.074219 60.941406 41.953125 C 60.613281 44.53125 59.851562 46.996094 58.898438 49.394531 C 57.371094 53.242188 54.671875 56.023438 50.894531 57.726562 C 46.808594 59.570312 42.515625 60.660156 38.046875 60.808594 C 34.242188 60.929688 30.5 60.320312 26.878906 59.089844 C 26.578125 58.984375 26.296875 58.792969 25.992188 58.714844 C 21.527344 57.601562 18.703125 54.453125 16.265625 50.84375 C 14.855469 48.757812 13.648438 46.574219 13.265625 44.035156 C 13.230469 43.796875 13.167969 43.5625 13.128906 43.324219 C 12.765625 41.15625 13.257812 40.703125 15.777344 41.050781 C 16.234375 42.597656 16.769531 44.1875 17.164062 45.8125 C 17.53125 47.328125 18.09375 48.710938 19.113281 49.914062 C 19.789062 50.710938 20.3125 51.640625 21.011719 52.414062 C 21.597656 53.058594 22.257812 53.710938 23.015625 54.121094 C 25.421875 55.421875 27.742188 56.9375 30.539062 57.3125 C 31.171875 57.398438 31.792969 57.558594 32.425781 57.601562 C 33.792969 57.691406 35.171875 57.660156 36.53125 57.792969 C 38.964844 58.035156 41.359375 57.867188 43.679688 57.152344 C 48.082031 55.792969 51.90625 53.566406 54.90625 49.949219 C 56.957031 47.484375 57.886719 44.644531 58.421875 41.589844 C 58.605469 40.566406 58.800781 39.539062 59.027344 38.320312 Z M 59.027344 38.320312 " fill-opacity="1" fill-rule="nonzero"/><path fill="#040707" d="M 61.363281 24.410156 C 60.414062 24.773438 59.554688 24.734375 58.699219 24.714844 C 58.539062 24.425781 58.347656 24.234375 58.328125 24.019531 C 58.109375 21.859375 57.1875 19.980469 55.886719 18.316406 C 53.800781 15.632812 51.394531 13.253906 48.65625 11.230469 C 47.953125 10.710938 47.136719 10.316406 46.324219 9.980469 C 42.359375 8.371094 38.238281 7.84375 33.988281 8.300781 C 32.707031 8.4375 31.484375 8.800781 30.304688 9.402344 C 28.433594 10.355469 26.585938 11.320312 24.847656 12.507812 C 23.433594 13.472656 22.140625 14.53125 21.042969 15.835938 C 20.519531 16.453125 19.996094 17.066406 19.433594 17.648438 C 17.253906 19.914062 16.050781 22.683594 15.238281 25.667969 C 15.148438 25.992188 14.804688 26.371094 14.492188 26.480469 C 13.871094 26.699219 13.046875 26.324219 12.824219 25.820312 C 12.527344 25.132812 12.527344 24.457031 12.75 23.707031 C 13.363281 21.597656 14.316406 19.664062 15.542969 17.851562 C 17.496094 14.945312 19.792969 12.367188 22.71875 10.402344 C 25.6875 8.40625 28.945312 7.054688 32.367188 6.054688 C 34.71875 5.367188 37.167969 5.6875 39.554688 5.324219 C 40.378906 5.199219 41.292969 5.582031 42.152344 5.804688 C 45.121094 6.574219 47.984375 7.546875 50.671875 9.125 C 53.109375 10.550781 54.929688 12.53125 56.605469 14.722656 C 58.078125 16.652344 59.484375 18.609375 60.050781 21.042969 C 60.210938 21.730469 60.679688 22.34375 60.964844 23.011719 C 61.140625 23.441406 61.226562 23.90625 61.371094 24.414062 Z M 61.363281 24.410156 " fill-opacity="1" fill-rule="nonzero"/><path fill="#040707" d="M 42.023438 17.28125 C 41.609375 18.792969 43.109375 19.945312 42.566406 21.578125 C 43.894531 21.765625 44.972656 21.921875 46.175781 22.085938 L 46.175781 24.257812 C 45.960938 24.375 45.753906 24.578125 45.546875 24.578125 C 42.398438 24.578125 39.289062 25.15625 36.15625 25.238281 C 33.738281 25.300781 31.328125 25.265625 28.917969 25.582031 C 28.222656 25.671875 27.5 25.5625 26.753906 25.542969 C 26.53125 24.726562 26.347656 24.046875 26.1875 23.457031 C 26.769531 22.304688 27.960938 23.078125 28.953125 22.050781 C 29.273438 21.667969 28.304688 20.921875 28.617188 20.046875 C 28.953125 19.878906 29.375 19.671875 29.929688 19.402344 C 29.976562 18.941406 30.070312 18.394531 30.070312 17.855469 C 30.070312 17.359375 29.917969 16.871094 29.40625 16.664062 C 28.277344 16.207031 28.496094 15.308594 28.621094 14.289062 C 30.585938 13.910156 32.390625 13.097656 33.976562 11.804688 C 34.1875 11.628906 34.582031 11.636719 34.894531 11.628906 C 35.539062 11.613281 36.1875 11.679688 36.828125 11.644531 C 37.433594 11.613281 37.9375 11.769531 38.375 12.183594 C 39.503906 13.269531 40.859375 13.9375 42.414062 14.195312 C 42.726562 14.925781 43.015625 15.585938 43.351562 16.371094 C 42.910156 16.671875 42.46875 16.972656 42.023438 17.273438 Z M 40.914062 15.550781 C 40.902344 15.421875 40.898438 15.289062 40.890625 15.164062 C 40.003906 14.648438 39.105469 14.152344 38.238281 13.613281 C 36.839844 12.746094 35.417969 12.703125 33.953125 13.425781 C 32.878906 13.957031 31.792969 14.460938 30.722656 14.992188 C 30.550781 15.078125 30.429688 15.257812 30.277344 15.402344 C 30.480469 15.574219 30.597656 15.757812 30.710938 15.757812 C 34.117188 15.699219 37.519531 15.621094 40.917969 15.550781 Z M 41.117188 20.386719 C 33.195312 20.25 31.753906 20.359375 30.066406 21.21875 C 30.140625 21.859375 30.445312 22.234375 31.148438 22.21875 C 34.035156 22.148438 36.929688 22.101562 39.816406 22.023438 C 40.28125 22.007812 40.746094 21.84375 41.3125 21.730469 C 41.242188 21.269531 41.1875 20.894531 41.109375 20.386719 Z M 40.777344 23.273438 C 40.3125 23.242188 39.847656 23.183594 39.382812 23.183594 C 37.292969 23.199219 35.207031 23.273438 33.117188 23.25 C 31.496094 23.230469 29.933594 23.5625 28.378906 23.914062 C 28.3125 23.929688 28.304688 24.183594 28.253906 24.394531 C 28.578125 24.433594 28.898438 24.546875 29.191406 24.496094 C 31.417969 24.085938 33.65625 24.117188 35.902344 24.191406 C 37.566406 24.25 39.210938 24.042969 40.777344 23.273438 Z M 36.742188 18.679688 C 36.832031 18.695312 36.925781 18.707031 37.015625 18.71875 C 37.035156 18.507812 37.105469 18.285156 37.0625 18.085938 C 37.019531 17.90625 37.261719 17.492188 36.742188 17.5625 Z M 39.863281 17.273438 C 39.804688 17.390625 39.6875 17.507812 39.691406 17.621094 C 39.691406 17.800781 39.777344 17.972656 39.859375 18.265625 C 39.929688 17.980469 40 17.828125 39.996094 17.6875 C 39.996094 17.550781 39.910156 17.414062 39.863281 17.273438 Z M 43.101562 23.351562 C 43.253906 23.445312 43.316406 23.515625 43.363281 23.507812 C 43.515625 23.472656 43.65625 23.40625 43.800781 23.351562 Z M 43.101562 23.351562 " fill-opacity="1" fill-rule="nonzero"/><path fill="#040707" d="M 41.722656 35.449219 C 42.140625 35.113281 42.503906 34.820312 42.996094 34.425781 C 43.515625 34.796875 44.070312 35.191406 44.59375 35.566406 C 45.449219 35.070312 45.535156 34.417969 45.359375 33.664062 C 44.65625 33.359375 43.953125 33.148438 43.347656 32.773438 C 42.140625 32.03125 41.695312 30.433594 42.242188 29.148438 C 42.816406 27.792969 44.167969 27.011719 45.53125 27.269531 C 45.835938 27.328125 46.171875 27.464844 46.394531 27.671875 C 46.605469 27.871094 46.800781 28.214844 46.789062 28.476562 C 46.773438 28.734375 46.523438 29.078125 46.28125 29.199219 C 45.9375 29.378906 45.488281 29.34375 45.125 29.496094 C 44.773438 29.640625 44.421875 29.859375 44.140625 30.121094 C 43.753906 30.484375 43.875 31.152344 44.332031 31.335938 C 44.78125 31.511719 45.265625 31.589844 45.707031 31.789062 C 47.101562 32.410156 47.617188 33.390625 47.382812 34.894531 C 47.070312 36.925781 45.328125 38.074219 43.351562 37.5625 C 42.972656 37.464844 42.523438 37.207031 42.222656 37.328125 C 40.902344 37.84375 40.503906 37.03125 40.117188 36.054688 C 39.789062 35.238281 39.382812 34.449219 38.984375 33.582031 C 38.132812 34.207031 38.34375 35.019531 38.503906 35.746094 C 38.738281 36.804688 38.136719 37.425781 37.484375 38.027344 C 37.347656 38.152344 37.003906 38.175781 36.816406 38.101562 C 36.625 38.027344 36.390625 37.777344 36.375 37.585938 C 36.148438 34.941406 35.945312 32.292969 35.761719 29.648438 C 35.734375 29.175781 35.804688 28.699219 35.824219 28.25 C 36.976562 27.980469 37.828125 28.449219 38.378906 29.664062 C 38.632812 29.257812 38.832031 28.929688 39.039062 28.601562 C 39.773438 27.445312 39.914062 27.425781 41.386719 28.347656 C 41.050781 28.960938 40.722656 29.585938 40.359375 30.1875 C 39.988281 30.792969 39.980469 31.382812 40.265625 32.027344 C 40.761719 33.125 41.222656 34.242188 41.730469 35.433594 Z M 41.722656 35.449219 " fill-opacity="1" fill-rule="nonzero"/><path fill="#040707" d="M 15.648438 29.140625 C 16.101562 29.082031 16.414062 29.007812 16.730469 29.007812 C 18.53125 29.007812 18.914062 29.355469 19.242188 31.171875 C 19.414062 32.105469 19.628906 33.035156 19.949219 33.960938 C 20.285156 32.589844 20.199219 31.203125 20.253906 29.824219 C 20.300781 28.578125 20.679688 28.40625 21.957031 29.035156 C 22.019531 29.070312 22.070312 29.140625 22.214844 29.277344 C 22.445312 32.328125 21.71875 35.394531 21.566406 38.601562 C 20.5 39.054688 19.535156 38.65625 18.410156 38.488281 C 18.152344 36.691406 17.910156 34.960938 17.667969 33.253906 C 17.058594 33.203125 16.925781 33.566406 16.851562 33.976562 C 16.652344 35 16.476562 36.035156 16.253906 37.054688 C 16.136719 37.597656 15.945312 38.121094 15.769531 38.707031 C 15.007812 38.789062 14.308594 38.863281 13.730469 38.929688 C 13.507812 38.71875 13.316406 38.625 13.285156 38.5 C 12.570312 35.546875 11.878906 32.585938 11.195312 29.667969 C 11.820312 28.792969 12.648438 28.980469 13.53125 28.875 C 14.179688 30.738281 13.871094 32.734375 14.714844 34.65625 C 15.027344 32.792969 15.316406 31.078125 15.644531 29.140625 Z M 15.648438 29.140625 " fill-opacity="1" fill-rule="nonzero"/><path fill="#040707" d="M 57.984375 28.355469 C 57.109375 28.628906 56.214844 28.910156 55.164062 29.242188 C 55.164062 31.183594 55.164062 33.113281 55.164062 35.039062 C 55.164062 35.441406 55.164062 35.855469 55.074219 36.234375 C 54.96875 36.660156 54.613281 36.859375 54.164062 36.855469 C 53.722656 36.855469 53.351562 36.660156 53.246094 36.234375 C 53.152344 35.855469 53.179688 35.441406 53.175781 35.039062 C 53.171875 33.203125 53.175781 31.371094 53.175781 29.390625 C 52.578125 29.621094 52.144531 29.789062 51.714844 29.957031 C 50.792969 28.5625 51.023438 27.59375 52.40625 27.253906 C 53.90625 26.886719 55.488281 26.667969 56.953125 27.085938 C 57.808594 27.328125 58.28125 26.890625 58.921875 26.722656 C 59.835938 27.078125 60.074219 28.027344 60.679688 28.667969 C 61.386719 28.601562 61.378906 27.921875 61.664062 27.496094 C 61.84375 27.234375 61.949219 26.871094 62.191406 26.71875 C 62.417969 26.570312 62.835938 26.53125 63.074219 26.648438 C 63.292969 26.753906 63.554688 27.1875 63.492188 27.378906 C 63.277344 28.0625 63.027344 28.773438 62.613281 29.34375 C 61.949219 30.269531 61.777344 31.222656 61.972656 32.304688 C 62.105469 33.015625 62.207031 33.734375 62.292969 34.457031 C 62.429688 35.566406 61.761719 36.234375 60.574219 36.203125 C 59.984375 36.1875 59.503906 35.6875 59.535156 35.105469 C 59.542969 34.945312 59.5625 34.789062 59.589844 34.625 C 60.078125 31.5625 59.941406 31.019531 58 28.347656 Z M 57.984375 28.355469 " fill-opacity="1" fill-rule="nonzero"/><path fill="#040707" d="M 60.386719 53.089844 C 61.453125 54.59375 60.367188 56.640625 61.742188 58.085938 C 63.242188 58.503906 64.5 57.1875 65.949219 57.140625 C 66.492188 57.730469 66.046875 58.242188 66.019531 58.773438 C 65.886719 60.800781 64.800781 61.847656 62.828125 61.863281 C 61.574219 61.871094 60.847656 62.871094 59.816406 63.207031 C 59.242188 63.042969 58.894531 62.710938 59.183594 62.148438 C 59.589844 61.382812 60.101562 60.671875 60.503906 60.023438 C 60.171875 59.324219 59.710938 59.449219 59.429688 59.660156 C 58.714844 60.175781 58.09375 60.816406 57.394531 61.34375 C 57.121094 61.542969 56.714844 61.578125 56.109375 61.777344 C 56.4375 59.644531 56.566406 57.757812 57.019531 56.035156 C 58.113281 55.074219 59.125 54.195312 60.390625 53.089844 Z M 59.765625 56.746094 C 58.90625 57.070312 58.714844 57.570312 58.726562 58.246094 C 59.570312 58.09375 59.917969 57.59375 59.765625 56.746094 Z M 63.371094 60.003906 C 63.070312 59.863281 62.890625 59.722656 62.828125 59.761719 C 62.636719 59.871094 62.484375 60.058594 62.316406 60.214844 C 62.40625 60.3125 62.542969 60.503906 62.585938 60.488281 C 62.832031 60.371094 63.054688 60.210938 63.371094 60.007812 Z M 63.371094 60.003906 " fill-opacity="1" fill-rule="nonzero"/><path fill="#040707" d="M 29.164062 62.953125 C 29.371094 63.761719 29.515625 64.613281 29.808594 65.40625 C 30.082031 66.144531 30.511719 66.828125 30.949219 67.679688 C 30.539062 67.953125 30.175781 68.195312 29.808594 68.441406 C 30.0625 69.914062 30.050781 70.019531 29.003906 70.535156 C 27.929688 71.0625 26.8125 71.511719 25.875 71.925781 C 24.320312 71.269531 22.921875 70.699219 21.546875 70.074219 C 21.328125 69.976562 21.226562 69.625 21.097656 69.417969 C 22.476562 68.90625 23.707031 68.398438 24.976562 68.007812 C 25.71875 67.78125 26.515625 67.742188 27.445312 67.589844 C 27.164062 67.367188 26.894531 67.171875 26.640625 66.953125 C 26.347656 66.695312 25.964844 66.472656 25.804688 66.144531 C 25.347656 65.210938 24.960938 64.246094 24.605469 63.265625 C 24.511719 63.003906 24.515625 62.527344 24.683594 62.394531 C 24.949219 62.164062 25.414062 61.984375 25.738281 62.050781 C 26.890625 62.292969 28.015625 62.644531 29.164062 62.957031 Z M 28.476562 65.902344 C 28.121094 64.914062 27.691406 64.289062 27.1875 64.035156 C 27.175781 64.894531 27.605469 65.519531 28.476562 65.902344 Z M 25.390625 70.300781 C 26.460938 70.664062 26.699219 70.257812 26.871094 69.695312 C 26.496094 69.847656 26.121094 70 25.390625 70.300781 Z M 25.390625 70.300781 " fill-opacity="1" fill-rule="nonzero"/><path fill="#040707" d="M 69.695312 25.359375 C 67.839844 24.375 65.972656 24.042969 64.613281 22.804688 C 64.191406 21.707031 63.792969 20.683594 63.335938 19.496094 C 65.085938 19.375 66.597656 20.335938 68.339844 20.152344 C 68.800781 18.804688 69.609375 17.515625 69.726562 15.972656 C 69.761719 15.496094 70.570312 15.371094 70.886719 15.785156 C 72.15625 17.410156 73.210938 19.09375 72.160156 21.269531 C 71.953125 21.699219 71.800781 22.171875 71.726562 22.644531 C 71.605469 23.414062 71.339844 23.964844 70.535156 24.277344 C 70.164062 24.425781 69.960938 24.992188 69.695312 25.355469 Z M 66.648438 21.644531 C 66.5 21.859375 66.335938 22.046875 66.355469 22.066406 C 66.542969 22.273438 66.761719 22.449219 66.96875 22.636719 C 67.039062 22.523438 67.207031 22.355469 67.167969 22.304688 C 67.035156 22.078125 66.839844 21.878906 66.644531 21.644531 Z M 70.375 19.59375 C 70.355469 19.652344 70.320312 19.714844 70.320312 19.777344 C 70.320312 19.804688 70.402344 19.824219 70.449219 19.851562 C 70.472656 19.789062 70.511719 19.722656 70.519531 19.664062 C 70.519531 19.648438 70.425781 19.617188 70.375 19.597656 Z M 70.375 19.59375 " fill-opacity="1" fill-rule="nonzero"/><path fill="#040707" d="M 30.183594 28.628906 C 31.449219 28.425781 32.601562 28.226562 33.753906 28.929688 C 34.691406 29.5 35.277344 30.355469 35.050781 31.296875 C 34.589844 33.207031 35.183594 34.933594 35.570312 36.710938 C 35.605469 36.867188 35.636719 37.027344 35.648438 37.1875 C 35.671875 37.632812 35.488281 38.050781 35.054688 38.085938 C 34.710938 38.113281 34.167969 37.960938 34.027344 37.710938 C 33.683594 37.097656 33.539062 36.375 33.269531 35.710938 C 33.101562 35.296875 32.84375 34.925781 32.464844 34.25 C 32.226562 34.996094 32.03125 35.417969 31.96875 35.863281 C 31.882812 36.496094 31.992188 37.160156 31.84375 37.773438 C 31.773438 38.066406 31.324219 38.453125 31.035156 38.464844 C 30.726562 38.476562 30.390625 38.113281 30.101562 37.867188 C 30.003906 37.789062 30.011719 37.566406 30.011719 37.410156 C 29.980469 34.6875 29.949219 31.96875 29.933594 29.25 C 29.933594 29.105469 30.046875 28.960938 30.1875 28.632812 Z M 32.308594 30.296875 C 32.226562 30.875 32.101562 31.46875 32.074219 32.070312 C 32.066406 32.238281 32.304688 32.511719 32.480469 32.566406 C 32.652344 32.621094 32.984375 32.527344 33.082031 32.382812 C 33.332031 32.015625 33.675781 31.570312 33.652344 31.183594 C 33.613281 30.597656 33.097656 30.296875 32.308594 30.304688 Z M 32.308594 30.296875 " fill-opacity="1" fill-rule="nonzero"/><path fill="#040707" d="M 24.101562 33.183594 C 24.101562 32.542969 24.0625 31.898438 24.117188 31.261719 C 24.15625 30.792969 24.257812 30.3125 24.433594 29.875 C 24.796875 28.957031 25.566406 28.585938 26.511719 28.484375 C 27.433594 28.390625 28.078125 28.84375 28.460938 29.601562 C 29.722656 32.078125 29.890625 34.664062 28.941406 37.261719 C 28.53125 38.394531 27.589844 38.90625 26.484375 38.796875 C 25.390625 38.691406 24.71875 37.976562 24.5 36.984375 C 24.222656 35.742188 24.132812 34.464844 23.960938 33.203125 L 24.101562 33.1875 Z M 26.828125 36.976562 C 27.703125 35.699219 27.515625 34.625 27.496094 33.636719 C 27.476562 32.675781 27.613281 31.617188 26.601562 30.699219 C 26.113281 32.796875 25.734375 34.703125 26.828125 36.976562 Z M 26.828125 36.976562 " fill-opacity="1" fill-rule="nonzero"/><path fill="#040707" d="M 66.933594 31.582031 C 68.25 32.808594 69.339844 33.824219 70.523438 34.925781 C 71.125 34.441406 71.710938 34.03125 72.214844 33.542969 C 72.710938 33.0625 73.117188 32.496094 73.644531 31.875 C 74.5625 32.785156 74.492188 33.984375 74.925781 34.726562 C 74.195312 36 73.5625 37.097656 72.933594 38.191406 C 72.851562 38.328125 72.78125 38.476562 72.699219 38.613281 C 72.484375 38.984375 72.167969 39.28125 71.742188 39.113281 C 71.492188 39.011719 71.234375 38.707031 71.15625 38.445312 C 71.003906 37.945312 70.972656 37.40625 70.867188 36.71875 C 69.761719 37.742188 70.457031 39.019531 69.917969 40.132812 C 69.667969 40.019531 69.339844 39.96875 69.179688 39.78125 C 68.605469 39.125 68.09375 38.410156 67.539062 37.734375 C 66.988281 37.054688 66.414062 36.394531 65.933594 35.824219 C 66.261719 34.433594 66.546875 33.21875 66.933594 31.585938 Z M 68.679688 35.894531 C 68.527344 35.757812 68.386719 35.621094 68.230469 35.503906 C 68.214844 35.496094 68.070312 35.613281 68.074219 35.632812 C 68.15625 35.820312 68.253906 35.996094 68.347656 36.175781 C 68.433594 36.101562 68.523438 36.03125 68.675781 35.894531 Z M 68.679688 35.894531 " fill-opacity="1" fill-rule="nonzero"/><path fill="#040707" d="M 8.53125 49.039062 C 8.34375 48.4375 8.171875 47.832031 7.972656 47.238281 C 7.800781 46.71875 7.597656 46.207031 7.429688 45.761719 C 8.34375 44.582031 9.164062 43.496094 10.011719 42.433594 C 10.425781 41.917969 11.113281 42.023438 11.355469 42.652344 C 11.734375 43.621094 12.050781 44.621094 12.421875 45.683594 C 11.910156 46.242188 11.300781 46.761719 10.890625 47.410156 C 10.464844 48.082031 10.242188 48.878906 9.878906 49.738281 C 9.5625 49.765625 9.046875 49.660156 8.816406 49.875 C 7.78125 50.8125 6.773438 50.46875 5.671875 50.046875 C 2.832031 48.960938 2.820312 48.984375 1.773438 46.074219 C 1.667969 45.78125 1.613281 45.476562 1.492188 45.03125 C 1.871094 44.953125 2.199219 44.773438 2.421875 44.863281 C 3.457031 45.296875 4.492188 45.757812 5.464844 46.3125 C 5.925781 46.574219 6.265625 47.070312 6.628906 47.484375 C 7.148438 48.082031 7.644531 48.695312 8.148438 49.300781 C 8.273438 49.21875 8.402344 49.125 8.523438 49.039062 Z M 5.808594 48.496094 C 5.386719 47.796875 4.957031 47.324219 4.042969 47.503906 C 4.402344 48.03125 4.992188 48.359375 5.808594 48.496094 Z M 10.816406 44.894531 C 10.238281 45.273438 10.027344 45.347656 9.914062 45.5 C 9.753906 45.726562 9.667969 46.011719 9.378906 46.640625 C 9.894531 46.273438 10.097656 46.1875 10.207031 46.035156 C 10.371094 45.816406 10.472656 45.550781 10.808594 44.894531 Z M 10.816406 44.894531 " fill-opacity="1" fill-rule="nonzero"/><path fill="#040707" d="M 74.925781 27.363281 C 74.175781 28.550781 73.546875 29.398438 73.078125 30.324219 C 72.53125 31.410156 71.742188 32.097656 70.355469 32.457031 C 69.097656 31.601562 67.710938 30.664062 66.261719 29.675781 C 66.144531 28.378906 66.027344 27.113281 65.921875 25.84375 C 65.921875 25.800781 66.019531 25.742188 66.195312 25.570312 C 67.625 26.308594 68.90625 27.378906 70.398438 28.441406 C 70.835938 26.472656 72.390625 25.429688 73.351562 23.800781 C 74.804688 24.875 74.3125 26.375 74.925781 27.363281 Z M 72.683594 28.535156 C 72.613281 28.34375 72.570312 28.21875 72.519531 28.097656 C 72.367188 28.214844 72.175781 28.308594 72.074219 28.460938 C 72.027344 28.535156 72.15625 28.722656 72.199219 28.859375 C 72.367188 28.75 72.527344 28.636719 72.679688 28.535156 Z M 70.972656 29.691406 L 70.8125 29.691406 L 70.8125 30.492188 C 70.875 30.492188 70.949219 30.492188 71.011719 30.484375 C 70.996094 30.222656 70.984375 29.957031 70.972656 29.691406 Z M 69.40625 29.875 C 69.328125 29.769531 69.265625 29.605469 69.160156 29.566406 C 69.058594 29.53125 68.914062 29.621094 68.785156 29.652344 C 68.863281 29.761719 68.914062 29.929688 69.011719 29.964844 C 69.121094 30 69.269531 29.910156 69.402344 29.875 Z M 69.40625 29.875 " fill-opacity="1" fill-rule="nonzero"/><path fill="#040707" d="M 16.238281 9.257812 C 17.148438 9.472656 18.21875 9.722656 19.496094 10.027344 C 18.914062 11.074219 18.429688 11.941406 17.890625 12.917969 C 16.324219 12.894531 14.667969 13.578125 12.957031 12.507812 C 13.488281 11.800781 13.941406 11.195312 14.40625 10.578125 C 13.855469 10.097656 13.585938 10.546875 13.300781 10.730469 C 12.960938 10.941406 12.695312 11.257812 12.359375 11.480469 C 12.046875 11.695312 11.695312 11.851562 11.207031 12.113281 C 10.722656 11.222656 11.117188 10.4375 11.09375 9.695312 C 11.066406 8.972656 11.085938 8.25 11.085938 7.503906 C 11.460938 6.761719 12.136719 6.273438 12.894531 6.042969 C 13.84375 5.753906 14.644531 5.269531 15.421875 4.695312 C 15.542969 4.601562 15.839844 4.75 16.117188 4.796875 C 16 6.238281 14.964844 7.59375 16.234375 9.265625 Z M 14.136719 7.203125 C 13.453125 7.734375 13.210938 8.375 13.410156 9.117188 C 14.03125 8.765625 14.273438 8.125 14.136719 7.203125 Z M 17.457031 11.25 C 17.019531 11.132812 16.804688 11.007812 16.632812 11.046875 C 16.449219 11.09375 16.308594 11.300781 16.152344 11.4375 C 16.300781 11.574219 16.484375 11.839844 16.582031 11.808594 C 16.835938 11.730469 17.050781 11.527344 17.460938 11.25 Z M 17.457031 11.25 " fill-opacity="1" fill-rule="nonzero"/><path fill="#040707" d="M 12.4375 17.988281 C 12.0625 18.800781 11.730469 19.421875 11.488281 20.070312 C 11.265625 20.667969 11.132812 21.304688 10.945312 21.980469 C 10.035156 22.910156 8.671875 23.023438 7.566406 23.632812 C 7.402344 23.722656 7.015625 23.460938 6.757812 23.320312 C 6.632812 23.25 6.539062 22.960938 6.464844 22.976562 C 6.039062 23.050781 5.628906 23.476562 5.179688 23.050781 C 4.375 22.300781 3.589844 21.53125 2.890625 20.859375 C 3.480469 19.257812 3.996094 17.859375 4.546875 16.371094 C 6.042969 16.613281 6.460938 18.101562 7.421875 18.957031 C 9.039062 18.757812 10.488281 17.613281 12.441406 17.988281 Z M 8.746094 21.804688 C 9.636719 21.316406 9.949219 20.683594 9.683594 19.910156 C 9.148438 20.375 8.414062 20.648438 8.746094 21.804688 Z M 6.4375 22.113281 C 7.199219 21.644531 7.164062 20.996094 6.964844 20.183594 C 6.507812 20.808594 5.890625 21.273438 6.4375 22.113281 Z M 5.007812 18.902344 C 4.851562 19.511719 4.800781 19.71875 4.746094 19.925781 C 4.855469 19.9375 4.972656 19.945312 5.082031 19.960938 C 5.066406 19.742188 5.050781 19.527344 5.007812 18.902344 Z M 5.007812 18.902344 " fill-opacity="1" fill-rule="nonzero"/><path fill="#040707" d="M 34.949219 52.671875 C 34.617188 51.226562 34.332031 49.988281 34.015625 48.601562 C 35.445312 47.886719 36.328125 46.339844 37.875 45.675781 C 39.261719 46.585938 40.589844 47.453125 42.046875 48.402344 C 41.910156 48.71875 41.757812 49.066406 41.574219 49.488281 C 42 50.089844 42.453125 50.722656 42.988281 51.480469 C 42.742188 52.179688 42.554688 52.960938 42.203125 53.652344 C 41.96875 54.101562 41.535156 53.949219 41.210938 53.554688 C 41.003906 52.6875 42.347656 51.609375 40.832031 50.757812 C 40.640625 52.121094 39.746094 52.679688 38.550781 52.757812 C 37.363281 52.832031 36.160156 53.175781 34.945312 52.667969 Z M 37.894531 46.996094 C 37.03125 47.726562 36.257812 48.394531 35.359375 49.15625 C 35.894531 49.574219 36.363281 49.945312 36.746094 50.246094 C 38.015625 49.910156 38.78125 49.175781 39.671875 48.316406 C 39 47.824219 38.460938 47.417969 37.894531 46.996094 Z M 39.074219 50.382812 C 38.339844 50.875 37.398438 51.046875 36.433594 51.644531 C 37.464844 51.886719 38.257812 51.945312 38.988281 51.507812 C 39.359375 51.292969 39.570312 50.964844 39.074219 50.378906 Z M 39.074219 50.382812 " fill-opacity="1" fill-rule="nonzero"/><path fill="#040707" d="M 68.832031 48.496094 C 68.367188 46.175781 68.984375 44.359375 69.851562 42.796875 C 70.574219 41.488281 71.957031 40.539062 73.453125 39.355469 C 73.730469 41.402344 73.382812 43.101562 74.390625 44.695312 C 72.199219 45.488281 70.910156 47.324219 68.835938 48.488281 Z M 71.285156 43.828125 C 71.246094 43.96875 71.195312 44.089844 71.183594 44.21875 C 71.183594 44.261719 71.277344 44.316406 71.320312 44.367188 C 71.386719 44.257812 71.476562 44.152344 71.496094 44.03125 C 71.507812 43.980469 71.363281 43.902344 71.28125 43.832031 Z M 71.285156 43.828125 " fill-opacity="1" fill-rule="nonzero"/><path fill="#040707" d="M 14.890625 64.6875 C 16.667969 64.453125 18.320312 64.234375 19.894531 64.027344 C 21.0625 64.855469 22.171875 65.625 23.257812 66.433594 C 23.421875 66.554688 23.597656 66.882812 23.542969 67.027344 C 23.441406 67.285156 23.199219 67.609375 22.960938 67.664062 C 21.871094 67.9375 20.761719 68.128906 19.65625 68.34375 C 18.457031 68.570312 17.414062 68.214844 16.5625 67.378906 C 15.992188 66.816406 15.460938 66.207031 14.984375 65.5625 C 14.835938 65.363281 14.921875 64.988281 14.894531 64.6875 Z M 18.601562 65.5625 C 18.933594 66.125 19.398438 66.246094 19.992188 66.042969 C 19.75 65.609375 19.285156 65.449219 18.601562 65.5625 Z M 18.601562 65.5625 " fill-opacity="1" fill-rule="nonzero"/><path fill="#040707" d="M 68.933594 42.917969 C 68.097656 44.574219 68.363281 46.621094 67.179688 48.207031 C 67.144531 48.253906 67.027344 48.242188 66.90625 48.265625 C 66.816406 48.066406 66.609375 47.828125 66.648438 47.644531 C 66.890625 46.652344 66.378906 45.960938 65.796875 45.273438 C 65.234375 44.609375 64.695312 43.929688 64.179688 43.304688 C 64.671875 41.863281 65.105469 40.597656 65.570312 39.238281 C 65.855469 39.261719 66.28125 39.171875 66.441406 39.339844 C 67.449219 40.359375 68.328125 41.488281 68.925781 42.914062 Z M 68.933594 42.917969 " fill-opacity="1" fill-rule="nonzero"/><g clip-path="url(#d9258bb6f4)"><path fill="#040707" d="M 59.9375 7.421875 C 58.394531 8.152344 56.898438 8.351562 55.550781 8.09375 C 54.054688 6.492188 52.710938 5.054688 51.347656 3.589844 C 51.59375 3.359375 51.785156 3.046875 51.933594 3.066406 C 53.347656 3.25 54.761719 3.460938 56.164062 3.71875 C 56.535156 3.785156 56.949219 3.972656 57.195312 4.238281 C 58.105469 5.226562 58.949219 6.265625 59.9375 7.421875 Z M 55.441406 5.355469 C 55.90625 5.625 56.136719 6.632812 56.882812 5.902344 C 56.6875 5.753906 56.515625 5.558594 56.300781 5.480469 C 56.035156 5.386719 55.730469 5.394531 55.441406 5.355469 Z M 55.441406 5.355469 " fill-opacity="1" fill-rule="nonzero"/></g><path fill="#040707" d="M 0.75 36.550781 C 1.625 37.011719 2.066406 37.152344 2.390625 37.441406 C 3.109375 38.074219 3.773438 38.769531 4.429688 39.464844 C 5.523438 40.617188 5.890625 42.097656 6.171875 43.589844 C 6.285156 44.175781 5.542969 44.660156 5.027344 44.359375 C 3.925781 43.710938 2.835938 43.050781 1.785156 42.324219 C 1.488281 42.117188 1.195312 41.703125 1.152344 41.355469 C 0.980469 39.941406 0.90625 38.515625 0.753906 36.550781 Z M 3.941406 41.582031 C 3.789062 41.460938 3.625 41.328125 3.460938 41.191406 C 3.386719 41.363281 3.203125 41.597656 3.257812 41.691406 C 3.34375 41.84375 3.59375 41.902344 3.769531 42 C 3.820312 41.878906 3.871094 41.757812 3.945312 41.574219 Z M 3.941406 41.582031 " fill-opacity="1" fill-rule="nonzero"/><path fill="#040707" d="M 50.621094 36.65625 C 50.335938 36.859375 50.160156 37.054688 49.945312 37.125 C 49.128906 37.378906 48.5 37.039062 48.605469 36.320312 C 48.835938 34.761719 48.398438 33.273438 48.34375 31.753906 C 48.296875 30.550781 48.164062 29.355469 48.070312 28.117188 C 48.128906 28.019531 48.1875 27.824219 48.3125 27.769531 C 49.996094 26.980469 50.550781 27.242188 50.605469 29.03125 C 50.679688 31.527344 50.625 34.019531 50.625 36.660156 Z M 50.621094 36.65625 " fill-opacity="1" fill-rule="nonzero"/><path fill="#040707" d="M 66.863281 51.453125 C 67.546875 51.210938 68.332031 50.996094 69.054688 50.660156 C 69.699219 50.363281 70.289062 49.929688 71.039062 49.472656 C 71.214844 49.816406 71.546875 50.15625 71.511719 50.449219 C 71.390625 51.480469 71.28125 52.550781 70.898438 53.5 C 70.460938 54.585938 69.097656 54.382812 68.253906 54.980469 C 67.609375 55.4375 66.851562 55.757812 66.109375 56.058594 C 65.863281 56.160156 65.457031 56.105469 65.21875 55.964844 C 64.851562 55.742188 64.71875 55.300781 64.933594 54.902344 C 65.539062 53.765625 66.179688 52.65625 66.855469 51.449219 Z M 69.664062 52.867188 C 68.863281 52.894531 68.371094 53.175781 68.183594 53.710938 C 68.664062 53.4375 69.035156 53.226562 69.664062 52.867188 Z M 69.664062 52.867188 " fill-opacity="1" fill-rule="nonzero"/><path fill="#040707" d="M 47.203125 66.988281 C 47.917969 66.863281 48.589844 66.757812 49.261719 67.28125 C 50.207031 68.019531 51.242188 68.636719 52.226562 69.316406 C 52.34375 69.398438 52.386719 69.585938 52.484375 69.746094 C 52.519531 70.214844 52.171875 70.441406 51.8125 70.605469 C 49.917969 71.4375 47.988281 71.316406 46.03125 70.25 C 45.535156 69.984375 44.996094 69.785156 44.546875 69.46875 C 44.332031 69.316406 44.28125 68.941406 44.085938 68.503906 C 44.878906 68.222656 45.546875 67.988281 46.210938 67.746094 C 46.652344 67.585938 47.15625 67.5 47.277344 66.921875 L 47.210938 66.992188 Z M 49.277344 69.183594 C 48.636719 68.5625 48.128906 68.828125 47.644531 69.121094 C 47.542969 69.179688 47.464844 69.390625 47.488281 69.503906 C 47.519531 69.632812 47.65625 69.777344 47.789062 69.835938 C 48.421875 70.144531 48.828125 69.792969 49.277344 69.179688 Z M 49.277344 69.183594 " fill-opacity="1" fill-rule="nonzero"/><path fill="#040707" d="M 11.859375 56.105469 C 12.007812 57.273438 11.824219 57.640625 11.023438 57.542969 C 9.914062 57.410156 8.816406 57.191406 7.722656 56.9375 C 6.542969 56.671875 5.6875 56.078125 5.652344 54.6875 C 5.632812 53.910156 4.851562 53.273438 5.214844 52.238281 C 5.511719 52.214844 5.925781 52.070312 6.230469 52.195312 C 7.40625 52.679688 8.5625 53.214844 9.6875 53.808594 C 10.011719 53.980469 10.199219 54.402344 10.457031 54.707031 C 10.910156 55.242188 11.171875 55.972656 11.945312 56.179688 L 11.859375 56.101562 Z M 8.300781 54.875 C 8.386719 54.964844 8.460938 55.109375 8.550781 55.125 C 8.671875 55.140625 8.804688 55.050781 8.929688 55.003906 C 8.851562 54.914062 8.78125 54.761719 8.6875 54.75 C 8.566406 54.738281 8.4375 54.828125 8.292969 54.878906 Z M 8.300781 54.875 " fill-opacity="1" fill-rule="nonzero"/><path fill="#040707" d="M 5.167969 35.292969 C 5.1875 35.742188 5.214844 36.191406 5.246094 36.878906 C 3.128906 36.082031 1.796875 34.550781 0.0664062 33.617188 C 0.125 32.101562 0.167969 30.671875 0.238281 29.242188 C 0.265625 28.6875 0.882812 28.378906 1.265625 28.75 C 2.515625 29.949219 4.015625 30.964844 4.539062 32.769531 C 4.550781 32.828125 4.664062 32.859375 4.730469 32.90625 L 4.679688 32.835938 C 4.730469 33.703125 4.679688 34.589844 5.199219 35.363281 L 5.164062 35.292969 Z M 3.296875 34.011719 C 2.972656 33.269531 2.808594 32.847656 2.59375 32.457031 C 2.546875 32.371094 2.300781 32.324219 2.179688 32.363281 C 2.0625 32.398438 1.9375 32.566406 1.917969 32.691406 C 1.78125 33.46875 2.257812 33.75 3.296875 34.011719 Z M 3.296875 34.011719 " fill-opacity="1" fill-rule="nonzero"/><path fill="#040707" d="M 11.945312 56.1875 C 12.074219 55.332031 11.34375 54.9375 10.925781 54.410156 C 10.445312 53.796875 10.234375 53.191406 10.378906 52.414062 C 10.542969 51.554688 10.5625 50.667969 10.742188 49.808594 C 10.902344 49.074219 11.714844 48.929688 12.234375 49.503906 C 12.445312 49.742188 12.601562 50.023438 12.792969 50.28125 C 13.425781 51.109375 14.0625 51.929688 14.667969 52.722656 C 14.527344 54.167969 14.390625 55.574219 14.257812 56.921875 C 13.082031 57.5 12.789062 55.96875 11.863281 56.101562 C 11.863281 56.101562 11.949219 56.179688 11.949219 56.179688 Z M 12.957031 54.050781 C 13.535156 53.65625 13.328125 53.207031 13.121094 52.808594 C 12.964844 52.507812 12.859375 52.035156 12.269531 52.265625 C 12.371094 52.914062 12.1875 53.65625 12.957031 54.050781 Z M 12.957031 54.050781 " fill-opacity="1" fill-rule="nonzero"/><path fill="#040707" d="M 66.570312 8.339844 C 67.839844 8.359375 68.007812 9.183594 68.472656 9.699219 C 69.398438 10.71875 69.847656 11.792969 69.503906 13.21875 C 69.265625 14.207031 69.644531 15.320312 68.925781 16.316406 C 67.175781 16.222656 66.96875 14.378906 65.691406 13.609375 C 65.984375 11.835938 66.269531 10.132812 66.570312 8.34375 Z M 68.019531 13.066406 C 68.070312 13.011719 68.164062 12.953125 68.160156 12.902344 C 68.121094 12.546875 68.070312 12.195312 67.984375 11.851562 C 67.972656 11.816406 67.675781 11.78125 67.59375 11.84375 C 67.175781 12.183594 67.472656 12.511719 67.660156 12.820312 C 67.730469 12.929688 67.898438 12.988281 68.019531 13.066406 Z M 68.019531 13.066406 " fill-opacity="1" fill-rule="nonzero"/><path fill="#040707" d="M 4.734375 32.910156 C 4.953125 32.484375 5.078125 31.957031 5.40625 31.652344 C 6.417969 30.726562 7.492188 29.875 8.566406 29.03125 C 9.183594 28.546875 9.90625 28.882812 9.9375 29.671875 C 9.976562 30.714844 9.945312 31.757812 9.945312 32.75 C 8.945312 33.625 7.980469 34.464844 7.027344 35.3125 C 6.320312 35.941406 6.324219 35.945312 5.167969 35.296875 C 5.167969 35.296875 5.203125 35.371094 5.203125 35.371094 C 4.941406 34.546875 5.355469 33.582031 4.683594 32.839844 Z M 6.746094 33.273438 C 8.164062 32.753906 8.171875 32.757812 8.597656 32.050781 C 8.652344 31.957031 8.597656 31.722656 8.507812 31.632812 C 8.425781 31.546875 8.152344 31.5 8.109375 31.554688 C 7.652344 32.097656 7.230469 32.65625 6.746094 33.277344 Z M 6.746094 33.273438 " fill-opacity="1" fill-rule="nonzero"/><path fill="#040707" d="M 63.984375 55.15625 C 61.957031 54.292969 62.484375 52.1875 61.492188 50.960938 C 62.242188 49.636719 62.9375 48.394531 63.65625 47.132812 C 64.265625 46.859375 64.523438 47.332031 64.710938 47.761719 C 65.121094 48.710938 65.765625 49.691406 65.753906 50.65625 C 65.746094 51.621094 65.0625 52.582031 64.671875 53.539062 C 64.464844 54.039062 64.25 54.535156 63.988281 55.160156 Z M 64.019531 51.757812 C 64.175781 51.429688 64.347656 51.230469 64.339844 51.039062 C 64.339844 50.886719 64.113281 50.746094 63.988281 50.601562 C 63.90625 50.738281 63.761719 50.875 63.765625 51 C 63.78125 51.210938 63.898438 51.414062 64.019531 51.757812 Z M 64.019531 51.757812 " fill-opacity="1" fill-rule="nonzero"/><g clip-path="url(#9ac1f18f41)"><path fill="#040707" d="M 60.363281 6.816406 C 60.644531 5.699219 60.890625 4.714844 61.164062 3.628906 C 62.675781 3.820312 63.554688 4.890625 64.691406 5.804688 C 64.609375 7.40625 65.664062 8.925781 65.21875 10.816406 C 64.769531 10.667969 64.335938 10.648438 64.09375 10.425781 C 62.855469 9.285156 61.671875 8.09375 60.363281 6.816406 Z M 63.402344 6.882812 C 63.242188 6.96875 63.140625 7.023438 63.039062 7.074219 C 63.125 7.183594 63.191406 7.332031 63.304688 7.402344 C 63.386719 7.453125 63.527344 7.394531 63.644531 7.386719 C 63.5625 7.21875 63.484375 7.054688 63.402344 6.882812 Z M 63.402344 6.882812 " fill-opacity="1" fill-rule="nonzero"/></g><path fill="#040707" d="M 16.804688 62.484375 C 16.558594 62.78125 16.359375 63.28125 16.058594 63.347656 C 15.050781 63.578125 14.015625 63.714844 12.992188 63.765625 C 12.546875 63.792969 11.980469 63.644531 11.65625 63.363281 C 10.527344 62.371094 9.6875 61.15625 9.128906 59.699219 C 10.585938 59.523438 11.90625 59.367188 13.355469 59.195312 C 14.476562 60.265625 15.679688 61.414062 16.878906 62.566406 L 16.800781 62.480469 Z M 12.601562 60.691406 C 12.542969 60.796875 12.40625 60.921875 12.40625 61.042969 C 12.410156 61.613281 12.730469 61.90625 13.292969 61.816406 C 13.480469 61.785156 13.636719 61.585938 13.808594 61.464844 C 13.566406 61.207031 13.339844 60.921875 13.066406 60.695312 C 12.976562 60.621094 12.769531 60.6875 12.609375 60.6875 Z M 12.601562 60.691406 " fill-opacity="1" fill-rule="nonzero"/><path fill="#040707" d="M 19.769531 58.46875 C 21.1875 59.324219 22.273438 59.972656 23.410156 60.65625 C 23.734375 62.421875 24.328125 64.140625 24.808594 66.160156 C 24.175781 65.984375 23.855469 65.964844 23.617188 65.8125 C 22.875 65.335938 22.175781 64.785156 21.441406 64.300781 C 20.042969 63.386719 19.207031 62.277344 19.75 60.480469 C 19.898438 59.964844 19.773438 59.367188 19.773438 58.464844 Z M 21.976562 61.242188 C 21.765625 62.039062 22.023438 62.621094 22.75 62.988281 C 22.464844 62.34375 22.257812 61.878906 21.976562 61.242188 Z M 21.976562 61.242188 " fill-opacity="1" fill-rule="nonzero"/><path fill="#040707" d="M 47.273438 66.914062 C 46.488281 66.59375 45.886719 67.128906 45.222656 67.351562 C 44.917969 67.453125 44.652344 67.65625 44.347656 67.746094 C 43.707031 67.941406 42.96875 67.316406 43.140625 66.671875 C 43.449219 65.515625 43.84375 64.382812 44.179688 63.3125 C 45.574219 62.710938 46.867188 62.148438 48.289062 61.535156 C 48.394531 61.722656 48.695312 62.003906 48.660156 62.234375 C 48.464844 63.414062 48.214844 64.589844 47.902344 65.742188 C 47.78125 66.183594 47.445312 66.570312 47.203125 66.976562 C 47.203125 66.976562 47.265625 66.90625 47.265625 66.90625 Z M 46.726562 64.628906 C 46.066406 64.367188 45.488281 64.316406 45.082031 65.007812 C 45.054688 65.050781 45.082031 65.175781 45.117188 65.195312 C 45.835938 65.589844 46.308594 65.242188 46.722656 64.628906 Z M 46.726562 64.628906 " fill-opacity="1" fill-rule="nonzero"/><path fill="#040707" d="M 58.226562 11.9375 C 57.675781 11.171875 57.121094 10.410156 56.605469 9.703125 C 56.746094 9.027344 57.210938 8.886719 57.679688 8.816406 C 58.96875 8.617188 60.242188 8.789062 61.46875 9.183594 C 61.8125 9.296875 62.316406 9.617188 62.335938 9.882812 C 62.429688 10.921875 63.230469 11.339844 63.851562 11.941406 C 64.003906 12.085938 64.054688 12.335938 64.183594 12.613281 C 63.644531 13.160156 63.039062 13.136719 62.40625 12.980469 C 61.09375 12.660156 59.78125 12.324219 58.226562 11.9375 Z M 60.421875 10.488281 C 60.421875 10.421875 60.421875 10.351562 60.429688 10.285156 L 59.621094 10.285156 C 59.621094 10.339844 59.621094 10.390625 59.613281 10.445312 C 59.882812 10.460938 60.15625 10.476562 60.421875 10.492188 Z M 60.421875 10.488281 " fill-opacity="1" fill-rule="nonzero"/><path fill="#040707" d="M 10.472656 23.558594 L 10.472656 26.898438 C 9.214844 27.734375 8.03125 28.546875 6.808594 29.292969 C 6.585938 29.429688 6.210938 29.3125 5.78125 29.3125 L 5.78125 25.320312 C 7.289062 24.992188 8.578125 24.007812 10.464844 23.550781 Z M 10.472656 23.558594 " fill-opacity="1" fill-rule="nonzero"/><path fill="#040707" d="M 60.113281 64.65625 C 59.292969 65.5625 58.550781 66.378906 57.792969 67.214844 C 55.964844 67.261719 54.144531 67.628906 52.15625 67.160156 C 52.265625 66.757812 52.308594 66.378906 52.484375 66.074219 C 52.636719 65.8125 52.945312 65.640625 53.1875 65.429688 C 54.429688 64.328125 55.851562 63.84375 57.441406 63.972656 C 58.074219 64.023438 58.714844 63.96875 59.335938 64.058594 C 59.589844 64.09375 59.800781 64.402344 60.121094 64.660156 Z M 57.058594 65.695312 C 57.058594 65.605469 57.054688 65.507812 57.050781 65.417969 C 56.714844 65.4375 56.382812 65.464844 56.050781 65.484375 C 56.050781 65.554688 56.054688 65.625 56.058594 65.695312 Z M 57.058594 65.695312 " fill-opacity="1" fill-rule="nonzero"/><path fill="#040707" d="M 68.230469 17.738281 C 67.734375 18.007812 67.402344 18.351562 67.089844 18.328125 C 65.734375 18.253906 64.191406 18.773438 63.078125 17.902344 C 61.957031 17.023438 60.984375 15.824219 60.855469 13.980469 C 62.605469 14.359375 64.160156 14.671875 65.695312 15.046875 C 65.972656 15.113281 66.226562 15.402344 66.433594 15.632812 C 66.96875 16.222656 67.46875 16.84375 68.230469 17.738281 Z M 65.046875 16.195312 C 64.488281 16.078125 64.296875 16.015625 64.097656 16.011719 C 64.039062 16.011719 63.972656 16.164062 63.90625 16.25 C 63.96875 16.285156 64.027344 16.359375 64.089844 16.355469 C 64.285156 16.335938 64.484375 16.292969 65.046875 16.195312 Z M 65.046875 16.195312 " fill-opacity="1" fill-rule="nonzero"/><path fill="#040707" d="M 5.585938 14.808594 C 6.460938 13.417969 7.207031 12.195312 7.980469 10.992188 C 8.34375 10.425781 9.0625 10.453125 9.328125 11.027344 C 9.851562 12.136719 10.152344 13.222656 9.550781 14.460938 C 9.144531 15.304688 9.058594 16.300781 8.765625 17.203125 C 8.679688 17.464844 8.410156 17.804688 8.179688 17.84375 C 7.9375 17.890625 7.527344 17.707031 7.371094 17.492188 C 6.757812 16.660156 6.21875 15.769531 5.585938 14.804688 Z M 5.585938 14.808594 " fill-opacity="1" fill-rule="nonzero"/><path fill="#040707" d="M 54.089844 58.128906 C 54.257812 58.4375 54.578125 58.777344 54.507812 58.949219 C 53.988281 60.222656 54.207031 61.464844 54.640625 62.777344 C 53.480469 63.664062 52.539062 64.75 51 65.234375 C 50.503906 63.65625 50.089844 62.226562 50.449219 60.765625 C 51.675781 59.878906 52.828125 59.042969 54.089844 58.128906 Z M 53.023438 62.371094 C 52.988281 62.25 52.953125 62.128906 52.917969 62.007812 C 52.796875 62.070312 52.628906 62.105469 52.566406 62.207031 C 52.519531 62.273438 52.621094 62.433594 52.652344 62.550781 C 52.777344 62.492188 52.902344 62.433594 53.03125 62.371094 Z M 53.023438 62.371094 " fill-opacity="1" fill-rule="nonzero"/><path fill="#040707" d="M 16.878906 62.570312 C 16.800781 62.191406 16.789062 61.773438 16.613281 61.441406 C 16.351562 60.957031 15.992188 60.515625 15.628906 60.089844 C 15.269531 59.671875 14.851562 59.308594 14.378906 58.84375 C 14.785156 58.144531 15.207031 57.5 15.535156 56.800781 C 15.828125 56.179688 16.015625 55.507812 16.304688 54.710938 C 17.546875 55.382812 17.71875 56.761719 18.621094 57.25 C 18.445312 59.089844 18.289062 60.742188 18.113281 62.542969 C 17.683594 62.523438 17.242188 62.503906 16.804688 62.484375 C 16.804688 62.484375 16.886719 62.570312 16.886719 62.570312 Z M 16.878906 58.882812 C 16.980469 58.882812 17.082031 58.882812 17.179688 58.882812 L 17.179688 57.695312 C 17.078125 57.695312 16.976562 57.695312 16.878906 57.695312 Z M 16.878906 58.882812 " fill-opacity="1" fill-rule="nonzero"/><path fill="#040707" d="M 10.71875 38.890625 C 9.578125 40.074219 8.527344 41.183594 8.40625 42.832031 C 8.394531 42.984375 8.058594 43.203125 7.855469 43.21875 C 7.652344 43.238281 7.335938 43.101562 7.238281 42.933594 C 6.996094 42.523438 6.835938 42.066406 6.679688 41.617188 C 6.417969 40.867188 6.179688 40.113281 5.894531 39.246094 C 6.808594 38.167969 7.773438 37.011719 8.765625 35.863281 C 9.082031 35.496094 9.769531 35.671875 9.929688 36.171875 C 10.199219 37.011719 10.425781 37.859375 10.71875 38.882812 Z M 8.664062 38.269531 C 8.359375 38.539062 7.730469 38.574219 7.832031 39.222656 C 8.472656 39.308594 8.527344 38.734375 8.664062 38.269531 Z M 8.664062 38.269531 " fill-opacity="1" fill-rule="nonzero"/><path fill="#040707" d="M 1.910156 22.386719 C 2.152344 22.292969 2.238281 22.234375 2.304688 22.242188 C 3.625 22.484375 4.125 23.691406 4.886719 24.546875 C 5.171875 24.863281 5.074219 25.601562 5.027344 26.136719 C 4.953125 27.09375 4.789062 28.042969 4.648438 28.992188 C 4.589844 29.390625 3.980469 29.605469 3.699219 29.3125 C 3.03125 28.621094 2.34375 27.933594 1.78125 27.167969 C 1.523438 26.8125 1.386719 26.265625 1.421875 25.820312 C 1.523438 24.636719 1.75 23.460938 1.917969 22.375 Z M 3.152344 26.234375 L 3.152344 24.371094 C 2.496094 24.933594 2.699219 25.359375 3.152344 26.234375 Z M 3.152344 26.234375 " fill-opacity="1" fill-rule="nonzero"/><path fill="#040707" d="M 16.980469 7.609375 C 18.191406 6.476562 19.042969 5.683594 20.035156 4.761719 C 21.363281 5.007812 22.804688 3.6875 24.527344 4.632812 C 23.789062 5.875 23.117188 7.011719 22.371094 8.269531 C 20.75 8.074219 19.128906 7.871094 16.980469 7.609375 Z M 21.578125 6.347656 C 21.492188 6.441406 21.386719 6.527344 21.320312 6.636719 C 21.300781 6.675781 21.378906 6.769531 21.414062 6.835938 C 21.542969 6.753906 21.667969 6.675781 21.792969 6.59375 C 21.71875 6.511719 21.648438 6.425781 21.570312 6.347656 Z M 21.578125 6.347656 " fill-opacity="1" fill-rule="nonzero"/><path fill="#040707" d="M 33.195312 48.449219 C 33.3125 50.007812 32.839844 50.84375 32.390625 51.691406 C 31.945312 52.523438 30.753906 52.640625 30.082031 52.144531 C 29.15625 51.464844 28.492188 50.546875 28.757812 49.28125 C 28.941406 48.429688 29.078125 47.554688 29.691406 46.859375 C 30.761719 45.644531 32.339844 45.878906 32.925781 47.375 C 33.121094 47.882812 33.191406 48.445312 33.191406 48.445312 Z M 31.148438 51.140625 C 32.1875 50.105469 32.160156 48.914062 31.703125 47.652344 C 31.570312 47.289062 30.90625 47.222656 30.691406 47.558594 C 30.433594 47.960938 30.175781 48.375 30.015625 48.816406 C 29.660156 49.789062 29.878906 50.203125 31.148438 51.140625 Z M 31.148438 51.140625 " fill-opacity="1" fill-rule="nonzero"/><path fill="#040707" d="M 16.277344 14.25 C 15.558594 14.910156 14.839844 15.34375 14.441406 15.980469 C 13.742188 17.097656 12.75 17.40625 11.578125 17.394531 C 10.957031 17.394531 10.339844 17.25 9.632812 17.152344 C 9.632812 15.644531 10.5 14.683594 11.21875 13.566406 C 12.871094 13.699219 14.585938 13.078125 16.273438 14.246094 Z M 12.4375 16.222656 C 13.085938 16.203125 13.464844 15.835938 13.339844 15.367188 C 13.300781 15.21875 13.027344 15.03125 12.863281 15.039062 C 12.308594 15.0625 11.886719 15.496094 12.035156 15.859375 C 12.109375 16.03125 12.335938 16.132812 12.4375 16.21875 Z M 12.4375 16.222656 " fill-opacity="1" fill-rule="nonzero"/><path fill="#040707" d="M 24.582031 51.847656 C 25.628906 51.722656 26.320312 51.605469 27.011719 51.574219 C 27.140625 51.570312 27.332031 51.863281 27.414062 52.050781 C 27.460938 52.15625 27.363281 52.429688 27.273438 52.464844 C 26.078125 52.898438 24.859375 53.402344 23.617188 52.640625 C 23.378906 52.496094 23.242188 52.175781 23.019531 51.886719 C 23.75 50.621094 24.890625 49.644531 25.148438 48.054688 C 24.789062 48.085938 24.5625 48.054688 24.378906 48.125 C 23.964844 48.292969 23.550781 48.347656 23.40625 47.863281 C 23.339844 47.644531 23.527344 47.238281 23.726562 47.066406 C 24.597656 46.332031 25.554688 46.246094 26.113281 46.78125 C 26.585938 47.242188 26.667969 48.21875 26.273438 49.023438 C 26.167969 49.238281 26.003906 49.425781 25.882812 49.632812 C 25.515625 50.246094 25.15625 50.867188 24.578125 51.847656 Z M 24.582031 51.847656 " fill-opacity="1" fill-rule="nonzero"/><path fill="#040707" d="M 49.394531 45.246094 C 49.175781 45.96875 49.007812 46.488281 48.867188 47.019531 C 48.585938 48.101562 48.246094 49.160156 48.34375 50.3125 C 48.378906 50.753906 48.066406 51.054688 47.574219 50.980469 C 47.082031 50.898438 46.96875 50.535156 47.039062 50.089844 C 47.207031 49.070312 47.382812 48.050781 47.535156 47.132812 C 47.09375 46.414062 46.605469 46.945312 46.175781 46.882812 C 45.589844 46.804688 45.074219 46.675781 45.019531 45.949219 C 47.132812 45.253906 48.589844 45.015625 49.382812 45.242188 Z M 49.394531 45.246094 " fill-opacity="1" fill-rule="nonzero"/><path fill="#040707" d="M 43.101562 45.933594 C 44.050781 45.753906 44.046875 46.550781 44.105469 46.96875 C 44.277344 48.140625 45.15625 49.324219 44.195312 50.6875 C 43.832031 50.386719 43.308594 50.160156 43.296875 49.914062 C 43.230469 48.585938 42.824219 47.265625 43.101562 45.933594 Z M 43.101562 45.933594 " fill-opacity="1" fill-rule="nonzero"/></svg>