<?xml version="1.0" encoding="UTF-8"?>
<svg id="Layer_2" xmlns="http://www.w3.org/2000/svg" viewBox="0 0 90.15 42.76">
  <g id="Layer_2-2" data-name="Layer_2">
    <path d="M75.11,16.48c-1.76-1.33-3.25-2.52-4.82-3.61-1.45-1-3.22-1.34-4.73-2.28-2.02-1.26-4.29-2.12-6.29-3.41-1.74-1.12-2.76-2.9-3.26-4.98.84-1.97,2.82-1.5,4.3-2.2,2.73,1.6,5.53,2.84,8.59,3.6,1.8.45,3.42,1.63,5.08,2.57,2.08,1.18,4.07,2.52,6.18,3.65,2.1,1.12,3.82,2.88,6.24,3.48.59.15,1.03.94,1.53,1.44,1.13,1.14,1.65,2.58,2.22,4.16-2.17,2.83-4.63,5.2-7.89,6.64-5.28,2.32-10.15,5.3-14.6,8.97-.28.23-.52.55-.84.66-4.61,1.61-7.94,5.28-12.39,7.59-.69-.26-1.61-.51-2.44-.93-1.76-.89-2.11-3.17-.65-4.51.69-.63,1.58-1.07,2.44-1.48,1.3-.62,2.46-1.29,3.51-2.38,2.06-2.15,4.35-4.08,6.63-6.02.8-.68,1.83-1.08,2.75-1.62.49-.29.97-.59,1.76-1.06-.7-.32-1.15-.73-1.48-.65-2.43.57-4.86.86-7.35.64-.58-.05-1.18.14-1.77.23-.47.07-.97.28-1.41.2-3.44-.65-6.87.01-10.3-.1-1.33-.04-2.61-.1-3.88.24-2.19.59-4.52.54-6.62,1.55-.4.2-.98.29-1.39.17-2.59-.75-5.25-.26-7.86-.51-3.47-.34-6.89.4-10.37.13-3.31-.26-6.69.15-10.03.43-1.66.14-3.01-.15-4.3-1.26-1.55-1.33-1.94-2-1.5-3.62.4-1.49,1.85-2.93,3.36-2.71,1.86.28,3.55-.24,5.32-.4.36-.03.76-.14,1.07-.02,3.09,1.14,6.15,0,9.2-.15,3.31-.16,6.59-.7,9.79-1.75,1.42-.47,3.09-.36,4.63-.28,2.63.13,5.26.36,7.87.7,2.5.33,4.99.53,7.51.23.81-.1,1.58-.42,2.43-.01.39.19.94.04,1.41.08,1.52.14,2.58-1.56,4.43-.82,1.2.48,2.82,0,4.25-.13,3.17-.29,6.33.05,9.5.09.33,0,.65.29.99.4,1.26.4,1.26.39,3.19-.95Z"/>
  </g>
</svg>