<?xml version="1.0" encoding="UTF-8"?>
<svg id="Layer_2" xmlns="http://www.w3.org/2000/svg" viewBox="0 0 45.66 12.81">
  <g id="Layer_2-2" data-name="Layer_2">
    <path d="M28.39,12.16c1.31-1.25,2.32-2.22,3.43-3.29-2.8-1.03-5.44-1.07-8.13-.82-2.19.2-4.38.36-6.58.45-3.78.15-7.57.04-11.32.44-1.95.21-3.56-.31-5.45-.82-.18-1.47-.71-2.84.07-4.51,2.15-.34,4.27.52,6.43.5,2.08-.02,4.16,0,6.24.01,2.2.02,4.4.07,6.6.08,2.08,0,4.16.02,6.24-.03,2.16-.06,4.35.1,6.78-.71-1.16-.8-2.05-1.35-2.86-2-.21-.17-.29-.71-.18-.97.11-.24.59-.53.84-.47,2.01.45,4.06.61,5.99,1.54,2.19,1.05,4.58,1.68,6.88,2.49.57.2,1.17.36,1.69.64.75.4.79,1.7.11,2.21-.1.07-.2.15-.31.19-4.87,1.93-9.47,4.56-14.63,5.72-.44.1-.99-.32-1.85-.63ZM35.54,9.49c.64-.16,1.27-.31,1.91-.47.46-.37.87-.83,1.39-1.08,1.31-.61,2.66-1.13,4.34-1.82-2.29-1.54-4.65-1.58-6.51-2.53-.52.6-.84,1.33-1.28,1.41-1.8.32-3.63.51-5.46.61-7.83.46-15.66.18-23.48-.31-1.69-.11-3.38-.17-5.03-.24-.27,1.18-.09,1.98,1.02,2.13,1.2.16,2.43.28,3.64.25,3.18-.08,6.36-.21,9.54-.4,2.32-.14,4.62-.43,6.93-.6.97-.07,1.95-.02,2.93.02,2.57.12,5.13.42,7.7.37,1.92-.04,3.25.67,4.27,2.17-.73-.21-1.43-.31-1.84.55-.27,0-.54,0-.81.01.06.07.14.2.17.19.2-.07.38-.18.57-.27Z"/>
  </g>
</svg>