<?xml version="1.0" encoding="UTF-8"?>
<svg id="Layer_2" xmlns="http://www.w3.org/2000/svg" viewBox="0 0 42.78 90.14">
  <g id="Layer_2-2" data-name="Layer_2">
    <path d="M26.33,75.1c1.32-1.77,2.52-3.26,3.6-4.83.99-1.45,1.33-3.22,2.27-4.73,1.26-2.02,2.11-4.29,3.39-6.3,1.11-1.74,2.89-2.77,4.97-3.27,1.97.83,1.51,2.82,2.21,4.29-1.6,2.73-2.83,5.53-3.58,8.59-.44,1.8-1.63,3.43-2.56,5.09-1.17,2.08-2.51,4.08-3.64,6.19-1.12,2.1-2.87,3.83-3.46,6.25-.14.59-.93,1.03-1.44,1.53-1.14,1.14-2.58,1.66-4.16,2.23-2.84-2.17-5.21-4.62-6.66-7.87-2.33-5.27-5.32-10.14-9.01-14.58-.23-.28-.55-.52-.67-.84-1.62-4.6-5.3-7.92-7.61-12.37.26-.69.51-1.61.93-2.44.89-1.76,3.16-2.12,4.51-.66.63.69,1.08,1.58,1.49,2.43.62,1.3,1.3,2.46,2.39,3.51,2.15,2.06,4.09,4.34,6.03,6.61.68.8,1.09,1.83,1.63,2.75.29.49.59.97,1.07,1.76.32-.7.72-1.15.65-1.48-.57-2.42-.87-4.85-.66-7.35.05-.58-.15-1.18-.24-1.77-.07-.47-.29-.97-.2-1.41.64-3.44-.03-6.87.08-10.3.04-1.33.1-2.62-.25-3.88-.59-2.19-.55-4.52-1.57-6.61-.2-.4-.29-.97-.17-1.39.75-2.59.24-5.25.49-7.86.33-3.47-.42-6.88-.15-10.37.26-3.31-.17-6.69-.45-10.03-.14-1.66.14-3.01,1.25-4.3,1.33-1.56,2-1.95,3.62-1.51,1.49.4,2.94,1.84,2.71,3.35-.28,1.86.25,3.55.41,5.32.03.36.14.76.03,1.07-1.13,3.09.02,6.15.17,9.2.17,3.31.72,6.59,1.77,9.79.47,1.42.36,3.09.29,4.63-.12,2.63-.34,5.26-.68,7.87-.32,2.5-.52,5-.21,7.51.1.81.42,1.58.02,2.43-.19.39-.04.94-.08,1.41-.13,1.52,1.57,2.58.83,4.43-.48,1.2.01,2.82.14,4.25.3,3.17-.03,6.33-.07,9.5,0,.33-.29.65-.4.99-.4,1.26-.39,1.26.96,3.19Z"/>
  </g>
</svg>