<?xml version="1.0" encoding="UTF-8"?>
<svg id="Layer_2" xmlns="http://www.w3.org/2000/svg" viewBox="0 0 37.48 96.45">
  <g id="Layer_2-2" data-name="Layer_2">
    <path d="M37.32,71.29c-.19.16-.42.48-.73.6-2.38.88-3.42,2.86-4.24,5.04-.63,1.67-1.28,3.33-1.94,4.99-.31.78-.68,1.53-.96,2.32-1.18,3.26-2.33,6.52-3.5,9.78-.12.34-.3.65-.47.96-.99,1.7-2.8,1.98-4.2.59-1.56-1.54-2.57-3.46-3.38-5.45-2.75-6.77-6.73-12.69-12.53-17.12-2.91-2.22-4.02-5.24-5.28-8.32-.3-.73.16-1.39.82-1.81,1.35-.85,2.8-1.25,4.43-1.21,2.27.06,4.54-.01,6.8-.08.7-.02,1.39-.22,2.23-.36.17-.74.42-1.4.48-2.08.31-3.81-.14-7.57-.76-11.32-.19-1.17-.18-2.28.02-3.5.33-2.07.6-4.18.26-6.37-.33-2.09.07-4.28.13-6.43.02-.71.06-1.45-.08-2.14-.7-3.51-1.51-7.01-2.19-10.53-.4-2.09-.98-4.16-.76-6.36.12-1.15-.25-2.37-.52-3.53-.45-1.91-.4-3.82.04-5.69.63-2.63,2.72-3.81,5.14-3.01.23.07.52.1.65.26,1.45,1.73,3.45,3.33,3.36,5.73-.08,2.24.8,4.18,1.08,6.29.17,1.29.37,2.58.5,3.88.16,1.54.28,3.09.39,4.64.2,2.74.39,5.48.58,8.22.36,5.24.78,10.48,1.03,15.73.19,4.04.43,8.08.11,12.13-.1,1.29-.03,2.59-.04,4.14,1.7.13,3.22.18,4.71.39,1.42.2,2.82.57,4.21.9.81.19,1.64.38,2.38.74,1.65.8,2.56,2.07,2.34,4.03-.13,1.16-.08,2.35-.13,3.97Z"/>
  </g>
</svg>