<?xml version="1.0" encoding="UTF-8"?>
<svg id="Layer_2" xmlns="http://www.w3.org/2000/svg" viewBox="0 0 96.42 37.49">
  <g id="Layer_2-2" data-name="Layer_2">
    <path d="M71.21.14c.16.19.48.42.6.73.89,2.37,2.87,3.41,5.05,4.22,1.67.62,3.33,1.27,4.99,1.92.78.3,1.53.67,2.32.95,3.26,1.16,6.53,2.3,9.79,3.46.34.12.66.29.97.47,1.7.98,1.99,2.79.6,4.2-1.53,1.56-3.45,2.58-5.44,3.39-6.76,2.77-12.66,6.78-17.07,12.59-2.21,2.92-5.23,4.04-8.3,5.31-.73.3-1.39-.15-1.81-.82-.85-1.35-1.26-2.8-1.23-4.42.05-2.27-.03-4.54-.1-6.8-.02-.7-.22-1.39-.36-2.23-.74-.17-1.4-.42-2.08-.47-3.81-.3-7.57.17-11.32.8-1.17.2-2.28.19-3.5,0-2.07-.32-4.18-.59-6.37-.23-2.08.34-4.28-.06-6.43-.1-.71-.02-1.45-.05-2.14.09-3.51.72-7,1.54-10.52,2.22-2.09.41-4.15,1-6.36.78-1.15-.11-2.37.25-3.53.53-1.91.45-3.82.42-5.69-.02-2.63-.62-3.82-2.71-3.03-5.13.07-.23.1-.52.26-.65,1.72-1.45,3.32-3.46,5.72-3.38,2.24.07,4.18-.82,6.28-1.11,1.29-.18,2.58-.37,3.88-.51,1.54-.16,3.09-.29,4.64-.41,2.74-.21,5.48-.41,8.22-.61,5.24-.37,10.48-.82,15.73-1.09,4.04-.21,8.08-.46,12.13-.16,1.29.1,2.59.02,4.14.03.13-1.7.17-3.22.38-4.71.2-1.42.56-2.82.89-4.22.19-.81.37-1.64.73-2.38.79-1.65,2.06-2.57,4.02-2.35,1.16.13,2.35.07,3.97.11Z"/>
  </g>
</svg>