<?xml version="1.0" encoding="UTF-8"?>
<svg id="Layer_2" xmlns="http://www.w3.org/2000/svg" viewBox="0 0 38 14.34">
  <g id="Layer_2-2" data-name="Layer_2">
    <path d="M27.77,4.64c-1.46-1.57-3.64-1.92-4.7-3.88.38-.28.75-.78,1.07-.75.82.07,1.67.28,2.43.6,2.58,1.1,5.11,2.3,7.68,3.42,1.45.63,2.98,1.12,3.74,2.9-.48.39-.89.87-1.41,1.1-4.02,1.79-7.99,3.69-11.69,6.09-.55.36-.58.32-2-.26-.15-1.08.39-1.82,1.26-2.34,1.78-1.07,3.58-2.08,5.71-3.31-.76-.29-1.26-.65-1.74-.63-5.01.22-10-.23-14.99-.48-2.3-.11-4.63.32-6.95.36-1.57.03-3.16-.07-4.71-.31C.38,6.97-.05,6.14,0,4.95c.04-.85.53-1.47,1.31-1.46,1.22,0,2.45.07,3.66.19,4.5.44,8.98,1.01,13.49,1.32,2.67.18,5.37-.02,8.06-.07.32,0,.64-.14,1.25-.29Z"/>
  </g>
</svg>