<?xml version="1.0" encoding="UTF-8"?>
<svg id="Layer_2" xmlns="http://www.w3.org/2000/svg" viewBox="0 0 92.71 222.48">
  <g id="Layer_1-2" data-name="Layer_1">
    <g>
      <path d="M37.11,21.84c1.21,2.38,2.24,4.49,3.34,6.57,1.04,1.96,2.16,3.87,3.33,5.95.82-.6,1.52-.99,2.07-1.53.55-.55.94-1.25,1.39-1.86-1.56-3.11-3.05-6.09-4.53-9.07-.35-.71-.73-1.43-.97-2.18-.46-1.43-.4-2.72.72-3.99,1.25-1.42,2.27-3.07,3.3-4.68.86-1.33.84-2.47-.36-3.84-1.84-2.08-1.29-4.12,1.17-5.36C49.19.53,52.02,0,54.92,0c2.87,0,5.75.18,8.62.32.63.03,1.26.17,1.86.37,3.47,1.13,4.58,3.71,2.37,6.62-1.48,1.95-1.47,3.77-1.04,5.82.47,2.23,1.6,4.16,2.97,5.95,1.46,1.9,3.01,3.74,4.38,5.7,4.14,5.91,5.36,12.47,4.28,19.57-.58,3.83-1.39,7.57-3.52,10.85-1.47,2.26-3.18,4.38-4.8,6.54-.46.62-1.01,1.18-1.44,1.69.33,1.1,1.06.71,1.61.77,3.08.35,4.66,3.05,3.34,5.77-.14.28-.28.6-.51.8-2.35,2.1-1.71,4.51-.86,7.22.77.18,1.51.34,2.26.52,2.52.59,3.18,1.27,3.51,3.8.2,1.56.29,3.13.45,4.86,1.18.13,2.1.3,3.02.33,1.82.06,3.46.62,4.91,1.66,1.81,1.31,1.93,3.51.21,4.88-2.02,1.61-4.22,2.9-6.93,2.9s-5.37.45-8.06.91c-.15.88-.31,1.5-.34,2.12-.23,4.94-.43,9.89-.66,14.83-.2,4.31-.39,8.62.4,12.91.17.94.26,1.92.21,2.86-.23,3.76.76,7.22,2.14,10.69,1.39,3.48,3.18,6.6,5.9,9.17.57.54,1.08,1.15,1.51,1.6.32,2.01-.85,3.23-1.68,4.55-1.01,1.63-2.18,3.16-3.18,4.79-1.48,2.42-1.49,4.85.78,6.32,3.96,2.58,5.5,6.39,6.91,10.52.74,2.16,1.24,4.27,1.22,6.54-.03,2.56.11,5.12-.04,7.67-.16,2.79.71,5.13,2.97,6.66,2.05,1.38,2.87,3.28,3.41,5.5.3,1.23.78,2.43,1.22,3.62.52,1.41.47,2.79.09,4.22-1.13,4.2-1.87,4.48-5.44,4.69-7.81.44-15.6,1.18-23.41,1.63-4.14.24-8.31.05-12.45.2-2.54.09-5.08.38-7.61.7-10.3,1.32-20.73,1.01-31.01,2.62-2.48.39-5.12.23-7.61-.18-1.45-.24-2.79-1.41-4.08-2.31-.45-.31-.83-1.1-.8-1.64.1-1.74.11-3.58.7-5.18.94-2.52,2.21-4.95,3.57-7.28.73-1.26,1.45-2.3,1.31-3.92-.14-1.65.11-1.68,2.19-4.04.48-5.26.9-10.18,1.39-15.09.5-5.01,2.66-9.15,6.67-12.27.76-.59,1.5-1.19,2.23-1.82,2.84-2.44,3.23-4.53,1.53-8-.56-1.15-1.24-2.25-1.69-3.44-.74-1.96-.53-3.96,1.13-5.27,6.85-5.43,8.4-13.35,9.96-21.17,1.4-7.04,2.25-14.19,2.71-21.36.16-2.53.03-5.07.03-7.9-2.33-.58-4.66.17-6.97.2-2.39.03-4.78.11-7.18.14-1.84.02-3.01-.98-3.59-2.64-.59-1.67-.04-2.97,1.18-4.31,2.04-2.26,4.4-3.58,7.44-3.81,1.08-.08,2.14-.41,3.44-.67.05-1.74.16-3.32.14-4.9-.03-2.04.98-3.32,2.77-4.05,1.17-.47,2.39-.8,3.84-1.27.13-1.82.27-3.68.41-5.67-.49-.43-.95-.85-1.42-1.25-2.05-1.77-2.6-4.08-1.39-6.32.38-.71,1.04-1.09,1.97-1.11,1.39-.02,2.78-.23,4.77-.42-1.04-1.1-1.59-1.79-2.25-2.37-4.25-3.7-6.85-8.4-8.06-13.82-.45-2-.54-4.12-.46-6.17.19-5.14,1.09-10.15,3.69-14.71,1.53-2.69,3.38-5.01,7.08-6.39ZM20.89,156.97c.6,1.3,1.23,2.57,1.77,3.87,1.31,3.17.78,5.89-1.66,8.26-1.14,1.11-2.44,2.06-3.63,3.12-3.09,2.76-5.03,6.14-5.54,10.31-.21,1.74-.63,3.46-.77,5.2-.23,2.81-.8,5.67.47,8.57,1.09.08,2.02.22,2.94.2,7.35-.15,14.69-.32,22.04-.49,1.6-.04,3.19-.03,4.79-.12,12.28-.63,24.57-1.26,36.85-1.92,1.23-.07,2.59.18,3.83-1.24,0-2.88.32-6.1-.07-9.24-.65-5.26-1.74-10.46-6.62-13.76-.39-.26-.7-.65-1.03-1-3-3.11-3.23-5.48-.87-8.94.63-.92,1.36-1.78,1.96-2.72.36-.57,1.28-1.09.52-1.96-1.9.42-3.75,1.1-5.61,1.19-5.11.24-10.22.27-15.33.32-5.12.04-10.26-.33-15.35.09-5.9.49-11.74.57-17.61-.06-.29-.03-.6.16-1.06.29ZM76.44,151.9c-.54-.92-.75-1.35-1.02-1.73-.38-.51-.86-.95-1.21-1.48-3.12-4.72-5.36-9.8-5.76-15.51-.45-6.36-.72-12.73-1.22-19.08-.16-2.04-.63-4.1-1.22-6.07-1.06-3.58-3.6-5.62-7.28-6-2.05-.21-4.15-.2-6.2.02-4.75.5-9.48,1.17-14.22,1.81-1.07.15-2.12.48-3.38.77-.35,3.63-.69,7.11-1.03,10.59-.75,7.79-1.81,15.54-4.06,23.04-1.6,5.34-3.63,10.58-8.05,14.43-.16.14-.05.58-.07.94,1.27,1.3,2.97.94,4.49.94,5.11.01,10.22-.09,15.32-.25,4.46-.14,8.92-.38,13.36.03,5.46.5,10.83-.5,16.24-.77,1.75-.09,3.34-.78,5.31-1.7ZM63.25,9.66c-1.51-.09-2.61-.15-3.71-.22-2.55-.18-5.1-.31-7.64-.57-.81-.08-1.5-.56-1.14-1.9.94-.14,2-.42,3.06-.42,2.56,0,5.11.17,7.67.2.95.01,1.96.04,2.82-.28.63-.24,1.42-1,1.47-1.58.04-.52-.81-1.15-1.34-1.65-.2-.19-.6-.2-.92-.21-3.83-.07-7.67-.19-11.5-.16-1.59.01-3.15.42-4.29,1.72,2.02,4.2,2.04,4.43-.39,8.69-.94,1.65-2.04,3.2-3.12,4.89,1.27,3.31,2.61,6.52,4.39,9.57,1.12,1.92,1.97,4,2.79,6.07.26.66.29,1.7-.07,2.25-1.12,1.72-2.39,3.37-3.8,4.87-.39.41-1.55.39-2.21.15-.69-.25-1.33-.91-1.75-1.56-1.29-2.01-2.48-4.09-3.68-6.17-.72-1.24-1.38-2.52-2.07-3.78-.66-1.21-1.31-2.42-2-3.67-4.47,3.44-6.92,10.16-6.84,18.35.1,9.69,6.1,15.66,12.88,20.81,7.39-.25,14.39-.5,21.01-.72,1.4-1.16,2.52-2.06,3.61-2.99,8.02-6.84,10.57-15.67,9.24-25.82-.62-4.74-2.93-8.79-6.11-12.26-3.45-3.77-5.74-8.03-6.39-13.58ZM84.73,91.36c-.66-.36-1.3-.98-1.98-1.03-3.49-.23-6.99-.54-10.48-.41-9.23.35-18.46.91-27.69,1.4-7.14.38-14.3.59-21.37,1.91-2.26.42-4.34,1.01-5.88,2.85-.65.78-1.07,1.57-.24,2.85,1.17.15,2.57.53,3.95.47,3.18-.13,6.35-.43,9.52-.75,6.49-.66,12.97-1.47,19.47-2.04,7.46-.65,14.93-1.09,22.39-1.67,2.85-.22,5.71-.49,8.55-.84,1.61-.2,3.13-.69,3.74-2.76ZM29.22,89.45c3.24,0,5.93.1,8.61-.02,4.6-.22,9.2-.61,13.8-.87,7.31-.41,14.62-.77,21.92-1.18.45-.02.89-.25,1.62-.47-.07-1.81.52-3.66-.55-5.53-2.19-.7-4.41-.71-6.63-.59-3.81.2-7.62.5-11.43.7-3.66.2-7.32.31-10.97.5-3.75.2-7.45,1-11.25.66-1.19-.1-2.48.51-3.68.93-.95.33-1.63,1.05-1.64,2.12-.01,1.08.11,2.17.2,3.74ZM82.86,196.95c-1.2-.11-1.98-.26-2.75-.23-9.07.36-18.16.51-27.21,1.19-7.81.59-15.6.88-23.42.91-5.58.02-11.16.05-16.75.01-2.33-.02-3.89.89-4.63,3.1,1.12,1.1,2.37,1.32,3.66,1.24,3.34-.21,6.7-.31,10.01-.75,6.48-.86,12.98-1.36,19.51-1.56,2.69-.08,5.42.04,8.04-.92.7-.26,1.57-.09,2.37-.07,6.53.17,13.07.44,19.6.48,2.86.02,5.72-.37,8.57-.72,1.21-.15,2.45-.58,3.01-2.68ZM57.01,67.01c0-.06-.01-.12-.02-.17-7.17.46-14.34.92-21.5,1.41-.63.04-1.29.12-1.84.39-.35.17-.74.71-.73,1.08.01.37.45.97.78,1.04,1.08.21,2.2.35,3.3.3,7.02-.3,14.04-.61,21.06-1,3.66-.2,7.32-.55,10.98-.85.47-.04.96-.07,1.4-.23.24-.09.6-.46.56-.62-.09-.41-.31-1.02-.6-1.1-.75-.21-1.56-.23-2.35-.23-3.68-.02-7.35,0-11.03,0Z"/>
      <path d="M19.81,174.04c.64-.12,1.33-.37,2.03-.36,3.51.03,6.98-.1,10.47-.67,2.17-.35,4.45-.06,6.67-.05,4.42.03,8.85-.01,13.26.14,6.19.21,12.35-.05,18.47-1.06.28-.05.65.07.88.23.22.16.43.47.46.73.03.26-.11.68-.31.79-.54.3-1.13.61-1.72.67-6.63.63-13.25,1.72-19.94.71-.16-.02-.32-.08-.47-.06-7.11,1.13-14.25-.94-21.39.36-2.3.42-4.76.03-7.14-.04-.63-.02-1.24-.24-1.26-1.4Z"/>
    </g>
  </g>
</svg>