<svg xmlns="http://www.w3.org/2000/svg" width="62" height="62" viewBox="0 0 46.5 46.5">
  <defs>
    <clipPath id="clip1">
      <path d="M10.785 1.117h24.488v43.777H10.785z"/>
    </clipPath>
  </defs>
  <g clip-path="url(#clip1)">
    <path fill="#ffc924" d="M13 2.773h21.121V31.313H13z"/>
    <path fill="#000" d="M27.504 35.77c.078.933.101 1.734-.711 2.324-.223.16-.25.64-.293.988-.07.555-.184 1.031-.79 1.277-.394.16-.331.586-.358.938-.044.574-.282 1.09-.817 1.285-.691.254-1.027.73-1.254 1.375-.187.527-.515.957-1.16.937-.789-.023-1.62-.086-1.933-.961-.196-.555-.513-.875-1.009-1.144-.23-.125-.476-.438-.504-.688-.063-.652-.384-1.059-.903-1.422-.199-.14-.281-.508-.328-.789-.055-.347-.012-.71-.012-1.168-.68-.438-1.242-1-.035-1.98.047-.24-.195-.532-.281-.805-.086-.281-.262-.598-.192-.84.196-.648-.023-1.07-.406-1.594-.512-.691-.219-1.496.188-2.172.27-.449.66-.828 1.004-1.254.187-.922-.07-1.766-.578-2.528-.594-.887-1.2-1.77-1.867-2.602-1.758-2.176-2.965-4.582-3.316-7.375-.309-2.398-.035-4.738.797-7.012.246-.668.504-1.328.79-1.984 1.37-3.195 3.855-5.207 7.007-6.47.77-.308 1.586-.523 2.395-.694 1.043-.227 2.082-.414 3.18-.211.988.183 2.027.086 3.023.23 2.239.328 4.243 1.145 5.684 3.012.403.524.715 1.055.887 1.72.394 1.503.578 3.015.512 4.562-.094 2.265-.364 4.496-1.082 6.66-.836 2.523-2.352 4.652-3.926 6.742-.938 1.246-1.754 2.531-2.164 4.054-.211.793-.27 1.492.453 2.098.305.258.504.656.688 1.023.219.446.258.954-.09 1.348-.336.383-.465.684-.293 1.239.101.332-.278.852-.52 1.234-.149.239-.45.38-.785.645zm-6.235-11.754c.528-1.113.329-2.035-.23-2.965-.395-.656-.672-1.379-1-2.074-.559-1.18-1.106-2.36-1.676-3.535-.234-.48-.555-.918-.758-1.407-.129-.297-.105-.656-.164-1.105.613-.102 1.129-.223 1.648-.262 2.2-.176 4.367-.457 6.469-1.168.55-.184 1.175-.176 1.761-.176.965 0 1.281.461.89 1.39-.41.985-.843 1.973-1.41 2.868-.929 1.472-1.59 3.043-2.128 4.683-.309.945-.801 1.918.23 2.758.364 1.36 1 2.652.91 4.129-.043.758.153 1.531.27 2.293.024.137.188.246.258.336.133-.012.223.004.243-.028.09-.144.219-.296.238-.457.278-2.117 1.188-3.937 2.516-5.601.852-1.063 1.566-2.235 2.348-3.351.863-1.235 1.425-2.618 1.793-4.052.363-1.434.64-2.902.77-4.371.152-1.711.082-3.43-.36-5.125-.336-1.29-1.074-2.227-2.136-2.95-.793-.542-1.672-.89-2.61-1.097-2.102-.457-4.23-.691-6.367-.367-3.64.55-6.617 2.215-8.61 5.398-.855 1.368-1.386 2.887-1.82 4.43-.758 2.703-.672 5.394.3 8.031.606 1.633 1.52 3.105 2.711 4.36 1.48 1.574 2.457 3.332 2.57 5.52 0 .043.078.082.203.226.313-.04.7-.086 1.125-.144.063-1.008.215-1.957.16-2.895-.097-1.582.27-2.828 1.864-3.293zm3.535 5.855c.27-1.73.176-3.242-.2-4.742-.691-.734-.519-2.078-1.823-2.507-.086.316-.203.586-.219.86-.066.792-.398 1.323-1.195 1.573-.648.2-.882.77-.93 1.383-.073.941-.11 1.89-.12 2.836-.004.324.117.652.203 1.078 1.441-.16 2.789-.309 4.289-.477zm3.297 2.246c.016-.902 0-1.004-.55-1.055-1-.09-2.016-.176-3.016-.129-1.422.063-2.84.27-4.258.367-.887.063-1.785.004-2.676.059-.91.058-1.16.453-1.082 1.586.602.363 1.262.234 1.91.195 2.196-.129 4.387-.254 6.578-.406 1.059-.074 2.141-.059 3.094-.613zm-.914-19.922c-1.457-.055-2.602.54-3.895.88.723 1.394.57 2.843.824 4.214.043.215-.031.5.461.489.536-1.93 2.204-3.38 2.61-5.586zm-5.828 7.656c0-1.394-.016-2.394.004-3.394.015-.992-.325-2.004.25-2.957-.77 0-1.48-.04-2.18.02-.3.027-.582.265-.852.401.899 1.922 1.742 3.727 2.778 5.926zm-2.754 17.754c2.004-.121 3.656-.203 5.309-.344.644-.05 1.28-.234 1.917-.363.309-.059.586-.18.567-.55-.024-.419-.364-.403-.649-.38-1.532.145-3.063.305-4.594.453-.879.086-1.758.29-2.645.016-.152-.047-.375-.02-.516.066-.183.114-.41.297-.437.477-.024.145.195.414.363.48.324.125.692.149.684.149zm0 2.13c1.242.456 2.477.21 3.695.026.868-.132 1.72-.347 2.59-.5.578-.1.582-.081.461-1.175-2.219.57-4.543.11-6.79.828.016.328.032.554.048.82zm4.125-19.45c.68-1.601.535-4.207-.3-5.715.065 1.906-.067 3.816.3 5.715zm-.973 23.13c.09-.036.172-.08.262-.114-.031-.043-.067-.113-.102-.113-.094 0-.187.027-.281.043.043.062.078.12.12.183z"/>
  </g>
  <path fill="#000" d="M12.562 15.094c.438-4.117 1.832-7.695 5.618-9.918.199-.117.426-.285.629-.27.156.012.422.305.402.426-.055.258-.215.535-.406.727-2.075 2.062-3.387 4.507-3.875 7.402-.117.691-.363 1.363-.597 2.027-.067.195-.282.38-.477.48-.656.34-1.324-.132-1.289-.878z"/>
</svg>