<svg xmlns="http://www.w3.org/2000/svg" xmlns:xlink="http://www.w3.org/1999/xlink" width="58" zoomAndPan="magnify" viewBox="0 0 43.5 30.000001" height="40" preserveAspectRatio="xMidYMid meet" version="1.0"><defs><clipPath id="a62db37cea"><path d="M 0.460938 0 L 42.554688 0 L 42.554688 29.03125 L 0.460938 29.03125 Z M 0.460938 0 " clip-rule="nonzero"/></clipPath><clipPath id="4309369ce9"><path d="M 3 11 L 16 11 L 16 25 L 3 25 Z M 3 11 " clip-rule="nonzero"/></clipPath><clipPath id="f104219075"><path d="M 3.074219 12.109375 L 15.285156 11.59375 L 15.792969 23.632812 L 3.582031 24.148438 Z M 3.074219 12.109375 " clip-rule="nonzero"/></clipPath><clipPath id="cf628dd2a3"><path d="M 16 10 L 30 10 L 30 23 L 16 23 Z M 16 10 " clip-rule="nonzero"/></clipPath><clipPath id="48ca030702"><path d="M 16.851562 10.949219 L 29.070312 10.710938 L 29.304688 22.757812 L 17.085938 22.996094 Z M 16.851562 10.949219 " clip-rule="nonzero"/></clipPath><clipPath id="277a63e12e"><path d="M 32 11 L 37 11 L 37 17 L 32 17 Z M 32 11 " clip-rule="nonzero"/></clipPath><clipPath id="0c0e34edba"><path d="M 32.117188 11.953125 L 36.765625 11.863281 L 36.859375 16.765625 L 32.214844 16.855469 Z M 32.117188 11.953125 " clip-rule="nonzero"/></clipPath><clipPath id="6e5b3d0894"><path d="M 0.460938 0 L 41.832031 0 L 41.832031 29.03125 L 0.460938 29.03125 Z M 0.460938 0 " clip-rule="nonzero"/></clipPath></defs><g clip-path="url(#a62db37cea)"><path fill="#ffffff" d="M 0.460938 0 L 42.554688 0 L 42.554688 29.03125 L 0.460938 29.03125 Z M 0.460938 0 " fill-opacity="1" fill-rule="nonzero"/></g><g clip-path="url(#4309369ce9)"><g clip-path="url(#f104219075)"><path fill="#ffc924" d="M 3.074219 12.109375 L 15.300781 11.59375 L 15.808594 23.632812 L 3.582031 24.148438 Z M 3.074219 12.109375 " fill-opacity="1" fill-rule="nonzero"/></g></g><g clip-path="url(#cf628dd2a3)"><g clip-path="url(#48ca030702)"><path fill="#ffc924" d="M 16.851562 10.949219 L 29.085938 10.710938 L 29.320312 22.757812 L 17.085938 22.996094 Z M 16.851562 10.949219 " fill-opacity="1" fill-rule="nonzero"/></g></g><g clip-path="url(#277a63e12e)"><g clip-path="url(#0c0e34edba)"><path fill="#ffc924" d="M 32.117188 11.953125 L 36.765625 11.863281 L 36.859375 16.761719 L 32.214844 16.851562 Z M 32.117188 11.953125 " fill-opacity="1" fill-rule="nonzero"/></g></g><path fill="#fddf45" d="M 25.75 12.496094 C 25.761719 12.691406 25.691406 12.882812 25.535156 13.074219 C 25.378906 13.265625 25.148438 13.441406 24.84375 13.601562 C 24.539062 13.765625 24.1875 13.898438 23.78125 14.003906 C 23.375 14.109375 22.949219 14.179688 22.507812 14.214844 C 22.0625 14.25 21.628906 14.246094 21.214844 14.203125 C 20.796875 14.164062 20.425781 14.085938 20.101562 13.972656 C 19.777344 13.863281 19.523438 13.722656 19.339844 13.558594 C 19.15625 13.394531 19.054688 13.214844 19.042969 13.023438 C 19.027344 12.828125 19.097656 12.636719 19.253906 12.445312 C 19.410156 12.253906 19.640625 12.078125 19.945312 11.914062 C 20.25 11.753906 20.605469 11.621094 21.007812 11.515625 C 21.414062 11.410156 21.839844 11.339844 22.285156 11.304688 C 22.730469 11.269531 23.160156 11.273438 23.578125 11.316406 C 23.992188 11.355469 24.363281 11.433594 24.6875 11.546875 C 25.011719 11.65625 25.265625 11.796875 25.453125 11.960938 C 25.636719 12.125 25.734375 12.304688 25.75 12.496094 Z M 25.75 12.496094 " fill-opacity="1" fill-rule="nonzero"/><g clip-path="url(#6e5b3d0894)"><path fill="#000000" d="M 41.675781 0.207031 C 41.71875 0.425781 41.777344 0.617188 41.789062 0.816406 C 41.824219 1.300781 41.660156 1.761719 41.535156 2.21875 C 41.464844 2.460938 41.269531 2.574219 41.027344 2.609375 C 40.699219 2.660156 40.367188 2.71875 39.996094 2.777344 C 40.015625 3.472656 40.050781 4.148438 40.042969 4.824219 C 40.027344 6.074219 39.984375 7.328125 39.949219 8.578125 C 39.945312 8.78125 39.9375 8.988281 39.933594 9.191406 C 39.910156 10.078125 39.933594 10.964844 39.828125 11.851562 C 39.75 12.507812 39.734375 13.171875 39.738281 13.832031 C 39.746094 15.0625 39.664062 16.285156 39.550781 17.511719 C 39.523438 17.785156 39.527344 18.058594 39.519531 18.332031 C 39.5 19.355469 39.472656 20.378906 39.46875 21.40625 C 39.464844 22.292969 39.492188 23.179688 39.5 24.070312 C 39.5 24.34375 39.484375 24.617188 39.46875 24.886719 C 39.4375 25.386719 39.367188 25.882812 39.519531 26.378906 C 39.589844 26.609375 39.496094 26.824219 39.171875 26.8125 C 38.8125 26.800781 38.453125 26.820312 38.09375 26.800781 C 37.347656 26.761719 36.621094 26.9375 35.886719 27 C 35.101562 27.070312 34.316406 27.121094 33.539062 27.238281 C 32.53125 27.390625 31.519531 27.320312 30.515625 27.273438 C 29.371094 27.222656 28.230469 27.230469 27.082031 27.261719 C 25.757812 27.296875 24.433594 27.34375 23.109375 27.410156 C 22.4375 27.445312 21.769531 27.546875 21.097656 27.605469 C 20.828125 27.632812 20.558594 27.625 20.289062 27.640625 C 18.65625 27.746094 17.015625 27.84375 15.382812 27.960938 C 14.417969 28.027344 13.457031 28.105469 12.496094 28.203125 C 10.886719 28.359375 9.273438 28.453125 7.65625 28.523438 C 6.9375 28.558594 6.226562 28.648438 5.507812 28.714844 C 5.441406 28.71875 5.375 28.734375 5.308594 28.734375 C 4.269531 28.726562 3.246094 28.894531 2.222656 29 C 2.019531 29.023438 1.816406 29.046875 1.613281 29.023438 C 1.398438 29.003906 1.1875 28.933594 0.9375 28.875 C 0.917969 28.132812 0.890625 27.433594 0.882812 26.730469 C 0.871094 25.910156 0.890625 25.089844 0.875 24.273438 C 0.867188 23.820312 0.785156 23.367188 0.785156 22.914062 C 0.785156 21.980469 0.789062 21.046875 0.839844 20.117188 C 0.914062 18.710938 1.0625 17.3125 1.046875 15.894531 C 1.035156 14.484375 1.117188 13.074219 1.195312 11.664062 C 1.289062 10.074219 1.453125 8.488281 1.542969 6.898438 C 1.597656 5.945312 1.570312 4.988281 1.578125 4.03125 C 1.578125 3.988281 1.550781 3.949219 1.535156 3.898438 C 1.359375 3.78125 1.203125 3.890625 1.035156 3.941406 C 0.664062 4.054688 0.503906 3.953125 0.5 3.589844 C 0.492188 2.953125 0.5 2.3125 0.515625 1.675781 C 0.523438 1.414062 0.636719 1.300781 0.890625 1.28125 C 1.160156 1.261719 1.429688 1.25 1.699219 1.261719 C 2.347656 1.292969 2.996094 1.359375 3.640625 1.363281 C 4.203125 1.367188 4.761719 1.304688 5.320312 1.261719 C 5.632812 1.234375 5.945312 1.171875 6.257812 1.140625 C 6.882812 1.078125 7.511719 1.042969 8.136719 0.96875 C 9.183594 0.84375 10.25 0.917969 11.289062 0.707031 C 12.039062 0.558594 12.785156 0.386719 13.53125 0.214844 C 14.480469 -0.00390625 15.425781 -0.0625 16.402344 0.078125 C 17.378906 0.21875 18.363281 0.285156 19.359375 0.21875 C 20.367188 0.152344 21.378906 0.191406 22.390625 0.167969 C 23.019531 0.15625 23.648438 0.105469 24.277344 0.0898438 C 25.242188 0.0664062 26.210938 0.046875 27.175781 0.0390625 C 28.03125 0.0351562 28.886719 0.0429688 29.738281 0.0625 C 31.515625 0.101562 33.289062 0.144531 35.0625 0.191406 C 35.738281 0.207031 36.410156 0.265625 37.085938 0.253906 C 38.230469 0.226562 39.375 0.179688 40.519531 0.105469 C 40.886719 0.078125 41.230469 0.117188 41.675781 0.207031 Z M 30.234375 11.445312 C 30.300781 11.492188 30.421875 11.527344 30.433594 11.582031 C 30.476562 11.871094 30.515625 12.164062 30.511719 12.457031 C 30.511719 12.886719 30.457031 13.320312 30.457031 13.75 C 30.449219 14.683594 30.457031 15.621094 30.46875 16.550781 C 30.488281 17.871094 30.527344 19.191406 30.542969 20.511719 C 30.554688 21.285156 30.597656 22.066406 30.527344 22.835938 C 30.425781 23.90625 30.457031 24.972656 30.503906 26.042969 C 30.511719 26.3125 30.574219 26.578125 30.617188 26.863281 C 31.070312 26.898438 31.492188 26.917969 31.910156 26.957031 C 32.5 27.015625 33.074219 26.890625 33.65625 26.828125 C 34.59375 26.726562 35.53125 26.636719 36.46875 26.535156 C 36.597656 26.519531 36.71875 26.457031 36.859375 26.410156 C 36.859375 26.164062 36.859375 25.941406 36.859375 25.714844 C 36.859375 25.214844 36.835938 24.710938 36.859375 24.214844 C 36.921875 22.851562 37.007812 21.488281 37.078125 20.125 C 37.105469 19.554688 37.101562 18.984375 37.128906 18.417969 C 37.191406 17.191406 37.277344 15.964844 37.324219 14.734375 C 37.367188 13.644531 37.375 12.550781 37.394531 11.457031 C 37.394531 11.328125 37.367188 11.195312 37.355469 11.050781 C 37.050781 10.960938 36.757812 10.957031 36.46875 10.945312 C 35.523438 10.90625 34.585938 11.050781 33.648438 11.148438 C 32.664062 11.25 31.691406 11.429688 30.699219 11.394531 C 30.542969 11.386719 30.386719 11.429688 30.230469 11.449219 C 30.367188 11.148438 30.59375 10.992188 30.917969 11 C 31.640625 11.023438 32.351562 10.941406 33.066406 10.84375 C 33.691406 10.753906 34.324219 10.753906 34.945312 10.652344 C 35.683594 10.53125 36.425781 10.570312 37.164062 10.570312 C 37.617188 10.566406 37.753906 10.71875 37.785156 11.1875 C 37.792969 11.300781 37.792969 11.414062 37.789062 11.527344 C 37.757812 12.9375 37.734375 14.347656 37.691406 15.757812 C 37.667969 16.417969 37.59375 17.074219 37.5625 17.734375 C 37.472656 19.640625 37.390625 21.550781 37.300781 23.464844 C 37.289062 23.707031 37.273438 23.949219 37.257812 24.234375 C 37.898438 24.261719 38.476562 24.140625 39.109375 24.050781 C 39.117188 23.515625 39.125 23.019531 39.128906 22.523438 C 39.132812 21.25 39.117188 19.972656 39.171875 18.699219 C 39.261719 16.585938 39.398438 14.472656 39.402344 12.351562 C 39.402344 12.191406 39.417969 12.035156 39.425781 11.875 C 39.457031 11.398438 39.496094 10.921875 39.511719 10.445312 C 39.535156 9.921875 39.503906 9.394531 39.542969 8.875 C 39.6875 7.054688 39.660156 5.234375 39.625 3.410156 C 39.621094 3.164062 39.628906 2.914062 39.457031 2.671875 C 39.152344 2.65625 38.835938 2.613281 38.523438 2.625 C 37.828125 2.652344 37.132812 2.730469 36.441406 2.742188 C 35.136719 2.761719 33.835938 2.800781 32.53125 2.863281 C 30.691406 2.957031 28.847656 2.921875 27.007812 2.941406 C 26.804688 2.945312 26.605469 2.953125 26.402344 2.960938 C 25.59375 2.988281 24.785156 3.035156 23.976562 3.039062 C 22.875 3.046875 21.773438 3.011719 20.671875 3.023438 C 18.761719 3.042969 16.851562 3.125 14.941406 2.996094 C 13.933594 2.925781 12.921875 2.878906 11.910156 2.921875 C 10.523438 2.980469 9.128906 2.996094 7.742188 3.132812 C 6.914062 3.214844 6.085938 3.269531 5.257812 3.34375 C 5.058594 3.363281 4.855469 3.402344 4.660156 3.457031 C 4.050781 3.628906 3.4375 3.738281 2.804688 3.726562 C 2.527344 3.722656 2.269531 3.757812 2.035156 3.957031 C 2.023438 4.007812 1.996094 4.074219 1.992188 4.136719 C 1.945312 5.457031 1.90625 6.777344 1.847656 8.09375 C 1.808594 9.050781 1.777344 10.007812 1.679688 10.957031 C 1.535156 12.386719 1.480469 13.816406 1.453125 15.25 C 1.421875 16.820312 1.394531 18.386719 1.226562 19.953125 C 1.144531 20.742188 1.160156 21.542969 1.160156 22.339844 C 1.160156 23.65625 1.367188 24.972656 1.28125 26.292969 C 1.273438 26.398438 1.316406 26.507812 1.335938 26.617188 C 1.636719 26.710938 1.902344 26.671875 2.167969 26.648438 C 2.4375 26.621094 2.703125 26.574219 2.972656 26.570312 C 4.1875 26.554688 5.390625 26.390625 6.597656 26.253906 C 6.976562 26.210938 7.355469 26.179688 7.738281 26.152344 C 8.722656 26.085938 9.710938 26.128906 10.699219 26.058594 C 12.042969 25.960938 13.390625 25.992188 14.738281 25.867188 C 16.078125 25.738281 17.429688 25.785156 18.769531 25.617188 C 19.570312 25.519531 20.386719 25.53125 21.191406 25.464844 C 22.398438 25.367188 23.605469 25.246094 24.8125 25.128906 C 25.929688 25.015625 27.046875 24.890625 28.160156 24.78125 C 28.78125 24.71875 29.40625 24.6875 30.042969 24.589844 C 30.089844 23.96875 30.167969 23.382812 30.175781 22.800781 C 30.191406 21.386719 30.183594 19.976562 30.175781 18.5625 C 30.167969 17.542969 30.207031 16.519531 30.09375 15.496094 C 30.074219 15.296875 30.101562 15.085938 30.082031 14.882812 C 29.984375 13.769531 30.261719 12.660156 30.105469 11.550781 C 30.101562 11.519531 30.1875 11.476562 30.234375 11.441406 Z M 41.351562 0.640625 C 40.753906 0.328125 40.183594 0.457031 39.632812 0.5 C 38.285156 0.613281 36.9375 0.636719 35.589844 0.601562 C 34.757812 0.578125 33.929688 0.496094 33.097656 0.484375 C 30.828125 0.460938 28.554688 0.445312 26.285156 0.453125 C 25.117188 0.457031 23.949219 0.535156 22.78125 0.558594 C 21.410156 0.589844 20.042969 0.59375 18.671875 0.617188 C 17.929688 0.632812 17.191406 0.589844 16.457031 0.480469 C 15.761719 0.375 15.066406 0.359375 14.371094 0.464844 C 13.820312 0.546875 13.273438 0.683594 12.722656 0.796875 C 11.777344 0.992188 10.84375 1.222656 9.867188 1.246094 C 8.632812 1.277344 7.398438 1.328125 6.171875 1.507812 C 5.148438 1.660156 4.117188 1.726562 3.082031 1.6875 C 2.519531 1.667969 1.957031 1.65625 1.394531 1.652344 C 1.246094 1.648438 1.09375 1.683594 0.949219 1.703125 C 0.769531 2.335938 0.777344 2.933594 0.90625 3.515625 C 1.234375 3.492188 1.519531 3.46875 1.804688 3.457031 C 2.660156 3.417969 3.511719 3.410156 4.34375 3.171875 C 4.972656 2.996094 5.625 2.953125 6.273438 2.90625 C 6.429688 2.894531 6.589844 2.890625 6.746094 2.878906 C 7.683594 2.800781 8.621094 2.710938 9.5625 2.640625 C 10.078125 2.605469 10.59375 2.601562 11.113281 2.585938 C 11.851562 2.566406 12.589844 2.507812 13.328125 2.53125 C 14.363281 2.5625 15.390625 2.65625 16.421875 2.714844 C 16.691406 2.730469 16.960938 2.734375 17.230469 2.726562 C 18.421875 2.699219 19.613281 2.652344 20.804688 2.636719 C 22.601562 2.613281 24.398438 2.609375 26.199219 2.59375 C 27.050781 2.589844 27.90625 2.585938 28.757812 2.570312 C 29.546875 2.554688 30.332031 2.527344 31.117188 2.5 C 31.679688 2.484375 32.238281 2.457031 32.800781 2.433594 C 33.652344 2.402344 34.503906 2.339844 35.359375 2.34375 C 36.148438 2.347656 36.929688 2.339844 37.714844 2.257812 C 38.335938 2.191406 38.964844 2.183594 39.59375 2.292969 C 39.960938 2.355469 40.351562 2.308594 40.734375 2.292969 C 40.921875 2.28125 41.078125 2.191406 41.144531 1.992188 C 41.292969 1.5625 41.410156 1.128906 41.351562 0.644531 Z M 41.351562 0.640625 " fill-opacity="1" fill-rule="nonzero"/></g><path fill="#000000" d="M 1.089844 5.96875 C 1.171875 5.886719 1.257812 5.828125 1.355469 5.945312 C 1.363281 5.953125 1.355469 5.980469 1.347656 5.992188 C 1.253906 6.085938 1.167969 6.078125 1.089844 5.96875 Z M 1.089844 5.96875 " fill-opacity="1" fill-rule="nonzero"/><path fill="#000000" d="M 37.988281 3.617188 C 38.082031 4.070312 38.019531 4.453125 37.972656 4.832031 C 37.878906 5.597656 37.738281 6.359375 37.777344 7.136719 C 37.78125 7.226562 37.765625 7.320312 37.75 7.410156 C 37.71875 7.585938 37.613281 7.695312 37.4375 7.71875 C 36.742188 7.796875 36.054688 7.886719 35.359375 7.945312 C 34.621094 8.003906 33.878906 8.035156 33.136719 8.058594 C 32.328125 8.085938 31.519531 8.074219 30.710938 8.113281 C 29.589844 8.171875 28.46875 8.269531 27.347656 8.339844 C 26.945312 8.367188 26.539062 8.386719 26.136719 8.378906 C 25.214844 8.359375 24.296875 8.394531 23.375 8.460938 C 22.191406 8.542969 21.003906 8.65625 19.808594 8.648438 C 18.914062 8.644531 18.015625 8.757812 17.121094 8.820312 C 16.46875 8.863281 15.820312 8.910156 15.171875 8.957031 C 14.25 9.019531 13.335938 9.097656 12.414062 9.132812 C 11.746094 9.15625 11.074219 9.105469 10.402344 9.109375 C 9.347656 9.117188 8.296875 9.140625 7.242188 9.15625 C 6.839844 9.160156 6.433594 9.175781 6.027344 9.175781 C 5.109375 9.179688 4.191406 9.257812 3.28125 9.40625 C 3.195312 9.421875 3.101562 9.421875 3.015625 9.40625 C 2.824219 9.375 2.691406 9.230469 2.679688 9.039062 C 2.667969 8.925781 2.675781 8.808594 2.679688 8.695312 C 2.703125 7.96875 2.734375 7.242188 2.757812 6.515625 C 2.769531 6.125 2.773438 5.742188 2.78125 5.351562 C 2.785156 5.214844 2.769531 5.078125 2.785156 4.945312 C 2.820312 4.660156 2.933594 4.542969 3.222656 4.527344 C 4.03125 4.484375 4.839844 4.464844 5.648438 4.425781 C 6.25 4.394531 6.855469 4.34375 7.460938 4.316406 C 8.269531 4.277344 9.074219 4.238281 9.886719 4.226562 C 10.800781 4.214844 11.714844 4.167969 12.628906 4.082031 C 13.613281 3.988281 14.597656 3.953125 15.585938 4.066406 C 15.988281 4.113281 16.394531 4.121094 16.800781 4.121094 C 18.371094 4.132812 19.945312 4.183594 21.515625 4.03125 C 21.738281 4.011719 21.964844 4.015625 22.191406 4.011719 C 23.582031 3.980469 24.972656 3.855469 26.359375 3.765625 C 27.050781 3.71875 27.75 3.777344 28.445312 3.789062 C 28.535156 3.789062 28.621094 3.8125 28.710938 3.8125 C 30.445312 3.820312 32.175781 3.859375 33.90625 3.832031 C 34.960938 3.8125 36.011719 3.6875 37.0625 3.617188 C 37.351562 3.601562 37.644531 3.617188 37.988281 3.617188 Z M 3.851562 8.472656 C 4.222656 8.539062 4.535156 8.527344 4.84375 8.503906 C 5.984375 8.410156 7.125 8.300781 8.265625 8.195312 C 8.957031 8.128906 9.648438 8.027344 10.34375 7.992188 C 11.058594 7.960938 11.777344 7.988281 12.492188 8 C 13.074219 8.007812 13.65625 8.054688 14.234375 8.042969 C 15.109375 8.03125 15.988281 7.992188 16.859375 7.949219 C 18.8125 7.855469 20.765625 7.761719 22.71875 7.652344 C 23.859375 7.585938 24.996094 7.417969 26.140625 7.394531 C 26.34375 7.390625 26.542969 7.355469 26.746094 7.335938 C 27.550781 7.269531 28.355469 7.191406 29.160156 7.144531 C 30.167969 7.085938 31.175781 7.054688 32.1875 7.007812 C 32.320312 7.003906 32.453125 6.980469 32.589844 6.96875 C 32.921875 6.9375 33.257812 6.882812 33.59375 6.878906 C 34.535156 6.859375 35.480469 6.859375 36.425781 6.84375 C 36.550781 6.84375 36.671875 6.792969 36.808594 6.765625 C 36.898438 6.105469 36.925781 5.480469 36.890625 4.84375 C 36.566406 4.789062 36.277344 4.753906 36 4.6875 C 35.625 4.59375 35.25 4.539062 34.863281 4.550781 C 34.371094 4.566406 33.875 4.566406 33.382812 4.59375 C 32.171875 4.664062 30.964844 4.765625 29.753906 4.816406 C 28.203125 4.875 26.652344 4.898438 25.101562 4.929688 C 23.6875 4.957031 22.269531 4.988281 20.855469 4.988281 C 19.550781 4.992188 18.246094 4.949219 16.945312 4.945312 C 15.640625 4.9375 14.335938 4.960938 13.03125 4.964844 C 12.132812 4.964844 11.238281 5.070312 10.339844 4.996094 C 10.253906 4.992188 10.160156 5.003906 10.070312 5.007812 C 8.707031 5.101562 7.339844 5.171875 5.976562 5.296875 C 5.289062 5.359375 4.582031 5.289062 3.882812 5.5625 C 3.816406 6.5 3.902344 7.453125 3.851562 8.476562 Z M 3.851562 8.472656 " fill-opacity="1" fill-rule="nonzero"/><path fill="#000000" d="M 2.746094 12.300781 C 2.46875 12.25 2.257812 12.207031 2.066406 12.171875 C 1.984375 11.941406 2.09375 11.8125 2.222656 11.722656 C 2.765625 11.355469 3.308594 11.003906 3.992188 10.953125 C 4.820312 10.894531 5.648438 10.800781 6.472656 10.726562 C 7.90625 10.601562 9.335938 10.476562 10.769531 10.351562 C 11.507812 10.289062 12.25 10.226562 12.984375 10.160156 C 13.5 10.117188 14.015625 10.046875 14.527344 10.019531 C 16.144531 9.949219 17.765625 9.90625 19.378906 9.832031 C 20.570312 9.777344 21.757812 9.691406 22.945312 9.621094 C 23.886719 9.566406 24.832031 9.476562 25.773438 9.46875 C 26.535156 9.464844 27.296875 9.550781 28.058594 9.625 C 28.589844 9.671875 29.015625 9.988281 29.449219 10.273438 C 29.503906 10.308594 29.527344 10.429688 29.523438 10.507812 C 29.523438 10.558594 29.453125 10.640625 29.402344 10.648438 C 29.183594 10.691406 28.957031 10.738281 28.738281 10.726562 C 28.152344 10.703125 27.574219 10.636719 26.988281 10.617188 C 26.269531 10.589844 25.550781 10.578125 24.832031 10.589844 C 24.25 10.601562 23.667969 10.652344 23.085938 10.683594 C 22.929688 10.695312 22.769531 10.714844 22.613281 10.707031 C 21.597656 10.636719 20.597656 10.800781 19.59375 10.925781 C 18.921875 11.011719 18.25 11.054688 17.578125 11.117188 C 17.265625 11.148438 16.957031 11.191406 16.664062 11.226562 C 16.453125 12.363281 16.320312 22.21875 16.5 23.375 C 16.59375 23.386719 16.699219 23.417969 16.804688 23.414062 C 18.152344 23.390625 19.496094 23.300781 20.839844 23.167969 C 21.910156 23.0625 22.984375 22.96875 24.066406 23.074219 C 24.53125 23.117188 25.007812 23.039062 25.476562 22.988281 C 26.390625 22.890625 27.304688 22.773438 28.265625 22.660156 C 28.28125 22.582031 28.308594 22.457031 28.328125 22.324219 C 28.34375 22.214844 28.351562 22.097656 28.351562 21.984375 C 28.382812 20.710938 28.441406 19.433594 28.433594 18.160156 C 28.425781 16.859375 28.523438 15.566406 28.601562 14.269531 C 28.636719 13.699219 28.671875 13.132812 28.683594 12.566406 C 28.6875 12.203125 28.644531 11.839844 28.625 11.476562 C 28.617188 11.316406 28.59375 11.15625 28.613281 11 C 28.636719 10.835938 28.746094 10.773438 28.929688 10.859375 C 29.019531 11.15625 29.015625 11.472656 29.015625 11.789062 C 29.007812 13.109375 29.003906 14.429688 28.871094 15.746094 C 28.816406 16.3125 28.84375 16.886719 28.832031 17.453125 C 28.808594 18.34375 28.777344 19.230469 28.761719 20.117188 C 28.746094 20.914062 28.742188 21.710938 28.746094 22.507812 C 28.746094 22.660156 28.808594 22.816406 28.863281 22.960938 C 28.933594 23.148438 29.027344 23.324219 29.121094 23.527344 C 28.867188 23.757812 28.582031 23.796875 28.292969 23.8125 C 27.304688 23.863281 26.320312 23.894531 25.332031 23.957031 C 24.210938 24.027344 23.089844 24.125 21.96875 24.199219 C 21.097656 24.261719 20.222656 24.296875 19.347656 24.363281 C 18.566406 24.421875 17.785156 24.511719 17 24.585938 C 16.820312 24.605469 16.640625 24.625 16.460938 24.628906 C 15.496094 24.652344 14.535156 24.71875 13.578125 24.871094 C 12.976562 24.964844 12.371094 24.984375 11.765625 25.050781 C 10.605469 25.171875 9.445312 25.3125 8.285156 25.429688 C 7.65625 25.492188 7.03125 25.539062 6.402344 25.570312 C 4.964844 25.644531 3.527344 25.710938 2.089844 25.773438 C 1.917969 25.78125 1.71875 25.816406 1.632812 25.535156 C 1.777344 25.300781 2.015625 25.128906 2.242188 24.949219 C 2.511719 24.738281 2.628906 24.472656 2.644531 24.128906 C 2.703125 22.992188 2.804688 21.855469 2.761719 20.714844 C 2.699219 19.121094 2.773438 17.53125 2.882812 15.945312 C 2.921875 15.402344 2.882812 14.855469 2.859375 14.308594 C 2.832031 13.652344 2.785156 12.996094 2.742188 12.296875 Z M 15.128906 11.269531 C 14.832031 11.269531 14.542969 11.246094 14.253906 11.265625 C 13.113281 11.332031 11.972656 11.4375 10.828125 11.476562 C 8.941406 11.542969 7.058594 11.671875 5.1875 11.941406 C 4.527344 12.035156 3.863281 12.136719 3.214844 12.234375 C 3.0625 12.667969 3.144531 13.078125 3.160156 13.484375 C 3.210938 14.917969 3.234375 16.351562 3.121094 17.78125 C 3.058594 18.558594 3.03125 19.332031 3.085938 20.101562 C 3.144531 20.964844 3.144531 21.824219 3.066406 22.6875 C 3.03125 23.09375 3.019531 23.503906 3.007812 23.914062 C 2.992188 24.34375 3.097656 24.445312 3.507812 24.394531 C 4.511719 24.273438 5.511719 24.136719 6.515625 24.027344 C 7.054688 23.964844 7.59375 23.949219 8.128906 23.902344 C 8.824219 23.847656 9.515625 23.730469 10.210938 23.734375 C 11.714844 23.742188 13.21875 23.671875 14.71875 23.535156 C 14.867188 23.523438 15.015625 23.484375 15.203125 23.453125 C 15.203125 23.195312 15.207031 22.96875 15.203125 22.742188 C 15.179688 20.375 15.25 18.011719 15.332031 15.644531 C 15.367188 14.621094 15.359375 13.59375 15.351562 12.570312 C 15.351562 12.140625 15.316406 11.710938 15.121094 11.269531 Z M 2.378906 25.359375 C 2.621094 25.359375 2.75 25.359375 2.878906 25.359375 C 4.046875 25.371094 5.210938 25.304688 6.375 25.203125 C 6.691406 25.175781 7.003906 25.179688 7.320312 25.152344 C 8.636719 25.027344 9.957031 24.894531 11.273438 24.761719 C 12.078125 24.683594 12.882812 24.601562 13.683594 24.515625 C 14.042969 24.476562 14.398438 24.398438 14.753906 24.390625 C 15.8125 24.371094 16.859375 24.25 17.910156 24.144531 C 19.519531 23.984375 21.136719 23.902344 22.75 23.785156 C 23.445312 23.738281 24.140625 23.695312 24.835938 23.648438 C 25.976562 23.574219 27.117188 23.496094 28.261719 23.417969 C 28.359375 23.410156 28.484375 23.445312 28.546875 23.273438 C 28.492188 23.175781 28.394531 23.132812 28.28125 23.136719 C 27.765625 23.148438 27.242188 23.132812 26.734375 23.195312 C 25.527344 23.351562 24.328125 23.46875 23.109375 23.4375 C 22.414062 23.417969 21.71875 23.476562 21.023438 23.519531 C 20.574219 23.546875 20.128906 23.625 19.679688 23.648438 C 18.3125 23.71875 16.941406 23.769531 15.574219 23.832031 C 15.328125 23.84375 15.078125 23.863281 14.832031 23.886719 C 13.648438 23.988281 12.464844 24.121094 11.269531 24.09375 C 10.574219 24.074219 9.875 24.121094 9.179688 24.167969 C 8.441406 24.214844 7.707031 24.324219 6.964844 24.347656 C 5.769531 24.390625 4.605469 24.648438 3.425781 24.792969 C 3.070312 24.835938 2.722656 24.949219 2.375 25.359375 Z M 28.554688 10.257812 C 28.320312 10.128906 28.199219 10.066406 28.074219 10.054688 C 27.203125 9.96875 26.335938 9.804688 25.453125 9.871094 C 24.175781 9.964844 22.898438 10.0625 21.621094 10.132812 C 20.34375 10.199219 19.0625 10.222656 17.78125 10.273438 C 16.546875 10.324219 15.3125 10.367188 14.078125 10.449219 C 13.003906 10.519531 11.929688 10.636719 10.855469 10.738281 C 10.339844 10.785156 9.828125 10.851562 9.3125 10.898438 C 8.554688 10.96875 7.792969 11.027344 7.03125 11.09375 C 5.957031 11.1875 4.882812 11.273438 3.808594 11.382812 C 3.339844 11.429688 3.296875 11.46875 2.953125 11.792969 C 2.988281 11.804688 3.03125 11.835938 3.066406 11.832031 C 3.578125 11.773438 4.09375 11.71875 4.601562 11.648438 C 5.9375 11.46875 7.277344 11.292969 8.625 11.222656 C 9.09375 11.199219 9.5625 11.164062 10.03125 11.132812 C 10.902344 11.074219 11.777344 11.007812 12.652344 10.960938 C 13.527344 10.914062 14.402344 10.871094 15.277344 10.855469 C 16.652344 10.832031 18.011719 10.652344 19.375 10.546875 C 19.621094 10.527344 19.867188 10.476562 20.109375 10.457031 C 20.828125 10.394531 21.542969 10.335938 22.261719 10.296875 C 22.953125 10.253906 23.652344 10.238281 24.347656 10.210938 C 25.289062 10.175781 26.230469 10.136719 27.171875 10.242188 C 27.582031 10.285156 27.996094 10.328125 28.554688 10.257812 Z M 15.988281 23.375 C 16.125 19.359375 16.039062 15.320312 16.222656 11.292969 C 16 11.199219 15.8125 11.191406 15.605469 11.335938 C 15.652344 11.625 15.742188 11.910156 15.742188 12.199219 C 15.753906 13.222656 15.742188 14.246094 15.71875 15.269531 C 15.703125 16.132812 15.652344 16.996094 15.632812 17.859375 C 15.601562 19.132812 15.578125 20.402344 15.570312 21.675781 C 15.566406 22.175781 15.59375 22.675781 15.625 23.175781 C 15.636719 23.367188 15.746094 23.460938 15.988281 23.375 Z M 15.988281 23.375 " fill-opacity="1" fill-rule="nonzero"/><path fill="#000000" d="M 21.953125 14.410156 C 21.421875 14.355469 20.8125 14.320312 20.21875 14.207031 C 19.875 14.140625 19.53125 13.988281 19.226562 13.808594 C 18.71875 13.507812 18.632812 13.125 18.875 12.59375 C 19.003906 12.316406 19.1875 12.085938 19.441406 11.929688 C 19.765625 11.730469 20.09375 11.488281 20.449219 11.402344 C 21.609375 11.121094 22.777344 10.898438 23.980469 11.164062 C 24.441406 11.265625 24.90625 11.339844 25.328125 11.5625 C 25.59375 11.703125 25.816406 11.886719 25.964844 12.152344 C 26.128906 12.4375 26.136719 12.730469 25.949219 12.988281 C 25.792969 13.203125 25.597656 13.402344 25.382812 13.5625 C 24.886719 13.933594 24.308594 14.136719 23.703125 14.226562 C 23.152344 14.3125 22.589844 14.347656 21.953125 14.410156 Z M 20.449219 11.867188 C 19.878906 11.914062 19.519531 12.269531 19.234375 12.726562 C 19.054688 13.019531 19.109375 13.332031 19.402344 13.496094 C 19.671875 13.648438 19.972656 13.769531 20.273438 13.835938 C 21.476562 14.109375 22.6875 14.050781 23.890625 13.828125 C 24.378906 13.738281 24.828125 13.519531 25.234375 13.226562 C 25.457031 13.0625 25.652344 12.878906 25.707031 12.570312 C 25.570312 12.167969 25.332031 11.867188 24.84375 11.800781 C 24.84375 11.945312 24.832031 12.078125 24.847656 12.203125 C 24.878906 12.429688 24.945312 12.648438 24.972656 12.871094 C 25.007812 13.148438 24.800781 13.296875 24.550781 13.171875 C 24.429688 13.109375 24.359375 13.03125 24.203125 13.136719 C 24.050781 13.238281 23.839844 13.171875 23.660156 13.316406 C 23.484375 13.464844 23.214844 13.515625 22.976562 13.566406 C 22.675781 13.625 22.488281 13.429688 22.558594 13.132812 C 22.605469 12.917969 22.683594 12.710938 22.59375 12.496094 C 22.3125 12.703125 22.046875 12.902344 21.753906 13.121094 C 21.710938 13.253906 21.667969 13.429688 21.597656 13.59375 C 21.582031 13.632812 21.492188 13.65625 21.429688 13.660156 C 21.398438 13.664062 21.347656 13.625 21.332031 13.589844 C 21.300781 13.53125 21.277344 13.464844 21.273438 13.398438 C 21.253906 12.96875 21.238281 12.542969 21.222656 12.089844 C 21.460938 11.949219 21.707031 11.835938 21.976562 11.832031 C 22.1875 11.828125 22.445312 11.976562 22.605469 11.898438 C 22.828125 11.792969 23.039062 11.820312 23.253906 11.789062 C 23.296875 11.78125 23.351562 11.785156 23.382812 11.808594 C 23.4375 11.84375 23.5 11.898438 23.507812 11.949219 C 23.515625 12.003906 23.472656 12.089844 23.425781 12.117188 C 23.355469 12.164062 23.25 12.152344 23.179688 12.199219 C 23.121094 12.238281 23.09375 12.324219 23.042969 12.410156 C 23.261719 12.453125 23.429688 12.484375 23.585938 12.515625 C 23.636719 12.765625 23.527344 12.832031 23.339844 12.855469 C 23.242188 12.867188 23.101562 12.863281 23.175781 13.085938 C 23.269531 13.066406 23.371094 13.039062 23.476562 13.023438 C 23.597656 13.003906 23.726562 12.988281 23.875 12.96875 L 23.875 12.015625 C 24.148438 11.828125 24.238281 12.019531 24.355469 12.238281 C 24.398438 12.019531 24.429688 11.851562 24.464844 11.652344 C 24.332031 11.609375 24.207031 11.550781 24.078125 11.527344 C 22.910156 11.324219 21.753906 11.433594 20.605469 11.691406 C 20.539062 11.707031 20.492188 11.808594 20.433594 11.871094 L 20.449219 11.863281 Z M 22.117188 12.328125 C 22.050781 12.269531 22.023438 12.222656 21.992188 12.21875 C 21.863281 12.207031 21.730469 12.339844 21.742188 12.460938 C 21.746094 12.492188 21.8125 12.546875 21.820312 12.542969 C 21.917969 12.480469 22.015625 12.40625 22.117188 12.328125 Z M 22.117188 12.328125 " fill-opacity="1" fill-rule="nonzero"/><path fill="#000000" d="M 18.503906 22.8125 C 18.957031 22.605469 19.363281 22.671875 19.757812 22.648438 C 21.257812 22.5625 22.753906 22.476562 24.253906 22.402344 C 24.609375 22.386719 24.96875 22.417969 25.324219 22.445312 C 25.386719 22.449219 25.464844 22.550781 25.484375 22.625 C 25.515625 22.71875 25.375 22.839844 25.261719 22.816406 C 24.410156 22.640625 23.5625 22.832031 22.714844 22.863281 C 21.550781 22.910156 20.390625 23.042969 19.222656 23 C 19.046875 22.992188 18.863281 22.996094 18.6875 22.976562 C 18.636719 22.96875 18.589844 22.894531 18.5 22.816406 Z M 18.503906 22.8125 " fill-opacity="1" fill-rule="nonzero"/><path fill="#000000" d="M 31.570312 12.164062 C 31.738281 11.933594 31.949219 11.9375 32.148438 11.945312 C 33.277344 11.984375 34.386719 11.789062 35.503906 11.6875 C 35.84375 11.65625 36.179688 11.578125 36.492188 11.875 C 36.59375 12.097656 36.542969 12.371094 36.535156 12.640625 C 36.507812 13.550781 36.46875 14.460938 36.441406 15.367188 C 36.4375 15.570312 36.46875 15.777344 36.480469 15.980469 C 36.492188 16.210938 36.410156 16.320312 36.175781 16.335938 C 35.144531 16.386719 34.121094 16.59375 33.085938 16.574219 C 32.707031 16.5625 32.328125 16.574219 31.910156 16.574219 C 31.886719 16.445312 31.847656 16.324219 31.839844 16.199219 C 31.78125 15.085938 31.726562 13.972656 31.664062 12.859375 C 31.652344 12.636719 31.605469 12.410156 31.570312 12.164062 Z M 35.957031 15.96875 C 36 15.847656 36.039062 15.78125 36.042969 15.71875 C 36.082031 14.582031 36.117188 13.445312 36.148438 12.308594 C 36.152344 12.226562 36.097656 12.144531 36.0625 12.046875 C 34.8125 12.148438 33.582031 12.25 32.351562 12.355469 C 32.289062 12.359375 32.222656 12.378906 32.160156 12.398438 C 32.140625 12.402344 32.121094 12.425781 32.105469 12.4375 C 32.039062 13.164062 32.171875 15.734375 32.292969 16.175781 C 33.519531 16.246094 34.722656 16.113281 35.957031 15.96875 Z M 35.957031 15.96875 " fill-opacity="1" fill-rule="nonzero"/><path fill="#000000" d="M 31.980469 19.554688 C 31.964844 19.28125 31.941406 18.992188 31.933594 18.699219 C 31.929688 18.554688 32.074219 18.394531 32.21875 18.371094 C 32.285156 18.359375 32.359375 18.34375 32.417969 18.363281 C 32.890625 18.519531 33.34375 18.328125 33.808594 18.289062 C 34.140625 18.261719 34.476562 18.238281 34.808594 18.230469 C 34.917969 18.230469 35.027344 18.273438 35.132812 18.308594 C 35.296875 18.363281 35.390625 18.480469 35.394531 18.660156 C 35.398438 18.773438 35.390625 18.886719 35.386719 19 C 35.386719 19.402344 35.316406 19.484375 34.917969 19.457031 C 34.199219 19.410156 33.488281 19.476562 32.785156 19.636719 C 32.523438 19.699219 32.257812 19.75 31.980469 19.554688 Z M 31.980469 19.554688 " fill-opacity="1" fill-rule="nonzero"/><path fill="#000000" d="M 36.558594 17.414062 C 36.554688 17.621094 36.3125 17.800781 36.023438 17.808594 C 35.78125 17.816406 35.605469 17.636719 35.617188 17.390625 C 35.632812 17.0625 35.824219 16.847656 36.09375 16.863281 C 36.355469 16.875 36.566406 17.121094 36.558594 17.410156 Z M 36.558594 17.414062 " fill-opacity="1" fill-rule="nonzero"/><path fill="#000000" d="M 4.945312 23.894531 C 5.015625 23.617188 5.175781 23.59375 5.324219 23.574219 C 5.726562 23.519531 6.128906 23.496094 6.527344 23.421875 C 7.34375 23.273438 8.164062 23.183594 8.996094 23.152344 C 9.984375 23.113281 10.96875 23.042969 11.953125 22.992188 C 12.128906 22.984375 12.304688 23.011719 12.457031 23.019531 C 12.566406 23.230469 12.464844 23.367188 12.328125 23.347656 C 11.765625 23.265625 11.214844 23.390625 10.65625 23.410156 C 9.695312 23.441406 8.730469 23.507812 7.769531 23.574219 C 7.503906 23.589844 7.242188 23.671875 6.972656 23.710938 C 6.394531 23.792969 5.816406 23.867188 5.238281 23.941406 C 5.15625 23.949219 5.066406 23.914062 4.941406 23.894531 Z M 4.945312 23.894531 " fill-opacity="1" fill-rule="nonzero"/><path fill="#000000" d="M 20.429688 11.871094 C 20.46875 11.890625 20.503906 11.921875 20.546875 11.933594 C 20.90625 12.023438 21.023438 12.277344 21.046875 12.628906 C 21.078125 13.035156 20.917969 13.328125 20.597656 13.542969 C 20.414062 13.664062 20.140625 13.59375 19.996094 13.414062 C 19.773438 13.140625 19.722656 12.777344 19.921875 12.472656 C 20.066406 12.25 20.269531 12.070312 20.445312 11.867188 C 20.445312 11.867188 20.429688 11.875 20.429688 11.875 Z M 20.578125 12.695312 C 20.542969 12.621094 20.53125 12.566406 20.503906 12.554688 C 20.425781 12.515625 20.320312 12.628906 20.308594 12.773438 C 20.304688 12.804688 20.34375 12.839844 20.363281 12.875 C 20.4375 12.8125 20.511719 12.75 20.578125 12.695312 Z M 20.578125 12.695312 " fill-opacity="1" fill-rule="nonzero"/></svg>