<svg xmlns="http://www.w3.org/2000/svg" xmlns:xlink="http://www.w3.org/1999/xlink" width="62" zoomAndPan="magnify" viewBox="0 0 46.5 46.5" height="62" preserveAspectRatio="xMidYMid meet" version="1.0"><defs><clipPath id="dc4de3bbba"><path d="M 1.703125 8.246094 L 44 8.246094 L 44 37.929688 L 1.703125 37.929688 Z M 1.703125 8.246094 " clip-rule="nonzero"/></clipPath></defs><g clip-path="url(#dc4de3bbba)"><path fill="#000000" d="M 43.839844 8.457031 C 43.882812 8.683594 43.941406 8.878906 43.957031 9.082031 C 43.992188 9.578125 43.824219 10.046875 43.695312 10.515625 C 43.625 10.765625 43.425781 10.878906 43.179688 10.917969 C 42.839844 10.96875 42.503906 11.027344 42.125 11.085938 C 42.140625 11.796875 42.179688 12.488281 42.171875 13.179688 C 42.152344 14.457031 42.109375 15.738281 42.078125 17.015625 C 42.070312 17.226562 42.0625 17.433594 42.058594 17.644531 C 42.035156 18.550781 42.058594 19.457031 41.949219 20.363281 C 41.871094 21.035156 41.855469 21.710938 41.859375 22.386719 C 41.863281 23.644531 41.78125 24.898438 41.667969 26.152344 C 41.640625 26.429688 41.640625 26.707031 41.636719 26.988281 C 41.617188 28.035156 41.585938 29.082031 41.582031 30.132812 C 41.578125 31.039062 41.605469 31.945312 41.613281 32.855469 C 41.617188 33.132812 41.597656 33.414062 41.582031 33.691406 C 41.550781 34.199219 41.480469 34.707031 41.636719 35.214844 C 41.707031 35.449219 41.609375 35.671875 41.28125 35.660156 C 40.914062 35.644531 40.542969 35.667969 40.175781 35.648438 C 39.414062 35.609375 38.671875 35.785156 37.921875 35.851562 C 37.117188 35.921875 36.316406 35.976562 35.523438 36.097656 C 34.492188 36.25 33.457031 36.175781 32.433594 36.128906 C 31.261719 36.078125 30.09375 36.085938 28.921875 36.117188 C 27.566406 36.152344 26.210938 36.199219 24.859375 36.269531 C 24.171875 36.308594 23.488281 36.410156 22.800781 36.472656 C 22.527344 36.496094 22.25 36.488281 21.976562 36.507812 C 20.304688 36.613281 18.628906 36.714844 16.957031 36.832031 C 15.972656 36.898438 14.988281 36.984375 14.007812 37.082031 C 12.359375 37.242188 10.710938 37.335938 9.058594 37.410156 C 8.324219 37.445312 7.597656 37.535156 6.863281 37.605469 C 6.796875 37.609375 6.726562 37.621094 6.660156 37.621094 C 5.597656 37.617188 4.554688 37.789062 3.503906 37.898438 C 3.296875 37.917969 3.089844 37.941406 2.882812 37.921875 C 2.664062 37.898438 2.449219 37.828125 2.191406 37.769531 C 2.171875 37.011719 2.144531 36.292969 2.132812 35.574219 C 2.125 34.738281 2.144531 33.898438 2.128906 33.0625 C 2.117188 32.597656 2.035156 32.136719 2.035156 31.671875 C 2.035156 30.71875 2.039062 29.765625 2.089844 28.8125 C 2.167969 27.375 2.316406 25.945312 2.304688 24.5 C 2.292969 23.058594 2.375 21.613281 2.457031 20.171875 C 2.550781 18.546875 2.71875 16.925781 2.808594 15.300781 C 2.863281 14.328125 2.839844 13.347656 2.847656 12.371094 C 2.847656 12.324219 2.820312 12.285156 2.800781 12.234375 C 2.625 12.113281 2.464844 12.226562 2.292969 12.277344 C 1.910156 12.390625 1.746094 12.289062 1.742188 11.917969 C 1.734375 11.265625 1.742188 10.613281 1.761719 9.960938 C 1.769531 9.691406 1.882812 9.578125 2.144531 9.558594 C 2.417969 9.535156 2.695312 9.527344 2.96875 9.539062 C 3.632812 9.566406 4.292969 9.636719 4.957031 9.640625 C 5.527344 9.644531 6.101562 9.582031 6.671875 9.535156 C 6.992188 9.507812 7.308594 9.445312 7.628906 9.414062 C 8.269531 9.351562 8.914062 9.3125 9.550781 9.238281 C 10.621094 9.113281 11.710938 9.1875 12.777344 8.972656 C 13.539062 8.816406 14.304688 8.640625 15.066406 8.46875 C 16.039062 8.242188 17.003906 8.183594 18.003906 8.328125 C 19 8.472656 20.007812 8.539062 21.023438 8.472656 C 22.054688 8.402344 23.089844 8.441406 24.125 8.421875 C 24.769531 8.40625 25.410156 8.355469 26.050781 8.339844 C 27.039062 8.316406 28.027344 8.292969 29.015625 8.289062 C 29.890625 8.28125 30.765625 8.292969 31.636719 8.3125 C 33.453125 8.351562 35.265625 8.394531 37.082031 8.441406 C 37.769531 8.460938 38.457031 8.519531 39.144531 8.503906 C 40.316406 8.480469 41.488281 8.433594 42.65625 8.355469 C 43.03125 8.328125 43.382812 8.367188 43.839844 8.460938 Z M 32.140625 19.949219 C 32.210938 19.996094 32.335938 20.03125 32.34375 20.085938 C 32.390625 20.382812 32.429688 20.683594 32.429688 20.980469 C 32.425781 21.421875 32.371094 21.863281 32.367188 22.304688 C 32.363281 23.261719 32.367188 24.214844 32.382812 25.171875 C 32.402344 26.519531 32.441406 27.871094 32.460938 29.21875 C 32.46875 30.011719 32.515625 30.808594 32.441406 31.59375 C 32.339844 32.6875 32.371094 33.777344 32.417969 34.875 C 32.429688 35.148438 32.492188 35.417969 32.535156 35.710938 C 32.996094 35.746094 33.429688 35.769531 33.855469 35.808594 C 34.460938 35.867188 35.046875 35.738281 35.640625 35.671875 C 36.601562 35.570312 37.558594 35.480469 38.515625 35.375 C 38.644531 35.363281 38.773438 35.296875 38.917969 35.246094 C 38.917969 34.996094 38.917969 34.765625 38.917969 34.535156 C 38.914062 34.027344 38.890625 33.511719 38.914062 33.003906 C 38.980469 31.609375 39.066406 30.214844 39.136719 28.820312 C 39.167969 28.238281 39.164062 27.65625 39.191406 27.074219 C 39.253906 25.820312 39.34375 24.570312 39.394531 23.3125 C 39.4375 22.195312 39.441406 21.078125 39.460938 19.960938 C 39.464844 19.828125 39.4375 19.695312 39.421875 19.542969 C 39.109375 19.453125 38.8125 19.449219 38.515625 19.4375 C 37.550781 19.394531 36.589844 19.542969 35.632812 19.644531 C 34.628906 19.75 33.632812 19.933594 32.617188 19.894531 C 32.457031 19.890625 32.296875 19.933594 32.140625 19.953125 C 32.277344 19.648438 32.511719 19.484375 32.84375 19.496094 C 33.582031 19.519531 34.308594 19.433594 35.039062 19.332031 C 35.675781 19.242188 36.324219 19.242188 36.957031 19.140625 C 37.714844 19.015625 38.472656 19.054688 39.230469 19.050781 C 39.691406 19.050781 39.828125 19.207031 39.863281 19.683594 C 39.871094 19.800781 39.867188 19.917969 39.867188 20.035156 C 39.835938 21.476562 39.8125 22.917969 39.765625 24.355469 C 39.742188 25.03125 39.667969 25.703125 39.632812 26.375 C 39.539062 28.328125 39.457031 30.28125 39.367188 32.234375 C 39.355469 32.484375 39.339844 32.730469 39.324219 33.023438 C 39.976562 33.050781 40.570312 32.925781 41.214844 32.835938 C 41.226562 32.289062 41.234375 31.78125 41.234375 31.273438 C 41.238281 29.972656 41.222656 28.667969 41.277344 27.367188 C 41.371094 25.203125 41.511719 23.042969 41.515625 20.875 C 41.515625 20.714844 41.53125 20.550781 41.539062 20.386719 C 41.570312 19.902344 41.613281 19.414062 41.628906 18.925781 C 41.648438 18.390625 41.617188 17.851562 41.660156 17.320312 C 41.804688 15.460938 41.777344 13.597656 41.742188 11.734375 C 41.738281 11.480469 41.746094 11.226562 41.570312 10.980469 C 41.257812 10.960938 40.9375 10.921875 40.617188 10.933594 C 39.90625 10.960938 39.199219 11.039062 38.488281 11.050781 C 37.152344 11.070312 35.824219 11.109375 34.492188 11.175781 C 32.613281 11.269531 30.726562 11.234375 28.84375 11.253906 C 28.636719 11.257812 28.429688 11.269531 28.222656 11.273438 C 27.398438 11.304688 26.570312 11.347656 25.746094 11.355469 C 24.617188 11.363281 23.492188 11.328125 22.367188 11.339844 C 20.414062 11.359375 18.460938 11.441406 16.507812 11.308594 C 15.476562 11.238281 14.441406 11.191406 13.410156 11.234375 C 11.988281 11.292969 10.566406 11.308594 9.148438 11.453125 C 8.304688 11.535156 7.453125 11.589844 6.605469 11.667969 C 6.402344 11.6875 6.199219 11.726562 6 11.78125 C 5.375 11.957031 4.746094 12.070312 4.097656 12.058594 C 3.820312 12.054688 3.550781 12.089844 3.3125 12.292969 C 3.300781 12.347656 3.273438 12.410156 3.269531 12.480469 C 3.21875 13.828125 3.179688 15.175781 3.121094 16.523438 C 3.082031 17.5 3.050781 18.476562 2.949219 19.449219 C 2.800781 20.910156 2.746094 22.371094 2.71875 23.839844 C 2.6875 25.445312 2.65625 27.046875 2.488281 28.644531 C 2.402344 29.453125 2.417969 30.273438 2.417969 31.085938 C 2.417969 32.433594 2.628906 33.777344 2.542969 35.128906 C 2.535156 35.234375 2.578125 35.347656 2.601562 35.460938 C 2.90625 35.554688 3.179688 35.515625 3.449219 35.488281 C 3.726562 35.464844 4 35.414062 4.273438 35.410156 C 5.515625 35.394531 6.746094 35.226562 7.976562 35.085938 C 8.363281 35.042969 8.753906 35.011719 9.144531 34.984375 C 10.152344 34.914062 11.160156 34.960938 12.171875 34.886719 C 13.542969 34.789062 14.925781 34.824219 16.300781 34.691406 C 17.671875 34.558594 19.054688 34.609375 20.421875 34.4375 C 21.242188 34.339844 22.074219 34.347656 22.898438 34.28125 C 24.132812 34.179688 25.367188 34.058594 26.601562 33.9375 C 27.742188 33.824219 28.882812 33.691406 30.023438 33.582031 C 30.65625 33.519531 31.296875 33.488281 31.945312 33.386719 C 31.996094 32.753906 32.074219 32.15625 32.082031 31.554688 C 32.101562 30.113281 32.089844 28.667969 32.082031 27.226562 C 32.074219 26.179688 32.113281 25.136719 32 24.09375 C 31.976562 23.886719 32.007812 23.671875 31.988281 23.464844 C 31.886719 22.324219 32.167969 21.191406 32.011719 20.054688 C 32.007812 20.027344 32.09375 19.980469 32.144531 19.945312 Z M 43.507812 8.902344 C 42.898438 8.585938 42.3125 8.714844 41.75 8.761719 C 40.375 8.875 38.996094 8.902344 37.617188 8.863281 C 36.769531 8.839844 35.921875 8.753906 35.070312 8.746094 C 32.75 8.71875 30.425781 8.703125 28.105469 8.710938 C 26.910156 8.71875 25.71875 8.796875 24.523438 8.820312 C 23.121094 8.851562 21.722656 8.855469 20.320312 8.878906 C 19.5625 8.894531 18.808594 8.851562 18.054688 8.738281 C 17.347656 8.632812 16.632812 8.613281 15.925781 8.722656 C 15.359375 8.808594 14.804688 8.945312 14.242188 9.0625 C 13.273438 9.261719 12.316406 9.5 11.320312 9.523438 C 10.058594 9.550781 8.796875 9.605469 7.542969 9.789062 C 6.496094 9.945312 5.441406 10.011719 4.382812 9.972656 C 3.808594 9.953125 3.234375 9.941406 2.660156 9.9375 C 2.503906 9.933594 2.351562 9.96875 2.203125 9.988281 C 2.019531 10.636719 2.03125 11.246094 2.160156 11.84375 C 2.492188 11.820312 2.785156 11.792969 3.078125 11.78125 C 3.949219 11.742188 4.824219 11.734375 5.671875 11.492188 C 6.316406 11.308594 6.984375 11.269531 7.648438 11.21875 C 7.808594 11.207031 7.96875 11.203125 8.128906 11.191406 C 9.089844 11.109375 10.046875 11.015625 11.007812 10.949219 C 11.535156 10.910156 12.066406 10.90625 12.59375 10.890625 C 13.347656 10.871094 14.105469 10.8125 14.859375 10.835938 C 15.917969 10.867188 16.96875 10.960938 18.023438 11.023438 C 18.296875 11.039062 18.574219 11.042969 18.851562 11.035156 C 20.066406 11.003906 21.285156 10.960938 22.5 10.941406 C 24.339844 10.917969 26.175781 10.914062 28.015625 10.902344 C 28.890625 10.894531 29.761719 10.890625 30.632812 10.875 C 31.4375 10.859375 32.242188 10.832031 33.042969 10.804688 C 33.617188 10.785156 34.191406 10.757812 34.765625 10.734375 C 35.636719 10.703125 36.507812 10.640625 37.382812 10.644531 C 38.1875 10.648438 38.988281 10.636719 39.789062 10.554688 C 40.425781 10.488281 41.066406 10.480469 41.710938 10.589844 C 42.089844 10.65625 42.488281 10.605469 42.878906 10.589844 C 43.070312 10.582031 43.226562 10.488281 43.296875 10.285156 C 43.445312 9.84375 43.570312 9.398438 43.507812 8.90625 Z M 43.507812 8.902344 " fill-opacity="1" fill-rule="nonzero"/></g><path fill="#000000" d="M 2.347656 14.347656 C 2.433594 14.269531 2.519531 14.207031 2.621094 14.324219 C 2.625 14.332031 2.621094 14.363281 2.609375 14.371094 C 2.515625 14.46875 2.425781 14.460938 2.347656 14.347656 Z M 2.347656 14.347656 " fill-opacity="1" fill-rule="nonzero"/><path fill="#000000" d="M 40.070312 11.945312 C 40.167969 12.410156 40.101562 12.800781 40.054688 13.1875 C 39.957031 13.96875 39.8125 14.75 39.851562 15.546875 C 39.855469 15.636719 39.84375 15.730469 39.824219 15.824219 C 39.792969 16.003906 39.683594 16.113281 39.503906 16.136719 C 38.796875 16.21875 38.089844 16.3125 37.382812 16.367188 C 36.625 16.429688 35.867188 16.460938 35.109375 16.488281 C 34.28125 16.515625 33.453125 16.5 32.628906 16.542969 C 31.484375 16.601562 30.339844 16.699219 29.195312 16.773438 C 28.78125 16.800781 28.367188 16.820312 27.953125 16.8125 C 27.011719 16.792969 26.074219 16.828125 25.132812 16.894531 C 23.917969 16.980469 22.707031 17.097656 21.484375 17.089844 C 20.570312 17.085938 19.652344 17.203125 18.734375 17.265625 C 18.070312 17.308594 17.40625 17.359375 16.742188 17.402344 C 15.804688 17.46875 14.863281 17.550781 13.925781 17.585938 C 13.238281 17.609375 12.550781 17.558594 11.867188 17.5625 C 10.789062 17.566406 9.714844 17.59375 8.636719 17.609375 C 8.222656 17.613281 7.8125 17.628906 7.398438 17.628906 C 6.453125 17.632812 5.519531 17.710938 4.589844 17.863281 C 4.5 17.878906 4.402344 17.878906 4.316406 17.863281 C 4.121094 17.832031 3.984375 17.683594 3.972656 17.488281 C 3.960938 17.371094 3.964844 17.253906 3.972656 17.136719 C 4 16.394531 4.027344 15.652344 4.054688 14.90625 C 4.066406 14.511719 4.070312 14.117188 4.078125 13.71875 C 4.082031 13.582031 4.066406 13.441406 4.082031 13.300781 C 4.117188 13.011719 4.230469 12.890625 4.527344 12.875 C 5.351562 12.832031 6.179688 12.8125 7.003906 12.773438 C 7.625 12.742188 8.242188 12.6875 8.859375 12.660156 C 9.6875 12.621094 10.511719 12.582031 11.339844 12.570312 C 12.277344 12.558594 13.210938 12.507812 14.144531 12.421875 C 15.148438 12.324219 16.15625 12.289062 17.167969 12.40625 C 17.578125 12.453125 17.992188 12.460938 18.40625 12.460938 C 20.015625 12.472656 21.625 12.523438 23.230469 12.371094 C 23.457031 12.347656 23.6875 12.355469 23.917969 12.347656 C 25.34375 12.316406 26.761719 12.191406 28.183594 12.097656 C 28.886719 12.050781 29.601562 12.109375 30.3125 12.121094 C 30.40625 12.121094 30.496094 12.144531 30.585938 12.144531 C 32.355469 12.15625 34.128906 12.195312 35.898438 12.164062 C 36.972656 12.148438 38.046875 12.015625 39.125 11.945312 C 39.421875 11.929688 39.714844 11.945312 40.070312 11.945312 Z M 5.171875 16.910156 C 5.546875 16.976562 5.871094 16.96875 6.183594 16.941406 C 7.351562 16.84375 8.515625 16.734375 9.683594 16.625 C 10.390625 16.558594 11.097656 16.453125 11.808594 16.417969 C 12.539062 16.386719 13.273438 16.414062 14.003906 16.425781 C 14.597656 16.4375 15.191406 16.480469 15.785156 16.472656 C 16.679688 16.457031 17.578125 16.417969 18.46875 16.375 C 20.464844 16.277344 22.460938 16.183594 24.457031 16.070312 C 25.625 16.003906 26.785156 15.828125 27.957031 15.808594 C 28.164062 15.804688 28.367188 15.765625 28.574219 15.75 C 29.398438 15.679688 30.222656 15.597656 31.046875 15.550781 C 32.074219 15.492188 33.105469 15.460938 34.136719 15.414062 C 34.277344 15.40625 34.414062 15.386719 34.550781 15.371094 C 34.890625 15.339844 35.234375 15.285156 35.574219 15.277344 C 36.539062 15.257812 37.507812 15.261719 38.472656 15.242188 C 38.597656 15.242188 38.726562 15.191406 38.863281 15.164062 C 38.957031 14.488281 38.984375 13.851562 38.949219 13.203125 C 38.617188 13.144531 38.320312 13.109375 38.035156 13.039062 C 37.652344 12.945312 37.269531 12.886719 36.875 12.898438 C 36.371094 12.917969 35.863281 12.914062 35.359375 12.945312 C 34.125 13.015625 32.886719 13.121094 31.648438 13.171875 C 30.066406 13.230469 28.480469 13.253906 26.898438 13.285156 C 25.449219 13.3125 24 13.34375 22.554688 13.347656 C 21.222656 13.351562 19.886719 13.304688 18.558594 13.300781 C 17.222656 13.296875 15.890625 13.320312 14.554688 13.320312 C 13.636719 13.324219 12.722656 13.429688 11.804688 13.355469 C 11.714844 13.351562 11.621094 13.363281 11.53125 13.367188 C 10.132812 13.464844 8.734375 13.535156 7.34375 13.664062 C 6.640625 13.726562 5.917969 13.652344 5.203125 13.9375 C 5.132812 14.894531 5.222656 15.867188 5.171875 16.914062 Z M 5.171875 16.910156 " fill-opacity="1" fill-rule="nonzero"/><path fill="#000000" d="M 4.039062 20.824219 C 3.757812 20.769531 3.542969 20.730469 3.34375 20.691406 C 3.261719 20.457031 3.371094 20.324219 3.503906 20.234375 C 4.058594 19.859375 4.617188 19.5 5.316406 19.445312 C 6.160156 19.386719 7.003906 19.289062 7.851562 19.214844 C 9.3125 19.085938 10.78125 18.960938 12.246094 18.832031 C 13 18.765625 13.753906 18.703125 14.507812 18.636719 C 15.035156 18.589844 15.558594 18.519531 16.085938 18.492188 C 17.738281 18.417969 19.394531 18.375 21.046875 18.296875 C 22.261719 18.242188 23.476562 18.15625 24.691406 18.085938 C 25.652344 18.027344 26.617188 17.933594 27.582031 17.929688 C 28.359375 17.925781 29.140625 18.011719 29.917969 18.085938 C 30.460938 18.136719 30.898438 18.457031 31.339844 18.75 C 31.394531 18.789062 31.417969 18.910156 31.414062 18.992188 C 31.414062 19.042969 31.34375 19.125 31.292969 19.136719 C 31.066406 19.175781 30.839844 19.222656 30.613281 19.214844 C 30.015625 19.191406 29.421875 19.121094 28.824219 19.101562 C 28.089844 19.074219 27.355469 19.0625 26.621094 19.074219 C 26.023438 19.085938 25.429688 19.136719 24.835938 19.171875 C 24.671875 19.179688 24.511719 19.203125 24.351562 19.191406 C 23.3125 19.125 22.289062 19.292969 21.261719 19.417969 C 20.578125 19.503906 19.890625 19.546875 19.203125 19.613281 C 18.886719 19.644531 18.570312 19.6875 18.269531 19.722656 C 18.054688 20.886719 17.917969 30.960938 18.101562 32.144531 C 18.195312 32.15625 18.304688 32.1875 18.410156 32.183594 C 19.789062 32.160156 21.164062 32.070312 22.539062 31.933594 C 23.632812 31.824219 24.730469 31.726562 25.839844 31.835938 C 26.3125 31.878906 26.800781 31.800781 27.277344 31.75 C 28.214844 31.652344 29.144531 31.53125 30.128906 31.414062 C 30.144531 31.335938 30.175781 31.203125 30.191406 31.070312 C 30.207031 30.957031 30.214844 30.839844 30.21875 30.722656 C 30.25 29.421875 30.308594 28.117188 30.300781 26.8125 C 30.296875 25.484375 30.394531 24.160156 30.472656 22.835938 C 30.507812 22.253906 30.546875 21.675781 30.554688 21.09375 C 30.5625 20.722656 30.515625 20.351562 30.496094 19.980469 C 30.488281 19.816406 30.464844 19.652344 30.488281 19.492188 C 30.507812 19.324219 30.621094 19.261719 30.808594 19.351562 C 30.902344 19.652344 30.894531 19.976562 30.894531 20.300781 C 30.886719 21.648438 30.882812 23 30.75 24.347656 C 30.691406 24.925781 30.722656 25.511719 30.707031 26.09375 C 30.683594 27 30.652344 27.90625 30.636719 28.8125 C 30.621094 29.628906 30.617188 30.445312 30.621094 31.257812 C 30.621094 31.414062 30.6875 31.574219 30.742188 31.71875 C 30.8125 31.910156 30.910156 32.09375 31.003906 32.300781 C 30.746094 32.539062 30.453125 32.574219 30.160156 32.589844 C 29.148438 32.644531 28.140625 32.679688 27.132812 32.742188 C 25.984375 32.8125 24.839844 32.910156 23.695312 32.988281 C 22.800781 33.050781 21.90625 33.085938 21.015625 33.15625 C 20.214844 33.21875 19.414062 33.308594 18.613281 33.382812 C 18.429688 33.402344 18.246094 33.421875 18.0625 33.429688 C 17.074219 33.453125 16.09375 33.519531 15.113281 33.675781 C 14.5 33.773438 13.878906 33.789062 13.261719 33.855469 C 12.074219 33.984375 10.890625 34.125 9.703125 34.246094 C 9.0625 34.3125 8.417969 34.355469 7.777344 34.390625 C 6.308594 34.46875 4.839844 34.53125 3.367188 34.597656 C 3.191406 34.605469 2.988281 34.640625 2.902344 34.355469 C 3.050781 34.113281 3.296875 33.9375 3.523438 33.753906 C 3.800781 33.539062 3.921875 33.269531 3.9375 32.914062 C 4 31.753906 4.097656 30.589844 4.054688 29.425781 C 3.992188 27.796875 4.070312 26.171875 4.179688 24.546875 C 4.21875 23.996094 4.179688 23.433594 4.15625 22.875 C 4.125 22.207031 4.078125 21.535156 4.035156 20.820312 Z M 16.699219 19.769531 C 16.398438 19.769531 16.101562 19.746094 15.808594 19.761719 C 14.640625 19.832031 13.472656 19.941406 12.300781 19.980469 C 10.371094 20.046875 8.449219 20.179688 6.539062 20.453125 C 5.859375 20.550781 5.183594 20.65625 4.519531 20.753906 C 4.363281 21.199219 4.449219 21.617188 4.464844 22.03125 C 4.515625 23.496094 4.539062 24.964844 4.421875 26.425781 C 4.359375 27.21875 4.332031 28.007812 4.386719 28.796875 C 4.445312 29.679688 4.445312 30.5625 4.367188 31.441406 C 4.332031 31.859375 4.320312 32.277344 4.304688 32.695312 C 4.292969 33.136719 4.398438 33.238281 4.820312 33.1875 C 5.84375 33.0625 6.867188 32.925781 7.894531 32.808594 C 8.445312 32.75 8.996094 32.730469 9.542969 32.683594 C 10.253906 32.628906 10.960938 32.511719 11.671875 32.511719 C 13.210938 32.523438 14.746094 32.449219 16.277344 32.308594 C 16.429688 32.296875 16.582031 32.257812 16.777344 32.226562 C 16.777344 31.960938 16.777344 31.730469 16.777344 31.5 C 16.753906 29.078125 16.824219 26.660156 16.910156 24.242188 C 16.945312 23.195312 16.933594 22.144531 16.929688 21.097656 C 16.925781 20.660156 16.894531 20.222656 16.691406 19.769531 Z M 3.664062 34.175781 C 3.910156 34.175781 4.042969 34.175781 4.175781 34.175781 C 5.371094 34.183594 6.5625 34.117188 7.753906 34.015625 C 8.074219 33.988281 8.394531 33.992188 8.714844 33.960938 C 10.0625 33.832031 11.410156 33.699219 12.757812 33.5625 C 13.578125 33.480469 14.402344 33.398438 15.222656 33.3125 C 15.589844 33.273438 15.953125 33.191406 16.316406 33.183594 C 17.398438 33.160156 18.46875 33.039062 19.542969 32.933594 C 21.1875 32.765625 22.839844 32.683594 24.492188 32.566406 C 25.199219 32.515625 25.910156 32.472656 26.621094 32.425781 C 27.789062 32.347656 28.957031 32.269531 30.125 32.1875 C 30.226562 32.179688 30.355469 32.214844 30.414062 32.039062 C 30.363281 31.941406 30.261719 31.898438 30.144531 31.898438 C 29.617188 31.914062 29.085938 31.894531 28.566406 31.960938 C 27.332031 32.121094 26.101562 32.242188 24.855469 32.207031 C 24.148438 32.1875 23.433594 32.246094 22.726562 32.292969 C 22.265625 32.320312 21.8125 32.402344 21.355469 32.425781 C 19.953125 32.496094 18.554688 32.546875 17.15625 32.609375 C 16.902344 32.621094 16.648438 32.644531 16.398438 32.667969 C 15.1875 32.773438 13.976562 32.910156 12.753906 32.878906 C 12.042969 32.859375 11.332031 32.910156 10.621094 32.953125 C 9.863281 33.003906 9.109375 33.113281 8.355469 33.140625 C 7.132812 33.183594 5.941406 33.445312 4.734375 33.59375 C 4.375 33.640625 4.015625 33.757812 3.660156 34.171875 Z M 30.425781 18.734375 C 30.1875 18.605469 30.0625 18.539062 29.933594 18.527344 C 29.042969 18.4375 28.15625 18.273438 27.257812 18.339844 C 25.949219 18.433594 24.644531 18.535156 23.339844 18.605469 C 22.03125 18.671875 20.722656 18.695312 19.414062 18.75 C 18.148438 18.800781 16.886719 18.847656 15.625 18.929688 C 14.527344 19.003906 13.429688 19.121094 12.332031 19.222656 C 11.804688 19.273438 11.28125 19.339844 10.753906 19.390625 C 9.976562 19.460938 9.199219 19.523438 8.421875 19.589844 C 7.320312 19.683594 6.222656 19.773438 5.128906 19.882812 C 4.644531 19.929688 4.605469 19.972656 4.25 20.300781 C 4.289062 20.316406 4.332031 20.347656 4.367188 20.34375 C 4.890625 20.285156 5.417969 20.226562 5.9375 20.15625 C 7.304688 19.972656 8.671875 19.792969 10.046875 19.722656 C 10.527344 19.695312 11.007812 19.660156 11.488281 19.628906 C 12.378906 19.570312 13.273438 19.503906 14.167969 19.453125 C 15.0625 19.40625 15.957031 19.359375 16.851562 19.34375 C 18.257812 19.320312 19.648438 19.140625 21.042969 19.03125 C 21.292969 19.011719 21.542969 18.957031 21.792969 18.9375 C 22.523438 18.875 23.257812 18.816406 23.988281 18.773438 C 24.699219 18.730469 25.414062 18.714844 26.121094 18.6875 C 27.085938 18.648438 28.046875 18.609375 29.015625 18.71875 C 29.429688 18.765625 29.855469 18.808594 30.425781 18.734375 Z M 17.578125 32.144531 C 17.71875 28.039062 17.628906 23.910156 17.816406 19.792969 C 17.589844 19.695312 17.402344 19.691406 17.1875 19.835938 C 17.238281 20.128906 17.324219 20.425781 17.328125 20.71875 C 17.335938 21.765625 17.324219 22.8125 17.304688 23.859375 C 17.285156 24.742188 17.234375 25.625 17.214844 26.507812 C 17.183594 27.808594 17.160156 29.105469 17.148438 30.40625 C 17.144531 30.917969 17.175781 31.429688 17.207031 31.941406 C 17.21875 32.136719 17.332031 32.234375 17.578125 32.144531 Z M 17.578125 32.144531 " fill-opacity="1" fill-rule="nonzero"/><path fill="#000000" d="M 23.675781 22.980469 C 23.132812 22.921875 22.511719 22.886719 21.90625 22.773438 C 21.550781 22.703125 21.199219 22.546875 20.886719 22.363281 C 20.367188 22.058594 20.28125 21.664062 20.53125 21.121094 C 20.660156 20.839844 20.847656 20.601562 21.105469 20.445312 C 21.4375 20.238281 21.773438 19.992188 22.140625 19.902344 C 23.324219 19.617188 24.519531 19.390625 25.746094 19.660156 C 26.21875 19.765625 26.695312 19.839844 27.128906 20.066406 C 27.398438 20.210938 27.625 20.398438 27.777344 20.671875 C 27.945312 20.964844 27.953125 21.265625 27.761719 21.527344 C 27.601562 21.746094 27.402344 21.949219 27.183594 22.113281 C 26.675781 22.492188 26.085938 22.699219 25.46875 22.792969 C 24.902344 22.878906 24.328125 22.914062 23.675781 22.980469 Z M 22.136719 20.378906 C 21.558594 20.429688 21.1875 20.792969 20.898438 21.257812 C 20.710938 21.558594 20.769531 21.875 21.070312 22.042969 C 21.34375 22.199219 21.652344 22.324219 21.960938 22.394531 C 23.1875 22.671875 24.425781 22.613281 25.65625 22.386719 C 26.15625 22.292969 26.617188 22.070312 27.03125 21.769531 C 27.257812 21.601562 27.460938 21.414062 27.515625 21.097656 C 27.371094 20.6875 27.132812 20.378906 26.632812 20.3125 C 26.632812 20.460938 26.617188 20.59375 26.636719 20.722656 C 26.667969 20.953125 26.738281 21.179688 26.765625 21.410156 C 26.796875 21.691406 26.585938 21.839844 26.332031 21.710938 C 26.210938 21.648438 26.132812 21.570312 25.976562 21.679688 C 25.820312 21.78125 25.605469 21.710938 25.421875 21.863281 C 25.238281 22.011719 24.964844 22.066406 24.722656 22.117188 C 24.414062 22.179688 24.226562 21.976562 24.292969 21.671875 C 24.34375 21.453125 24.425781 21.242188 24.332031 21.023438 C 24.042969 21.238281 23.773438 21.4375 23.472656 21.664062 C 23.429688 21.796875 23.382812 21.976562 23.3125 22.144531 C 23.296875 22.1875 23.203125 22.207031 23.144531 22.214844 C 23.109375 22.21875 23.058594 22.175781 23.039062 22.140625 C 23.007812 22.082031 22.984375 22.011719 22.980469 21.945312 C 22.960938 21.507812 22.945312 21.070312 22.929688 20.609375 C 23.171875 20.464844 23.425781 20.347656 23.699219 20.34375 C 23.917969 20.339844 24.179688 20.492188 24.34375 20.414062 C 24.570312 20.300781 24.785156 20.332031 25.003906 20.300781 C 25.046875 20.292969 25.105469 20.296875 25.140625 20.320312 C 25.191406 20.355469 25.257812 20.410156 25.265625 20.464844 C 25.273438 20.519531 25.230469 20.609375 25.183594 20.636719 C 25.109375 20.683594 25 20.671875 24.929688 20.71875 C 24.871094 20.757812 24.84375 20.847656 24.789062 20.9375 C 25.015625 20.976562 25.1875 21.011719 25.34375 21.042969 C 25.398438 21.296875 25.285156 21.367188 25.09375 21.390625 C 24.996094 21.402344 24.847656 21.398438 24.925781 21.625 C 25.023438 21.605469 25.128906 21.578125 25.234375 21.5625 C 25.359375 21.539062 25.488281 21.527344 25.640625 21.507812 L 25.640625 20.53125 C 25.921875 20.339844 26.015625 20.535156 26.132812 20.761719 C 26.175781 20.535156 26.207031 20.363281 26.242188 20.160156 C 26.105469 20.113281 25.980469 20.054688 25.851562 20.03125 C 24.65625 19.824219 23.472656 19.9375 22.296875 20.203125 C 22.230469 20.21875 22.179688 20.320312 22.121094 20.382812 L 22.140625 20.375 Z M 23.84375 20.851562 C 23.773438 20.789062 23.746094 20.742188 23.714844 20.738281 C 23.585938 20.730469 23.449219 20.863281 23.460938 20.988281 C 23.464844 21.019531 23.535156 21.074219 23.542969 21.070312 C 23.640625 21.007812 23.738281 20.933594 23.84375 20.851562 Z M 23.84375 20.851562 " fill-opacity="1" fill-rule="nonzero"/><path fill="#000000" d="M 20.148438 31.570312 C 20.613281 31.355469 21.027344 31.425781 21.433594 31.402344 C 22.964844 31.3125 24.496094 31.226562 26.03125 31.152344 C 26.394531 31.136719 26.761719 31.164062 27.125 31.195312 C 27.1875 31.199219 27.265625 31.300781 27.289062 31.375 C 27.316406 31.472656 27.175781 31.597656 27.0625 31.574219 C 26.1875 31.394531 25.320312 31.589844 24.453125 31.621094 C 23.265625 31.671875 22.078125 31.804688 20.886719 31.761719 C 20.703125 31.753906 20.519531 31.757812 20.335938 31.738281 C 20.285156 31.730469 20.238281 31.65625 20.148438 31.574219 Z M 20.148438 31.570312 " fill-opacity="1" fill-rule="nonzero"/><path fill="#000000" d="M 33.507812 20.683594 C 33.683594 20.449219 33.894531 20.453125 34.101562 20.460938 C 35.253906 20.5 36.386719 20.300781 37.53125 20.195312 C 37.875 20.164062 38.222656 20.085938 38.542969 20.386719 C 38.644531 20.617188 38.59375 20.898438 38.585938 21.171875 C 38.554688 22.101562 38.515625 23.03125 38.488281 23.960938 C 38.484375 24.167969 38.515625 24.375 38.527344 24.585938 C 38.539062 24.820312 38.457031 24.933594 38.214844 24.945312 C 37.160156 25 36.117188 25.214844 35.058594 25.191406 C 34.671875 25.183594 34.285156 25.191406 33.855469 25.191406 C 33.832031 25.0625 33.792969 24.9375 33.785156 24.808594 C 33.722656 23.671875 33.667969 22.53125 33.605469 21.394531 C 33.59375 21.164062 33.542969 20.9375 33.507812 20.683594 Z M 37.992188 24.574219 C 38.039062 24.449219 38.078125 24.382812 38.082031 24.316406 C 38.121094 23.15625 38.160156 21.992188 38.191406 20.828125 C 38.195312 20.75 38.140625 20.664062 38.101562 20.5625 C 36.820312 20.667969 35.566406 20.773438 34.308594 20.878906 C 34.242188 20.882812 34.175781 20.902344 34.109375 20.921875 C 34.089844 20.929688 34.074219 20.949219 34.054688 20.964844 C 33.988281 21.703125 34.125 24.335938 34.246094 24.785156 C 35.5 24.859375 36.730469 24.722656 37.996094 24.574219 Z M 37.992188 24.574219 " fill-opacity="1" fill-rule="nonzero"/><path fill="#000000" d="M 33.925781 28.238281 C 33.910156 27.960938 33.890625 27.664062 33.878906 27.367188 C 33.875 27.21875 34.027344 27.054688 34.171875 27.027344 C 34.238281 27.015625 34.3125 27.003906 34.375 27.023438 C 34.859375 27.179688 35.324219 26.984375 35.796875 26.945312 C 36.136719 26.914062 36.480469 26.894531 36.820312 26.886719 C 36.929688 26.882812 37.042969 26.929688 37.148438 26.964844 C 37.320312 27.019531 37.414062 27.144531 37.417969 27.324219 C 37.421875 27.441406 37.414062 27.554688 37.410156 27.671875 C 37.410156 28.085938 37.335938 28.167969 36.933594 28.140625 C 36.195312 28.09375 35.472656 28.160156 34.75 28.324219 C 34.484375 28.386719 34.210938 28.4375 33.925781 28.238281 Z M 33.925781 28.238281 " fill-opacity="1" fill-rule="nonzero"/><path fill="#000000" d="M 38.609375 26.050781 C 38.605469 26.261719 38.355469 26.445312 38.0625 26.457031 C 37.8125 26.464844 37.632812 26.277344 37.644531 26.027344 C 37.660156 25.691406 37.855469 25.472656 38.132812 25.484375 C 38.402344 25.5 38.613281 25.75 38.609375 26.046875 Z M 38.609375 26.050781 " fill-opacity="1" fill-rule="nonzero"/><path fill="#000000" d="M 6.289062 32.675781 C 6.359375 32.394531 6.523438 32.371094 6.675781 32.347656 C 7.085938 32.292969 7.5 32.269531 7.90625 32.195312 C 8.742188 32.039062 9.582031 31.949219 10.429688 31.914062 C 11.4375 31.878906 12.445312 31.804688 13.453125 31.753906 C 13.632812 31.742188 13.8125 31.773438 13.964844 31.78125 C 14.078125 31.996094 13.976562 32.136719 13.839844 32.117188 C 13.261719 32.035156 12.699219 32.160156 12.128906 32.179688 C 11.144531 32.214844 10.160156 32.28125 9.175781 32.347656 C 8.902344 32.367188 8.636719 32.449219 8.363281 32.488281 C 7.773438 32.570312 7.179688 32.648438 6.589844 32.722656 C 6.503906 32.734375 6.414062 32.695312 6.285156 32.675781 Z M 6.289062 32.675781 " fill-opacity="1" fill-rule="nonzero"/><path fill="#000000" d="M 22.121094 20.386719 C 22.15625 20.40625 22.195312 20.4375 22.238281 20.445312 C 22.605469 20.539062 22.726562 20.800781 22.75 21.160156 C 22.78125 21.574219 22.617188 21.875 22.289062 22.089844 C 22.101562 22.214844 21.824219 22.148438 21.675781 21.964844 C 21.445312 21.683594 21.398438 21.3125 21.597656 21 C 21.746094 20.773438 21.953125 20.585938 22.136719 20.382812 C 22.136719 20.382812 22.121094 20.386719 22.121094 20.386719 Z M 22.269531 21.226562 C 22.234375 21.152344 22.222656 21.097656 22.195312 21.082031 C 22.117188 21.042969 22.007812 21.160156 21.992188 21.304688 C 21.992188 21.339844 22.03125 21.375 22.050781 21.410156 C 22.125 21.347656 22.199219 21.28125 22.269531 21.226562 Z M 22.269531 21.226562 " fill-opacity="1" fill-rule="nonzero"/></svg>