<?xml version="1.0" encoding="UTF-8"?>
<svg id="Layer_2" xmlns="http://www.w3.org/2000/svg" viewBox="0 0 56.04 67.34">
  <g id="Layer_2-2" data-name="Layer_2">
    <g>
      <path d="M55.41,0c0,4.11-.03,7.59,0,11.06.06,5.09-.06,10.2.32,15.26.37,4.88.31,9.75.26,14.62-.03,3.41-.31,6.81-.3,10.22,0,3.61.27,7.23.32,10.84.01,1-.33,2-.53,3.14-1.3.15-2.39.38-3.48.4-6.48.14-12.96.12-19.43.38-4.37.18-8.73.74-13.1,1.11-.97.08-1.95.05-2.93.08-2.86.08-5.71.21-8.57.23-2.08.01-4.16-.12-6.07-.19-1.09-.76-1.25-1.69-1.21-2.7.11-2.58.29-5.15.29-7.73,0-3.41-.11-6.82-.22-10.23-.19-5.85-.47-11.7-.63-17.55C.03,24.55,0,20.16,0,15.77c0-3.76.11-7.53.22-11.29.04-1.33.78-2.07,2.04-2.16,3.75-.26,7.5-.5,11.26-.75.49-.03.98-.1,1.46-.05,8.12.85,16.28-.29,24.42.43,1.64.15,3.33-.19,5-.26,2.16-.08,4.31-.15,6.47-.16,1.54,0,3.16.44,4.55-1.53ZM52.94,19.68c-.36-.27-.62-.63-.9-.65-1.98-.14-3.97-.26-5.95-.28-2.92-.04-5.84.08-8.75,0-2.36-.07-4.71-.45-7.06-.48-2.29-.04-4.59.19-6.89.3-.56.03-1.12.05-1.67.12-6.09.81-12.2,1.13-18.34,1.15-.66,0-1.33.11-2.23.19,0,.88,0,1.56,0,2.24,0,3.14-.1,6.28.02,9.41.19,5.28.56,10.56.78,15.84.14,3.47.18,6.94.22,10.42.03,2.55,0,5.1,0,7.72.96.11,1.79.29,2.6.27,6.96-.18,13.93-.03,20.86-.87,4.43-.54,7.92-3.47,9.02-8-1.65.56-3.26.95-4.97-.25.07-1.06.14-2.2.22-3.3,1.7-.19,3.13-.36,4.78-.54-.23-8.36.45-16.59-1.07-25.2-.98,1.49-1.7,2.57-2.5,3.79-.82-.2-1.59-.39-2.28-.56-.06-.35-.13-.5-.1-.62.61-2.23,2.33-3.75,3.63-5.53.24-.32.85-.44,1.31-.52.75-.12,1.52-.13,2.21-.19,1.34.63,1.22,1.81,1.24,2.91.02,1.39-.06,2.79-.02,4.18.12,4.53.27,9.05.44,13.58.03.79.21,1.58.35,2.54.99-.08,1.74-.12,2.48-.21,1.38-.17,2.75-.46,4.14-.56,4.02-.3,7.18-2.32,10.07-4.73.66-7.74-.16-15.29-.38-23.15-.52.41-.82.65-1.27,1ZM33.76,62.4c.92-.62,1.83-1.25,2.75-1.85,2.2-1.45,4.61-2.65,6.56-4.38,3.16-2.81,6.03-5.94,8.96-8.98.62-.64,1.03-1.51,1.2-2.62-.47.2-.75.26-.96.43-2.58,1.96-5.55,2.75-8.71,3.07-1.78.18-3.54.51-5.41.79-.5,4.94-1.89,9.39-4.39,13.55ZM48.34,9.47c-.31-.68-.54-1.25-.82-1.81-.56-1.12-1.84-1.7-2.96-1.35-1.13.35-1.64,1.26-1.5,2.65.14,1.39.65,1.81,2.22,1.95,1.27.11,2.35-.14,3.06-1.44ZM11.12,7.3c-1.83.99-2.75,2.18-2.34,3.1.52,1.2,1.65,1.06,2.68,1.02,1.43-.06,2.11-.47,2.18-1.4.12-1.68-1.14-2.19-2.52-2.72Z"/>
      <path d="M21.82,54.54h4.39c.08.58.22,1.11.22,1.63,0,1.89-.33,2.05-2.18,1.89-1.58-.14-3.19-.04-4.79.03-2.28.11-4.56.3-6.79.45-.66-1.92-.02-3.25,1.66-3.59,1.08-.22,2.18-.33,3.2-.48.88-8.37,1.33-16.67,1.11-25.09-1.98.75-2.1,3.72-4.68,3.48-.71-1.39-.18-2.51.6-3.51,1.74-2.23,3.4-4.67,6.96-4.02.78,1.79.57,3.75.43,5.66-.44,6.26-.81,12.51-.54,18.78.07,1.52.25,3.04.4,4.75Z"/>
    </g>
  </g>
</svg>