<?xml version="1.0" encoding="UTF-8"?>
<svg id="Layer_2" xmlns="http://www.w3.org/2000/svg" viewBox="0 0 68.83 48.12">
  <defs>
    <style>
      .cls-1 {
        fill: #231f20;
      }
    </style>
  </defs>
  <g id="Layer_2-2" data-name="Layer_2">
    <g>
      <path class="cls-1" d="M13.34,34.48C7.17,37.42,2.84,35.51,0,29.06c-.01-.54.7-.85,1.53-.6,1.72.52,3.16-.22,4.61-.87,1.35-.61,1.76-1.25,1.41-2.66-1-4.04.18-7.73,1.66-11.37.41-1.01,1.16-1.91,1.88-2.74C15.89,5.32,21.83,1.88,29.07.6c3.34-.59,6.62-.94,9.95-.12.27.07.55.11.83.1,6.31-.15,11.82,2.37,17.15,5.3,3.87,2.13,6.7,5.4,8.63,9.38.94,1.93,1.81,3.92,2.48,5.96,1.39,4.23.77,8.22-1.72,11.94-1.04,1.56-2.02,3.17-2.94,4.8-1.26,2.22-3.48,3.37-5.3,4.97-3.03,2.67-6.7,4-10.63,4.22-2.29.13-4.44.86-6.67.93-2.49.08-5.01-.07-7.48-.39-4.81-.62-8.92-2.89-12.93-5.51-2.34-1.53-4.28-3.25-5.64-5.67-.4-.72-.95-1.35-1.45-2.04ZM13.49,32.35c.94,1.32,1.81,2.57,2.71,3.78.75,1,1.37,2.2,2.35,2.89,3.54,2.52,6.91,5.4,11.34,6.35,1.97.42,3.92.99,5.91,1.23,1.63.19,3.31.06,4.96-.06,1.36-.1,2.73-.65,4.06-.54,3.55.27,6.83-.69,9.79-2.33,3.91-2.18,7.34-5.04,9.48-9.15.42-.8.93-1.55,1.39-2.33,1.48-2.52,2.46-5.21,1.99-8.14-.3-1.83-.91-3.65-1.63-5.38-1.72-4.15-3.85-8.05-7.87-10.5-1.19-.72-2.39-1.43-3.62-2.07-3.47-1.78-7-3.47-10.92-3.97-2.54-.32-5.11-.34-7.63-.95-.92-.22-1.96-.2-2.91-.05-5.89.94-11.55,2.49-16.39,6.22-2.8,2.15-5.26,4.55-6.49,7.96-1.16,3.23-2.11,6.47-.8,9.92.16.42-.04,1.11-.31,1.53-1.19,1.85-2.96,2.81-5.1,3.14-.45.07-.89.21-1.34.32,1.25,4.24,6.1,5.23,11.04,2.14Z"/>
      <path class="cls-1" d="M43.75,21.86c0-1.97.85-2.52,2.72-1.8.37.14.8.13,1.2.22,1.1.25,1.91.88,2.24,1.97.35,1.15-.44,1.84-1.2,2.45-1.55,1.24-4.03,1.53-4.66-1-.15-.6-.21-1.23-.3-1.84Z"/>
      <path class="cls-1" d="M37.05,25.81c-1.9-.04-3.24-1.49-3.17-3.41.06-1.66,1.11-2.52,2.96-2.44,1.54.06,2.94,1.35,2.92,2.7-.01,1.63-1.35,3.17-2.72,3.14Z"/>
      <path class="cls-1" d="M23.46,23.43c0-1.87.66-2.79,2.03-2.83,1.42-.04,3.25,1.61,3.27,2.96.02,1.54-1.38,3.43-2.62,3.29-1.95-.21-2.83-.93-2.67-3.42Z"/>
    </g>
  </g>
</svg>