<?xml version="1.0" encoding="UTF-8"?>
<svg id="Layer_2" xmlns="http://www.w3.org/2000/svg" viewBox="0 0 70.24 43.22">
  <g id="Layer_2-2" data-name="Layer_2">
    <g>
      <path d="M64.32,26.12c.58,2.66.45,5.24-.74,7.62-1.7,3.4-4.2,6.21-7.84,7.41-3.26,1.07-8.09.44-10.82-4.15-.16.3-.31.49-.37.71-.73,2.54-2.39,4.03-5.01,4.37-1.52.2-3.07.5-4.57.36-3.27-.3-5.47-2.39-6.9-5.15-.52-1.01-.22-2.44-.31-3.88-1.28.5-2.53.89-3.69,1.46-2.08,1.01-3.82.4-5.31-1.08-1.32-1.31-2.49-2.78-4.03-4.5-3.4-.95-4.95-3.97-4.73-6.67.32-3.94,2.01-5.5,7.32-6.55-.1-1.15-.28-2.31-.29-3.47-.03-2.73.62-5.21,2.63-7.26,1.4-1.44,2.57-3.09,4.35-4.15,3.54-2.1,7.17-1.43,9.55,1.88.56.78,1.04,1.63,1.5,2.34,1.86-1.36,3.69-2.72,5.54-4.03,2.24-1.59,4.6-1.29,6.96-.32.58.24,1.13.55,1.69.83,2.24,1.12,3.68,2.73,3.4,5.43-.03.25.06.52.13,1.1,3.64-2.37,7.37-3.74,11.5-2.07,2.33.94,3.87,2.87,4.69,5.11,2.24,6.13,1.91,10.78-4.67,14.64ZM30.4,30.74c-.32,1.16-.51,1.93-.75,2.67-.63,1.9-.64,3.52.93,5.17,1.82,1.91,3.86,2.43,6.36,2.37,3.73-.09,6.26-1.5,7.15-5.33.12-.52.03-1.34,1.11-1.44.18.35.43.73.59,1.15,1.95,5.03,6.86,5.46,10.17,4.18,3.05-1.18,5.18-3.59,6.54-6.46,1.07-2.28,1.52-4.79-.3-7.11-.25-.32-.1-.97-.14-1.48,4.16,0,7.09-2.99,6.94-6.9-.05-1.39-.14-2.81-.5-4.14-.62-2.27-1.8-4.23-3.98-5.37-4.2-2.19-9.55-.63-12.03,3.43-.13.21-.38.34-.89.76-.14-.78-.3-1.26-.29-1.74.02-1.11.29-2.25.14-3.33-.15-1.06-.4-2.41-1.12-3.01-1.52-1.26-3.29-2.25-5.43-2.39-2.51-.16-4.38,1.08-6.24,2.46-1.42,1.06-2.64,2.26-2.83,4.18-.11,1.08-.81,1.48-1.94,1.46-.03-.35-.16-.67-.06-.87,1.14-2.33-.17-4.03-1.49-5.68-1.49-1.86-4.1-2.61-6.24-1.56-4.11,2.03-7.15,5.03-7.7,9.88-.19,1.71.2,3.31.95,4.84.34.7.89,1.47.04,2.21-4.01-1.37-6.63-.67-7.46,1.92-.51,1.58-.65,3.17.15,4.68,1.08,2.05,3.08,2.62,5.27,2.85-.42,2.15.88,3.32,2.17,4.48,1.28,1.15,2.7,1.6,4.38.85,1.95-.87,3.93-1.67,6.5-2.75Z"/>
      <path d="M8.91,37.54c.01-3.41,2.88-5.44,5.99-4.09,1.93.84,3.54,2.19,4.38,4.26,1.13,2.8-.01,4.87-2.96,5.31-1.43.22-2.76.43-4.21-.38-2.23-1.25-3.21-2.51-3.2-5.1ZM14.93,41.84c.35-.06.96-.17,1.57-.28,1.85-.34,2.5-1.49,1.87-3.28-.58-1.62-1.86-2.54-3.32-3.24-2.51-1.22-4.89.4-4.74,3.17.11,1.93,2.12,3.62,4.62,3.63Z"/>
      <path d="M6.11,34.8c0,2.04-1.1,3.18-3.03,3.14C1.14,37.91.03,36.76,0,34.76c-.02-1.28,1.81-3.02,3.18-3.02,1.8-.01,2.93,1.17,2.93,3.06ZM4.64,33.79c-1.36-.55-2.29-.55-2.73.27-.28.52-.35,1.37-.1,1.88.36.76,1.23.82,2,.49.88-.37,1.08-1.09.82-2.65Z"/>
      <path d="M28.08,16.99c1.99.91,2.45,1.56,2.2,2.91-.21,1.13-.94,1.89-1.85,1.93-1.45.08-2.91-.67-3.05-1.63-.28-2,1.31-2.48,2.7-3.21Z"/>
      <path d="M46.36,16.42c2.64.75,3.25,1.98,2.04,3.89-.78,1.24-1.95,1.5-3.23.72-.98-.59-1.2-2.06-.38-3.1.46-.59,1.08-1.05,1.57-1.52Z"/>
      <path d="M35.07,18.23c.66-.51,1.3-1.01,1.87-1.46,2.42.61,3.36,1.57,3.11,3.06-.16.97-1.43,1.67-2.83,1.58-1.44-.1-2.11-1.01-2.16-3.17Z"/>
    </g>
  </g>
</svg>