<?xml version="1.0" encoding="UTF-8"?>
<svg id="Layer_2" xmlns="http://www.w3.org/2000/svg" viewBox="0 0 161.55 144.74">
  <g id="Layer_1-2" data-name="Layer_1">
    <g>
      <path d="M2.07,143.41c-1.11-1.48-1.75-3.22-1.78-5.21-.07-5.42-.19-10.84-.28-16.26-.12-7.5.54-14.97.77-22.45.33-10.83,1.09-21.64,1.22-32.47.03-2.39-.2-4.78-.17-7.18.02-2.71.25-5.42.29-8.13.07-5.75.04-11.5.13-17.25.07-4.47.35-8.94.35-13.41,0-3.35-.26-6.69-.46-10.04-.22-3.67,1.22-6.36,4.67-7.33,3.19-.9,6.54-1.56,9.84-1.74C34.98.91,53.34.8,71.69.54,78.08.45,84.46-.04,90.84,0c8.3.05,16.6.47,24.9.7,5.27.14,10.55.09,15.82.36,8.92.45,17.84,1.07,26.76,1.65,2.57.17,3.23.72,3.23,3.16.01,3.99-.13,7.98-.35,11.96-.51,9.25-1.1,18.49-1.65,27.74-.54,8.92-1.1,17.85-1.62,26.77-.45,7.81-.85,15.62-1.26,23.44-.19,3.67-.39,7.34-.48,11.01-.05,1.91.15,3.82.19,5.73.17,8.31.33,16.61.47,24.92.02,1.28.02,2.56-.11,3.83-.2,1.97-1.43,3.19-3.37,3.41-.79.09-1.6.08-2.39.06-15.17-.46-30.33.08-45.5-.14-9.41-.14-18.83-.33-28.24-.41-7.82-.07-15.64-.12-23.45.01-12.45.21-24.89-.44-37.33-.27-4.45.06-8.9-.69-13.37-.12-.27.04-.58-.22-1.01-.39ZM147.11,136.13c1.25-.23,2.91.15,2.91-1.95,1.49-1.93.72-4.33,1.32-6.42.79-.51,1.56-1,2.37-1.52,0-1.72,0-3.31,0-4.91,0-7.5-.2-15.01.05-22.5.3-9.26.94-18.5,1.5-27.75.45-7.33,1.05-14.65,1.49-21.98.61-10.04,1.18-20.08,1.68-30.13.22-4.44.95-8.89.04-13.67-1.43-.19-2.82-.47-4.22-.53-13.56-.59-27.12-1.19-40.68-1.67-6.38-.22-12.78-.27-19.17-.23-12.29.07-24.57.23-36.86.42-6.23.1-12.45.33-18.68.54-7.18.24-14.37.41-21.54.84-2.84.17-5.71.72-8.44,1.53-3.24.97-3.91,2.28-3.86,5.69.05,3.35.15,6.7.1,10.05-.07,4.79-.31,9.58-.38,14.37-.15,10.85-.23,21.7-.36,32.55-.09,7.66-.22,15.32-.34,22.98-.03,1.92-.03,3.84-.16,5.75-.58,8.92-1.32,17.84-1.17,26.8.07,4.47.28,8.93.58,13.39.16,2.34,1.01,3.06,3.41,3.06,5.89,0,11.76.66,17.68.44,5.73-.21,11.48.31,17.23.34,12.62.06,25.23.02,37.85.02,2.55,0,5.1-.04,7.64-.02,14.22.12,28.44.26,42.66.36,7.03.05,14.06.07,21.09.06.9,0,1.8-.27,2.77-.43.62-3.19.48-6.12-.18-9.08-.38.71-.53,1.45-.67,2.19-.38,2.02-1.76,2.91-3.64,3.28-1.08.21-1.49-.15-2.04-1.88Z"/>
      <path d="M150.13,134.31c-.97.64-1.94,1.28-2.91,1.92-6.98-.27-13.94-.89-20.95-.34-3.77.29-7.61-.25-11.42-.38-1.59-.06-3.19-.09-4.78-.06-18.67.34-37.35.68-56.02,1.05-3.19.06-6.38.26-9.56.42-8.32.42-16.59-.66-24.89-.85-1.28-.03-2.57-.21-3.83-.08-3.63.39-6.2-.89-7.45-4.52,1.28-3.57.78-7.41.9-11.18.15-4.78.07-9.57.05-14.36-.03-6.54-.15-13.07-.12-19.61.02-3.98.23-7.97.37-11.95.07-2.07.19-4.13.26-6.2.2-6.22.39-12.45.57-18.68.24-8.3.45-16.6.69-24.91.05-1.6.2-3.19.23-4.78.04-1.89,0-3.79,0-5.61.28-.29.45-.65.71-.73,5.48-1.71,10.98-3.34,16.82-3.16,4.47.14,8.94.19,13.41.2,4.79,0,9.58-.02,14.37-.15,3.67-.1,7.33-.61,10.99-.54,5.42.1,10.85.41,16.25.91,3.84.36,7.6.29,11.45,0,6.04-.46,12.13-.5,18.2-.46,3.98.03,7.96.52,11.95.78,1.11.07,2.24.11,3.35.08,5.26-.18,10.53-.39,15.79-.58,2.68-.1,5.36-.19,8.01-.28.21-.86-.12-1.26-.89-1.35-1.1-.13-2.24-.15-3.3-.44-.45-.12-.75-.8-1.42-1.57,2.38-.19,4.26-.4,6.14-.48,1.22-.05,2.14.67,2.39,1.93.46,2.31.77,4.65,1.19,7.21-.93.26-1.66.46-2.39.66-.12.28-.34.55-.36.84-.53,7.97-1.07,15.93-1.55,23.9-.42,7.01-.85,14.03-1.14,21.04-.29,7.02-.43,14.05-.61,21.08-.2,7.82-.41,15.63-.54,23.45-.12,7.19-.15,14.38-.18,21.57,0,2.07.14,4.15.21,6.22ZM133.62,47.52c5.24.64,10.25.44,15.4.6.46-5.99,1.26-11.61,1.1-17.21-4.71-1.31-10.07-1.55-15.36-.77-1.22,4.51-1.88,13.58-1.15,17.38ZM130.22,83.18c5.83.59,11.17,1.15,16.51,1.64.37.03.79-.43,1.45-.83,0-2.43.07-4.97-.02-7.49-.08-2.48.86-5.01-.35-7.7-5.3-.68-10.61-.98-16.25-.84-.47,4.17-.93,8.07-1.33,11.98-.1.92-.01,1.87-.01,3.24ZM147.18,118.76c.01-4.79.52-9.03-.25-13.43-3.2-.31-6.2-.81-9.2-.83-2.93-.02-5.94-.71-8.98.26-.26,2.28-.67,4.32-.68,6.37-.01,2.16-.89,4.3-.35,6.81,6.48,0,12.7,1.33,19.46.82ZM99.15,46.35c5.07.36,9.65.73,14.28.26,1.24-2.66,1.19-5.45,1.11-8.1-.08-2.8,1.65-5.51.62-8.28-5.81-.89-10.93-.71-14.97.54-.64,4.95-1.2,9.97-1.04,15.57ZM41.07,83.56c1.2-5.84,1.57-11.84.95-15.92-5.15-.84-10.25.16-15.69.57-.02,2.85-.12,5.38-.04,7.91.09,2.49-.5,5.06.55,7.55,2.51,0,4.9-.15,7.26.04,2.37.2,4.71.71,6.97-.15ZM63.88,84.03c4.93.52,9.19,0,13.66-.76,1.1-5.37.22-10.8,1.26-16.23-2.63-.79-4.99-.09-7.32,0-2.48.09-5.05-.76-7.63.46-.14,5.52-.58,10.88.03,16.54ZM65.9,31.93c-.3,3.06-.59,5.59-.78,8.13-.19,2.47-1.09,4.98.19,7.34,5.34.47,10.21.05,14.68-1.33-.24-4.7,1.7-9.42.61-14.56-4.93-.15-9.65-.28-14.69.41ZM43.41,48.53c.35-5.02.69-9.87,1.05-15.01-1.71-.23-3.09-.6-4.47-.57-3.33.06-6.65.28-9.98.48-.9.06-1.78.29-2.6.43-.91,8.8-.86,12.07.31,15.44,5.11.49,10.25.15,15.69-.77ZM129.81,49.93c-4.7-.48-8.93-.51-13.09-.21-1.97,6.35-2.41,10.68-1.5,14.86,4.32.34,8.69.71,13.3.13.9-4.87,1.32-9.54,1.3-14.78ZM113.95,85.63c-.69,5.32-.88,10.31-1.04,15.27,4.87,1.03,9.09,1.07,13.07.13.27-4.93,1.43-9.87.59-14.9-.66-.22-1.11-.48-1.55-.49-3.49-.03-6.99-.02-11.06-.02ZM61.47,50.93c-5.3.46-10.2-.76-14.94.56-1.25,6.29-1.33,9.51-.3,13.05,4.82-.14,9.7-.27,14.67-.41.86-4.37.99-8.46.57-13.19ZM60,99.55c.23-4.34.69-8.22.34-12.06-2.7-1.19-5.3-.92-7.81-1-2.62-.08-5.36-.77-8.2.81.43,3.98-.71,8.03.31,12.25h15.36ZM62.66,28.63c1.44-3.86.65-7.74,1.05-11.49.13-1.2-.17-2.45-.27-3.71-2.74-.94-5.3-.34-7.78-.22-2.48.12-5.05-.54-7.76.63,0,2.56.04,5.1-.01,7.64-.05,2.63-.97,5.27-.09,8.1,5.11.04,9.98-.16,14.86-.96ZM82.67,49.13c-.13,5.19-1.29,9.84-.38,14.74,4.18.61,8.07.46,12.06-.07.17-4.94,1.7-9.57.81-14.51-4.07-1.01-7.99-.22-12.48-.16ZM43.32,133.87c9.85.48,12.33.32,15.76-1.04.4-4.48.92-9.05.35-13.58-1.63-1.35-3.45-.99-5.17-.96-1.91.04-3.82.22-5.72.4-1.7.16-3.52-.42-5.21.83.28,4.67-1.48,9.38,0,14.35ZM111.51,82.96c-1.77-5.57,1.18-10.61-.73-16.16-4.48.81-8.94-1.31-13.42.07-1.3,6.59-1.38,12.93-.18,16.37,4.48.05,9.04.18,14.33-.28ZM40.68,115.7c-.24-4.64,1.19-8.87-.52-13.45-4.59.63-9.17-.27-13.83.75-.1,3.72-.22,7.2-.26,10.69,0,.72.3,1.45.51,2.35,4.64-.57,9.07.43,14.11-.33ZM109.58,104.35c-2.65-.63-11.35-.71-14.7-.1-.26,2.83-.64,5.78-.59,8.77.01.88.28,1.76.45,2.69,4.67.36,9.05.7,13.69,1.05.85-4.32,1.25-8.36,1.15-12.41ZM92.24,100.42c.09-4.6,1.2-9.27.3-14.21-4.1-.45-7.98-.04-12.1.36-.17,2.47-.4,4.68-.44,6.89-.04,2.33-.77,4.65-.47,6.93,6.38,1.04,9.8,1.06,12.72.04ZM62.78,115.6c2.42.05,4.45.19,6.48.1,2.15-.1,4.43.61,6.51-.84.36-3.74.81-7.46-.06-11.22-4.32-.2-8.33-1.26-12.44-.67-.21.67-.47,1.1-.47,1.54-.03,3.47-.02,6.94-.02,11.09ZM97.41,27.57c.5-4.96,1.25-9.46.4-14.13-4.03,0-7.81-.01-11.58.01-.6,0-1.19.15-1.72.23-.82,5.6-.84,11.21.05,14.71,4.07-.91,8.32.02,12.86-.82ZM25.02,13.37c-3.91-.14-7.16,1.49-10.77,2.54v4.58c.73-.51,1.24-.82,1.71-1.19,1.53-1.18,2.99-.69,4.41.18,1.25.76,1.76,2.01,1.43,3.24-.41,1.55-1.53,2.23-3.17,2.34-1.85.12-3.11-1.13-4.99-2.17,0,1.76-.07,3.02.02,4.28.09,1.37-.44,2.87.84,4.34,3.1-.28,6.41.54,9.95-.74-.5-5.74,1.23-11.34.56-17.39ZM23.41,99.54c.04-4.26.33-8.17-.15-12.04-3.29-1.78-6.68-.31-9.94-.69-.7-.08-1.24.87-1.24,1.77,0,2.7-.06,5.4,0,8.09.02.9.36,1.79.59,2.86h10.72ZM78.66,118.61c-.99,7.74-.97,11.25.05,14.7,3.87.07,7.78.15,11.6-.48.78-3.5,1.07-10.31.6-14-.66-.2-1.4-.63-2.13-.6-3.28.15-6.61-.28-10.12.38ZM23.8,52.74c-4.09-1.01-5.27-.98-10.74.24-.65,3.97-1.13,7.99-.11,12.19,3.52.32,6.79.35,10.39-.03.16-4.35.32-8.41.47-12.4ZM131.95,13.41c-2.28-.07-4.15-.15-6.03-.17-2-.02-4.03-.39-6.31.03.03,4.71-.59,9.19-.36,13.64,5.27.83,9.24.73,12.49-.3.27-4.19.82-8.42.22-13.21ZM123.97,133.18c.41-4.68.59-8.74-.06-13.03-4.21-.41-8.14-.74-12.22-.31-.69,4.32-1.13,8.51-.3,12.94,1.48.15,2.72.36,3.97.38,2.7.06,5.4.02,8.61.02ZM12.48,119.9c-.86,4.42-.39,8.6.39,12.94,3.21.4,6.28.77,9.61.05-.42-4.59.85-8.94.17-13.38-.66-.14-1.11-.34-1.54-.31-2.83.2-5.66.45-8.62.69Z"/>
      <path d="M7.67,20.53c-.63-1-1.21-1.6-1.4-2.29-.24-.9-.2-1.89-.21-2.84-.03-6.13,1.33-6.81,7.22-7.83.55-.1.7.07,1.63,1.51-.91.34-1.76.71-2.64.99-.9.28-1.84.46-2.63.65-1.21,1.5-1.07,3.11-1.02,4.7.04,1.11.19,2.23.09,3.33-.04.5-.55.96-1.06,1.78Z"/>
      <path d="M4.96,137.02c-.18-2.45-.36-4.77-.51-7.09-.04-.64.08-1.41.87-1.33.48.05,1.15.58,1.3,1.03.34,1.03.48,2.14.58,3.23.09.93.02,1.87.02,2.73.52.93,2.29.94,1.61,2.52-2.07.18-2.07.19-3.87-1.09Z"/>
      <path d="M31.03,43.26c-.32-2.85,2.35-4.5,3.94-4.44,1.72.07,3.76,2.44,3.75,4.28-.02,1.95-1.87,3.45-4.34,3.5-1.67.04-3.27-1.57-3.35-3.35Z"/>
      <path d="M60.01,20c.1,2.31-1.35,3.68-3.96,3.72-2.1.04-3.91-1.57-3.85-3.41.06-1.77,1.58-3.42,3.29-3.56,2.3-.2,4.44,1.34,4.52,3.25Z"/>
      <path d="M55.19,127.35c-.12.27-.25.94-.64,1.38-1.45,1.67-4.13,2.14-6.15,1.2-1.42-.66-2.1-2-1.78-3.54.06-.31.16-.62.3-.9.82-1.63.9-4.03,3.32-4.19,2.06-.14,4.89,3.35,4.95,6.06Z"/>
      <path d="M99.24,77.8c.32-.91.53-1.67.86-2.38.71-1.52,1.75-2.66,3.61-2.61,1.73.05,2.88,1.14,3.64,3.23.36.98.26,1.85-.28,2.71-1.19,1.89-5.12,2.54-6.75,1.03-.53-.49-.73-1.33-1.07-1.98Z"/>
      <path d="M89.75,24.09c-1.82-.07-2.96-1.46-2.91-3.56.05-1.9,1.42-3.34,3.21-3.39,1.87-.05,3.47,1.35,3.51,3.07.05,2.26-1.62,3.95-3.81,3.87Z"/>
      <path d="M87.82,125.76c.06,2.23-1.63,4.27-3.59,4.34-1.91.07-4.09-1.67-4.11-3.28-.03-2.22,1.61-4.04,3.73-4.14,2.44-.12,3.92,1.03,3.97,3.09Z"/>
      <path d="M124.92,16.15c1.5.75,2.83,1.27,4.01,2.03,1.45.94,1.68,2.8.7,4.2-1.27,1.82-4.09,2.36-5.97,1.16-1.83-1.17-2.13-3.9-.58-5.87.38-.49.96-.81,1.84-1.52Z"/>
      <path d="M117.44,130.64c-2.07-.14-3.9-2.21-3.62-4.11.34-2.31,2.34-3.92,4.64-3.74,2.26.18,3.86,2,3.6,4.09-.29,2.25-2.33,3.92-4.62,3.76Z"/>
      <path d="M16.36,122.72c1.9.16,3.88,2.32,3.88,4.22,0,1.45-1.69,3.05-3.16,3-2.18-.08-4.08-1.87-4.11-3.87-.02-1.58,1.89-3.47,3.38-3.35Z"/>
    </g>
  </g>
</svg>