<?xml version="1.0" encoding="UTF-8"?>
<svg id="Layer_2" xmlns="http://www.w3.org/2000/svg" viewBox="0 0 100.78 119.9">
  <g id="Layer_2-2" data-name="Layer_2">
    <path d="M56.97,111.62c.15,1.86.32,3.78.48,5.81-2.03,1.5-4.43,1.99-6.82,2.41-.82.14-1.71.03-2.54-.14-1.54-.31-2.63-1.07-2.88-2.86-.3-2.16-.85-4.29-1.35-6.75-1.37-.27-3.01-.57-4.65-.91-1.54-.32-3.07-.68-4.83-1.08-.46.98-1,1.8-1.22,2.69-.43,1.72-1.41,2.8-3.27,3.32-3.52-1.47-6.8-3.52-9.8-6.24.07-1.59,1.11-2.62,2.06-3.72,2.33-2.7,2.31-2.7.27-5.54-.99-1.38-1.96-2.78-3.05-4.33-1.17.22-2.23.42-3.29.62-1.2.23-2.4.55-3.61.69-1.84.22-3.59-.71-4.21-2.28-1.16-2.94-2.23-5.91-3.35-8.9,1.73-1.6,4.13-1.36,6.1-2.28-1.15-2.64-2.3-5.29-3.58-8.24-1.82-.83-4.09.06-6.36-.48C0,72.19-.14,70.62.1,69.03c.2-1.33.79-2.61.85-3.93.06-1.17-.37-2.37-.56-3.43,1.62-1.57,3.51-.03,5.29-.96.21-1.63.31-3.44.72-5.17.42-1.77,1.1-3.5,2.58-4.59-.28-1.07-1.1-1.09-1.71-1.38-.88-.42-1.83-.72-2.68-1.2-1.48-.82-1.68-1.88-.74-3.37.2-.31.45-.58.66-.89,1.09-1.63,2.25-3.21,3.22-4.9.66-1.15,1.51-1.88,2.87-2.23,1.73.68,2.85,2.67,5.19,2.81,1.83-1.88,4.31-3.27,5.97-5.76-1.47-1.73-2.88-3.38-4.44-5.21.55-.35,1.05-.63,1.51-.97,1.48-1.08,2.97-2.14,4.4-3.27,1.51-1.2,3.19-1.2,4.58.15.79.77,1.51,1.61,2.26,2.42.85.92,1.87,1.11,3.02.67,1.81-.69,3.62-1.4,5.53-2.14.17-2.84-2.07-4.99-2.09-7.58,3.12-.62,6.09-1.31,9.1-1.77,1.28-.2,2.64.08,4.13.15.83,2.31,1.61,4.48,2.46,6.86,4.61.95,9.25,1.92,14.01,2.91,1.21-1.19,2.1-2.63,3.03-4.06,1.23-1.88,1.79-2.01,3.96-1.02,1.67.76,3.3,1.63,4.98,2.36,1.88.82,2.77,3,1.53,4.88-.6.92-1.07,1.93-1.53,2.93-.51,1.1-.95,2.22-1.44,3.39,2,2.21,3.27,4.76,5.47,6.63,1.73-.24,2.89-1.35,4.21-2.2,2.48-1.61,3.07-1.41,4.67,1.08.79,1.23,1.69,2.38,2.52,3.58,1.29,1.86,2.25,3.81,1.31,6.47-1.16.79-2.56,1.76-3.98,2.69-1.03.68-1.52,1.57-1.18,2.81.58,2.11.49,4.39,1.72,6.54,2.46.94,5.26-.39,7.98.68.46,1.98.66,4.02.79,6.08.13,2.07.33,4.14.52,6.41-1.04.55-2.05,1.23-3.17,1.63-1.01.36-2.13.4-3.39.62-.54,3.41-1.08,6.74-1.64,10.24,1.86,1.66,4.73,1.89,6.48,4.04-.94,2.76-1.84,5.53-2.83,8.28-.4,1.11-1.23,1.77-2.49,1.82-1.48.06-2.92.11-4.29-.63-.96-.52-2.01-.88-3.12-1.35-3.17,1.42-5.43,4.16-8.41,5.5-.44,1.51.17,2.63.53,3.78.3.93.72,1.83,1.02,2.76.36,1.16.03,2.02-.97,2.46-2.95,1.29-6.04,1.97-9.28,1.78-.99-.06-1.47-.72-1.8-1.58-.71-1.82-1.46-3.62-2.17-5.37-2.66.05-5.45.78-8.27,2.16ZM18.72,43.72c-2.04.72-3.43.3-4.78-.84-1.28-1.08-2.48-2.35-4.21-3-2.01,1.91-3.17,4.32-4.92,6.71,2.06,1.34,4.24,1.75,6.21,2.62.63.28,1.23.62,2.05,1.04-.57,1.3-1.02,2.42-1.55,3.49-1.07,2.14-1.6,4.34-1.11,6.75.26,1.28.47,2.59.14,3.85-2.71.82-5.24-1.03-7.73,0q-1.19,5.29-.36,7.48c3.01.7,6.26-1.19,9.32.61-.03,3.12,1,5.86,2.55,8.39.83,1.35,1.08,2.68.52,4.43-2.09.58-4.3,1.19-6.47,1.79-.42,2.37.72,4.17,1.59,6.02.33.71,1.08,1.03,1.86.93.97-.13,1.92-.36,2.87-.6,2.24-.56,4.48-1.14,6.8-1.74,2.2,3.33,3.9,6.87,7.78,8.69-2.47,2.61-4.6,5.1-6.19,8.14,2.24,1.74,4.58,2.93,7.06,3.73,1.69-1.68,1.71-1.67,1.99-2.73.19-.71.31-1.44.5-2.15.61-2.28,1.83-2.99,4.06-2.46,1.78.42,3.58.74,5.36,1.18,1.63.4,3.38.57,4.59,1.76.51,5.76.5,7.93,2.58,10.39.99-.13,2.06-.3,3.14-.41,1.22-.13,2.44-.22,3.44-1.28.45-1.89.37-3.81-.52-5.66-.49-1.04-.72-2.06.04-3.32,1.99-.23,4.04-.53,6.1-.7,2.04-.17,3.93-1.32,6.12-.97.85,2.11,1.68,4.14,2.47,6.19.46,1.19,1.04,2.22,2.51,2.62,1.74-.51,3.59-1.05,5.45-1.6,0-.61.1-1.01-.02-1.33-.77-2.18-1.55-4.36-2.38-6.52-.74-1.96-.51-2.58,1.38-3.44.22-.1.48-.13.7-.24,2.85-1.41,5.56-2.99,7.01-6.29,3.16,1.7,6,3.84,9.47,4.85,1.42-2.44,2.13-4.99,2.88-7.71-.93-.51-1.75-1.02-2.63-1.41-1.12-.5-2.3-.85-3.41-1.36-1.9-.86-2.29-1.79-1.89-3.79.36-1.8.66-3.61.9-5.42.24-1.78.37-3.57.55-5.41,2.99-.57,5.84-1.11,8.81-1.67-.43-3.12-.57-6.03-1.47-8.87-.63-.06-1.11-.16-1.58-.13-1.71.12-3.42.33-5.13.44-1.94.13-3.02-.67-3.45-2.5-.11-.48-.19-.97-.23-1.45-.25-2.97-.94-5.78-3.1-8.22,3.01-2.1,6.65-2.7,9.56-5.02-2.67-2-2.94-5.44-5.21-7.62-3.14,1.42-5.49,4.48-9.3,3.97-1.2-3.86-4.19-6.13-6.69-8.81,1.75-3.22,3.4-6.33,4.79-9.51-2.7-2.01-3.15-2.22-6.04-2.87-.22.11-.51.16-.64.33-.95,1.27-1.87,2.56-2.79,3.86-2.33,3.3-2.58,3.38-6.35,2.08-3.37-1.16-6.74-2.26-10.4-1.77-.7.09-1.43-.13-2.07-.2-1.48-2.74-.66-5.97-2.44-8.68-2.75.37-5.5.73-8.4,1.12.79,2.8,1.55,5.47,2.24,7.93-1.83,2.5-4.5,3.03-6.71,4.29-2.01,1.15-2.44,1-4.08-.79-.66-.72-1.24-1.52-1.91-2.24-.82-.88-1.7-1.71-2.57-2.58-2.29.85-3.8,2.38-5.44,3.66,1.36,2.47,4.33,3.11,5.48,5.7-2.82,2.4-5.28,4.93-6.71,8.28Z"/>
    <path d="M71.67.26c1.37,2.45.19,4.75-.02,7.28-1.68-.55-.54-1.76-1-2.57-.26-.03-.66-.2-.91-.07-3.14,1.59-5.63,3.84-7.1,7.1-.44.97-.94,1.91-1.58,3.19-.5-4.48,4.02-9.6,9.84-12.87-.01-.66-.47-.71-.98-.74-.97-.06-1.95-.1-2.91-.27-.2-.03-.31-.57-.52-1.01,1.81-.43,3.48-.36,5.18-.04Z"/>
    <path d="M17.29,64.71c.33-2.3.53-4.62,1.02-6.89.62-2.89,1.61-5.65,3.75-7.86.5-.52.84-1.2,1.21-1.84,2.49-4.36,6.2-7.55,10.1-10.55,3.84-2.96,8.38-3.97,13.06-4.35,7.59-.62,14.56,1.33,20.89,5.54.81.54,1.62,1.14,2.28,1.85,5.27,5.69,10.21,11.63,13.03,18.97,1.85,4.81,3.11,9.82,3.72,14.93.56,4.7-.29,9.31-2.04,13.69-1.54,3.86-4.24,6.74-7.77,9.01-3.58,2.31-7.47,3.63-11.56,4.43-3.84.75-7.72,1.33-11.59,1.9-3.68.54-7.4.34-10.97-.55-5.06-1.27-9.62-3.58-12.91-7.88-4.26-5.58-7.64-11.66-10.35-18.12-1.22-2.9-1.92-8.27-1.86-12.3ZM85.19,77.72c-.22-1.82-.34-3.66-.68-5.45-.41-2.16-1.11-4.27-1.52-6.43-.99-5.28-3.27-9.96-6.41-14.26-.94-1.28-1.87-2.57-2.79-3.87-3.73-5.2-8.41-9.21-14.55-11.24-4.92-1.63-9.95-2.03-15.14-1.32-4.67.64-8.65,2.46-12.17,5.49-3.54,3.05-6.6,6.51-9.15,10.45-3.37,5.21-4.66,10.7-2.9,16.77.24.82.3,1.68.48,2.52.21.95.31,1.98.74,2.83,1.83,3.59,3.66,7.19,6.37,10.26,1.21,1.37,2.21,2.92,3.29,4.4,1.97,2.68,4.08,5.3,6.95,6.98,3.17,1.86,6.64,2.98,10.44,3.14,4.39.18,8.77.79,13.16,1.14,2.07.17,4.12.13,6.2-.3,3.17-.65,6.02-1.95,8.82-3.5,2.32-1.29,4.11-3.09,5.42-5.33,2.19-3.77,3.51-7.81,3.45-12.26Z"/>
    <path d="M69.65,73.76c.21,5.28-2.37,9.07-6.32,12.2-5,3.95-10.65,4.55-16.67,3.32-.47-.1-.95-.26-1.35-.51-5.43-3.51-9.88-7.94-12.93-13.72-1.35-2.56-1.7-5.36-2-8.11-.24-2.18.43-4.36,1.67-6.28,1.74-2.72,3.75-5.12,6.64-6.71,1.27-.7,2.64-1.27,3.54-2.55.3-.43.99-.72,1.55-.81,6.64-1.12,12.82.05,17.69,4.86,4.25,4.19,6.94,9.43,8.01,15.39.17.96.12,1.95.18,2.93ZM65.81,71.96c-.15-4.4-1.93-7.69-4.44-10.64-3.2-3.74-7.32-5.97-11.96-7.5-2.09-.69-3.84-.46-5.54.69-2.24,1.52-4.29,3.3-5.8,5.55-1.59,2.36-2.79,4.99-2.26,7.92.5,2.78,1.43,5.51,3.15,7.76,3.27,4.27,7.29,7.56,12.79,8.57,3.32.61,6.34.24,8.75-2.41.25-.27.51-.54.81-.74,3.45-2.3,3.95-5.96,4.5-9.21Z"/>
  </g>
</svg>