<?xml version="1.0" encoding="UTF-8"?>
<svg id="Layer_2" xmlns="http://www.w3.org/2000/svg" viewBox="0 0 60.86 149.47">
  <g id="Layer_1-2" data-name="Layer_1">
    <path d="M21.99,0c4.21,1.77,8.19,3.4,12.11,5.14.44.19.77.96.85,1.5.04.29-.53.75-.91.99-1,.63-2.71,0-3.16,2.09,4.4,3.14,9.04,6.13,14,8.64,1.34-2.61,1.33-2.62,3.84-3.69,2.64-1.13,5.27-2.29,7.94-3.32,1.82-.7,3.07,0,3.7,1.86.1.3.24.6.27.92,1.01,9.69-1.24,18.42-7.98,25.66-1.48,1.59-3.55,2.68-5.48,3.78-2.21,1.26-4.55,2.27-7.01,3.48.59,2.14,2.17,3.57,3.62,4.89,4.1,3.7,7.1,8.25,9.87,12.88,2.31,3.85,2.97,8.4,3.09,12.89.04,1.34-.6,2.83-1.3,4.03-1.77,3.04-3.78,5.94-6.75,7.98-.65.45-1.28.92-2.17,1.55,3.62,1.69,6.17,4.25,8.43,7.18,3.02,3.93,3.07,8.42,1.94,12.78-.7,2.69-2.64,5.1-4.85,7.01-3.98,3.44-8.04,6.79-12.06,10.18-.7.59-1.4,1.16-2.55,2.11,1.83.66,3.08,1.22,4.4,1.56,3.55.93,7.12,1.76,10.69,2.63.46.11.95.1,1.4.25,1.49.5,2.1,2.79.79,3.44-4.16,2.05-7.89,5.29-13.34,3.27-4.16-1.54-8.65-2.2-12.64-4.96-6.81,2.65-11.34,8.48-16.78,12.77-.78-.22-1.3-.24-1.66-.5-4.03-2.89-4.27-4.32-.83-8,3.26-3.49,6.6-6.96,10.92-9.23.25-.13.4-.48.71-.88-.18-1.19-1.46-1.38-2.21-2.07-.82-.76-1.55-1.62-2.42-2.32-3.74-2.99-5.95-7.02-7.78-11.31-.81-1.89-1.55-3.82-2.36-5.81.75-3.88,4.01-5.98,6.59-8.49,2.59-2.52,5.53-4.66,8.49-7.11-.75-.61-1.41-1.32-2.21-1.77-4.59-2.57-7.9-6.38-10.67-10.74-.94-1.48-1.77-3.06-2.89-4.39-2.78-3.31-3.16-7.29-3.09-11.28.02-1.45.94-3.06,1.86-4.27,1.93-2.54,4.04-4.96,6.26-7.25,1.2-1.24,2.74-2.16,4.19-3.13,1.05-.7,2.21-1.24,3.52-1.96-1.04-1.95-2.56-3.34-4.12-4.61-3.27-2.66-5.75-5.93-8.13-9.36-1.47-2.13-2.13-4.4-1.68-6.78.67-3.56,1.53-7.07,2.95-10.5,2.66-6.4,7.01-11.28,12.29-15.51.37-.29.6-.75.94-1.08.33-.33.72-.6,1.35-1.13ZM35.87,127.13c.42-.08.83-.16,1.25-.23-.14-.19-.27-.37-.41-.56-.25.29-.5.59-.76.88-.42.1-.85.2-1.27.31.17.16.34.32.51.48.23-.29.45-.58.68-.88ZM39.18,90.15c-4.59,1.74-9.16,3.52-13.76,5.23-5.64,2.1-9.86,6.02-14.57,11.02,1.55-.44,2.21-.46,2.67-.78,5.15-3.57,10.95-5.85,16.55-8.56,2.71-1.31,5.21-3.07,7.84-4.56.98-.56,1.03-1.5,1.27-2.39.44.15.92.51,1.31.43,1.58-.34,3.63-1.66,6.09-3.87-2.89,1.36-5.14,2.42-7.39,3.48ZM11.03,34.98c.05.4.11.81.16,1.21.17-.12.34-.23.51-.35-.26-.26-.52-.52-.77-.77.04-.47.23-.99.1-1.4-.96-2.9-.17-5.59.66-8.38,1.08-3.63,3.47-6.38,5.58-9.35,2.25-3.18,4.92-5.79,8.56-7.35,1.06-.45,1.99-1.21,3.32-2.04-2.22-1.59-4.25-2.36-6.37-3.23-6.73,4.89-11.26,11.29-14.16,18.87-1.09,2.86-1.28,5.93-.53,8.94.41,1.65.82,3.45,2.95,3.85ZM8.89,74.23c.28-.65.68-1.19.74-1.76.5-5.31,3.18-9.61,6.38-13.64,3.55-4.47,8.22-7.49,13.33-9.9,5.04-2.38,10.04-4.84,15.1-7.16,6.03-2.76,9.76-7.51,12.06-13.55.25-.66.27-1.4.53-2.88-1.99,2.3-3.39,4.03-4.9,5.66-7.18,7.74-16.02,13.04-25.55,17.33-3.05,1.37-6.15,2.69-9.03,4.36-2.04,1.18-3.83,2.83-5.58,4.44-1.4,1.29-2.57,2.83-3.83,4.28-3.4,3.92-3.18,8.5.76,12.82ZM45.16,33.89c-1.23-1.07-1.94-1.93-2.84-2.44-7.83-4.42-15.77-8.61-23.83-12.21-2.72,2-2.44,4.29-1.31,6.58.76,1.54,1.83,2.93,2.59,4.11,7.85,2,15.34,3.92,23.2,5.93.56-.51,1.26-1.13,2.19-1.96ZM21.05,16.13c1.51,1.16,2.92,2.1,4.45,2.89,6.49,3.35,12.97,6.73,19.48,10.06.62.32,1.39.36,2.38.59.11-1.75.19-3.14.3-4.8-1.68-1.17-3.34-2.37-5.04-3.49-3.98-2.61-8-5.18-11.99-7.78-1.18-.77-2.33-1.6-3.52-2.43-2.57,1.01-4.51,2.48-6.05,4.96ZM26.69,81.73c3.78,2.77,3.77,2.74,7.5,1.63,1.68-.5,3.41-.82,5.09-1.3,3.65-1.04,7.29-2.14,11.05-3.24.4-2.64.01-4.78-2.71-6.11-3.51,1.42-7.07,2.81-10.58,4.3-3.45,1.46-7.08,2.58-10.35,4.73ZM22.63,80.1c7.64-4.14,15.7-6.29,23.06-10.48-1.21-1.98-2.67-3.09-4.6-4.06-3.6,1.97-7.21,3.96-10.85,5.92-3.59,1.93-7.43,3.38-11.1,5.51.48.66.68,1.1,1.02,1.37.74.59,1.54,1.09,2.47,1.74ZM15.91,74.89c8.06-3.59,15.64-6.94,22.65-11.67-1.45-1.99-2.83-2.8-4.99-1.55-1.5.86-3.2,1.37-4.81,2.04-5.11,2.12-10,4.68-15.13,7.35.74,1.25,1.36,2.29,2.29,3.84ZM17.52,106.48c9.97,1.74,19.47,3.41,29.17,5.11.68-1.09,1.9-2.02,1.19-3.82-1.64-.98-3.61-.88-5.47-1.08-5.37-.58-10.75-1.07-16.14-1.49-2.21-.17-4.45-.15-6.67-.03-.61.03-1.18.72-2.08,1.32ZM44.04,114.99c-6.07-1.31-11.5-2.58-16.96-3.61-2.65-.5-5.39-.58-8.09-.8-.23-.02-.5.33-1,.69.33.75.69,1.55.96,2.17,8.07.7,15.46,3.35,23.22,4.73.54-.92,1.01-1.71,1.87-3.17ZM20.97,117.05c.35,2.39,1.37,3.7,3.5,4.28,3.17.87,6.28,1.95,9.39,2.94,1.4-.79,3.1-.91,3.95-2.87-5.55-2.01-10.99-3.66-16.84-4.35ZM38.15,38.67c-6.39-2.67-11.88-4.11-15.2-3.75,3.18,2.93,5.39,6.27,9.69,7.28,1.78-1.12,3.97-1.7,5.51-3.53ZM49.22,17.65c.49,3.2.96,6.31,1.45,9.4.01.09.22.14.6.37,2.21-1.35,3.1-3.73,3.91-6.04.7-2,1.26-4.14.3-6.4-2.49.39-4.39,1.39-6.26,2.66ZM9.84,144.65c1.64,1.62,2.45.72,3.3.01,3.77-3.16,7.54-6.31,11.29-9.48.3-.26.46-.68.87-1.33-.83-.22-1.51-.64-1.9-.46-5.4,2.56-9.64,6.52-13.56,11.26ZM32.2,58c-1.79.14-3.09.05-4.27.37-2.59.71-5.08,1.8-7.69,2.41-3.01.71-4.26,2.84-5.34,5.27.34.26.51.47.58.44,5.21-2.32,10.4-4.65,15.59-7.01.24-.11.37-.47,1.12-1.48ZM27.27,101.74c.87.3,1.29.54,1.72.58,4.93.41,9.86.78,14.79,1.16.69.05,1.22-.04,1.09-.99-1.94-.66-3.88-1.41-5.88-1.97-1.83-.52-3.71-.95-5.59-1.22-2.37-.35-4.14.89-6.14,2.45ZM51.89,109.04c-2.11,3.07-4.09,5.94-6.05,8.82-.35.52-.65,1.1.02,1.64,2.48-1.51,5.57-4.33,6.55-6.03.88-1.51,1.16-2.97-.52-4.43ZM38.4,87.8c2.55-2.22,6.22-1.9,9.47-4.96-3.88.94-6.76,1.6-9.62,2.34-.83.22-1.61.64-3.01,1.21,1.29.57,1.97.88,3.16,1.41ZM23.79,55.86c1.67.65,2.77-.42,3.94-1.12.17-.1.27-.6.17-.81-.1-.22-.53-.47-.73-.42-1.35.4-2.53,1.06-3.38,2.35ZM39.41,124.68c.02.1.02.26.08.29.11.06.26.04.39.05-.03-.16-.06-.32-.09-.48-.13.05-.25.09-.38.14Z"/>
    <path d="M.41,49.43c-.14-.17-.27-.35-.41-.52.24-.12.48-.31.72-.32.12,0,.25.33.38.51-.23.11-.46.22-.69.33Z"/>
  </g>
</svg>