<?xml version="1.0" encoding="UTF-8"?>
<svg id="Layer_2" xmlns="http://www.w3.org/2000/svg" viewBox="0 0 30.24 28.07">
  <g id="Layer_2-2" data-name="Layer_2">
    <path d="M19.07,28.07c-2.53-1.86-5.24-1.12-7.84-1.08-3.06.04-6.12.33-9.18.48-.58.03-1.17-.09-1.72-.13-.19-1.04.48-1.18,1.06-1.22,4.03-.32,8.06-.61,12.09-.89,1.32-.09,2.69.15,4.06-.48.91-2.85.16-5.81.88-9.16-1,.7-1.67,1-2.1,1.5-.88,1.02-1.59,2.18-2.45,3.22-1.14,1.37-2.22,1.48-3.42.28-1.21-1.21-2.36-2.49-3.42-3.84-.4-.51-.45-1.29-.68-2.01,1.82-.8,3.25-.89,4.35.83.39.61.9,1.14,1.45,1.83,2.37-1.87,3.64-4.28,5.86-5.94-.51-.49-.73-.92-.99-.93-4.88-.33-9.75-.28-14.55-.08-.83,1.34-.58,2.59-.55,3.78.08,2.94.23,5.88.32,8.81.02.73.06,1.52-.97,1.71-.14-.13-.42-.27-.43-.42-.29-4.86-.56-9.73-.83-14.57,2.23-1.36,4.53-.79,6.66-1.11,2.15-.32,4.4-.03,6.59-.11,2.19-.08,4.38-.51,6.61.53,3.25-2.88,6.21-6.08,9.69-9.08.81,1.07.93,1.98.25,2.8-1.01,1.23-2.14,2.36-3.26,3.5-1.89,1.92-3.8,3.84-5.74,5.71-1.05,1.01-1.44,2.17-1.44,3.62.01,3.43-.09,6.87-.15,10.3-.01.61-.08,1.21-.15,2.14Z"/>
  </g>
</svg>