<?xml version="1.0" encoding="UTF-8"?>
<svg id="Layer_2" xmlns="http://www.w3.org/2000/svg" viewBox="0 0 175.99 199.54">
  <g id="Layer_2-2" data-name="Layer_2">
    <path d="M149.97,0c2.04,1.97,3.22,4.46,3.95,7.2,1.6,6.03,2.63,12.17,3.54,18.34.84,5.67,2.55,11.2,3.59,16.85.51,2.78,1.15,5.5,1.85,8.23,1.06,4.15,1.94,8.34,3.06,12.48,1.35,4.97,2.24,10.03,3.26,15.06.81,3.96,1.81,7.87,2.71,11.81.54,2.39,1.11,4.77,1.56,7.17.48,2.54,1.19,5,2.18,7.38.18.43.2.94.31,1.47-2.12,3.06-4.81,5.54-7.55,7.97-1.28,1.14-2.68,2.16-3.93,3.32-3.05,2.82-6.68,4.48-10.67,5.44-9.82,2.35-19.79,3.52-29.87,3.51-3.77,0-7.55-.68-11.32-1.05-.24-.02-.48-.13-.72-.13-6.11-.12-11.74-2.18-17.38-4.26-3.44-1.27-6.97-2.33-10.46-3.46-.7-.23-1.42-.43-2.15-.49-3.65-.33-7.31-.76-10.97-.85-2.05-.05-4.13.45-6.17.8-6.09,1.06-11.9,3.07-17.16,6.27-5.82,3.53-10.82,7.98-13.8,14.33-.5,1.06-.61,2.03-.37,3.18,1.72,8.52,3.73,16.97,5.77,25.42,1.72,7.15,3.97,14.13,6.22,21.12.37,1.15,1.01,2.2,1.51,3.31.45,1,1.03,1.97,1.27,3.02.39,1.71-.37,3.42-1.88,4-2.28.87-4.54,1.91-7.02,2.06-.94.06-1.9-.16-2.77-.24-1.72-2.91-1.96-6.03-2.68-8.97-.72-2.97-1.15-5.98-2.53-8.78-.57-1.16-.56-2.61-.84-3.91-1.58-7.18-3.31-14.32-4.72-21.53-1.37-6.96-2.53-13.97-3.59-20.98-1.82-12.12-3.76-24.2-6.19-36.22-1.33-6.59-2.19-13.28-3.34-19.91-1.35-7.84-2.73-15.67-4.2-23.48-.98-5.18-2.14-10.32-3.26-15.46-.18-.81-.55-1.58-.78-2.24-1.56-.55-3,1.23-4.42-.33.26-2.49,1.53-4.59,3.53-6.07,2.78-2.06,5.82-3.65,9.51-3.19,2.11.26,3.27,2.12,1.85,3.54-1.87,1.87-1.55,3.65-.87,5.69.12.35.2.7.33,1.16.34-.15.76-.19.92-.41,4.54-6.46,10.48-11.28,17.53-14.72,3.41-1.66,6.93-3.11,10.42-4.61.78-.34,1.62-.56,2.45-.73,1.68-.33,3.4-.47,5.06-.87,4.11-.98,8.23-1.23,12.41-.63,3.15.46,6.35.66,9.44,1.35,3.69.82,7.3,2.03,10.93,3.11,4.58,1.35,9.12,2.85,13.72,4.08,4.15,1.11,8.48,1.2,12.73,1.67.85.09,1.73.02,2.57.17,8.33,1.49,15.73-1.04,22.7-5.31,1.86-1.14,3.92-2.07,4.96-4.2.15-.3.51-.55.82-.7,2.54-1.18,3.72-3.47,4.75-5.84,1.17-2.71,2.02-5.52,2.18-8.5.07-1.26.65-2.05,2.01-2.46ZM11.76,36.11c-2.36,1.24-3.87,2.63-3.7,5.22.05.85-.02,1.73.11,2.56.59,3.62,1.2,7.24,1.86,10.85.53,2.89,1.25,5.75,1.73,8.65,1.06,6.39,1.97,12.81,3.04,19.21,1.21,7.24,2.51,14.47,3.82,21.7,1.13,6.26,2.6,12.47,3.44,18.77,1.24,9.23,2.66,18.43,4.33,27.59,1.96,10.72,4.43,21.32,7.28,31.84.67,2.48,1.12,5.02,1.77,7.5.52,1.98.7,4.08,1.73,5.82,3.29.27,5.95-.54,8.09-3.27-.28-.98-.55-2.03-.89-3.06-1.13-3.48-2.4-6.92-3.41-10.44-2.72-9.53-5.16-19.14-7.16-28.85-1.59-7.67-3.01-15.37-4.61-23.04-1.17-5.63-2.57-11.2-3.74-16.83-.9-4.31-1.74-8.65-2.39-13.01-.78-5.21-1.53-10.41-2.64-15.56-1-4.67-1.87-9.36-2.74-14.06-1.49-8.07-2.92-16.14-4.41-24.21-.44-2.39-.98-4.76-1.52-7.39ZM110.11,88.66c-.95,2.2-.86,4.18-1.01,6.12-.16,1.95-.25,3.91-.48,5.85-.66,5.59-1.39,11.18-2.08,16.76-.21,1.7-.26,3.4.36,5.01,2.39,1.08,4.86,1.1,7.28,1.37,4.5.5,9.01,1.02,13.56.82.8-.04,1.59-.29,2.39-.44.12-4.04.27-7.83.34-11.63.13-7.59.22-15.18.29-22.77.02-1.78-.17-3.56-.56-5.62-3.23,1.83-6.2,3.62-9.7,3.79-3.39.16-6.63,1.98-10.38.74ZM151.92,80.66c0,3.78.15,7.44-.03,11.09-.43,8.34-.15,16.67,0,25,.03,1.56-.05,3.19.96,4.63.73-.14,1.49-.17,2.16-.43,1.14-.43,2.25-.97,3.35-1.51,4.02-1.98,7.23-5.03,10.48-8,1.44-1.32,2.76-2.78,4.04-4.25.76-.87.94-1.93.67-3.11-.81-3.45-1.53-6.93-2.33-10.38-.97-4.18-2.04-8.33-2.96-12.51-.68-3.11-1.17-6.26-1.79-9.39-.11-.54-.43-1.04-.72-1.7-4.98,3.35-8.59,8.03-13.83,10.57ZM31.05,57.82c6.51-.41,16.25-2.73,20.52-5.06.05-.95.23-2.04.13-3.11-.2-2.19-.6-4.36-.83-6.55-.55-5.24-1.05-10.48-1.56-15.72-.25-2.52-.61-5.03-1.13-7.73-7.39,1.4-13.79,4.53-19.95,8.31-.15,1.12-.38,2.09-.37,3.05.02,2.2.04,4.42.29,6.6.67,5.84,1.45,11.67,2.23,17.5.12.93.45,1.84.67,2.72ZM52.98,54.91c.63,8.32.99,16.75,2.44,25.09.2,1.18.58,2.33.86,3.45,3.05-.3,5.83-.88,8.59-.77,2.86.11,5.69.88,8.79,1.4-.22-3.45-.53-6.85-.63-10.26-.1-3.3.11-6.61-.03-9.91-.14-3.4.36-6.82-.3-10.12-1.79-.89-3.4-1.78-5.08-2.51-4.38-1.9-8.55-1.9-12.27,1.56-.71.66-1.46,1.27-2.37,2.07ZM94.73,26.49c-3.19-1.04-6.17-2.1-9.22-2.98-3-.87-5.76-2.7-9.26-2.4-.52,10.1-1.02,20.08-1.54,30.25,2.45,1.99,5.66,1.69,8.55,2.38,2.99.71,6.02.36,9.03.13.98-2.23,1.21-4.4,1.42-6.59.33-3.51.04-7.04.67-10.58.57-3.21.26-6.57.35-10.22ZM36.04,94.37c.99,4.94,1.77,9.9,3,14.75,1.25,4.93,1.67,10.05,3.22,14.99,5.15-2.67,10.1-5.23,15.16-7.86-.06-.96-.02-1.94-.19-2.89-1.54-8.42-2.63-16.89-2.89-25.46-.02-.54-.39-1.06-.66-1.75-3.16,1.21-6.18,2.18-9.05,3.51-2.85,1.32-5.53,3.01-8.59,4.7ZM109.3,87.23c1.01-2.34,1.08-4.63,1.08-6.96,0-2.32.08-4.65.15-6.97.07-2.32.15-4.65.25-6.97.1-2.28.24-4.56.37-6.94-5.8-1.26-11.16-3.37-17.22-3.71-.09,2.04-.23,3.84-.24,5.65-.03,7.92-.83,15.87.9,23.72,2.16.83,8.82,2.16,12.2,2.38.82.05,1.65-.12,2.51-.19ZM145.93,45.19c-2.39,1.69-4.49,3.35-6.76,4.73-2.26,1.38-4.7,2.48-6.87,3.6.08,2.57.19,4.88.22,7.18.02,2.21-.15,4.42-.05,6.62.11,2.32.49,4.62.66,6.94.16,2.25.2,4.5.3,6.78,5.48-1.01,10.82-1.56,16.14-3,.49-11.25-1.54-22-3.64-32.86ZM88.95,116.86c.19-.95.39-1.63.46-2.31.23-2.55.33-5.12.63-7.66.6-4.97,1.36-9.93,1.92-14.9.2-1.77.48-3.63-.43-5.43-.77-.09-1.49-.27-2.2-.23-4.49.25-8.98.72-13.37-.59-1.84,6.76-1.81,22.85.06,28.62,4.16.9,8.67.45,12.94,2.51ZM113.07,57.56c3.15-.35,5.96-1.02,8.75-1.89,2.05-.64,3.95-1.82,6.26-1.66,1.11.08,1.8-.8,1.72-1.92-.1-1.58-.31-3.16-.54-4.73-.57-3.99-1.18-7.98-1.77-11.96-.25-1.69-.45-3.39-.76-5.07-.12-.67-.45-1.31-.74-2.14-2.21.26-4.26.46-6.3.76-2,.3-4.11-.3-6.26.65.39,9.34-.73,18.56-.37,27.96ZM33.96,91.8c-.26-5.09-1.46-10.08-2.17-15.13-.72-5.15-1.61-10.27-2.44-15.46-1.94.17-3.65.17-4.58,2.08-.17.34-.84.43-1.26.66-1.39.74-2.77,1.49-4.2,2.27.04.89-.01,1.62.13,2.32.72,3.59,1.54,7.16,2.23,10.75.71,3.72,1.3,7.45,1.96,11.18.19,1.08.38,2.16.66,3.22.26.99-.19,2.23.99,3.08,2.75-1.57,5.49-3.14,8.69-4.97ZM147.09,40.27c3.95-1.13,6.67-4.02,10.47-5.23-.17-1.32-.26-2.52-.48-3.69-.72-3.85-1.5-7.69-2.23-11.53-.62-3.24-1.11-6.52-1.83-9.73-.46-2.02-1.21-3.98-1.92-5.93-.18-.49-.71-.85-1.21-1.41-.63,2.28-1.21,4.27-1.74,6.28-.77,2.9-2.07,5.47-4.18,7.64-.75.77-1.27,1.75-1.89,2.61.97,3.62,1.96,7.03,2.78,10.47.82,3.41,1.46,6.86,2.23,10.52ZM14.43,30.24c-3.17-.91-5.36-.24-7.5,1.03-2.98,1.77-3.38,2.2-3.7,4.47,4.22-.35,7.58-2.29,11.21-5.5Z"/>
  </g>
</svg>