<?xml version="1.0" encoding="UTF-8"?>
<svg id="Layer_2" xmlns="http://www.w3.org/2000/svg" viewBox="0 0 101.38 69.04">
  <g id="Layer_2-2" data-name="Layer_2">
    <g>
      <path d="M7.14,9.92c-.21-2.43-.39-4.56-.56-6.53.21-.22.24-.3.3-.32,2.42-.78,4.79-1.98,7.26-2.23,4.63-.47,9.32-.43,13.99-.53C34.73.16,41.34-.02,47.95,0c3.47.01,6.94.53,10.42.63,5.48.17,10.97.14,16.46.28,2.21.06,4.42.47,6.63.55,2.49.1,4.98-.07,7.47.02,1.58.06,3.18.29,4.73.61,1.55.32,2.58,1.32,2.94,2.92.15.68.36,1.35.45,2.04.78,6.15,1.57,12.3,2.3,18.46.37,3.11.63,6.24.91,9.36.35,3.88.72,7.77,1.02,11.66.32,4.27-.19,8.47-1.15,12.64-.66,2.87-2.99,4-5.21,4.9-1.69.68-3.58,1.27-5.53,1.27-1.88,0-3.76.06-5.64.19-6.88.46-13.75,1.03-20.64,1.42-3.54.2-7.11-.04-10.66.14-3.69.19-7.37.14-11.06.15-2.76.01-5.51.67-8.28.86-5.2.35-10.41.55-15.62.86-2.72.16-5.39.11-8.11-.38-4.27-.77-7.73-3.9-8.24-8.21-.34-2.83-.48-5.7-.51-8.55-.08-5.85.05-11.71-.06-17.57C.46,27.57.15,20.88,0,14.19c-.02-1,.26-2.07.64-3.01.45-1.14,1.63-1.17,2.65-1.24,1.23-.08,2.46-.02,3.85-.02ZM95.49,62.57q.92-1.19,1.01-2.67c.53-7.67.63-15.33-.28-22.98-.52-4.36-1.19-8.7-1.84-13.04-.13-.89-.44-1.76-.77-2.61-.42-1.09-1.15-1.96-2.34-2.19-1.35-.27-2.73-.46-4.1-.59-1.32-.12-2.65-.04-3.96-.17-3.49-.34-6.96-.26-10.43.18-1.72.22-3.44.45-5.16.72-3.58.58-7.15,1.08-10.8.96-2.42-.08-4.85-.07-7.27.03-4.38.19-8.75.49-13.12.71-1.45.07-2.66-.26-3.59-1.62-1.25-1.83-2.73-3.52-4.12-5.25-1.21-1.5-2.53-2.8-4.67-2.73-.68.02-1.37-.03-2.05,0-2.09.06-4.19.34-6.26.15-2.85-.27-5.68-.34-8.53-.15-.48.03-.97-.02-1.46-.06-4.09-.41-4.75.23-4.64,4.39.13,4.53.27,9.06.34,13.58.11,7.45.09,14.91.25,22.36.06,2.99.39,5.98.69,8.96.34,3.44,2.91,5.29,5.62,6.46,2.02.88,4.5.89,6.78.95,2.99.08,5.99-.12,8.98-.27,2.64-.13,5.29-.32,7.92-.55,2.97-.26,5.93-.72,8.91-.88,3.26-.18,6.54-.08,9.81-.17,5.71-.15,11.42-.29,17.13-.54,3.83-.17,7.65-.49,11.47-.78,3.4-.26,6.76-.84,10.2-.65,1.32.07,2.68-.61,4.02-.95.7-.18,1.41-.38,2.24-.6ZM79.8,6.95c-3.78-.06-7.37-.14-10.96-.17-2.43-.02-4.85.04-7.28.05-2.09,0-4.17-.05-6.26,0-4.38.09-8.75.34-13.12-.41-2.12-.36-4.28-.65-6.42-.7-3.88-.09-7.77.02-11.66.04-1.65,0-3.29,0-5.25,0,.07,1.48.13,2.94.2,4.55.86-.11,1.53-.21,2.21-.29,3.16-.38,5.88.18,7.82,3.1,1.19,1.79,2.78,3.3,4.1,5.01.96,1.24,2.12,1.59,3.65,1.47,4.65-.35,9.31-.6,13.97-.86,1.11-.06,2.25-.18,3.34-.03,3.99.56,7.91.13,11.83-.54,1.57-.27,3.14-.63,4.72-.79,3.44-.34,6.88-.59,10.42-.88-.44-3.18-.86-6.25-1.32-9.56ZM97.68,60.48c.13.1.26.21.39.31l.6-1.03c-.08-.05-.15-.11-.23-.16-.26.29-.52.58-.77.88ZM100.22,48.44s-.04,0-.06,0v1.1s.04,0,.06,0v-1.1Z"/>
      <path d="M90.48,59.48c-4.05.16-7.88.28-11.69.47-3.79.19-7.58.45-11.66.7-.59-3.71-1.21-7.45.07-11.07,5.61-.23,11.08-.53,16.54-.64,1.92-.04,3.86.38,5.96.61.9,3.35.8,6.7.79,9.93ZM68.8,56.69h19.14c-.1-2.1-.19-4.07-.29-6.05-6.45-1.29-12.57.22-18.86.06v5.98Z"/>
      <path d="M63.08,14.12c-.55-.62-.99-1.13-1.46-1.62-.42-.44-.88-.85-1.42-1.36-1.14,1.21-2.17,2.3-3.19,3.37-1.74-.36-1.99-2.02-3.21-3.01-.59.5-1.19,1.02-1.8,1.54-.73-1.24-.58-1.49,1.69-2.8,1.59.35,1.49,2.29,2.97,3.09,1.03-1.1,2.09-2.24,3.35-3.59.9.87,1.81,1.74,2.87,2.76.91-1.17,1.77-2.29,2.75-3.55.61.58,1.11,1.04,1.58,1.52.47.49.9,1.01,1.62,1.83.72-1.03,1.32-1.88,2.01-2.85,1.05.66,1.79,1.13,2.67,1.68.59-.68,1.2-1.39,1.9-2.2.86.67,2.18.8,1.84,2.48-.69-.39-1.26-.72-2.04-1.17-.26.91-.48,1.67-.75,2.6-1.03-.65-2-1.26-3.08-1.94-.95.88-1.84,1.7-2.81,2.59-.94-1.11-1.74-2.05-2.66-3.14-.93,1.23-1.78,2.37-2.84,3.78Z"/>
      <path d="M65.68,14.25c-.91.99-1.92,2.08-3.07,3.34-.98-.78-1.83-1.46-2.77-2.21-1.04.36-1.68,1.88-3.12,1.5-1.13-.3-2.22-.73-3.54-1.18-.26.3-.67.78-1.19,1.39-.78-1.28.28-2.01.36-3.27.83.42,1.45.65,2,1.01,2.18,1.44,2.9,1.35,4.73-.6.13-.14.35-.2.73-.41.85.8,1.74,1.63,2.77,2.58,1.01-1.18,2.02-2.37,3.11-3.65,1.14.82,2.19,1.57,3.36,2.41,1-.85,1.97-1.67,3.05-2.59.89.67,1.71,1.27,2.63,1.96.48-.76.91-1.44,1.49-2.36.81.69,1.54,1.3,2.26,1.92-.08.15-.17.29-.25.44-.61-.17-1.22-.34-1.85-.51-.48.57-.96,1.14-1.6,1.9-.91-.72-1.76-1.38-2.51-1.97-1.14.73-2.18,1.88-3.28,1.96-1.03.07-2.13-1.01-3.31-1.64Z"/>
    </g>
  </g>
</svg>