<?xml version="1.0" encoding="UTF-8"?>
<svg id="Layer_2" xmlns="http://www.w3.org/2000/svg" viewBox="0 0 99.78 73.84">
  <g id="Layer_2-2" data-name="Layer_2">
    <g>
      <path d="M6.76,19.92c-.43-3.07-.85-6.08-1.26-9.06.94-1.54,2.22-2.28,4.01-2.2,1.46.07,2.92.04,4.39.05.75,0,1.51,0,2.3,0-.11-2.54-.21-4.88-.33-7.51,1.96.15,3.72.3,5.48.41,5.91.38,11.81-.04,17.71-.35.76-.04,1.55-.12,2.29,0,4.03.7,8.05.42,12.07-.02.35-.04.7-.05,1.04-.07,7.72-.4,15.44-.84,23.16-1.17,1.65-.07,3.33.22,4.98.43.9.11,1.27.78,1.23,1.66-.05,1.1-.12,2.21-.19,3.46,2.35-.17,4.54-.39,6.73-.47,2.4-.09,3.32.57,3.89,2.88.35,1.41.39,2.88.64,4.32.38,2.19.96,4.35,1.21,6.54.29,2.47.29,4.97.45,7.45.05.83.21,1.64.32,2.47.79,6,1.61,11.99,2.36,17.99.18,1.45.16,2.92.22,4.39.08,1.95.11,3.9.25,5.84.23,3.32-.42,6.51-1.3,9.67-.12.44-.44.84-.67,1.27-.49-.09-.88-.15-1.4-.25-1.39,2.65-3.88,3.37-6.64,3.54-1.11.07-2.23.27-3.34.19-5.4-.4-10.7.57-16.04,1-5.61.45-11.23,1-16.89.59-1.65-.12-3.33.1-5,.16-5.15.19-10.3.4-15.46.55-2.44.07-4.9-.2-7.32.03-3.27.31-6.46.03-9.69-.46-1.9-.29-3.89-.23-5.82-.12-4.04.23-6.83-1.86-7.24-5.95-.56-5.69-.97-11.39-1.25-17.1-.27-5.43-.75-10.83-1.4-16.23-.38-3.17-.47-6.36.21-9.56.53-2.49,1.94-3.72,4.36-4.01.54-.07,1.07-.2,1.9-.35ZM33.6,28.86c-1.62-2.31-3.12-4.32-4.47-6.42-.72-1.12-1.59-1.38-2.82-1.25-1.66.17-3.33.27-5,.27-5.07.02-10.14-.04-15.22-.02-2.87.01-3.67.62-4.41,3.42-.91,3.44-.54,6.92-.15,10.38.35,3.11.79,6.22,1.02,9.34.51,7.02.91,14.04,1.37,21.06.17,2.55.75,4.85,3.63,5.67.19.05.35.22.5.37.61.58,1.27.62,2.11.53,1.58-.17,3.19-.22,4.77-.14,4.15.22,8.28,1.13,12.45.26.26-.05.55.05.83.06,1.73.1,3.48.39,5.2.26,4.37-.33,8.73-.79,13.12-.7,3.06.06,6.13-.04,9.2-.15,3.96-.13,7.93-.24,11.89-.52,6.18-.44,12.32-1.31,18.53-1.31,2.07,0,4.19-.24,6.2-.72,2.45-.59,4.29-3.62,4.01-5.9-.41-3.38-.83-6.77-1.05-10.16-.32-5-.53-10.02-1.45-14.95-.39-2.11-.96-4.21-1.74-6.2-.37-.94-1.3-1.9-2.22-2.32-1.3-.6-2.82-.94-4.25-.98-3.13-.07-6.27.07-9.4.23-3.96.2-7.91.64-11.87.73-6.89.15-13.78.11-20.66.15-.28,0-.56-.01-.83.02-3.22.31-6.4.29-9.29-1ZM28.83,19.98c1.51,2.22,3,4.32,4.39,6.47.97,1.51,2.41,2.03,4.05,2.17,1.04.09,2.08.07,3.12.08,2.86.03,5.71.11,8.57.06,2.28-.04,4.56-.27,6.84-.35,4.79-.17,9.59-.28,14.38-.43,1.11-.03,2.22-.13,3.32-.19,2.01-.1,4.01-.16,6.02-.28,1.5-.09,3.04.25,4.73-.43-.6-8.38-1.21-16.74-1.83-25.3-1.72-.18-3.23-.51-4.73-.46-7.72.29-15.43.67-23.15,1.03-.56.03-1.11.17-1.66.18-3.19.08-6.42.44-9.58.13-3.42-.33-6.8-.23-10.21-.13-3.52.11-7.04.16-10.56.21-1.78.03-3.56,0-5.31,0-.31,2.01.88,15.79,1.47,17.21h10.12Z"/>
      <path d="M88.69,55.25c.65,2.7,1.33,5.24,1.82,7.8.14.75-.27,1.61-.42,2.44-1.64.48-3.12.77-4.78.65-3.12-.23-6.27-.13-9.4-.09-2.28.02-4.57.13-6.85.25-1.94.1-2.49-.36-2.6-2.31-.11-1.81-.18-3.62-.39-5.41-.14-1.2.08-2.19,1.15-3.24,2.36-.05,4.92-.08,7.48-.16,2.99-.1,5.98-.33,8.97-.35,1.65-.01,3.3.27,5.04.43ZM69.22,62.23c.98.16,1.84.43,2.71.43,2.84-.01,5.66-.32,8.52.02,2.24.27,4.55.05,7.1.05-.37-2.03-.76-4.11-1.17-6.36-.98-.13-1.86-.37-2.73-.35-4.38.11-8.76.28-13.14.44-.48.02-.95.11-1.57.18.09,1.84.18,3.62.28,5.58Z"/>
      <path d="M43.21,22.35c-.77.65-1.5,1.27-2.3,1.96-.96-.58-1.89-1.15-2.98-1.82-.51.89-.96,1.69-1.45,2.55-.72-1.2-.68-1.34.99-3.83.56.21,1.2.39,1.79.68.55.27,1.05.65,1.63,1.02.85-.73,1.63-1.39,2.59-2.21.88.99,1.68,1.9,2.46,2.79.94-.68,1.77-1.72,2.69-1.81.81-.08,1.73.92,2.66,1.47.47-.72.96-1.44,1.54-2.32,1.12.86,2.15,1.65,3.16,2.44q2.45-1.86,5.27.44c.54-.95,1.08-1.88,1.77-3.1,1.04.98,1.96,1.85,3.02,2.84.64-.78,1.22-1.51,1.89-2.32,1.06.6,2.07,1.16,3.13,1.77.49-.82.93-1.56,1.47-2.47.89.45,1.61.82,2.35,1.2,2.33-1.48,2.93-1.35,4.35,1.01-1.13,1.01-1.64-.46-2.58-.67-.42.36-.88.76-1.46,1.25-.72-.38-1.43-.74-2.25-1.17-.37.71-.71,1.37-1.06,2.03-1.54.32-2.52-.72-3.85-1.41-.49.86-.99,1.71-1.61,2.79-1.09-1.04-2.07-1.97-3.18-3.03-.6,1.06-1.12,1.98-1.78,3.13-.67-.68-1.15-1.15-1.62-1.63-1.19-1.22-1.48-1.22-2.63.05-.18.2-.27.49-.28.51-1.87.12-2.65-1.13-3.88-2.04-.47.92-.88,1.73-1.43,2.81-1.01-.93-1.93-1.78-3.05-2.81-.84.92-1.57,1.71-2.37,2.58-1.48-.19-1.64-1.92-3.01-2.68Z"/>
      <path d="M72.01,13.88c.52-.9,1-1.72,1.5-2.58,1.63-.32,1.83,1.41,2.89,2.14.67-.62,1.31-1.22,2.02-1.87.92.59,1.63,1.22,1.48,2.69-.62-.37-1.04-.62-1.45-.86-.75.44-1.54,1.28-2.23,1.2-.7-.08-1.31-1.06-2.08-1.76-.56.8-1.13,1.62-1.83,2.61-1.13-.71-2.22-1.4-3.37-2.12-.57.61-1.09,1.15-1.64,1.73-1.49-.08-1.9-1.7-3.14-2.3-.47.79-.92,1.53-1.36,2.26-1.99-.34-2.35-2.45-4.07-3.3-.59,1.22-1.16,2.44-1.77,3.65-.35.69-.38.67-1.47.33.91-1.77,1.81-3.53,2.74-5.35,1.84.3,2.56,2.04,4.03,3.09.47-.74.89-1.4,1.29-2.04,1.54-.04,2.09,1.37,3.01,1.85,1.01-.46,1.95-1.26,2.78-1.15.9.12,1.68,1.08,2.66,1.78Z"/>
      <path d="M70.84,9.58c.95-.56,1.84-1.09,2.93-1.74.71.5,1.49,1.05,2.38,1.68.37-.44.74-.9,1.32-1.59.55.58,1.04,1.12,1.52,1.63-1,.53-1.77.94-2.78,1.48-.68-.5-1.56-1.15-2.42-1.78q-2.84,1.91-5.53-.46c-.5.81-1.01,1.65-1.53,2.48-1.99-.13-2.66-1.78-3.96-2.22-.55.57-1.11,1.13-1.65,1.7-1.1-.71-2.02-1.31-3.11-2.02-.75,1.14-1.41,2.15-2.1,3.2-.71-1.22.03-2.98,1.94-4.57.99.56,2.05,1.15,3.18,1.78.48-.55.93-1.07,1.52-1.76,1.13.78,2.24,1.54,3.4,2.34.91-.84,1.71-1.58,2.68-2.48.73.77,1.38,1.46,2.21,2.35Z"/>
    </g>
  </g>
</svg>