<?xml version="1.0" encoding="UTF-8"?>
<svg id="Layer_2" xmlns="http://www.w3.org/2000/svg" viewBox="0 0 96.04 70.53">
  <g id="Layer_2-2" data-name="Layer_2">
    <path d="M0,14.34c1.82-2.56,4.49-1.66,6.92-1.8.11-.68.23-1.14.26-1.61.08-.98.02-1.97.18-2.94.76-4.66,1.12-5.18,5.69-5.61,2.19-.2,4.41-.09,6.61-.13,4.78-.07,9.56-.1,14.34-.25,2.07-.07,4.17-.24,6.21-.62,4.7-.88,9.48-.9,14.21-1.13,7.94-.39,15.9-.25,23.85-.12,3.79.06,7.57.51,11.34.97,2.65.32,3.44,1.13,3.45,3.83.02,4.03,1,7.96.86,12.02-.1,2.91.53,5.84.81,8.76.24,2.56.53,5.12.66,7.69.28,5.25.63,10.51.65,15.77.01,4.28-.25,8.58-1.17,12.78-.28,1.3-.76,2.59-1.32,3.8-1.33,2.9-3.47,4.63-6.84,4.63-4.17,0-8.33.16-12.5.15-6.37,0-12.75.01-19.12-.17-6.37-.18-12.72-.66-19.09-.86-2.81-.09-5.63.23-8.45.29-6.63.14-13.22-.4-19.77-1.46-1.79-.29-3.6-.68-5.18-1.72-1.13-.74-1.82-1.74-1.7-3.04.43-4.75-.16-9.46-.25-14.2-.11-6-.13-12.01-.17-18.01-.02-3.06.04-6.13-.04-9.19-.07-2.56-.28-5.11-.44-7.84ZM90.27,20.07c-16.75-.53-33.48-.38-50.1.89-.16-.22-.29-.31-.28-.4.14-4.67-2.53-7.6-6.96-7.18-3.92.37-7.83.37-11.74.44-5.62.1-11.25.13-16.87.24-.8.02-1.6.36-2.42.56.18,16.94-.15,33.68,1.14,50.59,1.87.57,3.57,1.36,5.34,1.58,7.03.86,14.06,1.73,21.2,1.25,4.63-.31,9.31-.27,13.95-.11,8.68.3,17.33,1.3,26.04.94,5.62-.23,11.24-.24,16.86-.38.72-.02,1.44-.17,2.16-.26,1.43-2.78,1.51-5.76,1.72-8.65.37-5.13.53-10.27.71-15.41.12-3.55.15-7.1.16-10.65.01-3.18-.01-6.36-.08-9.55-.03-1.34-.09-2.7-.83-3.92ZM84.26,18.35c.25-3.54.48-6.57.64-9.61.02-.28-.38-.57-.52-.76-4.15-.2-8.17-.37-12.19-.58-4.29-.22-8.55-.07-12.84.3-3.99.34-8.03.02-12.05.02-1.21,0-2.44.24-3.63.13-3.17-.28-6.35-.23-9.52-.36-4.68-.19-9.29.21-13.93.59-.83.07-1.64.28-2.49.43-.1.76-.24,1.37-.23,1.97,0,.57.16,1.14.22,1.57.49.18.72.35.93.34,4.15-.21,8.32.13,12.46-.52,1.32-.21,2.69-.08,4.04-.15,1.46-.07,2.66.44,3.54,1.58.88,1.16,1.72,2.36,2.49,3.59.44.7.71,1.5,1.08,2.33,7.02.28,13.82-.89,20.66-.87,6.97.02,13.94,0,21.34,0Z"/>
    <path d="M83.87,51.14c.18.55.5,1.09.51,1.64.06,3.05.09,6.11.02,9.17-.04,1.63-.87,2.45-2.43,2.69-.48.07-.98.11-1.46.1-5.25-.09-10.51-.19-15.76-.29-1.59-.03-3.17-.02-4.76-.09-1.7-.08-3.41-.11-5.11-.74-.94-1.85-.5-3.82-.51-5.74-.01-1.95,0-3.91,0-5.73.7-.9,1.5-1.08,2.37-.88,5.91,1.36,11.93.92,17.91.94,3,.01,6.01-.67,9.22-1.06ZM57.58,60.87c2.25.16,4.09.12,5.87.46,2.84.54,5.58.08,8.36-.27,1.91-.24,3.87-.32,5.79-.23,1.52.07,2.82-.29,4.17-.94-.17-2.33.21-4.52-.51-6.6-1.7.11-3.28.25-4.86.3-1.59.05-3.18-.03-4.76,0-1.59.02-3.17.14-4.76.14-1.59,0-3.17-.08-4.76-.15-1.53-.07-3.06-.43-4.86-.28.11,2.54.21,4.82.33,7.57Z"/>
    <path d="M46.31,14.31c-1.06-.01-2.25.3-2.83-1.3.37-.24.8-.42,1.11-.72,1.9-1.86,3.8-2.06,5.6,0,1.12-.4,2.11-1.04,3.1-1.03.89,0,1.79.7,2.8,1.14.85-.58,1.74-1.19,2.76-1.89.84.49,1.66.96,2.5,1.44q2.7-1.52,5.59-.12,1.91-.79,4.05-.25c.35.09.84.29,1.06.14,1.57-1.09,3.16-.46,4.83-.36,1.59.1,3.23-.63,4.79-.98.89.96.41,1.67-.19,2.31-.46.5-1.06.6-1.64.21-.69-.45-1.34-.49-2.04-.04-.8.52-1.61.35-2.46.04-.41-.15-1.14-.26-1.34-.04-1.5,1.59-2.86.69-4.31-.26-.84.52-1.64,1.01-2.51,1.55-1-.56-1.95-1.09-3.1-1.73-.79.46-1.69.99-2.62,1.53-.8-.53-1.51-.99-2.39-1.57-.6.51-1.23,1.05-1.86,1.58,0,0,.11-.08.11-.08-.98.2-1.9.16-2.81-.36-1.49-.85-2.53-.23-3.22,1.2l.16-.09c-1.33-.67-2.65-1.35-4.08-2.07-.45.66-.82,1.23-1.2,1.79l.16-.03Z"/>
    <path d="M46.31,14.31l-.16.03c.81-.36,1.6-.46,2.39.06.5.33.99.72,1.54.92.62.23,1.16.03,1.36-.7,0,0-.16.09-.16.09,1.06.07,2.11-.26,3.17.39,1.34.81,2.24-.01,2.86-1.22,0,0-.11.08-.11.08.79.32,1.6.58,2.35.96.69.35,1.3.5,2.07.2.65-.25,1.43-.41,2.09-.29,1.85.33,3.89-.73,5.59.79.18.16.7,0,1.05-.08.47-.11.94-.44,1.38-.4,1.2.11,2.37.6,3.54-.2,1.04-.71,2.41.28,3.51-.65.67-.57,1.41.06,1.97.49.32.25.64.76.63,1.14-.03.54-.61.87-1.07.55-1.08-.76-1.87.62-2.71.34-1.05-.35-1.88-.21-2.77.29-.31.17-.7.34-1.03.29-.7-.1-1.4-.53-2.06-.47-.67.07-1.3.57-1.93.87-1.52-.56-2.75-2.03-4.49-1.02-1.4-.45-2.7-.66-4.22-.07-.81.32-2.02-.4-3.21-.69-.74.42-1.58.9-2.56,1.47-.67-.38-1.39-.8-2.19-1.26-.86.23-1.79.7-2.7.65-.92-.04-1.81-.6-2.89-.99-.83.72-1.71,1.48-2.81,2.42-.52-1.98,1.07-2.77,1.57-3.99Z"/>
  </g>
</svg>