<?xml version="1.0" encoding="UTF-8"?>
<svg id="Layer_2" xmlns="http://www.w3.org/2000/svg" viewBox="0 0 96.04 70.53">
  <g id="Layer_2-2" data-name="Layer_2">
    <path d="M0,14.34c1.82-2.56,4.49-1.66,6.92-1.8.11-.68.23-1.14.26-1.61.08-.98.02-1.97.18-2.94.76-4.66,1.12-5.18,5.69-5.61,2.19-.2,4.41-.09,6.61-.13,4.78-.07,9.56-.1,14.34-.25,2.07-.07,4.17-.24,6.21-.62,4.7-.88,9.48-.9,14.21-1.13,7.94-.39,15.9-.25,23.85-.12,3.79.06,7.57.51,11.34.97,2.65.32,3.44,1.13,3.45,3.83.02,4.03,1,7.96.86,12.02-.1,2.91.53,5.84.81,8.76.24,2.56.53,5.12.66,7.69.28,5.25.63,10.51.65,15.77.01,4.28-.25,8.58-1.17,12.78-.28,1.3-.76,2.59-1.32,3.8-1.33,2.9-3.47,4.63-6.84,4.63-4.17,0-8.33.16-12.5.15-6.37,0-12.75.01-19.12-.17-6.37-.18-12.72-.66-19.09-.86-2.81-.09-5.63.23-8.45.29-6.63.14-13.22-.4-19.77-1.46-1.79-.29-3.6-.68-5.18-1.72-1.13-.74-1.82-1.74-1.7-3.04.43-4.75-.16-9.46-.25-14.2-.11-6-.13-12.01-.17-18.01-.02-3.06.04-6.13-.04-9.19-.07-2.56-.28-5.11-.44-7.84ZM90.27,20.07c-16.75-.53-33.48-.38-50.1.89-.16-.22-.29-.31-.28-.4.14-4.67-2.53-7.6-6.96-7.18-3.92.37-7.83.37-11.74.44-5.62.1-11.25.13-16.87.24-.8.02-1.6.36-2.42.56.18,16.94-.15,33.68,1.14,50.59,1.87.57,3.57,1.36,5.34,1.58,7.03.86,14.06,1.73,21.2,1.25,4.63-.31,9.31-.27,13.95-.11,8.68.3,17.33,1.3,26.04.94,5.62-.23,11.24-.24,16.86-.38.72-.02,1.44-.17,2.16-.26,1.43-2.78,1.51-5.76,1.72-8.65.37-5.13.53-10.27.71-15.41.12-3.55.15-7.1.16-10.65.01-3.18-.01-6.36-.08-9.55-.03-1.34-.09-2.7-.83-3.92ZM84.26,18.35c.25-3.54-.7-13.02-.42-16.05.1-1.03-3.08-.99-4.07-.98-4.15-.2-13.37.85-20.1,1.52-4.27.43-12.94,2.53-17.23,2.89-3.99.34-11.04,1.66-15.67,2.04-.83.07-8.33,1.55-9.17,1.7-.1.76-.12.96-.11,1.57,0,.57.15.57.22,1,.49.18.72.35.93.34,4.15-.21,8.32.13,12.46-.52,1.32-.21,2.69-.08,4.04-.15,1.46-.07,2.66.44,3.54,1.58.88,1.16,1.72,2.36,2.49,3.59.44.7.71,1.5,1.08,2.33,7.02.28,13.82-.89,20.66-.87,6.97.02,13.94,0,21.34,0Z"/>
    <path d="M83.87,51.14c.18.55.5,1.09.51,1.64.06,3.05.09,6.11.02,9.17-.04,1.63-.87,2.45-2.43,2.69-.48.07-.98.11-1.46.1-5.25-.09-10.51-.19-15.76-.29-1.59-.03-3.17-.02-4.76-.09-1.7-.08-3.41-.11-5.11-.74-.94-1.85-.5-3.82-.51-5.74-.01-1.95,0-3.91,0-5.73.7-.9,1.5-1.08,2.37-.88,5.91,1.36,11.93.92,17.91.94,3,.01,6.01-.67,9.22-1.06ZM57.58,60.87c2.25.16,4.09.12,5.87.46,2.84.54,5.58.08,8.36-.27,1.91-.24,3.87-.32,5.79-.23,1.52.07,2.82-.29,4.17-.94-.17-2.33.21-4.52-.51-6.6-1.7.11-3.28.25-4.86.3-1.59.05-3.18-.03-4.76,0-1.59.02-3.17.14-4.76.14-1.59,0-3.17-.08-4.76-.15-1.53-.07-3.06-.43-4.86-.28.11,2.54.21,4.82.33,7.57Z"/>
    <path d="M46.05,11.89c-1.05.12-2.2.58-2.96-.94.34-.28.75-.51,1.02-.85,1.66-2.08,3.52-2.51,5.56-.69,1.07-.54,1.97-1.29,2.95-1.4.89-.11,1.86.47,2.92.79.77-.68,1.58-1.4,2.51-2.22.9.38,1.77.75,2.65,1.12q2.49-1.84,5.54-.81,1.8-1.02,3.99-.74c.36.05.87.18,1.07,0,1.43-1.28,3.08-.85,4.75-.95,1.59-.1,3.13-1.02,4.63-1.56,1.01.84.61,1.6.1,2.32-.4.56-.97.72-1.61.41-.74-.36-1.39-.32-2.03.21-.73.61-1.56.54-2.43.34-.43-.1-1.16-.12-1.34.12-1.29,1.76-2.76,1.04-4.31.27-.77.62-1.5,1.2-2.3,1.85-1.06-.43-2.07-.84-3.29-1.34-.72.55-1.56,1.19-2.41,1.84-.86-.42-1.62-.8-2.56-1.26-.53.58-1.09,1.19-1.65,1.8,0,0,.1-.1.1-.1-.95.32-1.86.39-2.84-.01-1.59-.66-2.54.08-3.04,1.59l.15-.11c-1.4-.51-2.8-1.01-4.31-1.55-.36.71-.67,1.32-.97,1.92l.15-.05Z"/>
    <path d="M46.05,11.89l-.15.05c.76-.45,1.54-.65,2.38-.23.54.27,1.07.59,1.64.73.64.15,1.16-.11,1.26-.86,0,0-.15.11-.15.11,1.06-.06,2.06-.52,3.2,0,1.43.64,2.22-.29,2.68-1.57,0,0-.1.1-.1.1.82.22,1.66.38,2.45.67.73.27,1.35.33,2.08-.06.61-.33,1.37-.59,2.04-.55,1.88.1,3.77-1.2,5.64.1.2.14.7-.08,1.03-.2.45-.17.88-.56,1.32-.57,1.2-.04,2.42.31,3.49-.63.95-.83,2.42-.02,3.4-1.07.6-.65,1.41-.11,2.01.25.35.21.73.68.76,1.06.04.54-.5.94-.99.68-1.17-.62-1.78.84-2.65.67-1.08-.22-1.89.02-2.72.62-.28.21-.66.42-.98.41-.71-.01-1.45-.36-2.1-.21-.66.15-1.22.72-1.81,1.1-1.58-.37-2.98-1.68-4.58-.47-1.44-.28-2.76-.33-4.2.45-.77.41-2.06-.15-3.27-.29-.68.51-1.46,1.09-2.36,1.77-.71-.3-1.48-.62-2.33-.98-.82.33-1.69.91-2.6.98-.92.07-1.87-.37-2.99-.63-.74.81-1.52,1.68-2.49,2.75-.76-1.9.72-2.88,1.07-4.15Z"/>
  </g>
</svg>