<?xml version="1.0" encoding="UTF-8"?>
<svg id="Layer_2" xmlns="http://www.w3.org/2000/svg" viewBox="0 0 80.88 95.23">
  <g id="Layer_1-2" data-name="Layer_1">
    <g>
      <path d="M34.05,13.75c3,.38,6.05.51,8.97,1.18,4.62,1.07,8.35,3.45,11.25,7.48,2.45,3.41,4.43,6.92,6.07,10.77,3,7.03,6.26,13.96,9.65,20.82,2.32,4.71,5.2,9.15,7.54,13.85,2.29,4.61,3.82,9.54,3.22,14.77-.26,2.33-.88,4.73-1.9,6.83-2.58,5.31-10.45,6.7-14.19,5.23-5.73-2.24-9.9-5.95-11.89-12.18-2.03-6.35-4.12-12.75-7.68-18.52-1.37-2.21-2.96-4.17-5.12-5.62-3.58-2.4-7.27-4.63-10.78-7.12-3.77-2.67-7.59-5.32-10.99-8.42-4.2-3.83-4.82-8.8-3.12-14.11.97-3.03,2.1-6.02,2.92-9.1.56-2.1,1.8-3.38,3.75-3.96,1.98-.59,4.01-1.07,6.06-1.35,2.05-.28,4.14-.24,6.22-.34.01-.08.03-.15.04-.23Z"/>
      <path d="M11.17,10.15c.95,2.34,2.02,4.63,2.83,7.02,1.03,3.03.24,5.97-1.03,8.76-.29.64-1.12,1.04-1.71,1.56-3.14-1.15-5.92-2.68-8.15-4.98-1.07-1.1-1.94-2.5-2.54-3.92-1.19-2.81-.45-5.28,1.89-7.25.36-.31.76-.57,1.13-.87,2.18-1.74,4.4-2.54,6.83-.42.2.18.58.15.88.22l-.12-.11Z"/>
      <path d="M42.3,10.39c.18.01-.42.15-.75-.09-1.93-1.39-4.03-2.08-6.43-2.17-.51-.02-1.22-1.07-1.4-1.76-.27-1.05-.15-2.19-.21-3.3-.11-2.2,3.63-4.22,5.32-2.31,1.23,1.39,2.63,2.14,4.44,2.44.88.15,1.77.73,2.48,1.33,1.19,1,1.55,2.41,1.12,3.9-.42,1.43-1.67,1.79-2.98,1.95-.31.04-.63,0-1.61,0Z"/>
      <path d="M21.43,6.91c-.1-1.89-.66-3.85.95-5.54,1.92-.72,3.96-.87,6.03-.33,2.55.66,3.79,2.65,3.53,5.49-.18,1.9-2.09,3.79-4.18,4.02-2.19.24-4.15-.14-5.42-2.21-.33-.53-.7-1.03-1.06-1.56,0,0,.15.14.15.14Z"/>
      <path d="M11.29,10.26c.09-.74.2-1.49.26-2.23.35-3.95,3.79-5.62,7.04-3.39.99.68,1.89,1.5,2.83,2.26,0,0-.15-.14-.15-.13-.25,2.14-.24,4.29-2.57,5.59-2.19,1.22-3.54,1.29-5.48-.39-.69-.6-1.36-1.21-2.05-1.82,0,0,.11.11.11.11Z"/>
    </g>
  </g>
</svg>