<?xml version="1.0" encoding="UTF-8"?>
<svg id="Layer_2" xmlns="http://www.w3.org/2000/svg" viewBox="0 0 99.63 286.17">
  <g id="Layer_1-2" data-name="Layer_1">
    <g>
      <path d="M25.78,142.99c-1.54-.14-2.78-.27-4.03-.35-4.6-.31-5.79-1.69-5.76-6.34.02-2.6.88-4.73,3.04-6.16.89-.59,2.01-.86,3.07-1.15.74-.2,1.54-.19,2.42-.29-.13-.67-.18-1.11-.31-1.53-.86-2.65-.3-4.74,2.36-5.97.98-.45,1.54-1.1,1.27-2.51-1.07-.28-2.28-.52-3.44-.91-1.21-.41-2.5-.84-2.75-2.36-.26-1.56.79-2.27,1.98-2.9.69-.37,1.3-.88,1.85-1.26.96-2.68-.11-4.88-1.05-7.07-2.94-6.9-5.9-13.79-8.91-20.66-1.53-3.5-3.2-6.95-4.78-10.44-.39-.87-.72-1.78-1-2.7-1.04-3.37-.85-4.18,2.16-5.88,3.75-2.11,7.63-4,11.45-5.98.83-.43,1.68-.83,2.55-1.25-.12-.62-.18-1.08-.29-1.53-.54-2.36.01-3.82,2.01-4.62,1.45-.58,3-.91,4.65-1.39-1.14-3.13-5.06-3.38-6.5-6.53,1.33-1.3,2.65-2.59,3.96-3.87-.02-.18-.02-.46-.07-.47-1.09-.16-2.19-.29-3.62-.46-.14-1.22-.42-2.43-.41-3.64.03-4.96-.34-9.89-1.1-14.8-.51-3.32.06-4.09,3.45-5.09.58-.17,1.17-.31,1.68-.45.06-.52.18-.84.11-1.12-1.23-5.14,1.53-8.49,5.55-10.56C40.37.16,45.86-.89,51.57.88c5.49,1.7,7.16,4,6.92,9.81-.02.61,0,1.22,0,2.06,1.54.19,2.92.35,4.24.51.32.54.73.93.77,1.35.77,6.99.88,14,.58,21.3-1.62.6-3.21,1.19-4.89,1.81.52,2.24,3.2,2.52,4.01,4.81-.57.5-1.17,1.17-1.9,1.64-2.1,1.34-2.12,1.31-3.59,4.25,1.16,0,2.26-.06,3.34.01,2.19.14,3.16,1.09,3.29,3.32.06,1.11-.09,2.23-.17,3.64,1.39.47,2.86.97,4.33,1.48,3.17,1.1,6.35,2.15,9.49,3.32,1.6.59,2.23,1.63,2.05,3.38-.16,1.58-.4,3.19-.88,4.7-3.17,10.04-6.06,20.17-10.8,29.65-1.27,2.54-1.95,5.39-2.81,8.13-.42,1.34-.1,2.53,1.2,3.31.14.08.29.14.41.24,3.02,2.55,2.89,3.49-.72,5.16-.28.13-.49.39-.8.65-.08.39-.24.85-.26,1.31-.03.63.05,1.25.07,1.78.35.29.55.57.82.66,3.82,1.35,4,1.61,4.15,6.56.93.38,1.95.8,2.96,1.21,3.87,1.56,5.69,8.13,1.05,11.51-1.37,1-2.69.55-4.39.52-.17,1.03-.5,2.07-.48,3.1.16,8.78.38,17.56.6,26.34.09,3.66.09,7.33.37,10.98.21,2.69.61,5.4,1.3,8,1.52,5.72,3.45,11.28,6.98,16.17,1.51,2.09,3.02,4.09,5.14,5.61,1.03.74,1.99,1.6,2.93,2.47,1.53,1.42,1.64,2.14.56,4.17-1.66,3.1-1.57,6.07.6,8.89.68.88,1.42,1.75,2.26,2.47,4.98,4.23,6.71,9.97,7.43,16.11.46,3.96.46,7.97.81,11.94.15,1.71.65,3.39,1.06,5.42-1.66,1.81-1.84,4.22-1.69,6.84.25,4.44.19,8.9.26,13.55-.75,1.12-2.03,1.65-3.53,1.76-3.02.22-6.04.51-9.07.64-6.54.28-13.08.48-19.62.71-4.95.18-9.9.44-14.85.49-5.75.06-11.5-.2-17.25-.08-3.33.07-6.65.71-9.99.87-6.84.33-13.69.51-20.74.75-.48-.89-1.06-1.65-1.32-2.5-.8-2.65-.69-5.37-.42-8.09.1-.95.3-1.9.39-2.85.26-3.02.61-6.07-1.81-8.7,1.68-2.44,1.74-4.96,1.46-7.76-.43-4.26-.37-8.61.4-12.88.95-5.26,3.61-9.46,7.79-12.77,1.1-.87,2.14-1.95,2.85-3.14,2.31-3.85,2.12-4.63-1.19-7.67-.47-.43-.94-.87-1.33-1.37-.67-.88-.57-2.25.19-3.09.21-.24.43-.49.7-.66,5.95-3.67,8.64-9.62,11.12-15.75,1.69-4.17,2.87-8.45,3.41-12.93.32-2.69,1.09-5.32,1.43-8.01.61-4.76.83-9.52.29-14.33-.36-3.17-.18-6.39-.39-9.57-.23-3.64-.62-7.28-.96-11.11ZM4.83,259.17c4.7.17,8.99.43,13.29.45,7.98.03,15.95-.08,23.92-.85,5.24-.5,10.53-.39,15.79-.62,2.55-.11,5.09-.47,7.64-.57,9.41-.37,18.82-.67,28.22-1.03.58-.02,1.15-.35,1.66-.51.13-.68.25-1.14.29-1.61.35-4.5-.56-8.9-1.16-13.31-.71-5.26-3.06-9.69-7.32-13-.38-.29-.67-.68-1.02-1.01-1.94-1.87-2.93-4.1-2.78-6.85.06-1.21.57-2.56-.95-3.96-10.76-.3-21.88.29-33.02.79-9.49.42-31.19,1.83-33.74,2.56,2,2.67,1.4,5.3.12,8.07-1.05,2.27-2.68,3.93-4.55,5.44-2.39,1.94-4.56,4.14-5.48,7.12-1.86,6.02-2.34,12.17-.9,18.91ZM14.57,215.51c.15.31.29.62.44.93,8.91-.53,17.82-1.03,26.73-1.6,6.68-.43,13.36-1.13,20.05-1.36,6.54-.22,13.09.03,19.64.04.73,0,1.63.27,2.11-.94-.63-.59-1.24-1.31-1.98-1.84-2.39-1.72-4.02-4.09-5.61-6.48-3.32-4.97-5.31-10.52-6.8-16.25-.6-2.3-1.09-4.68-1.24-7.05-.4-6.37-.56-12.76-.86-19.13-.07-1.59.02-3.3-.56-4.72-1.2-2.94-2.61-5.83-4.29-8.53-2.1-3.4-4.94-5.74-9.4-5.39-6.2.48-12.42.71-18.63,1.07-1.92.11-3.79.42-5.18,1.86.32,6.49.45,12.86,1,19.2.39,4.51-.02,8.94-.49,13.37-.31,2.85-1.12,5.65-1.42,8.5-.66,6.33-3.22,11.98-5.95,17.58-1.47,3-2.92,6.04-5.36,8.45-.75.75-1.47,1.52-2.21,2.29ZM77.59,64.68c-2.34,0-3.92-.09-5.49.02-3.66.26-7.3.64-10.96.93-5.25.41-10.49.83-15.74,1.17-7.95.51-15.91.91-23.85,1.45-2.97.2-6.01-.27-9.28.63.31,1.09.46,2,.81,2.82.95,2.19,2.03,4.33,2.97,6.53,2.55,6.01,4.87,12.12,7.63,18.04,2.15,4.61,4.48,9.1,5.3,14.32,11.18.92,22.02-1.1,33.05-1.54.77-5.88,3.14-10.89,5.72-15.84.81-1.55,1.45-3.19,2.03-4.84,1.58-4.51,3.12-9.03,4.62-13.56,1.05-3.16,2-6.34,3.19-10.11ZM59.41,41.98c-1.72-1.27-3.3-2.33-4.74-3.55-.51-.43-.7-1.26-.97-1.79,2.1-2.4,5.1-1.25,7.18-2.41,1.07-4.99.97-12.42-.21-18.12-1.8-1.15-4.19.63-5.83-1.15-.64-1.4.33-2.48.63-3.68,1.01-4.1-.22-6.54-4.32-7.66-5.29-1.44-10.47-.89-15.2,2.07-3.44,2.15-4.07,4.21-2.88,8.13.25.83.33,1.72.51,2.64-2.19.91-4.5.04-6.46,1.78.13,1.19.31,2.58.44,3.98.14,1.43.3,2.86.36,4.29.06,1.59-.03,3.2.04,4.79.06,1.4.26,2.8.43,4.51,1.57,0,2.83-.12,4.07.03,1.5.18,3.75-.96,4.35.78.78,2.29-2.16,2.19-3.28,3.33-1.17,1.19-3.21,1.42-3.9,3.48,1.83,1.67,3.72,3.34,5.54,5.08.91.87,1.98.97,3.11.89,4.45-.32,8.91-.62,13.35-1.05.88-.09,1.86-.55,2.52-1.14,1.77-1.58,3.39-3.33,5.29-5.23ZM19.31,139.1c1.2,1.06,2.66,1.08,4.08.99,4.93-.34,9.86-.67,14.77-1.14,4.92-.47,9.82-1.13,14.73-1.64,4.75-.49,9.52-.89,14.28-1.31,2.19-.19,4.38-.35,6.3-.5,1.43-1.78,1.21-3.29.29-4.75-.84-1.34-2.17-1.81-3.7-1.74-1.75.08-3.51.37-5.23.23-6.07-.5-12.08.42-18.13.54-1.91.04-3.83.08-5.73.29-6.02.66-12.01,1.52-18.09,1.56-2.2.01-3.63,1.25-4.02,3.3-.27,1.42-.35,2.86.44,4.16ZM15.74,64.91c1.13,1.24,2.28.92,3.31.9,7.03-.1,14.04-.28,21.05-.98,10.17-1.01,20.38-1.66,30.57-2.51.63-.05,1.23-.5,2.1-.87-5.61-2.77-11.98-4.38-17.39-4.38-4.47,0-8.96-.08-13.42.2-5.07.31-10.21.48-15.03,2.41-2.67,1.06-5.35,2.09-7.98,3.25-1.1.48-2.07,1.26-3.22,1.98ZM96.17,259.52c-1.47-.05-2.85-.19-4.23-.14-9.08.32-18.17.67-27.25,1.01-1.59.06-3.19.12-4.78.22-7.79.48-15.58,1.01-23.37,1.45-8.76.49-17.53.57-26.31.18-1.59-.07-3.19-.03-4.77.11-.92.08-1.83.43-1.89,1.61.1.17.17.4.27.42,1.08.19,2.16.5,3.24.47,8.45-.18,16.89-.42,25.34-.63,4.94-.12,9.89-.18,14.83-.34,6.05-.2,12.11-.46,18.16-.73,2.07-.09,4.13-.35,6.19-.41,3.33-.09,6.7-.41,9.99-.03,4.05.47,7.92-.65,11.9-.69,1.13-.01,2.49-.61,2.68-2.51ZM67.67,122.66c-2.44-.89-4.69-.53-6.89-.46-8.45.26-16.9.6-25.34.94-2.23.09-4.46.23-6.68.49-1.72.2-2.39,1.44-1.89,3.12.35,1.17,1.02,2.01,2.34,1.99,1.43-.03,2.88-.04,4.3-.24,6.64-.92,13.31-1.48,20.02-1.61,3.51-.07,7.02.03,10.53-.05,2.79-.06,2.96-.31,3.62-4.18ZM27.92,54.32c1.02,1.69,2.5,1.45,3.92,1.36,4.75-.29,9.5-.63,14.25-.88,3.96-.21,7.93-.35,11.9-.42,1.18-.02,2.2-.2,3.07-.98.65-.58,1-1.22.26-2.21-9.24-.41-18.58.14-27.91.95-1.41.12-2.8.57-4.15,1.02-.53.18-.91.77-1.34,1.15ZM25,115.28c3.28,0,5.82.16,8.33-.03,6.64-.49,13.28-1.12,19.91-1.71,1.42-.13,2.84-.34,4.26-.5,1.57-.18,3.14-.32,4.71-.52.59-.07,1.17-.25,1.75-.38-1.66-.45-3.23-.52-4.8-.43-3.96.23-7.94.39-11.87.85-5.37.63-10.75.87-16.15.83-1.58-.01-3.17.2-4.74.43-.34.05-.61.62-1.39,1.48Z"/>
      <path d="M66.53,238.14c-8.58.51-17.15,1.04-25.73,1.52-3.8.21-7.61.41-11.42.46-3.81.05-7.63-.39-11.43.36-.77.15-1.62.14-2.38-.04-.69-.16-1.43-.51-1.9-1.02-.49-.52.51-1.2,1.95-1.39,6.17-.82,12.39-.46,18.58-.67,8.91-.3,17.82-.88,26.73-1.27,3.63-.16,7.24-.51,10.92-.07,2.14.25,4.41-.44,6.61-.76,1.1-.16,2.17-.47,3.27-.63.84-.12,1.64.09,1.81,1.07.17.99-.49,1.35-1.36,1.54-4.69,1.01-9.41,1.49-14.21,1.04-.47-.04-.95.05-1.43.08,0-.07,0-.14-.01-.22Z"/>
    </g>
  </g>
</svg>