<?xml version="1.0" encoding="UTF-8"?>
<svg id="Layer_2" xmlns="http://www.w3.org/2000/svg" viewBox="0 0 84.71 178.86">
  <g id="Layer_1-2" data-name="Layer_1">
    <g>
      <path d="M40.32,59.26c-2.48-.76-4.68-.55-6.86-.48-2.07.07-4.14.21-6.4.33-.73.86-1.64,1.76-2.35,2.8-1.98,2.89-4.96,3.89-8.16,4.49-1.9.36-3.05-.13-3.74-2.1-.58-1.64-1.65-2.39-3.01-3.26-2.14-1.36-4.04-3.08-6.2-4.77.38-3.11.76-6.23,1.13-9.27,2.21-.89,4.27-1.64,6.27-2.54,5.44-2.45,9.13-6.86,12.62-11.47,1.34-1.78,2.61-3.61,4.14-5.74-.42-1.95-.9-4.11-1.34-6.28-.43-2.13,0-2.89,2.17-3.39,3.6-.83,6.89-2.4,10.33-3.94.36-2.09-.74-3.75-1.32-5.52-.5-1.51-1.14-2.99-1.5-4.53-.5-2.16.94-3.79,3.18-3.58,1.25.12,2.54.44,3.68.97,8.14,3.8,15.87,8.1,21.76,15.22,5.75,6.94,10.79,14.25,13.94,22.74,2.8,7.54,4.11,15.42,4.69,23.38.67,9.23.96,18.49,1.35,27.73.09,2.07-.02,4.15-.17,6.22-.45,6.52-.99,13.04-1.42,19.56-.13,2.05-.02,4.11-.02,5.99-1.2,1.79-3.08.97-4.79,1.7.9,1.74,2.62,2.63,3.74,4.03.54.67.84,1.55,1.35,2.53-2.23,1.12-4.81.66-6.27,2.61-.46.62-.84,1.29-1.37,2.11.77.79,1.34,1.54,2.07,2.09,3.91,2.98,4.11,6.97,2.98,11.23-.4,1.51-1.29,2.9-1.98,4.39.64,1.78,2.74,3.44.68,5.48,3.29,4.43,3.45,9.22,2.31,14.18-.42,1.83-1.6,2.94-3.67,3.22-5.7.78-11.41,1.33-17.15,1.61-9.09.44-18.17.98-27.25,1.41-1.74.08-3.5-.21-5.24-.17-3.83.1-7.65.33-11.48.46-2.39.08-4.8.26-7.18.07-2.36-.19-4.69-.78-7.17-1.23-.81-1.86-1.8-3.69-2.39-5.64-.34-1.14-.34-2.56,0-3.7.89-2.91,2.15-5.67,4.84-7.86-.89-1.97-2.19-3.86-1.59-6.23.15-.61-.39-1.5-.81-2.13-1.23-1.85-.92-3.59.07-5.41,1.17-2.14,2.63-4,4.64-5.4.52-.36,1.17-.57,1.63-.98,1.05-.93,2.48-1.76,2.12-3.47-.33-1.59-1.8-2.19-3.11-2.71-1.44-.57-3.15-.53-4.4-2.18,1.59-2.79,5.49-3.3,6.73-6.78-2.42-1.78-5.57-2.72-7.95-5.29,1.4-2.52,2.73-5.02,4.17-7.46.97-1.65,2.09-3.21,3.16-4.8,4.95-7.44,9.99-14.82,14.83-22.33,3.46-5.36,6.66-10.88,10-16.33,1.5-2.44,3.05-4.86,4.55-7.3.4-.65.68-1.36,1.16-2.31ZM39.1,2.51c.02,4.63,2.82,8.13,3.2,12.39-4.1,2.29-8.68,3.23-12.99,5.53.39,2.63.79,5.26,1.14,7.6-1.64,2.25-3.04,4.17-4.45,6.09-4.43,6.01-9.69,11.09-16.67,13.98-1.77.73-2.65,1.59-2.71,3.38-.03,1.11,0,2.23,0,3.76,1.83,1,3.11,3.19,5.59,3.76,1.92-1.36,3.73-2.64,5.54-3.93,1.22.38,2.31.64,3.33,1.08.28.12.41.77.44,1.19.01.19-.35.53-.61.61-1.34.38-2.78-.15-4.13.82-2.24,1.61-2.42,2.18-.5,5.01,2.45-.14,4.54-.98,5.93-3.24.5-.81,1.24-1.48,1.73-2.29.95-1.55,2.36-2.01,4.06-2.05,2.24-.04,4.47-.22,6.71-.22,2.88,0,5.76.05,8.63.19,1.56.07,2.22,1.53,1.29,2.74-.77,1.01-1.8,1.85-2.47,2.92-3.81,6.09-7.47,12.26-11.31,18.33-5.04,7.96-10.03,15.96-15.35,23.74-3.4,4.98-6.75,9.96-9.8,15.47,1.11.71,2.09,1.63,3.24,2.01,3.33,1.08,6.71,1.99,10.29,1.58,1.74-.2,3.49-.42,5.23-.47,7.35-.2,14.71-.32,22.06-.5,9.1-.22,18.21-.51,27.31-.69,2.26-.04,4.31-.67,6.42-1.26v-8.53c-.9-.16-1.65-.36-2.41-.42-1.11-.08-2.25.03-3.35-.13-.52-.08-1.11-.49-1.42-.93-.33-.46.61-1.3,1.57-1.4.63-.07,1.28-.06,1.92-.09,1.41-.08,2.82-.16,4.44-.26v-3.91c-1.66,0-3.06,0-4.47,0-.63,0-1.27.04-1.88-.06-.22-.03-.49-.41-.53-.66-.04-.25.11-.69.3-.79.69-.34,1.42-.69,2.18-.82,1.53-.27,3.09-.4,4.78-.61v-4.12c-2.37-.13-4.5-.25-6.61-.37.06-.65-.03-1.06.13-1.22.44-.42.96-.97,1.5-1.04,1.71-.23,3.44-.26,5.37-.39v-4.12c-2.29-1.24-4.67.5-6.8-.94,1.26-2.98,5.09-.51,6.57-3.38-.12-.78-.28-1.82-.48-3.11h-5.58c.74-3.59,4.2-1.87,5.71-3.49-.01-1.56.54-3.19-.54-4.55-1.73-.77-3.8.49-5.47-1.06,1.55-2.24,4.18-.42,5.83-1.97.37-1.49.53-3.02-.26-4.71-.78-.09-1.55-.26-2.32-.24-1.11.03-2.21.28-3.32.28-.33,0-.89-.48-.93-.79-.04-.35.28-.93.62-1.12.53-.3,1.18-.43,1.79-.51,1.22-.16,2.46-.23,3.69-.34.56-2.03.48-3.66-.76-5.43-2.05.27-4.08.6-6.12.75-.44.03-1.01-.52-1.34-.95-.1-.13.32-.95.64-1.07,1.03-.38,2.11-.62,3.19-.83,1.22-.24,2.57-.03,3.58-1.3-.05-.69-.03-1.49-.17-2.26-.14-.75-.44-1.47-.73-2.43-2.33.13-4.49.25-6.6.37-.14-.58-.36-.99-.25-1.15,1.58-2.21,4.44-1.06,6.56-2.23-.19-.94-.34-1.72-.52-2.49-.81-3.55-.95-3.6-4.43-2.91-.81.16-1.69,0-2.86-.01.46-.8.59-1.39.92-1.54,1.14-.54,2.37-.9,3.54-1.38.25-.1.39-.46.82-.98-.48-1.09-1.04-2.34-1.48-3.34-2.11-.55-3.5.2-4.9,1.03-.53.31-1.16.45-1.75.63-.11.03-.34-.1-.39-.21-.13-.25-.35-.69-.25-.8.62-.69,1.26-1.41,2.01-1.93,1.12-.78,2.34-1.4,3.61-2.14-1.29-2.01-2.24-3.83-3.96-5.4-1.32.9-2.45,1.74-3.66,2.45-.3.18-1,.09-1.23-.15-.23-.23-.29-.99-.09-1.22,1.13-1.25,2.37-2.41,3.8-3.83-1.61-1.24-1.95-3.41-4.21-4.12-1.52.96-3.1,1.95-5.12,3.22-.07-1-.34-1.7-.11-2,1.07-1.34,2.29-2.57,3.64-4.04-.95-.99-1.79-1.86-2.89-3.01-1.22,1.36-2.22,2.56-3.33,3.66-.27.27-1.17.4-1.24.27-.28-.48-.63-1.24-.43-1.61.75-1.36,1.7-2.61,2.56-3.86-3.23-3.26-11.37-7.83-17.22-9.51ZM76.71,129.36c-.25-.39-.35-.8-.59-.89-5.77-2.22-11.77-2.64-17.87-2.13-6.51.54-13,1.35-19.51,1.72-7.32.42-14.67.41-22,.74-2.04.09-4.07.69-6.08,1.16-.69.16-1.3.66-2.09,1.08,1.63,1.25,3.1,2.2,4.37,3.38,1.44,1.34,1.5,2.54.57,4.31-1,1.9-2.44,3.32-4.38,4.26-2.16,1.04-3.36,2.86-4.1,5.06-.5,1.49-.34,2.8,1.24,4.04,1.67-.18,3.56-.39,5.45-.58,1.43-.14,2.86-.37,4.29-.37,16.44-.04,32.87-.03,49.31-.07,3.79-.01,7.59-.18,11.44-.27.49-.94,1-1.75,1.34-2.62,1.57-4.04.86-6.74-2.51-9.71-.36-.32-.74-.61-1.08-.94-1.84-1.84-1.94-3.9-.21-5.92.71-.83,1.61-1.5,2.4-2.23ZM6.36,155.51c.04,1.58.37,2.9,2.14,3.21,1.24.22,2.51.41,3.75.38,5.58-.14,11.15-.52,16.73-.53,6.02,0,12.02-1.22,18.05-.17.77.13,1.6.04,2.38-.08,6.83-1.03,13.69-.68,20.54-.54,1.44.03,2.87.17,4.31.12,1.59-.05,2.69-.83,3.09-2.77-.72-.39-1.46-1.09-2.27-1.18-2.06-.23-4.14-.24-6.21-.24-14.36.01-28.72.05-43.08.08-4.15,0-8.3.04-12.44.06-2.4.01-4.74.29-6.98,1.65Z"/>
      <path d="M19.52,136.68c4.11-.11,8.21-.32,12.32-.3,4.59.03,9.16-.37,13.76-.12,2.96.16,5.97-.67,8.97-.93,3.16-.27,6.33-.41,9.5-.53.32-.01.99.68.94.81-.22.52-.61,1-1.04,1.38-.18.17-.6.13-.91.1-4.01-.4-7.9.32-11.83,1.02-2.48.44-5.07.33-7.61.37-5.57.09-11.13.16-16.7.18-2.06,0-4.13-.1-6.19-.28-.51-.04-.97-.56-1.46-.86.08-.28.16-.56.25-.84Z"/>
    </g>
  </g>
</svg>