<?xml version="1.0" encoding="UTF-8"?>
<svg id="Layer_2" xmlns="http://www.w3.org/2000/svg" viewBox="0 0 50.77 55.91">
  <g id="Layer_2-2" data-name="Layer_2">
    <g>
      <path d="M.03,2.41c3.59-.21,6.85-.58,10.11-.55,7.11.05,14.17-.39,21.24-1.07C36.29.31,41.25.24,46.19,0c1.39-.06,1.82.24,2.08,1.76.36,2.12.73,4.27.82,6.41.17,4.1.14,8.21.22,12.32.1,5.28.14,10.56.39,15.84.23,4.92.73,9.83,1.07,14.74.04.57-.22,1.16-.34,1.78-3.73.16-7.27.26-10.8.47-1.94.11-3.87.47-5.81.6-6.6.45-13.21.84-19.81,1.28-3.25.21-6.51.47-9.98.72-.09-.2-.38-.61-.43-1.04-.46-3.94-1.04-7.87-1.27-11.83-.35-6.12-.33-12.26-.7-18.37C1.22,18.27.56,11.89.04,5.5c-.08-.95-.01-1.91-.01-3.09ZM5.03,54.41c14.94-.91,29.49-1.73,44.11-3.24,0-.97.04-1.8,0-2.62-.16-2.5-.4-5-.54-7.5-.09-1.53.04-3.07-.09-4.6-.5-5.91-.3-11.82-.36-17.73-.05-5.08-.49-10.15-.79-15.22-.04-.66-.31-1.31-.47-1.97-.51-.06-.86-.16-1.19-.14-6.88.39-13.75.84-20.63,1.18-4.16.21-8.33.3-12.5.4-3.68.09-7.36-.07-11.11.71-.08.58-.24,1.12-.21,1.66.16,2.36.26,4.73.6,7.07.86,6.01.87,12.06,1.11,18.1.27,6.87.35,13.75,1.41,20.57.18,1.14.45,2.27.66,3.33Z"/>
      <path d="M33.47,10.94c-.24-2.7,2.66-4.69,5.49-4.73,2.55-.03,4.73,2.2,4.74,4.81,0,2.51-2.38,5.05-4.83,5.15-2.63.1-5.38-2.55-5.4-5.23Z"/>
      <path d="M17.3,22.88c1.02.78,1.98,1.51,3.03,2.32.65-.52,1.28-1.02,2.05-1.63.87.73,1.7,1.42,2.61,2.19.6-.69,1.14-1.31,1.83-2.1.89.31,1.84.63,2.93,1,.53-.72,1.09-1.48,1.79-2.43,1.06.77,2.05,1.49,3.09,2.24.62-.48,1.21-.93,1.94-1.5.63.35,1.27.71,1.96,1.09.66-.63,1.33-1.28,2.1-2.01,1.12,1.11,2.5,1.71,2.9,3.44-1.55-.07-1.95-1.44-3.02-2.08-.56.76-1.11,1.51-1.84,2.5-.71-.56-1.38-1.09-2.17-1.71-.55.52-1.13,1.06-1.88,1.77-.93-.73-1.83-1.45-2.93-2.31-.53.77-1.06,1.53-1.67,2.41-.95-.35-1.9-.7-3.04-1.12-.53.7-1.08,1.42-1.73,2.28-1.16-.85-2.08-1.53-3.39-2.5-.33.58-.67,1.17-1.12,1.94-1.2-.81-2.21-1.48-3.23-2.17-.56.69-1.08,1.33-1.58,1.93-.21-.02-.39.01-.47-.06-2.01-1.79-2.2-2.2-4.33.15-.23.25-.5.47-.87.82-.89-.65-1.76-1.29-2.7-1.98-.39.56-.73,1.04-1.06,1.51-.14-.04-.28-.09-.42-.13.17-.93.33-1.85.5-2.82,1.77-.34,2.29,1.6,3.85,1.76.73-.69,1.57-1.48,2.53-2.39.92.58,1.77,1.12,2.77,1.75.51-.7.97-1.34,1.57-2.18Z"/>
      <path d="M16.35,38.49c-1.03-.85-1.92-1.58-2.85-2.35-.77.84-1.46,1.58-2.3,2.49-.96-.77-1.79-1.44-2.62-2.11-.83.6-.22,1.94-1.51,2.32-.54-1.41.18-2.52.54-3.72,1.8-.37,2.31,1.43,3.6,1.98.69-.75,1.38-1.5,2.27-2.46,1.04.86,1.95,1.63,2.97,2.47.76-.99,1.46-1.91,2.28-2.97.5.33.96.6,1.36.93.43.34.81.74,1.27,1.18.6-.52,1.18-1.02,1.78-1.54,1.05.77,1.94,1.42,2.9,2.12.61-.48,1.15-.9,1.83-1.45.6.17,1.31.38,2.17.62.33-.24.82-.58,1.36-.96.77.72,1.48,1.36,2.27,2.1.52-.44.99-.83,1.55-1.31.6.34,1.25.71,1.99,1.12.44-.58.88-1.18,1.34-1.79,1.44-.03,2.11.77,2.54,1.98-1.1,1-1.48-.28-2.26-.56-.45.58-.94,1.2-1.5,1.92-.72-.51-1.31-.93-1.94-1.38-.51.39-1,.76-1.68,1.27-.75-.53-1.51-1.08-2.42-1.72-.38.33-.87.76-1.43,1.25-.63-.55-1.19-1.04-1.76-1.54-.73.56-1.37,1.06-2.12,1.63-1-.61-1.93-1.18-2.97-1.82-.41.5-.84,1.02-1.35,1.64-.93-.75-1.83-1.47-2.78-2.23-.85.97-1.65,1.88-2.54,2.89Z"/>
      <path d="M20.19,30.6c.6-.89,1.06-1.57,1.66-2.46.9.75,1.72,1.44,2.68,2.24,1.36-1.98,3.05-1.89,4.78-.58.57-.42,1-.74,1.54-1.14.84.51,1.65,1.02,2.68,1.65.57-.73,1.17-1.51,1.95-2.51.71.77,1.38,1.48,2.15,2.31.72-.66,1.36-1.26,2.01-1.85,1.55.58,2.37,1.66,2.26,3.11-1.22-.01-1.26-1.39-2.21-1.87-.58.55-1.2,1.14-1.97,1.88-.85-.6-1.6-1.14-2.35-1.67q-1.78,2.2-4.36.3c-.4.37-.83.76-1.33,1.21-.98-.47-1.96-.94-2.87-1.38q-2.43,1.88-4.83-.1c-.49.66-.98,1.32-1.61,2.16-.93-.52-1.8-1-2.93-1.64-.36.56-.77,1.2-1.25,1.95-1.17-.81-2.07-1.43-3.13-2.15-.61.68-1.23,1.37-1.94,2.16-.85-.64-1.66-1.25-2.44-1.84-1.02.42-.44,2.1-1.98,2.05.01-1.37.4-2.49,1.61-3.44.96.56,1.89,1.11,2.89,1.7.5-.67.95-1.27,1.39-1.86,1.51-.25,2.19,1.17,3.46,1.57.45-.4.95-.84,1.57-1.39.82.51,1.61,1,2.57,1.6Z"/>
      <path d="M9.3,10.81c.32-.55.59-1,.85-1.44,1.26-.31,1.69.77,2.43,1.37.43-.13.87-.27,1.42-.45.23,1.03-.39,1.41-1.14,1.93-.67-.48-1.32-.95-2.24-1.62-.36.6-.75,1.25-1.16,1.93-1.01-.76-1.71-1.29-2.42-1.82-.44.55-.81,1.04-1.21,1.5-.07.08-.25.04-.72.1.37-1.05.69-1.96,1.12-3.18,1.14.62,2.06,1.13,3.08,1.68Z"/>
      <path d="M7.16,13.51c1.11.75,2.13,1.44,3.38,2.29.51-.69,1.02-1.37,1.72-2.32.71.32,1.52.68,2.5,1.12-.37.54-.55.8-.78,1.14-.55-.31-1.01-.58-1.17-.67-.77.81-1.43,1.49-2.18,2.27-1.27-.93-2.21-1.62-3.27-2.4-.35.62-.67,1.18-1.02,1.78q-.74-.99.82-3.21Z"/>
      <path d="M14.62,46.77c-.71-.51-1.26-.91-1.93-1.4-.5.59-.97,1.15-1.48,1.76-.65-.53-1.24-1-1.8-1.46-.88.19-.64,1.91-2.12,1.3.51-.88.97-1.69,1.58-2.76.79.33,1.56.66,2.46,1.04.48-.55,1-1.71,2.16-.91.68.48,1.93.83,1.12,2.42Z"/>
      <path d="M9.7,49.73c-.46.41-.89.8-1.4,1.27-.82-1.03.09-1.61.31-2.58,1.37.38,2.64.73,4.16,1.15-.3.56-.61,1.12-1.01,1.86-.77-.64-1.38-1.15-2.05-1.71Z"/>
    </g>
  </g>
</svg>