<svg xmlns="http://www.w3.org/2000/svg" xmlns:xlink="http://www.w3.org/1999/xlink" width="62" zoomAndPan="magnify" viewBox="0 0 46.5 46.5" height="62" preserveAspectRatio="xMidYMid meet" version="1.0"><defs><clipPath id="bfbd4480cc"><path d="M 5 6 L 41 6 L 41 38 L 5 38 Z M 5 6 " clip-rule="nonzero"/></clipPath><clipPath id="9b61c276fb"><path d="M 4.640625 9.625 L 18.3125 0.703125 L 41.425781 36.125 L 27.753906 45.046875 Z M 4.640625 9.625 " clip-rule="nonzero"/></clipPath><clipPath id="2a7299e283"><path d="M 4.640625 9.625 L 18.3125 0.703125 L 41.425781 36.125 L 27.753906 45.046875 Z M 4.640625 9.625 " clip-rule="nonzero"/></clipPath></defs><g clip-path="url(#bfbd4480cc)"><g clip-path="url(#9b61c276fb)"><g clip-path="url(#2a7299e283)"><path fill="#040707" d="M 30.199219 29.222656 C 30.253906 30.496094 30.339844 31.761719 30.339844 33.035156 C 30.34375 33.785156 29.941406 34.234375 28.945312 34.164062 C 25.113281 28.726562 21.21875 23.199219 17.363281 17.734375 C 16.453125 17.8125 16.46875 18.382812 16.433594 18.914062 C 16.347656 20.308594 16.300781 21.710938 16.160156 23.101562 C 16.113281 23.574219 15.832031 24.023438 15.664062 24.46875 C 15.257812 24.351562 14.980469 24.363281 14.886719 24.230469 C 14.007812 23.007812 13.15625 21.761719 12.296875 20.523438 C 10.039062 17.257812 7.773438 13.984375 5.515625 10.707031 C 5.457031 10.617188 5.375 10.542969 5.332031 10.449219 C 5.082031 9.910156 5.0625 9.347656 5.578125 9.011719 C 5.890625 8.808594 6.445312 8.648438 6.734375 8.792969 C 7.402344 9.113281 7.988281 9.613281 8.578125 10.074219 C 9.765625 10.992188 10.941406 11.925781 12.324219 13.019531 C 12.621094 12.308594 12.949219 11.789062 13.042969 11.226562 C 13.242188 10.0625 13.277344 8.867188 13.457031 7.695312 C 13.589844 6.824219 14.460938 6.460938 15.164062 7.007812 C 15.835938 7.53125 16.472656 8.125 17.007812 8.785156 C 19.871094 12.28125 22.699219 15.808594 25.632812 19.445312 C 26.683594 19.027344 26.160156 17.171875 27.8125 17.339844 C 28.710938 18.011719 29.34375 19.148438 30.074219 20.1875 C 33.453125 25.058594 36.824219 29.929688 40.179688 34.8125 C 40.421875 35.15625 40.71875 35.617188 40.667969 35.972656 C 40.597656 36.453125 40.300781 37 39.921875 37.3125 C 39.699219 37.5 39.007812 37.441406 38.75 37.222656 C 37.941406 36.523438 37.234375 35.710938 36.488281 34.929688 C 34.582031 32.921875 32.679688 30.914062 30.777344 28.894531 C 30.582031 29.007812 30.382812 29.109375 30.195312 29.21875 Z M 30.199219 29.222656 " fill-opacity="1" fill-rule="nonzero"/></g></g></g></svg>