<svg xmlns="http://www.w3.org/2000/svg" xmlns:xlink="http://www.w3.org/1999/xlink" width="62" zoomAndPan="magnify" viewBox="0 0 46.5 46.5" height="62" preserveAspectRatio="xMidYMid meet" version="1.0"><defs><clipPath id="da0540d3be"><path d="M 15 1.765625 L 31 1.765625 L 31 44.0625 L 15 44.0625 Z M 15 1.765625 " clip-rule="nonzero"/></clipPath></defs><g clip-path="url(#da0540d3be)"><path fill="#ffc924" d="M 25.628906 32.148438 C 24.980469 33.242188 24.359375 34.351562 23.664062 35.417969 C 23.257812 36.046875 22.675781 36.203125 21.878906 35.601562 C 21.640625 28.953125 21.398438 22.195312 21.15625 15.511719 C 20.351562 15.078125 20.054688 15.566406 19.738281 15.992188 C 18.898438 17.113281 18.09375 18.261719 17.214844 19.351562 C 16.917969 19.722656 16.4375 19.945312 16.054688 20.222656 C 15.777344 19.902344 15.539062 19.761719 15.535156 19.601562 C 15.464844 18.09375 15.433594 16.585938 15.390625 15.078125 C 15.285156 11.113281 15.175781 7.132812 15.074219 3.152344 C 15.074219 3.042969 15.046875 2.9375 15.0625 2.835938 C 15.148438 2.246094 15.4375 1.765625 16.054688 1.765625 C 16.425781 1.765625 16.980469 1.9375 17.140625 2.214844 C 17.527344 2.847656 17.742188 3.585938 17.988281 4.292969 C 18.480469 5.714844 18.953125 7.140625 19.511719 8.808594 C 20.148438 8.375 20.710938 8.121094 21.09375 7.699219 C 21.898438 6.835938 22.582031 5.855469 23.371094 4.96875 C 23.960938 4.316406 24.886719 4.484375 25.175781 5.328125 C 25.453125 6.132812 25.664062 6.976562 25.75 7.820312 C 26.238281 12.316406 26.675781 16.816406 27.148438 21.464844 C 28.257812 21.6875 28.832031 19.851562 30.121094 20.890625 C 30.507812 21.945312 30.417969 23.242188 30.460938 24.511719 C 30.628906 30.4375 30.792969 36.359375 30.933594 42.285156 C 30.945312 42.703125 30.945312 43.25 30.710938 43.519531 C 30.386719 43.886719 29.839844 44.183594 29.351562 44.238281 C 29.0625 44.269531 28.515625 43.84375 28.417969 43.519531 C 28.121094 42.492188 27.972656 41.425781 27.777344 40.363281 C 27.277344 37.640625 26.785156 34.917969 26.292969 32.1875 C 26.066406 32.175781 25.84375 32.15625 25.628906 32.140625 Z M 25.628906 32.148438 " fill-opacity="1" fill-rule="nonzero"/></g></svg>