<?xml version="1.0" encoding="UTF-8"?>
<svg id="Layer_2" xmlns="http://www.w3.org/2000/svg" viewBox="0 0 117.87 107.33">
  <g id="Layer_2-2" data-name="Layer_2">
    <path d="M30.64,10.31c1.15,0,2.01.13,2.81-.03,1.68-.32,3.32-.82,5-1.17,3.73-.77,7.4-1.13,11.27-.35,4.54.91,9.27.87,13.84,1.71,8.64,1.58,17.31,1.65,26.01,1.26,2.57-.12,5.13-.38,7.68-.71,3.27-.42,6.41-1.31,9.46-3.19-1.4-1.24-2.64-2.35-3.99-3.55,2-2.61,4.81-3.24,7.45-3.98,2.3-.64,4.6-.18,6.89,1.13.13,2.6.36,5.25.39,7.91.12,9.19.2,18.38.25,27.57,0,1.83-.24,3.66-.28,5.49-.09,4.02-.14,8.05-.17,12.07-.02,3.41,0,6.82.03,10.23.03,3.78.1,7.56.15,11.34,0,.37.07.74.02,1.1-.77,6.22-.29,12.41.4,18.79-1.25.5-2.45.98-3.69,1.48-.34,2.33,1,4.37.74,6.77-.37.28-.8.85-1.33.97-3.45.78-6.82,1.79-10.46,1.76-9.2-.08-18.39.16-27.59.23-3.18.02-6.36-.07-9.54-.1-1.1-.01-2.22-.1-3.31,0-7.61.77-15.16-.06-22.73-.76-3.04-.28-6.13-.14-9.19-.16-1.1-.01-2.21,0-3.31.07-1.37.08-2.39-.37-2.94-1.69-.43-1.04-.94-2.01-2.3-2.46-.36.29-.93.59-1.26,1.05-1.36,1.91-3.18,2.53-5.45,2.25-4.13-.5-8.26-.94-12.58-1.43-.43-2.61-.91-5.1-1.23-7.62-1.17-9.25-1.99-18.54-1.62-27.87.13-3.42.49-6.85,1.08-10.22,1.26-7.13,2.05-14.3,2.64-21.51.41-5,1.19-9.97,1.78-14.96.27-2.31.42-4.64.72-6.95.41-3.18.05-6.12-2.32-8.42.24-1.29,1.03-1.79,2.07-1.89,1.95-.2,3.91-.49,5.86-.45,5.14.1,10.28.34,15.42.57,2.21.1,2.55.44,2.88,2.53.15.96.25,1.93.41,3.23ZM66.89,91.49l-.07-.07c-.56.91-1.47,1.36-2.45,1.35-1.69-.03-3.04.69-4.44,1.5-1.26.73-2.69,1.16-4.02,1.78-1.44.66-2.91.62-4.28-.02-2.78-1.32-5.68-1.37-8.64-1.16-1.59.12-3.18.27-4.76.43-1.01.1-2,.06-2.79-.62-1.43-1.21-2.68-2.54-2.44-4.67.08-.73.05-1.47.01-2.21-.04-.81-.82-1.33-1.57-1.02-1.57.65-3.05,1.6-4.86,1.45-2.43-.2-3.89,1.1-4.93,3.1-.79,1.51-1.53,3.03-1.32,4.8,2.13.4,3.52-1.61,5.57-1.59,1.27,2.72-2.25,3.26-2.28,5.39.39.67.87,1.39,1.24,2.16.92,1.89,2.38,2.57,4.48,2.45,2.44-.14,4.9-.05,7.34.06,4.77.22,9.53.64,14.3.76,5.02.13,10.05-.03,15.08-.01,1.84,0,3.05-.68,3.42-2.59.13-.66.16-1.51,1.36-1.55.43,1.29.87,2.62,1.35,4.08,1.21.06,2.3.19,3.39.17,6.26-.09,12.51-.22,18.77-.33.49,0,1.01.07,1.47-.05,1.17-.32,1.83-1.06,1.71-2.46-1.29-.31-2.46.15-3.66.21-2.31.12-4.68.34-6.95,0-2.59-.38-5.11-.43-7.67,0-1.17.2-2.37.5-3.72-.06.38-.32.62-.69.9-.73,2.18-.31,4.37-.58,6.56-.82.47-.05.97.03,1.45.11,3.78.67,7.53.65,11.33.04,2.04-.33,4.14-.37,6.22-.42,2.68-.07,5.37-.02,8.27-.02.44-1.65.76-3.2,1.28-4.68.54-1.53-.74-3.31.67-4.84,1.22,1.38-.69,3.04.89,4.39.97-.3,2.07-.65,3.08-.96.68-2.45.12-4.65.12-6.84,0-9.81-.04-19.62-.05-29.43,0-4.78.02-9.56.01-14.35,0-.93.25-1.97-.57-2.57-1.35-.35-2.39,1.24-3.59.17,0-.14-.05-.31,0-.37.57-.62,1.19-1.2,1.74-1.83,1.37-1.59,2.6-3.24,2.57-5.5-.11-9.2-.2-18.4-.32-27.59,0-.43-.28-.85-.49-1.46-.74.29-1.3.44-1.81.72-1.39.77-2.73,1.65-4.14,2.39-4.47,2.33-9,4.51-14.22,4.49-.72,0-1.46.21-2.17.39-.75.19-1.27.62-1.47,1.46-.15.65-.51,1.25-.93,2.25-.89-1.35-1.54-2.33-2.22-3.35-2.27,0-4.47-.09-6.66.02-4.43.23-8.82,0-13.21-.65-3.88-.57-7.78-.99-11.68-1.42-1.57-.17-3.16-.34-4.82.32v2.75c1.73.35,3.1,1.27,4.81.68,2.16-.74,4.33-.46,6.5.21,1.51.46,3.12,1,4.66.92,5.62-.28,11.22,1.04,16.85.18.5-.08,1.24-.17,1.37.68-.18.19-.33.48-.49.49-2.56.11-5.13.28-7.69.25-3.3-.04-6.61-.24-9.91-.4-.73-.04-1.49-.12-2.16-.36-1.89-.68-3.84-.69-5.8-.8-4.13-.22-8.27-.51-12.4-.68-3.67-.15-7.35-.46-11.02.17-1.44.25-2.9.52-4.36.53-2.69.03-5.39-.1-8.09-.19-1.33-.04-2.69-.3-4,.56-.79,2.77-1.68,5.56-2.38,8.41-.52,2.12-.71,4.33-1.21,6.46-1.33,5.72-2.7,11.44-4.14,17.14-1.32,5.23-2.42,10.48-2.82,15.87-.27,3.66-.81,7.3-1.17,10.95-.08.79.08,1.61.12,2.39,1.37.11,2.44.14,3.08-1.1.52-1.02,1.39-1.61,2.49-2.03,1.24-.48,2.35-1.29,3.55-1.89.52-.26,1.12-.37,1.68-.54l-.07-.07c-.92,2.1-2.91,2.86-4.81,3.61-1.01.4-1.68.84-1.94,1.93-.11.44-.53.79-.77,1.13-1.16.26-2.22.5-3.37.75-.72,3.65-.28,7.12.83,10.53.85,2.6,2.82,4.27,5.04,5.61,1.11.67,2.4,1.27,3.82.72.66-1.87,1.17-3.77,1.99-5.52,1.16-2.47,3-4.2,5.99-3.96,1.42.11,2.62-.12,3.77-1.01,1.01-.78,2.2-1.07,3.67-.02.06.99.23,2.2.19,3.39-.04,1.19.33,2.13,1.08,3.02.56.65,1.02,1.38,1.11,1.49.92.23,1.04.29,1.15.28.49-.04.97-.1,1.46-.16,4.4-.53,8.76-.82,13.04.83.95.37,2.2.31,3.22.06,1.64-.4,3.29-.86,4.7-1.97.72-.57,1.74-.88,2.67-1.05,1.44-.25,2.91-.27,4.37-.4ZM4.48,102.34c3.11.35,5.9.69,8.69.97,1.23.12,2.44.05,3.55-.63,1.68-1.03,3-2.39,4.19-4.08-.47-.07-.71-.15-.94-.13-4.8.59-8.84-1.34-10.96-5.56-.86-1.72-1.37-3.66-1.78-5.56-.8-3.76-.31-7.52,0-11.32.85-10.65,2.34-21.17,4.99-31.54,2.21-8.66,4.08-17.4,6.1-26.1.38-1.62.77-3.24,1.24-5.17-2.14,0-3.98.16-5.78-.05-1.75-.2-3.47-.77-5.4-1.22-.31,2.21-.57,4.13-.85,6.05-.37,2.54-.83,5.07-1.11,7.63-.4,3.64-.55,7.3-1.01,10.93-.97,7.66-2.07,15.3-3.12,22.94-.3,2.18-.82,4.36-.88,6.55-.22,8.2.03,16.4,1.09,24.55.13.97.35,1.94.35,2.91,0,2.98.8,5.79,1.63,8.82ZM49.66,14.04c.33-1.6-.47-2.52-1.32-3.42-.75-.78-1.72-.88-2.72-.84-.61.03-1.23.01-1.83.13-3.25.61-6.49,1.26-9.73,1.88-.96.18-1.93.42-2.89.4-1.48-.03-2.25-.86-2.31-2.32-.03-.73.13-1.47.07-2.2-.06-.81-.57-1.36-1.39-1.48-.85-.12-1.71-.19-2.56-.21-3.67-.1-7.35-.28-11.02-.22-2.29.04-4.63-.3-6.88.47.61,2.94.98,3.28,4.32,4.08.33-1.13.66-2.26,1.06-3.6,3.76.43,7.4.56,10.33,3.33-.47,1.54-.87,2.88-1.36,4.51,2.26.18,4.21.19,6.11.51,2.34.39,4.62.34,6.94-.05,2.17-.37,4.35-.73,6.54-.86,2.07-.12,4.16.09,6.24.1.81,0,1.63-.14,2.41-.21ZM112.88,99.71c-1.9,2.75-3.96,2.98-6.28,2.64-1.81-.26-3.65-.35-5.48-.38-.51,0-1.28.39-1.46.8-.17.4.19,1.1.44,1.61.38.74,1.13.93,1.89.86,2.55-.26,5.11-.46,7.63-.91,1.27-.23,2.73-.17,3.87-1.41-.14-.72-.29-1.52-.61-3.21Z"/>
    <path d="M24.45,34.4c-.7.11-1.27-.22-1.46-.82-.24-.79-.4-1.66-.35-2.48.04-.56.49-1.1.78-1.63,1.13-2.08,2.08-4.18,1.09-6.63-.1-.25.19-.66.36-1.19,1.46.04,2.29,1.33,3.62,1.75.25-.1.6-.19.91-.35,2.4-1.22,3.95-.65,4.81,1.82.44,1.27.83,2.57,1.1,3.89.53,2.64,2.16,4,4.74,4.39.24.04.48.09.72.13,3.92.81,3.97,1.35,6.98-1.98,3.07-3.4,7.33-4.21,11.81-3.51,1.57.25,3.11.68,4.66,1,.48.1.98.18,1.46.16,3.58-.17,7.08,0,10.15,2.19.19.14.45.24.69.25,4.78.36,7.72,4.01,11.31,6.44.91.62,1.32,1.99,2.1,3.25,2.07.85,4.42,1.19,6.9.47.69-.2,1.46-.22,2.18-.18,2.13.12,3,1.06,3.04,3.26.03,1.58,0,3.17-.42,4.76,0-1.4,0-2.8,0-4.2,0-2.07-1.22-2.59-2.83-2.58-1.21,0-2.42.37-3.64.46-.95.07-1.92.02-2.88-.06-1.85-.15-3.28-1.06-4.06-2.75-.71-1.54-1.91-2.48-3.34-3.27-1.07-.59-2.03-1.36-3.02-2.08-1.29-.95-2.64-1.71-4.24-2.09-1.41-.33-2.79-.9-4.09-1.55-1.24-.62-2.47-1.12-3.85-1.04-3.22.2-6.33-.4-9.44-1.12-3.92-.91-7.57-.21-10.76,2.29-.95.75-1.79,1.68-2.52,2.64-.86,1.14-1.94,1.47-3.23,1.19-2.03-.44-4.09-.85-6.05-1.5-1.28-.42-2.32-1.36-2.73-2.78-.37-1.3-.74-2.59-1.11-3.89-.2-.7-.33-1.44-.65-2.08-.58-1.18-1.64-1.69-2.7-.93-1.44,1.02-2.76.53-4.36.06-.75,2.67-.66,5.5-2.78,7.36.39,1.16.7,2.08,1,3.01,0,.01.08-.09.08-.09Z"/>
    <path d="M96.79,80.07c1.39-.75,1.85-2.06,2.58-3.17,1-1.5,2.37-1.88,4.33-1.19-.97,2.72-3.42,4.24-4.68,6.75.82.75,1.64,1.45,2.41,2.22.69.69,1.34,1.41,1.95,2.17.5.63.56,1.34.02,2-.43.52-1.3.52-1.96-.05-.74-.63-1.41-1.36-2.17-1.97-.64-.52-1.37-.92-2.01-1.34-1.38.59-1.93,1.71-2.67,2.66-.59.77-1.23,1.51-1.93,2.18-.19.18-.76.2-.97.04-.23-.17-.39-.65-.34-.96.07-.45.29-.92.56-1.3,1.12-1.59,2.29-3.15,3.58-4.91-.38-.56-.75-1.15-1.17-1.7-.81-1.07-1.67-2.11-2.46-3.19-.51-.7-.47-1.68.02-1.97.76-.47,1.42-.04,2.03.34.27.17.5.53.58.85.35,1.3,1.3,1.96,2.31,2.55Z"/>
    <path d="M19.74,72.29c1.04-1.75,2.08-3.49,3.15-5.29-.48-.74-.87-1.34-1.25-1.94-.8-1.28-1.98-1.71-3.44-1.6-1.09.08-2.19.11-3.28.09-1.05-.02-1.92-.44-2.25-1.52-.27-.88.32-2.54,1.27-2.8,3.54-.94,4.1-3.84,4.7-6.73.28-1.34.65-2.56,1.52-3.67,1.21-1.55,2.66-2.49,4.67-2.41.49.02.99.08,1.46.02,1.77-.24,3.09-1.82,2.89-3.61-.24-2.22-.83-4.31-2.85-5.69-.7-.48-1.31-1.11-1.87-1.74-.17-.19-.03-.64-.02-.98,0,0-.09.09-.08.08,1.17.85,2.44,1.61,3.48,2.61,1.88,1.82,2.33,4.22,2.18,6.72-.11,1.84-1.68,3.42-3.52,3.66-.48.06-.98-.04-1.46-.01-3.27.2-4.78,2.48-5.28,4.7-.4,1.78-1,3.5-1.5,5.26-.4,1.4-1.24,2.35-2.68,2.73-.35.09-.73.19-.99.41-.25.21-.49.59-.48.89,0,.28.29.64.56.81.29.19.68.26,1.04.28.73.03,1.48.11,2.19-.03,2.42-.46,4.04.7,5.14,2.63.94,1.64.57,3.27-.58,4.76-.44.57-.64,1.36-1.15,1.83-.38.35-1.08.34-1.64.49,0,0,.07.07.07.07Z"/>
    <path d="M104.77,54.31c1.84,1.8,1.3,3.87.3,5.69-.99,1.8-2.42,3.36-3.68,5-.75.97-1.59,1.86-2.32,2.84-.8,1.06-.94,2.21-.15,3.5,1.62.57,3.35.15,5.04.2,2.27.07,3.15.78,3.31,3,.07.96-.05,1.95-.23,2.9-.29,1.55-.7,3.08-1.06,4.62.72.76,1.37,1.45,2.05,2.16-.27.16-.4.3-.48.28-1.21-.37-2.44-1.79-2.38-2.92.05-.97.24-1.94.5-2.87.47-1.67.71-3.33.44-4.93-.79-1.08-1.83-.86-2.78-.87-1.7-.02-3.4,0-5.02,0-1.5-1.98-1.37-3.82-.21-5.61.66-1.02,1.45-1.97,2.24-2.9.55-.65,1.18-1.24,1.79-1.85,2.31-2.31,3.46-5,2.72-8.31l-.05.07Z"/>
    <path d="M113.55,8.56c.26,1.04.48,1.42.4,1.71-1.27,4.91-.82,9.97-1.37,14.94-.12,1.08-.23,2.19-.14,3.27.15,1.8-.09,3.65.59,5.41.18.48.19,1.26-.98,1.37-.53-1.47-.03-3.03-.14-4.53-.11-1.58,0-3.18,0-4.76.01-1.47.03-2.93.05-4.4.02-1.59.06-3.18.08-4.77.02-1.53.82-3.08-.11-4.82-5.39,1.79-10.42,4.72-16.68,4.85.5-.59.68-1,.9-1.03,4.04-.49,7.8-1.78,11.51-3.5,1.97-.91,4.04-1.53,5.88-3.75Z"/>
    <path d="M29.68,100.33c.7,0,1.42-.08,2.11.01,4.1.57,8.19,1.2,12.3,1.76.96.13,1.94.11,2.91.09,4.64-.08,9.28-.24,13.92-.26,1.03,0,2.24-.27,3.25.93-.37.25-.75.73-1.05.69-5.12-.81-10.25-.21-15.37-.17-2.82.02-5.58-.19-8.36-.83-2.6-.6-5.32-.64-7.97-1.01-.64-.09-1.23-.5-1.84-.76.04-.15.07-.31.11-.46Z"/>
    <path d="M76.89,53.46c1.09.25,1.9.98,1.68,2.04-.52,2.54.74,4.22,2.34,5.82.17.17.35.35.51.53.8.92.93,1.9.44,3.05-.9,2.13-1.71,4.31-2.54,6.47-.22.57-.55,1.16-.55,1.74,0,2.55-1.1,4.42-3.48,5.57.57,2.23,1.67,3.93,3.14,5.42.6.61,1.35,1.1,1.83,1.78.32.45.43,1.16.37,1.72-.04.37-.57.69-.88,1.03,0,0,0,.02,0,.02.51-1.09.06-1.85-.8-2.52-1.76-1.37-3.03-3.16-4.2-5.03-1.17-1.87-.94-3.15,1.06-4.18,1.38-.72,2.01-1.67,2.12-3.12.19-2.35,1.21-4.45,2.01-6.62.25-.69.61-1.33.83-2.03.39-1.24.34-2.4-.82-3.29-.48-.37-.87-.85-1.28-1.31-.94-1.06-1.48-2.22-1.04-3.68.37-1.26-.02-2.4-.68-3.49,0-.01-.05.07-.05.07Z"/>
    <path d="M71.39,59.65c1.77.29,3.08,1.42,4.34,2.54,1.64,1.47,1.64,3.46,1.16,5.43-.13.52-.68,1.17-1.16,1.32-2.12.64-2.69,2.36-3.06,4.17-.34,1.66-.66,3.37-.65,5.06.01,2.79-.57,5.26-2.46,7.42-1.05,1.2-1.71,2.64-1.52,4.36.09.81-.31,1.4-1.23,1.47,0,0,.07.08.07.08.32-1.02.94-2.05.89-3.05-.08-1.87.52-3.39,1.71-4.68.99-1.07,1.3-2.31,1.43-3.67.22-2.19.33-4.4.67-6.57.36-2.31,1-4.46,3.29-5.83,1.53-.91,1.6-3.2.31-4.47-.86-.85-1.93-1.49-2.9-2.23-.47-.36-1.07-.65-.81-1.42l-.08.09Z"/>
    <path d="M79.68,91.76c-.05.71-.1,1.41-.14,1.98.96.93,1.96.86,2.92.8,1.34-.08,2.71-.1,4.02-.39,2.12-.46,3.86-.11,5.18,1.72.12.17.43.21.85.4.96-.46,2.04-1.01,3.15-1.5,1.52-.67,3.1-.87,4.58.02,2.25,1.36,4.15.59,6.03-.78.56.71.03,1.23-.45,1.48-1.66.83-3.4,1.48-5.24.52-2.35-1.23-4.46-.8-6.49.78-1.12.87-2.32.83-3.3-.24-1.67-1.84-3.71-1.62-5.78-1.15-1.32.3-2.61.8-3.96.41-.8-.23-1.64-.52-2.3-1-.41-.3-.76-1.04-.7-1.53.1-.85.54-1.66,1.69-1.46l-.05-.07Z"/>
    <path d="M19.63,82.69c-1.25,2.64-2.54,5.35-3.97,8.37-.51.04-1.28.11-1.97.17-.21-.43-.41-.65-.4-.85.29-3.04,1.81-5.53,3.66-7.82.68-.84,1.62-.99,2.68.12Z"/>
    <path d="M53.49,36.66c-.15.45-.17,1-.45,1.31-1.74,1.9-2.41,4.17-2.54,6.69-.04.67-.43,1.32-.76,2.27-.55-.45-1.03-.66-1.19-1.01-.57-1.25-.78-2.57-.27-3.9.57-1.47,1.09-2.97,1.79-4.38.75-1.52.84-1.49,3.43-.96Z"/>
    <path d="M78.67,39.04c-.77,2.01-1.64,2.52-2.83,1.55-1.26-1.02-2.55-1.72-4.15-2.06-1.5-.32-1.55-.68-.87-2.85,3.05-.13,5.48,1.26,7.85,3.36Z"/>
    <path d="M89.42,81.02c.86.83,1,1.63.53,2.47-.48.86-1.34,1.06-2.22.92-1.45-.23-2.91-.55-4.02-1.62-.96-.94-1.92-1.92-1.77-3.44.76-.73,1.65-.74,2.3-.06,1.48,1.56,3.29,1.98,5.17,1.73Z"/>
    <path d="M64.08,64.19c1.68,2.21,2.18,4.57,2.54,6.95.18,1.23-.11,1.59-1.65,3.13-.29-.55-.75-1.02-.78-1.53-.13-2.08-.57-4.03-1.59-5.89-.54-.98-.26-1.33,1.49-2.67Z"/>
    <path d="M53.99,86.65c.95-.89,1.24-1.28,1.63-1.5,1.68-.99,3.29-2.01,4.23-3.84.2-.38.71-.76,1.12-.83.53-.08,1.2.02,1.65.31.25.16.33.92.18,1.29-1.1,2.9-3.43,4.26-6.33,4.79-.54.1-1.13-.09-2.48-.22Z"/>
    <path d="M89.62,59.43c-.08,1.21.01,1.98-.21,2.64-.16.47-.69,1-1.17,1.14-.68.2-1.09-.39-1.19-1.04-.28-2.03-.54-4.07-.78-6.11-.08-.66.22-1.31.9-1.33.52-.02,1.43.26,1.54.6.46,1.48.69,3.03.91,4.11Z"/>
    <path d="M56.47,58.97c-.62-3.27-3.4-5.01-4.43-8.21.98.11,1.85-.06,2.27.29,2.26,1.91,4.12,4.15,4.72,7.17.02.1-.08.22-.23.56-.58.05-1.27.1-2.33.19Z"/>
    <path d="M86.28,50.72c-1.38-.21-2.39-.78-3.07-2.11-.71-1.37-1.7-2.6-2.54-3.84.35-1.24,1.32-1.39,2.48-1.63.45.59,1.01,1.2,1.45,1.89,1.78,2.78,1.95,3.42,1.68,5.7Z"/>
    <path d="M22.93,78.67c-.08-1.27-.28-1.79-.12-2.17,1.25-2.98,3.48-4.89,6.6-5.7.34-.09.87.22,1.16.5.12.11-.03.76-.25.96-2.24,1.99-4.51,3.93-7.39,6.42Z"/>
    <path d="M87.73,67.38c.06.4.14.55.09.63-1.27,2.36-2.53,4.73-3.84,7.06-.25.45-.77.68-1.26.34-.27-.18-.64-.61-.58-.83.71-2.74,1.49-5.48,4.02-7.17.38-.25,1.06-.03,1.56-.03Z"/>
    <path d="M71.48,59.57c-1.55.44-2.75-.7-4.17-.95-.88-.15-1.33-1.52-.97-2.46.53-1.4,1.29-2.57,2.82-3.14,1.82-.67,3.59-1.51,5.39-2.24,1.25-.51,2.09-.1,2.45,1.24.12.44-.06.95-.11,1.44,0,0,.06-.07.05-.06-.54-1.12-1.26-1.74-2.6-1.14-1.44.64-2.92,1.19-4.37,1.79-1.39.58-2.63,1.31-2.78,3.27.72.28,1.46.67,2.25.86.91.22,1.52.71,1.96,1.49,0,0,.09-.09.09-.09Z"/>
    <path d="M50.25,88.24c-.35.31-.69.86-1.02.86-.69,0-1.47-.13-2.06-.47-1.77-.99-2.82-2.67-3.72-4.42-.16-.32.02-1.06.29-1.28.26-.2,1.07-.15,1.28.1,1.34,1.61,2.97,2.87,4.61,4.14.26.2.36.6.63,1.06Z"/>
    <path d="M65.65,35.86c-2.47.16-4.28.32-6.09.38-.7.02-1.43-.13-2.1-.34-.27-.08-.56-.51-.59-.81-.02-.29.2-.74.45-.88.52-.28,1.13-.43,1.71-.59,1.98-.52,3.84.09,5.65.77.32.12.47.69.96,1.47Z"/>
    <path d="M41.45,79.84c-1.12-1.41-1.78-2.41-2.61-3.25-.76-.77-1.75-1.31-2.53-2.07-.26-.26-.38-.99-.2-1.28.18-.3.85-.54,1.23-.46,1.83.39,2.75,1.89,3.68,3.31.56.86.61,1.54.43,3.75Z"/>
    <path d="M112.01,57.64c.55.53.72.62.71.7-.12,2.26-.26,4.53-.59,6.77-.52-2.38-.07-4.71-.12-7.48Z"/>
    <path d="M112.77,49.66c.77,1.62.01,3.19,0,4.78v-4.78Z"/>
    <path d="M112.18,88.34v-2.03s.08,0,.12,0v2.03s-.08,0-.12,0Z"/>
    <path d="M108.03,88.26l-.44,1.47c-.12-.03-.24-.07-.36-.1.13-.49.27-.99.4-1.48.13.04.27.08.4.11Z"/>
    <path d="M104.82,54.24c-.48-.75-.95-1.51-1.44-2.27q1.55.49,1.39,2.33s.04-.05.04-.05Z"/>
    <path d="M112.39,69.89c-.08.05-.15.1-.22.15-.04-.09-.09-.17-.13-.26.12-.06.24-.12.36-.18v.29Z"/>
    <path d="M79.73,91.83c0-1.05,0-2.1,0-3.16,0,0,0-.03,0-.03-.03,1.03-.06,2.06-.07,3.11.01.02.07.08.07.08Z"/>
  </g>
</svg>