<?xml version="1.0" encoding="UTF-8"?>
<svg id="Layer_2" xmlns="http://www.w3.org/2000/svg" viewBox="0 0 29.85 45.98">
  <g id="Layer_2-2" data-name="Layer_2">
    <path d="M.37,37.78c2.26,0,4.48.03,6.7,0,5.52-.08,10.16-3.75,11.62-9.67,1.81-7.34-1.3-15.93-7.57-20.15-2.35-1.58-4.93-2.52-7.81-2.5-1.87.01-1.87-.03-3.31-.9C.92,2.69,2.33,1.41,4.35,1,6.54.55,8.76.1,10.99,0c2.13-.08,4.15.44,6.16,1.49,7.58,3.95,11.33,10.28,12.34,18.56.56,4.6.66,9.12-1.1,13.51-2.6,6.5-7.15,10.66-14.15,12.1-4.48.92-8.29-.33-11.89-2.84-1.61-1.12-2.54-2.47-1.98-5.06ZM3.92,3.22c.67.26.98.46,1.32.5,6.13.66,9.91,4.51,12.99,9.39,3.14,4.98,3.16,10.37,2.11,15.84-1,5.22-4.18,8.65-9.36,9.95-1.97.5-4.07.46-6.11.71-.9.11-1.91-.24-2.87.55.58.52,1,.98,1.5,1.34,4.56,3.31,9.46,2.94,14.35,1.04,3.55-1.38,6.5-4.1,7.78-7.42,3.18-8.24,3.45-16.59-1.28-24.6C20.16,3.39,11.94.26,3.92,3.22Z"/>
  </g>
</svg>