<svg xmlns="http://www.w3.org/2000/svg" width="62" height="62" viewBox="0 0 46.5 46.5" preserveAspectRatio="xMidYMid meet">
  <path fill="#000000" d="M1.445 22.344c1.484-.141 2.84.117 4.305.113-.184-.485-.59-.656-.817-.965-.273-.367-.578-.707-.863-1.067-.258-.329-.508-.657-.727-.942.059-.64.594-.582.918-.746.183-.34-.192-.488-.187-.778.328-.809 1.07-.219 1.66-.434.02-.11.059-.242.07-.379.031-.324.223-.512.528-.46.652.105 1.203-.114 1.742-.434.195-.117.41-.21.625-.281 1.422-.477 2.734-1.184 4.09-1.801 1.285-.582 2.601-1.105 3.914-1.633 1.523-.61 3.07-1.168 4.586-1.8 1.348-.56 2.738-.974 4.137-1.353 1.02-.277 1.894-.824 2.718-1.43.446-.324.731-.863 1.067-1.273.71-.203.797.5 1.227.774.18-.165.336-.32.512-.457.383-.305.73-.192.847.29.106.44.153.898.27 1.335.453 1.625 1.125 3.117 2.371 4.344 1.79 1.77 3.496 3.625 5.242 5.437 1.243 1.285 2.5 2.566 3.743 3.851.562.582.972 1.266 1.32 1.989.238.5.316 1.011.16 1.546-.023.075-.066.145-.066.219-.008.96-.574 1.496-1.378 1.91-.813.418-1.664.777-2.375 1.378-1.086.91-2.34 1.57-3.54 2.309-1.492.918-3 1.812-4.511 2.703-.625.367-1.25.742-1.906 1.043-1.453.676-2.856 1.457-4.356 2.031-.855.329-1.68.743-2.5 1.153-1.52.758-3.074.863-4.675.305-.504-.177-1.004-.38-1.512-.532-1.48-.449-2.816-1.176-4.132-1.965-.551-.336-1.14-.62-1.746-.851-.945-.36-1.773-.891-2.558-1.5-.27-.207-.543-.418-.832-.606-2.715-1.816-5.074-4.027-7.29-6.406-.253-.274-.362-.547-.308-.922.047-.293.008-.605.012-.906 0-.227-.027-.457.016-.68.066-.328.222-.648.258-.98.035-.332-.032-.676-.063-1.145zm30.043-13.406c-.008.058-.02.12-.024.183.012-.059.024-.117.04-.172-.282-.226-.09-.734-.508-.883-.07.063-.168.11-.172.156-.004.352.168.614.465.781.04.024.133-.042.2-.066zm-24.305 21.156c.863 1.11 1.933 1.996 3.066 2.817.07.05.195.03.375.054-.156-.18-.238-.3-.347-.398-.91-.797-1.82-1.594-2.738-2.387-.082-.07-.2-.101-.297-.152-.106-.148-.192-.32-.32-.45-1.637-1.593-3.18-3.265-4.39-5.21-.016-.028-.118 0-.216 0 .04.163.047.32.117.44.184.333.363.672.602.965.816.996 1.629 2.004 2.507 2.95.484.515.957 1.077 1.64 1.37zm14.09 4.988c.32.368.59.68.832.957-.172.719-1.098.469-1.254 1.195.207-.039.402-.035.555-.11.304-.152.578-.367.89-.515.434-.21.715-.125.992.25.114.152.215.313.305.48.219.399.176.586-.207.852-.594.41-1.191.816-1.902 1.027-.32.094-.617.274-.973.438-.098-.078-.25-.145-.324-.262-.805-1.3-1.91-2.367-2.848-3.566-.094-.117-.2-.23-.281-.355-.094-.145 0-.453.168-.477 1.016-.144 1.785-.851 2.738-1.136.715-.211 1.16.015 1.39.758.04.125-.046.285-.081.465zm-.82-8.477c.32.368.59.68.832.957-.172.719-1.098.469-1.254 1.195.207-.039.402-.035.555-.11.304-.152.578-.367.89-.515.434-.21.715-.125.992.25.114.152.215.313.305.48.219.399.176.586-.207.852-.594.41-1.191.816-1.902 1.027-.32.094-.617.274-.973.438-.098-.078-.25-.145-.324-.262-.805-1.3-1.91-2.367-2.848-3.566-.094-.117-.2-.23-.281-.355-.094-.145 0-.453.168-.477 1.016-.144 1.785-.851 2.738-1.136.715-.211 1.16.015 1.39.758.04.125-.046.285-.081.465zm-4.18 13.41c.489-.183.868.223 1.33.27.062-.113.117-.207.156-.309.203-.535.3-.594.816-.445.215.066.426.14.676.223.172-.329.328-.621.504-.95.281-.015.543-.03.871-.054.05-.079.125-.2.21-.316.34-.465.423-.484.923-.187.355.214.714.425 1.132.68-.101.187-.2.359-.312.566-.363-.207-.649-.371-1-.52-.101.296-.175.52-.265.793-.363-.043-.695-.086-1.086-.133-.168.308-.347.636-.558 1.03-.348-.074-.703-.152-1.121-.25-.16.266-.328.547-.484.801-.125.008-.207.043-.265.02-.313-.13-.61-.274-.98-.442-.165.403-.301.739-.461 1.125-.172.02-.352.063-.532.059-.207-.008-.371.031-.465.234-.09.195-.27.316-.453.207-.141-.086-.266-.282-.297-.446-.05-.25-.012-.515-.012-.715.422-.43.867-.015 1.27-.183.144-.344.289-.692.433-1.043 0 0-.027.027-.027.027zm0-.023c-.172-.067-.34-.16-.516-.2-.195-.042-.348.032-.477.22-.34.503-.351.495-.945.25-.031-.016-.07-.024-.152-.047-.14.26-.293.534-.446.812-.59-.375-.61-.511-.261-1.5.195-.02.418-.03.636-.058.11-.016.278-.008.317-.074.351-.586.957-.348 1.511-.422.133-.352.266-.692.403-1.043.41-.254.808.012 1.273.035.055-.105.13-.23.18-.363.14-.332.402-.45.734-.406.301.043.594.12.946.191.16-.312.281-.629.476-.894.094-.13.344-.258.48-.223.551.148 1.067.379 1.235.992-.406.379-.73-.058-1.094-.078-.218.29-.418.559-.644.863h-1.278c-.168.239-.336.477-.53.758-.368-.027-.739-.055-1.138-.078-.25.437-.488.855-.73 1.28 0 0 .023-.023.023-.023zm12.223-3.399c-.086.246-.168.488-.27.785-.32-.058-.61-.11-.902-.164-.035.047-.093.102-.113.168-.05.176-.039.394-.285.43-.203.027-.379-.172-.406-.45-.008-.074-.008-.152-.012-.226-.012-.797.098-.883.95-.735.07.012.148 0 .277 0 .043-.12.098-.25.14-.387.036-.105.063-.21.087-.293.324-.28.59-.008.887.074.07-.113.164-.19.18-.28.077-.512.296-.852.886-.84.125 0 .261-.113.37-.2.09-.066.137-.226.227-.242.25-.043.54.024.766-.074.18-.078.266-.344.426-.496.07-.063.23-.079.328-.047.43.144.855.3 1.265.492.086.04.086.258.117.375-.46.363-.84-.055-1.258-.039-.086.207-.172.406-.27.656-.25.024-.507.051-.765.074-.094.2-.18.395-.293.633-.355-.086-.676-.16-1.015-.242-.09.324-.172.605-.254.906-.371.04-.707.078-1.063.117zm2.64 1.684c-.335-.02-.675-.035-1.093-.059-.101.192-.234.453-.379.727-.398.261-.785-.121-1.254-.043-.05.226-.082.484-.164.722-.023.078-.18.16-.277.156-.09 0-.258-.105-.258-.171-.023-.41-.047-.828.012-1.235.031-.226.261-.375.523-.34.258.032.512.11.75.16.313-.57.766-.86 1.36-.86.261-1.105.273-1.11 1.335-.996.355-.468.73-.699 1.129-.691.117-.192.203-.406.351-.563.082-.086.293-.14.39-.097.11.05.243.254.22.351-.102.395-.23.793-.407 1.164-.152.317-.488.063-.742.14-.067.161-.137.329-.23.543h-1.102c-.184.371-.188.746-.188 1.121 0 0 .028-.027.028-.027zm0 0"/>
  <path fill="#000000" d="M28.145 13.898c-.106.434.078.824.203 1.22.235.75.473 1.503.71 2.245-.21.422-.6.45-1.034.516-.371-.492-.852-.898-1.422-1.219-.261.387-.09.711-.058 1.035.058.551-.54 1.227-1.094 1.215-.176 0-.371-.093-.516-.203-.554-.406-1.082-.847-1.636-1.25-.524-.382-1.075-.726-1.602-1.101-.207-.148-.387-.328-.62-.531.226-.278.406-.496.742-.903-2.145.793-4.102 1.414-6.008 2.266 1.246 1.597 2.473 3.175 3.727 4.793-.133.195-.258.375-.387.559-.106.152-.215.304-.324.453-1.024.207-1.688-.625-2.63-.824.063.347.32.511.504.73.352.422.243.89-.241 1.12-.547.255-1.016.2-1.47-.222-.976-.907-1.937-1.832-2.91-2.746-.277-.262-.578-.5-.867-.746-.547-.47-.54-.7.066-1.145.149-.11.317-.195.528-.324-.57-.11-.582-.106-1.933.414-1.09-1.02-.641-1.41.328-1.758 1.656-.598 3.305-1.2 4.957-1.797.684-.246 1.375-.477 2.051-.742 1.39-.54 2.754-1.145 4.16-1.633 2.067-.715 4.04-1.629 5.992-2.586.137-.066.262-.168.402-.219.438-.156.824-.09 1.16.254.332.34.547.723.508 1.184.273.14.503.258.797.406-.078.293-.148.566-.234.894.343.114.664.219.98.332.215.074.45.121.64.238.61.363 1.094.727.836 1.785-.035.133-.078.266-.144.516.914-.418 1.465.004 1.945.582.258.3.153.668-.226.832-.211.09-.437.137-.648.234-1.14.531-2.285 1.063-3.418 1.61-1.722.83-3.43 1.679-5.156 2.5-2.043.972-3.992 2.093-5.875 3.335-.441.293-.871.633-1.558.633-.246-.223-.567-.492-.848-.797-.242-.27-.117-.695.21-.855 1.688-.809 3.38-1.617 5.063-2.426.313-.152.629-.297.914-.484 2.266-1.504 4.735-2.637 7.192-3.793.437-.207.855-.461 1.3-.704-.183-.293-.429-.152-.624-.18-.192-.023-.387-.003-.574-.015-.305-.016-.48-.2-.59-.465-.125-.3.031-.54.21-.719.118-.117.337-.164.52-.183.254-.02.516.015.887.035-.117-.223-.152-.398-.254-.45-.336-.167-.695-.39-1.051-.402-.602-.015-1.09-.27-1.602-.496-.015-.574.176-1.074.52-1.594-.407.2-.899.105-1.231.496.246.207.523.347.535.707 0 .125.125.25.195.375zm-15.512 4.45c.77.718.938.808 3.313 1.784.027.012.094-.07.187-.14-.21-.258-.39-.555-.644-.766-.504-.418-.649-.894-.414-1.5.012-.031-.082-.101-.16-.195-.723.258-1.465.523-2.282.813zm9.64-3.613c.657.617 1.395.77 1.973 1.176.035.023.121-.035.226-.07-.133-.415-.265-.833-.394-1.223 1.156-.902 1.261-.91 2.285.258.02.012.059-.007.168-.023-.043-.172-.094-.34-.125-.512-.043-.215-.067-.433-.113-.722-1.3.496-2.57.98-4.02 1.535zm0 0"/>
  <path fill="#000000" d="M21.113 17.21c.32.368.59.68.832.957-.172.719-1.098.469-1.254 1.195.207-.039.402-.035.555-.11.304-.152.578-.367.89-.515.434-.21.715-.125.992.25.114.152.215.313.305.48.219.399.176.586-.207.852-.594.41-1.191.816-1.902 1.027-.32.094-.617.274-.973.438-.098-.078-.25-.145-.324-.262-.805-1.3-1.91-2.367-2.848-3.566-.094-.117-.2-.23-.281-.355-.094-.145 0-.453.168-.477 1.016-.144 1.785-.851 2.738-1.136.715-.211 1.16.015 1.39.758.04.125-.046.285-.081.465zm-1.024.547c.25.055.418 0 .403-.308-.223.008-.41.047-.383.332-.11 0-.22 0-.324.008-.028.004-.051.04-.078.063.05.035.132.11.16.098.082-.047.148-.125.222-.195z"/>
  <path fill="#000000" d="M37.266 20.695c-.582.293-1.02.516-1.457.727-1.504.734-3.027 1.41-4.426 2.355-.777.527-1.68.887-2.539 1.297-.648.308-.957.246-1.414-.266-.453-.508-.887-1.031-1.316-1.54 0-.464.312-.687.648-.874.598-.336 1.196-.668 1.809-.973.926-.46 1.8-.992 2.637-1.597.675-.488 1.414-.895 2.125-1.332.16-.101.332-.195.507-.258.88-.32 1.047-.273 1.68.457.543.625 1.086 1.25 1.746 2.004zm-1.2-.281c-.359-.453-.652-.762-.87-1.11-.336-.527-.684-.61-1.363-.183-.145.094-.278.36-.38.34-.464-.086-.687.254-.995.453-.7.46-1.387.941-2.11 1.363-1.082.633-2.191 1.226-3.324 1.855.328.578.68 1.098 1.324 1.46.871-.468 1.77-.894 2.602-1.421 1.226-.781 2.484-1.488 3.816-2.062.414-.18.797-.426 1.3-.699z"/>
  <path fill="#000000" d="M31.398 31.242c-.054.223-.09.371-.132.547.515.375.777.89.824 1.594-.223.054-.43.101-.71.171-.094.157-.231.371-.383.625-.262-.039-.524-.078-.856-.129-.156.204-.332.438-.55.723-.22-.027-.47-.063-.762-.098-.086.106-.176.22-.274.332-.308.371-.742.473-1.293.305-.187.25-.383.512-.586.79-.258-.063-.476-.118-.722-.176-.098.09-.192.207-.317.285-.086.05-.23.086-.304.047-.074-.04-.156-.195-.133-.273.117-.395.2-.817.637-1.07.2.046.41.097.625.148.078-.094.16-.18.219-.27.3-.441.71-.554 1.238-.336.031.016.074-.004.175-.012.195-.266.418-.57.64-.87.309-.071.653.077.895-.329.238-.402.683-.07 1.101-.07.125-.278.262-.583.422-.938-.363-.125-.676-.234-1.035-.36-.066.184-.11.32-.16.454-.191.535-.222.55-.824.343-.105-.035-.218-.058-.383-.101-.16.293-.32.578-.46.836-.465.28-.825-.168-1.196-.118-.09.086-.176.129-.191.188-.137.546-.266 1.042-1.055.765-.16-.054-.441.207-.715.347-.316-.398-.246-.816-.093-1.328.347.055.664.106 1.031.164.055-.25.086-.508.168-.75.082-.242.297-.351.55-.297.329.078.653.196.965.29.68-.993.422-.988 1.426-.84.125-.25.258-.508.418-.828.336.07.653.14 1.028.218.066-.11.156-.223.219-.355.277-.633.402-.688 1.02-.43.14.058.304.101.406.203.097.093.218.304.175.37-.082.14-.257.278-.414.305-.2.035-.415-.043-.63-.074z"/>
  <path fill="#000000" d="M36.598 24.574c.16-.39.39-.672.855-.617.254.031.45-.07.527-.328.137-.418.422-.5.813-.375.101.035.215.05.3.074.079-.07.169-.11.184-.172.309-1.067.594-.938 1.395-.57.2.09.363.258.531.406.04.031.027.148 0 .211-.027.059-.11.145-.156.137-.266-.031-.527-.086-.851-.145-.145.286-.293.575-.47.922h-.972c-.137.22-.274.438-.418.668-.246-.015-.469-.023-.715-.039-.062.082-.144.16-.191.258-.27.558-.266.558-.828.5-.105-.012-.211-.028-.313-.04-.16.598-.523.871-1.093.82-.238.141-.149.649-.692.516-.18-.257-.203-.613-.144-.929.11-.602.71-.242 1.113-.484.027-.285.058-.613.097-.98-.25-.133-.473-.258-.68-.375-.097.066-.207.105-.21.148-.051.531-.285.805-.871.848-.196.015-.371.363-.743.183-.058-.164-.16-.367-.21-.586-.114-.472.082-.64.644-.574.074.008.149.023.309.054.054-.14.113-.304.187-.46.11-.215.277-.39.527-.383.414.004.707-.117.934-.484.214-.348.55-.094.844-.031.132-.293.254-.559.387-.844h1.02c.136-.285.257-.547.355-.746.117-.055.156-.09.187-.082.434.105.926.043 1.285.375.07.063.133.235.094.293-.07.11-.21.238-.328.246-.18.012-.363-.078-.566-.13-.192.243-.332.54-.567.672-.242.14-.574.13-.941.196-.07.176-.164.41-.285.71-.309.032-.637.067-.95.098-.101.493-.074.887.61 1.036z"/>
  <path fill="#000000" d="M26.973 25.707c-.094.48-.399.672-.766.84-.793.37-1.586.754-2.363 1.164-.77.41-1.516.86-2.333 1.324-.989-.262-1.82-.907-2.645-2.12.125-.114.242-.258.39-.356 1.36-.918 2.723-1.832 4.094-2.738.832-.551 1.2-.555 1.938.101.62.555 1.253 1.102 1.68 1.785zm-5.735 2.59c1.621-.813 3.274-1.57 4.871-2.598-.418-.46-.746-.875-1.125-1.238-.41-.387-.617-.395-1.12-.094-.622.371-1.263.718-1.84 1.152-.692.516-1.497.89-2.098 1.586.347.492.777.844 1.312 1.191z"/>
  <path fill="#000000" d="M25.266 30.644c.488-.183.867.223 1.328.27.063-.113.117-.207.157-.309.203-.535.3-.594.816-.445.215.066.426.14.676.223.172-.328.328-.621.504-.95.281-.015.543-.03.871-.054.05-.078.125-.2.21-.316.34-.465.423-.484.923-.187.355.214.714.425 1.132.68-.101.187-.2.359-.312.566-.363-.207-.649-.371-1-.52-.101.296-.175.52-.265.793-.363-.043-.695-.086-1.086-.133-.168.308-.347.636-.558 1.03-.348-.074-.703-.152-1.121-.25-.16.266-.328.547-.484.801-.125.008-.207.043-.265.02-.313-.13-.61-.274-.98-.442-.165.403-.301.739-.461 1.125-.172.02-.352.063-.532.059-.207-.008-.371.031-.465.234-.09.195-.27.316-.453.207-.141-.086-.266-.282-.297-.446-.05-.25-.012-.515-.012-.715.422-.43.867-.015 1.27-.183.144-.344.289-.692.433-1.043 0 0-.027.027-.027.027zm0-.023c-.172-.067-.34-.16-.516-.2-.195-.042-.348.032-.477.22-.34.503-.351.495-.945.25-.031-.016-.07-.024-.152-.047-.14.26-.293.534-.446.812-.59-.375-.61-.511-.261-1.5.195-.02.418-.03.636-.058.11-.016.278-.008.317-.074.351-.586.957-.348 1.511-.422.133-.352.266-.692.403-1.043.41-.254.808.012 1.273.035.055-.105.13-.23.18-.363.14-.332.402-.45.734-.406.301.043.594.12.946.191.16-.312.281-.629.476-.894.094-.13.344-.258.48-.223.551.148 1.067.379 1.235.992-.406.379-.73-.058-1.094-.078-.218.29-.418.559-.644.863h-1.278c-.168.239-.336.477-.53.758-.368-.027-.739-.055-1.138-.078-.25.437-.488.855-.73 1.28 0 0 .023-.023.023-.023z"/>
  <path fill="#000000" d="M37.516 27.223c-.086.246-.168.488-.27.785-.32-.058-.61-.11-.902-.164-.035.047-.093.102-.113.168-.05.176-.039.394-.285.43-.203.027-.379-.172-.406-.45-.008-.074-.008-.152-.012-.226-.012-.797.098-.883.95-.735.07.012.148 0 .277 0 .043-.12.098-.25.14-.387.036-.105.063-.21.087-.293.324-.28.59-.008.887.074.07-.113.164-.19.18-.28.077-.512.296-.852.886-.84.125 0 .261-.113.37-.2.09-.066.137-.226.227-.242.25-.043.54.024.766-.074.18-.078.266-.344.426-.496.07-.063.23-.079.328-.047.43.144.855.3 1.265.492.086.04.086.258.117.375-.46.363-.84-.055-1.258-.039-.086.207-.172.406-.27.656-.25.024-.507.051-.765.074-.094.2-.18.395-.293.633-.355-.086-.676-.16-1.015-.242-.09.324-.172.605-.254.906-.371.04-.707.078-1.063.117z"/>
  <path fill="#000000" d="M40.156 28.906c-.335-.02-.675-.035-1.093-.059-.101.192-.234.453-.379.727-.398.261-.785-.121-1.254-.043-.05.226-.082.484-.164.722-.023.078-.18.16-.277.156-.09 0-.258-.105-.258-.171-.023-.41-.047-.828.012-1.235.031-.226.261-.375.523-.34.258.032.512.11.75.16.313-.57.766-.86 1.36-.86.261-1.105.273-1.11 1.335-.996.355-.468.73-.699 1.129-.691.117-.192.203-.406.351-.563.082-.086.293-.14.39-.097.11.05.243.254.22.351-.102.395-.23.793-.407 1.164-.152.317-.488.063-.742.14-.067.161-.137.329-.23.543h-1.102c-.184.371-.188.746-.188 1.121 0 0 .028-.027.028-.027z"/>
</svg>