<?xml version="1.0" encoding="UTF-8"?>
<svg id="Layer_2" xmlns="http://www.w3.org/2000/svg" viewBox="0 0 18.11 19.08">
  <g id="Layer_2-2" data-name="Layer_2">
    <path d="M17.12.08c1.04,1.12,1.02,2.49.98,3.82-.13,4.39-.32,8.77-.52,13.15-.02.33-.32.64-.52,1.02-.34.02-.74.17-1.02.05-2.26-.99-4.48-.72-6.8-.16-2.24.54-4.56.79-6.86,1.09-.68.09-1.4-.1-2.11-.17-.11-.55-.28-.89-.24-1.22C.53,12.31,1.07,6.96.03,1.6-.16.64.64-.22,1.51.05c4.73,1.43,9.44.44,14.16.04.48-.04.96,0,1.45,0ZM2.16,2.78c-.07,2.7-.26,5.02-.15,7.32.11,2.26-.73,4.59.29,6.86,4.69.67,8.92-1.5,13.36-1.55,1.08-4.26,1.33-10.28.58-13.14-.3-.12-.65-.38-.98-.36-3.54.16-7.07.36-10.6.57-.71.04-1.42.17-2.49.3Z"/>
  </g>
</svg>