<?xml version="1.0" encoding="UTF-8"?>
<svg xmlns="http://www.w3.org/2000/svg" version="1.1" viewBox="0 0 30.2 28.1">
  <!-- Generator: Adobe Illustrator 28.6.0, SVG Export Plug-In . SVG Version: 1.2.0 Build 709)  -->
  <g>
    <g id="Layer_2">
      <path d="M19.1,28.1c-2.5-1.9-5.2-1.1-7.8-1.1-3.1,0-6.1.3-9.2.5-.6,0-1.2,0-1.7-.1-.2-1,.5-1.2,1.1-1.2,4-.3,8.1-.6,12.1-.9,1.3,0,2.7.1,4.1-.5.9-2.9.2-5.8.9-9.2,0,0,0-2.6-.4-4.1-.5-.5-.7-.9-1-.9-4.9-.3-9.8-.3-14.6,0-.8,1.3-.6,2.6-.5,3.8,0,2.9.2,5.9.3,8.8,0,.7,0,1.5-1,1.7-.1-.1-.4-.3-.4-.4C.5,19.5.3,14.6,0,9.8c2.2-1.4,4.5-.8,6.7-1.1,2.1-.3,4.4,0,6.6-.1s4.4-.5,6.6.5c.4,2.3-.5,5.1-.5,6.6,0,3.4,0,6.9-.1,10.3,0,.6,0,1.2-.1,2.1h0Z"/>
    </g>
  </g>
</svg>