<?xml version="1.0" encoding="UTF-8"?>
<svg id="Layer_2" xmlns="http://www.w3.org/2000/svg" viewBox="0 0 58.8 54.37">
  <g id="Layer_2-2" data-name="Layer_2" fill="white">
    <path d="M25.88,7.41c0-1.73-.03-3.2,0-4.66.04-1.45.67-2.19,2.09-2.63,1.21-.37,2.18.08,2.62,1.3.33.92.69,1.87.79,2.83.19,2.03,1.43,2.96,3.2,3.54,3.61,1.18,5.89,3.74,7.51,7.08,2.1,4.35,2.61,8.89,1.99,13.61-.11.85-.22,1.7-.37,2.54-.8,4.58.96,8.12,4.4,11,1.21,1.02,2.44,2.03,3.73,3.11-.04.63-.03,1.24-.12,1.83-.09.59-.28,1.17-.45,1.84-5.1.58-10.07-.65-15.24-.56-.17.59-.37,1.14-.5,1.71-.55,2.44-2.26,3.72-4.53,4.27-2.35.57-4.26-.44-5.39-2.78-.47-.97-.74-2.04-1.16-3.21-2.96-.18-5.87-.39-8.79-.52-1.26-.06-2.49-.2-3.47-.99-.52-.42-1.06-1.08-1.16-1.71-.13-.74.51-1.33,1.22-1.67.22-.1.46-.15.7-.21,2.87-.71,3.92-2.92,3.99-5.5.08-3.17-.18-6.35-.42-9.51-.15-1.95-.68-3.87-.77-5.82-.18-3.92.91-7.5,3.6-10.45.72-.79,1.66-1.4,2.56-2,1.22-.81,2.49-1.54,3.96-2.43ZM49.72,47.01c.11-.24.22-.49.34-.73-.63-.68-1.15-1.53-1.9-2.01-2.04-1.3-3.19-3.36-4.59-5.18-.64-.82-.96-1.96-1.2-3-.62-2.69-.26-5.39.45-7.99.73-2.71.44-5.32-.31-7.92-.4-1.4-.9-2.78-1.46-4.13-2-4.81-5.66-7.07-10.85-7.28-2.64-.11-4.37,1.99-6.83,2.29-.95.12-1.8,1.17-2.67,1.84-.28.22-.5.54-.7.85-1.35,2.08-2.46,4.28-2.43,6.82.02,1.95.21,3.9.5,5.83.59,3.89.74,7.8.43,11.71-.2,2.54-1.19,4.72-3.62,6.03-.53.28-1.52.42-1.22,1.5.67.73,1.56.51,2.39.51,5.76.02,11.51-.02,17.27.05,2.07.03,4.14.32,6.2.51,3.4.32,6.81.31,10.21.31ZM34.07,49.28c-2.7-.07-4.99-.36-7.35.89.51.73.81,1.45,1.34,1.83.56.41,1.36.72,2.03.68,1.86-.11,3.1-1.15,3.98-3.41ZM30.1,6.73c.28-1.65-.15-3.01-.76-4.32-.1-.23-.58-.35-.9-.38-.17-.02-.47.22-.53.41-.48,1.39-.67,2.82.11,4.15.44.74,1.17.66,2.07.14Z"/>
    <path d="M55.98,26.58c.54-2.04-.39-3.63-1.32-5.21-.37-.63-.93-1.15-1.23-1.79-.15-.34-.07-1.04.18-1.23.28-.22.93-.21,1.29-.03.53.26.98.71,1.39,1.15,1.48,1.56,2.24,3.49,2.43,5.58.13,1.44.08,2.92-.1,4.35-.05.42-.78,1.03-1.23,1.06-.38.02-1.04-.61-1.16-1.06-.24-.92-.2-1.92-.27-2.82Z"/>
    <path d="M4.38,30.68c-2.22.69-3.73.22-4.07-1.31-.64-2.8-.27-5.54,1.17-8.06.26-.46.92-.7,1.5-1.12,1.17.89,1.92,2,1.02,3.1-1.49,1.83-1.08,3.59-.41,5.46.2.56.45,1.09.79,1.92Z"/>
    <path d="M49.52,22.65c.81.04,1.76-.16,2.39.2.66.37,1.19,1.23,1.47,1.98.63,1.77.03,3.38-1.13,4.74-.23.27-.95.34-1.34.21-.36-.13-.6-.65-.86-1.01-.06-.08-.03-.25,0-.36.55-1.82.75-3.59-1.23-5.09.23-.22.46-.44.69-.67Z"/>
    <path d="M9.38,26.45c.09,1.21.25,1.94.16,2.64-.05.37-.49.89-.84.97-.36.08-1.02-.18-1.2-.49-.98-1.65-.89-3.48-.53-5.27.12-.61.75-1.03,1.41-.8.39.14.9.56.96.92.14.82.05,1.68.05,2.03Z"/>
  </g>
</svg>