<?xml version="1.0" encoding="UTF-8"?>
<svg id="Layer_2" xmlns="http://www.w3.org/2000/svg" viewBox="0 0 69.59 121.23">
  <g id="Layer_1-2" data-name="Layer_1">
    <path d="M57.99,25.3c2.16,1.92,4.84,2.74,5.72,5.36-.78,3.95-3.32,5.62-7.13,5.74-.63.02-1.26.19-1.9.27-2.19.29-3.5,1.64-3.9,3.68-.52,2.65-1.2,5.38-1.05,8.04.37,6.36.78,12.77,2.81,18.88,1.1,3.32,2.43,6.58,5.45,8.79,2.23,1.63,3.08,4.01,3.15,6.69.05,1.92.02,3.84.06,5.75.03,1.51.56,2.76,1.81,3.73,1.01.78,1.94,1.66,2.84,2.57,1.01,1.03,1.84,2.14,2.2,3.63.29,1.18.99,2.26,1.53,3.43-.99,2.67-1.08,5.51-1.08,8.38,0,1.41-.26,2.83-.43,4.24-.32,2.56-1.97,3.94-4.29,4.57-1.53.41-3.12.75-4.7.88-13.54,1.13-27.1,1.53-40.68,1.19-3.83-.09-7.67-.21-11.5-.32-1.12-.03-2.24-.07-3.35-.18-1.6-.16-2.54-1.01-2.97-2.63-.87-3.28-.55-6.59-.46-9.9.04-1.27.21-2.53.28-3.8.19-3.35,1.41-6.19,4.02-8.37,1.22-1.03,2.42-2.09,3.71-3.03,1.43-1.04,2-2.39,1.99-4.11-.01-1.76.13-3.51.13-5.27,0-3.54,1.64-6.07,4.64-7.8.83-.48,1.69-.91,2.53-1.35,2.49-1.31,4.32-3.25,5.47-5.82,3.91-8.73,5.86-17.87,5.71-27.43-.04-2.42-1.28-3.77-3.73-4.22-1.25-.23-2.54-.31-3.81-.39-1.81-.12-3.42-.74-4.9-1.75-1.61-1.1-1.64-3.33.02-4.39,1.07-.68,2.27-1.15,3.43-1.68,1.28-.59,2.58-1.15,3.99-1.77-.15-1.14-.15-2.09-.41-2.97C19.79,12.55,29.88,2.3,37.98.61c6.39-1.33,12.42-.72,17.19,4.46,1.65,1.79,2.71,3.78,3.21,6.26.94,4.62,1.28,9.14-.39,13.97ZM7.55,106.35c-1-1.03-2.12-.94-4.19-.52,1.99.85,3.14.74,4.3.4,1,1.48,2.6,1.71,4.17,1.91,5.51.69,11.01,1.38,16.53,1.99,1.41.16,2.92.27,4.28-.04,3.14-.72,6.3-.71,9.47-.8.65-.02,1.3-.22,1.95-.34-2.26-.44-4.47-.46-6.67-.43-2.38.03-4.83.49-7.14.08-7.52-1.33-15.24-.37-22.7-2.24ZM42.04,2.91c-3.76-.69-7.47,1.04-10.57,4.08-4.43,4.34-7.2,9.29-5.55,15.88.65,2.58,1.91,4.21,4.39,5.17,6.94,2.68,13.8,1.95,20.63-.29,3.18-1.04,5.05-3.45,5.26-6.77.16-2.52-.1-5.09-.35-7.62-.41-4.12-2.75-6.9-6.16-9.17-2.25-1.49-4.53-1.23-7.64-1.28ZM58,87.68c.7-3.96.63-7.71-3.35-10.42-1-.68-1.6-1.95-2.29-2.83-1.15.43-1.83.52-2.31.88-3.72,2.7-7.97,3.75-12.43,4.5-3.79.64-7.24.17-10.63-1.46-1.99-.96-4.03-1.8-6.07-2.71-1.62.88-3.16,1.69-4.67,2.56-1.6.92-2.87,2.27-2.93,4.11-.09,2.82-.74,5.69.2,8.46,15.34,6.43,30.12,6.2,44.49-3.09ZM46.63,48.09c-4.87-5.7-8.97-7.45-15.27-6.46-.36,11.13-1.9,22.07-8.03,32.01,3.99,2.32,7.85,4.56,12.58,4.04,5.42-.6,10.68-1.66,14.82-5.88-2.49-7.81-4.27-15.7-4.1-23.7ZM3.78,102.38c3.21.72,6.26,1.9,9.36,2.01,9.83.37,19.6,2.6,29.49,1.19.16-.02.32-.02.48,0,3.86.43,7.64-.21,11.38-.98,2.95-.61,5.86-1.43,8.77-2.2,1.83-.48,2.49-2.08,1.53-3.7-.4-.67-.95-1.27-1.49-1.84-1.84-1.93-3.71-3.83-5.66-5.82-2.04.94-4.05,1.88-6.08,2.78-1.6.71-3.18,1.51-4.85,2.01-8.29,2.46-16.64,2.5-25,.33-2.62-.68-5.22-1.47-7.86-2.08-.87-.2-2.07-.29-2.71.16-2.96,2.07-6.23,3.93-7.37,8.14ZM46.97,34.39c2.37-.21,3.93-.37,5.5-.49,1.73-.13,3.46-.22,5.19-.34,1.15-.08,2.25-.35,2.57-1.65.33-1.32-.61-2.02-1.57-2.61-.38-.23-.86-.3-1.24-.43-3.84,3.1-5.84,4.19-10.44,5.52ZM18.09,32.55c4.48,2.16,8.23,1.43,11.96,1.52-1.12-.51-2.02-1.26-3.18-1.71-1.22-.48-2.21-1.53-3.4-2.41-1.56.75-3.08,1.49-5.39,2.6ZM42.25,35.11c.13-.03.27-.07.4-.1-.11-.08-.2-.2-.32-.21-.12-.02-.26.06-.4.09.11.07.21.15.32.22Z"/>
  </g>
</svg>