<?xml version="1.0" encoding="UTF-8"?>
<svg id="Layer_2" xmlns="http://www.w3.org/2000/svg" viewBox="0 0 72.24 65.02">
  <g id="Layer_2-2" data-name="Layer_2">
    <path d="M72.24,4.63c-2.05,1.64-3.28,3.85-4.46,5.99-3.59,6.51-7.67,12.67-12.1,18.64-3.17,4.27-5.93,8.86-8.8,13.35-2.33,3.63-4.44,7.41-6.89,10.95-.9,1.3-2.46,2.18-3.82,3.1-3.51,2.37-7.07,4.67-10.65,6.95-.48.31-1.13.44-1.71.47-3.9.19-7.8.34-11.7.5-3.34.14-6.67.29-10.01.39-.7.02-1.57.33-2.08-.77.31-.21.6-.55.93-.61.82-.14,1.66-.17,2.5-.2,5.85-.2,11.69-.38,17.54-.61.96-.04,1.9-.32,2.87-.49.18-.45.39-.82.47-1.22.74-3.54,1.45-7.09,2.18-10.63.29-1.43.58-2.86.91-4.28.07-.32.27-.64.49-.89,2.56-3.01,5.18-5.97,7.71-9,2.62-3.15,5.21-6.34,7.73-9.57,3.3-4.22,6.52-8.5,9.79-12.75,1.61-2.09,3.23-4.17,4.85-6.25,1.66-2.13,3.42-4.2,4.97-6.41.77-1.09,1.62-1.42,2.83-1.23,2.62.41,4.58,1.92,6.29,3.82.16.18.13.52.19.76ZM39.16,53.02c.04-.05.36-.33.57-.68,2.5-4.17,4.82-8.45,7.5-12.49,4.85-7.31,9.92-14.47,14.87-21.71.65-.95,1.47-1.88,1.22-3.43-.67-.32-1.44-.69-2.15-1.03-3.27,3.5-5.94,7.13-8.36,10.95-.97,1.53-2.01,3.01-3.12,4.44-2.76,3.56-5.62,7.04-8.36,10.61-2.03,2.64-3.92,5.39-5.91,8.07-1.15,1.56-1.2,3.29-1.03,5.27h4.78ZM57.39,10.18c-1.13,1.33-2.08,2.34-2.91,3.44-3.36,4.42-6.64,8.9-10.04,13.29-1.44,1.86-3.22,3.47-4.68,5.32-3.6,4.58-7.11,9.24-10.73,13.96.27,1.27.56,2.59.87,4.04,1.87-.67,2.55-2.15,3.42-3.46,1.88-2.85,3.68-5.76,5.72-8.48,2.37-3.17,5-6.15,7.46-9.26,1.2-1.52,2.21-3.18,3.38-4.72,3.1-4.08,6.24-8.14,9.47-12.34-.65-.6-1.19-1.09-1.94-1.78ZM33.12,54.48v-4.44c-1.69.22-2.6,2.1-4.36,1.76-.12-.99.05-1.97-.79-3.04-.47,1.98-.87,3.65-1.26,5.32-.63,2.65.36,4.39,3.08,5.4,2.6-1.23,6.53-3.98,7.5-5.38-1.4.13-2.62.24-4.17.38ZM65.7,11.31c.9-1.36,1.66-2.49,2.41-3.63.75-1.13,1.49-2.27,2.22-3.38-1.59-2.24-3.55-2.94-5.9-2.9-1.15,1.62-2.26,3.17-3.43,4.82,1.62,1.75,3.1,3.35,4.7,5.08Z"/>
  </g>
</svg>