<?xml version="1.0" encoding="UTF-8"?>
<svg id="Layer_2" xmlns="http://www.w3.org/2000/svg" viewBox="0 0 89.52 97.35">
  <g id="Layer_2-2" data-name="Layer_2">
    <g>
      <path d="M80.29.77c.81-.19,1.47-.31,2.11-.51,2.16-.66,4.68-.08,5.84,1.41,1.46,1.87,1.7,4.23.58,6.54-.08.17-.24.31-.37.46-1.03,1.12-2.06,2.24-3.09,3.36-.1.11-.27.21-.29.33-.3,1.92-1.88,2.98-2.9,4.42-.9,1.28-2.03,2.36-3.07,3.5-1.06,1.15-2.31,2.14-3.49,3.18-4.67,4.11-8.83,8.7-12.8,13.47-1.22,1.47-2.37,3.01-3.67,4.4-1.29,1.39-2.75,2.63-4.11,3.96-2.24,2.2-4.47,4.41-6.67,6.66-2.83,2.9-5.66,5.81-8.42,8.77-1.05,1.12-2.36,1.75-3.7,2.3-1.67.68-3.43,1.15-5.12,1.81-1.14.44-2.18,1.13-3.31,1.57-1.42.55-2.89.95-4.35,1.41-.46.15-.92.3-1.42.46-.29-.61-.4-1.14-.03-1.8.89-1.58,1.67-3.23,2.53-4.83,1.58-2.94,2.7-6.11,4.63-8.86.45-.63.97-1.24,1.56-1.74,1.98-1.65,3.63-3.6,5.33-5.51,1.8-2.02,3.77-3.88,5.67-5.8,2.01-2.03,4.02-4.05,6.04-6.06,2.58-2.57,5.19-5.11,7.75-7.71,3.2-3.27,6.35-6.59,9.54-9.87,2.37-2.43,4.76-4.85,7.19-7.22,1.26-1.23,2.65-2.35,3.97-3.52.44-.39.89-.77,1.27-1.21.98-1.15,1.93-2.33,2.78-3.36ZM39.94,59.72c1.02-1.04,1.95-1.99,2.87-2.94.72-.74,1.42-1.49,2.13-2.25,2.49-2.64,4.93-5.33,7.48-7.92,1.79-1.82,3.79-3.44,5.57-5.27,1.44-1.48,2.66-3.16,4.01-4.73,3.73-4.33,7.46-8.66,11.69-12.52.94-.86,1.86-1.76,2.84-2.58,1.32-1.11,2.57-2.26,3.49-3.76-1.11-1.04-2.18-2.05-3.35-3.14-1.8,1.7-3.79,3.51-5.69,5.39-1.11,1.1-2.07,2.37-3.16,3.5-1.26,1.31-2.6,2.54-3.89,3.82-1.22,1.21-2.41,2.46-3.63,3.68-1.56,1.56-3.14,3.1-4.71,4.65-1.75,1.72-3.49,3.46-5.28,5.14-1.53,1.44-3.15,2.8-4.7,4.22-1.76,1.63-3.5,3.28-5.23,4.94-1.42,1.36-2.83,2.73-4.2,4.14-1.45,1.49-1.45,3.31-1.16,5.3,1.69.11,3.25.21,4.91.32ZM31.6,54.99c2.58-.13,2.77-.25,4.31-1.74,2.83-2.74,5.69-5.44,8.54-8.15,2.96-2.81,5.95-5.59,8.89-8.42,2.83-2.73,5.65-5.48,8.42-8.28,2.53-2.55,4.99-5.18,7.49-7.76,1.26-1.31,2.53-2.62,3.83-3.89,1.07-1.05,2.2-2.05,3.33-3.09-1.43-1.3-2.7-2.45-4.09-3.72-1.49,1.53-2.96,3.05-4.44,4.55-3.73,3.77-7.47,7.54-11.21,11.31-4.02,4.05-8.01,8.13-12.06,12.15-2.3,2.28-4.65,4.52-6.84,6.91-1.79,1.95-3.59,3.91-5.37,5.87-.16.17-.31.41-.34.63-.17,1.16-.29,2.32-.45,3.63ZM83.93,12.32c1.25-1.4,2.26-2.6,3.35-3.72.69-.71,1.1-1.53,1.17-2.47.26-3.37-1.76-6.16-5.92-4.97-.79.23-1.56.54-2.41.84.28.81-.28,1.17-.81,1.54-.85.6-1.54,1.33-2.07,2.4,2.18,2.08,4.34,4.13,6.69,6.38ZM30.59,56.23c.15-1.48.28-2.76.43-4.25-.31.25-.44.33-.52.43-.19.23-.36.47-.54.7-1.67,2.22-2.68,4.79-3.77,7.3-.16.36-.03,1.02.21,1.34.83,1.08,1.78,2.07,2.58,2.99,2.38-.8,4.58-1.5,6.74-2.29,1.02-.37,2.1-.74,2.85-1.81-1.69-.57-3.41.1-4.83-.49.47-1.6.33-3.03.28-4.67-1.22.27-2.26.5-3.43.76Z"/>
      <path d="M20.67,70.78c-2.06.63-4.04.69-5.57,1.98.44,1.04,1.27.92,1.96.91,1.33-.01,2.66-.22,3.99-.21,1.52.01,3.05.07,4.56.29.91.13,1.81.51,2.63.93,1.39.73,1.73,2.61.7,3.8-.8.94-1.75,1.69-3.03,2.01-1.14.29-2.24.74-3.35,1.15-2.3.85-4.74.84-7.12,1.2-3.17.48-6.33.98-9.28,2.3-2.08.93-3.73,2.38-4.9,4.32-.55.9-.72,1.93-.09,2.95.18.29.22.68.36,1.18-1.03-.2-1.46-.79-1.49-1.46-.04-.91-.09-1.96.3-2.73,1.46-2.84,3.82-4.7,6.87-5.65,3.73-1.16,7.56-1.8,11.44-2.17,2.75-.26,5.24-1.34,7.78-2.25.54-.19.99-.64,1.45-1,1.25-.99,1.01-2.35-.49-2.94-1.97-.78-4.01-.97-6.1-.83-1.47.1-2.95.24-4.42.21-.7-.01-1.47-.26-2.08-.62-1.17-.67-1.22-1.76-.06-2.43,1.05-.6,2.26-.95,3.42-1.34.55-.18,1.16-.24,1.74-.24.21,0,.42.32.79.63Z"/>
      <path d="M2.91,94.69c.44-.07.68-.19.85-.13,1.18.43,2.36.89,3.53,1.36.64.25.95.65.44,1.44-1.56-.81-3.53-.76-4.82-2.66Z"/>
    </g>
  </g>
</svg>