<svg xmlns="http://www.w3.org/2000/svg" xmlns:xlink="http://www.w3.org/1999/xlink" width="62" zoomAndPan="magnify" viewBox="0 0 46.5 46.5" height="62" preserveAspectRatio="xMidYMid meet" version="1.0"><defs><clipPath id="a1f0f90fc6"><path d="M 2.84375 1.597656 L 42.914062 1.597656 L 42.914062 38 L 2.84375 38 Z M 2.84375 1.597656 " clip-rule="nonzero"/></clipPath><clipPath id="0d0ee3e66f"><path d="M 19 29 L 35 29 L 35 44.636719 L 19 44.636719 Z M 19 29 " clip-rule="nonzero"/></clipPath></defs><g clip-path="url(#a1f0f90fc6)"><path fill="#000000" d="M 21.253906 11.96875 C 21.53125 11.179688 21.773438 10.488281 22.015625 9.8125 C 21.878906 9.40625 21.484375 9.371094 21.210938 9.175781 C 20.832031 8.902344 20.742188 8.628906 20.929688 8.175781 C 21.019531 7.964844 21.136719 7.761719 21.28125 7.585938 C 21.84375 6.90625 22.421875 6.234375 23.027344 5.527344 C 23.578125 5.703125 23.875 6.28125 24.441406 6.53125 C 24.773438 6.460938 24.9375 6.125 25.179688 5.898438 C 25.433594 5.664062 25.652344 5.394531 25.917969 5.101562 C 25.859375 4.882812 25.785156 4.667969 25.742188 4.449219 C 25.695312 4.191406 25.558594 3.863281 25.664062 3.679688 C 25.863281 3.328125 26.15625 2.953125 26.503906 2.777344 C 27.21875 2.414062 27.992188 2.175781 28.742188 1.890625 C 28.84375 1.851562 28.964844 1.851562 29.117188 1.832031 C 29.539062 2.296875 29.59375 2.9375 29.84375 3.511719 C 30.492188 3.671875 31.058594 3.335938 31.726562 3.324219 C 31.78125 2.886719 31.828125 2.476562 31.882812 2.027344 C 32.328125 1.640625 32.8125 1.484375 33.4375 1.699219 C 34.121094 1.929688 34.820312 2.136719 35.570312 2.050781 C 35.789062 2.027344 35.957031 2.316406 35.894531 2.5625 C 35.808594 2.894531 35.707031 3.214844 35.605469 3.554688 C 36.023438 3.910156 36.398438 4.230469 36.828125 4.597656 C 37.132812 4.238281 37.394531 3.921875 37.671875 3.613281 C 37.871094 3.390625 38.128906 3.316406 38.398438 3.453125 C 38.671875 3.589844 38.96875 3.71875 39.179688 3.929688 C 39.660156 4.421875 40.097656 4.960938 40.53125 5.457031 C 40.46875 6.082031 39.851562 6.234375 39.664062 6.742188 C 39.976562 7.242188 40.300781 7.753906 40.617188 8.261719 C 40.785156 8.261719 40.902344 8.273438 41.011719 8.261719 C 41.953125 8.144531 42.03125 8.195312 42.339844 9.078125 C 42.601562 9.8125 42.535156 10.59375 42.808594 11.316406 C 42.246094 11.539062 41.796875 11.71875 41.3125 11.90625 C 41.332031 12.261719 41.347656 12.558594 41.363281 12.875 C 42.015625 13.136719 42.804688 13.183594 42.882812 14.027344 C 42.566406 14.867188 42.273438 15.652344 41.960938 16.476562 C 41.523438 16.429688 41.15625 16.386719 40.71875 16.339844 C 40.546875 16.59375 40.359375 16.871094 40.175781 17.140625 C 40.238281 17.296875 40.253906 17.421875 40.328125 17.496094 C 40.589844 17.777344 40.886719 18.027344 41.144531 18.3125 C 41.3125 18.503906 41.332031 18.769531 41.175781 18.957031 C 40.757812 19.457031 40.316406 19.9375 39.867188 20.410156 C 39.710938 20.574219 39.503906 20.683594 39.269531 20.851562 C 38.851562 20.570312 38.445312 20.296875 38.011719 20.003906 C 37.613281 20.128906 37.378906 20.402344 37.238281 20.847656 C 37.394531 21.160156 37.578125 21.5 37.726562 21.851562 C 38.050781 22.613281 37.941406 23.082031 37.246094 23.554688 C 36.582031 24.003906 35.875 24.386719 35.136719 24.828125 C 34.945312 24.636719 34.742188 24.507812 34.652344 24.324219 C 34.421875 23.839844 34.238281 23.332031 34.03125 22.8125 L 33.097656 22.8125 C 33.023438 22.914062 32.933594 22.996094 32.894531 23.09375 C 32.84375 23.238281 32.792969 23.394531 32.800781 23.542969 C 32.832031 24.246094 32.523438 24.730469 31.945312 25.015625 C 31.386719 24.980469 30.859375 24.933594 30.335938 24.917969 C 29.320312 24.882812 29.203125 24.761719 29.25 23.769531 C 29.265625 23.460938 29.269531 23.148438 29.265625 22.835938 C 29.265625 22.765625 29.21875 22.695312 29.167969 22.554688 C 28.90625 22.539062 28.617188 22.523438 28.382812 22.507812 C 27.835938 22.957031 27.886719 23.71875 27.28125 24.117188 C 26.347656 23.695312 25.222656 23.65625 24.417969 22.738281 C 24.734375 22.207031 25.042969 21.691406 25.351562 21.179688 C 24.929688 20.933594 24.378906 21.109375 23.699219 21.699219 C 23.9375 22.558594 23.984375 23.445312 24.011719 24.332031 C 24.023438 24.859375 23.851562 25.296875 23.367188 25.445312 C 22.835938 25.605469 22.625 25.929688 22.5625 26.4375 C 22.527344 26.707031 22.445312 26.964844 22.378906 27.238281 C 22.792969 27.695312 23.371094 27.601562 23.933594 27.757812 C 23.941406 27.9375 24 28.132812 23.949219 28.292969 C 23.699219 29.066406 23.429688 29.835938 23.140625 30.59375 C 22.953125 31.089844 22.679688 31.238281 22.148438 31.15625 C 21.886719 31.117188 21.632812 31.03125 21.332031 30.953125 C 20.472656 31.445312 20.03125 32.4375 19.078125 32.925781 C 19.332031 33.628906 19.566406 34.277344 19.796875 34.929688 C 18.722656 35.496094 17.761719 36.261719 16.6875 36.722656 C 15.933594 36.519531 16.023438 35.785156 15.683594 35.316406 C 15.375 35.316406 15.070312 35.285156 14.773438 35.320312 C 14.007812 35.414062 13.910156 35.535156 13.832031 36.351562 C 13.816406 36.546875 13.832031 36.746094 13.785156 36.929688 C 13.753906 37.070312 13.667969 37.28125 13.566406 37.308594 C 13.074219 37.449219 12.714844 37.886719 12.089844 37.792969 C 11.605469 37.722656 11.09375 37.878906 10.703125 37.457031 C 10.46875 37.203125 9.949219 37.417969 9.875 36.960938 C 9.824219 36.660156 9.878906 36.347656 9.882812 36.042969 C 9.886719 35.855469 9.882812 35.667969 9.882812 35.507812 C 9.355469 35.289062 8.902344 35.105469 8.445312 34.90625 C 8.078125 34.75 7.792969 34.828125 7.523438 35.132812 C 7.324219 35.363281 7.074219 35.546875 6.835938 35.742188 C 6.78125 35.785156 6.6875 35.773438 6.570312 35.800781 C 6.007812 35.320312 5.433594 34.820312 5.050781 34.121094 C 4.910156 33.859375 4.667969 33.648438 4.484375 33.402344 C 4.332031 33.203125 4.359375 32.953125 4.535156 32.773438 C 4.886719 32.425781 5.378906 32.226562 5.644531 31.722656 C 5.332031 31.289062 5.019531 30.859375 4.730469 30.453125 C 4.253906 30.355469 3.980469 30.714844 3.625 30.820312 C 3.269531 30.921875 3 30.773438 2.976562 30.394531 C 2.925781 29.464844 2.886719 28.535156 2.875 27.605469 C 2.871094 27.234375 3.070312 27.035156 3.460938 27.070312 C 3.835938 27.109375 4.140625 27.058594 4.441406 26.773438 C 4.472656 26.261719 4.503906 25.722656 4.535156 25.136719 C 4.066406 24.859375 3.414062 25.046875 2.925781 24.597656 C 3.230469 23.761719 3.46875 22.914062 3.5 22.019531 C 3.511719 21.6875 3.914062 21.410156 4.253906 21.4375 C 4.402344 21.449219 4.546875 21.523438 4.695312 21.550781 C 4.847656 21.578125 5 21.578125 5.203125 21.597656 C 5.78125 20.996094 6.09375 20.1875 6.660156 19.496094 C 6.46875 19.15625 6.28125 18.828125 6.054688 18.417969 C 6.210938 18.214844 6.359375 17.945312 6.574219 17.75 C 7.0625 17.308594 7.570312 16.898438 8.082031 16.492188 C 8.46875 16.183594 8.480469 16.191406 9.304688 16.257812 C 9.480469 16.601562 9.667969 16.976562 9.871094 17.378906 C 10.71875 17.207031 11.53125 17.039062 12.34375 16.871094 C 12.636719 16.386719 12.238281 15.863281 12.46875 15.355469 C 13.605469 14.96875 14.746094 14.855469 15.941406 15.449219 L 15.941406 16.796875 C 16.589844 17.027344 17.195312 17.246094 17.757812 17.441406 C 18.425781 17.117188 18.710938 16.410156 19.445312 16.226562 C 19.878906 16.601562 20.324219 17.015625 20.796875 17.390625 C 21.03125 17.578125 21.304688 17.726562 21.585938 17.835938 C 21.859375 17.945312 22.003906 17.738281 22.105469 17.457031 C 21.875 16.925781 21.632812 16.363281 21.40625 15.84375 C 20.878906 15.710938 20.386719 15.621094 19.925781 15.453125 C 19.402344 15.257812 19.222656 14.847656 19.289062 14.253906 C 19.339844 13.792969 19.359375 13.328125 19.402344 12.863281 C 19.480469 12.027344 19.738281 11.835938 20.609375 11.9375 C 20.796875 11.957031 20.984375 11.957031 21.25 11.96875 Z M 35.9375 20.6875 C 36.511719 20.136719 37.082031 19.585938 37.703125 18.992188 C 38.246094 19.371094 38.742188 19.71875 39.25 20.074219 C 39.792969 19.828125 40.035156 19.367188 40.253906 18.824219 C 39.738281 18.351562 39.234375 17.886719 38.714844 17.410156 C 39.191406 16.726562 39.660156 16.082031 39.796875 15.265625 C 40.445312 15.226562 40.882812 15.8125 41.519531 15.675781 C 41.664062 15.273438 41.816406 14.878906 41.949219 14.480469 C 41.972656 14.417969 41.929688 14.332031 41.910156 14.242188 C 41.410156 14.109375 40.902344 13.976562 40.378906 13.839844 C 40.296875 13.042969 40.320312 12.320312 40.402344 11.589844 C 40.957031 11.363281 41.476562 11.148438 41.984375 10.941406 C 42 10.265625 41.882812 9.710938 41.648438 9.199219 C 40.976562 9.03125 40.59375 9.671875 39.953125 9.730469 C 39.589844 8.851562 39.355469 7.894531 38.582031 7.269531 C 38.792969 6.5 39.535156 6.210938 39.867188 5.5625 C 39.429688 5.09375 39.027344 4.585938 38.453125 4.121094 C 38.199219 4.488281 38.003906 4.8125 37.765625 5.101562 C 37.519531 5.402344 37.710938 5.882812 37.261719 6.21875 C 36.511719 5.566406 35.769531 4.917969 34.839844 4.570312 C 34.886719 3.933594 35.144531 3.390625 35.054688 2.773438 C 34.410156 2.476562 33.734375 2.429688 33.101562 2.304688 C 32.699219 2.964844 33.101562 3.53125 33.238281 4.128906 C 33.035156 4.207031 32.898438 4.289062 32.757812 4.304688 C 32.226562 4.367188 31.695312 4.414062 31.160156 4.457031 C 30.777344 4.488281 30.394531 4.515625 30.011719 4.527344 C 29.664062 4.535156 29.445312 4.34375 29.320312 4.019531 C 29.175781 3.632812 29.128906 3.195312 28.734375 2.824219 C 28.058594 3.113281 27.296875 3.210938 26.6875 3.773438 C 26.914062 4.371094 27.125 4.9375 27.347656 5.527344 C 26.886719 5.820312 26.414062 6.070312 25.996094 6.398438 C 25.546875 6.746094 25.246094 7.273438 24.6875 7.613281 C 24.242188 7.25 23.804688 6.890625 23.355469 6.519531 C 22.574219 6.847656 22.476562 7.675781 21.984375 8.140625 C 22.316406 8.8125 23.125 8.902344 23.390625 9.59375 C 23.308594 9.71875 23.238281 9.859375 23.140625 9.96875 C 22.710938 10.457031 22.578125 11.070312 22.484375 11.679688 C 22.371094 12.414062 22.382812 12.460938 21.75 12.523438 C 21.300781 12.5625 20.847656 12.566406 20.425781 12.589844 C 20.207031 13.273438 20.128906 13.851562 20.1875 14.316406 C 20.851562 14.714844 21.625 14.445312 22.304688 14.644531 C 22.445312 15.128906 22.53125 15.59375 22.71875 16.015625 C 22.898438 16.421875 23.183594 16.785156 23.4375 17.199219 C 23 17.863281 22.132812 18.136719 21.820312 18.964844 C 21.945312 19.1875 22.054688 19.4375 22.210938 19.65625 C 22.449219 19.996094 22.71875 20.316406 22.984375 20.65625 C 23.480469 20.523438 23.855469 20.242188 24.269531 20.050781 C 24.4375 19.972656 24.667969 19.859375 24.804688 19.914062 C 25.289062 20.113281 25.84375 20.160156 26.265625 20.546875 C 26.1875 21.332031 25.550781 21.84375 25.367188 22.597656 C 25.476562 22.6875 25.578125 22.804688 25.707031 22.867188 C 26.625 23.3125 26.800781 23.257812 27.191406 22.347656 C 27.390625 21.886719 27.554688 21.414062 27.96875 21.160156 C 28.734375 21.292969 29.429688 21.414062 30.132812 21.539062 C 30.035156 22.488281 29.789062 23.355469 30.046875 24.261719 C 30.585938 24.359375 31.066406 24.449219 31.53125 24.121094 C 31.6875 23.589844 31.601562 23.046875 31.628906 22.507812 C 31.652344 22.035156 31.796875 21.847656 32.238281 21.832031 C 32.925781 21.808594 33.609375 21.824219 34.257812 21.824219 C 34.863281 22.429688 34.671875 23.386719 35.371094 23.917969 C 36.003906 23.753906 36.558594 23.46875 36.960938 22.824219 C 36.648438 22.167969 36.335938 21.507812 35.945312 20.6875 Z M 13.140625 18.265625 C 12.304688 17.960938 11.632812 18.085938 10.980469 18.328125 C 10.625 18.460938 10.304688 18.691406 9.957031 18.851562 C 9.796875 18.921875 9.609375 18.921875 9.417969 18.960938 C 9.261719 18.636719 9.160156 18.339844 8.992188 18.089844 C 8.804688 17.8125 8.855469 17.375 8.421875 17.238281 C 7.816406 17.542969 7.257812 17.921875 6.890625 18.640625 C 7.152344 18.988281 7.410156 19.316406 7.648438 19.652344 C 7.730469 19.769531 7.785156 19.90625 7.867188 20.066406 C 6.972656 20.683594 6.480469 21.53125 6.1875 22.523438 C 6.148438 22.652344 6.011719 22.753906 5.902344 22.886719 C 5.367188 22.566406 4.847656 22.339844 4.179688 22.605469 C 4.089844 22.9375 3.964844 23.300781 3.902344 23.675781 C 3.867188 23.878906 3.9375 24.101562 3.964844 24.328125 C 4.1875 24.351562 4.335938 24.367188 4.484375 24.378906 C 4.679688 24.386719 4.871094 24.371094 5.0625 24.398438 C 5.503906 24.460938 5.773438 24.746094 5.722656 25.195312 C 5.625 26.035156 5.519531 26.871094 5.734375 27.707031 C 5.121094 28.109375 4.40625 27.925781 3.820312 28.222656 C 3.644531 28.8125 3.644531 29.367188 3.816406 29.953125 C 4.308594 29.851562 4.753906 29.738281 5.203125 29.679688 C 5.519531 29.636719 5.792969 29.746094 5.988281 30.046875 C 6.347656 30.59375 6.738281 31.121094 7.09375 31.671875 C 7.167969 31.78125 7.144531 31.960938 7.171875 32.136719 C 6.542969 32.539062 5.863281 32.851562 5.507812 33.574219 C 5.769531 34.167969 6.175781 34.605469 6.667969 34.878906 C 7.179688 34.566406 7.609375 34.246094 8.085938 34.027344 C 8.34375 33.90625 8.707031 33.859375 8.96875 33.945312 C 9.6875 34.175781 10.378906 34.496094 11.078125 34.777344 C 11.226562 35.484375 10.925781 36.191406 11.171875 36.933594 C 11.808594 36.957031 12.4375 37.078125 13.128906 36.820312 C 13.167969 36.070312 13.203125 35.347656 13.242188 34.574219 C 14.210938 34.390625 15.175781 34.207031 16.214844 34.007812 C 16.632812 34.191406 16.667969 34.695312 16.847656 35.113281 C 16.929688 35.3125 17.03125 35.5 17.132812 35.707031 C 17.832031 35.402344 18.488281 35.175781 18.855469 34.523438 C 18.640625 33.769531 18.429688 33.03125 18.222656 32.316406 C 18.710938 31.933594 19.167969 31.636719 19.546875 31.261719 C 19.953125 30.859375 20.28125 30.386719 20.667969 29.914062 C 21.28125 30.101562 21.855469 30.277344 22.492188 30.472656 C 22.808594 29.707031 23.121094 29.015625 23.257812 28.230469 C 22.691406 28.09375 22.167969 27.984375 21.65625 27.84375 C 21.378906 27.765625 21.21875 27.488281 21.261719 27.207031 C 21.300781 26.980469 21.394531 26.761719 21.429688 26.53125 C 21.5 26.089844 21.710938 25.667969 21.460938 25.183594 C 21.3125 24.898438 21.726562 24.539062 22.117188 24.648438 C 22.570312 24.773438 22.925781 24.667969 23.3125 24.445312 C 23.425781 23.761719 23.382812 23.132812 23.09375 22.519531 C 22.632812 22.519531 22.210938 22.488281 21.796875 22.527344 C 21.300781 22.570312 20.992188 22.34375 20.773438 21.933594 C 20.667969 21.730469 20.582031 21.511719 20.472656 21.308594 C 20.15625 20.714844 19.734375 20.226562 19.210938 19.84375 C 19.5625 19.171875 20.289062 18.75 20.488281 17.945312 C 20.085938 17.644531 19.6875 17.351562 19.304688 17.066406 C 18.460938 17.433594 18.230469 18.441406 17.476562 18.738281 C 16.535156 18.472656 15.664062 18.234375 14.792969 17.992188 C 14.792969 17.148438 15.242188 16.34375 14.742188 15.53125 C 14.464844 15.546875 14.195312 15.542969 13.9375 15.589844 C 13.683594 15.636719 13.4375 15.734375 13.140625 15.824219 Z M 22.945312 21.742188 C 22.625 21.300781 22.335938 20.902344 22.046875 20.503906 C 21.773438 20.132812 21.511719 19.75 21.222656 19.390625 C 21.171875 19.324219 21.023438 19.332031 20.921875 19.304688 C 20.890625 19.441406 20.789062 19.625 20.84375 19.710938 C 21.238281 20.371094 21.652344 21.023438 22.082031 21.660156 C 22.304688 21.984375 22.609375 21.882812 22.945312 21.742188 Z M 22.945312 21.742188 " fill-opacity="1" fill-rule="nonzero"/></g><g clip-path="url(#0d0ee3e66f)"><path fill="#000000" d="M 34.339844 37.53125 C 33.992188 37.613281 33.699219 37.664062 33.414062 37.75 C 33.066406 37.851562 32.835938 38.066406 32.679688 38.421875 C 32.351562 39.164062 32.34375 39.238281 32.949219 39.808594 C 33.167969 40.019531 33.390625 40.226562 33.617188 40.4375 C 33.542969 40.800781 33.464844 41.058594 33.054688 41.21875 C 32.699219 41.359375 32.40625 41.726562 32.140625 42.046875 C 31.902344 42.332031 31.664062 42.542969 31.265625 42.484375 C 30.964844 42.199219 31.285156 41.582031 30.636719 41.425781 C 30.3125 41.65625 29.941406 41.921875 29.550781 42.199219 L 29.550781 43.675781 C 28.558594 44.503906 27.625 44.761719 26.257812 44.582031 C 26.195312 44.359375 26.101562 44.109375 26.054688 43.851562 C 26.003906 43.589844 25.996094 43.320312 25.972656 43.074219 C 25.613281 42.773438 25.21875 42.882812 24.847656 42.859375 C 24.292969 43.164062 24.167969 43.898438 23.574219 44.160156 C 23.449219 44.128906 23.324219 44.128906 23.238281 44.066406 C 22.640625 43.640625 22.046875 43.21875 21.472656 42.773438 C 21.167969 42.542969 21.148438 42.261719 21.386719 41.96875 C 21.652344 41.648438 21.933594 41.339844 22.234375 40.996094 C 21.886719 40.558594 21.582031 40.171875 21.238281 39.730469 C 20.941406 39.804688 20.652344 39.886719 20.363281 39.949219 C 19.832031 40.0625 19.601562 39.941406 19.347656 39.4375 C 19.328125 39.40625 19.304688 39.371094 19.292969 39.335938 C 19.066406 38.589844 19.054688 37.835938 19.160156 37.054688 C 19.527344 36.957031 19.855469 36.867188 20.175781 36.78125 C 20.640625 36.144531 20.527344 35.367188 20.722656 34.671875 C 20.761719 34.527344 20.625 34.300781 20.515625 34.15625 C 20.316406 33.878906 20.078125 33.628906 19.851562 33.363281 C 20.160156 32.320312 21.085938 32.015625 21.871094 31.445312 C 22.253906 31.773438 22.628906 32.089844 23.027344 32.425781 C 23.449219 32.285156 23.695312 31.9375 24.070312 31.644531 C 23.988281 31.332031 23.917969 31.039062 23.839844 30.75 C 23.683594 30.15625 23.972656 29.660156 24.554688 29.535156 C 25.1875 29.390625 25.820312 29.253906 26.453125 29.117188 C 26.679688 29.070312 26.941406 29.210938 26.992188 29.441406 C 27.082031 29.816406 27.148438 30.199219 27.234375 30.644531 C 27.921875 30.761719 28.628906 30.882812 29.394531 31.011719 C 29.53125 30.851562 29.683594 30.691406 29.816406 30.511719 C 30.308594 29.851562 30.921875 29.609375 31.628906 30.386719 C 31.808594 30.585938 31.988281 30.800781 32.199219 30.960938 C 32.371094 31.089844 32.59375 31.160156 32.851562 31.28125 C 32.484375 31.910156 32.140625 32.503906 31.78125 33.113281 C 32.101562 33.65625 32.40625 34.1875 32.714844 34.710938 C 32.792969 34.738281 32.863281 34.789062 32.929688 34.785156 C 33.839844 34.726562 33.945312 34.792969 34.179688 35.578125 C 34.367188 36.214844 34.378906 36.859375 34.339844 37.535156 Z M 26.882812 44.222656 C 27.492188 43.992188 28.144531 44.074219 28.53125 43.484375 C 28.472656 42.960938 28.414062 42.464844 28.359375 41.988281 C 28.796875 41.699219 29.175781 41.449219 29.550781 41.191406 C 29.949219 40.921875 30.199219 40.414062 30.789062 40.402344 C 31.085938 40.753906 31.375 41.09375 31.683594 41.457031 C 32.074219 41.238281 32.40625 41.0625 32.464844 40.664062 C 32.164062 39.980469 31.300781 40.265625 30.945312 39.667969 C 31.15625 39.332031 31.394531 39.023438 31.546875 38.671875 C 31.710938 38.292969 31.792969 37.875 31.914062 37.472656 C 32.5 37.304688 33.148438 37.382812 33.699219 36.914062 C 33.679688 36.558594 33.652344 36.183594 33.628906 35.730469 C 33.003906 35.902344 32.472656 36.050781 31.96875 36.191406 C 31.503906 35.746094 31.738281 35.15625 31.488281 34.722656 C 31.222656 34.261719 30.953125 33.808594 30.6875 33.355469 C 31.140625 32.753906 31.695312 32.296875 31.886719 31.605469 C 31.65625 31.25 31.472656 30.910156 30.976562 30.886719 C 30.738281 31.175781 30.5 31.472656 30.25 31.761719 C 29.6875 32.421875 29.667969 32.4375 28.917969 32.046875 C 28.421875 31.789062 27.914062 31.703125 27.367188 31.777344 C 27.1875 31.800781 27.007812 31.820312 26.859375 31.835938 C 26.324219 31.285156 26.726562 30.566406 26.367188 29.988281 C 25.859375 29.941406 25.34375 29.914062 24.855469 30.324219 C 24.992188 30.894531 25.128906 31.449219 25.265625 32.019531 C 24.660156 32.652344 23.898438 33.015625 23.3125 33.511719 C 22.804688 33.453125 22.753906 33.023438 22.507812 32.796875 C 22.289062 32.589844 22.140625 32.289062 21.71875 32.296875 C 21.457031 32.488281 21.054688 32.59375 20.929688 33.085938 C 21.1875 33.746094 21.820312 34.1875 22.15625 34.808594 C 21.992188 35.203125 21.796875 35.578125 21.679688 35.972656 C 21.546875 36.402344 21.761719 36.878906 21.625 37.324219 C 20.996094 37.386719 20.433594 37.445312 19.882812 37.5 C 19.703125 37.988281 19.691406 38.386719 19.902344 38.8125 C 20.421875 38.8125 20.914062 38.816406 21.40625 38.8125 C 21.695312 38.8125 21.9375 38.910156 22.097656 39.15625 C 22.289062 39.445312 22.441406 39.765625 22.652344 40.039062 C 22.875 40.328125 23.144531 40.574219 23.4375 40.886719 C 23.125 41.140625 22.84375 41.332031 22.605469 41.570312 C 22.367188 41.808594 22.0625 42.015625 22.027344 42.4375 C 22.414062 42.71875 22.816406 43.003906 23.265625 43.324219 C 23.488281 43.089844 23.691406 42.871094 23.898438 42.648438 C 24.082031 42.453125 24.242188 42.226562 24.453125 42.066406 C 24.59375 41.964844 24.804688 41.910156 24.984375 41.917969 C 25.246094 41.925781 25.503906 42.027344 25.765625 42.054688 C 26.015625 42.074219 26.207031 41.703125 26.554688 41.957031 C 26.835938 42.59375 26.460938 43.375 26.886719 44.226562 Z M 26.882812 44.222656 " fill-opacity="1" fill-rule="nonzero"/></g><path fill="#000000" d="M 31.335938 6.160156 C 32.460938 6.015625 33.683594 6.234375 34.890625 6.722656 C 36.882812 7.527344 37.980469 9.046875 38.457031 11.101562 C 38.527344 11.402344 38.535156 11.71875 38.605469 12.019531 C 38.773438 12.753906 38.777344 13.472656 38.519531 14.195312 C 38.339844 14.707031 38.230469 15.238281 38.101562 15.765625 C 37.902344 16.578125 37.4375 17.222656 36.933594 17.871094 C 35.925781 19.175781 34.539062 19.925781 33.105469 20.570312 C 32.261719 20.949219 31.351562 21.074219 30.429688 20.621094 C 29.851562 20.335938 29.214844 20.128906 28.582031 20.007812 C 26.988281 19.707031 25.894531 18.660156 25.003906 17.449219 C 23.449219 15.34375 23.195312 12.980469 24.105469 10.511719 C 24.375 9.785156 24.746094 9.105469 25.257812 8.511719 C 25.714844 7.984375 26.179688 7.464844 26.902344 7.300781 C 27.050781 7.265625 27.191406 7.1875 27.316406 7.101562 C 28.484375 6.300781 29.8125 6.167969 31.332031 6.160156 Z M 31.800781 6.6875 C 30.273438 6.886719 28.722656 6.691406 27.464844 7.75 C 27.378906 7.820312 27.253906 7.835938 27.144531 7.871094 C 26.226562 8.148438 25.691406 8.851562 25.25 9.636719 C 25.023438 10.039062 24.828125 10.46875 24.6875 10.90625 C 24.242188 12.257812 23.949219 13.613281 24.917969 14.894531 C 25.007812 15.015625 25.023438 15.1875 25.097656 15.320312 C 25.832031 16.574219 26.75 17.617188 28.070312 18.289062 C 28.90625 18.714844 29.761719 18.929688 30.679688 19.082031 C 32.070312 19.308594 33.253906 19.003906 34.300781 18.085938 C 34.707031 17.730469 35.113281 17.378906 35.511719 17.015625 C 36.261719 16.328125 36.816406 15.492188 37.226562 14.566406 C 37.859375 13.121094 37.699219 11.621094 37.488281 10.125 C 37.464844 9.976562 37.402344 9.824219 37.320312 9.691406 C 36.9375 9.0625 36.542969 8.445312 35.945312 7.992188 C 34.695312 7.042969 33.25 6.769531 31.800781 6.683594 Z M 31.800781 6.6875 " fill-opacity="1" fill-rule="nonzero"/><path fill="#000000" d="M 20.738281 26.101562 C 20.707031 27.722656 20.03125 29.308594 18.679688 30.589844 C 18.175781 31.0625 17.65625 31.523438 17.117188 31.953125 C 16.261719 32.632812 15.273438 33.011719 14.222656 33.292969 C 12.878906 33.652344 11.644531 33.4375 10.464844 32.761719 C 10 32.492188 9.554688 32.1875 9.117188 31.875 C 8.136719 31.179688 7.492188 30.25 7.230469 29.058594 C 7.121094 28.570312 7.011719 28.074219 6.859375 27.59375 C 6.535156 26.558594 6.65625 25.535156 6.816406 24.492188 C 6.941406 23.671875 7.222656 22.9375 7.613281 22.214844 C 8.191406 21.144531 9.007812 20.371094 10.15625 20.019531 C 11.179688 19.707031 12.167969 19.289062 13.246094 19.140625 C 14.617188 18.957031 15.933594 19.167969 17.1875 19.644531 C 18.171875 20.019531 18.878906 20.839844 19.496094 21.6875 C 20.398438 22.917969 20.695312 24.34375 20.738281 26.101562 Z M 20.171875 25.863281 C 20.125 23.707031 19.535156 21.847656 17.515625 20.699219 C 16.972656 20.390625 16.496094 20.035156 15.832031 20.109375 C 15.648438 20.132812 15.457031 20.042969 15.269531 20.027344 C 14.8125 20 14.34375 19.914062 13.902344 19.984375 C 13.042969 20.125 12.160156 20.210938 11.382812 20.6875 C 11.160156 20.824219 10.878906 20.855469 10.621094 20.925781 C 9.785156 21.140625 9.175781 21.652344 8.832031 22.4375 C 8.382812 23.464844 8.109375 24.546875 8.035156 25.675781 C 7.941406 27.1875 8.394531 28.582031 8.875 29.972656 C 8.9375 30.144531 9.074219 30.296875 9.203125 30.425781 C 9.558594 30.773438 9.921875 31.117188 10.300781 31.441406 C 10.5625 31.667969 10.847656 31.871094 11.125 32.070312 C 12.285156 32.90625 13.515625 33.003906 14.8125 32.441406 C 16.054688 31.90625 17.183594 31.191406 18.175781 30.253906 C 19.429688 29.066406 20.214844 27.664062 20.167969 25.859375 Z M 20.171875 25.863281 " fill-opacity="1" fill-rule="nonzero"/><path fill="#000000" d="M 27.320312 41.140625 C 25.90625 41.175781 24.765625 40.761719 23.730469 39.917969 C 22.433594 38.859375 22.210938 37.484375 22.4375 35.953125 C 22.503906 35.496094 22.710938 35.066406 23.042969 34.722656 C 23.832031 33.910156 24.734375 33.269531 25.820312 32.941406 C 26.109375 32.855469 26.429688 32.816406 26.722656 32.855469 C 27.398438 32.945312 28.101562 33.007812 28.734375 33.242188 C 29.421875 33.5 29.90625 34.085938 30.292969 34.71875 C 31.265625 36.3125 31.046875 37.886719 30.222656 39.453125 C 29.582031 40.664062 28.597656 41.269531 27.320312 41.144531 Z M 29.28125 36.269531 L 29.3125 36.304688 C 29.097656 35.351562 28.636719 34.566406 27.683594 34.230469 C 27.1875 34.054688 26.648438 33.972656 26.121094 33.929688 C 24.804688 33.824219 24.039062 34.714844 23.308594 35.625 C 23.195312 35.765625 23.152344 35.980469 23.117188 36.167969 C 22.949219 37.039062 23.046875 37.898438 23.515625 38.632812 C 23.953125 39.316406 24.589844 39.875 25.339844 40.164062 C 26.046875 40.433594 26.816406 40.554688 27.59375 40.503906 C 28.808594 40.425781 29.433594 39.851562 29.511719 38.640625 C 29.554688 37.984375 29.511719 37.324219 29.480469 36.667969 C 29.476562 36.53125 29.351562 36.402344 29.28125 36.269531 Z M 29.28125 36.269531 " fill-opacity="1" fill-rule="nonzero"/><path fill="#000000" d="M 36.472656 13.414062 C 36.601562 15.992188 33.964844 18.472656 31.167969 18.160156 C 30.75 18.113281 30.332031 18.058594 29.917969 17.976562 C 28.640625 17.734375 27.734375 16.898438 26.925781 15.957031 C 26.222656 15.140625 26.097656 14.128906 26.242188 13.113281 C 26.507812 11.242188 27.46875 9.804688 29.058594 8.800781 C 29.351562 8.617188 29.65625 8.453125 29.957031 8.28125 C 30.601562 7.921875 31.289062 7.867188 31.957031 8.125 C 32.671875 8.398438 33.390625 8.699219 34.035156 9.109375 C 35.550781 10.074219 36.480469 11.429688 36.472656 13.414062 Z M 34.765625 13.691406 C 34.679688 12.46875 34.410156 11.332031 33.066406 10.320312 C 31.8125 9.375 30.394531 9.746094 29.566406 10.398438 C 28.722656 11.0625 28.222656 11.988281 27.933594 13.007812 C 27.796875 13.484375 27.734375 14.042969 28.089844 14.457031 C 28.851562 15.332031 29.675781 16.152344 30.800781 16.546875 C 31.734375 16.871094 32.660156 17.007812 33.472656 16.222656 C 33.640625 16.0625 33.863281 15.964844 34.027344 15.804688 C 34.1875 15.652344 34.347656 15.464844 34.433594 15.265625 C 34.640625 14.765625 34.800781 14.246094 34.765625 13.691406 Z M 34.765625 13.691406 " fill-opacity="1" fill-rule="nonzero"/><path fill="#000000" d="M 16.847656 26.726562 C 16.871094 27.65625 16.496094 28.347656 15.890625 28.84375 C 15.03125 29.546875 14.039062 29.925781 12.910156 29.546875 C 12.035156 29.257812 11.214844 28.898438 10.527344 28.214844 C 9.925781 27.625 9.789062 26.964844 9.9375 26.214844 C 10.078125 25.488281 10.410156 24.828125 10.828125 24.21875 C 11.308594 23.523438 12.0625 23.339844 12.8125 23.183594 C 13.179688 23.105469 13.578125 23.121094 13.953125 23.160156 C 15.089844 23.273438 15.824219 24 16.351562 24.933594 C 16.675781 25.5 16.863281 26.140625 16.851562 26.726562 Z M 13.046875 28.472656 C 13.808594 28.402344 14.382812 28.128906 14.910156 27.710938 C 15.210938 27.46875 15.398438 27.152344 15.3125 26.808594 C 15.136719 26.101562 14.953125 25.386719 14.539062 24.765625 C 14.355469 24.492188 14.109375 24.320312 13.800781 24.25 C 13.078125 24.089844 12.425781 24.238281 11.898438 24.777344 C 11.003906 25.691406 11.113281 27.167969 12.132812 27.933594 C 12.40625 28.136719 12.722656 28.28125 13.046875 28.472656 Z M 13.046875 28.472656 " fill-opacity="1" fill-rule="nonzero"/><path fill="#000000" d="M 29.28125 36.269531 C 29.28125 36.578125 29.292969 36.886719 29.28125 37.195312 C 29.238281 38.375 28.59375 39.035156 27.429688 39.308594 C 26.488281 39.527344 25.695312 39.257812 24.949219 38.769531 C 24.230469 38.300781 24.035156 37.664062 24.316406 36.859375 C 24.625 35.992188 25.152344 35.304688 26.046875 34.984375 C 26.296875 34.894531 26.550781 34.804688 26.800781 34.71875 C 27.574219 34.449219 28.070312 34.617188 28.570312 35.308594 C 28.8125 35.644531 29.0625 35.972656 29.3125 36.308594 C 29.3125 36.308594 29.28125 36.273438 29.28125 36.273438 Z M 27.15625 35.785156 C 26.765625 36.011719 26.386719 36.199219 26.042969 36.4375 C 25.632812 36.71875 25.609375 37.472656 26.019531 37.746094 C 26.292969 37.933594 26.636719 38.074219 26.964844 38.113281 C 27.714844 38.199219 28.253906 37.433594 27.972656 36.710938 C 27.832031 36.347656 27.644531 36.007812 27.15625 35.785156 Z M 27.15625 35.785156 " fill-opacity="1" fill-rule="nonzero"/></svg>