<svg xmlns="http://www.w3.org/2000/svg" xmlns:xlink="http://www.w3.org/1999/xlink" width="62" zoomAndPan="magnify" viewBox="0 0 46.5 46.5" height="62" preserveAspectRatio="xMidYMid meet" version="1.0"><defs><clipPath id="47e4674bc5"><path d="M 3.085938 8 L 43.15625 8 L 43.15625 44.402344 L 3.085938 44.402344 Z M 3.085938 8 " clip-rule="nonzero"/></clipPath><clipPath id="35741c0f92"><path d="M 11 1.367188 L 27 1.367188 L 27 17 L 11 17 Z M 11 1.367188 " clip-rule="nonzero"/></clipPath></defs><g clip-path="url(#47e4674bc5)"><path fill="#000000" d="M 24.746094 34.03125 C 24.46875 34.824219 24.226562 35.515625 23.984375 36.1875 C 24.121094 36.59375 24.515625 36.628906 24.789062 36.824219 C 25.167969 37.101562 25.257812 37.371094 25.066406 37.828125 C 24.980469 38.035156 24.863281 38.238281 24.71875 38.414062 C 24.15625 39.09375 23.578125 39.765625 22.972656 40.472656 C 22.421875 40.296875 22.125 39.71875 21.558594 39.46875 C 21.226562 39.542969 21.0625 39.878906 20.820312 40.101562 C 20.566406 40.339844 20.347656 40.609375 20.082031 40.898438 C 20.140625 41.117188 20.214844 41.332031 20.257812 41.550781 C 20.304688 41.808594 20.441406 42.140625 20.335938 42.320312 C 20.136719 42.671875 19.84375 43.046875 19.496094 43.226562 C 18.78125 43.585938 18.007812 43.828125 17.257812 44.113281 C 17.152344 44.152344 17.035156 44.148438 16.882812 44.171875 C 16.460938 43.707031 16.40625 43.0625 16.15625 42.492188 C 15.507812 42.328125 14.941406 42.667969 14.273438 42.675781 C 14.21875 43.113281 14.171875 43.523438 14.117188 43.976562 C 13.671875 44.359375 13.1875 44.519531 12.5625 44.304688 C 11.878906 44.070312 11.179688 43.867188 10.429688 43.949219 C 10.210938 43.972656 10.042969 43.683594 10.105469 43.4375 C 10.191406 43.109375 10.292969 42.785156 10.394531 42.449219 C 9.976562 42.089844 9.601562 41.773438 9.171875 41.40625 C 8.867188 41.761719 8.605469 42.082031 8.328125 42.386719 C 8.128906 42.609375 7.871094 42.683594 7.597656 42.546875 C 7.328125 42.410156 7.03125 42.285156 6.820312 42.074219 C 6.339844 41.582031 5.902344 41.042969 5.464844 40.546875 C 5.527344 39.921875 6.144531 39.765625 6.335938 39.257812 C 6.023438 38.757812 5.699219 38.246094 5.382812 37.738281 C 5.214844 37.738281 5.097656 37.726562 4.988281 37.738281 C 4.046875 37.859375 3.96875 37.808594 3.65625 36.925781 C 3.398438 36.1875 3.464844 35.40625 3.191406 34.683594 C 3.753906 34.460938 4.203125 34.285156 4.6875 34.09375 C 4.667969 33.742188 4.652344 33.441406 4.636719 33.128906 C 3.984375 32.863281 3.195312 32.816406 3.113281 31.972656 C 3.433594 31.132812 3.726562 30.351562 4.039062 29.523438 C 4.476562 29.574219 4.84375 29.613281 5.28125 29.660156 C 5.453125 29.410156 5.640625 29.128906 5.824219 28.859375 C 5.761719 28.707031 5.746094 28.578125 5.671875 28.503906 C 5.410156 28.226562 5.113281 27.976562 4.855469 27.6875 C 4.6875 27.5 4.667969 27.230469 4.824219 27.042969 C 5.242188 26.542969 5.683594 26.0625 6.132812 25.589844 C 6.289062 25.429688 6.496094 25.320312 6.730469 25.148438 C 7.148438 25.429688 7.554688 25.707031 7.984375 25.996094 C 8.386719 25.875 8.621094 25.597656 8.757812 25.152344 C 8.605469 24.839844 8.421875 24.5 8.273438 24.148438 C 7.949219 23.386719 8.058594 22.917969 8.753906 22.449219 C 9.417969 22 10.125 21.613281 10.863281 21.171875 C 11.054688 21.367188 11.257812 21.492188 11.347656 21.675781 C 11.578125 22.160156 11.757812 22.667969 11.96875 23.191406 L 12.902344 23.191406 C 12.976562 23.089844 13.066406 23.007812 13.105469 22.90625 C 13.15625 22.761719 13.207031 22.605469 13.199219 22.457031 C 13.167969 21.753906 13.476562 21.273438 14.054688 20.984375 C 14.613281 21.023438 15.140625 21.066406 15.664062 21.085938 C 16.679688 21.117188 16.796875 21.238281 16.75 22.234375 C 16.734375 22.542969 16.730469 22.851562 16.734375 23.164062 C 16.734375 23.238281 16.78125 23.308594 16.832031 23.449219 C 17.09375 23.464844 17.382812 23.476562 17.617188 23.492188 C 18.164062 23.042969 18.113281 22.28125 18.71875 21.886719 C 19.652344 22.308594 20.777344 22.34375 21.582031 23.265625 C 21.265625 23.792969 20.957031 24.3125 20.648438 24.824219 C 21.070312 25.066406 21.621094 24.894531 22.300781 24.300781 C 22.0625 23.441406 22.015625 22.558594 21.988281 21.671875 C 21.976562 21.140625 22.148438 20.707031 22.632812 20.558594 C 23.164062 20.394531 23.375 20.074219 23.4375 19.5625 C 23.472656 19.296875 23.554688 19.035156 23.621094 18.761719 C 23.207031 18.304688 22.628906 18.398438 22.066406 18.242188 C 22.058594 18.066406 22 17.867188 22.050781 17.707031 C 22.300781 16.933594 22.570312 16.167969 22.859375 15.410156 C 23.046875 14.914062 23.320312 14.765625 23.851562 14.84375 C 24.113281 14.882812 24.367188 14.972656 24.667969 15.050781 C 25.527344 14.554688 25.96875 13.5625 26.921875 13.078125 C 26.667969 12.375 26.433594 11.726562 26.203125 11.074219 C 27.277344 10.503906 28.238281 9.738281 29.3125 9.28125 C 30.0625 9.484375 29.976562 10.21875 30.316406 10.6875 C 30.625 10.6875 30.929688 10.714844 31.226562 10.679688 C 31.992188 10.589844 32.089844 10.46875 32.164062 9.652344 C 32.183594 9.457031 32.164062 9.257812 32.214844 9.074219 C 32.246094 8.933594 32.332031 8.71875 32.433594 8.691406 C 32.925781 8.554688 33.285156 8.117188 33.910156 8.207031 C 34.390625 8.277344 34.90625 8.121094 35.296875 8.542969 C 35.53125 8.796875 36.050781 8.582031 36.125 9.042969 C 36.175781 9.339844 36.121094 9.652344 36.117188 9.960938 C 36.113281 10.148438 36.117188 10.332031 36.117188 10.496094 C 36.644531 10.710938 37.097656 10.898438 37.554688 11.09375 C 37.921875 11.253906 38.207031 11.175781 38.476562 10.867188 C 38.675781 10.640625 38.925781 10.457031 39.164062 10.261719 C 39.21875 10.21875 39.3125 10.226562 39.429688 10.203125 C 39.992188 10.679688 40.566406 11.183594 40.945312 11.878906 C 41.089844 12.144531 41.332031 12.355469 41.515625 12.597656 C 41.667969 12.800781 41.640625 13.050781 41.464844 13.226562 C 41.113281 13.574219 40.621094 13.773438 40.355469 14.28125 C 40.667969 14.710938 40.976562 15.140625 41.269531 15.546875 C 41.746094 15.644531 42.019531 15.285156 42.375 15.183594 C 42.730469 15.082031 43 15.226562 43.023438 15.609375 C 43.074219 16.535156 43.109375 17.46875 43.125 18.398438 C 43.128906 18.769531 42.929688 18.96875 42.539062 18.929688 C 42.164062 18.890625 41.859375 18.941406 41.558594 19.226562 C 41.527344 19.738281 41.496094 20.277344 41.464844 20.863281 C 41.933594 21.144531 42.585938 20.957031 43.074219 21.402344 C 42.769531 22.242188 42.53125 23.085938 42.5 23.984375 C 42.488281 24.3125 42.085938 24.589844 41.746094 24.5625 C 41.59375 24.550781 41.453125 24.480469 41.300781 24.453125 C 41.152344 24.425781 41 24.421875 40.796875 24.40625 C 40.21875 25.007812 39.90625 25.816406 39.339844 26.503906 C 39.53125 26.84375 39.71875 27.175781 39.941406 27.582031 C 39.789062 27.785156 39.640625 28.054688 39.425781 28.25 C 38.9375 28.691406 38.429688 29.101562 37.914062 29.511719 C 37.527344 29.820312 37.519531 29.808594 36.695312 29.742188 C 36.519531 29.398438 36.332031 29.027344 36.128906 28.625 C 35.28125 28.796875 34.46875 28.964844 33.65625 29.128906 C 33.363281 29.613281 33.761719 30.136719 33.53125 30.644531 C 32.394531 31.035156 31.253906 31.144531 30.058594 30.550781 L 30.058594 29.203125 C 29.410156 28.972656 28.804688 28.757812 28.242188 28.558594 C 27.574219 28.882812 27.289062 29.589844 26.554688 29.773438 C 26.121094 29.402344 25.675781 28.988281 25.203125 28.613281 C 24.96875 28.425781 24.695312 28.273438 24.414062 28.164062 C 24.140625 28.058594 23.996094 28.261719 23.894531 28.542969 C 24.125 29.074219 24.367188 29.640625 24.59375 30.15625 C 25.121094 30.292969 25.609375 30.378906 26.074219 30.550781 C 26.597656 30.746094 26.777344 31.15625 26.710938 31.746094 C 26.660156 32.210938 26.640625 32.671875 26.597656 33.136719 C 26.519531 33.972656 26.261719 34.164062 25.390625 34.066406 C 25.203125 34.042969 25.015625 34.042969 24.75 34.03125 Z M 10.0625 25.316406 C 9.488281 25.867188 8.917969 26.414062 8.296875 27.007812 C 7.753906 26.628906 7.257812 26.28125 6.75 25.925781 C 6.207031 26.171875 5.964844 26.632812 5.746094 27.179688 C 6.261719 27.652344 6.765625 28.117188 7.285156 28.59375 C 6.808594 29.273438 6.339844 29.921875 6.203125 30.738281 C 5.554688 30.773438 5.117188 30.1875 4.480469 30.324219 C 4.335938 30.730469 4.183594 31.125 4.050781 31.523438 C 4.027344 31.585938 4.070312 31.671875 4.089844 31.761719 C 4.589844 31.890625 5.097656 32.023438 5.621094 32.160156 C 5.703125 32.960938 5.679688 33.683594 5.597656 34.414062 C 5.042969 34.640625 4.523438 34.851562 4.015625 35.0625 C 4 35.734375 4.117188 36.292969 4.351562 36.804688 C 5.023438 36.96875 5.402344 36.332031 6.046875 36.269531 C 6.40625 37.152344 6.644531 38.109375 7.417969 38.734375 C 7.207031 39.5 6.464844 39.792969 6.132812 40.4375 C 6.570312 40.910156 6.972656 41.417969 7.546875 41.882812 C 7.800781 41.511719 7.996094 41.1875 8.234375 40.898438 C 8.480469 40.601562 8.289062 40.117188 8.738281 39.78125 C 9.488281 40.433594 10.230469 41.085938 11.160156 41.429688 C 11.113281 42.066406 10.855469 42.613281 10.945312 43.230469 C 11.589844 43.523438 12.265625 43.570312 12.898438 43.699219 C 13.300781 43.035156 12.898438 42.472656 12.761719 41.875 C 12.964844 41.796875 13.101562 41.714844 13.242188 41.695312 C 13.773438 41.632812 14.304688 41.585938 14.839844 41.542969 C 15.21875 41.511719 15.605469 41.484375 15.988281 41.476562 C 16.335938 41.464844 16.554688 41.65625 16.679688 41.980469 C 16.824219 42.371094 16.871094 42.808594 17.265625 43.175781 C 17.941406 42.890625 18.699219 42.789062 19.3125 42.226562 C 19.085938 41.628906 18.875 41.0625 18.652344 40.472656 C 19.113281 40.183594 19.585938 39.933594 20.003906 39.605469 C 20.453125 39.253906 20.753906 38.726562 21.3125 38.390625 C 21.757812 38.753906 22.191406 39.113281 22.644531 39.480469 C 23.425781 39.15625 23.523438 38.328125 24.015625 37.859375 C 23.683594 37.191406 22.871094 37.097656 22.609375 36.40625 C 22.691406 36.28125 22.761719 36.144531 22.859375 36.03125 C 23.289062 35.542969 23.421875 34.929688 23.515625 34.324219 C 23.628906 33.585938 23.613281 33.542969 24.25 33.480469 C 24.699219 33.4375 25.152344 33.433594 25.574219 33.414062 C 25.792969 32.726562 25.871094 32.152344 25.808594 31.683594 C 25.148438 31.285156 24.375 31.554688 23.695312 31.355469 C 23.554688 30.875 23.46875 30.40625 23.28125 29.988281 C 23.101562 29.578125 22.816406 29.214844 22.5625 28.804688 C 22.996094 28.136719 23.867188 27.867188 24.179688 27.035156 C 24.054688 26.8125 23.945312 26.566406 23.789062 26.347656 C 23.550781 26.003906 23.28125 25.683594 23.015625 25.34375 C 22.515625 25.476562 22.144531 25.757812 21.730469 25.949219 C 21.5625 26.027344 21.332031 26.144531 21.195312 26.085938 C 20.707031 25.890625 20.152344 25.839844 19.734375 25.453125 C 19.8125 24.671875 20.445312 24.15625 20.632812 23.402344 C 20.523438 23.316406 20.421875 23.195312 20.292969 23.132812 C 19.375 22.6875 19.199219 22.742188 18.808594 23.652344 C 18.605469 24.113281 18.445312 24.589844 18.03125 24.84375 C 17.265625 24.710938 16.570312 24.589844 15.867188 24.464844 C 15.964844 23.515625 16.210938 22.648438 15.953125 21.738281 C 15.414062 21.640625 14.933594 21.554688 14.46875 21.882812 C 14.308594 22.410156 14.398438 22.957031 14.371094 23.496094 C 14.347656 23.96875 14.203125 24.152344 13.761719 24.171875 C 13.074219 24.195312 12.390625 24.175781 11.742188 24.175781 C 11.136719 23.574219 11.328125 22.617188 10.628906 22.082031 C 9.996094 22.25 9.441406 22.53125 9.039062 23.175781 C 9.351562 23.835938 9.664062 24.492188 10.054688 25.316406 Z M 32.859375 27.734375 C 33.695312 28.039062 34.367188 27.914062 35.019531 27.671875 C 35.375 27.542969 35.695312 27.308594 36.042969 27.152344 C 36.199219 27.078125 36.390625 27.078125 36.582031 27.039062 C 36.738281 27.363281 36.839844 27.660156 37.007812 27.910156 C 37.195312 28.1875 37.144531 28.625 37.578125 28.765625 C 38.183594 28.457031 38.742188 28.078125 39.105469 27.363281 C 38.84375 27.015625 38.589844 26.6875 38.351562 26.347656 C 38.269531 26.234375 38.214844 26.097656 38.132812 25.9375 C 39.027344 25.316406 39.519531 24.46875 39.8125 23.480469 C 39.847656 23.347656 39.988281 23.25 40.097656 23.113281 C 40.632812 23.433594 41.152344 23.664062 41.820312 23.394531 C 41.910156 23.066406 42.035156 22.699219 42.097656 22.324219 C 42.132812 22.121094 42.0625 21.898438 42.035156 21.671875 C 41.8125 21.652344 41.664062 21.632812 41.515625 21.625 C 41.320312 21.613281 41.128906 21.628906 40.9375 21.601562 C 40.496094 21.539062 40.226562 21.253906 40.277344 20.808594 C 40.375 19.96875 40.480469 19.132812 40.265625 18.296875 C 40.878906 17.890625 41.59375 18.078125 42.179688 17.777344 C 42.355469 17.191406 42.355469 16.636719 42.183594 16.046875 C 41.6875 16.148438 41.246094 16.261719 40.796875 16.324219 C 40.480469 16.367188 40.203125 16.257812 40.011719 15.957031 C 39.652344 15.40625 39.261719 14.882812 38.90625 14.332031 C 38.832031 14.21875 38.855469 14.042969 38.828125 13.863281 C 39.457031 13.464844 40.136719 13.148438 40.492188 12.429688 C 40.230469 11.835938 39.824219 11.394531 39.332031 11.121094 C 38.820312 11.4375 38.390625 11.753906 37.914062 11.976562 C 37.65625 12.09375 37.292969 12.140625 37.03125 12.054688 C 36.3125 11.824219 35.621094 11.507812 34.921875 11.226562 C 34.773438 10.515625 35.074219 9.8125 34.828125 9.066406 C 34.191406 9.042969 33.5625 8.925781 32.871094 9.183594 C 32.832031 9.933594 32.796875 10.65625 32.757812 11.425781 C 31.789062 11.613281 30.824219 11.792969 29.785156 11.992188 C 29.367188 11.8125 29.332031 11.304688 29.152344 10.886719 C 29.070312 10.691406 28.964844 10.5 28.867188 10.296875 C 28.167969 10.597656 27.511719 10.824219 27.144531 11.476562 C 27.359375 12.234375 27.570312 12.96875 27.773438 13.6875 C 27.289062 14.066406 26.832031 14.363281 26.453125 14.742188 C 26.046875 15.140625 25.71875 15.617188 25.332031 16.085938 C 24.71875 15.898438 24.144531 15.726562 23.507812 15.527344 C 23.191406 16.296875 22.878906 16.984375 22.742188 17.773438 C 23.308594 17.90625 23.832031 18.015625 24.34375 18.160156 C 24.621094 18.238281 24.78125 18.511719 24.738281 18.792969 C 24.699219 19.023438 24.605469 19.242188 24.570312 19.46875 C 24.5 19.914062 24.289062 20.332031 24.539062 20.820312 C 24.6875 21.101562 24.273438 21.460938 23.882812 21.355469 C 23.429688 21.226562 23.074219 21.335938 22.6875 21.558594 C 22.574219 22.238281 22.617188 22.867188 22.90625 23.484375 C 23.367188 23.484375 23.789062 23.511719 24.203125 23.476562 C 24.699219 23.429688 25.007812 23.65625 25.222656 24.066406 C 25.332031 24.273438 25.417969 24.488281 25.527344 24.691406 C 25.84375 25.285156 26.261719 25.773438 26.789062 26.160156 C 26.4375 26.828125 25.710938 27.253906 25.511719 28.054688 C 25.914062 28.355469 26.3125 28.648438 26.695312 28.9375 C 27.539062 28.566406 27.769531 27.558594 28.523438 27.265625 C 29.464844 27.527344 30.335938 27.769531 31.207031 28.007812 C 31.207031 28.855469 30.757812 29.65625 31.257812 30.46875 C 31.535156 30.453125 31.804688 30.457031 32.0625 30.410156 C 32.316406 30.367188 32.5625 30.265625 32.859375 30.175781 Z M 23.054688 24.261719 C 23.375 24.703125 23.664062 25.101562 23.953125 25.496094 C 24.226562 25.871094 24.488281 26.25 24.773438 26.609375 C 24.828125 26.675781 24.976562 26.671875 25.078125 26.695312 C 25.109375 26.558594 25.210938 26.378906 25.15625 26.292969 C 24.761719 25.628906 24.347656 24.980469 23.917969 24.34375 C 23.695312 24.015625 23.390625 24.121094 23.054688 24.261719 Z M 23.054688 24.261719 " fill-opacity="1" fill-rule="nonzero"/></g><g clip-path="url(#35741c0f92)"><path fill="#000000" d="M 11.660156 8.46875 C 12.007812 8.390625 12.300781 8.335938 12.585938 8.25 C 12.933594 8.148438 13.164062 7.9375 13.320312 7.582031 C 13.648438 6.835938 13.65625 6.765625 13.050781 6.191406 C 12.832031 5.984375 12.605469 5.777344 12.382812 5.566406 C 12.457031 5.203125 12.535156 4.945312 12.945312 4.785156 C 13.300781 4.644531 13.59375 4.273438 13.859375 3.957031 C 14.097656 3.667969 14.335938 3.460938 14.734375 3.515625 C 15.035156 3.800781 14.714844 4.421875 15.363281 4.574219 C 15.6875 4.34375 16.054688 4.082031 16.449219 3.800781 L 16.449219 2.324219 C 17.441406 1.496094 18.375 1.238281 19.742188 1.417969 C 19.804688 1.644531 19.898438 1.894531 19.945312 2.148438 C 19.996094 2.410156 20.003906 2.679688 20.027344 2.925781 C 20.386719 3.226562 20.78125 3.121094 21.152344 3.140625 C 21.707031 2.839844 21.832031 2.101562 22.425781 1.839844 C 22.546875 1.875 22.675781 1.875 22.761719 1.9375 C 23.359375 2.359375 23.953125 2.78125 24.527344 3.226562 C 24.832031 3.460938 24.851562 3.738281 24.613281 4.03125 C 24.347656 4.355469 24.066406 4.660156 23.765625 5.003906 C 24.113281 5.441406 24.417969 5.832031 24.761719 6.273438 C 25.058594 6.195312 25.347656 6.117188 25.636719 6.054688 C 26.164062 5.9375 26.398438 6.058594 26.652344 6.5625 C 26.671875 6.597656 26.695312 6.628906 26.707031 6.664062 C 26.933594 7.410156 26.945312 8.167969 26.839844 8.949219 C 26.472656 9.046875 26.144531 9.132812 25.824219 9.21875 C 25.359375 9.859375 25.472656 10.636719 25.277344 11.328125 C 25.238281 11.472656 25.375 11.699219 25.484375 11.847656 C 25.683594 12.125 25.921875 12.375 26.148438 12.640625 C 25.839844 13.683594 24.914062 13.984375 24.128906 14.554688 C 23.746094 14.226562 23.371094 13.914062 22.972656 13.574219 C 22.550781 13.71875 22.304688 14.0625 21.929688 14.355469 C 22.011719 14.671875 22.082031 14.960938 22.160156 15.253906 C 22.316406 15.84375 22.027344 16.339844 21.445312 16.46875 C 20.8125 16.609375 20.179688 16.746094 19.546875 16.882812 C 19.316406 16.933594 19.058594 16.789062 19.007812 16.5625 C 18.917969 16.183594 18.851562 15.804688 18.765625 15.359375 C 18.078125 15.242188 17.371094 15.121094 16.605469 14.992188 C 16.46875 15.148438 16.316406 15.3125 16.183594 15.488281 C 15.691406 16.148438 15.078125 16.390625 14.371094 15.613281 C 14.191406 15.414062 14.011719 15.203125 13.800781 15.042969 C 13.628906 14.910156 13.40625 14.84375 13.148438 14.71875 C 13.515625 14.09375 13.859375 13.5 14.214844 12.890625 C 13.898438 12.34375 13.59375 11.816406 13.285156 11.292969 C 13.207031 11.265625 13.136719 11.214844 13.070312 11.21875 C 12.160156 11.273438 12.054688 11.207031 11.820312 10.421875 C 11.632812 9.789062 11.621094 9.140625 11.660156 8.46875 Z M 19.117188 1.78125 C 18.507812 2.011719 17.855469 1.925781 17.46875 2.515625 C 17.527344 3.042969 17.585938 3.535156 17.640625 4.011719 C 17.203125 4.304688 16.824219 4.550781 16.449219 4.808594 C 16.050781 5.082031 15.800781 5.589844 15.210938 5.597656 C 14.914062 5.25 14.625 4.90625 14.316406 4.542969 C 13.925781 4.765625 13.59375 4.941406 13.535156 5.335938 C 13.835938 6.019531 14.699219 5.734375 15.050781 6.332031 C 14.84375 6.671875 14.601562 6.980469 14.453125 7.328125 C 14.289062 7.707031 14.207031 8.125 14.085938 8.527344 C 13.5 8.699219 12.851562 8.617188 12.300781 9.085938 C 12.320312 9.445312 12.34375 9.820312 12.371094 10.269531 C 12.992188 10.097656 13.527344 9.949219 14.03125 9.8125 C 14.496094 10.257812 14.261719 10.84375 14.511719 11.277344 C 14.777344 11.738281 15.046875 12.191406 15.3125 12.648438 C 14.859375 13.25 14.304688 13.703125 14.113281 14.394531 C 14.34375 14.75 14.527344 15.09375 15.023438 15.113281 C 15.261719 14.824219 15.5 14.53125 15.75 14.242188 C 16.3125 13.578125 16.332031 13.566406 17.082031 13.957031 C 17.578125 14.214844 18.085938 14.300781 18.632812 14.222656 C 18.8125 14.199219 18.992188 14.183594 19.140625 14.164062 C 19.675781 14.714844 19.273438 15.4375 19.632812 16.011719 C 20.140625 16.058594 20.65625 16.085938 21.144531 15.675781 C 21.007812 15.109375 20.871094 14.554688 20.734375 13.984375 C 21.339844 13.351562 22.101562 12.984375 22.6875 12.492188 C 23.195312 12.550781 23.246094 12.976562 23.492188 13.207031 C 23.710938 13.410156 23.859375 13.710938 24.28125 13.703125 C 24.542969 13.511719 24.945312 13.410156 25.070312 12.914062 C 24.8125 12.253906 24.179688 11.816406 23.84375 11.191406 C 24.007812 10.796875 24.203125 10.421875 24.320312 10.027344 C 24.449219 9.597656 24.238281 9.121094 24.375 8.675781 C 25.003906 8.613281 25.566406 8.558594 26.117188 8.503906 C 26.296875 8.011719 26.308594 7.613281 26.097656 7.1875 C 25.578125 7.1875 25.085938 7.183594 24.59375 7.1875 C 24.304688 7.191406 24.0625 7.09375 23.902344 6.847656 C 23.707031 6.554688 23.558594 6.238281 23.347656 5.964844 C 23.125 5.675781 22.855469 5.425781 22.5625 5.113281 C 22.875 4.863281 23.15625 4.671875 23.394531 4.433594 C 23.632812 4.195312 23.9375 3.988281 23.972656 3.5625 C 23.585938 3.285156 23.183594 2.996094 22.734375 2.675781 C 22.511719 2.910156 22.308594 3.132812 22.101562 3.355469 C 21.917969 3.550781 21.757812 3.777344 21.542969 3.933594 C 21.40625 4.039062 21.195312 4.089844 21.015625 4.085938 C 20.753906 4.074219 20.496094 3.972656 20.234375 3.949219 C 19.984375 3.925781 19.792969 4.300781 19.445312 4.046875 C 19.164062 3.410156 19.539062 2.625 19.113281 1.773438 Z M 19.117188 1.78125 " fill-opacity="1" fill-rule="nonzero"/></g><path fill="#000000" d="M 14.664062 39.84375 C 13.539062 39.988281 12.3125 39.765625 11.109375 39.28125 C 9.117188 38.476562 8.015625 36.953125 7.542969 34.902344 C 7.472656 34.601562 7.464844 34.285156 7.394531 33.984375 C 7.226562 33.246094 7.222656 32.53125 7.480469 31.804688 C 7.660156 31.296875 7.769531 30.761719 7.898438 30.234375 C 8.097656 29.425781 8.5625 28.777344 9.066406 28.128906 C 10.074219 26.824219 11.460938 26.078125 12.894531 25.429688 C 13.734375 25.050781 14.648438 24.929688 15.570312 25.382812 C 16.148438 25.667969 16.785156 25.875 17.417969 25.996094 C 19.011719 26.296875 20.105469 27.34375 20.996094 28.554688 C 22.546875 30.660156 22.804688 33.019531 21.894531 35.488281 C 21.625 36.21875 21.25 36.894531 20.738281 37.488281 C 20.285156 38.019531 19.820312 38.535156 19.097656 38.703125 C 18.949219 38.734375 18.808594 38.816406 18.683594 38.902344 C 17.515625 39.699219 16.1875 39.832031 14.664062 39.839844 Z M 14.199219 39.316406 C 15.726562 39.117188 17.277344 39.3125 18.535156 38.25 C 18.621094 38.179688 18.746094 38.164062 18.855469 38.128906 C 19.773438 37.851562 20.308594 37.148438 20.75 36.363281 C 20.976562 35.964844 21.171875 35.535156 21.3125 35.097656 C 21.757812 33.742188 22.050781 32.386719 21.082031 31.105469 C 20.992188 30.988281 20.976562 30.8125 20.902344 30.679688 C 20.167969 29.429688 19.25 28.386719 17.925781 27.710938 C 17.089844 27.289062 16.238281 27.070312 15.320312 26.921875 C 13.929688 26.691406 12.746094 27 11.699219 27.917969 C 11.292969 28.269531 10.886719 28.625 10.488281 28.988281 C 9.738281 29.675781 9.183594 30.507812 8.773438 31.4375 C 8.140625 32.878906 8.300781 34.382812 8.511719 35.878906 C 8.535156 36.027344 8.597656 36.179688 8.679688 36.3125 C 9.0625 36.9375 9.457031 37.554688 10.054688 38.007812 C 11.304688 38.957031 12.75 39.234375 14.199219 39.320312 Z M 14.199219 39.316406 " fill-opacity="1" fill-rule="nonzero"/><path fill="#000000" d="M 25.261719 19.898438 C 25.292969 18.28125 25.964844 16.691406 27.320312 15.410156 C 27.824219 14.9375 28.34375 14.480469 28.882812 14.046875 C 29.738281 13.367188 30.726562 12.988281 31.777344 12.707031 C 33.121094 12.347656 34.355469 12.5625 35.535156 13.242188 C 36 13.507812 36.445312 13.816406 36.882812 14.125 C 37.863281 14.820312 38.507812 15.75 38.769531 16.941406 C 38.878906 17.433594 38.988281 17.929688 39.140625 18.40625 C 39.464844 19.441406 39.34375 20.46875 39.183594 21.511719 C 39.058594 22.328125 38.777344 23.066406 38.386719 23.785156 C 37.808594 24.859375 36.992188 25.628906 35.84375 25.984375 C 34.820312 26.292969 33.832031 26.714844 32.753906 26.859375 C 31.382812 27.042969 30.0625 26.832031 28.808594 26.355469 C 27.828125 25.984375 27.121094 25.164062 26.503906 24.316406 C 25.601562 23.085938 25.304688 21.65625 25.261719 19.898438 Z M 25.828125 20.140625 C 25.875 22.292969 26.464844 24.152344 28.484375 25.300781 C 29.027344 25.609375 29.503906 25.96875 30.167969 25.894531 C 30.351562 25.871094 30.542969 25.960938 30.730469 25.972656 C 31.1875 26.003906 31.652344 26.085938 32.097656 26.015625 C 32.957031 25.875 33.839844 25.789062 34.617188 25.316406 C 34.839844 25.179688 35.121094 25.144531 35.378906 25.078125 C 36.214844 24.863281 36.824219 24.347656 37.167969 23.566406 C 37.617188 22.539062 37.890625 21.457031 37.964844 20.324219 C 38.058594 18.8125 37.605469 17.417969 37.125 16.027344 C 37.0625 15.859375 36.925781 15.707031 36.796875 15.578125 C 36.441406 15.226562 36.074219 14.882812 35.699219 14.558594 C 35.4375 14.332031 35.152344 14.132812 34.875 13.929688 C 33.714844 13.09375 32.484375 13 31.1875 13.558594 C 29.945312 14.097656 28.816406 14.8125 27.824219 15.746094 C 26.570312 16.933594 25.785156 18.335938 25.832031 20.140625 Z M 25.828125 20.140625 " fill-opacity="1" fill-rule="nonzero"/><path fill="#000000" d="M 18.679688 4.859375 C 20.089844 4.824219 21.234375 5.242188 22.269531 6.085938 C 23.566406 7.140625 23.789062 8.515625 23.5625 10.046875 C 23.496094 10.503906 23.289062 10.933594 22.957031 11.277344 C 22.167969 12.09375 21.265625 12.730469 20.179688 13.058594 C 19.890625 13.148438 19.570312 13.183594 19.277344 13.144531 C 18.601562 13.054688 17.898438 12.996094 17.265625 12.757812 C 16.578125 12.503906 16.09375 11.914062 15.707031 11.28125 C 14.734375 9.691406 14.953125 8.113281 15.777344 6.546875 C 16.417969 5.335938 17.402344 4.734375 18.679688 4.859375 Z M 16.71875 9.730469 L 16.6875 9.699219 C 16.902344 10.652344 17.363281 11.4375 18.3125 11.773438 C 18.8125 11.945312 19.351562 12.03125 19.878906 12.070312 C 21.195312 12.179688 21.960938 11.285156 22.691406 10.375 C 22.804688 10.234375 22.847656 10.023438 22.882812 9.832031 C 23.050781 8.964844 22.953125 8.105469 22.484375 7.371094 C 22.046875 6.6875 21.410156 6.128906 20.660156 5.839844 C 19.953125 5.566406 19.183594 5.445312 18.40625 5.496094 C 17.191406 5.578125 16.566406 6.148438 16.488281 7.363281 C 16.441406 8.015625 16.488281 8.675781 16.519531 9.332031 C 16.523438 9.46875 16.648438 9.597656 16.71875 9.730469 Z M 16.71875 9.730469 " fill-opacity="1" fill-rule="nonzero"/><path fill="#000000" d="M 9.527344 32.589844 C 9.398438 30.007812 12.035156 27.527344 14.832031 27.839844 C 15.25 27.886719 15.667969 27.941406 16.082031 28.023438 C 17.359375 28.269531 18.265625 29.101562 19.074219 30.042969 C 19.777344 30.859375 19.902344 31.875 19.757812 32.890625 C 19.492188 34.757812 18.53125 36.199219 16.941406 37.199219 C 16.648438 37.382812 16.34375 37.550781 16.042969 37.71875 C 15.398438 38.082031 14.710938 38.132812 14.042969 37.878906 C 13.328125 37.601562 12.609375 37.300781 11.964844 36.894531 C 10.449219 35.929688 9.519531 34.574219 9.527344 32.589844 Z M 11.234375 32.3125 C 11.320312 33.535156 11.589844 34.671875 12.933594 35.679688 C 14.1875 36.625 15.605469 36.257812 16.433594 35.605469 C 17.277344 34.9375 17.777344 34.015625 18.066406 32.996094 C 18.203125 32.515625 18.265625 31.960938 17.910156 31.546875 C 17.148438 30.667969 16.324219 29.847656 15.199219 29.453125 C 14.265625 29.128906 13.339844 28.996094 12.527344 29.78125 C 12.359375 29.9375 12.136719 30.035156 11.972656 30.195312 C 11.8125 30.351562 11.652344 30.535156 11.566406 30.738281 C 11.359375 31.234375 11.199219 31.753906 11.234375 32.3125 Z M 11.234375 32.3125 " fill-opacity="1" fill-rule="nonzero"/><path fill="#000000" d="M 29.152344 19.273438 C 29.128906 18.347656 29.503906 17.652344 30.109375 17.160156 C 30.96875 16.457031 31.960938 16.078125 33.089844 16.453125 C 33.964844 16.746094 34.785156 17.105469 35.472656 17.785156 C 36.074219 18.378906 36.210938 19.035156 36.0625 19.789062 C 35.921875 20.515625 35.589844 21.171875 35.171875 21.78125 C 34.691406 22.480469 33.9375 22.664062 33.1875 22.820312 C 32.820312 22.894531 32.421875 22.878906 32.046875 22.839844 C 30.910156 22.730469 30.175781 22.003906 29.644531 21.066406 C 29.324219 20.5 29.136719 19.859375 29.148438 19.273438 Z M 32.953125 17.53125 C 32.191406 17.601562 31.617188 17.871094 31.089844 18.289062 C 30.789062 18.53125 30.601562 18.847656 30.6875 19.191406 C 30.863281 19.898438 31.046875 20.617188 31.460938 21.238281 C 31.644531 21.511719 31.890625 21.679688 32.199219 21.75 C 32.921875 21.914062 33.574219 21.761719 34.101562 21.222656 C 34.996094 20.3125 34.886719 18.835938 33.867188 18.070312 C 33.59375 17.867188 33.277344 17.71875 32.953125 17.53125 Z M 32.953125 17.53125 " fill-opacity="1" fill-rule="nonzero"/><path fill="#000000" d="M 16.71875 9.730469 C 16.71875 9.421875 16.707031 9.113281 16.71875 8.804688 C 16.761719 7.625 17.40625 6.964844 18.570312 6.695312 C 19.511719 6.472656 20.304688 6.746094 21.050781 7.234375 C 21.769531 7.703125 21.960938 8.339844 21.683594 9.140625 C 21.375 10.011719 20.847656 10.695312 19.953125 11.015625 C 19.703125 11.105469 19.449219 11.195312 19.199219 11.285156 C 18.425781 11.554688 17.929688 11.386719 17.429688 10.695312 C 17.1875 10.359375 16.9375 10.027344 16.6875 9.695312 C 16.6875 9.695312 16.71875 9.730469 16.71875 9.730469 Z M 18.84375 10.214844 C 19.234375 9.992188 19.609375 9.804688 19.957031 9.566406 C 20.367188 9.28125 20.390625 8.527344 19.980469 8.253906 C 19.703125 8.070312 19.363281 7.929688 19.035156 7.890625 C 18.28125 7.800781 17.746094 8.566406 18.027344 9.289062 C 18.167969 9.652344 18.355469 9.992188 18.84375 10.214844 Z M 18.84375 10.214844 " fill-opacity="1" fill-rule="nonzero"/></svg>