<?xml version="1.0" encoding="UTF-8"?>
<svg id="Layer_2" xmlns="http://www.w3.org/2000/svg" viewBox="0 0 97.13 248.87">
  <g id="Layer_1-2" data-name="Layer_1">
    <g>
      <path d="M16.91,39.94c1.39-3.26,2.56-6.54,4.76-9.34,1.09-1.39,2.32-2.06,4.1-1.88,1.88.19,3.78.22,5.27.3,2.15-3.16,3.7-6.21,5.96-8.57,2.27-2.37,5.26-4.06,8.18-6.23-.58-.94-1.08-1.88-1.69-2.74-1.02-1.42-1.11-2.91-.68-4.55.84-3.21,3.02-5.37,5.92-6.47,5.16-1.95,10.53,2.42,9.83,8.14-.39,3.16.66,5.22,2.89,7.06.62.51,1.16,1.13,1.84,1.54,3.83,2.3,6.25,5.78,8.28,9.9h8.61c2.08,2.99,4.06,5.84,6.13,8.83-3.04,3.43-6.22,6.56-8.84,10.09-2.57,3.46-4.18,7.51-5.47,11.64-1.33,4.27-2.1,8.65-2.34,13.24,1.94,1.33,5.04,1.06,5.45,4.11-.81,2.59-3.33,1.95-5.27,2.54-.83,2.69.08,5.13.38,7.8,4.76,1.21,6.82,4.4,6.36,9.29,2.67,1.22,3.49,3.62,4.01,6.15.44,2.15-.55,4.13-2.6,5.1-1.12.54-2.39.83-3.62,1.07-1.38.28-2.79.38-4.41.59-.1,1.43-.27,2.67-.26,3.9.06,9.11.13,18.21.25,27.32.11,8.1,1.74,15.86,5.42,23.12,3.25,6.41,7.81,11.62,14.59,14.95-.2.92-.2,1.92-.63,2.67-.95,1.66-2.06,3.23-3.2,4.77-1.85,2.48-3.01,5.23-3.62,8.4.52.73.94,1.63,1.63,2.24,1.3,1.17,2.68,2.29,4.15,3.22,6.71,4.22,9.49,10.08,7.75,17.94-.49,2.21-.68,4.41.71,6.45.6.88.45,1.92-.16,2.7-.91,1.17-.64,2.26-.4,3.58.9,4.88.9,9.78-.05,14.71-3.26,1.24-6.51.92-9.62,1.4-3.47.54-7.01.55-10.47,1.11-5.54.89-11.11,1.06-16.7,1.3-9.25.41-18.49,1-27.74,1.4-3.35.15-6.73.19-10.06-.1-3.99-.35-7.94-.6-11.95-.42-6.48.3-7.41-.53-8.64-6.85-.49-2.53-.88-5.15,0-7.59.96-2.64.83-4.93-.96-6.85.46-2.33,2.44-3.21,3.69-5.26,0-2.27.06-4.97-.01-7.68-.15-6.14,2.25-10.78,7.72-13.81,1.94-1.08,3.71-2.48,5.52-3.78,1.15-.83,1.44-2,1.27-3.39-.2-1.65-.87-3.05-1.85-4.35-1.16-1.53-2.38-3.01-3.43-4.61-2.22-3.38-2.16-4.64,1.1-6.76,2.5-1.63,4.25-3.83,6.22-5.87.98-1.02,1.79-2.28,2.41-3.56,4.22-8.8,7.87-17.73,8.95-27.61.68-6.21,1.15-12.38,1.19-18.61.02-3.03.25-6.06.32-9.09.02-.92-.17-1.85-.27-2.9-.9-.27-1.63-.56-2.39-.7-.94-.17-1.91-.18-2.86-.3-6.1-.77-6.86-3.33-5.31-9.57.27-1.07,1.47-2.05,2.46-2.76,1-.72,2.29-1.04,3.39-1.51-.25-6.36-.12-6.57,4.97-8.24.62-2.22.83-4.53.39-6.93-1.57-1.1-3.98-.79-4.62-3.12.47-2.92,3.05-3.19,5.45-3.81.64-6.83-2.15-12.72-4.77-18.41-2.68-5.83-7.72-10.02-12.62-14.34ZM13.44,180.89c1.92,2.61,3.44,4.44,4.69,6.44,4.6,7.3,2.78,9.25-2.48,13.14-1.41,1.04-2.96,1.88-4.41,2.87-3.29,2.24-4.83,5.43-4.91,9.35-.04,2.08-.07,4.16.02,6.23.04.89.39,1.77.66,2.88,6.68.48,13.16,1.3,19.7.8,4.78-.37,9.54-.56,14.33.03,2.36.29,4.78.16,7.17.08,6.54-.21,13.08-.5,19.61-.74,1.6-.06,3.2-.02,4.79-.12,4.14-.26,8.27-.62,12.41-.83,2.7-.13,5.35-.43,8.01-1.23.22-2.69.45-5.23.64-7.77.21-2.84-.64-5.41-2.45-7.55-1.22-1.44-2.72-2.66-4.16-3.9-1.81-1.56-3.75-2.98-5.52-4.58-1.55-1.4-2.02-3.2-1.34-5.24.3-.91.59-1.82.86-2.74.83-2.84,2.89-4.93,4.48-7.31.5-.75,1.4-1.41.74-2.48-4.8,0-9.58-.08-14.35.02-4.78.11-9.57.38-14.35.62-4.94.25-9.87.63-14.81.81-4.79.18-9.63-.25-14.35.38-4.7.62-9.48-.71-14.98.83ZM17.54,177.95c3.68,0,6.23.09,8.78-.02,5.74-.25,11.47-.65,17.21-.88,4.95-.2,9.93.06,14.84-.46,7.01-.73,14.03-.6,21.05-.77.32,0,.65.01.96-.04.55-.1,1.09-.25,1.68-.39-.23-.58-.26-.96-.46-1.14-7.24-6.02-10.62-14.24-12.83-23.01-1.29-5.11-1.7-10.36-1.5-15.66.12-3.03.28-6.1-.03-9.1-.33-3.14-1.09-6.25-1.89-9.31-.26-1.01-1.09-1.96-1.87-2.72-2.62-2.56-5.72-4.08-9.48-3.75-5.4.47-10.8,1-16.2,1.53-.59.06-1.16.37-2.02.65-.21,4.68-.64,9.29-.58,13.89.11,7.56-1.09,14.96-2.61,22.29-1.57,7.57-5.17,14.38-8.7,21.17-.58,1.11-1.52,2.04-2.34,3.02-1.09,1.31-2.22,2.59-4.01,4.68ZM80,38.71c-3.46,0-6.15-.09-8.84.02-10.03.38-20.06.79-30.08,1.27-5.25.25-10.5.63-15.74.98-.72.05-1.65-.17-1.88,1.2,1.46,1.67,2.98,3.51,4.61,5.24,2.11,2.24,3.7,4.8,4.85,7.62,1.98,4.87,3.78,9.81,4.38,15.09.09.75.43,1.47.63,2.11,6.52.55,24.86-.21,28.83-1.2.4-2.61.66-5.3,1.24-7.93,1.82-8.32,4.39-16.32,10.66-22.55.32-.32.54-.73,1.34-1.84ZM77.11,98.05c-3.67-1.12-7.33-.83-10.97-.75-11.94.25-23.88.68-35.82.06-1.85-.1-3.75.32-4.8,1.61-1.5,1.84-2.41,4.16-.7,6.61,4.35,1.19,8.75,1.45,13.24.99,5.22-.52,10.51-1.46,15.69-1.11,6.43.44,12.73-.52,19.09-.62.93-.01,1.89-.28,2.77-.6,2.29-.84,2.88-2.02,2.28-4.46-.15-.6-.51-1.14-.78-1.72ZM20.45,38.51c.89.1,1.49.28,2.07.22,2.85-.27,5.69-.74,8.55-.88,7.79-.39,15.59-.66,23.39-.95,3.19-.12,6.39-.15,9.58-.28,5.26-.21,10.53-.44,15.79-.7.73-.04,1.6.27,2.33-.86-.38-.67-.89-1.43-1.28-2.25-1.27-2.67-3.33-3.54-6.23-3.23-2.85.3-5.74.26-8.61.31-6.71.12-13.43.07-20.13.35-7.15.3-14.25,1.41-21.65,1.08-.77,1.25-1.64,2.57-2.39,3.95-.52.95-.87,1.98-1.4,3.24ZM35.33,28.51c5.69-.42,10.91-.95,16.15-1.16,5.36-.22,10.73-.15,16.2-.21-1.28-3.44-1.94-4.56-4.26-6.36-2.76-2.13-5.63-4.12-7.32-6.75-2.96.4-5.47.74-7.6,1.03-2.43,1.72-4.64,3.27-6.83,4.83-3.71,2.64-4.91,4.23-6.32,8.62ZM73.44,94.27c.7-2.02.46-3.36-.54-4.56-.91-1.09-2.19-1.22-3.48-1.24-.96-.01-1.91.04-2.87.06-6.69.13-13.38.22-20.07.4-4.61.12-9.23.32-13.83.57-1.76.09-2.51,1.23-2.17,2.94.38,1.9,1.24,2.66,3.25,2.83.63.05,1.27.05,1.91.05,7.02-.01,14.03.03,21.05-.07,5.55-.08,11.1-.37,16.75-.99ZM92.94,224.36c-.06-1.16-.73-1.34-1.34-1.33-1.75.02-3.51.12-5.25.23-8.11.52-16.22,1.22-24.36,1.03-.64-.01-1.28-.02-1.91.04-6.99.61-13.98.99-21,.58-2.7-.16-5.42.06-8.13.07-7.65.05-15.3.38-22.93-.47-1.2-.13-2.5.24-3.68.61-.77.24-1.22.97-.81,1.92,1.18,1.13,2.68.9,4.07.87,6.22-.13,12.43-.37,18.65-.52,3.96-.1,7.95-.39,11.89-.09,7.35.55,14.67.17,21.93-.67,3.82-.44,7.63-.8,11.43-.58,6.72.38,13.37-.1,20-1.08.54-.08,1.04-.42,1.47-.6ZM51.11,12.32c.36,0,.68.04.98,0,2.22-.32,4.61-3.15,4.06-5.06-.63-2.18-1.91-4.06-4.22-4.72-.8-.23-1.87.03-2.66.39-.83.38-1.58,1.07-2.18,1.77-1.17,1.35-2,2.94-1.41,4.77.61,1.9,2.24,2.5,4.08,2.67.47.04.94.13,1.36.19ZM33.19,75.75c2.09,1.1,2.51,1.25,3.86,1.04,7.27-1.11,14.58-.98,21.89-.79,3.94.1,7.8-.65,11.67-1.34-12.51-.97-24.94.17-37.42,1.09Z"/>
      <path d="M20.22,202.74c3.18.41,5.96,0,8.78-.43,4.24-.63,8.55-.89,12.83-1.1,3.97-.19,7.96-.13,11.95-.14,1.11,0,2.23.06,3.32.25,4.13.73,8.22.69,12.35-.06,1.38-.25,2.83-.17,4.25-.11.26.01.57.66.69,1.06.06.21-.2.66-.43.77-.56.27-1.17.54-1.77.58-5.25.27-10.49.65-15.73-.14-1.56-.24-3.17-.23-4.76-.19-3.82.08-7.64.18-11.45.41-3.81.22-7.6.61-11.41.92-2.06.17-4.12.4-6.18.44-1.13.03-2.23-.33-2.44-2.24Z"/>
    </g>
  </g>
</svg>