<?xml version="1.0" encoding="UTF-8"?>
<svg id="Layer_2" xmlns="http://www.w3.org/2000/svg" viewBox="0 0 21.37 39.84">
  <g id="Layer_2-2" data-name="Layer_2">
    <path d="M15.47,18.4c-.52,1.31-1.79,1.58-2.9,2.01-1.61.62-2.15,1.73-2.13,3.42.01,1.93.68,3.92-.35,5.87-.82.82-1.89.79-2.97.62-.18-.23-.41-.39-.46-.6-.44-1.93-.51-3.86-.28-5.84.22-1.92.19-3.87.29-6.08.94-.05,1.87-.11,2.8-.16,4.06-.2,7.46-4.25,7.18-8.71-.23-3.6-3.86-5.87-7.23-4.55-3.15,1.24-5.89,3.03-6.61,6.75-.18.94-.88,1.39-1.51,1.21-.85-.25-1.41-1.09-1.27-1.97C1.14,3.51,7.91-1.15,14.21.25c5.94,1.32,8.12,6.88,6.77,11.5-.75,2.6-2.32,4.87-4.61,6.48-.28.2-.68.21-1.03.3.39-.59.77-1.19,1.17-1.77.83-1.21,1.81-2.33,2.48-3.62,1.44-2.79,1.34-5.65-.11-8.45-.52-1-1.26-1.76-2.3-2.28C12.08.19,7.56.71,3.78,5.16c-.25.3-.67.76-.06,1.08,1.69-1.04,3.26-2.25,5.02-3.04,4.57-2.06,9.65,1.18,9.31,6.68-.27,4.32-3.61,8.16-7.79,9.15-.67.16-1.48-.16-1.98.58q-.58,7.46.71,9.32c.14-.93.34-1.59.32-2.25-.03-1.34-.19-2.67-.27-4.01-.07-1.24.49-2.17,1.62-2.61,1.58-.62,3.2-1.11,4.81-1.66Z"/>
    <path d="M8.42,39.84c-1.42,0-2.23-.42-2.72-1.41-.49-.99-.31-1.93.32-2.75.52-.67,1.11-1.3,1.76-1.84.98-.81,2.14-.8,3.02-.07,1.4,1.15,1.94,2.68,1.14,3.82-.53.76-1.32,1.4-2.11,1.91-.47.31-1.16.28-1.42.34ZM9.28,34.66c-.78.71-1.53,1.31-2.16,2.02-.44.5-.35,1.18.13,1.63.32.3.85.63,1.22.56,1.12-.21,2.02-.88,2.31-2.03.23-.91-.26-1.61-1.5-2.18Z"/>
  </g>
</svg>