<?xml version="1.0" encoding="UTF-8"?>
<svg id="Layer_2" xmlns="http://www.w3.org/2000/svg" viewBox="0 0 19.12 37.53">
  <g id="Layer_2-2" data-name="Layer_2">
    <path d="M3.49,13.69c-1.41.29-2.48.56-3.48-.39-.14-3.4,1.06-6.39,3.07-9.1C5.04,1.55,7.84.46,10.97.04c.47-.06,1.03-.07,1.45.12,3.35,1.56,6.02,3.73,6.57,7.7.27,1.98.1,3.93-.33,5.85-.43,1.87-1.48,3.33-3.32,4.14-1.56.69-3.09,1.46-4.82,2.28v6.1q-1.72.79-3.78.49c-.15-.63-.43-1.31-.48-2.01-.11-1.71-.16-3.43-.15-5.15,0-1.75,1.05-2.95,2.81-3.33,1.19-.25,2.44-.34,3.59-.71,3.45-1.12,4.96-4.12,3.81-7.55-.87-2.6-2.56-4.72-5.36-4.96-2.56-.23-4.72,1.18-6.15,3.39-1.38,2.13-2,4.46-1.32,7.27Z"/>
    <path d="M8.25,31.72c1.29-.05,2.85,1.46,2.93,2.82.09,1.41-1.77,2.94-3.62,2.98-1.32.03-2.5-.91-2.62-2.09-.17-1.73,1.54-3.66,3.3-3.72Z"/>
  </g>
</svg>