<svg xmlns="http://www.w3.org/2000/svg" width="62" height="62" viewBox="0 0 46.5 46.5" preserveAspectRatio="xMidYMid meet">
  <path fill="#000000" d="M37.945 16.195h1.235c.004-.79.04-1.535.008-2.273-.11-2.528-.274-5.047-.149-7.578.02-.384-.11-.684-.364-.962-.254-.277-.316-.629-.281-.992.082-.778.688-1.243 1.477-1.173.566.05 1.015.336 1.414.68.36.309.512.762.3 1.21-.28.595-.23 1.204-.253 1.821-.125 2.98.234 5.938.36 8.96.183.126.405.267.62.415.715.492 1.246 1.125 1.395 2.008.113.7.27 1.399.297 2.102.101 2.617-.02 5.23-.125 7.843-.121 3.008-.097 6.024-.136 9.035-.008.884-.004 1.767-.211 2.645-.235.957-.766 1.574-1.699 1.86-.98.296-1.969.5-3.008.515-2.664.047-5.324.164-7.988.22-1.106.023-2.22-.043-3.33-.082-1.2-.04-2.406-.044-3.597-.15-2.215-.191-4.43-.066-6.637-.07-3.02-.008-6.031-.223-9.05-.2-1.063.008-2.13-.113-3.192-.195-.352-.028-.696-.145-1.047-.18-1.094-.106-2.07-1.344-2.101-2.426-.02-.711-.05-1.418-.047-2.129.031-3.148 0-6.297.137-9.445.11-2.563.183-5.141.66-7.676.14-.742.304-1.477.453-2.215.152-.72.57-1.126 1.297-1.352.902-.277 1.804-.453 2.746-.496.933-.04.925-.059 1.054-.961.047-.301.133-.598.203-.903.711-.59 1.535-.95 2.371-1.2 2.344-.699 4.715-1.261 7.176-1.367.664-.031 1.324-.152 1.984-.215.309-.031.625-.05.934-.031 2.082.14 4.176.226 6.246.457 2.43.27 4.852.613 7.2 1.336.632.2 1.261.418 1.867.688 1.215.53 1.594 1.066 1.785 2.472zm4.149-9.035c-.196.055-.461.094-.465.149-.063.828-.117 1.66-.11 2.484.004.262.294.274.575.149.191-.875.148-1.781 0-2.782zm-.332 6.746c-.086.86-.067 1.418.05 1.965.032.133.231.23.352.348.102-.118.29-.227.297-.348.012-.473 0-.954-.07-1.422-.024-.141-.278-.246-.629-.543zm.453-2.934c-.433-.027-.574.004-.566.145.02.613.035 1.227.105 1.836.028.219.227.355.54.183.09-.71.03-1.44-.079-2.164zm-.559-5.89c.149-.016.293 0 .403-.055.14-.074.332-.184.359-.313.024-.117-.093-.332-.215-.41-.21-.137-.46-.226-.707-.293-.218-.059-.503.18-.565.43-.067.254.109.547.359.598.125.023.258.031.367.047zm.473 1.117c-.102-.082-.16-.168-.215-.164-.066 0-.14.066-.191.125-.012.02.066.152.09.152.097-.02.191-.066.316-.113zm1.473 12.262c.504.777.754 1.61.754 2.52.004 2.257.094 4.523-.012 6.777-.137 2.922-.227 5.844-.18 8.762.024 1.37-.465 2.496-1.101 3.617-.242.422-.664.574-1.125.61-1.059.078-2.121.152-3.184.195-.62.027-1.238 0-1.86-.004-3.374-.016-6.75.203-10.128.043-.223-.012-.453.027-.664-.027-1.274-.309-2.563-.22-3.852-.243-1.508-.031-3.02-.039-4.527-.14-2.18-.149-4.348.035-6.524.156-1.434.078-2.832-.074-4.188-.563-1.14-.406-1.91-1.105-1.949-2.406-.008-.266-.078-.528-.078-.793.008-1.371-.008-2.742.047-4.11.082-2.12.219-4.237.328-6.358.039-.797.086-1.594.082-2.39 0-1.25.144-2.477.46-3.68.11-.426.293-.832.407-1.254.246-.899.871-1.247 1.746-1.383 1.625-.246 3.25-.469 4.894-.473 3.024-.012 6.043.004 9.067 0 1.644-.004 3.289-.066 4.93-.043 2.62.039 5.238.133 7.86.203.843.02 1.69.055 2.535.055 1.421-.008 2.843.059 4.241.313.688.125 1.344.406 2.02.617zm-1 19.977c.649-.79.684-.875.696-1.711.015-1.152.023-2.305.039-3.461.027-1.637-.004-3.281.101-4.914.141-2.172.172-4.344.122-6.516-.012-.66-.141-1.32-.231-1.98-.078-.59-.36-.961-1.016-1.027-1.191-.125-2.371-.352-3.562-.438-1.816-.133-3.637-.227-5.457-.258-2.89-.054-5.781-.047-8.676-.054-.754 0-1.508.078-2.262.07-1.691-.012-3.379-.055-5.07-.074-2.758-.035-5.512.113-8.258.347-.582.05-1.144.125-1.699.453-.703 1.512-1.074 3.125-1.098 4.836-.02 1.418-.136 2.832-.21 4.246-.016.313-.04.621-.043.93-.028 2.617-.063 5.23-.07 7.847-.004 1.703.097 2.027 1.925 2.722.324.125.684.196 1.035.22.707.046 1.426-.024 2.125.085.727.114 1.414-.055 2.117-.094.676-.039 1.352-.058 2.028-.09-2.73-.234-5.48-.117-8.239-.886-.05-.368-.125-.75-.156-1.141-.047-.664-.043-1.332-.113-1.992-.215-2.031-.223-4.066-.176-6.105.016-.836.262-1.551.719-2.243 1.496-.383 3.008-.23 4.508-.234.976 0 1.953.117 2.93.137 2.043.031 4.09.02 6.136.05 2.172.035 4.344.11 6.516.145 3.2.055 6.402.094 9.601.129 1.336.012 2.668-.055 4 .02 1.223.07 1.633.5 1.903 1.67.031.134.047.262.066.395.281 1.985.18 3.985.262 5.977.004.133.008.273-.027.398-.203.692-.234 1.39-.218 2.102.004.144-.153.285-.235.43-.281.71-.851.995-1.562.976-1.645-.039-3.281.223-4.926.09-1.02-.086-2.047-.07-3.066-.07-1.734-.008-3.469.03-5.2.003-1.91-.03-3.816-.156-5.726-.164-1.734-.008-3.465.086-5.2.137-.242.008-.484.035-.812.063.16.09.23.164.305.168 1.765.082 3.539.168 5.308.23 1.2.044 2.41-.042 3.594.102 1.418.172 2.84.191 4.254.223 1.82.043 3.648-.074 5.469-.078 1.238-.008 2.468-.16 3.718-.035.91.09 1.856-.094 2.786-.184.214-.02.421-.133.62-.223.672-.297.7-.395.422-1.234zm-30.747-3.617c.805.004 1.54.14 2.32-.129-.038-.36-.073-.695-.116-1.098h-2.204zm8.125-1.137c-.148.453-.277.793.207 1.156.32 0 .758.02 1.195 0 .715-.031.79-.156.703-1.062-.656-.332-1.344-.2-2.105-.094zm2.164-1.984c-.777 0-1.496-.18-2.25.074v.902c.61.356 1.235.145 1.832.204.125.008.336-.25.399-.425.07-.188.02-.426.02-.754zm-2.3-2.707c.89.105 1.593.375 2.32.12.086-.402.164-.742-.125-1.093-.29-.024-.59-.067-.895-.063-.343.004-.683.05-1.07.082-.07.297-.129.547-.23.953zm-7.973 3.684c.738.105 1.414.168 2.164-.047-.055-.372-.105-.7-.156-1.043-.711-.192-1.344-.235-2.008.004zm2.406 5.941c.11-1 .036-1.152-.636-1.16-.594 0-1.207-.097-1.762.2.086.883.086.914.762.953.516.035 1.04.008 1.637.008zm-3.457-5.945c.32-.375.254-.777.078-1.238-.562.039-1.101-.234-1.652-.023-.117 1.16-.086 1.207.895 1.257.214.012.437 0 .68 0zm11.27 3.047c-.809-.067-1.504-.043-2.192.058-.02.793.04.903.586.95.442.034.887.027 1.332.027.075 0 .145-.082.278-.157v-.882zm-7.172-3.27c-.086.391-.055.774.09 1.149.504.031.793.129 1.36-.106-.024-.352-.043-.676-.07-1.027-.602-.114-1.114-.137-1.61-.016zm15.86 3.258c.078-.496.305-.907.059-1.328h-1.594v1.257c.46.239.941.14 1.535.07zm-2.777-6.489c-.606-.086-1.098-.238-1.61-.043-.078.418-.214.797.184 1.114.465-.04.926-.082 1.426-.125zm-21.97.793c.055.379.094.66.141.976.633 0 1.18.133 1.809-.016.023-.32.039-.597.066-.96zm5.863 9.031c.36 0 .618.024.871-.003.239-.028.399-.184.399-.438 0-.266-.035-.566-.34-.633-.277-.062-.582-.015-.93-.015zm-3.738-9.82c-.093-.496.273-.891-.137-1.11-.36-.191-.77-.261-1.106.012-.316.258-.214.613-.03 1.02.39.023.808.043 1.413.078zm-9.953 9.718c.508.035.965.207 1.403.047.117-.336.156-.586-.129-.84-.422-.015-.898-.16-1.382.316.086.317.172.637.258.985zm-5.773-5.207c.055.378.094.66.14.976.633 0 1.18.133 1.809-.016.024-.32.039-.597.067-.96zm-1.672 1.414c.086.66.105 1.219.223 1.766.031.132.23.23.351.347.102-.117.29-.226.297-.347.012-.473 0-.954-.07-1.422-.024-.141-.278-.246-.629-.543zm-.332-2.934c-.434-.027-.574.004-.567.145.02.613.036 1.227.106 1.836.027.219.226.355.539.183.09-.71.031-1.44-.078-2.164zm-.559-5.89c.149-.016.293 0 .403-.055.14-.074.332-.184.36-.313.023-.117-.094-.332-.215-.41-.211-.137-.461-.226-.708-.293-.218-.059-.503.18-.566.43-.066.254.11.547.36.598.125.023.257.031.366.047zm.473 1.117c-.102-.082-.16-.168-.215-.164-.066 0-.14.066-.191.125-.012.02.066.152.09.152.097-.02.191-.066.316-.113zm0 0"/>
  <path fill="#000000" d="M28.91 20.746c.114 1.262.176 2.348.152 3.488-.39.078-.683.18-.98.184-2.71.05-5.418.082-8.129.129-.445.008-.882.07-1.324.113-.398.035-.797.102-1.195.11-.543.007-.899-.255-.922-.755-.04-.926-.031-1.86.008-2.785.02-.457.473-.754.965-.695 3.367.39 6.742.254 10.117.168.39-.012.78.023 1.312.043zm-11.473 3.137c.266.023.477.062.688.054 1.636-.054 3.27-.125 4.906-.183 1.422-.05 2.848-.086 4.27-.152.289-.016.578-.14.883-.22-.035-.643-.07-1.198-.101-1.792-.262-.024-.434-.059-.606-.059-3.11.058-6.22.078-9.328-.086-.246-.016-.492.055-.77.09-.067.82-.117 1.558.062 2.348zm0 0"/>
  <path fill="#000000" d="M11.695 25.863c-1.535 0-2.523-.629-2.988-1.922-.086-.242-.153-.515-.145-.77.04-1.242 1.121-2.476 2.356-2.683.39-.067.797-.059 1.191-.039.73.031 1.281.453 1.614 1.035.523.922.574 1.953.199 2.945-.442 1.164-.915 1.434-2.223 1.434zm-1.617-4.004c.527.04.855-.207 1.223-.281.316-.063.62-.04.882.176.48.39.781 1.28.55 1.8-.241.555-.652.938-1.316.953-.328.008-.648.043-1.015.07.078.114.094.168.125.184 1.648.746 2.773.043 2.726-1.707-.02-.703-.242-1.36-.921-1.645-.758-.316-1.524-.25-2.258.45zm1.238.484c-.207.254-.437.473-.582.735-.062.113 0 .425.086.464.23.09.52.156.742.086.157-.043.317-.305.356-.489.07-.34-.117-.59-.602-.793zm-1.535.367c-.047-.004-.09-.004-.137 0-.023.32-.043.644-.066.968.05.004.097.004.148.008zm0 0"/>
  <path fill="#000000" d="M34.633 26.332c-1.649.203-3.176-1.606-3.387-2.797-.23-1.293.836-2.805 2.058-3.348 1.485-.66 3.5.484 3.875 1.832.153.547.313 1.117.313 1.676-.012 1.309-.844 2.625-2.863 2.637zm1.957-2.883c.015-.469-.16-1.105-.527-1.68-.418-.652-1.094-.984-1.809-.898-.828.098-1.625.363-1.968 1.332-.602 1.703.722 3.054 1.851 3.285 1.172.242 2.524-.254 2.45-2.039zm0 0"/>
  <path fill="#000000" d="M23.89 23.363c-1.327-.066-2.655-.125-3.984-.203-.167-.008-.347-.059-.492-.145-.058-.035-.078-.27-.02-.324.114-.113.29-.23.442-.238.574-.028 1.152-.024 1.726-.004.977.035 1.946.097 2.918.144.22.012.453-.035.66.02.137.039.324.203.328.324.012.129-.136.3-.261.398-.094.07-.258.05-.387.055-.309.004-.621 0-.93 0v-.027zm0 0"/>
  <path fill="#000000" d="M34.137 21.535c.468.3.84.473 1.129.734.695.63.675 1.891.007 2.473-.254.22-.558.344-.859.239-.62-.223-1.21-.535-1.562-1.141-.266-.457-.2-1.09.187-1.465.313-.297.688-.53 1.094-.843zm.597 2.54c.309-.942.281-1 -.68-1.438-.562.628-.547.945.078 1.28.18.095.403.11.598.162zm0 0"/>
</svg>