<svg xmlns="http://www.w3.org/2000/svg" width="62" height="62" viewBox="0 0 46.5 46.5" preserveAspectRatio="xMidYMid meet">
  <path fill="#000000" d="M2.8 5.32c.72-.67 1.31-.75 2.13-.57 2.17.5 4.24 1.27 6.21 2.26 3.5 1.74 7.08 3.31 10.62 4.98 3.48 1.64 6.97 3.28 10.44 4.96 2.44 1.2 4.85 2.47 7.28 3.69.76.38 1.57.65 2.32 1.05.33.17.66.47.82.8.25.51.4 1.1-.04 1.63-2.35.64-4.49 1.8-6.57 2.82-.6 2.52-1.18 4.9-1.72 7.3-.26 1.18-.42 2.37-.63 3.56-.05.28-.09.57-.17.84-.11.36-.52.55-.81.33-1.49-1.14-3.36-1.29-5.02-1.97-.48-.2-1.11-.06-1.67-.01-.44.04-.67.41-.82.79-.57 1.4-1.83 2.31-2.47 3.67-.15.31-.64.25-.86-.08-.21-.33-.41-.69-.57-1.05-1.19-2.55-2.68-4.93-4.12-7.32-.33-.54-.61-1.1-.9-1.66-1.63-3.08-3.29-6.16-4.89-9.26-1.73-3.36-3.38-6.75-5.1-10.12-.71-1.37-1.51-2.69-2.24-4.05-.43-.8-.79-1.64-1.22-2.58zm9.23 5.44c.01-.45-.33-.45-.69-.41.24.13.47.26.7.39.05.53.52.72.84 1.02 1.09 1 2.23 1.94 3.29 2.97 2.08 2.02 4.11 4.1 6.19 6.14 2.73 2.66 5.45 5.33 8.22 7.94.72.69 1.1 1.41 1.1 2.39 0 .51.05 1.04.21 1.52.31.93.52 1.87.53 2.86 0 .16-.09.45.24.49.84-2.5 1.92-7.26 2.06-9.13-.37-.4-.75-.91-1.23-1.29-1.16-.91-2.37-1.76-3.57-2.62-.78-.56-1.61-1.07-2.37-1.65-4.82-3.71-9.82-7.15-14.89-10.48-.17-.11-.41-.09-.63-.14zm-.34-2.07c.01-.31-.29-.38-.34-.21-.09.27.19.2.37.17.17.21.3.48.5.61 1.19.79 2.41 1.5 3.58 2.31 3.36 2.34 6.69 4.71 10.04 7.06 3.33 2.35 6.67 4.7 10.06 7.08 1.7-1.01 3.68-1.4 5.33-2.71-.38-.26-.64-.48-.93-.63-2.22-1.14-4.44-2.29-6.67-3.39-2.74-1.36-5.51-2.66-8.27-3.99-2.19-1.06-4.38-2.14-6.58-3.16-1.7-.79-3.43-1.46-5.08-2.36-.61-.33-1.22-.84-2.01-.79zm18.38 21.46c-1.33-1.38-2.57-2.71-3.86-3.99-1.7-1.68-3.45-3.31-5.16-4.99-1.74-1.71-3.38-3.55-5.2-5.18-3.47-3.12-7.03-6.13-10.56-9.18-.06-.05-.17-.02-.36-.03.13.71.43 1.31.78 1.9.46.79.95 1.56 1.36 2.38 1.59 3.11 3.16 6.22 4.69 9.35 2.22 4.53 4.69 8.91 7.13 13.31.97 1.75 2 3.47 3.01 5.19.13.24.31.46.49.71.71-.43 1.16-1.04 1.5-1.68.66-1.24 1.66-2.17 2.6-3.14 1.32-1.36 2.41-2.88 3.58-4.65z"/>
</svg>