<svg xmlns="http://www.w3.org/2000/svg" xmlns:xlink="http://www.w3.org/1999/xlink" width="62" zoomAndPan="magnify" viewBox="0 0 46.5 46.5" height="62" preserveAspectRatio="xMidYMid meet" version="1.0"><defs><clipPath id="e7dafeef71"><path d="M 1.816406 5.554688 L 44.113281 5.554688 L 44.113281 40.429688 L 1.816406 40.429688 Z M 1.816406 5.554688 " clip-rule="nonzero"/></clipPath><clipPath id="e9cff74d93"><path d="M 4 5.554688 L 6 5.554688 L 6 6 L 4 6 Z M 4 5.554688 " clip-rule="nonzero"/></clipPath></defs><g clip-path="url(#e7dafeef71)"><path fill="#000000" d="M 29.808594 39.40625 C 29.703125 39.40625 29.578125 39.371094 29.488281 39.410156 C 29.246094 39.53125 29.011719 39.570312 28.757812 39.472656 C 28.71875 39.457031 28.664062 39.4375 28.636719 39.453125 C 28.460938 39.550781 28.335938 39.773438 28.082031 39.597656 C 27.875 39.457031 27.675781 39.601562 27.46875 39.652344 C 27.269531 39.699219 27.0625 39.734375 26.863281 39.773438 C 26.441406 39.851562 26.003906 39.863281 25.574219 39.898438 C 25.039062 39.945312 24.5 39.992188 23.960938 40.03125 C 23.640625 40.050781 23.320312 40.050781 22.992188 40 C 22.695312 39.953125 22.390625 39.976562 22.085938 39.984375 C 21.980469 39.988281 21.839844 40 21.78125 40.066406 C 21.523438 40.347656 21.207031 40.265625 20.886719 40.265625 C 20.023438 40.269531 19.160156 40.308594 18.296875 40.34375 C 17.929688 40.363281 17.574219 40.359375 17.214844 40.230469 C 16.984375 40.144531 16.707031 40.15625 16.449219 40.164062 C 15.542969 40.195312 14.636719 40.257812 13.726562 40.277344 C 13.1875 40.292969 12.648438 40.238281 12.105469 40.230469 C 11.175781 40.214844 10.246094 40.210938 9.3125 40.203125 C 9.207031 40.203125 9.089844 40.183594 8.992188 40.214844 C 8.21875 40.464844 7.414062 40.328125 6.628906 40.40625 C 6.035156 40.464844 5.464844 40.328125 4.933594 40.074219 C 4.703125 39.964844 4.46875 39.972656 4.238281 39.953125 C 4.0625 39.941406 3.890625 39.964844 3.71875 39.949219 C 3.4375 39.925781 3.378906 39.820312 3.375 39.523438 C 3.359375 38.960938 3.328125 38.402344 3.296875 37.839844 C 3.246094 36.996094 3.261719 36.152344 3.292969 35.308594 C 3.324219 34.378906 3.308594 33.449219 3.316406 32.515625 C 3.316406 32.386719 3.3125 32.257812 3.328125 32.128906 C 3.414062 31.351562 3.339844 30.574219 3.335938 29.792969 C 3.328125 28.410156 3.265625 27.023438 3.398438 25.636719 C 3.480469 24.734375 3.511719 23.820312 3.5625 22.914062 C 3.621094 21.855469 3.671875 20.792969 3.722656 19.734375 C 3.730469 19.539062 3.742188 19.34375 3.742188 19.148438 C 3.738281 17.242188 3.699219 15.335938 3.824219 13.433594 C 3.859375 12.867188 3.683594 12.367188 3.523438 11.855469 C 3.449219 11.621094 3.289062 11.445312 3.019531 11.40625 C 2.914062 11.386719 2.816406 11.332031 2.675781 11.28125 C 2.753906 10.914062 2.84375 10.542969 2.824219 10.160156 C 2.800781 9.773438 2.773438 9.386719 2.746094 8.949219 C 2.589844 8.914062 2.421875 8.890625 2.265625 8.839844 C 2.144531 8.804688 2.015625 8.761719 1.917969 8.683594 C 1.773438 8.574219 1.789062 8.34375 1.925781 8.230469 C 2.753906 7.535156 3.582031 6.839844 4.417969 6.152344 C 4.578125 6.019531 4.761719 5.910156 4.933594 5.792969 C 5.71875 6.375 6.296875 7.109375 7.011719 7.761719 C 7.125 7.761719 7.273438 7.765625 7.421875 7.761719 C 8.4375 7.734375 9.453125 7.710938 10.46875 7.675781 C 11.808594 7.625 13.152344 7.535156 14.492188 7.519531 C 15.898438 7.507812 17.292969 7.285156 18.699219 7.234375 C 19.972656 7.1875 21.246094 7.054688 22.519531 7.023438 C 23.554688 6.996094 24.59375 7.070312 25.632812 7.09375 C 26.304688 7.105469 26.972656 7.101562 27.644531 7.109375 C 28.121094 7.113281 28.59375 7.132812 29.070312 7.128906 C 30.648438 7.125 32.226562 7.121094 33.808594 7.105469 C 34.457031 7.097656 35.105469 7.035156 35.753906 7.054688 C 36.765625 7.082031 37.78125 7.140625 38.792969 7.214844 C 39.273438 7.246094 39.738281 7.246094 40.214844 7.164062 C 40.476562 7.117188 40.648438 7 40.785156 6.789062 C 40.953125 6.535156 41.121094 6.285156 41.292969 6.035156 C 41.449219 5.8125 41.628906 5.773438 41.84375 5.933594 C 41.980469 6.035156 42.105469 6.160156 42.21875 6.292969 C 42.640625 6.789062 43.066406 7.277344 43.601562 7.660156 C 43.8125 7.808594 43.984375 8.003906 44.113281 8.21875 C 43.984375 8.414062 43.773438 8.609375 43.484375 8.800781 C 43.378906 9.078125 43.445312 9.386719 43.429688 9.6875 C 43.414062 9.964844 43.386719 10.25 43.421875 10.527344 C 43.484375 11.027344 43.316406 11.402344 42.90625 11.683594 C 42.78125 11.769531 42.660156 11.859375 42.550781 11.964844 C 42.386719 12.117188 42.296875 12.308594 42.269531 12.53125 C 41.992188 14.746094 41.84375 16.96875 41.867188 19.203125 C 41.878906 20.136719 41.882812 21.066406 41.867188 22 C 41.84375 23.515625 41.804688 25.03125 41.757812 26.546875 C 41.738281 27.152344 41.667969 27.753906 41.660156 28.359375 C 41.636719 29.636719 41.605469 30.914062 41.722656 32.191406 C 41.789062 32.878906 41.804688 33.574219 41.816406 34.265625 C 41.839844 35.457031 41.839844 36.648438 41.851562 37.839844 C 41.851562 38.183594 41.851562 38.527344 41.851562 38.902344 C 41.699219 38.925781 41.554688 38.96875 41.410156 38.960938 C 40.980469 38.949219 40.550781 38.933594 40.164062 39.191406 C 40.101562 39.230469 40 39.21875 39.914062 39.214844 C 38.855469 39.179688 37.796875 39.101562 36.738281 39.234375 C 36.507812 39.261719 36.25 39.152344 36.03125 39.207031 C 35.554688 39.324219 35.097656 39.21875 34.628906 39.210938 C 33.464844 39.191406 32.292969 39.074219 31.128906 39.25 C 30.894531 39.285156 30.652344 39.269531 30.417969 39.285156 C 30.203125 39.300781 29.980469 39.273438 29.796875 39.421875 Z M 41.226562 8.984375 L 40.800781 8.984375 C 40.675781 9.984375 40.707031 10.445312 40.945312 10.90625 C 41.273438 10.90625 41.617188 10.917969 41.960938 10.902344 C 42.296875 10.886719 42.640625 10.988281 42.980469 10.882812 L 42.980469 8.847656 C 42.464844 8.804688 41.976562 8.832031 41.488281 8.871094 C 41.390625 8.875 41.296875 8.960938 41.203125 9.007812 Z M 40.699219 18.828125 C 40.597656 18.917969 40.484375 18.976562 40.480469 19.160156 C 40.46875 19.789062 40.417969 20.414062 40.382812 21.042969 C 40.378906 21.128906 40.355469 21.21875 40.371094 21.300781 C 40.480469 22.011719 40.414062 22.722656 40.363281 23.433594 C 40.304688 24.1875 40.289062 24.949219 40.210938 25.699219 C 40.125 26.542969 40.042969 27.378906 40.050781 28.226562 C 40.054688 28.832031 40.035156 29.433594 40.007812 30.039062 C 39.988281 30.488281 39.921875 30.933594 39.9375 31.390625 C 39.992188 32.730469 40.011719 34.074219 40.0625 35.414062 C 40.09375 36.257812 40.148438 37.101562 40.199219 37.941406 C 40.210938 38.09375 40.234375 38.246094 40.28125 38.386719 C 40.304688 38.453125 40.390625 38.535156 40.453125 38.539062 C 40.589844 38.550781 40.621094 38.429688 40.628906 38.316406 C 40.636719 38.273438 40.632812 38.230469 40.628906 38.1875 C 40.558594 37 40.472656 35.8125 40.421875 34.621094 C 40.390625 33.910156 40.402344 33.195312 40.417969 32.484375 C 40.4375 31.683594 40.5 30.882812 40.511719 30.082031 C 40.527344 29.109375 40.515625 28.132812 40.515625 27.15625 C 40.515625 26.960938 40.527344 26.769531 40.539062 26.574219 C 40.574219 25.707031 40.621094 24.84375 40.640625 23.980469 C 40.652344 23.484375 40.605469 22.984375 40.597656 22.488281 C 40.582031 21.445312 40.574219 20.410156 40.570312 19.371094 C 40.570312 19.183594 40.519531 18.976562 40.699219 18.828125 C 40.726562 18.332031 40.75 17.835938 40.78125 17.339844 C 40.835938 16.542969 40.890625 15.746094 40.957031 14.949219 C 40.992188 14.519531 41.042969 14.089844 41.089844 13.660156 C 41.109375 13.460938 41.164062 13.253906 41.070312 13.058594 C 40.832031 13.097656 40.738281 13.222656 40.730469 13.421875 C 40.714844 13.808594 40.695312 14.199219 40.675781 14.589844 C 40.636719 15.257812 40.578125 15.921875 40.550781 16.59375 C 40.53125 17.089844 40.542969 17.585938 40.542969 18.082031 C 40.542969 18.34375 40.539062 18.601562 40.699219 18.828125 Z M 19.140625 28.335938 C 19.460938 28.328125 19.699219 28.152344 19.960938 27.9375 C 19.910156 25.695312 19.859375 23.449219 19.808594 21.203125 C 19.804688 21.101562 19.769531 20.996094 19.742188 20.851562 C 19.039062 20.601562 18.339844 20.351562 17.597656 20.085938 C 17.554688 20.25 17.5 20.367188 17.492188 20.492188 C 17.46875 20.988281 17.453125 21.484375 17.441406 21.980469 C 17.421875 23.125 17.394531 24.269531 17.386719 25.410156 C 17.371094 26.621094 17.375 27.828125 17.375 29.039062 C 17.375 29.160156 17.410156 29.277344 17.441406 29.484375 C 17.980469 29.164062 18.484375 28.933594 18.878906 28.53125 C 18.890625 28.523438 18.878906 28.492188 18.878906 28.46875 C 19 28.496094 19.105469 28.484375 19.136719 28.335938 Z M 23.070312 16.089844 C 22.734375 15.988281 22.398438 16.113281 22.0625 16.097656 C 21.480469 16.066406 20.898438 16.050781 20.316406 16.035156 C 18.800781 15.996094 17.289062 16.003906 15.773438 16.082031 C 14.542969 16.144531 13.308594 16.105469 12.078125 16.140625 C 10.84375 16.175781 9.613281 16.226562 8.382812 16.308594 C 7.609375 16.355469 6.84375 16.472656 6.050781 16.5625 L 6.050781 17.140625 C 6.230469 17.140625 6.378906 17.152344 6.523438 17.140625 C 6.691406 17.125 6.863281 17.074219 7.03125 17.066406 C 8.175781 16.996094 9.320312 16.984375 10.464844 16.917969 C 11.519531 16.855469 12.582031 16.867188 13.640625 16.832031 C 14.851562 16.789062 16.058594 16.738281 17.269531 16.800781 C 17.832031 16.832031 18.394531 16.871094 18.953125 16.859375 C 19.667969 16.847656 20.378906 16.792969 21.089844 16.757812 C 21.824219 16.71875 22.550781 16.683594 23.28125 16.652344 C 24.167969 16.613281 25.054688 16.5625 25.941406 16.546875 C 27.367188 16.519531 28.796875 16.488281 30.222656 16.507812 C 32.191406 16.535156 34.15625 16.472656 36.121094 16.335938 C 37.308594 16.253906 38.496094 16.222656 39.683594 16.285156 C 39.808594 16.292969 39.9375 16.261719 40.066406 16.234375 C 40.097656 16.230469 40.125 16.179688 40.179688 16.121094 C 40.152344 16.011719 40.125 15.875 40.089844 15.71875 C 39.683594 15.742188 39.320312 15.765625 38.953125 15.785156 C 38.804688 15.796875 38.652344 15.816406 38.503906 15.808594 C 38.136719 15.792969 37.773438 15.746094 37.40625 15.75 C 35.957031 15.753906 34.507812 15.773438 33.0625 15.84375 C 32.757812 15.859375 32.449219 15.832031 32.15625 15.886719 C 31.554688 16 30.949219 16.007812 30.34375 16.007812 C 29.046875 16.007812 27.746094 16.007812 26.449219 16.011719 C 26.277344 16.011719 26.109375 16.035156 25.941406 16.070312 C 25.722656 16.117188 25.597656 15.910156 25.40625 15.886719 C 25.320312 15.875 25.234375 15.863281 25.148438 15.863281 C 24.585938 15.878906 24.023438 15.898438 23.460938 15.90625 C 23.296875 15.910156 23.175781 15.984375 23.066406 16.097656 L 23.066406 16.089844 Z M 6.078125 16.117188 C 6.367188 16.117188 6.632812 16.160156 6.878906 16.109375 C 7.433594 15.996094 7.996094 16.003906 8.554688 15.945312 C 9.96875 15.796875 11.390625 15.761719 12.816406 15.742188 C 14.179688 15.71875 15.546875 15.746094 16.90625 15.675781 C 18.136719 15.609375 19.371094 15.625 20.601562 15.613281 C 21.359375 15.601562 22.117188 15.601562 22.871094 15.542969 C 24.148438 15.441406 25.429688 15.4375 26.699219 15.523438 C 27.976562 15.609375 29.25 15.613281 30.527344 15.617188 C 31.085938 15.621094 31.644531 15.507812 32.207031 15.480469 C 33.113281 15.429688 34.019531 15.386719 34.925781 15.375 C 36.140625 15.359375 37.351562 15.378906 38.5625 15.367188 C 39.101562 15.363281 39.640625 15.378906 40.171875 15.203125 C 40.214844 14.824219 40.269531 14.460938 40.300781 14.097656 C 40.347656 13.558594 40.425781 13.019531 40.40625 12.484375 C 40.386719 11.96875 40.257812 11.460938 40.414062 10.945312 C 40.421875 10.925781 40.414062 10.902344 40.40625 10.882812 C 40.285156 10.433594 40.351562 9.976562 40.367188 9.523438 C 40.375 9.328125 40.390625 9.136719 40.257812 8.984375 C 40.011719 8.929688 39.765625 8.910156 39.554688 8.808594 C 39.347656 8.707031 39.144531 8.695312 38.929688 8.710938 C 38.476562 8.75 38.027344 8.808594 37.574219 8.820312 C 36.449219 8.851562 35.324219 8.875 34.199219 8.871094 C 32.621094 8.871094 31.039062 8.835938 29.460938 8.828125 C 27.167969 8.8125 24.875 8.882812 22.585938 9.039062 C 21.769531 9.09375 20.945312 9.101562 20.125 9.011719 C 19.757812 8.972656 19.386719 8.972656 19.023438 9 C 18.207031 9.066406 17.390625 9.175781 16.574219 9.234375 C 15.34375 9.324219 14.113281 9.382812 12.882812 9.453125 C 11.714844 9.523438 10.550781 9.589844 9.382812 9.660156 C 9.339844 9.664062 9.296875 9.667969 9.253906 9.671875 C 8.609375 9.730469 7.960938 9.78125 7.316406 9.851562 C 6.980469 9.886719 6.632812 9.859375 6.320312 9.992188 C 6.0625 12.019531 5.957031 14.863281 6.078125 16.113281 Z M 5.953125 39.914062 C 6.109375 39.921875 6.238281 39.941406 6.363281 39.9375 C 7.59375 39.902344 8.824219 39.863281 10.054688 39.828125 C 11.390625 39.789062 12.726562 39.894531 14.0625 39.832031 C 14.710938 39.800781 15.359375 39.816406 16.007812 39.800781 C 16.4375 39.789062 16.863281 39.757812 17.3125 39.734375 C 17.320312 39.597656 17.339844 39.492188 17.328125 39.390625 C 17.222656 38.507812 17.171875 37.625 17.195312 36.738281 C 17.203125 36.414062 17.226562 36.09375 17.226562 35.773438 C 17.226562 34.476562 17.226562 33.179688 17.222656 31.882812 C 17.222656 31.714844 17.199219 31.546875 17.183594 31.347656 C 16.996094 31.320312 16.828125 31.277344 16.660156 31.277344 C 16.25 31.277344 15.839844 31.300781 15.429688 31.3125 C 14.546875 31.339844 13.660156 31.359375 12.773438 31.390625 C 12.039062 31.414062 11.308594 31.460938 10.574219 31.472656 C 9.558594 31.484375 8.542969 31.457031 7.527344 31.472656 C 7.125 31.480469 6.710938 31.480469 6.300781 31.621094 C 6.207031 32.714844 6.078125 33.789062 6.03125 34.867188 C 5.988281 35.921875 6.023438 36.984375 6.023438 38.046875 C 6.023438 38.34375 6.054688 38.652344 5.996094 38.941406 C 5.925781 39.265625 5.980469 39.578125 5.953125 39.914062 Z M 39.835938 38.75 C 39.835938 38.558594 39.839844 38.449219 39.835938 38.34375 C 39.789062 37.480469 39.730469 36.617188 39.699219 35.753906 C 39.644531 34.21875 39.609375 32.683594 39.566406 31.148438 C 39.5625 31.0625 39.566406 30.972656 39.546875 30.890625 C 39.519531 30.769531 39.476562 30.652344 39.441406 30.542969 C 36.949219 30.472656 34.503906 30.550781 32.089844 30.914062 C 31.957031 31.152344 32.007812 31.371094 32.011719 31.582031 C 32.039062 33.207031 31.964844 34.824219 31.773438 36.4375 C 31.726562 36.863281 31.730469 37.328125 31.554688 37.699219 C 31.367188 38.085938 31.46875 38.390625 31.519531 38.746094 L 39.835938 38.746094 Z M 26.171875 18.164062 C 26.164062 18.148438 26.152344 18.128906 26.144531 18.113281 C 25.28125 18.113281 24.417969 18.105469 23.550781 18.117188 C 23.230469 18.121094 22.90625 18.164062 22.585938 18.195312 C 22.019531 18.25 21.464844 18.125 20.910156 18.113281 C 20.417969 18.101562 19.980469 17.960938 19.550781 17.757812 C 19.085938 17.53125 18.585938 17.417969 18.089844 17.289062 C 17.519531 17.136719 16.929688 17.199219 16.347656 17.164062 C 16.226562 17.15625 16.101562 17.1875 15.964844 17.199219 C 15.949219 17.832031 15.941406 18.4375 15.921875 19.042969 C 15.917969 19.226562 15.8125 19.320312 15.636719 19.3125 C 15.425781 19.304688 15.210938 19.277344 14.996094 19.285156 C 13.875 19.324219 12.753906 19.429688 11.628906 19.410156 C 11.15625 19.402344 10.683594 19.5 10.214844 19.539062 C 9.203125 19.613281 8.179688 19.558594 7.175781 19.765625 C 6.707031 19.859375 6.542969 19.691406 6.539062 19.222656 C 6.539062 18.722656 6.535156 18.226562 6.527344 17.726562 C 6.527344 17.671875 6.476562 17.617188 6.445312 17.550781 C 6.316406 17.5625 6.191406 17.570312 6.105469 17.574219 C 6.0625 17.636719 6.039062 17.65625 6.035156 17.671875 C 5.945312 18.945312 5.832031 20.21875 5.773438 21.492188 C 5.730469 22.421875 5.765625 23.355469 5.746094 24.285156 C 5.71875 25.410156 5.671875 26.535156 5.628906 27.65625 C 5.589844 28.738281 5.546875 29.820312 5.503906 30.902344 C 5.472656 31.59375 5.417969 32.28125 5.398438 32.972656 C 5.378906 33.667969 5.386719 34.359375 5.378906 35.054688 C 5.363281 36.179688 5.347656 37.304688 5.324219 38.429688 C 5.316406 38.777344 5.285156 39.121094 5.277344 39.46875 C 5.273438 39.574219 5.304688 39.683594 5.484375 39.675781 C 5.523438 39.144531 5.585938 38.609375 5.605469 38.074219 C 5.625 37.449219 5.605469 36.820312 5.613281 36.195312 C 5.617188 35.632812 5.625 35.070312 5.65625 34.507812 C 5.691406 33.835938 5.75 33.167969 5.804688 32.5 C 5.828125 32.238281 5.859375 31.980469 5.902344 31.726562 C 5.960938 31.367188 6.140625 31.210938 6.511719 31.179688 C 6.789062 31.15625 7.070312 31.117188 7.351562 31.117188 C 8.539062 31.109375 9.726562 31.007812 10.917969 31.128906 C 11.023438 31.140625 11.128906 31.121094 11.238281 31.117188 C 12.078125 31.066406 12.917969 31.003906 13.757812 30.964844 C 14.472656 30.933594 15.183594 30.929688 15.898438 30.910156 C 16.222656 30.898438 16.546875 30.875 16.871094 30.855469 C 17.089844 30.839844 17.285156 30.769531 17.46875 30.632812 C 18.195312 30.09375 18.9375 29.566406 19.660156 29.023438 C 19.890625 28.847656 20.148438 28.679688 20.332031 28.335938 C 20.164062 28.371094 20.054688 28.367188 19.972656 28.414062 C 19.449219 28.722656 18.9375 29.042969 18.417969 29.355469 C 18.035156 29.589844 17.667969 29.855469 17.257812 30 C 16.984375 29.847656 16.949219 29.621094 16.957031 29.371094 C 16.964844 29.027344 16.972656 28.679688 16.972656 28.332031 C 16.972656 27.730469 16.949219 27.121094 16.964844 26.519531 C 16.984375 25.71875 17.042969 24.921875 17.0625 24.125 C 17.078125 23.410156 17.054688 22.695312 17.066406 21.980469 C 17.074219 21.417969 17.113281 20.855469 17.136719 20.289062 C 17.148438 20.039062 17.21875 19.824219 17.472656 19.703125 C 18.367188 19.824219 19.128906 20.433594 20.101562 20.449219 C 20.117188 20.296875 20.136719 20.136719 20.152344 19.984375 C 19.46875 19.722656 18.8125 19.539062 18.125 19.441406 C 17.851562 19.402344 17.59375 19.269531 17.328125 19.171875 C 17.148438 19.101562 17.050781 18.957031 17.074219 18.761719 C 17.121094 18.378906 17.144531 17.992188 17.078125 17.605469 C 17.054688 17.453125 17.175781 17.363281 17.308594 17.339844 C 17.410156 17.320312 17.527344 17.328125 17.628906 17.359375 C 18.300781 17.585938 18.972656 17.820312 19.648438 18.054688 C 20.070312 18.203125 20.058594 18.207031 20.082031 18.644531 C 20.101562 19.003906 20.015625 19.378906 20.246094 19.738281 C 20.617188 19.832031 20.960938 19.683594 21.390625 19.558594 C 21.101562 19.449219 20.8125 19.542969 20.6875 19.269531 C 20.714844 18.992188 20.742188 18.714844 20.765625 18.449219 C 20.910156 18.300781 21.089844 18.324219 21.257812 18.320312 C 21.667969 18.316406 22.082031 18.324219 22.492188 18.316406 C 22.6875 18.3125 22.878906 18.289062 23.070312 18.269531 C 23.347656 18.246094 23.625 18.199219 23.902344 18.191406 C 24.660156 18.175781 25.414062 18.171875 26.171875 18.164062 Z M 40.039062 7.664062 C 39.640625 7.628906 39.320312 7.601562 39 7.578125 C 38.332031 7.53125 37.660156 7.472656 36.992188 7.457031 C 36.171875 7.4375 35.351562 7.449219 34.53125 7.460938 C 34.140625 7.464844 33.753906 7.515625 33.363281 7.515625 C 32.195312 7.519531 31.027344 7.511719 29.859375 7.507812 C 28.476562 7.5 27.089844 7.5 25.707031 7.480469 C 25.144531 7.472656 24.585938 7.410156 24.023438 7.398438 C 23.050781 7.378906 22.082031 7.445312 21.109375 7.492188 C 19.660156 7.558594 18.214844 7.640625 16.777344 7.789062 C 16.410156 7.824219 16.042969 7.871094 15.679688 7.886719 C 14.445312 7.9375 13.214844 7.988281 11.984375 8.023438 C 10.816406 8.054688 9.648438 8.058594 8.484375 8.078125 C 8.140625 8.082031 7.796875 8.105469 7.429688 8.121094 C 7.289062 8.6875 6.722656 8.519531 6.378906 8.753906 C 6.328125 8.980469 6.253906 9.207031 6.335938 9.472656 C 6.496094 9.484375 6.644531 9.511719 6.789062 9.5 C 7.585938 9.441406 8.382812 9.371094 9.179688 9.3125 C 10.710938 9.199219 12.242188 9.078125 13.769531 8.976562 C 14.699219 8.917969 15.628906 8.910156 16.554688 8.851562 C 17.203125 8.8125 17.851562 8.765625 18.492188 8.65625 C 18.925781 8.582031 19.351562 8.5625 19.78125 8.609375 C 20.816406 8.726562 21.851562 8.679688 22.890625 8.648438 C 23.816406 8.621094 24.742188 8.507812 25.671875 8.480469 C 27.011719 8.441406 28.355469 8.433594 29.695312 8.433594 C 31.988281 8.433594 34.28125 8.449219 36.574219 8.445312 C 37.066406 8.445312 37.5625 8.382812 38.058594 8.351562 C 38.402344 8.328125 38.753906 8.265625 39.09375 8.292969 C 39.558594 8.332031 39.824219 8.136719 40.039062 7.660156 Z M 33.332031 16.914062 C 33.316406 17.070312 33.300781 17.195312 33.296875 17.324219 C 33.277344 17.734375 33.273438 18.144531 33.242188 18.554688 C 33.222656 18.847656 33.132812 18.917969 32.855469 18.988281 C 31.9375 19.226562 31.023438 19.480469 30.101562 19.707031 C 29.769531 19.785156 29.445312 19.917969 29.082031 19.886719 C 28.9375 19.476562 29.117188 19.039062 28.953125 18.59375 C 28.757812 19.308594 28.710938 20.601562 28.84375 21.1875 C 28.96875 20.933594 28.753906 20.574219 29.011719 20.398438 C 29.230469 20.25 29.53125 20.210938 29.800781 20.140625 C 30.632812 19.921875 31.484375 19.773438 32.289062 19.441406 C 32.496094 19.355469 32.75 19.378906 33 19.351562 C 33.082031 19.613281 33.15625 19.820312 33.140625 20.070312 C 33.035156 21.519531 32.953125 22.964844 32.867188 24.410156 C 32.832031 24.949219 32.820312 25.492188 32.785156 26.03125 C 32.714844 27.175781 32.640625 28.320312 32.554688 29.464844 C 32.523438 29.894531 32.203125 30.128906 31.800781 30.03125 C 31.699219 30.007812 31.601562 29.949219 31.511719 29.890625 C 30.8125 29.421875 30.113281 28.949219 29.417969 28.472656 C 29.226562 28.339844 29.054688 28.171875 28.777344 28.113281 L 28.777344 28.824219 C 29.03125 28.984375 29.265625 29.140625 29.503906 29.285156 C 30.058594 29.621094 30.613281 29.957031 31.171875 30.285156 C 31.496094 30.476562 31.828125 30.582031 32.214844 30.464844 C 32.394531 30.414062 32.601562 30.453125 32.792969 30.441406 C 33.007812 30.425781 33.222656 30.394531 33.4375 30.375 C 34.0625 30.3125 34.683594 30.210938 35.304688 30.191406 C 36.472656 30.152344 37.640625 30.15625 38.808594 30.140625 C 39.085938 30.136719 39.363281 30.121094 39.636719 29.96875 C 39.648438 29.332031 39.648438 28.707031 39.679688 28.082031 C 39.722656 27.195312 39.789062 26.3125 39.84375 25.425781 C 39.910156 24.410156 39.988281 23.398438 40.03125 22.382812 C 40.070312 21.519531 40.054688 20.652344 40.078125 19.785156 C 40.101562 19.050781 40.164062 18.316406 40.191406 17.582031 C 40.199219 17.371094 40.171875 17.148438 40.125 16.941406 C 40.078125 16.730469 39.972656 16.707031 39.667969 16.796875 C 39.667969 17.113281 39.65625 17.433594 39.667969 17.757812 C 39.683594 18.082031 39.582031 18.34375 39.285156 18.554688 C 39.023438 18.5625 38.746094 18.578125 38.464844 18.585938 C 37.730469 18.601562 36.992188 18.582031 36.257812 18.644531 C 35.628906 18.699219 35.011719 18.589844 34.386719 18.589844 C 34.191406 18.589844 34.097656 18.445312 34.097656 18.230469 C 34.097656 18.121094 34.121094 18.015625 34.128906 17.90625 C 34.152344 17.558594 34.125 17.222656 34 16.867188 C 33.773438 16.882812 33.558594 16.898438 33.328125 16.917969 Z M 32.085938 29.621094 C 32.109375 29.558594 32.148438 29.5 32.152344 29.4375 C 32.238281 28.511719 32.335938 27.589844 32.394531 26.664062 C 32.464844 25.585938 32.492188 24.503906 32.550781 23.425781 C 32.613281 22.347656 32.695312 21.269531 32.761719 20.191406 C 32.769531 20.054688 32.722656 19.914062 32.691406 19.71875 C 32.273438 19.84375 31.910156 19.957031 31.539062 20.054688 C 31.164062 20.15625 30.789062 20.246094 30.414062 20.347656 C 30.042969 20.449219 29.675781 20.5625 29.273438 20.675781 C 29.273438 21.121094 29.273438 21.527344 29.273438 21.9375 C 29.277344 23.582031 29.320312 25.222656 29.1875 26.863281 C 29.171875 27.078125 29.183594 27.296875 29.207031 27.511719 C 29.230469 27.730469 29.316406 27.917969 29.515625 28.054688 C 30.121094 28.46875 30.703125 28.917969 31.320312 29.3125 C 31.542969 29.453125 31.769531 29.660156 32.085938 29.621094 Z M 28.371094 34.945312 C 28.371094 33.355469 28.378906 31.796875 28.367188 30.234375 C 28.363281 29.828125 28.449219 29.410156 28.285156 29.011719 C 28.261719 28.960938 28.292969 28.890625 28.296875 28.828125 C 28.328125 28.507812 28.375 28.1875 28.390625 27.867188 C 28.40625 27.433594 28.386719 27 28.402344 26.566406 C 28.441406 25.402344 28.496094 24.238281 28.410156 23.074219 C 28.347656 22.230469 28.371094 21.382812 28.367188 20.539062 C 28.367188 20.316406 28.359375 20.105469 28.179688 19.90625 C 28.074219 19.898438 27.949219 19.871094 27.820312 19.871094 C 26.890625 19.867188 25.960938 19.867188 25.03125 19.875 C 24.1875 19.878906 23.34375 19.90625 22.503906 19.910156 C 21.832031 19.914062 21.175781 19.988281 20.492188 20.203125 C 20.492188 20.355469 20.476562 20.507812 20.496094 20.652344 C 20.667969 21.898438 20.75 23.152344 20.695312 24.410156 C 20.652344 25.472656 20.683594 26.53125 20.738281 27.589844 C 20.78125 28.453125 20.839844 29.324219 20.820312 30.1875 C 20.78125 31.769531 20.894531 33.34375 20.988281 34.921875 C 20.992188 34.980469 21.042969 35.035156 21.074219 35.101562 C 21.160156 35.117188 21.242188 35.148438 21.324219 35.144531 C 22.429688 35.121094 23.53125 35.089844 24.636719 35.0625 C 25.089844 35.050781 25.542969 35.023438 25.996094 35.023438 C 26.402344 35.023438 26.8125 35.070312 27.21875 35.074219 C 27.582031 35.074219 27.953125 35.109375 28.371094 34.945312 Z M 20.417969 28.941406 C 19.402344 29.734375 18.453125 30.363281 17.601562 31.125 C 17.601562 33.265625 17.601562 35.386719 17.605469 37.507812 C 17.605469 37.523438 17.636719 37.53125 17.6875 37.570312 C 17.738281 37.546875 17.816406 37.519531 17.878906 37.476562 C 18.703125 36.917969 19.414062 36.210938 20.296875 35.734375 C 20.410156 35.671875 20.5 35.574219 20.5625 35.523438 C 20.5625 34.976562 20.597656 34.496094 20.554688 34.027344 C 20.429688 32.707031 20.414062 31.390625 20.445312 30.070312 C 20.453125 29.75 20.433594 29.429688 20.421875 28.941406 Z M 17.75 38.320312 C 17.597656 38.703125 17.730469 39.042969 17.746094 39.382812 C 17.765625 39.839844 17.910156 39.964844 18.347656 39.957031 C 18.757812 39.949219 19.171875 39.9375 19.578125 39.882812 C 21.011719 39.699219 22.453125 39.566406 23.898438 39.542969 C 24.160156 39.539062 24.421875 39.542969 24.675781 39.515625 C 25.621094 39.40625 26.558594 39.28125 27.5 39.164062 C 27.867188 39.117188 28.226562 39.0625 28.59375 39.03125 C 29.28125 38.972656 29.972656 38.929688 30.660156 38.867188 C 30.777344 38.855469 30.886719 38.789062 31 38.746094 C 31 38.578125 31.007812 38.449219 30.996094 38.320312 C 30.984375 38.179688 30.957031 38.035156 30.933594 37.894531 C 30.78125 37.894531 30.671875 37.878906 30.566406 37.898438 C 29.5625 38.074219 28.550781 38.105469 27.535156 38.121094 C 27.386719 38.121094 27.234375 38.148438 27.101562 38.046875 C 26.925781 37.917969 26.847656 38.21875 26.757812 38.164062 C 26.460938 37.992188 26.167969 38.140625 25.875 38.125 C 25.25 38.085938 24.625 38.097656 23.996094 38.117188 C 23.308594 38.132812 22.625 38.191406 21.9375 38.207031 C 20.726562 38.230469 19.515625 38.234375 18.308594 38.253906 C 18.117188 38.257812 17.929688 38.296875 17.75 38.320312 Z M 28.777344 34.988281 C 29.503906 35.765625 30.226562 36.539062 30.953125 37.304688 C 30.996094 37.351562 31.101562 37.34375 31.179688 37.363281 C 31.25 36.96875 31.328125 36.609375 31.375 36.25 C 31.511719 35.15625 31.5625 34.058594 31.550781 32.953125 C 31.546875 32.4375 31.570312 31.917969 31.597656 31.402344 C 31.613281 31.082031 31.496094 30.875 31.214844 30.71875 C 30.515625 30.328125 29.835938 29.910156 29.144531 29.507812 C 29.039062 29.445312 28.925781 29.398438 28.734375 29.304688 C 28.683594 30.300781 28.78125 31.222656 28.769531 32.140625 C 28.757812 33.089844 28.773438 34.039062 28.777344 34.988281 Z M 15.496094 17.152344 C 15.285156 17.152344 15.136719 17.148438 14.988281 17.152344 C 13.886719 17.179688 12.789062 17.199219 11.691406 17.238281 C 10.285156 17.292969 8.882812 17.367188 7.480469 17.433594 C 7.3125 17.441406 7.128906 17.410156 6.960938 17.597656 C 6.886719 18.113281 6.90625 18.664062 6.964844 19.246094 C 7.09375 19.273438 7.195312 19.3125 7.292969 19.308594 C 8.457031 19.238281 9.621094 19.164062 10.785156 19.085938 C 11.195312 19.058594 11.605469 18.988281 12.015625 19 C 12.816406 19.03125 13.613281 18.996094 14.40625 18.941406 C 14.765625 18.914062 15.136719 18.90625 15.515625 18.789062 C 15.53125 18.398438 15.554688 18.035156 15.5625 17.671875 C 15.5625 17.527344 15.527344 17.378906 15.496094 17.152344 Z M 5.0625 12.753906 C 5.0625 13.136719 5.085938 13.484375 5.058594 13.824219 C 4.980469 14.800781 5.050781 15.773438 5.09375 16.746094 C 5.167969 18.371094 5.058594 19.992188 4.964844 21.613281 C 4.960938 21.65625 4.953125 21.699219 4.945312 21.742188 C 4.71875 22.785156 4.695312 23.847656 4.625 24.90625 C 4.570312 25.683594 4.546875 26.460938 4.507812 27.238281 C 4.503906 27.324219 4.492188 27.410156 4.5 27.496094 C 4.605469 28.402344 4.558594 29.308594 4.5625 30.214844 C 4.574219 31.964844 4.425781 33.714844 4.402344 35.464844 C 4.402344 35.570312 4.371094 35.675781 4.367188 35.785156 C 4.355469 36.023438 4.339844 36.261719 4.351562 36.5 C 4.382812 37.296875 4.425781 38.097656 4.46875 38.894531 C 4.480469 39.066406 4.484375 39.246094 4.53125 39.40625 C 4.550781 39.46875 4.679688 39.5 4.796875 39.5625 C 4.851562 39.210938 4.921875 38.914062 4.941406 38.617188 C 4.976562 38.140625 4.992188 37.664062 5 37.1875 C 5.023438 35.5 4.972656 33.8125 5.082031 32.121094 C 5.164062 30.828125 5.167969 29.527344 5.21875 28.230469 C 5.25 27.453125 5.324219 26.675781 5.34375 25.894531 C 5.371094 24.746094 5.355469 23.597656 5.375 22.449219 C 5.394531 21.5 5.4375 20.546875 5.476562 19.59375 C 5.511719 18.773438 5.5625 17.953125 5.597656 17.132812 C 5.609375 16.894531 5.570312 16.65625 5.574219 16.417969 C 5.589844 15.421875 5.613281 14.425781 5.628906 13.429688 C 5.632812 13.234375 5.621094 13.039062 5.605469 12.84375 C 5.605469 12.8125 5.558594 12.777344 5.511719 12.714844 C 5.367188 12.726562 5.203125 12.742188 5.058594 12.75 Z M 3.992188 39.570312 C 4.117188 39.304688 4.078125 39.089844 4.070312 38.886719 C 4.046875 38.390625 3.96875 37.894531 3.976562 37.402344 C 3.996094 36.039062 4.046875 34.675781 4.089844 33.316406 C 4.109375 32.707031 4.164062 32.105469 4.175781 31.5 C 4.1875 30.699219 4.195312 29.898438 4.167969 29.097656 C 4.140625 28.234375 4.0625 27.371094 4.128906 26.503906 C 4.203125 25.554688 4.257812 24.605469 4.332031 23.65625 C 4.386719 23.007812 4.429688 22.359375 4.523438 21.71875 C 4.679688 20.601562 4.761719 19.480469 4.734375 18.351562 C 4.707031 17.3125 4.675781 16.277344 4.65625 15.238281 C 4.644531 14.65625 4.660156 14.070312 4.652344 13.488281 C 4.648438 13.253906 4.691406 13.011719 4.578125 12.789062 C 4.265625 12.828125 4.230469 12.84375 4.222656 13.035156 C 4.195312 13.574219 4.171875 14.117188 4.15625 14.65625 C 4.136719 15.523438 4.121094 16.386719 4.109375 17.253906 C 4.105469 17.449219 4.128906 17.644531 4.128906 17.835938 C 4.136719 18.636719 4.160156 19.441406 4.132812 20.238281 C 4.109375 20.996094 4.023438 21.75 3.980469 22.503906 C 3.917969 23.519531 3.867188 24.535156 3.8125 25.550781 C 3.808594 25.660156 3.789062 25.765625 3.78125 25.875 C 3.753906 26.371094 3.699219 26.867188 3.703125 27.363281 C 3.707031 28.507812 3.75 29.65625 3.761719 30.800781 C 3.765625 31.253906 3.722656 31.707031 3.703125 32.160156 C 3.699219 32.332031 3.691406 32.507812 3.707031 32.679688 C 3.777344 33.5 3.742188 34.324219 3.683594 35.140625 C 3.621094 36.050781 3.625 36.957031 3.683594 37.863281 C 3.714844 38.359375 3.777344 38.851562 3.839844 39.34375 C 3.847656 39.410156 3.917969 39.464844 3.992188 39.574219 Z M 41.425781 38.453125 C 41.4375 38.375 41.464844 38.289062 41.46875 38.207031 C 41.476562 37.425781 41.507812 36.648438 41.488281 35.867188 C 41.457031 34.589844 41.394531 33.316406 41.339844 32.039062 C 41.320312 31.585938 41.292969 31.132812 41.269531 30.679688 C 41.207031 29.53125 41.3125 28.386719 41.359375 27.242188 C 41.394531 26.289062 41.480469 25.339844 41.492188 24.386719 C 41.511719 22.160156 41.496094 19.929688 41.5 17.699219 C 41.5 16.941406 41.492188 16.183594 41.585938 15.429688 C 41.671875 14.742188 41.695312 14.050781 41.742188 13.359375 C 41.75 13.238281 41.742188 13.113281 41.742188 12.992188 C 41.597656 13.179688 41.542969 13.375 41.515625 13.585938 C 41.445312 14.144531 41.355469 14.695312 41.351562 15.261719 C 41.347656 15.691406 41.277344 16.121094 41.242188 16.554688 C 41.203125 17.003906 41.179688 17.460938 41.140625 17.910156 C 41.09375 18.46875 40.996094 19.027344 40.992188 19.589844 C 40.984375 20.671875 41.027344 21.753906 41.042969 22.832031 C 41.054688 23.480469 41.070312 24.128906 41.050781 24.777344 C 41.023438 25.6875 40.933594 26.59375 40.929688 27.5 C 40.921875 29.207031 40.898438 30.914062 40.800781 32.617188 C 40.773438 33.136719 40.75 33.65625 40.765625 34.175781 C 40.789062 34.867188 40.847656 35.554688 40.894531 36.246094 C 40.945312 36.933594 41.003906 37.625 41.066406 38.3125 C 41.082031 38.464844 41.140625 38.484375 41.421875 38.453125 Z M 34.421875 16.929688 C 34.460938 17.140625 34.496094 17.289062 34.511719 17.4375 C 34.523438 17.566406 34.5 17.695312 34.5 17.824219 C 34.5 17.949219 34.511719 18.074219 34.515625 18.191406 C 35.726562 18.359375 38.375 18.316406 39.195312 18.113281 C 39.3125 17.644531 39.339844 17.167969 39.160156 16.695312 C 37.636719 16.550781 36.160156 16.792969 34.675781 16.832031 C 34.597656 16.835938 34.523438 16.890625 34.417969 16.929688 Z M 29.425781 19.355469 C 29.609375 19.355469 29.765625 19.390625 29.898438 19.351562 C 30.859375 19.0625 31.851562 18.863281 32.789062 18.449219 C 32.789062 17.929688 33.015625 17.449219 32.808594 16.933594 C 32.460938 16.878906 32.128906 16.828125 31.835938 17.097656 C 31.757812 17.164062 31.652344 17.230469 31.554688 17.242188 C 30.992188 17.316406 30.46875 17.5 29.976562 17.78125 C 29.886719 17.832031 29.769531 17.828125 29.664062 17.855469 C 29.546875 17.890625 29.429688 17.933594 29.296875 17.980469 C 29.296875 18.460938 29.355469 18.898438 29.425781 19.355469 Z M 4.859375 6.34375 C 4.371094 6.617188 2.84375 7.921875 2.402344 8.445312 C 2.519531 8.472656 2.621094 8.527344 2.710938 8.511719 C 3.628906 8.335938 4.554688 8.304688 5.484375 8.273438 C 5.742188 8.265625 5.988281 8.203125 6.25 8.300781 C 6.402344 8.359375 6.59375 8.320312 6.714844 8.15625 C 6.363281 7.589844 5.421875 6.664062 4.859375 6.34375 Z M 43.609375 8.210938 C 43.253906 7.910156 42.964844 7.6875 42.703125 7.433594 C 42.425781 7.164062 42.179688 6.859375 41.90625 6.582031 C 41.824219 6.496094 41.707031 6.445312 41.609375 6.378906 C 40.605469 7.585938 40.199219 8.15625 40.09375 8.527344 C 40.242188 8.539062 40.386719 8.566406 40.527344 8.5625 C 41.324219 8.519531 42.121094 8.472656 42.917969 8.421875 C 43.027344 8.417969 43.136719 8.417969 43.242188 8.390625 C 43.339844 8.363281 43.425781 8.300781 43.609375 8.214844 Z M 27.269531 18.460938 C 27.011719 18.460938 26.816406 18.453125 26.625 18.460938 C 25.113281 18.507812 23.601562 18.558594 22.085938 18.609375 C 21.847656 18.617188 21.609375 18.628906 21.375 18.652344 C 21.1875 18.675781 21.164062 18.722656 21.148438 19.046875 C 21.507812 19.207031 21.882812 19.222656 22.277344 19.210938 C 23.679688 19.160156 25.085938 19.136719 26.488281 19.09375 C 26.726562 19.089844 26.960938 19.050781 27.195312 19.011719 C 27.25 19.003906 27.296875 18.941406 27.359375 18.894531 C 27.335938 18.769531 27.308594 18.648438 27.273438 18.457031 Z M 5.722656 12.242188 C 5.71875 11.757812 5.800781 11.335938 5.75 10.890625 C 4.972656 10.90625 4.238281 10.921875 3.503906 11.097656 C 3.644531 11.324219 3.785156 11.515625 3.890625 11.722656 C 3.996094 11.925781 4.011719 12.179688 4.246094 12.378906 C 4.6875 12.277344 5.1875 12.414062 5.722656 12.242188 Z M 17.476562 17.699219 C 17.476562 18.003906 17.484375 18.261719 17.476562 18.519531 C 17.472656 18.710938 17.554688 18.855469 17.71875 18.9375 C 17.851562 19.007812 17.996094 19.074219 18.140625 19.097656 C 18.625 19.179688 19.113281 19.242188 19.625 19.316406 C 19.710938 19.035156 19.71875 18.746094 19.65625 18.433594 C 18.972656 18.097656 18.25 17.921875 17.476562 17.699219 Z M 3.203125 8.914062 C 3.128906 9.515625 3.234375 10.0625 3.269531 10.644531 C 4.027344 10.726562 4.742188 10.496094 5.46875 10.507812 C 5.570312 10.511719 5.667969 10.449219 5.769531 10.414062 C 5.9375 9.824219 5.914062 9.257812 5.867188 8.660156 C 5.734375 8.632812 5.628906 8.585938 5.527344 8.59375 C 4.90625 8.632812 4.28125 8.671875 3.660156 8.734375 C 3.503906 8.75 3.351562 8.851562 3.203125 8.910156 Z M 41.675781 12.480469 C 41.949219 12.132812 42.191406 11.832031 42.421875 11.527344 C 42.464844 11.472656 42.480469 11.394531 42.507812 11.328125 C 41.988281 11.328125 41.515625 11.320312 41.042969 11.332031 C 40.949219 11.335938 40.859375 11.417969 40.757812 11.46875 C 40.824219 11.832031 40.75 12.179688 40.902344 12.515625 C 41.203125 12.589844 41.46875 12.496094 41.675781 12.480469 Z M 27.613281 17.980469 C 27.644531 18.476562 27.835938 18.882812 27.710938 19.339844 C 27.449219 19.375 27.207031 19.410156 26.960938 19.441406 C 27.425781 19.457031 27.894531 19.582031 28.355469 19.417969 C 28.449219 18.929688 28.472656 18.46875 28.367188 17.980469 Z M 28.863281 21.824219 C 28.847656 21.824219 28.832031 21.820312 28.8125 21.820312 L 28.8125 23.425781 C 28.832031 23.425781 28.847656 23.425781 28.863281 23.425781 Z M 20.277344 22.640625 C 20.265625 22.640625 20.253906 22.640625 20.242188 22.640625 L 20.242188 23.867188 C 20.253906 23.867188 20.265625 23.867188 20.277344 23.867188 Z M 28.847656 24.328125 C 28.835938 24.328125 28.828125 24.328125 28.816406 24.328125 L 28.816406 24.957031 C 28.828125 24.957031 28.835938 24.957031 28.847656 24.957031 Z M 27.058594 18.039062 C 27.054688 18.03125 27.054688 18.023438 27.050781 18.015625 L 26.789062 18.015625 C 26.792969 18.035156 26.792969 18.058594 26.796875 18.082031 C 26.882812 18.066406 26.96875 18.054688 27.058594 18.042969 Z M 27.058594 18.039062 " fill-opacity="1" fill-rule="nonzero"/></g><path fill="#000000" d="M 30.308594 39.453125 C 30.5625 39.457031 30.824219 39.269531 31.121094 39.515625 C 30.804688 39.601562 30.554688 39.554688 30.308594 39.453125 Z M 30.308594 39.453125 " fill-opacity="1" fill-rule="nonzero"/><path fill="#000000" d="M 31.667969 39.40625 C 31.546875 39.507812 31.445312 39.550781 31.324219 39.515625 C 31.308594 39.511719 31.289062 39.492188 31.289062 39.480469 C 31.289062 39.460938 31.296875 39.425781 31.308594 39.425781 C 31.417969 39.398438 31.527344 39.347656 31.667969 39.40625 Z M 31.667969 39.40625 " fill-opacity="1" fill-rule="nonzero"/><g clip-path="url(#e9cff74d93)"><path fill="#000000" d="M 5.03125 5.5625 C 5.042969 5.597656 5.078125 5.648438 5.066406 5.664062 C 5.046875 5.691406 4.996094 5.707031 4.960938 5.703125 C 4.941406 5.703125 4.910156 5.625 4.921875 5.613281 C 4.945312 5.585938 4.992188 5.578125 5.03125 5.5625 Z M 5.03125 5.5625 " fill-opacity="1" fill-rule="nonzero"/></g><path fill="#000000" d="M 33.75 39.335938 L 33.707031 39.351562 L 33.710938 39.316406 Z M 33.75 39.335938 " fill-opacity="1" fill-rule="nonzero"/><path fill="#000000" d="M 29.796875 39.417969 C 29.847656 39.425781 29.898438 39.433594 29.953125 39.4375 C 29.933594 39.464844 29.917969 39.492188 29.898438 39.519531 C 29.867188 39.480469 29.839844 39.441406 29.8125 39.40625 C 29.8125 39.40625 29.796875 39.417969 29.796875 39.417969 Z M 29.796875 39.417969 " fill-opacity="1" fill-rule="nonzero"/><path fill="#000000" d="M 2.65625 22.027344 C 2.636719 22.050781 2.613281 22.097656 2.601562 22.09375 C 2.570312 22.089844 2.542969 22.058594 2.519531 22.035156 C 2.515625 22.03125 2.542969 21.988281 2.550781 21.988281 C 2.585938 21.996094 2.621094 22.011719 2.65625 22.027344 Z M 2.65625 22.027344 " fill-opacity="1" fill-rule="nonzero"/><path fill="#000000" d="M 6.203125 30.285156 C 6.171875 30.15625 6.140625 30.078125 6.132812 29.996094 C 6.101562 29.5 6.042969 29 6.0625 28.503906 C 6.089844 27.789062 6.175781 27.082031 6.234375 26.367188 C 6.273438 25.894531 6.308594 25.417969 6.332031 24.941406 C 6.359375 24.335938 6.371094 23.730469 6.390625 23.125 C 6.414062 22.410156 6.4375 21.699219 6.464844 20.984375 C 6.46875 20.875 6.503906 20.773438 6.511719 20.664062 C 6.535156 20.4375 6.667969 20.320312 6.886719 20.28125 C 7.226562 20.222656 7.566406 20.164062 7.902344 20.089844 C 8.859375 19.890625 9.832031 19.851562 10.800781 19.78125 C 10.929688 19.773438 11.0625 19.769531 11.191406 19.777344 C 12.378906 19.855469 13.566406 19.757812 14.753906 19.730469 C 15.101562 19.71875 15.445312 19.667969 15.789062 19.648438 C 15.894531 19.644531 16.011719 19.652344 16.101562 19.699219 C 16.257812 19.78125 16.371094 19.90625 16.375 20.105469 C 16.378906 20.429688 16.421875 20.757812 16.417969 21.078125 C 16.410156 22.421875 16.375 23.765625 16.375 25.109375 C 16.375 26.257812 16.410156 27.402344 16.425781 28.550781 C 16.429688 28.875 16.429688 29.203125 16.417969 29.527344 C 16.410156 29.835938 16.339844 29.921875 16.046875 29.945312 C 15.527344 29.992188 15.011719 30.039062 14.492188 30.046875 C 13.367188 30.0625 12.242188 30.050781 11.117188 30.054688 C 9.882812 30.0625 8.652344 30.121094 7.429688 30.269531 C 7.023438 30.316406 6.617188 30.304688 6.203125 30.289062 Z M 15.875 20.023438 C 15.675781 20.023438 15.480469 20.015625 15.289062 20.023438 C 14.796875 20.046875 14.300781 20.097656 13.808594 20.097656 C 13.03125 20.101562 12.253906 20.21875 11.480469 20.078125 C 11.292969 20.042969 11.089844 20.074219 10.898438 20.085938 C 10.59375 20.101562 10.292969 20.136719 9.992188 20.144531 C 9.539062 20.160156 9.089844 20.207031 8.640625 20.296875 C 8.074219 20.410156 7.5 20.5 6.914062 20.601562 C 6.886719 20.730469 6.84375 20.832031 6.839844 20.9375 C 6.820312 21.5 6.808594 22.0625 6.792969 22.625 C 6.777344 23.292969 6.785156 23.96875 6.742188 24.632812 C 6.65625 25.84375 6.53125 27.050781 6.449219 28.261719 C 6.410156 28.796875 6.414062 29.335938 6.546875 29.890625 C 6.8125 29.9375 7.074219 29.941406 7.328125 29.910156 C 8.359375 29.773438 9.398438 29.777344 10.433594 29.714844 C 10.519531 29.710938 10.605469 29.695312 10.691406 29.695312 C 11.464844 29.707031 12.242188 29.742188 13.015625 29.730469 C 13.773438 29.71875 14.527344 29.664062 15.285156 29.625 C 15.519531 29.609375 15.757812 29.605469 15.980469 29.433594 C 16.078125 28.890625 16.011719 28.328125 16.003906 27.769531 C 15.988281 26.859375 15.957031 25.949219 15.964844 25.039062 C 15.972656 23.699219 16.007812 22.355469 16.03125 21.011719 C 16.039062 20.6875 15.992188 20.371094 15.878906 20.023438 Z M 15.875 20.023438 " fill-opacity="1" fill-rule="nonzero"/><path fill="#000000" d="M 20.285156 18.863281 C 20.269531 18.890625 20.253906 18.917969 20.234375 18.945312 C 20.222656 18.929688 20.195312 18.914062 20.195312 18.910156 C 20.210938 18.878906 20.230469 18.851562 20.253906 18.824219 C 20.261719 18.839844 20.273438 18.851562 20.285156 18.867188 Z M 20.285156 18.863281 " fill-opacity="1" fill-rule="nonzero"/><path fill="#000000" d="M 39.480469 19.007812 C 39.519531 19.175781 39.585938 19.320312 39.585938 19.464844 C 39.585938 20.066406 39.726562 20.667969 39.59375 21.273438 C 39.53125 21.566406 39.570312 21.878906 39.550781 22.179688 C 39.40625 24.402344 39.3125 26.628906 39.28125 28.859375 C 39.269531 29.433594 39.167969 29.539062 38.601562 29.558594 C 38.277344 29.566406 37.953125 29.535156 37.628906 29.53125 C 36.851562 29.523438 36.074219 29.511719 35.292969 29.515625 C 35.058594 29.519531 34.820312 29.570312 34.585938 29.601562 C 34.304688 29.632812 34.023438 29.640625 33.757812 29.527344 C 33.597656 29.457031 33.515625 29.339844 33.550781 29.167969 C 33.742188 28.273438 33.714844 27.363281 33.746094 26.460938 C 33.773438 25.683594 33.710938 24.902344 33.726562 24.121094 C 33.738281 23.433594 33.804688 22.742188 33.847656 22.050781 C 33.902344 21.230469 33.953125 20.410156 34.003906 19.589844 C 34.011719 19.527344 33.996094 19.460938 34.003906 19.394531 C 34.019531 19.230469 34.125 19.128906 34.300781 19.105469 C 34.40625 19.09375 34.515625 19.097656 34.621094 19.09375 C 35.246094 19.066406 35.871094 19.039062 36.5 19.019531 C 37.34375 18.988281 38.183594 18.964844 39.027344 18.949219 C 39.175781 18.945312 39.320312 18.984375 39.480469 19.007812 Z M 38.816406 29.105469 C 38.84375 28.882812 38.882812 28.699219 38.894531 28.507812 C 38.945312 27.300781 38.953125 26.089844 39.050781 24.882812 C 39.152344 23.59375 39.199219 22.296875 39.253906 21.003906 C 39.277344 20.46875 39.285156 19.929688 39.171875 19.386719 C 37.570312 19.214844 36.007812 19.515625 34.425781 19.492188 C 34.402344 19.597656 34.371094 19.679688 34.367188 19.761719 C 34.316406 20.558594 34.273438 21.359375 34.21875 22.15625 C 34.195312 22.5 34.109375 22.839844 34.105469 23.183594 C 34.085938 24.089844 34.089844 25 34.097656 25.90625 C 34.105469 26.707031 34.101562 27.503906 34.007812 28.300781 C 33.972656 28.59375 33.925781 28.902344 34.09375 29.234375 C 34.605469 29.253906 35.109375 29.109375 35.625 29.117188 C 36.140625 29.125 36.660156 29.109375 37.179688 29.121094 C 37.695312 29.132812 38.210938 29.210938 38.816406 29.105469 Z M 38.816406 29.105469 " fill-opacity="1" fill-rule="nonzero"/><path fill="#000000" d="M 29.585938 27.601562 C 29.671875 27.59375 29.753906 27.566406 29.824219 27.585938 C 29.921875 27.613281 30.023438 27.667969 30.101562 27.734375 C 30.429688 28.007812 30.75 28.289062 31.0625 28.578125 C 31.101562 28.617188 31.085938 28.734375 31.0625 28.800781 C 31.050781 28.832031 30.945312 28.851562 30.894531 28.832031 C 30.820312 28.804688 30.75 28.75 30.6875 28.695312 C 30.339844 28.382812 29.992188 28.066406 29.644531 27.75 C 29.617188 27.722656 29.613281 27.671875 29.585938 27.601562 Z M 29.585938 27.601562 " fill-opacity="1" fill-rule="nonzero"/><path fill="#000000" d="M 23.070312 16.09375 C 23.199219 16.050781 23.324219 16.007812 23.597656 15.914062 C 23.398438 16.050781 23.21875 16.085938 23.074219 16.085938 C 23.070312 16.089844 23.070312 16.09375 23.070312 16.09375 Z M 23.070312 16.09375 " fill-opacity="1" fill-rule="nonzero"/><path fill="#000000" d="M 27.949219 34.738281 C 27.699219 34.769531 27.488281 34.816406 27.273438 34.820312 C 25.976562 34.839844 24.679688 34.84375 23.382812 34.855469 C 23.277344 34.855469 23.164062 34.832031 23.0625 34.851562 C 22.554688 34.941406 22.074219 34.84375 21.5625 34.667969 C 21.546875 34.539062 21.507812 34.390625 21.515625 34.246094 C 21.597656 32.449219 21.519531 30.65625 21.433594 28.867188 C 21.390625 27.980469 21.378906 27.09375 21.367188 26.207031 C 21.363281 25.753906 21.296875 25.304688 21.257812 24.851562 C 21.253906 24.808594 21.25 24.765625 21.25 24.722656 C 21.222656 23.597656 21.199219 22.472656 21.175781 21.347656 C 21.171875 21.242188 21.167969 21.132812 21.167969 21.027344 C 21.164062 20.742188 21.257812 20.585938 21.503906 20.570312 C 22.171875 20.527344 22.820312 20.394531 23.503906 20.476562 C 24.664062 20.617188 25.835938 20.554688 27 20.46875 C 27.105469 20.460938 27.214844 20.4375 27.324219 20.445312 C 27.632812 20.472656 27.796875 20.605469 27.859375 20.914062 C 27.902344 21.144531 27.929688 21.386719 27.929688 21.625 C 27.921875 22.292969 27.902344 22.964844 27.882812 23.636719 C 27.820312 25.734375 27.847656 27.832031 27.855469 29.933594 C 27.863281 31.210938 27.832031 32.484375 27.835938 33.761719 C 27.835938 34.058594 27.902344 34.355469 27.949219 34.738281 Z M 27.347656 34.335938 C 27.390625 33.855469 27.449219 33.46875 27.449219 33.078125 C 27.464844 31.628906 27.484375 30.179688 27.460938 28.726562 C 27.429688 27.144531 27.445312 25.566406 27.511719 23.988281 C 27.539062 23.339844 27.574219 22.691406 27.589844 22.042969 C 27.601562 21.636719 27.582031 21.230469 27.425781 20.804688 C 26.714844 20.828125 26.027344 20.863281 25.339844 20.875 C 24.886719 20.882812 24.433594 20.863281 23.980469 20.855469 C 23.503906 20.84375 23.03125 20.820312 22.554688 20.824219 C 22.214844 20.824219 21.878906 20.890625 21.5625 20.984375 C 21.449219 21.765625 21.570312 22.496094 21.582031 23.230469 C 21.59375 23.984375 21.644531 24.742188 21.714844 25.496094 C 21.792969 26.332031 21.753906 27.183594 21.777344 28.027344 C 21.792969 28.675781 21.847656 29.320312 21.859375 29.96875 C 21.882812 31.269531 21.890625 32.566406 21.910156 33.867188 C 21.910156 34.03125 21.941406 34.199219 21.960938 34.390625 C 22.136719 34.417969 22.28125 34.460938 22.425781 34.460938 C 23.898438 34.460938 25.367188 34.457031 26.839844 34.445312 C 27.003906 34.441406 27.167969 34.378906 27.347656 34.335938 Z M 27.347656 34.335938 " fill-opacity="1" fill-rule="nonzero"/><path fill="#000000" d="M 19.15625 28.359375 C 19.050781 28.363281 18.933594 28.34375 18.894531 28.484375 C 18.648438 28.5 18.457031 28.636719 18.261719 28.765625 C 18.175781 28.820312 18.070312 28.847656 17.96875 28.875 C 17.9375 28.882812 17.882812 28.847656 17.867188 28.820312 C 17.847656 28.789062 17.855469 28.742188 17.863281 28.699219 C 17.863281 28.679688 17.875 28.65625 17.890625 28.644531 C 18.257812 28.429688 18.625 28.203125 19 28 C 19.046875 27.972656 19.179688 28.019531 19.214844 28.070312 C 19.246094 28.121094 19.195312 28.21875 19.179688 28.296875 C 19.175781 28.316406 19.164062 28.339844 19.15625 28.359375 Z M 19.15625 28.359375 " fill-opacity="1" fill-rule="nonzero"/><path fill="#000000" d="M 3.582031 8.976562 C 4.160156 8.800781 4.972656 8.777344 5.488281 8.90625 C 5.628906 9.25 5.601562 9.617188 5.578125 9.980469 C 5.566406 10.121094 5.460938 10.222656 5.320312 10.234375 C 4.828125 10.28125 4.335938 10.320312 3.839844 10.34375 C 3.699219 10.351562 3.589844 10.238281 3.585938 10.097656 C 3.574219 9.734375 3.582031 9.371094 3.582031 8.976562 Z M 3.582031 8.976562 " fill-opacity="1" fill-rule="nonzero"/><path fill="#000000" d="M 41.203125 9.007812 C 41.566406 8.992188 41.929688 8.964844 42.292969 8.96875 C 42.523438 8.96875 42.679688 9.109375 42.695312 9.3125 C 42.726562 9.636719 42.738281 9.960938 42.738281 10.285156 C 42.734375 10.476562 42.605469 10.609375 42.414062 10.628906 C 42.136719 10.664062 41.855469 10.679688 41.574219 10.6875 C 41.394531 10.691406 41.234375 10.625 41.121094 10.480469 C 41.082031 10.429688 41.019531 10.359375 41.03125 10.3125 C 41.140625 9.875 40.984375 9.398438 41.226562 8.984375 C 41.226562 8.984375 41.203125 9.003906 41.203125 9.003906 Z M 41.203125 9.007812 " fill-opacity="1" fill-rule="nonzero"/><path fill="#000000" d="M 8.535156 29.160156 C 8.65625 29.121094 8.773438 29.054688 8.894531 29.042969 C 9.414062 29.007812 9.925781 28.996094 10.449219 29.054688 C 11.046875 29.125 11.65625 29.117188 12.261719 29.136719 C 12.585938 29.144531 12.910156 29.132812 13.234375 29.140625 C 13.3125 29.144531 13.398438 29.183594 13.472656 29.21875 C 13.5 29.234375 13.515625 29.292969 13.511719 29.328125 C 13.507812 29.367188 13.480469 29.40625 13.449219 29.429688 C 13.417969 29.453125 13.367188 29.476562 13.332031 29.46875 C 12.648438 29.308594 11.949219 29.472656 11.261719 29.402344 C 10.960938 29.371094 10.65625 29.363281 10.355469 29.332031 C 10.054688 29.300781 9.761719 29.269531 9.457031 29.339844 C 9.230469 29.394531 8.984375 29.371094 8.746094 29.371094 C 8.671875 29.371094 8.601562 29.316406 8.53125 29.289062 C 8.53125 29.246094 8.535156 29.203125 8.535156 29.160156 Z M 8.535156 29.160156 " fill-opacity="1" fill-rule="nonzero"/><path fill="#000000" d="M 9.375 27.003906 C 9.046875 27.089844 8.925781 26.933594 8.804688 26.746094 C 9.011719 26.714844 9.015625 26.710938 9.375 27.003906 Z M 9.375 27.003906 " fill-opacity="1" fill-rule="nonzero"/><path fill="#000000" d="M 34.925781 28.757812 C 34.992188 28.71875 35.066406 28.644531 35.140625 28.644531 C 35.742188 28.636719 36.34375 28.636719 36.945312 28.648438 C 36.984375 28.648438 37.058594 28.730469 37.058594 28.773438 C 37.058594 28.824219 37 28.902344 36.953125 28.917969 C 36.832031 28.949219 36.699219 28.976562 36.578125 28.960938 C 36.105469 28.898438 35.636719 28.847656 35.160156 28.933594 C 35.046875 28.957031 34.949219 28.914062 34.925781 28.757812 Z M 34.925781 28.757812 " fill-opacity="1" fill-rule="nonzero"/><path fill="#000000" d="M 26.78125 28.578125 C 26.445312 28.640625 26.195312 28.65625 25.929688 28.539062 C 25.835938 28.140625 25.785156 27.742188 25.769531 27.335938 C 25.757812 26.949219 25.71875 26.566406 25.6875 26.140625 C 25.972656 26.113281 26.261719 26.148438 26.542969 26.191406 C 26.609375 26.199219 26.671875 26.292969 26.71875 26.363281 C 26.753906 26.414062 26.765625 26.484375 26.773438 26.546875 C 26.847656 27.210938 26.777344 27.871094 26.78125 28.578125 Z M 26.78125 28.578125 " fill-opacity="1" fill-rule="nonzero"/></svg>