<svg xmlns="http://www.w3.org/2000/svg" xmlns:xlink="http://www.w3.org/1999/xlink" width="62" zoomAndPan="magnify" viewBox="0 0 46.5 46.5" height="62" preserveAspectRatio="xMidYMid meet" version="1.0"><defs><clipPath id="21ebd7bc53"><path d="M 4.601562 10.390625 L 41.703125 10.390625 L 41.703125 35.617188 L 4.601562 35.617188 Z M 4.601562 10.390625 " clip-rule="nonzero"/></clipPath></defs><g clip-path="url(#21ebd7bc53)"><path fill="#000000" d="M 5.28125 10.585938 C 5.449219 10.585938 5.570312 10.582031 5.691406 10.585938 C 6.785156 10.632812 7.882812 10.691406 8.980469 10.726562 C 9.394531 10.742188 9.804688 10.710938 10.21875 10.707031 C 10.964844 10.703125 11.714844 10.699219 12.460938 10.710938 C 12.9375 10.71875 13.40625 10.757812 13.878906 10.765625 C 14.628906 10.777344 15.375 10.769531 16.121094 10.714844 C 16.609375 10.679688 17.097656 10.703125 17.585938 10.691406 C 18.6875 10.664062 19.785156 10.636719 20.886719 10.609375 C 21.113281 10.605469 21.34375 10.613281 21.574219 10.597656 C 23.050781 10.5 24.535156 10.519531 26.015625 10.492188 C 26.351562 10.488281 26.6875 10.460938 27.023438 10.429688 C 27.890625 10.351562 28.761719 10.410156 29.632812 10.410156 C 29.953125 10.410156 30.273438 10.421875 30.597656 10.429688 C 31.863281 10.464844 33.128906 10.519531 34.398438 10.480469 C 35.144531 10.457031 35.890625 10.472656 36.640625 10.476562 C 37.144531 10.476562 37.644531 10.503906 38.140625 10.585938 C 38.371094 10.625 38.558594 10.730469 38.621094 10.949219 C 38.726562 11.296875 38.804688 11.652344 38.871094 12.011719 C 38.894531 12.121094 38.851562 12.246094 38.832031 12.386719 C 38.902344 12.449219 38.976562 12.519531 39.042969 12.582031 C 39.042969 12.621094 39.046875 12.65625 39.039062 12.679688 C 38.835938 13.105469 38.78125 13.558594 38.890625 14.003906 C 39.023438 14.523438 39.074219 15.042969 39.03125 15.578125 C 38.984375 16.179688 39.039062 16.789062 38.960938 17.390625 C 38.867188 18.113281 38.796875 18.835938 38.722656 19.558594 C 38.695312 19.8125 38.679688 20.070312 38.664062 20.328125 C 38.59375 21.371094 38.550781 22.414062 38.453125 23.457031 C 38.398438 24.058594 38.402344 24.664062 38.375 25.269531 C 38.363281 25.464844 38.335938 25.660156 38.4375 25.851562 C 38.472656 25.921875 38.46875 26.03125 38.453125 26.117188 C 38.382812 26.46875 38.441406 26.816406 38.503906 27.15625 C 38.664062 28.054688 38.898438 28.929688 39.277344 29.765625 C 39.414062 30.066406 39.535156 30.378906 39.683594 30.679688 C 40.066406 31.457031 40.554688 32.171875 41.109375 32.839844 C 41.261719 33.019531 41.46875 33.15625 41.679688 33.34375 C 41.683594 33.375 41.703125 33.449219 41.703125 33.523438 C 41.699219 34.070312 41.691406 34.617188 41.675781 35.160156 C 41.675781 35.242188 41.621094 35.320312 41.578125 35.425781 C 41.285156 35.332031 41.003906 35.273438 40.71875 35.371094 C 40.679688 35.386719 40.625 35.375 40.585938 35.359375 C 40.335938 35.242188 40.074219 35.277344 39.816406 35.28125 C 39.007812 35.296875 38.203125 35.289062 37.394531 35.285156 C 36.355469 35.28125 35.320312 35.328125 34.28125 35.355469 C 34.175781 35.359375 34.066406 35.371094 33.964844 35.390625 C 33.355469 35.5 32.746094 35.480469 32.136719 35.464844 C 31.171875 35.433594 30.210938 35.429688 29.25 35.511719 C 28.71875 35.558594 28.183594 35.527344 27.648438 35.53125 C 27.402344 35.535156 27.152344 35.519531 26.917969 35.578125 C 26.746094 35.617188 26.601562 35.464844 26.429688 35.574219 C 26.296875 35.660156 26.132812 35.597656 25.984375 35.574219 C 25.820312 35.546875 25.65625 35.535156 25.476562 35.515625 C 25.339844 35 25.53125 34.472656 25.339844 33.96875 C 24.902344 33.875 24.460938 33.859375 24.019531 33.851562 C 23.625 33.839844 23.230469 33.847656 22.835938 33.847656 C 22.742188 33.847656 22.648438 33.832031 22.558594 33.84375 C 21.769531 33.945312 20.972656 33.898438 20.179688 33.898438 C 19.171875 33.894531 18.160156 33.960938 17.15625 33.859375 C 16.929688 33.835938 16.703125 33.828125 16.472656 33.820312 C 16.003906 33.808594 15.539062 33.761719 15.0625 33.820312 C 14.613281 33.878906 14.148438 33.832031 13.691406 33.84375 C 12.683594 33.867188 11.675781 33.894531 10.667969 33.933594 C 10.304688 33.945312 9.9375 33.984375 9.574219 34.023438 C 8.886719 34.097656 8.203125 34.082031 7.515625 34.054688 C 7.136719 34.039062 6.753906 34.039062 6.375 34.039062 C 5.796875 34.039062 5.21875 34.074219 4.644531 33.828125 C 4.632812 33.75 4.601562 33.664062 4.605469 33.578125 C 4.621094 33.277344 4.65625 32.976562 4.675781 32.671875 C 4.695312 32.308594 4.707031 31.945312 4.71875 31.582031 C 4.777344 30.039062 4.816406 28.492188 4.953125 26.953125 C 5.003906 26.363281 4.996094 25.769531 5 25.179688 C 5.011719 23.722656 5.011719 22.269531 5.023438 20.8125 C 5.035156 19.632812 5.058594 18.453125 5.078125 17.269531 C 5.089844 16.527344 5.097656 15.785156 5.117188 15.042969 C 5.125 14.695312 5.136719 14.34375 5.167969 14 C 5.269531 13 5.253906 12 5.257812 11 C 5.257812 10.882812 5.273438 10.765625 5.28125 10.585938 Z M 5.070312 31.980469 C 5.214844 32.003906 5.347656 32.039062 5.480469 32.042969 C 6.105469 32.058594 6.734375 32.078125 7.359375 32.082031 C 7.675781 32.085938 7.996094 32.070312 8.3125 32.011719 C 8.609375 31.953125 8.921875 31.976562 9.226562 31.960938 C 10.066406 31.917969 10.902344 31.863281 11.742188 31.832031 C 12.292969 31.8125 12.84375 31.832031 13.390625 31.816406 C 14.167969 31.792969 14.949219 31.753906 15.726562 31.726562 C 16.089844 31.714844 16.457031 31.707031 16.824219 31.703125 C 17.203125 31.695312 17.574219 31.621094 17.953125 31.691406 C 18.027344 31.703125 18.105469 31.683594 18.183594 31.679688 C 18.335938 31.671875 18.488281 31.660156 18.640625 31.652344 C 19.203125 31.621094 19.765625 31.585938 20.328125 31.5625 C 20.464844 31.558594 20.605469 31.574219 20.742188 31.582031 C 20.847656 31.585938 20.953125 31.601562 21.058594 31.601562 C 21.914062 31.597656 22.769531 31.59375 23.621094 31.59375 C 24.019531 31.59375 24.417969 31.621094 24.8125 31.59375 C 25.480469 31.542969 26.148438 31.449219 26.820312 31.457031 C 26.847656 31.457031 26.875 31.4375 26.921875 31.417969 C 27.09375 31.082031 27.257812 30.722656 27.449219 30.382812 C 27.824219 29.714844 28.128906 29.023438 28.335938 28.292969 C 28.523438 27.625 28.789062 26.96875 28.660156 26.253906 C 28.683594 25.34375 28.644531 24.4375 28.710938 23.527344 C 28.800781 22.253906 28.769531 20.980469 28.742188 19.707031 C 28.730469 19.316406 28.699219 18.921875 28.777344 18.535156 C 28.878906 18.039062 28.886719 17.542969 28.871094 17.039062 C 28.871094 16.953125 28.835938 16.867188 28.8125 16.765625 C 28.546875 16.734375 28.292969 16.707031 28.046875 16.679688 C 27.957031 16.316406 27.921875 15.546875 27.96875 15.089844 C 28.074219 14.984375 28.210938 14.980469 28.351562 14.984375 C 28.625 14.996094 28.898438 15.011719 29.171875 15.003906 C 30.273438 14.972656 31.371094 14.929688 32.46875 14.898438 C 32.894531 14.886719 33.324219 14.90625 33.75 14.894531 C 34.511719 14.871094 35.277344 14.824219 36.039062 14.8125 C 36.726562 14.804688 37.410156 14.761719 38.097656 14.839844 C 38.300781 14.863281 38.519531 14.910156 38.714844 14.8125 C 38.726562 14.769531 38.738281 14.738281 38.738281 14.710938 C 38.742188 14.664062 38.746094 14.617188 38.730469 14.574219 C 38.546875 14.015625 38.527344 13.445312 38.605469 12.871094 C 38.609375 12.859375 38.59375 12.847656 38.570312 12.804688 C 38.429688 12.785156 38.265625 12.757812 38.101562 12.738281 C 37.980469 12.722656 37.859375 12.710938 37.738281 12.710938 C 37.308594 12.703125 36.882812 12.703125 36.453125 12.699219 C 35.429688 12.695312 34.40625 12.726562 33.386719 12.601562 C 33.25 12.585938 33.109375 12.59375 32.972656 12.601562 C 32.488281 12.625 32 12.671875 31.511719 12.679688 C 30.503906 12.695312 29.492188 12.699219 28.484375 12.691406 C 27.230469 12.679688 25.980469 12.652344 24.726562 12.71875 C 23.964844 12.757812 23.203125 12.832031 22.441406 12.847656 C 21.25 12.867188 20.058594 12.855469 18.867188 12.851562 C 18.039062 12.847656 17.21875 12.914062 16.398438 12.984375 C 15.863281 13.03125 15.332031 13.070312 14.796875 13.039062 C 14.265625 13.003906 13.734375 12.980469 13.199219 13.023438 C 12.515625 13.074219 11.824219 13.054688 11.136719 13.066406 C 10.632812 13.074219 10.128906 13.085938 9.625 13.09375 C 9.304688 13.097656 8.988281 13.097656 8.667969 13.09375 C 8.375 13.09375 8.085938 13.058594 7.796875 13.082031 C 7.265625 13.121094 6.734375 13.191406 6.207031 13.257812 C 5.984375 13.285156 5.761719 13.332031 5.546875 13.367188 C 5.523438 13.488281 5.5 13.578125 5.496094 13.667969 C 5.460938 14.316406 5.425781 14.96875 5.402344 15.617188 C 5.386719 16.042969 5.40625 16.464844 5.390625 16.890625 C 5.371094 17.570312 5.320312 18.253906 5.3125 18.933594 C 5.289062 20.78125 5.273438 22.628906 5.28125 24.476562 C 5.285156 25.675781 5.222656 26.871094 5.148438 28.066406 C 5.070312 29.304688 5.070312 30.550781 5.042969 31.792969 C 5.039062 31.851562 5.058594 31.90625 5.070312 31.984375 Z M 5.554688 12.382812 C 6.328125 12.527344 6.878906 12.550781 7.605469 12.441406 C 8.226562 12.351562 8.851562 12.308594 9.476562 12.347656 C 9.765625 12.367188 10.054688 12.40625 10.34375 12.402344 C 10.757812 12.398438 11.167969 12.363281 11.578125 12.335938 C 11.835938 12.316406 12.097656 12.304688 12.351562 12.261719 C 13.5 12.070312 14.65625 12 15.820312 12.066406 C 16.304688 12.089844 16.792969 12.113281 17.28125 12.121094 C 17.984375 12.132812 18.6875 12.128906 19.390625 12.136719 C 20.703125 12.144531 22.015625 12.160156 23.332031 12.160156 C 23.832031 12.15625 24.335938 12.117188 24.839844 12.085938 C 25.28125 12.054688 25.71875 12.007812 26.164062 11.980469 C 26.863281 11.933594 27.566406 11.902344 28.265625 11.859375 C 28.417969 11.851562 28.570312 11.824219 28.722656 11.808594 C 29.164062 11.769531 29.601562 11.710938 30.042969 11.699219 C 31.542969 11.660156 33.039062 11.703125 34.535156 11.757812 C 35.054688 11.777344 35.570312 11.828125 36.089844 11.847656 C 36.46875 11.859375 36.855469 11.859375 37.234375 11.828125 C 37.539062 11.804688 37.839844 11.789062 38.144531 11.832031 C 38.273438 11.847656 38.414062 11.90625 38.5625 11.789062 C 38.503906 11.566406 38.445312 11.332031 38.386719 11.097656 C 38.351562 10.964844 38.261719 10.894531 38.128906 10.875 C 37.871094 10.84375 37.613281 10.792969 37.355469 10.789062 C 36.117188 10.777344 34.878906 10.785156 33.640625 10.777344 C 32.679688 10.773438 31.714844 10.769531 30.753906 10.753906 C 29.972656 10.738281 29.195312 10.6875 28.417969 10.6875 C 27.777344 10.6875 27.136719 10.738281 26.496094 10.757812 C 25.152344 10.796875 23.808594 10.824219 22.464844 10.863281 C 21.671875 10.886719 20.878906 10.921875 20.085938 10.949219 C 19.429688 10.972656 18.773438 11.023438 18.117188 11.007812 C 17.292969 10.984375 16.472656 11.039062 15.652344 11.046875 C 14.933594 11.050781 14.214844 11.054688 13.496094 11.042969 C 12.902344 11.035156 12.304688 10.996094 11.710938 10.996094 C 11.039062 10.992188 10.367188 11.027344 9.695312 11.027344 C 9.269531 11.027344 8.839844 11.003906 8.414062 10.988281 C 7.53125 10.957031 6.644531 10.925781 5.761719 10.894531 C 5.703125 10.890625 5.644531 10.90625 5.550781 10.917969 C 5.511719 11.410156 5.539062 11.886719 5.554688 12.386719 Z M 35.738281 22.542969 C 35.644531 22.523438 35.585938 22.503906 35.527344 22.5 C 35.164062 22.492188 34.796875 22.488281 34.433594 22.476562 C 33.65625 22.445312 32.878906 22.507812 32.105469 22.582031 C 31.882812 22.605469 31.664062 22.675781 31.421875 22.726562 C 31.386719 22.898438 31.332031 23.058594 31.320312 23.222656 C 31.285156 23.734375 31.257812 24.25 31.242188 24.761719 C 31.214844 25.699219 31.195312 26.632812 31.171875 27.59375 C 31.316406 27.605469 31.449219 27.621094 31.582031 27.621094 C 31.949219 27.613281 32.3125 27.601562 32.679688 27.589844 C 33.5 27.5625 34.324219 27.53125 35.148438 27.503906 C 35.332031 27.5 35.507812 27.472656 35.707031 27.402344 C 35.734375 26.632812 35.757812 25.867188 35.734375 25.105469 C 35.621094 25.066406 35.636719 25.167969 35.597656 25.191406 C 35.53125 25.226562 35.464844 25.257812 35.40625 25.289062 C 35.1875 25.09375 35.144531 25.027344 35.125 24.882812 C 35.113281 24.769531 35.144531 24.671875 35.246094 24.609375 C 35.355469 24.539062 35.464844 24.496094 35.578125 24.597656 C 35.617188 24.632812 35.644531 24.703125 35.738281 24.652344 L 35.738281 22.539062 Z M 38.023438 16.425781 C 37.933594 16.425781 37.871094 16.425781 37.8125 16.425781 C 37.160156 16.433594 36.503906 16.445312 35.847656 16.449219 C 35.574219 16.453125 35.296875 16.429688 35.023438 16.4375 C 34.109375 16.460938 33.195312 16.488281 32.28125 16.519531 C 32.003906 16.527344 31.730469 16.53125 31.457031 16.550781 C 30.789062 16.605469 30.121094 16.664062 29.453125 16.726562 C 29.378906 16.730469 29.304688 16.746094 29.207031 16.761719 C 29.175781 17.011719 29.199219 17.253906 29.191406 17.492188 C 29.183594 17.71875 29.132812 17.941406 29.117188 18.167969 C 29.105469 18.402344 29.066406 18.640625 29.109375 18.882812 C 32.007812 18.824219 34.867188 18.628906 37.734375 18.515625 C 37.882812 17.824219 38.03125 17.160156 38.023438 16.425781 Z M 28.300781 16.398438 C 28.757812 16.453125 29.71875 16.4375 30.097656 16.398438 C 30.625 16.339844 31.15625 16.292969 31.691406 16.265625 C 32.285156 16.230469 32.878906 16.226562 33.476562 16.214844 C 34.558594 16.1875 35.640625 16.15625 36.726562 16.136719 C 37.367188 16.125 38.007812 16.132812 38.65625 16.132812 C 38.796875 15.808594 38.75 15.5 38.722656 15.164062 C 38.304688 15.136719 37.910156 15.085938 37.515625 15.089844 C 36.632812 15.09375 35.746094 15.132812 34.859375 15.140625 C 34.082031 15.148438 33.304688 15.246094 32.527344 15.179688 C 32.511719 15.179688 32.496094 15.183594 32.480469 15.183594 C 31.964844 15.199219 31.445312 15.214844 30.929688 15.230469 C 30.472656 15.246094 30.015625 15.269531 29.554688 15.277344 C 29.191406 15.285156 28.824219 15.277344 28.460938 15.277344 C 28.386719 15.277344 28.316406 15.300781 28.230469 15.316406 C 28.246094 15.691406 28.179688 16.054688 28.300781 16.398438 Z M 30.828125 20.109375 C 30.828125 20.472656 30.835938 20.804688 30.828125 21.136719 C 30.816406 21.605469 30.792969 22.074219 30.777344 22.542969 C 30.75 23.527344 30.722656 24.507812 30.699219 25.492188 C 30.683594 26.113281 30.671875 26.734375 30.660156 27.355469 C 30.660156 27.4375 30.683594 27.519531 30.703125 27.632812 C 30.765625 27.585938 30.824219 27.566406 30.828125 27.539062 C 30.847656 27.40625 30.863281 27.269531 30.863281 27.132812 C 30.871094 26.816406 30.859375 26.496094 30.871094 26.179688 C 30.894531 25.558594 30.925781 24.941406 30.957031 24.320312 C 30.980469 23.882812 31.003906 23.445312 31.039062 23.007812 C 31.054688 22.84375 31.105469 22.683594 31.132812 22.535156 C 31.199219 22.5 31.238281 22.46875 31.28125 22.460938 C 31.742188 22.351562 32.207031 22.273438 32.679688 22.25 C 33.058594 22.234375 33.441406 22.199219 33.824219 22.1875 C 34.113281 22.175781 34.40625 22.152344 34.691406 22.1875 C 35.105469 22.238281 35.511719 22.230469 35.914062 22.183594 C 36.085938 22.277344 36.066406 22.433594 36.074219 22.585938 C 36.09375 23.296875 36.035156 24.003906 36.0625 24.71875 C 36.089844 25.519531 36.0625 26.320312 36.0625 27.125 C 36.0625 27.210938 36.085938 27.300781 36.101562 27.410156 C 36.28125 27.386719 36.445312 27.40625 36.585938 27.296875 C 36.59375 27.242188 36.609375 27.199219 36.613281 27.152344 C 36.632812 26.335938 36.644531 25.515625 36.675781 24.699219 C 36.691406 24.246094 36.652344 23.792969 36.644531 23.339844 C 36.640625 22.613281 36.625 21.886719 36.617188 21.160156 C 36.613281 20.78125 36.617188 20.40625 36.613281 20.027344 C 36.613281 19.816406 36.546875 19.746094 36.351562 19.738281 C 36.183594 19.730469 36.015625 19.734375 35.847656 19.742188 C 34.6875 19.789062 33.53125 19.832031 32.371094 19.894531 C 31.875 19.921875 31.371094 19.960938 30.828125 20.113281 Z M 27.363281 34.542969 C 27.574219 34.542969 27.679688 34.542969 27.785156 34.542969 C 28.75 34.535156 29.710938 34.515625 30.671875 34.511719 C 31.695312 34.503906 32.71875 34.503906 33.742188 34.511719 C 34.671875 34.519531 35.601562 34.53125 36.53125 34.449219 C 37.261719 34.382812 37.996094 34.386719 38.726562 34.359375 C 38.910156 34.351562 39.09375 34.335938 39.277344 34.316406 C 39.347656 34.308594 39.414062 34.269531 39.488281 34.246094 C 39.433594 34.097656 39.332031 34.035156 39.207031 34.011719 C 39.101562 33.992188 38.996094 33.988281 38.886719 33.980469 C 38.046875 33.933594 37.210938 33.957031 36.371094 33.992188 C 35.960938 34.003906 35.550781 34.070312 35.140625 34.085938 C 34.269531 34.113281 33.398438 34.132812 32.53125 34.109375 C 32.085938 34.101562 31.644531 34.09375 31.203125 34.074219 C 30.503906 34.042969 29.804688 34 29.105469 33.972656 C 28.679688 33.957031 28.257812 33.960938 27.792969 33.953125 C 27.683594 34.101562 27.554688 34.28125 27.363281 34.542969 Z M 30.136719 29.402344 C 30.667969 29.414062 31.199219 29.414062 31.726562 29.433594 C 33.453125 29.503906 35.167969 29.363281 36.890625 29.304688 C 36.914062 29.304688 36.941406 29.277344 36.988281 29.246094 C 37.027344 29.042969 37.03125 28.824219 36.980469 28.589844 C 36.90625 28.578125 36.847656 28.5625 36.789062 28.566406 C 36.257812 28.601562 35.726562 28.65625 35.195312 28.683594 C 34.953125 28.695312 34.707031 28.671875 34.464844 28.660156 C 34.054688 28.636719 33.644531 28.582031 33.234375 28.59375 C 32.578125 28.609375 31.925781 28.660156 31.273438 28.710938 C 30.925781 28.738281 30.582031 28.796875 30.246094 28.84375 C 30.160156 29.023438 30.085938 29.1875 30.136719 29.402344 Z M 37.433594 28.265625 C 37.402344 28.269531 37.371094 28.277344 37.34375 28.285156 C 37.335938 28.476562 37.320312 28.671875 37.320312 28.863281 C 37.320312 29.273438 37.40625 29.675781 37.527344 30.066406 C 37.640625 30.4375 37.730469 30.820312 37.902344 31.164062 C 38.296875 31.964844 38.640625 32.796875 39.265625 33.464844 C 39.472656 33.683594 39.65625 33.929688 39.867188 34.144531 C 40.039062 34.324219 40.25 34.460938 40.484375 34.613281 C 40.507812 34.3125 40.539062 34.058594 40.542969 33.800781 C 40.546875 33.636719 40.535156 33.472656 40.40625 33.335938 C 39.8125 32.679688 39.351562 31.921875 38.863281 31.191406 C 38.257812 30.28125 37.695312 29.34375 37.433594 28.265625 Z M 37.503906 31.046875 C 37.222656 31.046875 36.996094 31.054688 36.765625 31.046875 C 36.507812 31.039062 36.25 31.003906 35.992188 31.007812 C 35.027344 31.023438 34.066406 31.054688 33.105469 31.070312 C 31.929688 31.085938 30.753906 31.097656 29.578125 31.097656 C 29.414062 31.097656 29.316406 31.148438 29.265625 31.296875 C 29.226562 31.40625 29.191406 31.511719 29.140625 31.652344 C 29.347656 31.652344 29.515625 31.660156 29.683594 31.652344 C 30.449219 31.621094 31.210938 31.65625 31.972656 31.675781 C 33.011719 31.695312 34.046875 31.714844 35.085938 31.652344 C 35.832031 31.605469 36.582031 31.613281 37.328125 31.59375 C 37.460938 31.589844 37.609375 31.632812 37.726562 31.484375 C 37.65625 31.347656 37.582031 31.199219 37.503906 31.046875 Z M 29.089844 26.707031 C 28.980469 26.863281 28.960938 27.023438 28.925781 27.183594 C 28.773438 27.863281 28.601562 28.539062 28.328125 29.183594 C 27.882812 30.214844 27.359375 31.207031 26.828125 32.195312 C 26.59375 32.636719 26.328125 33.0625 25.996094 33.441406 C 25.957031 33.484375 25.9375 33.539062 25.90625 33.597656 C 26.066406 33.644531 26.210938 33.648438 26.328125 33.574219 C 26.503906 33.457031 26.683594 33.332031 26.824219 33.175781 C 27.097656 32.871094 27.367188 32.558594 27.597656 32.222656 C 27.847656 31.859375 28.09375 31.484375 28.261719 31.085938 C 28.519531 30.457031 28.757812 29.816406 29.058594 29.207031 C 29.34375 28.617188 29.445312 28 29.480469 27.359375 C 29.488281 27.179688 29.472656 27 29.46875 26.804688 C 29.328125 26.769531 29.214844 26.738281 29.089844 26.707031 Z M 37.207031 30.15625 C 36.648438 30.117188 36.136719 30.101562 35.617188 30.128906 C 34.886719 30.167969 34.15625 30.226562 33.421875 30.171875 C 33.011719 30.140625 32.597656 30.144531 32.1875 30.148438 C 31.5625 30.15625 30.933594 30.183594 30.308594 30.195312 C 29.757812 30.203125 29.753906 30.199219 29.550781 30.714844 C 29.539062 30.738281 29.554688 30.769531 29.558594 30.828125 C 29.636719 30.835938 29.722656 30.851562 29.804688 30.847656 C 30.066406 30.832031 30.320312 30.796875 30.578125 30.792969 C 31.417969 30.78125 32.257812 30.789062 33.097656 30.777344 C 33.8125 30.765625 34.527344 30.730469 35.242188 30.722656 C 35.835938 30.710938 36.433594 30.722656 37.027344 30.71875 C 37.128906 30.71875 37.230469 30.703125 37.355469 30.691406 C 37.304688 30.507812 37.261719 30.351562 37.207031 30.15625 Z M 40.34375 34.972656 C 40.117188 34.707031 39.902344 34.566406 39.597656 34.605469 C 39.523438 34.617188 39.445312 34.609375 39.367188 34.613281 C 38.121094 34.707031 36.867188 34.671875 35.621094 34.808594 C 35.515625 34.820312 35.40625 34.820312 35.300781 34.820312 C 33.621094 34.8125 31.9375 34.808594 30.257812 34.804688 C 30.074219 34.804688 29.890625 34.789062 29.707031 34.792969 C 28.898438 34.804688 28.089844 34.820312 27.28125 34.832031 C 27.25 34.832031 27.222656 34.847656 27.195312 34.855469 C 27 35.066406 27 35.066406 26.972656 35.25 C 27.289062 35.25 27.609375 35.253906 27.929688 35.246094 C 28.402344 35.234375 28.875 35.214844 29.347656 35.199219 C 29.820312 35.183594 30.292969 35.152344 30.765625 35.152344 C 31.375 35.148438 31.988281 35.175781 32.597656 35.175781 C 32.917969 35.175781 33.238281 35.160156 33.558594 35.132812 C 34.546875 35.050781 35.535156 34.984375 36.53125 35.003906 C 37.230469 35.015625 37.933594 34.996094 38.636719 35.035156 C 39.179688 35.0625 39.730469 34.996094 40.34375 34.972656 Z M 29.472656 26.445312 C 29.585938 26.234375 29.558594 26.003906 29.566406 25.78125 C 29.597656 24.597656 29.613281 23.417969 29.648438 22.238281 C 29.664062 21.617188 29.707031 20.996094 29.726562 20.375 C 29.738281 20.105469 29.730469 19.835938 29.730469 19.589844 C 29.488281 19.386719 29.261719 19.273438 29.042969 19.253906 C 29.035156 19.402344 29.023438 19.550781 29.027344 19.695312 C 29.035156 20.011719 29.066406 20.332031 29.070312 20.648438 C 29.078125 20.890625 29.0625 21.132812 29.054688 21.371094 C 29.039062 22.1875 29.023438 23.003906 29 23.824219 C 28.984375 24.445312 28.957031 25.0625 28.953125 25.683594 C 28.949219 25.9375 28.988281 26.191406 29.007812 26.441406 C 29.179688 26.519531 29.320312 26.515625 29.472656 26.449219 Z M 37.652344 19.074219 C 37.476562 19.226562 37.371094 19.3125 37.273438 19.402344 C 36.914062 19.746094 36.90625 19.746094 36.902344 20.226562 C 36.902344 21.089844 36.910156 21.953125 36.925781 22.816406 C 36.933594 23.300781 36.992188 23.785156 36.984375 24.269531 C 36.976562 25.238281 36.9375 26.207031 36.914062 27.175781 C 36.910156 27.339844 36.898438 27.511719 37.050781 27.660156 C 37.074219 27.597656 37.101562 27.546875 37.113281 27.492188 C 37.171875 27.179688 37.230469 26.867188 37.277344 26.554688 C 37.351562 26.074219 37.371094 25.589844 37.394531 25.105469 C 37.4375 24.226562 37.507812 23.351562 37.550781 22.476562 C 37.601562 21.464844 37.578125 20.449219 37.671875 19.4375 C 37.679688 19.351562 37.664062 19.261719 37.652344 19.074219 Z M 28.285156 33.125 C 28.421875 33.144531 28.480469 33.160156 28.535156 33.160156 C 29.28125 33.148438 30.027344 33.140625 30.773438 33.125 C 31.582031 33.109375 32.390625 33.078125 33.199219 33.074219 C 34.589844 33.070312 35.980469 33.078125 37.367188 33.085938 C 37.566406 33.089844 37.765625 33.113281 37.960938 33.128906 C 38.152344 33.140625 38.347656 33.171875 38.570312 33.09375 C 38.480469 32.9375 38.40625 32.808594 38.332031 32.679688 C 38.117188 32.664062 37.917969 32.632812 37.722656 32.636719 C 36.71875 32.644531 35.714844 32.667969 34.710938 32.675781 C 34.300781 32.679688 33.890625 32.65625 33.480469 32.65625 C 32.960938 32.65625 32.441406 32.65625 31.925781 32.667969 C 31.265625 32.679688 30.613281 32.710938 29.953125 32.71875 C 29.496094 32.722656 29.039062 32.695312 28.570312 32.683594 C 28.484375 32.8125 28.402344 32.9375 28.285156 33.125 Z M 28.734375 32.414062 C 28.972656 32.425781 29.15625 32.441406 29.335938 32.441406 C 30.054688 32.4375 30.773438 32.457031 31.488281 32.410156 C 32.023438 32.375 32.554688 32.363281 33.089844 32.375 C 33.605469 32.386719 34.125 32.40625 34.640625 32.402344 C 35.492188 32.394531 36.347656 32.371094 37.203125 32.359375 C 37.492188 32.351562 37.78125 32.359375 38.082031 32.359375 C 38.078125 32.148438 38.003906 32.011719 37.855469 31.890625 C 36.972656 31.890625 36.089844 31.882812 35.203125 31.933594 C 34.914062 31.953125 34.625 31.984375 34.332031 31.980469 C 33.480469 31.972656 32.625 31.945312 31.769531 31.933594 C 30.945312 31.925781 30.121094 31.929688 29.296875 31.929688 C 29.191406 31.929688 29.085938 31.945312 28.980469 31.957031 C 28.925781 32.042969 28.875 32.117188 28.828125 32.195312 C 28.800781 32.246094 28.78125 32.300781 28.734375 32.417969 Z M 30.164062 27.972656 C 30.324219 27.691406 30.328125 27.433594 30.339844 27.179688 C 30.367188 26.621094 30.382812 26.058594 30.40625 25.5 C 30.4375 24.730469 30.484375 23.960938 30.507812 23.191406 C 30.535156 22.34375 30.542969 21.5 30.558594 20.652344 C 30.5625 20.578125 30.546875 20.503906 30.539062 20.425781 C 30.503906 20.128906 30.378906 19.988281 30.03125 19.878906 C 30.003906 20.515625 29.976562 21.152344 29.953125 21.785156 C 29.921875 22.613281 29.890625 23.445312 29.867188 24.277344 C 29.851562 24.894531 29.871094 25.515625 29.835938 26.136719 C 29.800781 26.753906 29.941406 27.335938 30.164062 27.972656 Z M 38.535156 12.429688 C 38.589844 12.273438 38.535156 12.183594 38.40625 12.171875 C 38.089844 12.144531 37.769531 12.121094 37.449219 12.117188 C 37.191406 12.113281 36.929688 12.144531 36.671875 12.140625 C 36.230469 12.128906 35.789062 12.09375 35.347656 12.082031 C 34.078125 12.046875 32.8125 12.019531 31.542969 11.992188 C 31.3125 11.984375 31.085938 11.972656 30.855469 11.976562 C 30.457031 11.976562 30.058594 11.964844 29.664062 12.003906 C 28.691406 12.09375 27.71875 12.203125 26.742188 12.234375 C 26.21875 12.253906 25.699219 12.296875 25.183594 12.378906 C 25.351562 12.40625 25.519531 12.417969 25.683594 12.417969 C 27 12.421875 28.3125 12.433594 29.628906 12.425781 C 30.359375 12.417969 31.09375 12.375 31.828125 12.355469 C 32.496094 12.339844 33.167969 12.277344 33.839844 12.347656 C 34.070312 12.371094 34.296875 12.390625 34.527344 12.394531 C 35.855469 12.410156 37.179688 12.417969 38.535156 12.429688 Z M 28.054688 33.695312 C 28.148438 33.703125 28.25 33.722656 28.355469 33.71875 C 28.660156 33.71875 28.964844 33.691406 29.269531 33.710938 C 30.472656 33.785156 31.675781 33.816406 32.878906 33.820312 C 33.550781 33.820312 34.222656 33.804688 34.890625 33.804688 C 35.289062 33.808594 35.683594 33.8125 36.078125 33.734375 C 36.226562 33.707031 36.378906 33.699219 36.53125 33.691406 C 36.878906 33.675781 37.230469 33.65625 37.578125 33.652344 C 37.988281 33.644531 38.402344 33.597656 38.8125 33.679688 C 38.851562 33.6875 38.894531 33.664062 38.949219 33.648438 C 38.933594 33.511719 38.859375 33.457031 38.738281 33.453125 C 38.160156 33.421875 37.582031 33.386719 37.003906 33.371094 C 36.425781 33.351562 35.84375 33.359375 35.265625 33.359375 C 34.410156 33.355469 33.554688 33.316406 32.703125 33.359375 C 31.726562 33.40625 30.753906 33.304688 29.777344 33.398438 C 29.296875 33.445312 28.804688 33.417969 28.316406 33.425781 C 28.257812 33.425781 28.191406 33.425781 28.140625 33.449219 C 28.050781 33.488281 28.007812 33.566406 28.054688 33.691406 Z M 24.253906 12.484375 C 24.253906 12.472656 24.253906 12.460938 24.253906 12.453125 C 23.355469 12.4375 22.453125 12.417969 21.554688 12.414062 C 20.148438 12.40625 18.742188 12.414062 17.335938 12.410156 C 16.910156 12.410156 16.480469 12.421875 16.058594 12.382812 C 14.96875 12.28125 13.894531 12.320312 12.816406 12.492188 C 12.46875 12.546875 12.117188 12.566406 11.769531 12.597656 C 11.511719 12.621094 11.25 12.65625 10.992188 12.660156 C 10.535156 12.667969 10.074219 12.679688 9.617188 12.648438 C 8.976562 12.605469 8.332031 12.605469 7.699219 12.707031 C 7.042969 12.8125 6.394531 12.839844 5.746094 12.707031 C 5.6875 12.695312 5.628906 12.707031 5.539062 12.707031 C 5.53125 12.816406 5.523438 12.914062 5.515625 13.027344 C 5.6875 13.070312 5.835938 13.046875 5.984375 13.027344 C 6.363281 12.976562 6.738281 12.921875 7.117188 12.875 C 7.40625 12.839844 7.695312 12.785156 7.984375 12.792969 C 8.636719 12.808594 9.292969 12.824219 9.949219 12.800781 C 11.140625 12.757812 12.332031 12.804688 13.523438 12.703125 C 13.796875 12.679688 14.074219 12.707031 14.347656 12.714844 C 14.757812 12.730469 15.171875 12.777344 15.582031 12.757812 C 16.464844 12.714844 17.347656 12.640625 18.230469 12.585938 C 18.6875 12.558594 19.144531 12.539062 19.601562 12.539062 C 20.441406 12.539062 21.28125 12.550781 22.117188 12.574219 C 22.730469 12.589844 23.332031 12.484375 23.941406 12.480469 C 24.046875 12.480469 24.148438 12.480469 24.253906 12.480469 Z M 26.457031 35.316406 C 26.582031 35.199219 26.628906 35.167969 26.660156 35.121094 C 26.945312 34.710938 27.238281 34.304688 27.503906 33.878906 C 28.113281 32.898438 28.703125 31.910156 29.167969 30.855469 C 29.449219 30.214844 29.703125 29.566406 29.878906 28.890625 C 29.90625 28.777344 29.929688 28.652344 29.917969 28.535156 C 29.898438 28.316406 29.855469 28.097656 29.820312 27.875 C 29.742188 27.957031 29.722656 28.039062 29.703125 28.125 C 29.613281 28.523438 29.519531 28.917969 29.339844 29.292969 C 29.125 29.726562 28.953125 30.179688 28.765625 30.625 C 28.671875 30.847656 28.601562 31.082031 28.488281 31.292969 C 28.039062 32.140625 27.503906 32.933594 26.78125 33.582031 C 26.621094 33.726562 26.550781 33.886719 26.539062 34.09375 C 26.523438 34.382812 26.484375 34.667969 26.457031 34.953125 C 26.449219 35.039062 26.457031 35.132812 26.457031 35.320312 Z M 37.664062 26.179688 C 37.632812 26.367188 37.578125 26.53125 37.582031 26.691406 C 37.597656 27.113281 37.609375 27.539062 37.683594 27.953125 C 37.808594 28.660156 38.066406 29.324219 38.429688 29.941406 C 38.546875 30.136719 38.675781 30.324219 38.789062 30.519531 C 39.265625 31.332031 39.804688 32.101562 40.367188 32.855469 C 40.421875 32.925781 40.480469 33 40.539062 33.066406 C 40.648438 33.1875 40.785156 33.21875 41.003906 33.175781 C 40.441406 32.484375 39.941406 31.804688 39.546875 31.054688 C 39.148438 30.289062 38.808594 29.5 38.554688 28.671875 C 38.308594 27.863281 38.105469 27.046875 38.101562 26.179688 Z M 37.96875 25.886719 C 38.007812 25.832031 38.023438 25.820312 38.023438 25.808594 C 38.074219 24.992188 38.125 24.179688 38.175781 23.363281 C 38.242188 22.308594 38.3125 21.25 38.378906 20.195312 C 38.390625 20.011719 38.382812 19.832031 38.402344 19.648438 C 38.480469 18.929688 38.566406 18.207031 38.644531 17.484375 C 38.671875 17.246094 38.683594 17.003906 38.6875 16.761719 C 38.691406 16.660156 38.660156 16.558594 38.648438 16.464844 C 38.375 16.421875 38.332031 16.445312 38.3125 16.632812 C 38.304688 16.695312 38.308594 16.753906 38.300781 16.816406 C 38.261719 17.175781 38.238281 17.539062 38.175781 17.894531 C 37.996094 18.925781 37.914062 19.964844 37.902344 21.007812 C 37.890625 21.765625 37.839844 22.519531 37.800781 23.277344 C 37.761719 24.105469 37.710938 24.9375 37.664062 25.765625 C 37.664062 25.789062 37.691406 25.816406 37.71875 25.867188 C 37.792969 25.875 37.878906 25.882812 37.964844 25.886719 Z M 29.917969 29.90625 C 29.976562 29.917969 30.007812 29.925781 30.035156 29.925781 C 30.859375 29.910156 31.683594 29.886719 32.507812 29.878906 C 33.042969 29.875 33.578125 29.90625 34.109375 29.898438 C 35.042969 29.882812 35.972656 29.847656 36.902344 29.820312 C 36.960938 29.820312 37.015625 29.796875 37.066406 29.785156 C 37.089844 29.664062 37.03125 29.628906 36.945312 29.625 C 36.6875 29.617188 36.425781 29.601562 36.167969 29.613281 C 35.601562 29.632812 35.039062 29.6875 34.472656 29.695312 C 33.433594 29.707031 32.394531 29.695312 31.355469 29.695312 C 30.929688 29.695312 30.5 29.703125 30.074219 29.710938 C 29.964844 29.710938 29.902344 29.765625 29.914062 29.90625 Z M 40.859375 33.53125 C 40.84375 33.796875 40.8125 34.035156 40.8125 34.273438 C 40.8125 34.507812 40.714844 34.753906 40.859375 34.988281 C 41.027344 35.007812 41.1875 35.027344 41.34375 34.96875 C 41.40625 34.570312 41.417969 33.828125 41.363281 33.503906 C 41.207031 33.460938 41.050781 33.449219 40.859375 33.53125 Z M 25.738281 35.230469 C 25.882812 35.257812 26 35.375 26.203125 35.296875 C 26.121094 34.835938 26.378906 34.390625 26.222656 33.921875 C 26.046875 33.871094 25.890625 33.859375 25.710938 33.957031 C 25.714844 34.378906 25.683594 34.796875 25.738281 35.230469 Z M 25.738281 35.230469 " fill-opacity="1" fill-rule="nonzero"/></g><path fill="#000000" d="M 22.894531 20.503906 C 22.855469 20.617188 22.808594 20.699219 22.796875 20.789062 C 22.703125 21.644531 22.59375 22.503906 22.773438 23.367188 C 22.804688 23.511719 22.8125 23.667969 22.796875 23.816406 C 22.753906 24.191406 22.746094 24.566406 22.765625 24.941406 C 22.804688 25.625 22.703125 26.304688 22.648438 26.984375 C 22.59375 27.691406 22.585938 28.402344 22.59375 29.113281 C 22.714844 29.207031 22.839844 29.164062 22.953125 29.160156 C 23.097656 29.160156 23.207031 29.238281 23.226562 29.359375 C 23.277344 29.652344 23.300781 29.957031 23.3125 30.253906 C 23.316406 30.355469 23.214844 30.402344 23.117188 30.398438 C 22.980469 30.394531 22.839844 30.367188 22.707031 30.371094 C 21.605469 30.402344 20.507812 30.445312 19.410156 30.464844 C 18.84375 30.476562 18.28125 30.464844 17.714844 30.519531 C 17.546875 30.53125 17.378906 30.53125 17.234375 30.386719 C 17.210938 30.1875 17.179688 29.980469 17.160156 29.769531 C 17.136719 29.496094 17.226562 29.371094 17.488281 29.308594 C 17.605469 29.28125 17.726562 29.265625 17.878906 29.242188 C 17.910156 28.863281 17.941406 28.492188 17.976562 28.121094 C 18.011719 27.742188 18.058594 27.367188 18.082031 26.988281 C 18.105469 26.628906 18.097656 26.261719 18.117188 25.898438 C 18.144531 25.523438 18.207031 25.148438 18.179688 24.757812 C 18.128906 24.753906 18.089844 24.75 18.046875 24.75 C 17.890625 24.742188 17.824219 24.703125 17.824219 24.59375 C 17.824219 24.304688 17.820312 24.015625 17.84375 23.730469 C 17.878906 23.335938 17.929688 22.949219 17.980469 22.558594 C 18.070312 21.898438 18.160156 21.238281 18.253906 20.550781 C 17.570312 20.4375 16.902344 20.523438 16.238281 20.480469 C 15.554688 20.4375 14.867188 20.492188 14.183594 20.503906 C 13.511719 20.511719 12.84375 20.546875 12.144531 20.628906 C 12.164062 20.769531 12.183594 20.898438 12.203125 21.027344 C 12.21875 21.160156 12.238281 21.296875 12.257812 21.433594 C 12.277344 21.566406 12.304688 21.699219 12.316406 21.835938 C 12.371094 22.46875 12.46875 23.097656 12.609375 23.722656 C 12.671875 24 12.699219 24.289062 12.75 24.570312 C 12.769531 24.691406 12.71875 24.78125 12.632812 24.851562 C 12.578125 24.898438 12.507812 24.933594 12.429688 24.984375 C 12.332031 26.449219 12.128906 27.921875 12.277344 29.40625 C 12.558594 29.472656 12.824219 29.347656 13.097656 29.464844 C 13.171875 29.730469 13.125 30.015625 13.136719 30.3125 C 13.0625 30.339844 12.996094 30.382812 12.925781 30.386719 C 12.347656 30.421875 11.769531 30.449219 11.1875 30.476562 C 10.992188 30.488281 10.796875 30.488281 10.597656 30.492188 C 9.625 30.523438 8.652344 30.664062 7.675781 30.636719 C 7.476562 30.628906 7.277344 30.652344 7.082031 30.667969 C 6.867188 30.6875 6.660156 30.660156 6.4375 30.589844 C 6.398438 30.25 6.25 29.910156 6.503906 29.5625 C 6.726562 29.539062 6.964844 29.511719 7.226562 29.484375 C 7.246094 29.390625 7.28125 29.304688 7.28125 29.21875 C 7.300781 28.554688 7.335938 27.890625 7.417969 27.230469 C 7.441406 27.039062 7.382812 26.839844 7.378906 26.644531 C 7.375 26.191406 7.378906 25.734375 7.378906 25.28125 C 7.378906 25.128906 7.378906 24.980469 7.378906 24.84375 C 7.242188 24.742188 7.207031 24.882812 7.128906 24.910156 C 6.980469 24.960938 6.878906 24.902344 6.894531 24.75 C 6.925781 24.464844 6.949219 24.175781 7.003906 23.894531 C 7.105469 23.359375 7.21875 22.828125 7.34375 22.296875 C 7.414062 22.003906 7.527344 21.722656 7.609375 21.429688 C 7.65625 21.273438 7.6875 21.109375 7.71875 20.976562 C 7.632812 20.835938 7.519531 20.84375 7.417969 20.839844 C 7.21875 20.832031 7.019531 20.84375 6.828125 20.820312 C 6.664062 20.800781 6.507812 20.738281 6.335938 20.691406 C 6.3125 20.230469 6.269531 19.796875 6.273438 19.359375 C 6.277344 18.816406 6.316406 18.273438 6.355469 17.730469 C 6.390625 17.203125 6.441406 16.675781 6.488281 16.148438 C 6.496094 16.058594 6.515625 15.964844 6.546875 15.882812 C 6.613281 15.714844 6.730469 15.613281 6.925781 15.609375 C 7.292969 15.601562 7.660156 15.609375 8.027344 15.570312 C 9.046875 15.464844 10.074219 15.554688 11.09375 15.484375 C 11.367188 15.464844 11.640625 15.433594 11.914062 15.425781 C 12.480469 15.414062 13.042969 15.402344 13.609375 15.402344 C 14.722656 15.40625 15.839844 15.410156 16.953125 15.425781 C 17.746094 15.4375 18.539062 15.472656 19.332031 15.492188 C 19.730469 15.5 20.121094 15.507812 20.519531 15.445312 C 20.753906 15.40625 21.003906 15.449219 21.25 15.449219 C 21.933594 15.453125 22.621094 15.453125 23.308594 15.449219 C 23.734375 15.449219 24.164062 15.4375 24.589844 15.421875 C 25.09375 15.40625 25.597656 15.386719 26.101562 15.367188 C 26.148438 15.363281 26.191406 15.359375 26.238281 15.359375 C 26.6875 15.367188 26.84375 15.53125 26.808594 15.972656 C 26.792969 16.199219 26.761719 16.421875 26.734375 16.644531 C 26.609375 17.636719 26.539062 18.636719 26.511719 19.636719 C 26.507812 19.816406 26.511719 19.996094 26.511719 20.199219 C 26.347656 20.351562 26.136719 20.425781 25.902344 20.433594 C 25.519531 20.445312 25.140625 20.449219 24.757812 20.453125 C 24.222656 20.457031 23.6875 20.457031 23.152344 20.460938 C 23.078125 20.460938 23.003906 20.484375 22.898438 20.503906 Z M 10.976562 20.40625 C 11.089844 20.390625 11.210938 20.367188 11.332031 20.363281 C 12.078125 20.324219 12.820312 20.277344 13.566406 20.261719 C 15.460938 20.226562 17.351562 20.191406 19.246094 20.304688 C 20.007812 20.351562 20.769531 20.320312 21.53125 20.277344 C 22.765625 20.214844 24 20.132812 25.234375 20.171875 C 25.464844 20.179688 25.695312 20.160156 25.921875 20.140625 C 26.132812 20.121094 26.195312 20.058594 26.210938 19.859375 C 26.230469 19.574219 26.238281 19.285156 26.257812 18.996094 C 26.28125 18.589844 26.308594 18.179688 26.34375 17.773438 C 26.386719 17.261719 26.4375 16.746094 26.480469 16.234375 C 26.492188 16.070312 26.523438 15.902344 26.433594 15.734375 C 26.375 15.722656 26.316406 15.695312 26.257812 15.699219 C 25.753906 15.699219 25.25 15.6875 24.746094 15.71875 C 23.648438 15.792969 22.550781 15.800781 21.453125 15.71875 C 21.179688 15.699219 20.902344 15.707031 20.628906 15.71875 C 20.246094 15.734375 19.867188 15.785156 19.488281 15.78125 C 18.632812 15.769531 17.78125 15.71875 16.925781 15.707031 C 15.671875 15.695312 14.417969 15.703125 13.167969 15.703125 C 12.753906 15.703125 12.339844 15.679688 11.929688 15.710938 C 11.078125 15.777344 10.222656 15.796875 9.367188 15.796875 C 9.078125 15.796875 8.785156 15.796875 8.496094 15.808594 C 8.054688 15.828125 7.613281 15.859375 7.171875 15.886719 C 7.054688 15.894531 6.9375 15.90625 6.800781 15.917969 C 6.777344 16.039062 6.738281 16.140625 6.742188 16.242188 C 6.753906 16.90625 6.65625 17.566406 6.59375 18.226562 C 6.546875 18.667969 6.5625 19.105469 6.550781 19.542969 C 6.542969 19.867188 6.617188 20.195312 6.652344 20.5 C 6.816406 20.617188 6.96875 20.601562 7.121094 20.597656 C 7.746094 20.570312 8.371094 20.546875 8.996094 20.523438 C 9.148438 20.519531 9.3125 20.546875 9.449219 20.503906 C 9.679688 20.429688 9.898438 20.433594 10.125 20.480469 C 10.25 20.507812 10.371094 20.496094 10.46875 20.367188 C 10.222656 20.332031 9.980469 20.335938 9.746094 20.226562 C 9.753906 20.144531 9.746094 20.0625 9.773438 19.996094 C 9.917969 19.636719 9.804688 19.363281 9.527344 19.105469 C 9.328125 18.921875 9.171875 18.691406 9.011719 18.472656 C 8.945312 18.375 8.910156 18.253906 8.875 18.140625 C 8.863281 18.109375 8.890625 18.046875 8.921875 18.023438 C 8.949219 18.003906 9.019531 17.992188 9.042969 18.011719 C 9.128906 18.070312 9.214844 18.140625 9.277344 18.21875 C 9.585938 18.617188 9.882812 19.019531 10.1875 19.417969 C 10.226562 19.46875 10.285156 19.5 10.332031 19.542969 C 10.386719 19.34375 10.4375 19.171875 10.496094 18.964844 C 10.417969 18.710938 10.328125 18.40625 10.234375 18.105469 C 10.265625 17.894531 10.390625 17.738281 10.550781 17.621094 C 10.792969 17.445312 10.980469 17.183594 11.308594 17.148438 C 11.425781 17.136719 11.507812 17.078125 11.566406 16.980469 C 11.621094 16.894531 11.675781 16.804688 11.738281 16.699219 C 11.851562 16.699219 11.960938 16.683594 12.0625 16.703125 C 12.296875 16.753906 12.53125 16.820312 12.765625 16.886719 C 12.925781 16.929688 13.085938 16.980469 13.242188 17.039062 C 13.277344 17.050781 13.328125 17.109375 13.320312 17.136719 C 13.308594 17.1875 13.269531 17.261719 13.230469 17.269531 C 13.070312 17.300781 12.902344 17.316406 12.738281 17.324219 C 12.375 17.351562 12.007812 17.359375 11.644531 17.390625 C 11.542969 17.398438 11.433594 17.4375 11.355469 17.5 C 11.109375 17.6875 10.914062 17.921875 10.78125 18.195312 C 10.65625 18.453125 10.839844 18.730469 10.777344 19.003906 C 10.765625 19.039062 10.835938 19.09375 10.863281 19.144531 C 10.902344 19.222656 10.945312 19.300781 10.972656 19.382812 C 11.027344 19.53125 11.121094 19.648438 11.265625 19.71875 C 11.316406 19.746094 11.378906 19.765625 11.429688 19.796875 C 11.507812 19.839844 11.523438 19.921875 11.484375 19.988281 C 11.460938 20.027344 11.378906 20.066406 11.335938 20.054688 C 11.160156 20.015625 10.992188 19.945312 10.8125 20.007812 C 10.867188 20.136719 10.917969 20.269531 10.976562 20.410156 Z M 8.035156 20.890625 C 7.597656 22.144531 7.34375 23.269531 7.382812 23.796875 C 7.421875 23.800781 7.464844 23.8125 7.507812 23.808594 C 8.3125 23.761719 9.117188 23.71875 9.921875 23.671875 C 10.179688 23.65625 10.441406 23.632812 10.699219 23.625 C 11.09375 23.617188 11.492188 23.625 11.886719 23.617188 C 11.988281 23.617188 12.09375 23.59375 12.242188 23.574219 C 12.085938 22.59375 12.046875 21.617188 11.820312 20.667969 C 11.753906 20.648438 11.710938 20.621094 11.667969 20.625 C 10.457031 20.710938 9.242188 20.800781 8.035156 20.890625 Z M 18.582031 20.515625 C 18.550781 20.609375 18.519531 20.667969 18.515625 20.726562 C 18.40625 21.578125 18.304688 22.433594 18.203125 23.289062 C 18.199219 23.328125 18.226562 23.371094 18.242188 23.425781 C 18.761719 23.417969 19.277344 23.410156 19.789062 23.398438 C 20.246094 23.386719 20.703125 23.359375 21.160156 23.347656 C 21.507812 23.335938 21.859375 23.332031 22.210938 23.316406 C 22.289062 23.3125 22.367188 23.257812 22.453125 23.222656 C 22.339844 22.3125 22.492188 21.433594 22.546875 20.527344 C 22.417969 20.523438 22.316406 20.511719 22.210938 20.511719 C 21.679688 20.527344 21.148438 20.554688 20.621094 20.5625 C 20.195312 20.570312 19.769531 20.558594 19.34375 20.550781 C 19.101562 20.546875 18.859375 20.53125 18.582031 20.515625 Z M 7.6875 24.652344 C 7.671875 24.679688 7.648438 24.707031 7.648438 24.730469 C 7.648438 25.609375 7.652344 26.488281 7.65625 27.367188 C 7.65625 27.488281 7.6875 27.609375 7.683594 27.726562 C 7.660156 28.136719 7.628906 28.542969 7.601562 28.949219 C 7.589844 29.128906 7.574219 29.308594 7.679688 29.492188 C 9.089844 29.425781 10.503906 29.476562 11.898438 29.425781 C 11.925781 29.367188 11.949219 29.34375 11.949219 29.316406 C 11.957031 29.195312 11.96875 29.074219 11.964844 28.953125 C 11.917969 27.785156 12.035156 26.625 12.121094 25.460938 C 12.132812 25.285156 12.121094 25.105469 12.121094 24.933594 C 11.910156 24.871094 11.824219 24.625 11.558594 24.65625 C 11.433594 24.78125 11.289062 24.921875 11.136719 25.070312 C 11.042969 24.992188 10.976562 24.933594 10.90625 24.882812 C 10.730469 24.757812 10.660156 24.765625 10.511719 24.910156 C 10.4375 24.980469 10.398438 25.097656 10.242188 25.074219 C 10.164062 24.960938 10.078125 24.839844 10 24.730469 C 9.789062 24.652344 9.632812 24.71875 9.472656 24.832031 C 9.203125 25.019531 9.199219 25.011719 8.933594 24.808594 C 8.765625 24.675781 8.652344 24.671875 8.488281 24.800781 C 8.460938 24.816406 8.449219 24.847656 8.425781 24.867188 C 8.25 25.019531 8.203125 25.023438 8.058594 24.851562 C 7.957031 24.734375 7.859375 24.625 7.6875 24.652344 Z M 20.816406 24.796875 C 20.582031 24.753906 20.554688 24.503906 20.316406 24.527344 C 20.222656 24.597656 20.105469 24.6875 19.984375 24.773438 C 19.828125 24.648438 19.691406 24.535156 19.558594 24.429688 C 19.492188 24.460938 19.445312 24.472656 19.410156 24.503906 C 19.332031 24.570312 19.257812 24.648438 19.183594 24.71875 C 19.070312 24.832031 18.933594 24.839844 18.824219 24.726562 C 18.757812 24.664062 18.726562 24.570312 18.664062 24.511719 C 18.617188 24.46875 18.539062 24.460938 18.476562 24.4375 C 18.445312 24.929688 18.414062 25.394531 18.386719 25.863281 C 18.378906 25.96875 18.375 26.074219 18.378906 26.179688 C 18.390625 26.910156 18.335938 27.632812 18.230469 28.355469 C 18.183594 28.667969 18.160156 28.984375 18.21875 29.316406 C 18.472656 29.316406 18.714844 29.324219 18.957031 29.3125 C 19.339844 29.300781 19.71875 29.265625 20.101562 29.257812 C 20.726562 29.242188 21.351562 29.242188 21.976562 29.230469 C 22.0625 29.226562 22.144531 29.195312 22.238281 29.175781 C 22.332031 27.714844 22.421875 26.28125 22.511719 24.871094 C 22.363281 24.707031 22.242188 24.574219 22.132812 24.453125 C 21.867188 24.417969 21.804688 24.675781 21.597656 24.761719 C 21.519531 24.691406 21.445312 24.601562 21.347656 24.53125 C 21.28125 24.484375 21.195312 24.464844 21.121094 24.433594 C 21.007812 24.570312 20.910156 24.683594 20.8125 24.796875 Z M 17.507812 30.207031 C 18.4375 30.203125 19.347656 30.21875 20.253906 30.183594 C 21.164062 30.152344 22.074219 30.183594 22.988281 30.074219 C 23.035156 29.84375 22.988281 29.664062 22.929688 29.460938 C 22.699219 29.480469 22.492188 29.503906 22.28125 29.507812 C 21.476562 29.523438 20.667969 29.535156 19.859375 29.539062 C 19.148438 29.542969 18.4375 29.5625 17.722656 29.5625 C 17.636719 29.5625 17.554688 29.597656 17.464844 29.617188 C 17.457031 29.695312 17.4375 29.757812 17.445312 29.816406 C 17.460938 29.949219 17.488281 30.078125 17.507812 30.207031 Z M 12.835938 30.078125 C 12.859375 29.738281 12.835938 29.699219 12.589844 29.695312 C 12.363281 29.695312 12.132812 29.710938 11.90625 29.714844 C 11.402344 29.71875 10.898438 29.714844 10.398438 29.722656 C 10.09375 29.730469 9.789062 29.773438 9.484375 29.761719 C 9.105469 29.746094 8.726562 29.730469 8.34375 29.777344 C 8.136719 29.804688 7.917969 29.785156 7.707031 29.792969 C 7.414062 29.800781 7.128906 29.8125 6.839844 29.832031 C 6.785156 29.835938 6.714844 29.875 6.6875 29.917969 C 6.601562 30.042969 6.621094 30.175781 6.691406 30.304688 C 6.746094 30.390625 6.832031 30.410156 6.929688 30.40625 C 7.386719 30.390625 7.84375 30.375 8.296875 30.359375 C 8.632812 30.347656 8.96875 30.34375 9.304688 30.324219 C 9.59375 30.308594 9.878906 30.265625 10.167969 30.253906 C 11.050781 30.21875 11.933594 30.207031 12.835938 30.078125 Z M 12.4375 24.519531 C 12.429688 24.367188 12.429688 24.261719 12.414062 24.15625 C 12.394531 23.996094 12.308594 23.914062 12.152344 23.894531 C 12.105469 23.886719 12.0625 23.890625 12.015625 23.890625 C 11.511719 23.890625 11.007812 23.875 10.503906 23.898438 C 9.515625 23.941406 8.523438 24.007812 7.535156 24.0625 C 7.460938 24.070312 7.386719 24.085938 7.289062 24.097656 C 7.257812 24.210938 7.222656 24.324219 7.175781 24.484375 C 7.59375 24.3125 7.929688 24.414062 8.261719 24.625 C 8.601562 24.339844 8.929688 24.421875 9.226562 24.6875 C 9.726562 24.347656 9.871094 24.34375 10.351562 24.65625 C 10.617188 24.542969 10.871094 24.554688 11.121094 24.6875 C 11.167969 24.640625 11.226562 24.589844 11.277344 24.539062 C 11.40625 24.402344 11.5625 24.371094 11.738281 24.417969 C 11.8125 24.4375 11.886719 24.457031 11.953125 24.488281 C 12.101562 24.5625 12.246094 24.542969 12.4375 24.519531 Z M 22.496094 23.605469 C 22.226562 23.613281 21.957031 23.589844 21.683594 23.605469 C 21.363281 23.621094 21.042969 23.632812 20.722656 23.644531 C 20.40625 23.660156 20.089844 23.671875 19.773438 23.683594 C 19.363281 23.695312 18.949219 23.707031 18.539062 23.71875 C 18.382812 23.722656 18.230469 23.71875 18.121094 23.863281 L 18.121094 24.296875 C 18.304688 24.261719 18.429688 24.078125 18.609375 24.15625 C 18.757812 24.222656 18.886719 24.328125 19.042969 24.429688 C 19.332031 24.171875 19.65625 24.046875 20.003906 24.359375 C 20.253906 24.203125 20.5 24.160156 20.734375 24.375 C 21.019531 24.109375 21.308594 24.089844 21.617188 24.367188 C 21.878906 24.089844 22.175781 24.101562 22.492188 24.300781 C 22.515625 24.058594 22.570312 23.855469 22.496094 23.601562 Z M 22.496094 23.605469 " fill-opacity="1" fill-rule="nonzero"/><path fill="#000000" d="M 16.347656 29.3125 C 16.257812 29.328125 16.199219 29.34375 16.140625 29.347656 C 15.578125 29.371094 15.015625 29.40625 14.453125 29.414062 C 14.191406 29.417969 14.191406 29.390625 13.902344 29.191406 C 13.898438 29.097656 13.882812 28.992188 13.886719 28.890625 C 13.902344 28.300781 13.9375 27.707031 13.941406 27.117188 C 13.945312 26.589844 13.917969 26.058594 13.90625 25.527344 C 13.898438 25.121094 13.890625 24.710938 13.894531 24.300781 C 13.898438 24.167969 13.929688 24.03125 13.964844 23.902344 C 14.019531 23.714844 14.132812 23.628906 14.335938 23.625 C 14.625 23.625 14.917969 23.617188 15.203125 23.648438 C 15.417969 23.671875 15.625 23.671875 15.839844 23.636719 C 15.929688 23.621094 16.023438 23.617188 16.113281 23.625 C 16.234375 23.632812 16.339844 23.734375 16.351562 23.859375 C 16.363281 24.011719 16.367188 24.164062 16.367188 24.316406 C 16.367188 25.285156 16.359375 26.253906 16.359375 27.222656 C 16.359375 27.832031 16.367188 28.433594 16.367188 29.042969 C 16.367188 29.117188 16.355469 29.191406 16.347656 29.308594 Z M 16.070312 28.9375 C 16.078125 28.597656 16.089844 28.265625 16.09375 27.933594 C 16.09375 27.601562 16.085938 27.269531 16.082031 26.933594 C 16.074219 26.601562 16.070312 26.269531 16.070312 25.933594 C 16.070312 25.601562 16.085938 25.269531 16.078125 24.9375 C 16.074219 24.609375 16.148438 24.277344 16.058594 23.953125 C 15.992188 23.941406 15.945312 23.917969 15.902344 23.925781 C 15.539062 23.972656 15.175781 23.964844 14.8125 23.898438 C 14.707031 23.882812 14.597656 23.890625 14.492188 23.890625 C 14.285156 23.894531 14.203125 23.949219 14.191406 24.152344 C 14.171875 24.453125 14.171875 24.757812 14.179688 25.058594 C 14.1875 25.421875 14.226562 25.78125 14.226562 26.144531 C 14.21875 26.808594 14.191406 27.472656 14.175781 28.136719 C 14.171875 28.394531 14.167969 28.652344 14.171875 28.910156 C 14.175781 29.09375 14.246094 29.140625 14.4375 29.125 C 14.953125 29.078125 15.46875 29.03125 15.984375 28.984375 C 15.996094 28.980469 16.007812 28.96875 16.070312 28.9375 Z M 16.070312 28.9375 " fill-opacity="1" fill-rule="nonzero"/><path fill="#000000" d="M 31.5 24.664062 C 31.730469 24.515625 31.929688 24.386719 32.121094 24.265625 C 32.3125 24.292969 32.351562 24.433594 32.363281 24.566406 C 32.402344 25 32.425781 25.433594 32.441406 25.871094 C 32.445312 26.0625 32.304688 26.179688 32.121094 26.15625 C 32.074219 26.152344 32.027344 26.144531 31.984375 26.132812 C 31.507812 25.996094 31.515625 26.113281 31.503906 25.550781 C 31.503906 25.503906 31.5 25.460938 31.5 25.414062 C 31.5 25.175781 31.5 24.933594 31.5 24.664062 Z M 32.140625 25.792969 C 32.132812 25.597656 32.125 25.417969 32.113281 25.242188 C 32.105469 25.070312 32.089844 24.894531 32.074219 24.722656 C 31.910156 24.683594 31.8125 24.761719 31.804688 24.894531 C 31.792969 25.148438 31.800781 25.402344 31.820312 25.652344 C 31.832031 25.804688 31.941406 25.847656 32.140625 25.792969 Z M 32.140625 25.792969 " fill-opacity="1" fill-rule="nonzero"/><path fill="#000000" d="M 33.007812 17.289062 C 33.171875 17.402344 33.328125 17.496094 33.46875 17.609375 C 33.613281 17.726562 33.632812 17.851562 33.558594 18.011719 C 33.484375 18.167969 33.378906 18.296875 33.183594 18.28125 C 32.921875 18.261719 32.660156 18.226562 32.558594 17.925781 C 32.539062 17.871094 32.511719 17.808594 32.515625 17.753906 C 32.5625 17.3125 32.730469 16.9375 33.152344 16.726562 C 33.167969 16.71875 33.183594 16.714844 33.195312 16.710938 C 33.277344 16.683594 33.351562 16.699219 33.394531 16.773438 C 33.433594 16.84375 33.425781 16.921875 33.347656 16.96875 C 33.214844 17.042969 33.082031 17.113281 33.007812 17.289062 Z M 33.121094 17.960938 C 33.148438 17.953125 33.195312 17.945312 33.195312 17.929688 C 33.207031 17.894531 33.199219 17.851562 33.1875 17.816406 C 33.179688 17.789062 33.152344 17.765625 33.128906 17.75 C 33.070312 17.699219 33.003906 17.664062 32.929688 17.722656 C 32.910156 17.738281 32.894531 17.773438 32.894531 17.796875 C 32.894531 17.886719 32.960938 17.921875 33.03125 17.949219 C 33.058594 17.960938 33.089844 17.957031 33.121094 17.960938 Z M 33.121094 17.960938 " fill-opacity="1" fill-rule="nonzero"/><path fill="#000000" d="M 34.527344 21.855469 C 33.582031 21.890625 32.640625 21.925781 31.695312 21.960938 C 31.632812 21.964844 31.574219 21.96875 31.511719 21.96875 C 31.234375 21.96875 31.140625 21.882812 31.113281 21.589844 C 31.078125 21.214844 31.054688 20.835938 31.027344 20.460938 C 31.019531 20.320312 31.085938 20.222656 31.222656 20.195312 C 31.355469 20.171875 31.496094 20.167969 31.632812 20.160156 C 32.179688 20.136719 32.726562 20.105469 33.277344 20.09375 C 33.472656 20.089844 33.667969 20.132812 33.867188 20.136719 C 34.414062 20.148438 34.964844 20.148438 35.511719 20.15625 C 35.695312 20.15625 35.878906 20.15625 36.058594 20.171875 C 36.175781 20.179688 36.246094 20.265625 36.257812 20.382812 C 36.265625 20.445312 36.257812 20.503906 36.257812 20.566406 C 36.261719 20.898438 36.265625 21.230469 36.269531 21.5625 C 36.273438 21.796875 36.214844 21.871094 35.988281 21.875 C 35.714844 21.882812 35.441406 21.871094 35.164062 21.871094 C 34.953125 21.871094 34.738281 21.871094 34.523438 21.871094 C 34.523438 21.867188 34.523438 21.859375 34.523438 21.855469 Z M 31.417969 21.652344 C 32.035156 21.683594 32.597656 21.722656 33.152344 21.625 C 33.214844 21.613281 33.277344 21.617188 33.335938 21.617188 C 34.113281 21.609375 34.890625 21.605469 35.667969 21.59375 C 35.742188 21.59375 35.8125 21.570312 35.929688 21.546875 C 35.910156 21.199219 36 20.863281 35.941406 20.488281 C 35.8125 20.476562 35.695312 20.449219 35.578125 20.457031 C 35.03125 20.492188 34.484375 20.453125 33.9375 20.421875 C 33.695312 20.410156 33.453125 20.371094 33.210938 20.375 C 32.695312 20.382812 32.175781 20.410156 31.660156 20.4375 C 31.558594 20.441406 31.460938 20.46875 31.34375 20.488281 C 31.371094 20.890625 31.394531 21.261719 31.421875 21.65625 Z M 31.417969 21.652344 " fill-opacity="1" fill-rule="nonzero"/><path fill="#000000" d="M 19.308594 17.507812 C 19.203125 17.53125 19.101562 17.550781 18.996094 17.574219 C 18.96875 17.621094 18.941406 17.65625 18.925781 17.695312 C 18.800781 18.078125 18.589844 18.207031 18.183594 18.105469 C 18.070312 18.078125 18.011719 18.132812 17.933594 18.167969 C 17.691406 18.261719 17.546875 18.191406 17.511719 17.945312 C 17.492188 17.8125 17.503906 17.671875 17.496094 17.539062 C 17.492188 17.4375 17.476562 17.335938 17.460938 17.15625 C 17.300781 17.40625 17.183594 17.589844 17.054688 17.792969 C 16.929688 17.722656 16.832031 17.664062 16.722656 17.601562 C 16.695312 17.640625 16.648438 17.679688 16.652344 17.710938 C 16.667969 17.871094 16.695312 18.027344 16.722656 18.199219 C 16.558594 18.296875 16.386719 18.289062 16.226562 18.292969 C 16.105469 18.296875 15.988281 18.160156 16.023438 18.046875 C 16.082031 17.859375 16.046875 17.6875 16.019531 17.507812 C 16.003906 17.417969 16.011719 17.324219 16.023438 17.234375 C 16.039062 17.09375 16.171875 17.042969 16.292969 17.128906 C 16.359375 17.175781 16.417969 17.234375 16.523438 17.246094 C 16.386719 17.074219 16.25 16.902344 16.132812 16.757812 L 16.132812 16.109375 C 16.234375 16.03125 16.320312 16.058594 16.382812 16.132812 C 16.511719 16.285156 16.625 16.445312 16.746094 16.601562 C 16.835938 16.71875 16.925781 16.839844 17.046875 17 C 17.140625 16.804688 17.226562 16.664062 17.28125 16.515625 C 17.386719 16.234375 17.617188 16.097656 17.867188 15.972656 C 17.941406 15.9375 18.070312 16.042969 18.050781 16.121094 C 17.917969 16.628906 18.03125 17.144531 18.015625 17.652344 C 18.015625 17.726562 18.074219 17.800781 18.132812 17.957031 C 18.347656 17.316406 18.386719 16.722656 18.585938 16.175781 C 18.738281 16.109375 18.871094 16.039062 19.03125 16.082031 C 19.183594 16.328125 19.339844 16.566406 19.480469 16.8125 C 19.582031 16.988281 19.511719 17.164062 19.460938 17.339844 C 19.410156 17.398438 19.359375 17.453125 19.308594 17.511719 Z M 18.863281 16.804688 C 18.859375 16.855469 18.851562 16.894531 18.855469 16.933594 C 18.855469 16.941406 18.878906 16.949219 18.890625 16.957031 C 18.902344 16.921875 18.917969 16.886719 18.921875 16.855469 C 18.925781 16.84375 18.890625 16.828125 18.863281 16.808594 Z M 18.863281 16.804688 " fill-opacity="1" fill-rule="nonzero"/><path fill="#000000" d="M 15.136719 16.082031 C 15.335938 16.226562 15.34375 16.382812 15.386719 16.527344 C 15.410156 16.617188 15.316406 16.714844 15.222656 16.6875 C 14.984375 16.613281 14.773438 16.664062 14.574219 16.773438 C 14.570312 16.871094 14.625 16.886719 14.691406 16.886719 C 14.796875 16.886719 14.902344 16.882812 15.011719 16.886719 C 15.425781 16.898438 15.804688 17.222656 15.878906 17.621094 C 15.921875 17.851562 15.851562 18.03125 15.648438 18.167969 C 15.394531 18.34375 15.109375 18.371094 14.820312 18.355469 C 14.609375 18.339844 14.398438 18.289062 14.191406 18.246094 C 14.074219 18.222656 14.015625 18.136719 13.984375 18.027344 C 13.929688 17.855469 14.019531 17.726562 14.203125 17.71875 C 14.398438 17.710938 14.597656 17.714844 14.789062 17.714844 C 14.816406 17.597656 14.746094 17.609375 14.691406 17.597656 C 14.40625 17.558594 14.117188 17.535156 13.855469 17.394531 C 13.46875 17.183594 13.402344 16.703125 13.730469 16.40625 C 13.992188 16.171875 14.316406 16.101562 14.65625 16.082031 C 14.824219 16.074219 14.992188 16.082031 15.136719 16.082031 Z M 15.136719 16.082031 " fill-opacity="1" fill-rule="nonzero"/><path fill="#000000" d="M 25.351562 19.101562 C 25.359375 18.984375 25.378906 18.839844 25.386719 18.6875 C 25.421875 18.191406 25.394531 17.691406 25.503906 17.199219 C 25.519531 17.128906 25.515625 17.050781 25.511719 16.976562 C 25.507812 16.707031 25.445312 16.628906 25.175781 16.582031 C 25.039062 16.558594 24.902344 16.539062 24.769531 16.53125 C 24.695312 16.527344 24.617188 16.539062 24.546875 16.5625 C 24.480469 16.585938 24.421875 16.632812 24.359375 16.671875 C 24.15625 16.5 24.144531 16.296875 24.117188 16.0625 C 24.199219 16.039062 24.265625 16.015625 24.335938 16.011719 C 24.761719 15.980469 25.183594 15.96875 25.609375 16.042969 C 25.898438 16.09375 26.035156 16.253906 26.078125 16.519531 C 26.097656 16.621094 26.09375 16.726562 26.085938 16.832031 C 26.035156 17.496094 25.976562 18.160156 25.925781 18.820312 C 25.910156 19.003906 25.925781 19.183594 25.914062 19.367188 C 25.898438 19.640625 25.816406 19.707031 25.550781 19.71875 C 25.277344 19.730469 25.003906 19.757812 24.730469 19.773438 C 24.625 19.78125 24.519531 19.792969 24.414062 19.78125 C 24.316406 19.769531 24.25 19.703125 24.238281 19.597656 C 24.234375 19.539062 24.230469 19.476562 24.234375 19.417969 C 24.246094 19.289062 24.351562 19.1875 24.476562 19.191406 C 24.582031 19.195312 24.6875 19.230469 24.792969 19.230469 C 24.972656 19.234375 25.160156 19.265625 25.351562 19.101562 Z M 25.351562 19.101562 " fill-opacity="1" fill-rule="nonzero"/><path fill="#000000" d="M 19.308594 17.507812 L 19.460938 17.339844 C 19.535156 17.34375 19.609375 17.347656 19.707031 17.351562 C 19.78125 17.445312 19.855469 17.554688 19.953125 17.679688 C 20.070312 17.507812 19.875 17.375 19.964844 17.214844 C 20.082031 17.160156 20.226562 17.09375 20.371094 17.03125 C 20.421875 16.832031 20.65625 16.886719 20.757812 16.753906 C 20.753906 16.65625 20.675781 16.675781 20.625 16.679688 C 20.472656 16.683594 20.320312 16.703125 20.167969 16.707031 C 20.078125 16.707031 19.992188 16.691406 19.886719 16.683594 C 19.824219 16.425781 19.800781 16.199219 19.972656 15.96875 C 20.441406 16.046875 20.921875 16.03125 21.367188 16.285156 C 21.449219 16.5625 21.597656 16.859375 21.40625 17.175781 C 21.382812 17.214844 21.414062 17.296875 21.441406 17.347656 C 21.554688 17.539062 21.679688 17.726562 21.820312 17.949219 C 21.78125 17.984375 21.738281 18.046875 21.679688 18.070312 C 21.582031 18.105469 21.472656 18.125 21.371094 18.140625 C 21.167969 18.171875 21.109375 18.140625 21.027344 17.933594 C 20.9375 17.691406 20.789062 17.488281 20.597656 17.25 C 20.558594 17.347656 20.5 17.421875 20.515625 17.464844 C 20.585938 17.660156 20.582031 17.851562 20.558594 18.042969 C 20.296875 18.191406 20.0625 18.160156 19.863281 17.945312 C 19.746094 18 19.625 18.058594 19.480469 18.128906 C 19.265625 17.96875 19.199219 17.765625 19.308594 17.507812 Z M 19.308594 17.507812 " fill-opacity="1" fill-rule="nonzero"/><path fill="#000000" d="M 13.175781 20.074219 C 13.164062 19.878906 13.152344 19.730469 13.144531 19.59375 C 13.035156 19.492188 12.9375 19.550781 12.804688 19.585938 C 12.777344 19.757812 12.75 19.945312 12.722656 20.125 C 12.679688 20.140625 12.652344 20.160156 12.625 20.15625 C 12.050781 20.132812 12.105469 19.96875 12.132812 19.609375 C 12.140625 19.476562 12.109375 19.332031 12.226562 19.222656 C 12.242188 19.210938 12.230469 19.171875 12.230469 19.144531 C 12.222656 19.011719 12.222656 18.875 12.203125 18.742188 C 12.152344 18.355469 12.15625 18.257812 12.667969 18.171875 C 12.699219 18.242188 12.753906 18.320312 12.761719 18.398438 C 12.773438 18.578125 12.765625 18.753906 12.765625 18.964844 C 12.886719 18.976562 13 18.984375 13.132812 18.992188 C 13.144531 18.890625 13.152344 18.816406 13.15625 18.742188 C 13.167969 18.511719 13.167969 18.511719 13.351562 18.339844 C 13.191406 18.214844 13.132812 18.011719 13.171875 17.730469 C 13.464844 17.566406 13.539062 17.574219 13.871094 17.8125 C 13.882812 17.980469 13.9375 18.15625 13.769531 18.304688 C 13.746094 18.320312 13.746094 18.394531 13.765625 18.421875 C 13.863281 18.5625 13.816406 18.707031 13.804688 18.855469 C 13.777344 19.261719 13.773438 19.667969 13.757812 20.105469 C 13.570312 20.09375 13.398438 20.085938 13.179688 20.074219 Z M 13.175781 20.074219 " fill-opacity="1" fill-rule="nonzero"/><path fill="#000000" d="M 7.082031 17.398438 C 7.289062 17.242188 7.441406 17.253906 7.617188 17.382812 C 7.710938 17.71875 7.640625 18.078125 7.636719 18.4375 C 7.636719 18.78125 7.59375 19.125 7.574219 19.449219 C 7.6875 19.574219 7.800781 19.578125 7.925781 19.558594 C 8.351562 19.492188 8.777344 19.511719 9.203125 19.542969 C 9.40625 19.558594 9.507812 19.699219 9.453125 19.886719 C 9.433594 19.949219 9.371094 20.027344 9.316406 20.042969 C 9.140625 20.09375 8.957031 20.140625 8.777344 20.140625 C 8.355469 20.136719 7.929688 20.101562 7.503906 20.082031 C 7.128906 20.070312 6.929688 19.859375 6.949219 19.460938 C 6.96875 19.117188 6.988281 18.769531 7.011719 18.425781 C 7.027344 18.246094 7.066406 18.066406 7.082031 17.886719 C 7.09375 17.722656 7.082031 17.558594 7.082031 17.398438 Z M 7.082031 17.398438 " fill-opacity="1" fill-rule="nonzero"/><path fill="#000000" d="M 19.40625 19.085938 C 19.449219 19.195312 19.488281 19.277344 19.515625 19.363281 C 19.53125 19.417969 19.550781 19.507812 19.523438 19.53125 C 19.386719 19.65625 19.46875 19.773438 19.507812 19.902344 C 19.5625 20.085938 19.484375 20.191406 19.320312 20.132812 C 19.136719 20.074219 18.96875 20.078125 18.785156 20.113281 C 18.605469 20.152344 18.421875 20.144531 18.265625 20.15625 C 18.035156 20.019531 17.957031 19.847656 17.972656 19.613281 C 17.988281 19.371094 17.96875 19.128906 17.96875 18.886719 C 17.96875 18.785156 17.992188 18.679688 18 18.59375 C 18.113281 18.46875 18.242188 18.433594 18.382812 18.4375 C 18.734375 18.4375 19.082031 18.4375 19.449219 18.4375 C 19.542969 18.652344 19.695312 18.863281 19.410156 19.085938 Z M 18.832031 19.636719 C 18.832031 19.648438 18.835938 19.664062 18.835938 19.679688 L 18.992188 19.667969 C 18.992188 19.65625 18.992188 19.648438 18.992188 19.636719 Z M 18.832031 19.636719 " fill-opacity="1" fill-rule="nonzero"/><path fill="#000000" d="M 16.453125 19.511719 C 16.457031 19.664062 16.460938 19.8125 16.460938 19.964844 C 16.457031 20.050781 16.351562 20.140625 16.269531 20.113281 C 16.113281 20.0625 15.929688 20.082031 15.808594 19.941406 C 15.796875 19.914062 15.785156 19.886719 15.777344 19.859375 C 15.730469 19.667969 15.867188 19.496094 15.832031 19.296875 C 15.800781 19.105469 15.800781 18.910156 15.8125 18.714844 C 15.828125 18.441406 16.070312 18.332031 16.289062 18.492188 C 16.46875 18.628906 16.644531 18.769531 16.835938 18.917969 C 16.925781 18.828125 17.003906 18.757812 17.070312 18.683594 C 17.144531 18.605469 17.203125 18.519531 17.28125 18.445312 C 17.410156 18.320312 17.550781 18.316406 17.675781 18.449219 C 17.664062 18.945312 17.652344 19.441406 17.636719 19.9375 C 17.3125 20.105469 17.1875 20.085938 16.996094 19.84375 C 16.980469 19.820312 16.960938 19.773438 16.949219 19.777344 C 16.707031 19.832031 16.632812 19.566406 16.445312 19.519531 C 16.425781 19.472656 16.410156 19.417969 16.382812 19.375 C 16.371094 19.359375 16.332031 19.363281 16.304688 19.359375 C 16.300781 19.398438 16.285156 19.457031 16.300781 19.46875 C 16.34375 19.492188 16.402344 19.5 16.453125 19.511719 Z M 16.453125 19.511719 " fill-opacity="1" fill-rule="nonzero"/><path fill="#000000" d="M 8.457031 16.773438 C 8.453125 16.714844 8.445312 16.660156 8.433594 16.578125 C 8.941406 16.34375 9.296875 16.636719 9.675781 16.941406 C 9.972656 16.75 10.300781 16.59375 10.589844 16.375 C 10.726562 16.269531 10.875 16.214844 11.054688 16.230469 C 11.25 16.242188 11.449219 16.242188 11.648438 16.25 C 11.996094 16.261719 12.339844 16.34375 12.695312 16.292969 C 12.804688 16.277344 12.921875 16.332031 13.023438 16.355469 C 13.078125 16.472656 13.082031 16.570312 12.960938 16.589844 C 12.828125 16.613281 12.691406 16.609375 12.554688 16.609375 C 12.128906 16.613281 11.699219 16.609375 11.242188 16.609375 C 10.84375 16.960938 10.425781 17.332031 9.988281 17.714844 C 9.875 17.628906 9.78125 17.554688 9.6875 17.484375 C 9.390625 17.277344 9.09375 17.0625 8.789062 16.867188 C 8.6875 16.804688 8.558594 16.792969 8.445312 16.757812 Z M 8.457031 16.773438 " fill-opacity="1" fill-rule="nonzero"/><path fill="#000000" d="M 23.789062 16.578125 C 23.605469 16.59375 23.472656 16.605469 23.335938 16.617188 C 23.21875 16.628906 23.097656 16.636719 22.960938 16.652344 C 22.949219 16.847656 22.949219 17.027344 22.929688 17.199219 C 22.910156 17.382812 22.890625 17.554688 22.941406 17.738281 C 22.996094 17.941406 22.945312 18 22.746094 18.078125 C 22.703125 18.09375 22.660156 18.117188 22.617188 18.128906 C 22.4375 18.179688 22.3125 18.089844 22.3125 17.902344 C 22.3125 17.660156 22.328125 17.417969 22.335938 17.175781 C 22.339844 17.011719 22.335938 16.84375 22.335938 16.691406 C 22.128906 16.753906 21.949219 16.8125 21.769531 16.859375 C 21.683594 16.882812 21.589844 16.789062 21.585938 16.699219 C 21.582031 16.667969 21.585938 16.636719 21.589844 16.609375 C 21.605469 16.472656 21.621094 16.339844 21.640625 16.203125 C 21.785156 16.105469 21.941406 16.113281 22.085938 16.15625 C 22.160156 16.179688 22.21875 16.265625 22.320312 16.351562 C 22.371094 16.289062 22.429688 16.203125 22.503906 16.132812 C 22.546875 16.089844 22.605469 16.054688 22.664062 16.050781 C 22.980469 16.023438 23.296875 16.007812 23.632812 15.988281 C 23.78125 16.128906 23.765625 16.328125 23.789062 16.578125 Z M 23.789062 16.578125 " fill-opacity="1" fill-rule="nonzero"/><path fill="#000000" d="M 14.085938 19.230469 C 14.097656 19.179688 14.121094 19.027344 14.179688 18.890625 C 14.316406 18.578125 14.585938 18.453125 14.925781 18.527344 C 15 18.546875 15.070312 18.570312 15.144531 18.59375 C 15.628906 18.753906 15.839844 19.375 15.53125 19.78125 C 15.398438 19.953125 15.191406 20.039062 14.976562 20.066406 C 14.722656 20.09375 14.492188 20.015625 14.292969 19.859375 C 14.121094 19.722656 14.078125 19.535156 14.085938 19.230469 Z M 14.90625 19.5 C 14.933594 19.496094 14.984375 19.5 15.019531 19.476562 C 15.078125 19.433594 15.148438 19.386719 15.167969 19.328125 C 15.203125 19.238281 15.167969 19.136719 15.074219 19.097656 C 14.953125 19.046875 14.820312 19.003906 14.6875 18.992188 C 14.636719 18.988281 14.539062 19.070312 14.53125 19.121094 C 14.503906 19.320312 14.691406 19.507812 14.90625 19.5 Z M 14.90625 19.5 " fill-opacity="1" fill-rule="nonzero"/><path fill="#000000" d="M 8.445312 16.757812 C 8.574219 17.003906 8.578125 17.277344 8.617188 17.542969 C 8.625 17.578125 8.589844 17.644531 8.558594 17.652344 C 8.507812 17.664062 8.425781 17.667969 8.394531 17.636719 C 8.207031 17.457031 8.011719 17.296875 7.773438 17.191406 C 7.722656 17.171875 7.675781 17.113281 7.652344 17.058594 C 7.546875 16.804688 7.378906 16.597656 7.171875 16.414062 C 7.09375 16.34375 7.085938 16.257812 7.203125 16.160156 C 7.464844 16.304688 7.734375 16.457031 8.007812 16.605469 C 8.152344 16.683594 8.285156 16.789062 8.460938 16.773438 C 8.460938 16.773438 8.445312 16.757812 8.445312 16.757812 Z M 8.445312 16.757812 " fill-opacity="1" fill-rule="nonzero"/><path fill="#000000" d="M 21.253906 19.808594 C 21.214844 19.898438 21.1875 19.964844 21.160156 20.039062 C 21.011719 20.046875 20.875 20.050781 20.738281 20.0625 C 20.601562 20.074219 20.503906 20.007812 20.441406 19.894531 C 20.367188 19.769531 20.371094 19.636719 20.460938 19.515625 C 20.484375 19.476562 20.515625 19.445312 20.550781 19.414062 C 20.671875 19.300781 20.78125 19.308594 20.894531 19.445312 C 20.933594 19.488281 20.960938 19.539062 20.992188 19.589844 C 21.074219 19.5 21.074219 19.332031 21.230469 19.332031 C 21.394531 19.328125 21.480469 19.46875 21.496094 19.589844 C 21.515625 19.730469 21.644531 19.777344 21.675781 19.894531 C 21.679688 19.917969 21.667969 19.953125 21.648438 19.976562 C 21.632812 19.996094 21.589844 20.015625 21.574219 20.007812 C 21.472656 19.949219 21.371094 19.882812 21.25 19.804688 Z M 21.253906 19.808594 " fill-opacity="1" fill-rule="nonzero"/><path fill="#000000" d="M 23.351562 19.90625 C 23.292969 19.9375 23.253906 19.972656 23.214844 19.972656 C 23.003906 19.972656 22.792969 19.964844 22.585938 19.949219 C 22.417969 19.941406 22.324219 19.832031 22.339844 19.691406 C 22.359375 19.515625 22.523438 19.371094 22.679688 19.417969 C 22.773438 19.445312 22.855469 19.523438 22.976562 19.597656 C 22.960938 19.398438 22.945312 19.222656 22.945312 19.046875 C 22.945312 19 22.996094 18.945312 23.039062 18.914062 C 23.089844 18.878906 23.183594 18.953125 23.199219 19.03125 C 23.207031 19.0625 23.210938 19.089844 23.214844 19.121094 C 23.21875 19.148438 23.214844 19.179688 23.21875 19.210938 C 23.226562 19.332031 23.222656 19.453125 23.246094 19.570312 C 23.269531 19.683594 23.3125 19.789062 23.351562 19.90625 Z M 23.351562 19.90625 " fill-opacity="1" fill-rule="nonzero"/><path fill="#000000" d="M 21.570312 19.539062 C 21.621094 19.472656 21.683594 19.40625 21.726562 19.332031 C 21.757812 19.277344 21.773438 19.207031 21.8125 19.09375 C 21.90625 19.199219 21.957031 19.269531 22.023438 19.324219 C 22.085938 19.382812 22.164062 19.425781 22.222656 19.46875 C 22.257812 19.601562 22.152344 19.601562 22.101562 19.648438 C 22.160156 19.726562 22.289062 19.785156 22.183594 19.910156 C 22.101562 20.003906 21.957031 19.996094 21.863281 19.894531 C 21.765625 19.78125 21.675781 19.664062 21.570312 19.539062 Z M 21.570312 19.539062 " fill-opacity="1" fill-rule="nonzero"/><path fill="#000000" d="M 23.859375 19.277344 C 23.691406 19.425781 23.804688 19.566406 23.816406 19.703125 C 23.828125 19.820312 23.714844 19.929688 23.589844 19.945312 C 23.476562 19.960938 23.367188 19.84375 23.433594 19.757812 C 23.503906 19.660156 23.449219 19.605469 23.433594 19.519531 C 23.398438 19.355469 23.480469 19.222656 23.648438 19.183594 C 23.703125 19.171875 23.773438 19.234375 23.859375 19.273438 Z M 23.859375 19.277344 " fill-opacity="1" fill-rule="nonzero"/><path fill="#000000" d="M 20.199219 19.316406 C 20.226562 19.339844 20.277344 19.359375 20.289062 19.390625 C 20.300781 19.425781 20.292969 19.496094 20.269531 19.511719 C 20.113281 19.597656 20.113281 19.746094 20.09375 19.894531 C 20.082031 19.972656 20.011719 20.03125 19.929688 19.992188 C 19.871094 19.964844 19.789062 19.894531 19.792969 19.84375 C 19.800781 19.714844 19.832031 19.582031 19.882812 19.460938 C 19.933594 19.335938 20.066406 19.324219 20.195312 19.316406 Z M 20.199219 19.316406 " fill-opacity="1" fill-rule="nonzero"/><path fill="#000000" d="M 7.917969 27.671875 C 8.253906 27.410156 8.628906 27.46875 8.984375 27.480469 C 9.050781 27.484375 9.132812 27.582031 9.171875 27.65625 C 9.207031 27.714844 9.203125 27.804688 9.199219 27.875 C 9.179688 28.25 9.152344 28.625 9.128906 29.027344 C 8.925781 29.023438 8.738281 29.011719 8.550781 29.058594 C 8.367188 29.105469 8.160156 29.070312 7.9375 29.070312 C 7.910156 28.988281 7.851562 28.910156 7.855469 28.828125 C 7.867188 28.4375 7.898438 28.050781 7.921875 27.671875 Z M 8.898438 27.734375 C 8.71875 27.734375 8.550781 27.71875 8.394531 27.742188 C 8.316406 27.75 8.203125 27.828125 8.191406 27.890625 C 8.140625 28.179688 8.058594 28.472656 8.179688 28.761719 C 8.449219 28.8125 8.6875 28.78125 8.890625 28.667969 C 8.910156 28.371094 8.996094 28.066406 8.898438 27.734375 Z M 8.898438 27.734375 " fill-opacity="1" fill-rule="nonzero"/><path fill="#000000" d="M 11.726562 28.957031 C 11.441406 29.011719 11.140625 28.976562 10.84375 28.957031 C 10.726562 28.949219 10.65625 28.824219 10.664062 28.683594 C 10.675781 28.515625 10.699219 28.351562 10.710938 28.1875 C 10.722656 27.964844 10.730469 27.738281 10.746094 27.511719 C 10.757812 27.367188 10.824219 27.292969 10.972656 27.28125 C 11.125 27.273438 11.277344 27.269531 11.429688 27.277344 C 11.558594 27.285156 11.652344 27.375 11.667969 27.507812 C 11.6875 27.671875 11.691406 27.835938 11.695312 28.003906 C 11.695312 28.285156 11.660156 28.574219 11.761719 28.847656 C 11.769531 28.871094 11.746094 28.902344 11.726562 28.957031 Z M 11.40625 28.699219 C 11.40625 28.304688 11.515625 27.9375 11.355469 27.566406 C 11.285156 27.558594 11.226562 27.542969 11.167969 27.546875 C 11.128906 27.546875 11.085938 27.570312 11.03125 27.589844 C 10.992188 27.957031 10.914062 28.320312 11.003906 28.699219 Z M 11.40625 28.699219 " fill-opacity="1" fill-rule="nonzero"/><path fill="#000000" d="M 9.410156 25.320312 C 9.71875 25.257812 10 25.203125 10.28125 25.152344 C 10.375 25.132812 10.457031 25.203125 10.464844 25.308594 C 10.472656 25.445312 10.480469 25.582031 10.472656 25.714844 C 10.453125 25.953125 10.414062 26.191406 10.472656 26.433594 C 10.503906 26.582031 10.421875 26.675781 10.28125 26.683594 C 10.082031 26.691406 9.882812 26.699219 9.6875 26.683594 C 9.4375 26.664062 9.335938 26.53125 9.347656 26.292969 C 9.367188 25.976562 9.386719 25.664062 9.410156 25.320312 Z M 9.671875 25.542969 C 9.683594 25.839844 9.546875 26.132812 9.699219 26.414062 L 10.140625 26.414062 C 10.214844 26.089844 10.25 25.777344 10.152344 25.441406 C 9.976562 25.476562 9.832031 25.507812 9.671875 25.542969 Z M 9.671875 25.542969 " fill-opacity="1" fill-rule="nonzero"/><path fill="#000000" d="M 8.027344 26.699219 C 7.996094 26.632812 7.960938 26.589844 7.960938 26.550781 C 7.957031 26.191406 7.957031 25.828125 7.964844 25.46875 C 7.96875 25.371094 8.03125 25.296875 8.128906 25.269531 C 8.363281 25.207031 8.59375 25.148438 8.832031 25.09375 C 8.914062 25.074219 8.988281 25.128906 9.003906 25.203125 C 9.035156 25.320312 9.042969 25.441406 9.050781 25.5625 C 9.066406 25.800781 9.070312 26.042969 9.085938 26.28125 C 9.105469 26.574219 9.003906 26.691406 8.695312 26.699219 C 8.484375 26.707031 8.269531 26.703125 8.027344 26.703125 Z M 8.765625 26.425781 C 8.816406 26.082031 8.84375 25.765625 8.769531 25.441406 C 8.558594 25.421875 8.382812 25.421875 8.214844 25.5625 C 8.214844 25.839844 8.125 26.136719 8.230469 26.425781 Z M 8.765625 26.425781 " fill-opacity="1" fill-rule="nonzero"/><path fill="#000000" d="M 10.789062 25.214844 C 11.113281 25.09375 11.417969 25.085938 11.722656 25.1875 C 11.808594 25.363281 11.761719 25.53125 11.761719 25.695312 C 11.761719 25.859375 11.761719 26.027344 11.757812 26.191406 C 11.75 26.351562 11.839844 26.527344 11.664062 26.671875 C 11.589844 26.65625 11.503906 26.628906 11.417969 26.628906 C 11.328125 26.628906 11.238281 26.664062 11.148438 26.671875 C 11.058594 26.679688 10.964844 26.679688 10.878906 26.667969 C 10.765625 26.648438 10.691406 26.550781 10.699219 26.4375 C 10.726562 26.046875 10.757812 25.65625 10.789062 25.214844 Z M 11.015625 25.449219 C 10.996094 25.761719 10.976562 26.039062 10.957031 26.320312 C 11.054688 26.359375 11.125 26.40625 11.195312 26.414062 C 11.382812 26.433594 11.480469 26.34375 11.492188 26.160156 C 11.503906 25.953125 11.503906 25.742188 11.5 25.53125 C 11.5 25.429688 11.421875 25.367188 11.320312 25.378906 C 11.230469 25.390625 11.144531 25.417969 11.015625 25.449219 Z M 11.015625 25.449219 " fill-opacity="1" fill-rule="nonzero"/><path fill="#000000" d="M 10.390625 28.9375 C 10.164062 29.011719 9.957031 29.03125 9.746094 28.992188 C 9.605469 28.964844 9.523438 28.894531 9.515625 28.75 C 9.507812 28.570312 9.527344 28.390625 9.542969 28.210938 C 9.570312 27.957031 9.574219 27.957031 9.472656 27.664062 C 9.527344 27.609375 9.585938 27.542969 9.640625 27.484375 C 9.816406 27.5 9.976562 27.511719 10.132812 27.53125 C 10.269531 27.542969 10.351562 27.632812 10.363281 27.769531 C 10.367188 27.796875 10.363281 27.828125 10.363281 27.859375 C 10.359375 28.214844 10.3125 28.570312 10.390625 28.9375 Z M 10.097656 27.8125 C 9.816406 27.886719 9.8125 27.882812 9.792969 28.015625 C 9.761719 28.238281 9.734375 28.460938 9.777344 28.714844 C 9.867188 28.71875 9.953125 28.738281 10.03125 28.714844 C 10.0625 28.707031 10.09375 28.617188 10.09375 28.566406 C 10.101562 28.324219 10.097656 28.085938 10.097656 27.8125 Z M 10.097656 27.8125 " fill-opacity="1" fill-rule="nonzero"/><path fill="#000000" d="M 9.730469 29.160156 C 9.726562 29.167969 9.722656 29.179688 9.71875 29.191406 C 9.707031 29.175781 9.695312 29.160156 9.683594 29.144531 C 9.695312 29.140625 9.703125 29.132812 9.714844 29.128906 C 9.71875 29.136719 9.726562 29.148438 9.730469 29.160156 Z M 9.730469 29.160156 " fill-opacity="1" fill-rule="nonzero"/><path fill="#000000" d="M 19.90625 28.542969 C 19.898438 28.449219 19.878906 28.375 19.886719 28.300781 C 19.925781 27.96875 19.929688 27.640625 19.859375 27.3125 C 19.828125 27.160156 19.921875 27.046875 20.070312 27.023438 C 20.128906 27.011719 20.191406 27.019531 20.253906 27.015625 C 20.773438 26.996094 20.796875 26.980469 20.847656 27.558594 C 20.875 27.886719 20.851562 28.21875 20.851562 28.578125 C 20.5625 28.769531 20.253906 28.746094 19.90625 28.542969 Z M 20.558594 28.40625 C 20.609375 28.097656 20.582031 27.78125 20.550781 27.46875 C 20.546875 27.441406 20.535156 27.402344 20.511719 27.386719 C 20.453125 27.351562 20.386719 27.308594 20.320312 27.300781 C 20.230469 27.292969 20.183594 27.367188 20.183594 27.445312 C 20.175781 27.6875 20.167969 27.933594 20.179688 28.171875 C 20.1875 28.40625 20.234375 28.433594 20.558594 28.402344 Z M 20.558594 28.40625 " fill-opacity="1" fill-rule="nonzero"/><path fill="#000000" d="M 18.476562 28.558594 C 18.476562 28.113281 18.476562 27.675781 18.476562 27.238281 C 18.476562 27.113281 18.554688 27.023438 18.660156 27.007812 C 18.914062 26.972656 19.167969 26.917969 19.457031 26.988281 C 19.472656 27.125 19.5 27.253906 19.5 27.386719 C 19.507812 27.703125 19.5 28.023438 19.503906 28.339844 C 19.503906 28.511719 19.457031 28.574219 19.273438 28.621094 C 19.019531 28.6875 18.765625 28.71875 18.476562 28.558594 Z M 18.742188 27.238281 C 18.742188 27.597656 18.738281 27.941406 18.742188 28.285156 C 18.742188 28.324219 18.777344 28.363281 18.796875 28.40625 L 19.167969 28.40625 C 19.207031 28.003906 19.242188 27.625 19.179688 27.238281 Z M 18.742188 27.238281 " fill-opacity="1" fill-rule="nonzero"/><path fill="#000000" d="M 21.140625 27.046875 C 21.265625 26.925781 21.398438 26.914062 21.539062 26.914062 C 21.921875 26.914062 22.039062 26.988281 22.085938 27.367188 C 22.128906 27.695312 22.117188 28.027344 22.125 28.359375 C 22.125 28.441406 22.058594 28.519531 21.980469 28.503906 C 21.734375 28.449219 21.496094 28.546875 21.253906 28.519531 C 21.101562 28.503906 21.019531 28.433594 21.03125 28.289062 C 21.0625 27.871094 21.105469 27.449219 21.140625 27.046875 Z M 21.429688 27.199219 C 21.398438 27.535156 21.3125 27.867188 21.320312 28.234375 C 21.398438 28.242188 21.457031 28.261719 21.511719 28.261719 C 21.601562 28.257812 21.691406 28.246094 21.785156 28.238281 C 21.90625 27.980469 21.875 27.726562 21.832031 27.472656 C 21.789062 27.238281 21.757812 27.222656 21.429688 27.199219 Z M 21.429688 27.199219 " fill-opacity="1" fill-rule="nonzero"/><path fill="#000000" d="M 19.492188 26.414062 C 19.308594 26.449219 19.128906 26.476562 18.945312 26.460938 C 18.675781 26.433594 18.566406 26.320312 18.570312 26.046875 C 18.578125 25.707031 18.515625 25.351562 18.707031 25.007812 C 18.851562 24.941406 19.023438 24.96875 19.183594 25 C 19.464844 25.054688 19.546875 25.121094 19.542969 25.425781 C 19.539062 25.695312 19.550781 25.96875 19.550781 26.238281 C 19.550781 26.296875 19.515625 26.351562 19.492188 26.414062 Z M 19.269531 25.738281 C 19.257812 25.644531 19.242188 25.496094 19.214844 25.351562 C 19.207031 25.316406 19.160156 25.273438 19.125 25.265625 C 19.089844 25.253906 19.027344 25.269531 19.007812 25.296875 C 18.8125 25.523438 18.808594 25.789062 18.867188 26.058594 C 18.894531 26.171875 19.007812 26.214844 19.117188 26.210938 C 19.230469 26.203125 19.253906 26.117188 19.246094 26.015625 C 19.242188 25.941406 19.257812 25.867188 19.269531 25.738281 Z M 19.269531 25.738281 " fill-opacity="1" fill-rule="nonzero"/><path fill="#000000" d="M 21.105469 25.019531 C 21.179688 24.992188 21.25 24.941406 21.316406 24.941406 C 21.511719 24.941406 21.710938 24.953125 21.90625 24.972656 C 22 24.980469 22.097656 25.027344 22.113281 25.125 C 22.15625 25.46875 22.1875 25.816406 22.207031 26.160156 C 22.210938 26.210938 22.121094 26.304688 22.066406 26.308594 C 21.839844 26.332031 21.613281 26.335938 21.382812 26.335938 C 21.238281 26.335938 21.144531 26.253906 21.140625 26.117188 C 21.121094 25.757812 21.117188 25.398438 21.105469 25.019531 Z M 21.824219 25.273438 C 21.691406 25.203125 21.554688 25.144531 21.398438 25.269531 C 21.414062 25.507812 21.425781 25.742188 21.445312 25.980469 C 21.445312 26.003906 21.480469 26.023438 21.511719 26.0625 C 21.613281 26.058594 21.730469 26.050781 21.835938 26.042969 C 21.886719 25.820312 21.882812 25.5625 21.824219 25.273438 Z M 21.824219 25.273438 " fill-opacity="1" fill-rule="nonzero"/><path fill="#000000" d="M 20.964844 26.359375 C 20.683594 26.484375 20.4375 26.476562 20.199219 26.488281 C 20.066406 26.492188 19.964844 26.394531 19.957031 26.265625 C 19.945312 26.144531 19.957031 26.023438 19.949219 25.902344 C 19.933594 25.664062 19.914062 25.421875 19.894531 25.183594 C 19.886719 25.078125 19.9375 24.992188 20.035156 24.996094 C 20.171875 25.003906 20.304688 25.03125 20.441406 25.039062 C 20.703125 25.050781 20.828125 25.203125 20.859375 25.4375 C 20.902344 25.734375 20.929688 26.03125 20.964844 26.355469 Z M 20.648438 26.140625 C 20.628906 25.929688 20.617188 25.71875 20.585938 25.511719 C 20.558594 25.304688 20.519531 25.285156 20.234375 25.308594 C 20.234375 25.550781 20.230469 25.789062 20.238281 26.03125 C 20.242188 26.203125 20.3125 26.246094 20.515625 26.214844 C 20.542969 26.210938 20.566406 26.1875 20.648438 26.140625 Z M 20.648438 26.140625 " fill-opacity="1" fill-rule="nonzero"/><path fill="#000000" d="M 15.175781 25.542969 C 15.011719 25.53125 14.84375 25.53125 14.679688 25.507812 C 14.648438 25.5 14.609375 25.417969 14.605469 25.367188 C 14.601562 25.339844 14.652344 25.277344 14.683594 25.277344 C 15.015625 25.253906 15.347656 25.242188 15.671875 25.335938 C 15.707031 25.347656 15.75 25.394531 15.75 25.425781 C 15.75 25.457031 15.703125 25.515625 15.675781 25.515625 C 15.507812 25.527344 15.34375 25.523438 15.175781 25.523438 C 15.175781 25.53125 15.175781 25.539062 15.175781 25.546875 Z M 15.175781 25.542969 " fill-opacity="1" fill-rule="nonzero"/><path fill="#000000" d="M 15.675781 27.109375 C 15.457031 27.121094 15.265625 27.136719 15.070312 27.144531 C 14.921875 27.148438 14.769531 27.144531 14.621094 27.125 C 14.585938 27.121094 14.546875 27.046875 14.535156 26.996094 C 14.53125 26.96875 14.582031 26.902344 14.609375 26.902344 C 14.9375 26.882812 15.269531 26.828125 15.597656 26.898438 C 15.695312 26.917969 15.75 26.988281 15.675781 27.109375 Z M 15.675781 27.109375 " fill-opacity="1" fill-rule="nonzero"/><path fill="#000000" d="M 14.578125 27.871094 C 14.578125 27.871094 14.53125 27.855469 14.519531 27.824219 C 14.507812 27.789062 14.519531 27.714844 14.546875 27.703125 C 14.851562 27.550781 15.175781 27.507812 15.507812 27.589844 C 15.539062 27.597656 15.585938 27.667969 15.578125 27.691406 C 15.566406 27.738281 15.515625 27.777344 15.480469 27.820312 C 15.472656 27.828125 15.453125 27.832031 15.4375 27.832031 C 15.164062 27.84375 14.894531 27.859375 14.582031 27.871094 Z M 14.578125 27.871094 " fill-opacity="1" fill-rule="nonzero"/><path fill="#000000" d="M 14.609375 26.453125 C 14.730469 26.117188 14.988281 26.132812 15.21875 26.09375 C 15.230469 26.089844 15.257812 26.097656 15.257812 26.105469 C 15.277344 26.3125 15.515625 26.183594 15.582031 26.3125 C 15.597656 26.34375 15.585938 26.394531 15.570312 26.429688 C 15.558594 26.449219 15.519531 26.472656 15.496094 26.472656 C 15.214844 26.46875 14.933594 26.460938 14.609375 26.453125 Z M 14.609375 26.453125 " fill-opacity="1" fill-rule="nonzero"/><path fill="#000000" d="M 14.539062 28.582031 C 14.582031 28.535156 14.609375 28.476562 14.644531 28.472656 C 14.929688 28.453125 15.21875 28.4375 15.507812 28.429688 C 15.570312 28.425781 15.625 28.476562 15.613281 28.542969 C 15.605469 28.578125 15.5625 28.617188 15.527344 28.632812 C 15.25 28.734375 14.957031 28.71875 14.667969 28.695312 C 14.625 28.691406 14.585938 28.625 14.539062 28.582031 Z M 14.539062 28.582031 " fill-opacity="1" fill-rule="nonzero"/><path fill="#000000" d="M 15.195312 24.238281 C 15.285156 24.246094 15.378906 24.246094 15.464844 24.265625 C 15.496094 24.273438 15.535156 24.328125 15.539062 24.359375 C 15.539062 24.398438 15.511719 24.460938 15.480469 24.46875 C 15.261719 24.542969 15.035156 24.546875 14.816406 24.46875 C 14.785156 24.457031 14.753906 24.394531 14.753906 24.359375 C 14.757812 24.324219 14.800781 24.269531 14.828125 24.261719 C 14.949219 24.246094 15.070312 24.246094 15.195312 24.238281 Z M 15.195312 24.238281 " fill-opacity="1" fill-rule="nonzero"/></svg>