<svg xmlns="http://www.w3.org/2000/svg" xmlns:xlink="http://www.w3.org/1999/xlink" width="62" zoomAndPan="magnify" viewBox="0 0 46.5 46.5" height="62" preserveAspectRatio="xMidYMid meet" version="1.0"><defs><clipPath id="ed0c283112"><path d="M 3.414062 9.289062 L 42.742188 9.289062 L 42.742188 36.746094 L 3.414062 36.746094 Z M 3.414062 9.289062 " clip-rule="nonzero"/></clipPath></defs><g clip-path="url(#ed0c283112)"><path fill="#000000" d="M 42.382812 35.464844 C 41.953125 35.773438 41.507812 35.890625 40.996094 35.886719 C 40.347656 35.875 39.691406 35.9375 39.039062 35.980469 C 38.472656 36.019531 37.90625 36.078125 37.335938 36.121094 C 36.21875 36.207031 35.105469 36.320312 33.988281 36.367188 C 32.742188 36.421875 31.496094 36.386719 30.25 36.445312 C 29.050781 36.5 27.847656 36.46875 26.644531 36.589844 C 25.765625 36.679688 24.871094 36.652344 23.984375 36.652344 C 22.589844 36.648438 21.195312 36.625 19.800781 36.605469 C 19.464844 36.601562 19.128906 36.585938 18.792969 36.566406 C 17.589844 36.503906 16.386719 36.546875 15.183594 36.59375 C 14.488281 36.617188 13.792969 36.550781 13.09375 36.542969 C 12.546875 36.539062 12 36.570312 11.449219 36.585938 C 11.089844 36.597656 10.734375 36.605469 10.375 36.621094 C 9.40625 36.664062 8.4375 36.730469 7.464844 36.746094 C 6.730469 36.753906 5.992188 36.703125 5.269531 36.445312 C 5.125 36.15625 5.160156 35.835938 5.125 35.527344 C 4.914062 33.554688 4.984375 31.570312 4.964844 29.59375 C 4.957031 28.835938 4.894531 28.078125 4.886719 27.320312 C 4.867188 25.445312 4.867188 23.570312 4.855469 21.691406 C 4.851562 20.683594 4.855469 19.667969 4.835938 18.65625 C 4.808594 17.183594 4.761719 15.710938 4.722656 14.238281 C 4.722656 14.199219 4.703125 14.160156 4.675781 14.070312 C 4.503906 13.980469 4.296875 13.882812 4.101562 13.765625 C 3.667969 13.511719 3.605469 13.167969 3.917969 12.773438 C 4.019531 12.644531 4.132812 12.519531 4.230469 12.40625 C 4.089844 12.058594 3.707031 12.015625 3.511719 11.722656 C 3.472656 11.144531 3.429688 10.539062 3.480469 9.964844 C 3.679688 9.761719 3.902344 9.789062 4.109375 9.78125 C 4.953125 9.742188 5.792969 9.703125 6.632812 9.597656 C 7.089844 9.535156 7.5625 9.550781 8.023438 9.523438 C 8.972656 9.46875 9.921875 9.402344 10.867188 9.34375 C 11.183594 9.324219 11.5 9.324219 11.820312 9.320312 C 12.8125 9.308594 13.804688 9.292969 14.796875 9.289062 C 15.324219 9.289062 15.851562 9.308594 16.378906 9.316406 C 16.484375 9.320312 16.589844 9.339844 16.695312 9.332031 C 17.582031 9.261719 18.464844 9.394531 19.351562 9.398438 C 19.941406 9.402344 20.53125 9.359375 21.121094 9.351562 C 21.753906 9.339844 22.386719 9.300781 23.015625 9.34375 C 23.988281 9.417969 24.957031 9.386719 25.925781 9.398438 C 26.875 9.410156 27.828125 9.464844 28.777344 9.503906 C 28.882812 9.507812 28.988281 9.515625 29.089844 9.515625 C 30.738281 9.53125 32.382812 9.550781 34.03125 9.5625 C 35.527344 9.570312 37.027344 9.5625 38.523438 9.59375 C 39.175781 9.605469 39.828125 9.683594 40.484375 9.644531 C 40.902344 9.617188 41.324219 9.605469 41.746094 9.585938 C 41.808594 9.582031 41.875 9.574219 41.9375 9.574219 C 42.226562 9.574219 42.371094 9.699219 42.402344 9.976562 C 42.417969 10.101562 42.414062 10.230469 42.421875 10.355469 C 42.4375 10.605469 42.433594 10.863281 42.476562 11.109375 C 42.527344 11.390625 42.535156 11.644531 42.339844 11.882812 C 42.222656 12.027344 42.246094 12.199219 42.355469 12.351562 C 42.367188 12.371094 42.382812 12.382812 42.394531 12.402344 C 42.847656 13.191406 42.769531 13.277344 42.289062 14 C 41.957031 14.226562 41.984375 14.566406 41.996094 14.90625 C 42.058594 16.71875 42.105469 18.527344 42.171875 20.339844 C 42.214844 21.582031 42.300781 22.820312 42.28125 24.066406 C 42.265625 25.246094 42.269531 26.425781 42.285156 27.605469 C 42.296875 28.488281 42.347656 29.371094 42.375 30.253906 C 42.386719 30.613281 42.40625 30.96875 42.402344 31.328125 C 42.394531 31.980469 42.382812 32.628906 42.347656 33.277344 C 42.328125 33.617188 42.339844 33.945312 42.371094 34.285156 C 42.410156 34.65625 42.382812 35.039062 42.382812 35.460938 Z M 21.101562 32.003906 C 20.363281 32.003906 19.6875 31.960938 19.023438 32.019531 C 18.710938 32.046875 18.398438 32.0625 18.082031 32.070312 C 17.535156 32.085938 16.984375 32.101562 16.4375 32.121094 C 15.339844 32.15625 14.242188 32.191406 13.148438 32.230469 C 12.539062 32.253906 11.929688 32.285156 11.320312 32.3125 C 11.171875 32.320312 11.023438 32.320312 10.878906 32.328125 C 10.476562 32.347656 10.082031 32.371094 9.679688 32.398438 C 9.554688 32.40625 9.429688 32.4375 9.304688 32.445312 C 8.359375 32.492188 7.410156 32.535156 6.460938 32.582031 C 6.40625 32.585938 6.351562 32.625 6.300781 32.644531 C 6.199219 33.683594 6.40625 35.648438 6.703125 36.363281 C 7.1875 36.367188 7.695312 36.394531 8.199219 36.378906 C 8.851562 36.351562 9.503906 36.289062 10.15625 36.253906 C 10.664062 36.226562 11.167969 36.21875 11.675781 36.199219 C 12.035156 36.183594 12.390625 36.152344 12.75 36.15625 C 13.96875 36.167969 15.191406 36.226562 16.410156 36.199219 C 17.441406 36.179688 18.472656 36.234375 19.503906 36.238281 C 20.027344 36.238281 20.550781 36.304688 21.128906 36.222656 C 21.148438 34.824219 21.160156 33.445312 21.097656 32 Z M 22.195312 36.25 C 22.171875 35.25 22.140625 34.324219 22.121094 33.398438 C 22.117188 33.144531 22.128906 32.890625 22.132812 32.640625 C 22.140625 32.238281 22.15625 31.839844 22.152344 31.441406 C 22.144531 30.324219 22.125 29.207031 22.117188 28.09375 C 22.113281 27.082031 22.148438 26.070312 22.113281 25.058594 C 22.066406 23.753906 21.964844 22.453125 21.894531 21.148438 C 21.882812 20.960938 21.890625 20.773438 21.890625 20.613281 C 22.058594 20.40625 22.257812 20.347656 22.476562 20.339844 C 23.023438 20.316406 23.574219 20.28125 24.121094 20.273438 C 25.007812 20.265625 25.894531 20.269531 26.78125 20.273438 C 27.476562 20.277344 28.171875 20.292969 28.871094 20.304688 C 29.015625 20.308594 29.167969 20.316406 29.3125 20.339844 C 29.472656 20.367188 29.574219 20.46875 29.585938 20.640625 C 29.632812 21.605469 29.730469 22.574219 29.660156 23.542969 C 29.5625 24.949219 29.453125 26.355469 29.359375 27.761719 C 29.285156 28.835938 29.242188 29.90625 29.160156 30.976562 C 29.066406 32.257812 29 33.539062 28.992188 34.824219 C 28.992188 35.246094 29.023438 35.660156 29.140625 36.058594 C 29.503906 36.082031 29.550781 36.058594 29.5625 35.839844 C 29.578125 35.585938 29.578125 35.335938 29.574219 35.082031 C 29.554688 33.796875 29.527344 32.515625 29.507812 31.230469 C 29.5 30.875 29.488281 30.515625 29.507812 30.160156 C 29.535156 29.738281 29.683594 29.597656 30.09375 29.5625 C 30.390625 29.539062 30.691406 29.570312 30.980469 29.519531 C 31.792969 29.375 32.613281 29.324219 33.433594 29.257812 C 33.789062 29.226562 34.148438 29.1875 34.503906 29.179688 C 35.308594 29.160156 36.113281 29.171875 36.914062 29.152344 C 37.503906 29.132812 38.089844 29.085938 38.714844 29.054688 C 38.730469 28.847656 38.746094 28.664062 38.757812 28.476562 C 38.773438 28.097656 38.78125 27.71875 38.800781 27.339844 C 38.855469 26.246094 38.917969 25.152344 38.96875 24.058594 C 39.015625 23.070312 39.054688 22.082031 39.089844 21.09375 C 39.105469 20.699219 39.101562 20.300781 38.976562 19.882812 C 38.777344 19.867188 38.589844 19.839844 38.40625 19.839844 C 37.816406 19.835938 37.222656 19.847656 36.632812 19.84375 C 35.34375 19.835938 34.054688 19.835938 32.765625 19.8125 C 31.816406 19.796875 30.867188 19.746094 29.917969 19.722656 C 29.429688 19.710938 28.945312 19.714844 28.460938 19.722656 C 27.742188 19.738281 27.023438 19.777344 26.308594 19.777344 C 25.632812 19.777344 24.957031 19.730469 24.285156 19.71875 C 23.945312 19.714844 23.609375 19.757812 23.273438 19.773438 C 22.429688 19.8125 21.59375 19.695312 20.742188 19.761719 C 19.292969 19.867188 17.832031 19.886719 16.378906 19.941406 C 16.082031 19.953125 15.785156 19.960938 15.492188 19.96875 C 14.796875 19.988281 14.097656 20.054688 13.40625 20.011719 C 12.285156 19.945312 11.167969 19.921875 10.046875 19.917969 C 9.5 19.914062 8.953125 19.878906 8.402344 19.867188 C 8.21875 19.867188 8.03125 19.902344 7.851562 19.917969 C 7.753906 20.222656 7.8125 20.5 7.820312 20.769531 C 7.847656 22.496094 7.882812 24.21875 7.921875 25.945312 C 7.953125 27.164062 7.957031 28.382812 8.003906 29.601562 C 8.03125 30.234375 8.140625 30.304688 8.761719 30.300781 C 8.824219 30.300781 8.890625 30.292969 8.953125 30.292969 C 9.964844 30.292969 10.976562 30.300781 11.988281 30.199219 C 12.933594 30.105469 13.878906 30.046875 14.828125 29.976562 C 15.25 29.945312 15.671875 29.917969 16.09375 29.917969 C 17.425781 29.910156 18.753906 29.914062 20.085938 29.914062 C 20.402344 29.914062 20.722656 29.921875 21.039062 29.945312 C 21.152344 29.957031 21.261719 30.027344 21.386719 30.074219 C 21.386719 30.5 21.375 30.898438 21.390625 31.296875 C 21.414062 32.011719 21.460938 32.726562 21.480469 33.441406 C 21.492188 34.050781 21.472656 34.664062 21.480469 35.273438 C 21.480469 35.605469 21.46875 35.945312 21.625 36.25 Z M 41.132812 31.367188 C 40.867188 31.183594 40.648438 31.246094 40.441406 31.234375 C 40.171875 31.21875 39.898438 31.210938 39.625 31.207031 C 38.90625 31.203125 38.191406 31.1875 37.472656 31.199219 C 37.035156 31.207031 36.59375 31.253906 36.152344 31.257812 C 35.585938 31.261719 35.03125 31.300781 34.457031 31.261719 C 33.792969 31.214844 33.113281 31.339844 32.441406 31.390625 C 32.273438 31.40625 32.105469 31.421875 31.9375 31.433594 C 31.285156 31.484375 30.636719 31.53125 29.996094 31.578125 C 29.808594 31.929688 29.898438 32.273438 29.898438 32.601562 C 29.898438 33.234375 29.921875 33.863281 29.929688 34.496094 C 29.9375 34.851562 29.925781 35.210938 29.9375 35.570312 C 29.945312 35.726562 29.996094 35.886719 30.03125 36.058594 C 30.195312 36.070312 30.316406 36.089844 30.441406 36.085938 C 30.886719 36.074219 31.328125 36.042969 31.769531 36.03125 C 32.992188 36.003906 34.21875 36 35.4375 35.875 C 35.773438 35.839844 36.113281 35.859375 36.453125 35.832031 C 37.609375 35.753906 38.765625 35.671875 39.925781 35.578125 C 40.277344 35.550781 40.636719 35.550781 40.976562 35.417969 C 41.246094 34.058594 41.050781 32.710938 41.128906 31.367188 Z M 42.003906 10 C 41.59375 10.011719 41.214844 10.027344 40.839844 10.03125 C 40.015625 10.035156 39.191406 10.050781 38.371094 9.96875 C 37.910156 9.925781 37.441406 9.972656 36.976562 9.980469 C 36.257812 9.996094 35.542969 10.027344 34.824219 10.027344 C 34.171875 10.027344 33.515625 9.992188 32.863281 9.972656 C 32.648438 9.96875 32.4375 9.976562 32.226562 9.96875 C 30.75 9.921875 29.273438 9.859375 27.792969 9.824219 C 26.757812 9.796875 25.722656 9.808594 24.691406 9.792969 C 24.054688 9.785156 23.425781 9.746094 22.792969 9.734375 C 22.246094 9.726562 21.699219 9.734375 21.152344 9.742188 C 20.308594 9.75 19.464844 9.785156 18.621094 9.773438 C 17.691406 9.757812 16.765625 9.6875 15.839844 9.671875 C 14.824219 9.660156 13.808594 9.675781 12.796875 9.695312 C 12.097656 9.707031 11.402344 9.746094 10.707031 9.777344 C 9.738281 9.824219 8.765625 9.875 7.796875 9.921875 C 7.546875 9.9375 7.289062 9.9375 7.039062 9.964844 C 6.265625 10.054688 5.488281 10.101562 4.710938 10.113281 C 4.445312 10.121094 4.164062 10.109375 3.90625 10.242188 C 3.855469 10.617188 3.867188 10.960938 4.03125 11.308594 C 4.601562 11.207031 5.140625 11.175781 5.691406 11.191406 C 6.28125 11.210938 6.878906 11.210938 7.464844 11.15625 C 9.019531 11.003906 10.582031 10.917969 12.144531 10.929688 C 13.621094 10.941406 15.097656 11 16.578125 11.027344 C 18.015625 11.054688 19.449219 11.070312 20.886719 11.074219 C 22.640625 11.078125 24.394531 11.050781 26.148438 11.058594 C 27.5625 11.070312 28.976562 11 30.390625 11.023438 C 31.636719 11.042969 32.886719 11.050781 34.132812 11.054688 C 34.722656 11.058594 35.316406 11.023438 35.90625 11.039062 C 37.066406 11.074219 38.226562 11.136719 39.390625 11.183594 C 40.230469 11.214844 41.074219 11.242188 41.917969 11.265625 C 41.96875 11.265625 42.023438 11.207031 42.089844 11.164062 C 42.0625 10.769531 42.035156 10.375 42.007812 9.996094 Z M 22.675781 36.265625 C 24.675781 36.335938 26.644531 36.277344 28.636719 36.070312 C 28.636719 35.640625 28.625 35.242188 28.640625 34.84375 C 28.679688 33.667969 28.722656 32.488281 28.777344 31.3125 C 28.808594 30.617188 28.855469 29.925781 28.90625 29.230469 C 28.964844 28.457031 29.039062 27.679688 29.09375 26.90625 C 29.167969 25.835938 29.238281 24.765625 29.296875 23.691406 C 29.351562 22.726562 29.367188 21.757812 29.203125 20.800781 C 29.136719 20.765625 29.082031 20.71875 29.023438 20.714844 C 28.5 20.683594 27.976562 20.636719 27.449219 20.632812 C 26.480469 20.632812 25.511719 20.695312 24.542969 20.660156 C 23.949219 20.636719 23.367188 20.660156 22.777344 20.691406 C 22.617188 20.699219 22.457031 20.753906 22.261719 20.792969 C 22.28125 21.140625 22.304688 21.449219 22.320312 21.761719 C 22.363281 22.683594 22.390625 23.609375 22.445312 24.535156 C 22.515625 25.714844 22.511719 26.890625 22.453125 28.066406 C 22.425781 28.550781 22.398438 29.035156 22.417969 29.515625 C 22.464844 30.527344 22.539062 31.53125 22.503906 32.542969 C 22.484375 33.109375 22.511719 33.679688 22.519531 34.246094 C 22.527344 34.5625 22.558594 34.878906 22.539062 35.191406 C 22.515625 35.535156 22.546875 35.867188 22.675781 36.261719 Z M 40.644531 12.320312 C 40.523438 12.261719 40.488281 12.234375 40.449219 12.226562 C 39.550781 12.09375 38.644531 12.058594 37.734375 12.082031 C 36.425781 12.113281 35.117188 12.125 33.808594 12.007812 C 33.410156 11.972656 33.007812 11.957031 32.605469 11.957031 C 30.640625 11.949219 28.675781 11.957031 26.710938 11.949219 C 25.886719 11.945312 25.0625 11.894531 24.238281 11.898438 C 23.058594 11.902344 21.875 11.941406 20.691406 11.949219 C 19.996094 11.953125 19.300781 11.925781 18.601562 11.917969 C 17.78125 11.90625 16.960938 11.894531 16.136719 11.890625 C 15.59375 11.886719 15.046875 11.914062 14.5 11.902344 C 13.320312 11.886719 12.136719 11.839844 10.953125 11.832031 C 10.363281 11.824219 9.769531 11.851562 9.179688 11.90625 C 8.296875 11.984375 7.417969 12.117188 6.53125 12.105469 C 6.320312 12.101562 6.105469 12.09375 5.886719 12.289062 C 5.886719 12.4375 5.878906 12.625 5.886719 12.8125 C 5.929688 13.800781 5.949219 14.789062 5.917969 15.78125 C 5.882812 16.9375 5.875 18.097656 6.011719 19.253906 C 6.027344 19.371094 6.058594 19.488281 6.089844 19.632812 C 6.238281 19.632812 6.363281 19.640625 6.484375 19.632812 C 6.738281 19.609375 6.988281 19.5625 7.242188 19.5625 C 8.296875 19.554688 9.351562 19.558594 10.410156 19.5625 C 11.023438 19.566406 11.636719 19.535156 12.246094 19.59375 C 13.238281 19.683594 14.230469 19.660156 15.222656 19.632812 C 16.363281 19.597656 17.5 19.523438 18.636719 19.457031 C 19.503906 19.410156 20.371094 19.464844 21.230469 19.339844 C 21.375 19.316406 21.527344 19.339844 21.675781 19.351562 C 22.285156 19.402344 22.894531 19.394531 23.507812 19.355469 C 24.136719 19.3125 24.78125 19.292969 25.40625 19.355469 C 26.273438 19.441406 27.136719 19.402344 28.003906 19.378906 C 28.675781 19.359375 29.355469 19.292969 30.027344 19.34375 C 31.167969 19.429688 32.308594 19.425781 33.449219 19.433594 C 34.820312 19.441406 36.195312 19.433594 37.570312 19.4375 C 37.761719 19.4375 37.953125 19.4375 38.140625 19.460938 C 38.917969 19.550781 39.699219 19.542969 40.480469 19.507812 C 40.621094 19.5 40.753906 19.449219 40.949219 19.402344 C 40.792969 17.027344 40.824219 14.671875 40.648438 12.320312 Z M 41.179688 14.332031 C 41.179688 14.863281 41.167969 15.347656 41.179688 15.832031 C 41.195312 16.316406 41.25 16.796875 41.257812 17.28125 C 41.296875 18.902344 41.324219 20.523438 41.351562 22.144531 C 41.351562 22.1875 41.351562 22.230469 41.351562 22.273438 C 41.351562 23.34375 41.351562 24.417969 41.351562 25.492188 C 41.351562 25.785156 41.335938 26.078125 41.347656 26.375 C 41.386719 27.488281 41.453125 28.601562 41.472656 29.71875 C 41.492188 30.808594 41.46875 31.898438 41.453125 32.992188 C 41.441406 33.707031 41.414062 34.421875 41.394531 35.136719 C 41.394531 35.238281 41.414062 35.34375 41.421875 35.445312 C 41.671875 35.492188 41.847656 35.398438 42.007812 35.285156 C 42.007812 34.597656 42.007812 33.949219 42.007812 33.296875 C 42.007812 32.011719 42.019531 30.726562 42.007812 29.441406 C 41.996094 28.453125 41.949219 27.464844 41.929688 26.472656 C 41.917969 25.863281 41.929688 25.25 41.914062 24.640625 C 41.882812 23.378906 41.839844 22.117188 41.800781 20.855469 C 41.742188 18.707031 41.683594 16.558594 41.621094 14.414062 C 41.621094 14.375 41.582031 14.339844 41.558594 14.296875 C 41.503906 14.285156 41.441406 14.261719 41.382812 14.265625 C 41.324219 14.269531 41.265625 14.300781 41.175781 14.328125 Z M 6.160156 36.226562 C 6.140625 35.988281 6.125 35.800781 6.109375 35.613281 C 6.039062 34.773438 5.941406 33.9375 5.898438 33.097656 C 5.855469 32.234375 5.875 31.367188 5.855469 30.503906 C 5.835938 29.707031 5.804688 28.90625 5.769531 28.109375 C 5.726562 27.164062 5.863281 26.210938 5.636719 25.277344 C 5.621094 25.21875 5.640625 25.152344 5.640625 25.089844 C 5.640625 23.40625 5.648438 21.71875 5.640625 20.03125 C 5.636719 19.464844 5.582031 18.898438 5.574219 18.328125 C 5.558594 17.464844 5.558594 16.601562 5.558594 15.738281 C 5.558594 15.277344 5.585938 14.816406 5.59375 14.355469 C 5.59375 14.1875 5.523438 14.128906 5.300781 14.113281 C 5.246094 14.109375 5.191406 14.148438 5.136719 14.167969 C 5.136719 14.414062 5.117188 14.648438 5.136719 14.875 C 5.234375 15.945312 5.238281 17.019531 5.230469 18.09375 C 5.222656 19.378906 5.269531 20.667969 5.234375 21.953125 C 5.199219 23.257812 5.113281 24.558594 5.1875 25.867188 C 5.238281 26.6875 5.253906 27.507812 5.277344 28.328125 C 5.308594 29.382812 5.390625 30.4375 5.339844 31.484375 C 5.273438 32.882812 5.457031 34.257812 5.515625 35.644531 C 5.519531 35.726562 5.542969 35.8125 5.5625 35.894531 C 5.636719 36.222656 5.644531 36.226562 6.15625 36.222656 Z M 7.503906 24.742188 L 7.503906 23.089844 C 7.003906 23.046875 6.511719 22.945312 6.011719 23.152344 C 6.070312 23.703125 5.925781 24.242188 6.089844 24.800781 C 6.5625 24.746094 7.019531 24.804688 7.507812 24.742188 Z M 7.582031 26.792969 C 7.582031 26.46875 7.585938 26.21875 7.582031 25.96875 C 7.574219 25.703125 7.636719 25.429688 7.496094 25.148438 C 7.023438 25.148438 6.566406 25.074219 6.089844 25.207031 C 6.109375 25.75 6.132812 26.265625 6.152344 26.835938 C 6.640625 26.835938 7.09375 26.90625 7.582031 26.792969 Z M 40.988281 24.027344 C 41.011719 23.617188 41 23.207031 40.945312 22.78125 C 40.414062 22.683594 39.917969 22.695312 39.386719 22.8125 C 39.367188 23.027344 39.335938 23.234375 39.328125 23.4375 C 39.316406 23.660156 39.324219 23.886719 39.324219 24.121094 C 39.875 24.089844 40.390625 24.0625 40.988281 24.027344 Z M 7.519531 22.640625 C 7.519531 22.160156 7.5625 21.746094 7.425781 21.332031 C 6.949219 21.304688 6.492188 21.21875 6.019531 21.410156 C 6.027344 21.839844 5.972656 22.253906 6.050781 22.683594 C 6.550781 22.726562 7.003906 22.703125 7.519531 22.640625 Z M 39.335938 24.574219 C 39.246094 24.902344 39.226562 25.242188 39.292969 25.625 C 39.878906 25.625 40.429688 25.613281 40.980469 25.441406 C 40.996094 25.105469 41.042969 24.804688 40.980469 24.503906 C 40.324219 24.359375 40.125 24.367188 39.335938 24.574219 Z M 41.941406 13.863281 C 42.054688 13.671875 42.148438 13.507812 42.25 13.351562 C 42.351562 13.191406 42.335938 13.035156 42.253906 12.871094 C 42.113281 12.589844 41.9375 12.371094 41.578125 12.429688 C 41.539062 12.4375 41.484375 12.433594 41.453125 12.414062 C 41.390625 12.367188 41.308594 12.316406 41.289062 12.25 C 41.277344 12.210938 41.367188 12.121094 41.429688 12.09375 C 41.558594 12.035156 41.710938 12.015625 41.835938 11.945312 C 41.882812 11.917969 41.90625 11.804688 41.902344 11.734375 C 41.898438 11.695312 41.816406 11.632812 41.765625 11.628906 C 41.5625 11.628906 41.347656 11.574219 41.125 11.710938 C 41.066406 12.429688 41.082031 13.152344 41.179688 13.914062 C 41.453125 13.894531 41.699219 13.878906 41.941406 13.863281 Z M 7.574219 27.222656 C 7.066406 27.183594 6.617188 27.09375 6.128906 27.285156 C 6.191406 27.671875 6.046875 28.066406 6.238281 28.457031 C 6.683594 28.425781 7.113281 28.390625 7.535156 28.359375 C 7.679688 27.976562 7.625 27.632812 7.578125 27.222656 Z M 40.929688 22.394531 C 40.949219 21.96875 40.996094 21.597656 40.886719 21.207031 C 40.375 21.203125 39.894531 21.097656 39.429688 21.371094 C 39.417969 21.542969 39.40625 21.710938 39.402344 21.875 C 39.398438 22.039062 39.402344 22.199219 39.402344 22.390625 L 40.929688 22.390625 Z M 6.210938 28.832031 C 6.128906 29.273438 6.152344 29.636719 6.285156 30.015625 C 6.746094 30.011719 7.199219 30.082031 7.648438 29.890625 C 7.628906 29.503906 7.613281 29.15625 7.59375 28.796875 C 7.117188 28.71875 6.691406 28.78125 6.210938 28.832031 Z M 39.160156 28.113281 C 39.515625 28.082031 39.808594 28.066406 40.101562 28.035156 C 40.40625 28.003906 40.738281 28.0625 41.023438 27.824219 C 41 27.617188 40.976562 27.417969 40.949219 27.210938 C 40.347656 27.023438 39.796875 27.332031 39.25 27.21875 C 39.105469 27.515625 39.121094 27.78125 39.160156 28.113281 Z M 39.207031 26.835938 C 39.84375 26.964844 40.371094 26.828125 40.925781 26.769531 L 40.925781 25.953125 C 40.355469 25.804688 39.835938 25.960938 39.265625 26.039062 C 39.246094 26.296875 39.230469 26.542969 39.207031 26.835938 Z M 7.414062 19.984375 C 6.941406 19.820312 6.503906 20.074219 6.023438 20.019531 C 6.015625 20.332031 5.960938 20.617188 6.097656 20.914062 C 6.570312 20.921875 7.023438 20.984375 7.488281 20.863281 C 7.460938 20.554688 7.4375 20.269531 7.414062 19.980469 Z M 40.878906 19.859375 C 40.367188 19.890625 39.890625 19.914062 39.410156 19.945312 C 39.421875 20.277344 39.410156 20.570312 39.523438 20.863281 C 40 20.839844 40.453125 20.816406 40.90625 20.792969 C 40.964844 20.476562 40.980469 20.210938 40.878906 19.859375 Z M 5.480469 12.550781 C 4.453125 12.640625 4.40625 12.664062 4.15625 13.285156 C 4.273438 13.527344 4.503906 13.566406 4.730469 13.628906 C 4.96875 13.695312 5.203125 13.8125 5.480469 13.652344 Z M 41.039062 28.390625 C 40.984375 28.347656 40.949219 28.292969 40.921875 28.296875 C 40.460938 28.332031 40.003906 28.367188 39.546875 28.410156 C 39.425781 28.421875 39.304688 28.464844 39.160156 28.5 L 39.160156 29.015625 C 39.789062 29.027344 40.390625 29.070312 41.015625 28.964844 C 41.023438 28.742188 41.035156 28.558594 41.042969 28.390625 Z M 6.265625 31.359375 C 6.496094 31.316406 6.640625 31.292969 6.78125 31.269531 C 6.921875 31.246094 7.0625 31.203125 7.203125 31.207031 C 7.574219 31.21875 7.625 31.191406 7.648438 30.871094 C 7.660156 30.726562 7.652344 30.582031 7.652344 30.445312 C 7.171875 30.324219 6.9375 30.332031 6.265625 30.488281 Z M 11.039062 31.96875 C 11.605469 31.917969 12.121094 31.875 12.636719 31.824219 C 12.691406 31.816406 12.738281 31.761719 12.800781 31.726562 C 12.785156 31.601562 12.769531 31.484375 12.753906 31.378906 C 12.1875 31.289062 11.410156 31.335938 11.007812 31.476562 C 10.996094 31.53125 10.976562 31.59375 10.980469 31.652344 C 10.984375 31.730469 11.007812 31.808594 11.039062 31.972656 Z M 15.945312 30.308594 C 15.4375 30.328125 14.992188 30.332031 14.554688 30.363281 C 14.234375 30.382812 14.191406 30.484375 14.304688 30.941406 C 14.84375 30.898438 15.40625 31.066406 15.972656 30.824219 C 15.964844 30.652344 15.957031 30.511719 15.945312 30.304688 Z M 38.28125 30.867188 C 38.785156 30.886719 39.257812 30.996094 39.75 30.804688 C 39.746094 30.644531 39.742188 30.5 39.730469 30.359375 C 39.726562 30.328125 39.679688 30.296875 39.628906 30.238281 C 39.191406 30.414062 38.71875 30.089844 38.214844 30.277344 C 38.238281 30.488281 38.257812 30.667969 38.28125 30.867188 Z M 8.972656 31.558594 C 8.351562 31.523438 7.792969 31.535156 7.199219 31.652344 C 7.234375 31.847656 7.257812 32.007812 7.289062 32.179688 C 7.875 32.195312 8.429688 32.136719 9.007812 32.027344 C 8.996094 31.867188 8.984375 31.746094 8.972656 31.558594 Z M 38.898438 29.875 C 39.273438 30.003906 39.613281 29.890625 39.960938 29.839844 C 40.324219 29.789062 40.695312 29.765625 41.066406 29.730469 C 41.109375 29.417969 41.082031 29.339844 40.867188 29.34375 C 40.265625 29.359375 39.660156 29.402344 39.050781 29.433594 C 38.992188 29.597656 38.949219 29.730469 38.898438 29.875 Z M 15.0625 31.804688 C 15.5625 31.804688 15.980469 31.816406 16.398438 31.796875 C 16.601562 31.789062 16.671875 31.65625 16.621094 31.441406 C 16.601562 31.367188 16.542969 31.300781 16.507812 31.238281 C 16.019531 31.125 15.578125 31.296875 15.09375 31.335938 C 15.082031 31.496094 15.074219 31.632812 15.0625 31.804688 Z M 35.097656 30.9375 C 35.464844 30.992188 35.773438 30.949219 36.085938 30.921875 C 36.253906 30.90625 36.351562 30.804688 36.34375 30.628906 C 36.339844 30.53125 36.3125 30.4375 36.292969 30.320312 C 35.878906 30.34375 35.5 30.074219 35.101562 30.320312 L 35.101562 30.9375 Z M 13.136719 31.335938 C 13.195312 31.867188 13.21875 31.894531 13.597656 31.882812 C 13.847656 31.875 14.101562 31.871094 14.351562 31.851562 C 14.472656 31.839844 14.585938 31.796875 14.714844 31.765625 L 14.714844 31.328125 C 14.179688 31.21875 13.683594 31.308594 13.136719 31.335938 Z M 41.101562 30.1875 C 40.730469 30.015625 40.429688 30.136719 40.105469 30.214844 C 40.121094 30.472656 40.074219 30.699219 40.226562 30.910156 C 40.515625 30.871094 40.804688 30.984375 41.101562 30.851562 Z M 17.058594 31.683594 L 18.410156 31.683594 L 18.410156 31.230469 C 17.921875 31.003906 17.449219 31.171875 16.949219 31.199219 C 16.992188 31.386719 17.023438 31.542969 17.054688 31.6875 Z M 13.832031 30.453125 C 13.664062 30.453125 13.539062 30.445312 13.417969 30.457031 C 13.105469 30.484375 12.796875 30.519531 12.484375 30.554688 C 12.402344 30.5625 12.316406 30.566406 12.238281 30.585938 C 12.125 30.617188 12.050781 30.699219 12.09375 30.816406 C 12.117188 30.875 12.199219 30.953125 12.261719 30.957031 C 12.632812 30.980469 13.007812 30.9375 13.382812 31.015625 C 13.4375 31.027344 13.503906 30.996094 13.566406 30.980469 C 13.816406 30.921875 13.835938 30.886719 13.835938 30.453125 Z M 34.675781 30.289062 C 34.234375 30.484375 33.777344 30.242188 33.34375 30.484375 L 33.34375 30.910156 C 33.746094 31.011719 34.136719 30.949219 34.527344 30.898438 C 34.601562 30.886719 34.695312 30.769531 34.710938 30.6875 C 34.734375 30.578125 34.695312 30.453125 34.675781 30.289062 Z M 11.707031 30.664062 C 11.304688 30.597656 10.230469 30.660156 9.859375 30.769531 C 9.800781 30.953125 9.867188 31.066406 10.054688 31.066406 C 10.539062 31.0625 11.023438 31.046875 11.507812 31.023438 C 11.691406 31.011719 11.703125 30.980469 11.707031 30.664062 Z M 7.945312 31.148438 C 8.492188 31.253906 8.992188 31.183594 9.5 31.007812 C 9.507812 30.917969 9.515625 30.839844 9.527344 30.714844 C 9.027344 30.679688 8.546875 30.648438 8.039062 30.613281 C 8.003906 30.808594 7.976562 30.96875 7.945312 31.144531 Z M 10.628906 31.457031 C 10.1875 31.398438 9.816406 31.40625 9.449219 31.496094 C 9.417969 31.503906 9.394531 31.550781 9.335938 31.617188 C 9.347656 31.734375 9.367188 31.890625 9.390625 32.066406 C 9.835938 32.039062 10.238281 31.988281 10.652344 31.886719 C 10.644531 31.734375 10.636719 31.617188 10.628906 31.457031 Z M 31.457031 31.035156 C 31.457031 30.898438 31.46875 30.816406 31.453125 30.738281 C 31.449219 30.703125 31.40625 30.664062 31.371094 30.652344 C 31.316406 30.632812 31.253906 30.617188 31.195312 30.617188 C 30.757812 30.625 30.332031 30.707031 29.886719 30.859375 C 29.898438 30.960938 29.90625 31.054688 29.917969 31.1875 C 30.441406 31.222656 30.925781 31.171875 31.457031 31.035156 Z M 4.234375 11.644531 C 4.21875 11.6875 4.183594 11.738281 4.195312 11.753906 C 4.386719 12.015625 4.613281 12.210938 4.96875 12.207031 C 5.128906 12.203125 5.285156 12.246094 5.445312 12.269531 C 5.476562 11.902344 5.472656 11.902344 5.347656 11.613281 C 4.972656 11.515625 4.601562 11.605469 4.230469 11.644531 Z M 18.8125 31.667969 C 19.15625 31.667969 19.464844 31.679688 19.769531 31.664062 C 19.933594 31.652344 20.027344 31.480469 20 31.28125 C 19.980469 31.132812 19.886719 31.066406 19.746094 31.0625 C 19.433594 31.050781 19.128906 31.089844 18.785156 31.15625 C 18.792969 31.332031 18.800781 31.484375 18.808594 31.667969 Z M 17.683594 30.320312 C 17.210938 30.269531 16.796875 30.277344 16.378906 30.304688 C 16.351562 30.308594 16.320312 30.355469 16.28125 30.394531 C 16.289062 30.46875 16.292969 30.550781 16.308594 30.632812 C 16.324219 30.6875 16.363281 30.738281 16.402344 30.808594 C 16.828125 30.808594 17.257812 30.894531 17.683594 30.714844 Z M 37.863281 30.792969 C 37.851562 30.625 37.839844 30.492188 37.828125 30.324219 C 37.453125 30.34375 37.109375 30.261719 36.738281 30.335938 L 36.738281 30.917969 C 37.109375 30.929688 37.457031 30.953125 37.859375 30.792969 Z M 37.171875 29.5 C 36.828125 29.4375 36.480469 29.441406 36.121094 29.5 C 36.089844 29.597656 36.066406 29.675781 36.042969 29.75 C 36.007812 29.878906 36.066406 29.972656 36.183594 29.980469 C 36.425781 30 36.675781 30 36.921875 29.988281 C 37.125 29.972656 37.183594 29.847656 37.171875 29.503906 Z M 31.921875 31.070312 C 32.09375 31.0625 32.277344 31.054688 32.460938 31.042969 C 32.5625 31.035156 32.667969 31.023438 32.765625 31 C 32.914062 30.96875 32.988281 30.835938 32.96875 30.667969 C 32.949219 30.5 32.84375 30.40625 32.675781 30.417969 C 32.511719 30.433594 32.347656 30.457031 32.183594 30.484375 C 31.820312 30.546875 31.78125 30.625 31.921875 31.070312 Z M 34.277344 29.992188 C 34.617188 29.96875 34.882812 29.949219 35.148438 29.929688 C 35.273438 29.917969 35.40625 29.925781 35.515625 29.878906 C 35.59375 29.84375 35.675781 29.746094 35.695312 29.660156 C 35.71875 29.542969 35.617188 29.476562 35.503906 29.476562 C 35.109375 29.472656 34.722656 29.496094 34.316406 29.570312 C 34.304688 29.707031 34.292969 29.824219 34.28125 29.992188 Z M 32.679688 29.695312 C 32.695312 29.824219 32.683594 29.933594 32.730469 30.015625 C 32.757812 30.066406 32.871094 30.101562 32.945312 30.101562 C 33.175781 30.097656 33.410156 30.085938 33.640625 30.054688 C 33.730469 30.042969 33.863281 29.988281 33.890625 29.917969 C 33.929688 29.824219 33.886719 29.699219 33.878906 29.542969 C 33.457031 29.597656 33.085938 29.644531 32.683594 29.695312 Z M 19.613281 30.617188 C 20.039062 30.878906 20.457031 30.6875 20.863281 30.667969 C 20.910156 30.664062 20.988281 30.542969 20.980469 30.484375 C 20.972656 30.421875 20.882812 30.328125 20.824219 30.324219 C 20.429688 30.289062 20.03125 30.242188 19.613281 30.339844 L 19.613281 30.621094 Z M 31.132812 30.308594 C 31.507812 30.257812 31.839844 30.21875 32.167969 30.167969 C 32.285156 30.152344 32.367188 30.015625 32.355469 29.886719 C 32.347656 29.765625 32.230469 29.683594 32.078125 29.703125 C 31.832031 29.738281 31.582031 29.773438 31.335938 29.820312 C 31.132812 29.855469 31.113281 29.894531 31.132812 30.308594 Z M 19.195312 30.304688 C 18.785156 30.328125 18.421875 30.21875 18.0625 30.351562 C 18.125 30.75 18.148438 30.78125 18.398438 30.796875 C 18.566406 30.804688 18.734375 30.804688 18.898438 30.792969 C 19.15625 30.78125 19.179688 30.738281 19.195312 30.304688 Z M 37.652344 29.480469 C 37.585938 29.671875 37.511719 29.824219 37.660156 29.984375 C 37.859375 29.964844 38.074219 29.96875 38.265625 29.910156 C 38.386719 29.875 38.488281 29.746094 38.585938 29.644531 C 38.613281 29.617188 38.578125 29.535156 38.574219 29.480469 Z M 30.726562 29.960938 C 30.480469 29.894531 30.25 29.886719 30.035156 29.957031 C 29.960938 29.980469 29.902344 30.105469 29.882812 30.195312 C 29.871094 30.257812 29.914062 30.378906 29.96875 30.402344 C 30.160156 30.496094 30.554688 30.386719 30.703125 30.199219 C 30.742188 30.148438 30.71875 30.050781 30.726562 29.960938 Z M 20.375 31.566406 C 20.605469 31.566406 20.765625 31.574219 20.929688 31.5625 C 21.054688 31.554688 21.09375 31.453125 21.09375 31.34375 C 21.09375 31.269531 21.074219 31.191406 21.066406 31.121094 C 20.691406 31.085938 20.460938 31.105469 20.375 31.179688 Z M 6.273438 32.203125 C 6.457031 32.191406 6.578125 32.191406 6.699219 32.175781 C 6.824219 32.164062 6.871094 32.078125 6.871094 31.960938 C 6.871094 31.828125 6.839844 31.699219 6.683594 31.691406 C 6.546875 31.6875 6.410156 31.722656 6.273438 31.742188 Z M 6.273438 32.203125 " fill-opacity="1" fill-rule="nonzero"/></g><path fill="#000000" d="M 8.429688 26.90625 C 8.464844 26.570312 8.523438 26.214844 8.539062 25.859375 C 8.578125 24.933594 8.589844 24.011719 8.4375 23.089844 C 8.328125 22.449219 8.339844 21.792969 8.296875 21.144531 C 8.285156 20.972656 8.355469 20.847656 8.519531 20.808594 C 8.742188 20.75 8.972656 20.695312 9.199219 20.683594 C 10.167969 20.632812 11.140625 20.632812 12.105469 20.539062 C 12.90625 20.464844 13.707031 20.488281 14.507812 20.460938 C 15.644531 20.425781 16.785156 20.386719 17.921875 20.363281 C 18.277344 20.351562 18.636719 20.394531 18.992188 20.402344 C 19.667969 20.421875 20.34375 20.433594 21.019531 20.457031 C 21.300781 20.46875 21.433594 20.570312 21.457031 20.820312 C 21.527344 21.53125 21.597656 22.242188 21.617188 22.953125 C 21.625 23.390625 21.546875 23.832031 21.488281 24.269531 C 21.316406 25.570312 21.355469 26.875 21.453125 28.175781 C 21.472656 28.449219 21.484375 28.722656 21.484375 28.996094 C 21.484375 29.339844 21.339844 29.507812 21 29.53125 C 20.769531 29.546875 20.535156 29.539062 20.304688 29.511719 C 19.566406 29.417969 18.835938 29.433594 18.09375 29.503906 C 17.445312 29.566406 16.789062 29.570312 16.132812 29.589844 C 14.742188 29.625 13.347656 29.644531 11.957031 29.691406 C 11.242188 29.714844 10.527344 29.785156 9.808594 29.808594 C 9.515625 29.820312 9.222656 29.777344 8.925781 29.742188 C 8.765625 29.722656 8.671875 29.613281 8.65625 29.441406 C 8.582031 28.601562 8.507812 27.761719 8.429688 26.902344 Z M 21.171875 23.863281 C 20.925781 23.695312 20.691406 23.742188 20.464844 23.753906 C 19.285156 23.816406 18.105469 23.875 16.921875 23.847656 C 16.730469 23.84375 16.542969 23.839844 16.351562 23.847656 C 15.972656 23.863281 15.59375 23.882812 15.214844 23.902344 C 14.121094 23.960938 13.023438 24.027344 11.929688 24.074219 C 11.425781 24.097656 10.917969 24.074219 10.410156 24.105469 C 9.96875 24.128906 9.53125 24.191406 9.089844 24.242188 C 9.054688 24.246094 9.019531 24.277344 8.945312 24.320312 C 8.9375 24.417969 8.929688 24.539062 8.929688 24.660156 C 8.917969 25.058594 8.945312 25.464844 8.890625 25.859375 C 8.714844 27.042969 8.878906 28.203125 9.054688 29.382812 C 9.175781 29.402344 9.277344 29.429688 9.382812 29.433594 C 9.84375 29.4375 10.308594 29.449219 10.773438 29.425781 C 11.40625 29.394531 12.035156 29.316406 12.664062 29.289062 C 13.359375 29.261719 14.058594 29.277344 14.753906 29.257812 C 15.847656 29.222656 16.945312 29.191406 18.039062 29.121094 C 18.714844 29.082031 19.386719 29.054688 20.058594 29.132812 C 20.386719 29.175781 20.726562 29.210938 21.105469 29.070312 C 21.105469 27.324219 20.914062 25.582031 21.171875 23.863281 Z M 8.714844 21.160156 C 8.625 21.699219 8.644531 22.242188 8.699219 22.785156 C 8.71875 22.996094 8.828125 23.085938 9.027344 23.097656 C 9.152344 23.105469 9.28125 23.101562 9.40625 23.09375 C 10.964844 22.957031 12.527344 22.972656 14.09375 22.988281 C 14.980469 22.996094 15.867188 22.972656 16.75 22.925781 C 18.082031 22.859375 19.40625 22.765625 20.734375 22.675781 C 20.878906 22.667969 21.019531 22.640625 21.15625 22.625 C 21.242188 21.953125 21.222656 21.667969 21.039062 20.890625 C 20.910156 20.871094 20.765625 20.832031 20.625 20.832031 C 19.296875 20.832031 17.96875 20.703125 16.636719 20.777344 C 15.542969 20.839844 14.441406 20.816406 13.339844 20.832031 C 13.066406 20.835938 12.792969 20.855469 12.519531 20.871094 C 12.179688 20.890625 11.84375 20.914062 11.507812 20.933594 C 10.644531 20.988281 9.78125 21.035156 8.914062 21.089844 C 8.855469 21.09375 8.800781 21.128906 8.710938 21.160156 Z M 21.253906 23.292969 C 21.15625 23.179688 21.125 23.105469 21.085938 23.101562 C 20.878906 23.082031 20.667969 23.054688 20.460938 23.066406 C 19.21875 23.144531 17.976562 23.261719 16.730469 23.3125 C 15.421875 23.359375 14.113281 23.375 12.800781 23.355469 C 11.554688 23.335938 10.3125 23.417969 9.066406 23.472656 C 9.046875 23.472656 9.015625 23.472656 9.007812 23.484375 C 8.957031 23.542969 8.867188 23.605469 8.871094 23.660156 C 8.875 23.726562 8.957031 23.832031 9.011719 23.835938 C 9.242188 23.847656 9.476562 23.835938 9.707031 23.820312 C 10.210938 23.789062 10.714844 23.746094 11.222656 23.71875 C 11.601562 23.699219 11.984375 23.714844 12.359375 23.675781 C 13.453125 23.558594 14.558594 23.65625 15.648438 23.476562 C 15.769531 23.457031 15.898438 23.476562 16.027344 23.476562 C 17.652344 23.503906 19.277344 23.449219 20.902344 23.335938 C 20.984375 23.332031 21.066406 23.316406 21.253906 23.292969 Z M 21.253906 23.292969 " fill-opacity="1" fill-rule="nonzero"/><path fill="#000000" d="M 30.132812 20.453125 C 30.832031 20.414062 31.480469 20.363281 32.128906 20.390625 C 32.71875 20.410156 33.3125 20.402344 33.902344 20.390625 C 34.28125 20.386719 34.660156 20.34375 35.039062 20.339844 C 35.882812 20.332031 36.726562 20.339844 37.570312 20.339844 C 37.71875 20.339844 37.867188 20.332031 38.015625 20.355469 C 38.425781 20.421875 38.601562 20.621094 38.597656 21.035156 C 38.59375 21.601562 38.574219 22.171875 38.550781 22.738281 C 38.492188 24.101562 38.429688 25.464844 38.363281 26.828125 C 38.332031 27.394531 38.28125 27.960938 38.242188 28.480469 C 38.058594 28.679688 37.867188 28.679688 37.679688 28.683594 C 35.886719 28.722656 34.09375 28.761719 32.304688 28.8125 C 31.777344 28.828125 31.25 28.886719 30.726562 28.902344 C 30.324219 28.910156 30.324219 28.894531 29.898438 28.632812 C 29.898438 28.011719 29.886719 27.378906 29.902344 26.753906 C 29.917969 26.25 29.988281 25.746094 30 25.242188 C 30.015625 24.421875 30 23.601562 30.007812 22.78125 C 30.011719 22.152344 30.027344 21.519531 30.046875 20.890625 C 30.050781 20.765625 30.09375 20.644531 30.132812 20.453125 Z M 30.382812 23.539062 C 30.378906 23.753906 30.378906 24.003906 30.375 24.253906 C 30.363281 24.90625 30.410156 25.566406 30.324219 26.207031 C 30.234375 26.863281 30.261719 27.511719 30.25 28.160156 C 30.246094 28.277344 30.300781 28.394531 30.328125 28.5 C 30.425781 28.523438 30.484375 28.546875 30.546875 28.546875 C 31.390625 28.53125 32.234375 28.515625 33.078125 28.484375 C 34.320312 28.4375 35.5625 28.375 36.804688 28.3125 C 37.15625 28.292969 37.515625 28.355469 37.859375 28.25 C 38 27.820312 37.972656 27.398438 38 26.976562 C 38.0625 25.925781 38.132812 24.878906 38.195312 23.828125 C 38.203125 23.644531 38.265625 23.449219 38.078125 23.261719 C 37.921875 23.242188 37.734375 23.203125 37.546875 23.199219 C 36.640625 23.183594 35.738281 23.152344 34.832031 23.210938 C 34.074219 23.261719 33.316406 23.304688 32.554688 23.339844 C 32.050781 23.359375 31.542969 23.351562 31.039062 23.375 C 30.832031 23.382812 30.609375 23.363281 30.382812 23.542969 Z M 36.765625 20.933594 C 36.183594 21.105469 35.648438 21.195312 35.097656 21.191406 C 34 21.179688 32.898438 21.1875 31.800781 21.1875 C 31.65625 21.1875 31.507812 21.175781 31.363281 21.148438 C 31.324219 21.144531 31.300781 21.0625 31.25 20.992188 C 31.644531 20.875 32.027344 20.941406 32.425781 20.886719 C 31.761719 20.667969 31.128906 20.75 30.484375 20.851562 C 30.386719 21.347656 30.339844 21.824219 30.40625 22.316406 C 30.8125 22.433594 31.207031 22.4375 31.605469 22.40625 C 31.902344 22.382812 32.195312 22.355469 32.488281 22.339844 C 33.164062 22.316406 33.839844 22.304688 34.515625 22.277344 C 34.980469 22.261719 35.441406 22.203125 35.90625 22.199219 C 36.496094 22.195312 37.085938 22.230469 37.679688 22.234375 C 37.859375 22.234375 38.0625 22.292969 38.21875 22.109375 C 38.207031 21.6875 38.304688 21.25 38.171875 20.804688 C 38.023438 20.777344 37.902344 20.734375 37.78125 20.734375 C 36.367188 20.730469 34.953125 20.734375 33.539062 20.738281 C 33.511719 20.738281 33.488281 20.785156 33.421875 20.84375 C 34.3125 20.9375 35.164062 20.949219 36.019531 20.855469 C 36.207031 20.832031 36.394531 20.808594 36.582031 20.808594 C 36.644531 20.808594 36.707031 20.890625 36.765625 20.933594 Z M 38.128906 22.828125 C 38.117188 22.613281 37.96875 22.636719 37.851562 22.632812 C 36.628906 22.554688 35.410156 22.5625 34.1875 22.628906 C 33.050781 22.6875 31.914062 22.714844 30.777344 22.757812 C 30.695312 22.761719 30.605469 22.765625 30.53125 22.792969 C 30.480469 22.808594 30.4375 22.867188 30.40625 22.914062 C 30.375 22.980469 30.46875 23.050781 30.570312 23.046875 C 31.160156 23.03125 31.746094 23.015625 32.335938 23 C 32.800781 22.984375 33.265625 23 33.722656 22.945312 C 34.898438 22.816406 36.078125 22.777344 37.257812 22.828125 C 37.546875 22.839844 37.835938 22.828125 38.128906 22.828125 Z M 32.976562 20.871094 L 33.015625 20.890625 L 33.019531 20.859375 Z M 32.976562 20.871094 " fill-opacity="1" fill-rule="nonzero"/><path fill="#000000" d="M 23.085938 27.496094 C 22.925781 26.800781 23.042969 26.152344 23.027344 25.503906 C 23.015625 24.832031 23.027344 24.160156 23.027344 23.484375 C 23.027344 22.835938 23.027344 22.183594 23.027344 21.515625 C 23.488281 21.28125 23.957031 21.355469 24.40625 21.355469 C 24.722656 21.355469 25.039062 21.40625 25.347656 21.457031 C 26.171875 21.597656 26.984375 21.5 27.804688 21.429688 C 27.988281 21.414062 28.175781 21.4375 28.34375 21.441406 C 28.566406 21.824219 28.585938 22.1875 28.546875 22.574219 C 28.410156 23.875 28.300781 25.175781 28.34375 26.480469 C 28.351562 26.730469 28.390625 26.980469 28.421875 27.226562 C 28.441406 27.402344 28.339844 27.542969 28.179688 27.503906 C 27.332031 27.296875 26.5 27.511719 25.664062 27.582031 C 24.972656 27.636719 24.277344 27.679688 23.585938 27.542969 C 23.441406 27.515625 23.296875 27.515625 23.089844 27.5 Z M 23.429688 27.175781 C 23.605469 27.214844 23.765625 27.285156 23.925781 27.285156 C 24.535156 27.285156 25.152344 27.304688 25.757812 27.234375 C 26.363281 27.167969 26.96875 27.109375 27.582031 27.101562 C 27.699219 27.101562 27.816406 27.058594 27.9375 27.035156 C 27.976562 26.148438 28.039062 25.289062 28.050781 24.429688 C 28.0625 23.570312 28.238281 22.71875 28.191406 21.816406 C 28.03125 21.796875 27.886719 21.746094 27.753906 21.765625 C 26.976562 21.867188 26.207031 21.910156 25.425781 21.773438 C 25.097656 21.714844 24.757812 21.707031 24.421875 21.699219 C 24.109375 21.691406 23.796875 21.71875 23.496094 21.726562 C 23.375 22.28125 23.324219 26.304688 23.425781 27.175781 Z M 23.429688 27.175781 " fill-opacity="1" fill-rule="nonzero"/><path fill="#000000" d="M 23.476562 29.898438 C 23.738281 29.75 24.050781 29.703125 24.363281 29.710938 C 25.375 29.726562 26.382812 29.679688 27.394531 29.6875 C 27.660156 29.6875 27.945312 29.644531 28.214844 29.8125 C 28.28125 30.351562 28.207031 30.886719 28.144531 31.425781 C 28.035156 32.429688 27.914062 33.429688 27.945312 34.445312 C 27.953125 34.652344 27.996094 34.875 27.9375 35.066406 C 27.886719 35.230469 27.714844 35.351562 27.585938 35.503906 C 26.910156 35.605469 26.222656 35.574219 25.53125 35.542969 C 25.132812 35.523438 24.730469 35.53125 24.328125 35.53125 C 24.183594 35.53125 24.035156 35.550781 23.886719 35.542969 C 23.484375 35.523438 23.398438 35.417969 23.359375 35 C 23.246094 33.695312 23.414062 32.402344 23.4375 31.101562 C 23.445312 30.710938 23.460938 30.320312 23.476562 29.894531 Z M 23.839844 30.160156 C 23.816406 30.242188 23.792969 30.28125 23.792969 30.320312 C 23.742188 31.414062 23.695312 32.507812 23.652344 33.597656 C 23.640625 33.871094 23.648438 34.144531 23.648438 34.421875 C 23.648438 34.695312 23.722656 34.953125 23.84375 35.195312 C 24.148438 35.195312 24.417969 35.195312 24.691406 35.195312 C 25.515625 35.203125 26.339844 35.210938 27.160156 35.214844 C 27.28125 35.214844 27.402344 35.199219 27.542969 35.1875 C 27.558594 34.960938 27.566406 34.777344 27.578125 34.59375 C 27.601562 34.089844 27.617188 33.582031 27.652344 33.078125 C 27.710938 32.21875 27.785156 31.359375 27.847656 30.5 C 27.855469 30.382812 27.824219 30.261719 27.8125 30.15625 C 27.179688 30.011719 26.164062 29.984375 24.375 30.070312 C 24.191406 30.078125 24.007812 30.132812 23.839844 30.160156 Z M 23.839844 30.160156 " fill-opacity="1" fill-rule="nonzero"/><path fill="#000000" d="M 26.910156 28.191406 C 26.953125 28.449219 26.992188 28.691406 27.039062 28.972656 C 26.9375 29.007812 26.84375 29.074219 26.753906 29.070312 C 26.003906 29.0625 25.246094 29.039062 24.492188 29.015625 C 24.4375 29.015625 24.378906 28.976562 24.292969 28.941406 C 24.285156 28.828125 24.273438 28.707031 24.273438 28.589844 C 24.273438 28.464844 24.285156 28.339844 24.292969 28.207031 C 24.71875 28 25.164062 28.042969 25.589844 28.066406 C 26.019531 28.089844 26.464844 28.070312 26.910156 28.191406 Z M 26.910156 28.191406 " fill-opacity="1" fill-rule="nonzero"/><path fill="#000000" d="M 6.285156 12.679688 C 6.621094 12.488281 6.917969 12.472656 7.210938 12.507812 C 7.785156 12.574219 8.347656 12.589844 8.898438 12.386719 C 8.996094 12.355469 9.105469 12.355469 9.210938 12.355469 C 10.796875 12.351562 12.378906 12.335938 13.960938 12.355469 C 14.761719 12.363281 15.5625 12.441406 16.363281 12.46875 C 16.765625 12.480469 17.167969 12.425781 17.566406 12.429688 C 18.832031 12.445312 20.101562 12.457031 21.367188 12.5 C 22.359375 12.535156 23.347656 12.617188 24.339844 12.671875 C 24.546875 12.683594 24.761719 12.683594 24.972656 12.671875 C 25.5 12.648438 26.023438 12.613281 26.550781 12.585938 C 27.519531 12.539062 28.488281 12.46875 29.457031 12.460938 C 30.386719 12.449219 31.316406 12.476562 32.242188 12.363281 C 32.367188 12.347656 32.496094 12.339844 32.621094 12.359375 C 33.738281 12.515625 34.847656 12.496094 35.96875 12.375 C 36.324219 12.339844 36.6875 12.351562 37.042969 12.347656 C 37.910156 12.339844 38.777344 12.339844 39.640625 12.335938 C 39.726562 12.335938 39.808594 12.324219 39.894531 12.332031 C 40.207031 12.359375 40.40625 12.546875 40.410156 12.859375 C 40.414062 13.257812 40.402344 13.660156 40.371094 14.058594 C 40.320312 14.6875 40.285156 15.3125 40.332031 15.949219 C 40.386719 16.703125 40.375 17.464844 40.394531 18.222656 C 40.398438 18.324219 40.394531 18.429688 40.394531 18.554688 C 40.511719 18.636719 40.625 18.71875 40.734375 18.800781 C 40.707031 18.855469 40.695312 18.90625 40.667969 18.914062 C 40.347656 19.03125 40.011719 19.019531 39.671875 19.011719 C 39.144531 19 38.621094 19.003906 38.09375 19.011719 C 37.484375 19.015625 36.871094 19.039062 36.257812 19.042969 C 34.632812 19.058594 33.003906 19.074219 31.382812 19.074219 C 29.945312 19.074219 28.511719 19.042969 27.074219 19.042969 C 26.144531 19.042969 25.214844 19.035156 24.289062 19.101562 C 23.296875 19.167969 22.308594 19.054688 21.320312 19.070312 C 20.472656 19.085938 19.628906 19.113281 18.785156 19.109375 C 17.964844 19.105469 17.144531 19.078125 16.320312 19.054688 C 14.863281 19.015625 13.410156 18.96875 11.957031 19.152344 C 11.832031 19.167969 11.703125 19.15625 11.578125 19.164062 C 11.15625 19.195312 10.738281 19.234375 10.316406 19.257812 C 10.003906 19.273438 9.683594 19.269531 9.367188 19.28125 C 8.546875 19.3125 7.71875 19.25 6.902344 19.375 C 6.664062 19.410156 6.484375 19.28125 6.429688 19.058594 C 6.40625 18.957031 6.402344 18.847656 6.410156 18.746094 C 6.539062 16.976562 6.347656 15.210938 6.355469 13.449219 C 6.355469 13.199219 6.3125 12.953125 6.289062 12.679688 Z M 6.871094 19.007812 C 7.097656 18.988281 7.34375 18.953125 7.59375 18.953125 C 9.027344 18.957031 10.460938 18.875 11.894531 18.785156 C 12.296875 18.757812 12.695312 18.71875 13.09375 18.707031 C 13.769531 18.6875 14.445312 18.675781 15.121094 18.6875 C 15.796875 18.699219 16.472656 18.769531 17.148438 18.773438 C 19.15625 18.792969 21.160156 18.808594 23.167969 18.796875 C 24.4375 18.789062 25.703125 18.71875 26.96875 18.703125 C 28.085938 18.683594 29.203125 18.691406 30.320312 18.703125 C 30.847656 18.707031 31.371094 18.773438 31.898438 18.765625 C 33.398438 18.753906 34.894531 18.71875 36.394531 18.695312 C 37.472656 18.679688 38.550781 18.667969 39.625 18.648438 C 39.746094 18.648438 39.867188 18.625 40.023438 18.605469 C 40.027344 16.722656 39.949219 14.871094 40.054688 13.019531 C 40.058594 12.921875 40.023438 12.820312 40 12.695312 C 39.863281 12.675781 39.742188 12.644531 39.621094 12.648438 C 39.03125 12.660156 38.441406 12.6875 37.847656 12.695312 C 37.617188 12.699219 37.386719 12.632812 37.15625 12.644531 C 36.398438 12.6875 35.644531 12.757812 34.886719 12.804688 C 34.65625 12.820312 34.417969 12.824219 34.191406 12.800781 C 33.074219 12.683594 31.957031 12.667969 30.835938 12.777344 C 30.542969 12.804688 30.242188 12.84375 29.953125 12.800781 C 29.363281 12.714844 28.78125 12.769531 28.191406 12.808594 C 26.652344 12.910156 25.113281 13.011719 23.570312 12.949219 C 22.621094 12.90625 21.671875 12.863281 20.722656 12.824219 C 19.964844 12.792969 19.203125 12.761719 18.445312 12.742188 C 18.042969 12.734375 17.644531 12.75 17.242188 12.761719 C 16.949219 12.769531 16.652344 12.816406 16.359375 12.808594 C 15.304688 12.78125 14.246094 12.730469 13.191406 12.707031 C 12.625 12.695312 12.058594 12.660156 11.488281 12.695312 C 10.777344 12.738281 10.054688 12.703125 9.339844 12.707031 C 9.191406 12.707031 9.035156 12.695312 8.898438 12.734375 C 8.316406 12.890625 7.726562 12.878906 7.136719 12.886719 C 6.996094 12.886719 6.855469 12.929688 6.710938 12.953125 C 6.695312 13.074219 6.671875 13.15625 6.671875 13.238281 C 6.710938 15.109375 6.75 16.984375 6.792969 18.855469 C 6.792969 18.894531 6.832031 18.929688 6.871094 19.003906 Z M 6.871094 19.007812 " fill-opacity="1" fill-rule="nonzero"/><path fill="#000000" d="M 16.015625 28.675781 C 15.238281 28.710938 14.460938 28.742188 13.679688 28.78125 C 13.472656 28.792969 13.261719 28.820312 13.054688 28.847656 C 12.574219 28.90625 12.09375 28.96875 11.613281 29.023438 C 11.550781 29.027344 11.480469 29.015625 11.429688 28.984375 C 11.382812 28.953125 11.328125 28.890625 11.328125 28.839844 C 11.328125 28.792969 11.390625 28.746094 11.425781 28.703125 C 11.4375 28.691406 11.464844 28.691406 11.488281 28.691406 C 12.894531 28.621094 14.289062 28.324219 15.707031 28.390625 C 16.023438 28.40625 16.335938 28.335938 16.652344 28.316406 C 16.839844 28.304688 17.027344 28.3125 17.21875 28.328125 C 17.257812 28.332031 17.316406 28.421875 17.316406 28.46875 C 17.316406 28.515625 17.257812 28.585938 17.210938 28.605469 C 17.136719 28.640625 17.046875 28.648438 16.964844 28.648438 C 16.648438 28.652344 16.332031 28.648438 16.015625 28.648438 C 16.015625 28.660156 16.015625 28.667969 16.015625 28.675781 Z M 16.015625 28.675781 " fill-opacity="1" fill-rule="nonzero"/><path fill="#000000" d="M 17.992188 21.324219 C 17.292969 21.367188 16.558594 21.433594 15.824219 21.460938 C 14.242188 21.519531 12.664062 21.566406 11.082031 21.613281 C 10.878906 21.617188 10.664062 21.660156 10.4375 21.488281 C 10.511719 21.429688 10.566406 21.351562 10.621094 21.347656 C 10.9375 21.328125 11.253906 21.335938 11.570312 21.308594 C 13.019531 21.179688 14.476562 21.25 15.929688 21.179688 C 16.519531 21.152344 17.105469 21.085938 17.695312 21.039062 C 17.777344 21.03125 17.871094 21.011719 17.945312 21.039062 C 18.058594 21.078125 18.097656 21.171875 17.992188 21.324219 Z M 17.992188 21.324219 " fill-opacity="1" fill-rule="nonzero"/><path fill="#000000" d="M 30.824219 28.085938 C 30.976562 28.066406 31.078125 28.042969 31.175781 28.042969 C 31.824219 28.046875 32.46875 27.964844 33.125 27.988281 C 33.730469 28.007812 34.339844 27.921875 34.949219 27.898438 C 35.390625 27.875 35.832031 27.871094 36.273438 27.871094 C 36.390625 27.871094 36.507812 27.917969 36.652344 27.949219 C 36.605469 28.03125 36.589844 28.109375 36.546875 28.128906 C 36.472656 28.160156 36.382812 28.167969 36.304688 28.164062 C 35.714844 28.140625 35.132812 28.15625 34.542969 28.242188 C 34.066406 28.3125 33.578125 28.273438 33.09375 28.289062 C 32.484375 28.308594 31.878906 28.328125 31.269531 28.351562 C 31.097656 28.359375 30.929688 28.378906 30.824219 28.085938 Z M 30.824219 28.085938 " fill-opacity="1" fill-rule="nonzero"/></svg>