<svg xmlns="http://www.w3.org/2000/svg" xmlns:xlink="http://www.w3.org/1999/xlink" width="62" zoomAndPan="magnify" viewBox="0 0 46.5 46.5" height="62" preserveAspectRatio="xMidYMid meet" version="1.0"><defs><clipPath id="be5ec02f8e"><path d="M 3 4.601562 L 43.070312 4.601562 L 43.070312 41.703125 L 3 41.703125 Z M 3 4.601562 " clip-rule="nonzero"/></clipPath></defs><g clip-path="url(#be5ec02f8e)"><path fill="#000000" d="M 10.132812 34.84375 C 9.867188 34.894531 9.800781 35.144531 9.714844 35.332031 C 9.320312 36.1875 8.953125 37.054688 8.574219 37.914062 C 8.175781 38.824219 7.777344 39.730469 7.378906 40.636719 C 7.359375 40.683594 7.328125 40.742188 7.292969 40.757812 C 7.226562 40.78125 7.136719 40.800781 7.082031 40.769531 C 7.03125 40.742188 6.96875 40.648438 6.980469 40.59375 C 7 40.472656 7.058594 40.355469 7.113281 40.238281 C 7.207031 40.035156 7.308594 39.835938 7.433594 39.582031 C 6.773438 39.378906 6.148438 39.441406 5.527344 39.46875 C 4.902344 39.5 4.273438 39.539062 3.667969 39.574219 C 3.386719 39.339844 3.300781 39.089844 3.3125 38.75 C 3.375 36.636719 3.402344 34.519531 3.457031 32.40625 C 3.496094 30.851562 3.539062 29.296875 3.613281 27.746094 C 3.648438 26.984375 3.753906 26.226562 3.828125 25.464844 C 3.84375 25.289062 3.863281 25.109375 3.867188 24.929688 C 3.914062 23.582031 3.941406 22.234375 4.003906 20.886719 C 4.03125 20.285156 3.929688 19.726562 3.691406 19.1875 C 3.503906 18.765625 3.554688 18.394531 3.851562 18.050781 C 3.9375 17.957031 4.035156 17.875 4.113281 17.769531 C 4.167969 17.691406 4.199219 17.59375 4.269531 17.449219 C 4.128906 17.40625 4.015625 17.386719 3.917969 17.335938 C 3.691406 17.222656 3.5625 17.046875 3.621094 16.78125 C 3.75 16.199219 3.679688 15.617188 3.652344 15.03125 C 3.601562 13.734375 3.5 12.425781 3.578125 11.132812 C 3.640625 10.109375 3.535156 9.097656 3.578125 8.058594 C 3.085938 7.828125 2.957031 7.429688 3.066406 6.921875 C 3.1875 6.371094 3.421875 5.890625 4.019531 5.75 C 4.304688 5.683594 4.628906 5.664062 4.917969 5.714844 C 5.976562 5.90625 7.039062 5.894531 8.101562 5.863281 C 9.140625 5.828125 10.183594 5.832031 11.21875 5.792969 C 12.355469 5.75 13.492188 5.671875 14.628906 5.613281 C 15.109375 5.589844 15.59375 5.605469 16.074219 5.566406 C 17.921875 5.410156 19.773438 5.394531 21.621094 5.363281 C 21.773438 5.359375 21.925781 5.335938 22.074219 5.320312 C 24.117188 5.128906 26.152344 4.855469 28.207031 4.804688 C 29.042969 4.785156 29.875 4.683594 30.710938 4.683594 C 31.976562 4.683594 33.242188 4.746094 34.507812 4.765625 C 36.15625 4.796875 37.800781 4.820312 39.449219 4.679688 C 40.152344 4.621094 40.867188 4.621094 41.574219 4.601562 C 41.726562 4.597656 41.878906 4.601562 42.03125 4.621094 C 42.425781 4.671875 42.683594 4.902344 42.769531 5.285156 C 42.824219 5.53125 42.839844 5.792969 42.839844 6.046875 C 42.851562 7.140625 42.855469 8.238281 42.855469 9.335938 C 42.855469 10.277344 42.851562 11.21875 42.851562 12.160156 C 42.851562 12.261719 42.824219 12.375 42.859375 12.464844 C 43.078125 13.03125 42.976562 13.625 43.027344 14.203125 C 43.066406 14.671875 42.976562 15.074219 42.527344 15.265625 C 42.46875 15.511719 42.601562 15.648438 42.738281 15.753906 C 43.027344 15.972656 43.101562 16.269531 42.964844 16.566406 C 42.765625 17.007812 42.792969 17.464844 42.785156 17.917969 C 42.742188 19.878906 42.710938 21.84375 42.695312 23.808594 C 42.6875 24.574219 42.730469 25.335938 42.734375 26.101562 C 42.738281 26.609375 42.710938 27.121094 42.695312 27.628906 C 42.664062 28.648438 42.632812 29.664062 42.601562 30.683594 C 42.601562 30.734375 42.597656 30.785156 42.605469 30.832031 C 42.726562 31.878906 42.496094 32.90625 42.46875 33.945312 C 42.460938 34.324219 42.414062 34.707031 42.386719 35.085938 C 42.316406 36.011719 42.496094 36.917969 42.550781 37.832031 C 42.558594 37.96875 42.675781 38.097656 42.761719 38.261719 C 42.644531 38.507812 42.472656 38.652344 42.128906 38.601562 C 40.699219 38.394531 39.257812 38.332031 37.8125 38.390625 C 37.308594 38.410156 36.796875 38.433594 36.296875 38.390625 C 34.945312 38.273438 33.617188 38.5 32.28125 38.582031 C 31.574219 38.625 30.867188 38.695312 30.160156 38.761719 C 29.230469 38.84375 28.300781 38.949219 27.371094 39.015625 C 26.539062 39.074219 25.703125 39.09375 24.867188 39.128906 C 24.5625 39.140625 24.257812 39.148438 23.953125 39.160156 C 23.09375 39.1875 22.230469 39.265625 21.371094 39.226562 C 20.617188 39.195312 19.863281 39.167969 19.109375 39.171875 C 18.601562 39.179688 18.097656 39.226562 17.59375 39.273438 C 17.066406 39.320312 16.539062 39.390625 15.964844 39.457031 C 15.769531 39.609375 15.542969 39.8125 15.289062 39.972656 C 14.941406 40.1875 14.730469 40.105469 14.578125 39.730469 C 14.515625 39.570312 14.464844 39.40625 14.410156 39.253906 C 13.8125 39.363281 12.871094 39.828125 12.007812 40.421875 C 11.894531 40.648438 12.054688 40.855469 12.078125 41.078125 C 12.109375 41.351562 12.046875 41.492188 11.8125 41.542969 C 11.445312 41.621094 11.082031 41.765625 10.640625 41.660156 C 10.550781 40.871094 10.605469 40.050781 10.34375 39.257812 C 9.96875 39.277344 9.6875 39.511719 9.382812 39.679688 C 9.269531 39.738281 9.175781 39.824219 9.070312 39.894531 C 8.671875 40.175781 8.339844 40.503906 8.226562 41.011719 C 8.183594 41.199219 8.128906 41.417969 7.84375 41.523438 C 7.585938 41.441406 7.285156 41.34375 6.996094 41.25 C 6.921875 41.058594 7.003906 40.972656 7.148438 40.960938 C 7.347656 40.945312 7.542969 40.953125 7.765625 40.953125 C 7.929688 40.523438 8.105469 40.128906 8.230469 39.71875 C 8.714844 38.160156 9.347656 36.660156 10.039062 35.183594 C 10.089844 35.074219 10.09375 34.941406 10.117188 34.820312 C 10.152344 34.789062 10.273438 34.785156 10.160156 34.699219 C 10.152344 34.746094 10.140625 34.789062 10.132812 34.835938 Z M 12.574219 39.574219 C 12.683594 39.53125 12.792969 39.484375 12.902344 39.441406 C 12.9375 39.402344 12.96875 39.363281 13.003906 39.324219 C 12.984375 39.324219 12.945312 39.320312 12.941406 39.328125 C 12.929688 39.367188 12.925781 39.410156 12.917969 39.449219 C 12.808594 39.496094 12.703125 39.542969 12.59375 39.589844 C 12.457031 39.59375 12.316406 39.578125 12.234375 39.726562 C 12.164062 39.734375 12.09375 39.742188 12.023438 39.757812 C 12.007812 39.757812 11.996094 39.789062 11.980469 39.804688 C 12.019531 39.824219 12.078125 39.867188 12.09375 39.855469 C 12.144531 39.816406 12.175781 39.757812 12.21875 39.707031 C 12.351562 39.699219 12.496094 39.730469 12.574219 39.574219 Z M 28.316406 33.226562 C 28.367188 33.175781 28.460938 33.132812 28.46875 33.074219 C 28.558594 32.5625 28.578125 32.046875 28.464844 31.53125 C 28.390625 32.097656 28.289062 32.664062 28.335938 33.242188 C 28.214844 33.707031 28.265625 34.175781 28.332031 34.640625 C 28.375 34.167969 28.535156 33.695312 28.316406 33.226562 Z M 40.953125 14.6875 L 40.941406 14.671875 C 41.457031 14.996094 41.976562 14.9375 42.554688 14.714844 C 42.523438 14.15625 42.664062 13.613281 42.449219 13.058594 C 41.910156 13.085938 41.386719 13.027344 40.863281 13.269531 C 40.886719 13.757812 40.738281 14.230469 40.957031 14.691406 Z M 28.933594 23.433594 C 29.097656 23.402344 29.101562 23.273438 29.109375 23.144531 C 29.160156 22.359375 29.214844 21.574219 29.261719 20.789062 C 29.273438 20.609375 29.265625 20.433594 29.261719 20.253906 C 29.222656 18.65625 29.183594 17.054688 29.144531 15.457031 C 29.136719 15.074219 29.148438 14.695312 29.136719 14.3125 C 29.132812 14.171875 29.167969 14 28.960938 13.886719 C 28.890625 13.964844 28.789062 14.042969 28.734375 14.140625 C 28.367188 14.78125 27.945312 15.378906 27.472656 15.945312 C 27.398438 16.035156 27.367188 16.164062 27.3125 16.277344 C 27.132812 16.382812 26.992188 16.515625 27.019531 16.75 C 26.917969 16.851562 26.796875 16.9375 26.714844 17.054688 C 26.53125 17.324219 26.355469 17.605469 26.191406 17.890625 C 26.039062 18.160156 25.832031 18.269531 25.519531 18.265625 C 24.386719 18.261719 23.257812 18.363281 22.148438 18.597656 C 22.050781 18.617188 21.949219 18.617188 21.863281 18.625 C 21.621094 18.488281 21.488281 18.285156 21.367188 18.054688 C 21.148438 17.65625 20.894531 17.277344 20.660156 16.890625 C 20.601562 16.796875 20.523438 16.75 20.414062 16.800781 C 20.421875 16.703125 20.472656 16.585938 20.433594 16.515625 C 20.105469 15.886719 19.765625 15.269531 19.421875 14.65625 C 19.371094 14.5625 19.289062 14.503906 19.175781 14.578125 C 19.074219 15.59375 19.089844 16.019531 19.253906 16.605469 C 19.664062 16.519531 20.089844 16.410156 20.433594 16.785156 C 20.515625 17.046875 20.644531 17.308594 20.675781 17.578125 C 20.742188 18.1875 20.769531 18.800781 20.800781 19.410156 C 20.824219 19.917969 20.828125 20.429688 20.84375 20.9375 C 20.859375 21.320312 20.902344 21.703125 20.886719 22.085938 C 20.859375 22.847656 20.777344 23.609375 20.761719 24.371094 C 20.71875 26.484375 20.699219 28.597656 20.671875 30.710938 C 20.667969 31.015625 20.683594 31.320312 20.691406 31.625 C 20.710938 32.441406 20.730469 33.253906 20.75 34.070312 C 20.753906 34.308594 20.703125 34.523438 20.480469 34.660156 C 19.984375 34.960938 19.492188 35.261719 19.023438 35.546875 C 18.765625 35.445312 18.769531 35.265625 18.773438 35.085938 C 18.78125 34.34375 18.808594 33.605469 18.796875 32.867188 C 18.777344 31.589844 18.722656 30.316406 18.714844 29.042969 C 18.710938 28.046875 18.769531 27.054688 18.777344 26.058594 C 18.796875 24.046875 18.816406 22.035156 18.8125 20.023438 C 18.808594 18.722656 18.839844 17.421875 18.671875 16.125 C 18.628906 15.773438 18.679688 15.414062 18.671875 15.054688 C 18.667969 14.863281 18.632812 14.664062 18.613281 14.496094 C 18.515625 14.460938 18.46875 14.429688 18.425781 14.433594 C 17.082031 14.507812 15.742188 14.546875 14.402344 14.664062 C 13.320312 14.757812 12.242188 14.949219 11.148438 14.925781 C 10.746094 14.917969 10.339844 14.925781 9.90625 14.925781 C 10.050781 15.117188 10.210938 15.039062 10.351562 15.042969 C 10.660156 15.054688 10.828125 15.136719 10.828125 15.292969 C 10.828125 15.527344 10.628906 15.558594 10.472656 15.632812 C 9.992188 15.859375 9.484375 16.039062 9.042969 16.332031 C 8.285156 16.832031 7.476562 17.277344 6.894531 18.015625 C 6.882812 18.035156 6.859375 18.054688 6.835938 18.058594 C 6.714844 18.066406 6.582031 18.097656 6.472656 18.066406 C 6.339844 18.023438 6.285156 17.875 6.332031 17.753906 C 6.496094 17.332031 6.441406 16.898438 6.464844 16.464844 C 6.472656 16.3125 6.472656 16.160156 6.488281 16.007812 C 6.535156 15.558594 6.808594 15.28125 7.25 15.203125 C 7.457031 15.164062 7.707031 15.230469 7.878906 14.996094 C 6.695312 14.871094 6.570312 14.882812 5.988281 15.15625 C 5.851562 15.71875 5.792969 16.296875 5.875 16.886719 C 5.886719 16.957031 5.855469 17.035156 5.84375 17.097656 C 5.6875 17.203125 5.542969 17.296875 5.410156 17.386719 C 5.386719 17.703125 5.570312 17.894531 5.714844 18.09375 C 5.855469 18.296875 5.90625 18.511719 5.859375 18.746094 C 5.8125 18.96875 5.746094 19.191406 5.691406 19.414062 C 5.652344 19.582031 5.597656 19.757812 5.589844 19.929688 C 5.5625 20.644531 5.550781 21.359375 5.539062 22.070312 C 5.535156 22.199219 5.5625 22.324219 5.574219 22.449219 C 5.707031 22.171875 5.769531 21.902344 5.800781 21.628906 C 5.960938 20.234375 6.699219 19.152344 7.652344 18.203125 C 8.308594 17.542969 9.140625 17.144531 9.964844 16.753906 C 10.769531 16.375 11.613281 16.09375 12.519531 16.09375 C 12.722656 16.09375 12.925781 16.03125 13.125 16.03125 C 13.398438 16.035156 13.691406 16.019531 13.949219 16.105469 C 14.679688 16.335938 15.355469 16.683594 15.929688 17.203125 C 16.199219 17.445312 16.417969 17.714844 16.503906 18.082031 C 16.65625 18.722656 16.789062 19.375 16.984375 20.007812 C 17.257812 20.898438 17.320312 21.804688 17.304688 22.722656 C 17.277344 24.203125 17.347656 25.679688 17.171875 27.15625 C 17.046875 28.222656 17.167969 29.300781 17.347656 30.359375 C 17.433594 30.875 17.414062 31.363281 17.21875 31.851562 C 16.242188 32.085938 15.242188 31.960938 14.300781 32.265625 C 14.410156 32.53125 14.523438 32.699219 14.816406 32.691406 C 15.347656 32.683594 15.878906 32.707031 16.410156 32.714844 C 16.667969 32.71875 16.914062 32.71875 17.066406 32.441406 C 17.125 32.335938 17.339844 32.410156 17.363281 32.527344 C 17.390625 32.652344 17.410156 32.78125 17.414062 32.902344 C 17.429688 33.847656 17.445312 34.789062 17.453125 35.730469 C 17.457031 36.164062 17.433594 36.597656 17.425781 37.03125 C 17.421875 37.152344 17.433594 37.269531 17.445312 37.511719 C 18.71875 36.816406 19.796875 35.988281 20.949219 35.207031 C 20.960938 34.101562 20.96875 33.007812 20.976562 31.910156 C 20.984375 30.535156 20.929688 29.152344 21.007812 27.78125 C 21.105469 26.125 21.078125 24.46875 21.101562 22.808594 C 21.113281 21.871094 21.136719 20.933594 21.160156 19.992188 C 21.164062 19.890625 21.183594 19.789062 21.203125 19.6875 C 21.269531 19.394531 21.472656 19.203125 21.773438 19.160156 C 21.847656 19.152344 21.925781 19.160156 22.003906 19.152344 C 22.578125 19.082031 23.152344 18.992188 23.730469 18.945312 C 24.335938 18.894531 24.945312 18.859375 25.550781 18.863281 C 25.933594 18.863281 26.089844 19.074219 26.097656 19.449219 C 26.097656 19.550781 26.085938 19.65625 26.082031 19.757812 C 26.046875 20.929688 26.003906 22.101562 25.976562 23.273438 C 25.953125 24.417969 25.933594 25.566406 25.925781 26.714844 C 25.917969 28.039062 25.933594 29.363281 25.917969 30.6875 C 25.910156 31.402344 25.851562 32.113281 25.835938 32.824219 C 25.820312 33.582031 25.828125 34.34375 25.914062 35.105469 C 26.433594 35.441406 26.914062 35.769531 27.414062 36.070312 C 27.921875 36.378906 28.378906 36.777344 28.984375 37.015625 C 29.089844 35.773438 29.191406 34.589844 29.292969 33.390625 C 29.546875 33.226562 29.8125 33.121094 30.125 33.082031 C 30.90625 32.992188 31.683594 32.894531 32.453125 32.757812 C 33.253906 32.613281 34.046875 32.472656 34.863281 32.496094 C 35.21875 32.503906 35.570312 32.445312 35.925781 32.421875 C 36.960938 32.355469 37.996094 32.289062 39.03125 32.230469 C 39.511719 32.199219 39.996094 32.1875 40.476562 32.152344 C 40.550781 32.148438 40.621094 32.070312 40.855469 31.929688 C 40.425781 31.929688 40.183594 31.929688 39.941406 31.929688 C 39.230469 31.933594 38.523438 31.9375 37.8125 31.941406 C 37.585938 31.941406 37.355469 31.941406 37.128906 31.953125 C 36.699219 31.980469 36.269531 32.035156 35.839844 32.046875 C 34.855469 32.078125 33.863281 32.082031 32.898438 32.339844 C 32.753906 32.378906 32.597656 32.394531 32.449219 32.40625 C 31.566406 32.480469 30.679688 32.546875 29.796875 32.621094 C 29.605469 32.636719 29.449219 32.59375 29.304688 32.394531 C 29.585938 31.785156 29.59375 31.105469 29.609375 30.421875 C 29.65625 28.640625 29.683594 26.855469 29.757812 25.070312 C 29.800781 24.03125 29.84375 22.988281 30.167969 21.976562 C 30.390625 21.273438 30.480469 20.523438 30.746094 19.84375 C 31.402344 18.175781 32.402344 16.757812 33.90625 15.730469 C 34.464844 15.351562 35.046875 15.121094 35.722656 15.023438 C 36.554688 14.90625 37.34375 15.035156 38.109375 15.292969 C 39.277344 15.683594 40.023438 16.503906 40.195312 17.769531 C 40.234375 18.074219 40.246094 18.382812 40.269531 18.6875 C 40.292969 19.042969 40.308594 19.398438 40.335938 19.753906 C 40.402344 20.644531 40.519531 21.53125 40.527344 22.421875 C 40.542969 24.027344 40.488281 25.636719 40.472656 27.242188 C 40.457031 28.3125 40.453125 29.382812 40.453125 30.457031 C 40.453125 30.550781 40.503906 30.65625 40.6875 30.632812 C 40.832031 30.265625 40.832031 29.867188 40.832031 29.464844 C 40.835938 28.574219 40.832031 27.679688 40.855469 26.789062 C 40.898438 25.03125 40.960938 23.273438 41.011719 21.515625 C 41.039062 20.546875 41.042969 19.578125 41.09375 18.609375 C 41.113281 18.21875 41.0625 17.851562 40.996094 17.503906 C 40.929688 17.453125 40.898438 17.414062 40.855469 17.390625 C 40.785156 17.359375 40.707031 17.347656 40.644531 17.308594 C 40.125 16.964844 40.070312 16.695312 40.410156 16.171875 C 40.5625 15.9375 40.726562 15.714844 40.878906 15.492188 C 40.445312 15.039062 40.472656 15.039062 40.40625 14.359375 C 40.371094 13.960938 40.453125 13.546875 40.277344 13.132812 C 40.117188 13.117188 39.972656 13.097656 39.824219 13.085938 C 39.238281 13.050781 38.664062 13.167969 38.085938 13.203125 C 36.1875 13.332031 34.289062 13.421875 32.390625 13.523438 C 31.46875 13.574219 30.542969 13.617188 29.632812 13.660156 C 29.632812 14.277344 29.621094 14.863281 29.632812 15.445312 C 29.65625 16.71875 29.699219 17.992188 29.71875 19.265625 C 29.730469 19.953125 29.746094 20.644531 29.710938 21.332031 C 29.644531 22.503906 29.539062 23.671875 29.449219 24.84375 C 29.359375 26.089844 29.257812 27.332031 29.179688 28.582031 C 29.078125 30.210938 28.992188 31.839844 28.910156 33.46875 C 28.878906 34.132812 28.875 34.792969 28.851562 35.457031 C 28.847656 35.574219 28.8125 35.6875 28.792969 35.800781 C 28.101562 35.734375 27.523438 35.441406 26.132812 34.464844 C 26.132812 34.332031 26.097656 34.167969 26.136719 34.03125 C 26.296875 33.453125 26.265625 32.859375 26.207031 32.28125 C 26.082031 31.054688 26.230469 29.839844 26.3125 28.621094 C 26.378906 27.679688 26.40625 26.738281 26.390625 25.796875 C 26.378906 24.902344 26.320312 24.011719 26.320312 23.117188 C 26.320312 21.972656 26.402344 20.824219 26.371094 19.679688 C 26.347656 18.785156 26.511719 17.960938 26.890625 17.164062 C 26.953125 17.035156 26.964844 16.882812 27.003906 16.742188 C 27.253906 16.675781 27.300781 16.488281 27.292969 16.261719 C 27.371094 16.21875 27.464844 16.1875 27.527344 16.128906 C 27.699219 15.976562 27.851562 15.8125 28.019531 15.65625 C 28.226562 15.464844 28.476562 15.433594 28.722656 15.554688 C 28.921875 15.652344 28.972656 15.859375 28.972656 16.074219 C 28.972656 16.277344 28.960938 16.480469 28.960938 16.679688 C 28.949219 17.945312 28.875 19.210938 28.929688 20.480469 C 28.972656 21.46875 28.941406 22.460938 28.949219 23.453125 C 28.921875 23.523438 28.878906 23.59375 28.875 23.664062 C 28.75 24.976562 28.648438 26.292969 28.667969 27.613281 C 28.667969 27.703125 28.691406 27.792969 28.714844 27.925781 C 28.769531 27.832031 28.8125 27.789062 28.816406 27.746094 C 28.890625 26.480469 28.96875 25.214844 29.027344 23.949219 C 29.035156 23.78125 28.964844 23.609375 28.929688 23.4375 Z M 6.011719 14.535156 C 6.339844 14.535156 6.589844 14.519531 6.835938 14.539062 C 7.976562 14.636719 9.117188 14.605469 10.257812 14.585938 C 11.476562 14.566406 12.6875 14.496094 13.894531 14.304688 C 14.46875 14.210938 15.050781 14.171875 15.632812 14.128906 C 16.390625 14.078125 17.148438 14.050781 17.90625 14.003906 C 18.183594 13.984375 18.46875 13.96875 18.734375 13.894531 C 19.570312 13.652344 20.429688 13.597656 21.285156 13.535156 C 22.851562 13.421875 24.417969 13.300781 25.988281 13.199219 C 26.792969 13.148438 27.601562 13.117188 28.40625 13.117188 C 28.753906 13.117188 29.117188 13.078125 29.449219 13.132812 C 30.164062 13.246094 30.867188 13.183594 31.574219 13.152344 C 33.015625 13.089844 34.457031 13.003906 35.894531 12.921875 C 36.199219 12.902344 36.5 12.863281 36.804688 12.84375 C 37.816406 12.789062 38.816406 12.601562 39.832031 12.640625 C 40 12.644531 40.171875 12.605469 40.355469 12.585938 C 40.390625 11.984375 40.4375 11.429688 40.457031 10.875 C 40.488281 9.988281 40.515625 9.097656 40.523438 8.207031 C 40.527344 7.707031 40.117188 7.289062 39.628906 7.273438 C 38.691406 7.242188 37.753906 7.226562 36.816406 7.324219 C 35.882812 7.417969 34.949219 7.507812 34.015625 7.539062 C 31.863281 7.605469 29.707031 7.589844 27.554688 7.679688 C 25.832031 7.753906 24.105469 7.6875 22.386719 7.847656 C 21.328125 7.949219 20.269531 8.039062 19.210938 8.117188 C 18.453125 8.175781 17.695312 8.242188 16.9375 8.25 C 15.597656 8.261719 14.253906 8.210938 12.914062 8.222656 C 11.847656 8.234375 10.785156 8.328125 9.722656 8.320312 C 8.863281 8.316406 8.007812 8.457031 7.144531 8.386719 C 6.683594 8.347656 6.199219 8.394531 5.78125 8.527344 C 5.78125 9.113281 5.792969 9.648438 5.777344 10.183594 C 5.761719 10.847656 5.691406 11.507812 5.699219 12.171875 C 5.707031 12.957031 5.765625 13.746094 6.007812 14.53125 Z M 5.882812 31.140625 C 6.238281 31.148438 6.585938 31.140625 6.9375 31.164062 C 7.617188 31.203125 8.300781 31.296875 8.980469 31.300781 C 10.296875 31.308594 11.617188 31.355469 12.933594 31.203125 C 13.710938 31.113281 14.503906 31.140625 15.285156 31.09375 C 15.804688 31.066406 16.335938 31.0625 16.839844 30.816406 C 16.839844 30.589844 16.84375 30.386719 16.839844 30.183594 C 16.820312 29.242188 16.644531 28.300781 16.734375 27.359375 C 16.832031 26.367188 16.847656 25.375 16.839844 24.382812 C 16.835938 24.125 16.824219 23.871094 16.839844 23.613281 C 16.949219 21.910156 16.613281 20.265625 16.222656 18.625 C 16.128906 18.242188 15.972656 17.894531 15.695312 17.621094 C 14.921875 16.859375 14.003906 16.378906 12.902344 16.46875 C 12.074219 16.539062 11.230469 16.632812 10.472656 17.039062 C 9.804688 17.398438 9.113281 17.730469 8.488281 18.160156 C 7.242188 19.019531 6.488281 20.246094 6.226562 21.734375 C 6.054688 22.710938 5.964844 23.703125 5.898438 24.695312 C 5.761719 26.753906 5.820312 28.824219 5.820312 30.886719 C 5.820312 30.957031 5.855469 31.023438 5.886719 31.136719 Z M 39.972656 30.710938 C 39.992188 30.5 40.015625 30.375 40.015625 30.25 C 40.007812 28.878906 39.992188 27.503906 40.070312 26.128906 C 40.191406 24.039062 40.070312 21.949219 39.917969 19.867188 C 39.867188 19.207031 39.8125 18.546875 39.746094 17.890625 C 39.632812 16.773438 38.929688 16.070312 37.972656 15.703125 C 36.710938 15.222656 35.425781 15.265625 34.265625 16.054688 C 33.199219 16.78125 32.378906 17.738281 31.742188 18.867188 C 31.105469 19.988281 30.804688 21.222656 30.511719 22.460938 C 30.425781 22.804688 30.375 23.160156 30.347656 23.515625 C 30.277344 24.453125 30.207031 25.394531 30.171875 26.332031 C 30.117188 27.835938 30.09375 29.339844 30.0625 30.84375 C 30.058594 30.933594 30.105469 31.027344 30.132812 31.128906 C 30.746094 31.167969 31.320312 31.164062 31.902344 31.09375 C 32.476562 31.023438 33.0625 30.949219 33.636719 30.984375 C 35.539062 31.097656 37.433594 30.980469 39.328125 30.84375 C 39.523438 30.828125 39.71875 30.765625 39.972656 30.714844 Z M 5.453125 7.976562 C 6.394531 7.976562 7.28125 7.976562 8.167969 7.976562 C 8.21875 7.976562 8.269531 7.972656 8.320312 7.96875 C 8.925781 7.9375 9.53125 7.898438 10.140625 7.875 C 10.875 7.851562 11.609375 7.835938 12.34375 7.820312 C 13.203125 7.804688 14.0625 7.789062 14.917969 7.773438 C 15.421875 7.765625 15.9375 7.699219 16.429688 7.765625 C 17.425781 7.90625 18.402344 7.703125 19.382812 7.65625 C 20.316406 7.613281 21.25 7.484375 22.179688 7.425781 C 23.394531 7.355469 24.609375 7.3125 25.824219 7.277344 C 27.769531 7.21875 29.71875 7.15625 31.667969 7.144531 C 33.414062 7.128906 35.160156 7.035156 36.898438 6.882812 C 38.085938 6.777344 39.265625 6.820312 40.480469 6.875 C 40.640625 6.558594 40.917969 6.429688 41.277344 6.421875 C 41.453125 6.421875 41.628906 6.386719 41.804688 6.351562 C 42.199219 6.273438 42.390625 6.058594 42.371094 5.667969 C 42.359375 5.476562 42.285156 5.285156 42.246094 5.121094 C 41.535156 4.957031 40.890625 5.050781 40.234375 5.101562 C 39.171875 5.1875 38.109375 5.203125 37.046875 5.21875 C 35.90625 5.238281 34.765625 5.230469 33.625 5.21875 C 33.195312 5.214844 32.765625 5.160156 32.335938 5.164062 C 31.605469 5.167969 30.875 5.191406 30.144531 5.226562 C 28.804688 5.289062 27.464844 5.363281 26.125 5.441406 C 25.71875 5.460938 25.320312 5.496094 24.917969 5.527344 C 23.65625 5.625 22.398438 5.75 21.132812 5.8125 C 19.59375 5.886719 18.046875 5.851562 16.503906 6 C 15.421875 6.105469 14.332031 6.136719 13.246094 6.183594 C 12.285156 6.222656 11.324219 6.246094 10.363281 6.269531 C 9.449219 6.292969 8.539062 6.316406 7.625 6.316406 C 6.894531 6.316406 6.160156 6.347656 5.429688 6.203125 C 5.0625 6.128906 4.671875 6.15625 4.292969 6.148438 C 4.015625 6.144531 3.808594 6.269531 3.683594 6.527344 C 3.632812 6.640625 3.570312 6.753906 3.515625 6.871094 C 3.410156 7.109375 3.464844 7.3125 3.660156 7.464844 C 4.398438 7.359375 4.996094 7.53125 5.453125 7.976562 Z M 29.457031 38.234375 C 29.964844 38.394531 30.417969 38.304688 30.867188 38.269531 C 32.308594 38.160156 33.742188 38.03125 35.183594 37.929688 C 35.585938 37.902344 35.992188 37.941406 36.398438 37.949219 C 36.800781 37.960938 37.207031 37.980469 37.613281 37.976562 C 38.371094 37.972656 39.128906 37.933594 39.890625 37.945312 C 40.46875 37.953125 41.046875 38.019531 41.628906 38.046875 C 41.769531 38.050781 41.910156 38 42.078125 37.972656 C 42.050781 37.496094 42.015625 37.066406 42.003906 36.636719 C 41.988281 36.050781 41.972656 35.464844 41.988281 34.878906 C 41.996094 34.394531 42.054688 33.910156 42.074219 33.425781 C 42.085938 33.15625 42.121094 32.875 42.007812 32.574219 C 41.8125 32.5625 41.644531 32.542969 41.472656 32.550781 C 40.5625 32.585938 39.652344 32.628906 38.742188 32.667969 C 38.359375 32.683594 37.980469 32.683594 37.601562 32.707031 C 36.742188 32.757812 35.882812 32.820312 35.027344 32.878906 C 34.523438 32.914062 34.011719 32.933594 33.511719 32.996094 C 32.308594 33.148438 31.105469 33.320312 29.902344 33.496094 C 29.832031 33.503906 29.769531 33.558594 29.675781 33.609375 C 29.664062 33.75 29.640625 33.898438 29.632812 34.046875 C 29.609375 34.53125 29.644531 35.023438 29.558594 35.496094 C 29.394531 36.386719 29.46875 37.277344 29.453125 38.230469 Z M 28.40625 16.050781 C 28.230469 16.1875 28.140625 16.242188 28.074219 16.3125 C 27.539062 16.851562 27.269531 17.539062 27.03125 18.238281 C 26.933594 18.519531 26.902344 18.835938 26.890625 19.136719 C 26.867188 19.898438 26.882812 20.664062 26.859375 21.429688 C 26.8125 22.929688 26.847656 24.433594 26.859375 25.933594 C 26.867188 26.925781 26.871094 27.917969 26.765625 28.910156 C 26.667969 29.820312 26.644531 30.742188 26.664062 31.65625 C 26.683594 32.519531 26.707031 33.382812 26.570312 34.300781 C 26.96875 34.417969 27.257812 34.769531 27.75 34.84375 C 27.769531 34.597656 27.78125 34.402344 27.792969 34.210938 C 27.832031 33.625 27.871094 33.042969 27.910156 32.457031 C 27.96875 31.570312 28.070312 30.683594 28.085938 29.792969 C 28.132812 27.601562 28.273438 25.417969 28.445312 23.238281 C 28.511719 22.453125 28.492188 21.660156 28.464844 20.871094 C 28.414062 19.394531 28.316406 17.921875 28.476562 16.445312 C 28.484375 16.355469 28.445312 16.261719 28.40625 16.050781 Z M 21.71875 19.644531 C 21.671875 19.828125 21.640625 19.902344 21.636719 19.976562 C 21.605469 21.351562 21.582031 22.726562 21.550781 24.101562 C 21.503906 26.140625 21.453125 28.179688 21.40625 30.21875 C 21.398438 30.574219 21.394531 30.933594 21.410156 31.289062 C 21.441406 31.976562 21.503906 32.660156 21.425781 33.351562 C 21.375 33.804688 21.386719 34.265625 21.402344 34.722656 C 21.40625 34.882812 21.5 35.042969 21.550781 35.195312 C 22.835938 34.925781 24.085938 34.742188 25.324219 34.402344 C 25.347656 34.261719 25.382812 34.140625 25.390625 34.015625 C 25.410156 33.636719 25.421875 33.253906 25.433594 32.875 C 25.460938 32.210938 25.507812 31.550781 25.507812 30.886719 C 25.515625 28.921875 25.496094 26.957031 25.5 24.996094 C 25.503906 24.101562 25.53125 23.210938 25.558594 22.320312 C 25.578125 21.65625 25.617188 20.992188 25.636719 20.332031 C 25.644531 20.007812 25.695312 19.675781 25.558594 19.324219 C 25.300781 19.296875 25.046875 19.230469 24.804688 19.257812 C 23.78125 19.371094 22.753906 19.511719 21.714844 19.644531 Z M 19.308594 34.84375 C 19.960938 34.550781 20.34375 34.1875 20.230469 33.480469 C 20.214844 33.382812 20.210938 33.277344 20.207031 33.175781 C 20.199219 31.878906 20.179688 30.578125 20.191406 29.28125 C 20.203125 28.136719 20.253906 26.992188 20.289062 25.847656 C 20.328125 24.574219 20.375 23.300781 20.414062 22.03125 C 20.421875 21.878906 20.414062 21.726562 20.40625 21.574219 C 20.382812 21.039062 20.363281 20.503906 20.339844 19.972656 C 20.300781 19.207031 20.265625 18.445312 20.222656 17.683594 C 20.210938 17.53125 20.183594 17.378906 20.136719 17.234375 C 20.050781 16.96875 19.703125 16.886719 19.519531 17.097656 C 19.40625 17.226562 19.324219 17.394531 19.285156 17.5625 C 19.242188 17.730469 19.257812 17.917969 19.257812 18.09375 C 19.257812 19.648438 19.261719 21.203125 19.257812 22.757812 C 19.253906 24.058594 19.246094 25.359375 19.234375 26.65625 C 19.226562 27.648438 19.1875 28.644531 19.199219 29.636719 C 19.222656 31.339844 19.273438 33.046875 19.3125 34.84375 Z M 42.125 32.039062 C 42.164062 31.875 42.195312 31.804688 42.199219 31.730469 C 42.214844 30.585938 42.230469 29.4375 42.234375 28.292969 C 42.242188 27.042969 42.230469 25.792969 42.238281 24.546875 C 42.25 23.042969 42.273438 21.539062 42.300781 20.035156 C 42.3125 19.269531 42.378906 18.503906 42.34375 17.742188 C 42.324219 17.257812 42.316406 16.792969 42.527344 16.347656 C 42.546875 16.308594 42.519531 16.25 42.515625 16.199219 C 42.382812 15.890625 41.980469 15.8125 41.898438 15.449219 C 41.871094 15.328125 41.597656 15.339844 41.503906 15.460938 C 41.289062 15.742188 41.070312 16.023438 40.871094 16.320312 C 40.792969 16.433594 40.753906 16.582031 40.683594 16.742188 C 40.960938 16.902344 41.195312 17.039062 41.445312 17.191406 C 41.527344 17.875 41.617188 18.554688 41.53125 19.246094 C 41.492188 19.550781 41.484375 19.859375 41.480469 20.164062 C 41.464844 22.457031 41.421875 24.746094 41.210938 27.035156 C 41.199219 27.132812 41.222656 27.234375 41.226562 27.339844 C 41.230469 27.847656 41.238281 28.355469 41.230469 28.867188 C 41.214844 29.707031 41.191406 30.546875 41.175781 31.390625 C 41.171875 31.617188 41.164062 31.851562 41.363281 32.042969 L 42.125 32.042969 Z M 4.835938 17.417969 C 4.632812 17.710938 4.441406 18 4.230469 18.277344 C 4.027344 18.550781 3.988281 18.828125 4.140625 19.132812 C 4.199219 19.246094 4.253906 19.359375 4.316406 19.472656 C 4.449219 19.722656 4.507812 19.984375 4.503906 20.277344 C 4.492188 22.949219 4.332031 25.617188 4.140625 28.285156 C 4.023438 29.882812 3.976562 31.484375 3.910156 33.085938 C 3.851562 34.613281 3.808594 36.140625 3.765625 37.664062 C 3.757812 37.894531 3.789062 38.121094 3.808594 38.351562 C 3.832031 38.59375 3.757812 38.855469 3.894531 39.078125 C 4.484375 39.085938 4.527344 39.058594 4.542969 38.601562 C 4.5625 38.089844 4.582031 37.582031 4.585938 37.074219 C 4.601562 35.472656 4.601562 33.871094 4.628906 32.273438 C 4.652344 31.023438 4.71875 29.78125 4.761719 28.535156 C 4.78125 27.847656 4.769531 27.160156 4.804688 26.472656 C 4.882812 24.871094 4.980469 23.273438 5.074219 21.671875 C 5.089844 21.339844 5.136719 21.011719 5.144531 20.679688 C 5.160156 20.214844 5.152344 20.214844 4.851562 19.789062 C 4.882812 19.726562 4.910156 19.652344 4.957031 19.59375 C 5 19.535156 5.074219 19.496094 5.117188 19.4375 C 5.480469 18.957031 5.484375 18.546875 5.160156 18.046875 C 5.03125 17.851562 4.941406 17.632812 4.832031 17.417969 Z M 28.410156 13.582031 C 27.566406 13.550781 26.789062 13.519531 26.011719 13.582031 C 25.003906 13.664062 24 13.75 22.992188 13.828125 C 22.035156 13.902344 21.078125 13.964844 20.121094 14.042969 C 19.984375 14.054688 19.855469 14.132812 19.671875 14.199219 C 20.578125 15.484375 21.023438 16.984375 22.089844 18.125 C 22.191406 18.125 22.292969 18.132812 22.390625 18.125 C 23.371094 18.019531 24.351562 17.90625 25.328125 17.804688 C 25.605469 17.777344 25.785156 17.644531 25.945312 17.421875 C 26.558594 16.550781 27.191406 15.691406 27.804688 14.820312 C 28.050781 14.472656 28.316406 14.128906 28.410156 13.582031 Z M 40.910156 12.789062 C 41.464844 12.585938 41.992188 12.742188 42.464844 12.492188 C 42.476562 12.347656 42.503906 12.226562 42.5 12.101562 C 42.484375 10.960938 42.460938 9.820312 42.445312 8.679688 C 42.433594 8.121094 42.433594 7.5625 42.417969 7.003906 C 42.414062 6.890625 42.367188 6.785156 42.347656 6.703125 C 41.992188 6.746094 41.695312 6.796875 41.394531 6.808594 C 41.039062 6.828125 40.828125 6.988281 40.789062 7.199219 C 40.859375 7.601562 40.949219 7.875 40.945312 8.144531 C 40.929688 9.132812 40.886719 10.117188 40.851562 11.105469 C 40.832031 11.636719 40.808594 12.164062 40.910156 12.789062 Z M 5.507812 14.449219 C 5.492188 14.308594 5.480469 14.1875 5.46875 14.070312 C 5.394531 13.335938 5.285156 12.601562 5.265625 11.867188 C 5.25 11.210938 5.335938 10.550781 5.367188 9.890625 C 5.378906 9.558594 5.386719 9.226562 5.363281 8.898438 C 5.328125 8.421875 5.007812 8.121094 4.636719 7.894531 C 4.359375 7.722656 4.082031 7.90625 4.046875 8.238281 C 4.03125 8.390625 4.027344 8.542969 4.035156 8.699219 C 4.113281 10.5 4.09375 12.300781 4.066406 14.101562 C 4.0625 14.246094 4.089844 14.390625 4.109375 14.59375 C 4.59375 14.574219 5.039062 14.636719 5.507812 14.449219 Z M 17.277344 38.792969 C 17.636719 38.792969 17.910156 38.792969 18.1875 38.792969 C 18.972656 38.785156 19.757812 38.746094 20.542969 38.773438 C 21.554688 38.8125 22.566406 38.847656 23.578125 38.773438 C 24.210938 38.726562 24.84375 38.714844 25.472656 38.679688 C 26.257812 38.636719 27.039062 38.589844 27.820312 38.539062 C 28.097656 38.523438 28.378906 38.5 28.652344 38.449219 C 28.730469 38.433594 28.828125 38.335938 28.859375 38.253906 C 28.886719 38.175781 28.84375 38.066406 28.828125 37.929688 C 28.554688 37.921875 28.304688 37.898438 28.054688 37.90625 C 26.410156 37.941406 24.765625 37.984375 23.121094 38.023438 C 22.816406 38.03125 22.511719 38.046875 22.207031 38.058594 C 21.832031 38.070312 21.453125 38.078125 21.074219 38.089844 C 19.9375 38.132812 18.800781 38.167969 17.664062 38.21875 C 17.550781 38.222656 17.402344 38.277344 17.339844 38.363281 C 17.277344 38.449219 17.300781 38.601562 17.277344 38.792969 Z M 10.988281 33.417969 C 10.984375 33.378906 10.980469 33.335938 10.976562 33.296875 C 10.886719 33.273438 10.792969 33.222656 10.707031 33.230469 C 9.296875 33.367188 7.886719 33.46875 6.46875 33.460938 C 6.417969 33.460938 6.367188 33.457031 6.320312 33.46875 C 6.179688 33.507812 6.042969 33.554688 5.886719 33.605469 C 5.871094 33.835938 5.847656 34.035156 5.839844 34.238281 C 5.824219 34.59375 5.859375 34.957031 5.792969 35.300781 C 5.644531 36.0625 5.765625 36.824219 5.703125 37.582031 C 5.695312 37.667969 5.765625 37.761719 5.804688 37.855469 C 6.582031 37.949219 7.332031 37.917969 8.058594 37.894531 C 8.292969 37.523438 8.457031 37.191406 8.488281 36.769531 C 7.722656 36.589844 6.945312 36.75 6.195312 36.4375 C 6.40625 35.949219 6.4375 35.449219 6.480469 34.945312 C 6.5 34.699219 6.59375 34.457031 6.667969 34.171875 C 6.882812 34.144531 7.074219 34.101562 7.269531 34.097656 C 7.851562 34.089844 8.433594 34.074219 9.011719 34.109375 C 9.417969 34.128906 9.804688 34.210938 10.097656 33.800781 C 10.167969 33.695312 10.367188 33.679688 10.507812 33.621094 C 10.667969 33.554688 10.832031 33.488281 10.992188 33.421875 Z M 5.179688 32.691406 C 5.15625 32.746094 5.117188 32.789062 5.117188 32.835938 C 5.085938 34.542969 5.058594 36.253906 5.035156 37.960938 C 5.03125 38.242188 5.050781 38.523438 5.066406 38.800781 C 5.066406 38.824219 5.074219 38.851562 5.085938 38.871094 C 5.097656 38.890625 5.125 38.90625 5.21875 38.992188 C 5.921875 38.992188 6.703125 39.007812 7.480469 38.972656 C 7.570312 38.96875 7.683594 38.90625 7.730469 38.832031 C 7.792969 38.742188 7.800781 38.613281 7.847656 38.441406 C 7.570312 38.410156 7.347656 38.382812 7.125 38.367188 C 6.695312 38.335938 6.265625 38.324219 5.835938 38.285156 C 5.460938 38.253906 5.28125 38.070312 5.253906 37.714844 C 5.238281 37.511719 5.246094 37.304688 5.253906 37.101562 C 5.292969 36.007812 5.332031 34.914062 5.371094 33.820312 C 5.378906 33.691406 5.386719 33.566406 5.40625 33.441406 C 5.457031 33.160156 5.574219 33.058594 5.871094 33.03125 C 5.96875 33.023438 6.074219 33.027344 6.175781 33.023438 C 7.71875 32.984375 9.257812 32.898438 10.792969 32.753906 C 11.359375 32.703125 11.945312 32.605469 12.523438 32.78125 C 12.773438 32.855469 13.101562 32.648438 13.429688 32.296875 C 11.128906 32.371094 8.859375 32.441406 6.589844 32.519531 C 6.1875 32.535156 5.78125 32.570312 5.378906 32.605469 C 5.308594 32.609375 5.242188 32.660156 5.179688 32.691406 Z M 16.945312 33.214844 C 16.136719 33.128906 15.433594 33.160156 14.6875 33.15625 C 14.710938 33.371094 14.726562 33.535156 14.742188 33.699219 C 15.214844 33.898438 15.75 33.644531 16.175781 34.019531 C 16.148438 34.746094 16.398438 35.464844 16.226562 36.253906 C 16.097656 36.257812 15.957031 36.285156 15.820312 36.265625 C 15.644531 36.242188 15.472656 36.167969 15.320312 36.347656 C 15.316406 36.414062 15.289062 36.492188 15.304688 36.5625 C 15.359375 36.859375 15.429688 37.152344 15.5 37.472656 C 15.816406 37.503906 16.109375 37.539062 16.40625 37.566406 C 16.746094 37.597656 16.882812 37.496094 16.941406 37.179688 C 16.960938 37.082031 16.964844 36.976562 16.972656 36.875 C 17.085938 35.679688 16.886719 34.492188 16.945312 33.21875 Z M 10.714844 34.476562 C 10.726562 34.550781 10.75 34.625 10.746094 34.699219 C 10.707031 36.707031 10.664062 38.714844 11.054688 40.699219 C 11.074219 40.796875 11.050781 40.910156 11.09375 40.996094 C 11.128906 41.074219 11.21875 41.171875 11.296875 41.179688 C 11.4375 41.195312 11.519531 41.085938 11.535156 40.945312 C 11.542969 40.84375 11.527344 40.742188 11.519531 40.640625 C 11.480469 40.085938 11.441406 39.527344 11.398438 38.972656 C 11.289062 37.503906 11.179688 36.039062 11.066406 34.570312 C 11.054688 34.429688 11.011719 34.292969 10.972656 34.125 C 10.761719 34.160156 10.601562 34.191406 10.367188 34.230469 C 10.53125 34.347656 10.621094 34.414062 10.71875 34.480469 Z M 13.945312 32.648438 C 14.113281 33.6875 14.164062 34.613281 14.34375 35.535156 C 14.515625 36.449219 14.613281 37.378906 14.75 38.324219 C 14.550781 38.402344 14.386719 38.464844 14.230469 38.539062 C 14.09375 38.601562 13.957031 38.675781 13.832031 38.757812 C 13.710938 38.839844 13.53125 38.875 13.535156 39.09375 C 13.882812 38.949219 14.226562 38.8125 14.605469 38.65625 C 14.761719 38.972656 14.902344 39.257812 15.058594 39.574219 C 15.148438 39.503906 15.238281 39.472656 15.25 39.421875 C 15.277344 39.277344 15.304688 39.121094 15.285156 38.972656 C 15.214844 38.5 15.125 38.027344 15.039062 37.550781 C 14.816406 36.304688 14.601562 35.054688 14.359375 33.8125 C 14.289062 33.453125 14.285156 33.054688 13.941406 32.648438 Z M 36.332031 31.523438 C 34.421875 31.390625 32.25 31.453125 30.046875 31.664062 C 30.007812 31.804688 29.964844 31.960938 29.914062 32.152344 C 30.171875 32.152344 30.375 32.167969 30.570312 32.152344 C 30.925781 32.125 31.277344 32.085938 31.628906 32.042969 C 32.132812 31.980469 32.632812 31.914062 33.132812 31.84375 C 33.386719 31.808594 33.632812 31.742188 33.882812 31.722656 C 34.785156 31.640625 35.691406 31.574219 36.332031 31.519531 Z M 14.40625 31.703125 C 14.40625 31.671875 14.402344 31.636719 14.402344 31.601562 C 14.15625 31.601562 13.902344 31.585938 13.660156 31.605469 C 13.105469 31.652344 12.554688 31.761719 12.003906 31.769531 C 10.816406 31.785156 9.628906 31.765625 8.441406 31.738281 C 7.9375 31.726562 7.433594 31.652344 6.929688 31.621094 C 6.359375 31.589844 5.789062 31.601562 5.269531 31.828125 C 5.234375 32.140625 5.382812 32.152344 5.589844 32.136719 C 6.898438 32.058594 8.210938 31.941406 9.523438 31.925781 C 11.011719 31.90625 12.5 31.855469 13.984375 31.75 C 14.125 31.742188 14.265625 31.71875 14.40625 31.703125 Z M 6.894531 36.089844 C 7.519531 36.324219 8.132812 36.128906 8.71875 36.292969 C 8.773438 36.167969 8.808594 36.078125 8.867188 35.949219 C 8.707031 35.949219 8.589844 35.941406 8.472656 35.949219 C 8.320312 35.960938 8.171875 36.003906 8.023438 36.003906 C 7.652344 36.003906 7.453125 35.757812 7.554688 35.410156 C 7.601562 35.25 7.714844 35.109375 7.785156 34.984375 C 8.390625 34.964844 8.972656 35.15625 9.5625 34.746094 C 9.355469 34.675781 9.222656 34.597656 9.082031 34.589844 C 8.433594 34.554688 7.78125 34.492188 7.144531 34.570312 C 6.984375 34.847656 6.902344 35.351562 6.894531 36.089844 Z M 9.402344 15.558594 C 8.582031 15.578125 7.765625 15.414062 6.980469 15.65625 C 6.882812 16.347656 6.886719 16.855469 6.992188 17.183594 C 7.800781 16.636719 8.601562 16.097656 9.402344 15.558594 Z M 15.871094 35.714844 C 15.898438 34.921875 15.859375 34.710938 15.601562 34.238281 C 15.359375 34.191406 15.117188 34.171875 14.878906 34.378906 C 14.96875 34.804688 15.054688 35.21875 15.148438 35.636719 C 15.160156 35.675781 15.214844 35.707031 15.273438 35.765625 C 15.445312 35.75 15.636719 35.734375 15.871094 35.714844 Z M 5.378906 16.710938 C 5.414062 16.179688 5.578125 15.644531 5.507812 15.046875 C 5.0625 15 4.644531 15.007812 4.195312 15.089844 C 4.203125 15.21875 4.210938 15.332031 4.214844 15.460938 C 4.574219 15.335938 4.875 15.070312 5.246094 15.335938 C 5.253906 15.441406 5.273438 15.539062 5.269531 15.640625 C 5.265625 15.765625 5.25 15.894531 5.230469 16.015625 C 5.175781 16.320312 4.894531 16.566406 4.585938 16.53125 C 4.488281 16.523438 4.378906 16.410156 4.316406 16.3125 C 4.265625 16.242188 4.28125 16.128906 4.265625 16.035156 C 4.25 16.035156 4.238281 16.035156 4.222656 16.035156 C 4.195312 16.296875 4.171875 16.558594 4.152344 16.816406 C 4.574219 16.878906 4.984375 16.84375 5.378906 16.714844 Z M 15.816406 38.964844 C 16.15625 38.867188 16.484375 38.988281 16.800781 38.8125 L 16.800781 38.023438 L 15.628906 38.023438 C 15.515625 38.367188 15.6875 38.605469 15.816406 38.964844 Z M 38.574219 31.363281 C 38.574219 31.382812 38.574219 31.402344 38.570312 31.417969 C 38.9375 31.464844 39.300781 31.523438 39.664062 31.542969 C 39.832031 31.554688 40.011719 31.496094 40.171875 31.4375 C 40.242188 31.410156 40.289062 31.304688 40.394531 31.171875 C 39.734375 31.242188 39.15625 31.300781 38.574219 31.363281 Z M 5.214844 31.144531 C 5.269531 31.140625 5.320312 31.132812 5.375 31.128906 C 5.382812 30.855469 5.394531 30.582031 5.394531 30.3125 C 5.390625 30.019531 5.375 29.726562 5.363281 29.433594 C 5.273438 30.003906 5.132812 30.570312 5.210938 31.148438 Z M 28.585938 30.449219 C 28.605469 30.449219 28.625 30.449219 28.648438 30.449219 L 28.648438 28.824219 C 28.625 28.824219 28.605469 28.824219 28.585938 28.824219 Z M 5.355469 27.53125 C 5.335938 27.53125 5.316406 27.53125 5.292969 27.527344 C 5.289062 27.617188 5.285156 27.707031 5.28125 27.792969 C 5.308594 27.792969 5.332031 27.792969 5.355469 27.796875 Z M 8.777344 35.519531 C 8.824219 35.53125 8.867188 35.546875 8.910156 35.554688 C 8.917969 35.554688 8.929688 35.523438 8.941406 35.507812 C 8.898438 35.5 8.855469 35.488281 8.8125 35.484375 C 8.804688 35.484375 8.792969 35.507812 8.78125 35.519531 Z M 5.46875 23.839844 C 5.507812 23.628906 5.519531 23.566406 5.53125 23.507812 C 5.5 23.503906 5.46875 23.503906 5.4375 23.5 C 5.445312 23.5625 5.449219 23.625 5.46875 23.84375 Z M 11.445312 33.652344 L 11.441406 33.695312 L 11.496094 33.675781 L 11.441406 33.652344 Z M 11.445312 33.652344 " fill-opacity="1" fill-rule="nonzero"/></g><path fill="#000000" d="M 13.625 30.773438 C 12.992188 30.90625 12.441406 30.855469 11.898438 30.789062 C 11.167969 30.703125 10.445312 30.765625 9.714844 30.808594 C 9.289062 30.832031 8.859375 30.859375 8.433594 30.871094 C 8.34375 30.875 8.25 30.828125 8.160156 30.804688 C 8.171875 30.726562 8.167969 30.667969 8.195312 30.632812 C 8.21875 30.597656 8.277344 30.570312 8.320312 30.5625 C 9.574219 30.445312 10.824219 30.28125 12.089844 30.390625 C 12.390625 30.417969 12.695312 30.394531 12.996094 30.402344 C 13.226562 30.40625 13.4375 30.457031 13.625 30.773438 Z M 13.625 30.773438 " fill-opacity="1" fill-rule="nonzero"/><path fill="#000000" d="M 37.34375 30.441406 C 37.152344 30.738281 36.929688 30.699219 36.746094 30.652344 C 36.101562 30.488281 35.449219 30.589844 34.796875 30.585938 C 34.019531 30.578125 33.242188 30.558594 32.460938 30.539062 C 32.417969 30.539062 32.371094 30.503906 32.328125 30.476562 C 32.3125 30.464844 32.292969 30.4375 32.296875 30.421875 C 32.300781 30.375 32.308594 30.304688 32.335938 30.292969 C 32.425781 30.257812 32.523438 30.222656 32.617188 30.21875 C 33.75 30.191406 34.882812 30.164062 36.015625 30.152344 C 36.3125 30.148438 36.617188 30.1875 36.910156 30.238281 C 37.050781 30.265625 37.179688 30.363281 37.34375 30.441406 Z M 37.34375 30.441406 " fill-opacity="1" fill-rule="nonzero"/><path fill="#000000" d="M 17.855469 33.324219 C 17.855469 32.535156 17.867188 31.742188 17.851562 30.953125 C 17.84375 30.496094 17.765625 30.042969 17.753906 29.585938 C 17.734375 28.589844 17.738281 27.597656 17.734375 26.605469 C 17.734375 26.195312 17.765625 25.785156 17.742188 25.378906 C 17.6875 24.285156 17.664062 23.1875 17.75 22.09375 C 17.835938 20.972656 17.738281 19.851562 17.675781 18.734375 C 17.660156 18.417969 17.738281 18.203125 17.867188 18.242188 C 18.105469 18.3125 18.027344 18.53125 18.039062 18.695312 C 18.085938 19.507812 18.128906 20.320312 18.167969 21.136719 C 18.175781 21.339844 18.175781 21.546875 18.148438 21.75 C 17.976562 23.019531 18.042969 24.292969 18.109375 25.566406 C 18.136719 26.148438 18.070312 26.738281 18.0625 27.324219 C 18.0625 27.832031 18.074219 28.339844 18.101562 28.851562 C 18.136719 29.539062 18.199219 30.222656 18.230469 30.910156 C 18.246094 31.316406 18.214844 31.726562 18.21875 32.132812 C 18.222656 32.511719 18.234375 32.894531 18.25 33.277344 C 18.296875 34.269531 18.351562 35.261719 18.398438 36.253906 C 18.40625 36.386719 18.289062 36.484375 18.148438 36.476562 C 17.996094 36.464844 17.925781 36.378906 17.925781 36.230469 C 17.925781 35.261719 17.925781 34.292969 17.925781 33.324219 C 17.902344 33.324219 17.878906 33.324219 17.855469 33.324219 Z M 17.855469 33.324219 " fill-opacity="1" fill-rule="nonzero"/><path fill="#000000" d="M 33.839844 14.519531 C 32.855469 15.082031 32.1875 15.976562 31.496094 16.847656 C 31.339844 17.046875 31.207031 17.261719 31.042969 17.453125 C 30.882812 17.636719 30.566406 17.550781 30.5 17.3125 C 30.476562 17.242188 30.453125 17.167969 30.453125 17.089844 C 30.433594 16.304688 30.417969 15.519531 30.40625 14.734375 C 30.402344 14.460938 30.527344 14.320312 30.808594 14.273438 C 31.457031 14.167969 32.101562 14.0625 32.75 13.972656 C 32.972656 13.941406 33.203125 13.941406 33.429688 13.953125 C 33.773438 13.972656 33.824219 14.054688 33.84375 14.519531 Z M 32.890625 14.46875 C 32.425781 14.472656 31.324219 14.679688 30.925781 14.84375 C 30.925781 15.019531 30.921875 15.222656 30.925781 15.421875 C 30.929688 15.625 30.9375 15.824219 30.953125 16.027344 C 30.964844 16.214844 30.90625 16.417969 31.046875 16.621094 C 31.28125 16.355469 31.476562 16.128906 31.679688 15.90625 C 31.898438 15.660156 32.125 15.421875 32.34375 15.175781 C 32.539062 14.957031 32.808594 14.792969 32.890625 14.46875 Z M 32.890625 14.46875 " fill-opacity="1" fill-rule="nonzero"/><path fill="#000000" d="M 14.402344 15.539062 C 14.335938 15.363281 14.441406 15.261719 14.5625 15.15625 C 14.714844 15.019531 14.859375 14.898438 15.085938 14.90625 C 15.464844 14.917969 15.84375 14.90625 16.222656 14.894531 C 16.652344 14.886719 17.082031 14.863281 17.507812 14.859375 C 17.652344 14.859375 17.796875 14.886719 17.984375 14.902344 C 18.085938 15.386719 17.957031 15.828125 17.925781 16.273438 C 17.898438 16.703125 17.875 17.132812 17.851562 17.550781 C 17.328125 17.757812 17.316406 17.75 17.058594 17.46875 C 16.324219 16.660156 15.519531 15.941406 14.453125 15.597656 C 14.429688 15.589844 14.417969 15.558594 14.402344 15.539062 Z M 17.570312 15.460938 C 17.4375 15.410156 17.347656 15.34375 17.261719 15.34375 C 16.707031 15.34375 16.152344 15.351562 15.597656 15.371094 C 15.574219 15.371094 15.546875 15.441406 15.507812 15.5 C 15.734375 15.65625 15.96875 15.796875 16.183594 15.964844 C 16.382812 16.117188 16.5625 16.300781 16.75 16.464844 C 16.949219 16.636719 17.117188 16.855469 17.425781 16.949219 C 17.476562 16.425781 17.523438 15.953125 17.570312 15.460938 Z M 17.570312 15.460938 " fill-opacity="1" fill-rule="nonzero"/><path fill="#000000" d="M 36.855469 14.027344 C 37.3125 13.964844 37.652344 13.898438 38 13.867188 C 38.523438 13.820312 39.054688 13.792969 39.578125 13.761719 C 39.75 13.75 39.898438 13.820312 39.925781 13.984375 C 40.007812 14.457031 40.066406 14.933594 40.117188 15.410156 C 40.132812 15.558594 39.953125 15.691406 39.804688 15.644531 C 39.664062 15.601562 39.519531 15.535156 39.417969 15.4375 C 38.9375 14.996094 38.34375 14.800781 37.75 14.59375 C 37.515625 14.511719 37.28125 14.417969 37.054688 14.3125 C 37.003906 14.289062 36.976562 14.207031 36.855469 14.03125 Z M 39.566406 14.828125 C 39.625 14.570312 39.578125 14.394531 39.402344 14.234375 C 39.265625 14.242188 39.117188 14.242188 38.972656 14.273438 C 38.851562 14.304688 38.683594 14.21875 38.582031 14.417969 C 38.917969 14.558594 39.230469 14.6875 39.566406 14.828125 Z M 39.566406 14.828125 " fill-opacity="1" fill-rule="nonzero"/><path fill="#000000" d="M 5.40625 7.148438 C 5.6875 7.003906 5.96875 7.046875 6.242188 7.03125 C 6.875 7.003906 7.507812 6.988281 8.136719 6.972656 C 8.339844 6.964844 8.542969 6.945312 8.746094 6.957031 C 10.617188 7.058594 12.488281 6.949219 14.359375 6.960938 C 16.308594 6.972656 18.261719 6.890625 20.207031 6.75 C 22.25 6.601562 24.292969 6.382812 26.34375 6.328125 C 27.609375 6.292969 28.867188 6.195312 30.128906 6.058594 C 30.855469 5.976562 31.597656 5.984375 32.332031 6.003906 C 33.273438 6.027344 34.203125 5.964844 35.128906 5.796875 C 35.203125 5.785156 35.277344 5.757812 35.351562 5.761719 C 36.742188 5.828125 38.132812 5.683594 39.523438 5.757812 C 39.847656 5.777344 40.167969 5.84375 40.460938 5.882812 C 40.570312 6.128906 40.460938 6.214844 40.300781 6.265625 C 40.253906 6.28125 40.199219 6.273438 40.148438 6.269531 C 38.605469 6.097656 37.058594 6.257812 35.515625 6.230469 C 35.414062 6.230469 35.308594 6.230469 35.210938 6.253906 C 34.039062 6.535156 32.847656 6.453125 31.65625 6.445312 C 30.925781 6.445312 30.191406 6.445312 29.464844 6.605469 C 29.246094 6.65625 29.011719 6.640625 28.785156 6.652344 C 27.445312 6.730469 26.105469 6.8125 24.765625 6.890625 C 24.640625 6.898438 24.511719 6.894531 24.386719 6.902344 C 22.617188 7.015625 20.851562 7.132812 19.082031 7.246094 C 18.425781 7.285156 17.765625 7.371094 17.113281 7.351562 C 15.921875 7.3125 14.738281 7.464844 13.550781 7.371094 C 13.195312 7.347656 12.839844 7.371094 12.484375 7.375 C 10.304688 7.382812 8.128906 7.390625 5.949219 7.390625 C 5.800781 7.390625 5.648438 7.371094 5.507812 7.328125 C 5.464844 7.316406 5.441406 7.214844 5.40625 7.144531 Z M 5.40625 7.148438 " fill-opacity="1" fill-rule="nonzero"/><path fill="#000000" d="M 30.679688 34.316406 C 31.074219 34.140625 31.414062 34.074219 31.773438 34.070312 C 32.734375 34.050781 33.695312 34.042969 34.65625 34.007812 C 35.5625 33.972656 36.472656 33.921875 37.382812 33.847656 C 38.3125 33.773438 39.242188 33.664062 40.175781 33.570312 C 40.273438 33.558594 40.378906 33.554688 40.476562 33.558594 C 40.832031 33.578125 40.992188 33.71875 41.011719 34.074219 C 41.027344 34.378906 41.027344 34.683594 41.007812 34.988281 C 40.976562 35.523438 40.933594 36.054688 40.890625 36.589844 C 40.859375 37 40.722656 37.128906 40.328125 37.144531 C 39.621094 37.171875 38.914062 37.207031 38.203125 37.238281 C 38.050781 37.242188 37.898438 37.25 37.746094 37.238281 C 36.15625 37.144531 34.566406 37.261719 32.972656 37.246094 C 32.496094 37.242188 32.015625 37.3125 31.539062 37.347656 C 31.414062 37.359375 31.28125 37.394531 31.164062 37.371094 C 30.558594 37.261719 30.484375 37.175781 30.515625 36.648438 C 30.558594 35.886719 30.621094 35.125 30.679688 34.320312 Z M 31.113281 34.652344 C 30.988281 35.367188 30.929688 36.089844 31.023438 36.855469 C 31.203125 36.871094 31.347656 36.902344 31.492188 36.894531 C 31.691406 36.886719 31.894531 36.832031 32.09375 36.832031 C 33.6875 36.804688 35.28125 36.753906 36.875 36.78125 C 37.890625 36.800781 38.894531 36.667969 39.902344 36.613281 C 40.042969 36.605469 40.179688 36.527344 40.359375 36.472656 C 40.402344 35.664062 40.730469 34.886719 40.453125 34.042969 C 40.222656 34.054688 40.023438 34.046875 39.824219 34.078125 C 38.546875 34.273438 37.253906 34.257812 35.96875 34.339844 C 34.65625 34.421875 33.339844 34.433594 32.023438 34.484375 C 31.726562 34.496094 31.417969 34.484375 31.113281 34.652344 Z M 31.113281 34.652344 " fill-opacity="1" fill-rule="nonzero"/><path fill="#000000" d="M 22.175781 23.527344 C 23.101562 23.488281 23.957031 23.226562 24.828125 23.335938 C 25.089844 23.613281 25.050781 23.925781 25.027344 24.226562 C 24.886719 26.238281 24.902344 28.253906 24.921875 30.265625 C 24.933594 31.355469 24.910156 32.457031 25.128906 33.535156 C 25.171875 33.75 25.039062 33.945312 24.816406 33.988281 C 24.542969 34.039062 24.265625 34.058594 23.988281 34.066406 C 23.582031 34.082031 23.175781 34.023438 22.78125 34.15625 C 22.6875 34.1875 22.578125 34.171875 22.476562 34.171875 C 21.980469 34.167969 21.882812 34.050781 21.890625 33.53125 C 21.902344 32.667969 21.886719 31.800781 21.910156 30.9375 C 21.941406 29.949219 22.003906 28.957031 22.050781 27.964844 C 22.082031 27.226562 22.113281 26.488281 22.144531 25.75 C 22.15625 25.394531 22.167969 25.039062 22.175781 24.683594 C 22.183594 24.328125 22.175781 23.972656 22.175781 23.527344 Z M 22.589844 23.925781 C 22.589844 24.125 22.589844 24.273438 22.589844 24.425781 C 22.574219 25.339844 22.566406 26.257812 22.535156 27.175781 C 22.5 28.167969 22.433594 29.160156 22.390625 30.152344 C 22.375 30.457031 22.390625 30.761719 22.394531 31.070312 C 22.398438 31.375 22.40625 31.679688 22.402344 31.984375 C 22.402344 32.417969 22.382812 32.851562 22.390625 33.285156 C 22.394531 33.425781 22.457031 33.566406 22.503906 33.765625 C 23.175781 33.488281 23.882812 33.75 24.558594 33.488281 C 24.558594 33.332031 24.5625 33.207031 24.558594 33.082031 C 24.515625 31.960938 24.429688 30.84375 24.4375 29.722656 C 24.449219 27.917969 24.527344 26.109375 24.574219 24.304688 C 24.578125 24.136719 24.546875 23.96875 24.527344 23.742188 C 23.878906 23.804688 23.277344 23.859375 22.589844 23.925781 Z M 22.589844 23.925781 " fill-opacity="1" fill-rule="nonzero"/><path fill="#000000" d="M 22.328125 23.1875 C 22.253906 23.003906 22.1875 22.914062 22.179688 22.816406 C 22.140625 21.980469 22.109375 21.144531 22.078125 20.304688 C 22.078125 20.234375 22.125 20.164062 22.152344 20.082031 C 22.332031 20.007812 22.523438 19.945312 22.695312 19.847656 C 22.945312 19.703125 23.210938 19.648438 23.492188 19.644531 C 23.742188 19.640625 23.996094 19.632812 24.25 19.640625 C 24.714844 19.65625 24.957031 19.855469 25.023438 20.304688 C 25.078125 20.679688 25.09375 21.0625 25.125 21.441406 C 25.152344 21.792969 25.054688 22.144531 25.148438 22.5 C 25.207031 22.726562 25.007812 22.96875 24.777344 22.992188 C 23.972656 23.066406 23.171875 23.121094 22.328125 23.183594 Z M 24.574219 22.503906 C 24.710938 21.820312 24.664062 21.140625 24.570312 20.460938 C 24.554688 20.355469 24.441406 20.203125 24.347656 20.183594 C 23.824219 20.066406 23.292969 20 22.820312 20.351562 C 22.707031 20.433594 22.605469 20.574219 22.566406 20.710938 C 22.464844 21.054688 22.601562 22.234375 22.773438 22.671875 C 23.367188 22.664062 23.972656 22.746094 24.574219 22.503906 Z M 24.574219 22.503906 " fill-opacity="1" fill-rule="nonzero"/><path fill="#000000" d="M 25.308594 17.628906 C 24.371094 17.683594 23.441406 17.734375 22.496094 17.789062 C 21.875 16.734375 21.242188 15.671875 20.628906 14.636719 C 20.660156 14.40625 20.8125 14.363281 20.957031 14.332031 C 21.105469 14.304688 21.261719 14.304688 21.410156 14.308594 C 22.625 14.339844 23.839844 14.289062 25.046875 14.15625 C 25.472656 14.105469 25.898438 14.050781 26.324219 14.015625 C 26.570312 14 26.824219 14.015625 27.050781 14.015625 C 27.214844 14.164062 27.191406 14.3125 27.09375 14.441406 C 26.371094 15.398438 25.957031 16.53125 25.308594 17.625 Z M 26.445312 14.441406 C 26.019531 14.453125 25.601562 14.488281 25.175781 14.585938 C 24.757812 14.679688 24.324219 14.707031 23.894531 14.734375 C 23.441406 14.761719 22.984375 14.738281 22.53125 14.761719 C 22.117188 14.785156 21.703125 14.527344 21.230469 14.757812 C 21.71875 15.675781 22.242188 16.53125 22.878906 17.371094 C 23.609375 17.316406 24.335938 17.257812 25.0625 17.203125 C 25.542969 16.320312 26.003906 15.472656 26.457031 14.625 C 26.476562 14.585938 26.453125 14.527344 26.445312 14.445312 Z M 26.445312 14.441406 " fill-opacity="1" fill-rule="nonzero"/><path fill="#000000" d="M 40.953125 14.6875 C 41.128906 14.441406 41.101562 14.179688 41.050781 13.894531 C 40.992188 13.550781 41.0625 13.460938 41.433594 13.386719 C 41.664062 13.34375 41.90625 13.144531 42.203125 13.433594 C 42.273438 13.660156 42.230469 13.964844 42.234375 14.261719 C 42.238281 14.496094 42.082031 14.667969 41.890625 14.714844 C 41.582031 14.789062 41.25 14.894531 40.941406 14.675781 C 40.941406 14.675781 40.953125 14.691406 40.953125 14.691406 Z M 40.953125 14.6875 " fill-opacity="1" fill-rule="nonzero"/><path fill="#000000" d="M 32.34375 34.933594 C 34.3125 34.679688 36.253906 34.691406 38.191406 34.644531 C 38.304688 34.640625 38.425781 34.699219 38.566406 34.734375 C 38.582031 35.035156 38.605469 35.3125 38.605469 35.589844 C 38.601562 35.832031 38.417969 36.011719 38.171875 36.027344 C 38.070312 36.035156 37.964844 36.035156 37.871094 36.011719 C 37.066406 35.816406 36.269531 35.898438 35.46875 36.019531 C 35.21875 36.054688 34.964844 36.050781 34.710938 36.0625 C 34.109375 36.097656 33.503906 36.125 32.902344 36.164062 C 32.523438 36.1875 32.378906 36.085938 32.347656 35.714844 C 32.332031 35.492188 32.347656 35.265625 32.347656 34.929688 Z M 38.042969 35.546875 C 38.125 35.171875 38.054688 35.050781 37.792969 35.054688 C 36.707031 35.074219 35.621094 35.078125 34.535156 35.125 C 33.960938 35.148438 33.386719 35.25 32.824219 35.316406 C 32.796875 35.714844 32.800781 35.726562 33.007812 35.722656 C 33.386719 35.71875 33.765625 35.714844 34.144531 35.695312 C 34.722656 35.660156 35.308594 35.65625 35.878906 35.566406 C 36.585938 35.453125 37.285156 35.433594 38.046875 35.542969 Z M 38.042969 35.546875 " fill-opacity="1" fill-rule="nonzero"/></svg>