<svg xmlns="http://www.w3.org/2000/svg" xmlns:xlink="http://www.w3.org/1999/xlink" width="62" zoomAndPan="magnify" viewBox="0 0 46.5 46.5" height="62" preserveAspectRatio="xMidYMid meet" version="1.0"><defs><clipPath id="36c869974c"><path d="M 3.070312 7.855469 L 43.140625 7.855469 L 43.140625 38.277344 L 3.070312 38.277344 Z M 3.070312 7.855469 " clip-rule="nonzero"/></clipPath></defs><g clip-path="url(#36c869974c)"><path fill="#000000" d="M 41.636719 11.390625 C 41.589844 12.316406 41.53125 13.148438 41.503906 13.976562 C 41.476562 14.667969 41.492188 15.359375 41.476562 16.046875 C 41.464844 16.464844 41.550781 16.835938 41.753906 17.210938 C 42.121094 17.898438 42.441406 18.617188 42.785156 19.332031 C 42.648438 19.773438 42.679688 20.21875 42.695312 20.671875 C 42.726562 21.503906 42.683594 22.339844 42.671875 23.171875 C 42.660156 24.003906 42.667969 24.839844 42.628906 25.671875 C 42.5625 27.144531 42.433594 28.617188 42.382812 30.09375 C 42.335938 31.496094 42.355469 32.902344 42.347656 34.308594 C 42.34375 35.210938 42.347656 36.113281 42.347656 36.992188 C 42.105469 37.394531 41.710938 37.46875 41.34375 37.507812 C 39.992188 37.65625 38.644531 37.824219 37.285156 37.847656 C 35.878906 37.871094 34.472656 37.867188 33.066406 37.863281 C 32.300781 37.863281 31.539062 37.863281 30.777344 37.832031 C 29.992188 37.796875 29.207031 37.714844 28.421875 37.679688 C 27.949219 37.660156 27.476562 37.675781 27 37.699219 C 26.191406 37.738281 25.382812 37.769531 24.574219 37.847656 C 23.246094 37.976562 21.910156 37.953125 20.582031 38.027344 C 19.628906 38.082031 18.683594 38.019531 17.734375 38.042969 C 17.257812 38.054688 16.785156 38.09375 16.308594 38.09375 C 15.714844 38.097656 15.121094 38.0625 14.527344 38.0625 C 14.027344 38.0625 13.527344 38.078125 13.03125 38.097656 C 12.363281 38.121094 11.695312 38.140625 11.027344 38.179688 C 9.503906 38.269531 7.976562 38.289062 6.453125 38.265625 C 6.167969 38.261719 5.886719 38.199219 5.605469 38.175781 C 5.132812 38.136719 4.65625 38.105469 4.140625 38.070312 C 4.121094 37.96875 4.070312 37.835938 4.070312 37.703125 C 4.082031 37.109375 4.09375 36.511719 4.125 35.917969 C 4.175781 34.917969 4.25 33.921875 4.308594 32.925781 C 4.347656 32.308594 4.390625 31.691406 4.40625 31.074219 C 4.429688 29.929688 4.457031 28.789062 4.453125 27.644531 C 4.449219 26.761719 4.386719 25.882812 4.367188 25 C 4.359375 24.457031 4.382812 23.914062 4.390625 23.371094 C 4.394531 23.082031 4.398438 22.796875 4.40625 22.511719 C 4.441406 20.539062 4.492188 18.5625 4.511719 16.589844 C 4.53125 14.972656 4.570312 13.351562 4.410156 11.734375 C 4.40625 11.691406 4.375 11.648438 4.335938 11.554688 C 4.15625 11.539062 3.949219 11.53125 3.746094 11.5 C 3.582031 11.480469 3.414062 11.453125 3.265625 11.390625 C 3.058594 11.304688 3.035156 11.058594 3.214844 10.9375 C 4.027344 10.382812 4.738281 9.71875 5.449219 9.042969 C 5.773438 8.734375 6.148438 8.46875 6.523438 8.214844 C 6.777344 8.039062 7.09375 7.992188 7.402344 7.996094 C 8.425781 8 9.449219 8.011719 10.472656 8.027344 C 11.539062 8.042969 12.605469 8.078125 13.675781 8.078125 C 14.269531 8.078125 14.863281 8 15.460938 8 C 16.554688 8.007812 17.652344 8.058594 18.75 8.074219 C 19.796875 8.089844 20.84375 8.09375 21.890625 8.082031 C 22.554688 8.070312 23.222656 8.003906 23.886719 7.992188 C 24.359375 7.984375 24.835938 8.023438 25.3125 8.042969 C 25.433594 8.046875 25.550781 8.050781 25.671875 8.046875 C 27.765625 8.019531 29.859375 8.105469 31.953125 8.117188 C 33.167969 8.125 34.375 7.992188 35.585938 7.976562 C 35.96875 7.96875 36.347656 7.957031 36.730469 7.941406 C 37.390625 7.914062 38.058594 7.855469 38.722656 7.855469 C 39.292969 7.851562 39.863281 7.898438 40.433594 7.945312 C 40.558594 7.957031 40.707031 8.039062 40.792969 8.136719 C 41.09375 8.472656 41.371094 8.832031 41.664062 9.175781 C 41.988281 9.554688 42.335938 9.914062 42.652344 10.300781 C 42.828125 10.515625 42.964844 10.765625 43.101562 11.011719 C 43.160156 11.121094 43.042969 11.316406 42.90625 11.34375 C 42.765625 11.371094 42.625 11.371094 42.480469 11.378906 C 42.222656 11.386719 41.96875 11.386719 41.636719 11.394531 Z M 5.472656 32.078125 C 5.320312 32.113281 5.171875 32.152344 4.988281 32.199219 C 5.195312 32.230469 5.355469 32.191406 5.464844 32.078125 C 5.515625 32.085938 5.5625 32.089844 5.609375 32.09375 C 5.5625 32.085938 5.519531 32.082031 5.472656 32.078125 Z M 30.890625 21.695312 C 30.941406 21.921875 31.035156 22.105469 31.320312 22.164062 C 31.253906 21.910156 31.113281 21.769531 30.921875 21.664062 C 30.804688 21.398438 30.644531 21.285156 30.441406 21.320312 C 30.539062 21.511719 30.667969 21.660156 30.890625 21.695312 Z M 24.105469 23.1875 C 24.160156 23.0625 24.207031 22.933594 24.269531 22.8125 C 24.324219 22.707031 24.40625 22.617188 24.464844 22.515625 C 24.527344 22.40625 24.664062 22.332031 24.636719 22.117188 C 24.289062 22.425781 23.96875 22.691406 24.109375 23.191406 C 23.984375 23.167969 23.828125 23.0625 23.796875 23.320312 C 23.90625 23.273438 24.003906 23.230469 24.105469 23.1875 Z M 39.941406 20.8125 C 39.914062 20.8125 39.886719 20.808594 39.855469 20.808594 C 39.890625 20.800781 39.921875 20.796875 39.957031 20.789062 C 39.953125 20.835938 39.933594 20.898438 39.953125 20.914062 C 40.136719 21.0625 40.328125 21.195312 40.507812 21.34375 C 40.679688 21.488281 40.839844 21.644531 41.011719 21.808594 C 41.03125 21.734375 41.066406 21.667969 41.050781 21.648438 C 40.824219 21.386719 40.601562 21.117188 40.34375 20.882812 C 40.257812 20.804688 40.078125 20.828125 39.941406 20.808594 Z M 22.726562 19.109375 C 22.945312 18.84375 22.921875 18.773438 22.578125 18.699219 C 22.558594 18.613281 22.5625 18.496094 22.507812 18.449219 C 22.351562 18.316406 22.171875 18.210938 22 18.089844 C 21.394531 18.425781 20.75 18.640625 20.148438 19.035156 C 20.898438 19.5 21.496094 20.113281 22.398438 20.429688 C 22.445312 19.933594 22.816406 19.597656 22.726562 19.113281 Z M 21.023438 20.257812 C 20.773438 20.035156 20.527344 19.808594 20.265625 19.597656 C 20.207031 19.550781 20.097656 19.5625 20.011719 19.550781 C 19.890625 19.351562 19.726562 19.242188 19.46875 19.316406 C 19.296875 20.300781 19.28125 21.296875 19.285156 22.296875 C 19.289062 23.25 19.261719 24.203125 19.246094 25.15625 C 19.21875 26.535156 19.1875 27.917969 19.164062 29.296875 C 19.160156 29.4375 19.171875 29.582031 19.207031 29.71875 C 19.21875 29.769531 19.308594 29.800781 19.386719 29.863281 C 19.53125 29.527344 19.5 29.199219 19.496094 28.875 C 19.496094 28.515625 19.480469 28.160156 19.496094 27.804688 C 19.539062 26.351562 19.601562 24.902344 19.640625 23.453125 C 19.671875 22.335938 19.683594 21.21875 19.679688 20.101562 C 19.679688 19.8125 19.816406 19.667969 20.023438 19.53125 C 20.234375 19.953125 20.628906 20.109375 21.039062 20.238281 C 21.253906 20.648438 21.636719 20.875 22.039062 21.109375 C 22.039062 21.84375 22.046875 22.554688 22.035156 23.269531 C 22.019531 24.578125 21.976562 25.886719 21.972656 27.195312 C 21.972656 28.410156 22.003906 29.625 22.027344 30.835938 C 22.027344 31.023438 22.050781 31.210938 22.0625 31.394531 C 22.316406 30 22.328125 28.597656 22.347656 27.199219 C 22.367188 25.867188 22.265625 24.535156 22.21875 23.203125 C 22.210938 23.011719 22.210938 22.824219 22.21875 22.632812 C 22.226562 22.183594 22.253906 21.734375 22.242188 21.285156 C 22.238281 21.132812 22.183594 20.921875 22.074219 20.839844 C 21.75 20.609375 21.445312 20.328125 21.027344 20.257812 Z M 41.1875 17.097656 L 41.203125 17.117188 C 41.167969 16.898438 41.097656 16.699219 40.855469 16.574219 C 40.242188 16.601562 39.605469 16.632812 38.964844 16.648438 C 38.058594 16.675781 37.15625 16.667969 36.25 16.71875 C 35.277344 16.773438 34.308594 16.894531 33.335938 16.957031 C 32.171875 17.027344 31.007812 17.066406 29.839844 17.113281 C 29.414062 17.132812 28.984375 17.128906 28.554688 17.144531 C 27.484375 17.183594 26.414062 17.238281 25.34375 17.265625 C 24.789062 17.277344 24.265625 17.382812 23.753906 17.570312 C 23.46875 18.46875 23.101562 19.3125 22.929688 20.246094 C 23.445312 20.34375 23.917969 20.277344 24.382812 20.195312 C 25.414062 20.011719 26.457031 19.921875 27.5 19.867188 C 28.929688 19.796875 30.355469 19.769531 31.785156 19.699219 C 33.542969 19.613281 35.296875 19.496094 37.058594 19.398438 C 37.507812 19.375 37.964844 19.386719 38.414062 19.375 C 39.605469 19.34375 40.792969 19.308594 41.984375 19.269531 C 42.046875 19.269531 42.109375 19.238281 42.171875 19.21875 C 41.996094 18.484375 41.621094 17.6875 41.1875 17.097656 Z M 12.699219 9.109375 C 12.566406 9.085938 12.382812 9.140625 12.34375 8.953125 C 12.308594 8.777344 12.472656 8.730469 12.59375 8.660156 C 12.621094 8.648438 12.621094 8.589844 12.644531 8.503906 C 10.761719 8.464844 8.890625 8.429688 7.109375 8.394531 C 6.820312 8.597656 6.609375 8.742188 6.402344 8.898438 C 6.105469 9.121094 5.734375 9.269531 5.585938 9.652344 L 5.605469 9.632812 C 5.492188 9.710938 5.375 9.785156 5.269531 9.871094 C 4.855469 10.226562 4.4375 10.582031 4.023438 10.9375 C 4.007812 10.949219 3.992188 10.976562 3.988281 10.996094 C 3.988281 11.019531 4.003906 11.039062 4.019531 11.09375 C 4.148438 11.09375 4.285156 11.097656 4.421875 11.09375 C 5.300781 11.074219 6.183594 11.015625 7.0625 11.035156 C 7.875 11.054688 8.675781 10.957031 9.480469 10.894531 C 10.433594 10.824219 11.378906 10.773438 12.328125 10.925781 C 12.890625 11.019531 13.460938 11.074219 14.03125 11.101562 C 15.695312 11.183594 17.363281 11.117188 19.03125 11.222656 C 19.832031 11.273438 20.636719 11.261719 21.449219 11.144531 C 22.121094 11.050781 22.824219 11.152344 23.511719 11.167969 C 24.367188 11.183594 25.222656 11.214844 26.078125 11.210938 C 26.671875 11.210938 27.261719 11.15625 27.855469 11.144531 C 29.542969 11.113281 31.234375 11.101562 32.925781 11.070312 C 34.070312 11.046875 35.210938 11 36.351562 10.960938 C 36.707031 10.949219 37.066406 10.910156 37.421875 10.898438 C 37.96875 10.878906 38.515625 10.851562 39.0625 10.867188 C 39.679688 10.882812 40.296875 10.949219 40.914062 10.96875 C 41.386719 10.980469 41.859375 11 42.375 10.941406 C 42.335938 10.769531 42.347656 10.605469 42.273438 10.511719 C 41.992188 10.164062 41.679688 9.835938 41.4375 9.566406 C 41.027344 9.507812 40.710938 9.460938 40.394531 9.414062 C 40.414062 8.960938 40.808594 9.195312 41.027344 9.019531 C 40.84375 8.804688 40.664062 8.59375 40.480469 8.382812 C 39.644531 8.351562 38.835938 8.3125 38.027344 8.292969 C 37.847656 8.289062 37.664062 8.363281 37.480469 8.402344 L 37.503906 8.386719 C 36.089844 8.339844 34.683594 8.476562 33.277344 8.582031 C 33.195312 8.585938 33.113281 8.65625 33.03125 8.695312 L 33.058594 8.671875 C 32.628906 8.644531 32.203125 8.601562 31.773438 8.59375 C 29.847656 8.566406 27.917969 8.546875 25.988281 8.523438 C 25.96875 8.523438 25.941406 8.535156 25.929688 8.554688 C 25.921875 8.570312 25.925781 8.597656 25.921875 8.636719 C 26.03125 8.710938 26.15625 8.78125 26.253906 8.875 C 26.292969 8.910156 26.304688 9.023438 26.273438 9.066406 C 26.246094 9.109375 26.152344 9.121094 26.085938 9.125 C 26.042969 9.128906 25.988281 9.105469 25.953125 9.078125 C 25.617188 8.835938 25.261719 8.792969 24.878906 8.960938 C 24.851562 8.976562 24.796875 8.9375 24.714844 8.90625 C 24.757812 8.765625 24.800781 8.621094 24.851562 8.449219 C 23.804688 8.320312 22.796875 8.507812 21.726562 8.542969 C 21.882812 8.71875 22 8.847656 22.109375 8.96875 C 21.984375 9.207031 21.878906 9.410156 21.773438 9.613281 C 22.007812 9.804688 21.710938 9.992188 21.773438 10.179688 C 21.808594 10.277344 21.832031 10.398438 21.707031 10.402344 C 21.429688 10.40625 21.515625 10.703125 21.308594 10.8125 C 21.050781 10.8125 20.746094 10.8125 20.441406 10.8125 C 20.429688 10.8125 20.414062 10.78125 20.398438 10.761719 C 20.582031 10.433594 20.609375 10.398438 20.777344 10.300781 C 20.863281 10.332031 20.949219 10.371094 21.039062 10.394531 C 21.125 10.414062 21.226562 10.425781 21.1875 10.261719 C 21.050781 10.273438 20.914062 10.289062 20.777344 10.300781 C 20.75 10.425781 20.664062 10.441406 20.570312 10.390625 C 20.46875 10.332031 20.460938 10.226562 20.546875 10.160156 C 20.6875 10.042969 20.746094 9.957031 20.660156 9.75 C 20.585938 9.574219 20.695312 9.316406 20.617188 9.144531 C 20.488281 8.855469 20.839844 8.777344 20.851562 8.519531 C 18.445312 8.5625 16.082031 8.429688 13.617188 8.527344 C 13.777344 8.660156 13.863281 8.722656 13.9375 8.804688 C 14.011719 8.886719 14.125 8.988281 14.003906 9.09375 C 13.953125 9.140625 13.832031 9.125 13.746094 9.113281 C 13.679688 9.101562 13.625 9.042969 13.5625 9.007812 C 13.230469 8.800781 12.933594 8.835938 12.675781 9.132812 Z M 31.902344 23.707031 C 31.679688 23.617188 31.476562 23.558594 31.476562 23.273438 C 31.476562 23.144531 31.402344 23 31.324219 22.886719 C 30.9375 22.339844 30.503906 21.832031 29.957031 21.4375 C 29.8125 21.332031 29.609375 21.261719 29.433594 21.257812 C 28.746094 21.242188 28.050781 21.175781 27.371094 21.355469 C 27.210938 21.394531 27.035156 21.40625 26.875 21.386719 C 26.464844 21.339844 26.128906 21.488281 25.828125 21.742188 C 25.574219 21.960938 25.285156 22.144531 25.074219 22.394531 C 24.675781 22.863281 24.339844 23.382812 23.949219 23.859375 C 23.667969 24.195312 23.589844 24.570312 23.597656 24.984375 C 23.601562 25.339844 23.625 25.703125 23.578125 26.054688 C 23.390625 27.480469 23.4375 28.90625 23.4375 30.335938 C 23.4375 30.78125 23.484375 31.226562 23.511719 31.71875 C 26.433594 31.574219 29.308594 31.488281 32.175781 31.535156 C 32.324219 30.84375 32.179688 30.183594 32.183594 29.523438 C 32.191406 28.429688 32.21875 27.335938 32.171875 26.242188 C 32.136719 25.390625 31.996094 24.542969 31.902344 23.707031 Z M 38.976562 20.675781 C 38.164062 20.722656 37.261719 20.78125 36.359375 20.820312 C 35.863281 20.84375 35.4375 21.023438 35.042969 21.3125 C 34.503906 21.710938 34.085938 22.226562 33.660156 22.742188 C 33.28125 23.199219 33.042969 23.675781 33.125 24.289062 C 33.160156 24.570312 33.125 24.859375 33.136719 25.144531 C 33.230469 27.113281 33.324219 29.085938 33.425781 31.058594 C 33.433594 31.210938 33.503906 31.367188 33.550781 31.550781 C 36.023438 31.46875 38.460938 31.359375 40.910156 30.914062 C 40.921875 30.625 40.9375 30.367188 40.941406 30.109375 C 40.945312 29.277344 40.929688 28.445312 40.945312 27.613281 C 40.976562 26.113281 41 24.617188 41.074219 23.121094 C 41.105469 22.539062 40.851562 22.113281 40.503906 21.726562 C 40.300781 21.503906 40.015625 21.355469 39.761719 21.179688 C 39.550781 21.03125 39.328125 20.898438 38.976562 20.671875 Z M 6.003906 18.25 C 7.949219 18.355469 9.828125 18.261719 11.703125 18.238281 C 13.976562 18.203125 16.253906 18.046875 18.570312 17.941406 C 18.59375 17.65625 18.625 17.398438 18.632812 17.144531 C 18.648438 16.550781 18.640625 15.957031 18.660156 15.359375 C 18.679688 14.578125 18.722656 13.792969 18.746094 13.007812 C 18.75 12.851562 18.703125 12.695312 18.683594 12.546875 C 17.789062 12.371094 16.929688 12.4375 16.074219 12.417969 C 15.648438 12.40625 15.222656 12.5 14.796875 12.492188 C 13.535156 12.46875 12.273438 12.414062 11.011719 12.367188 C 10.894531 12.363281 10.773438 12.34375 10.65625 12.339844 C 10.15625 12.324219 9.65625 12.265625 9.160156 12.304688 C 8.277344 12.367188 7.402344 12.425781 6.519531 12.378906 C 6.339844 12.367188 6.15625 12.414062 5.972656 12.433594 C 5.726562 13.226562 5.992188 13.988281 5.90625 14.742188 C 5.773438 15.878906 5.949219 17.015625 6.003906 18.246094 Z M 20 15.542969 C 20.320312 15.542969 20.554688 15.554688 20.789062 15.542969 C 21.644531 15.5 22.5 15.449219 23.355469 15.402344 C 23.878906 15.371094 24.402344 15.355469 24.925781 15.3125 C 26.355469 15.183594 27.785156 15.148438 29.210938 15.292969 C 30.117188 15.382812 31.015625 15.378906 31.917969 15.347656 C 32.179688 15.339844 32.441406 15.289062 32.703125 15.289062 C 33.824219 15.285156 34.9375 15.234375 36.054688 15.128906 C 36.976562 15.042969 37.914062 15.089844 38.839844 15.070312 C 39.125 15.066406 39.410156 15.054688 39.695312 15.035156 C 40.003906 15.015625 40.308594 14.980469 40.617188 14.949219 C 40.753906 14.933594 40.890625 14.917969 41.042969 14.902344 C 41.164062 14.328125 41.097656 13.796875 41.074219 13.214844 C 40.539062 13.214844 40.042969 13.203125 39.550781 13.214844 C 38.8125 13.234375 38.070312 13.277344 37.332031 13.292969 C 35.808594 13.324219 34.285156 13.347656 32.761719 13.378906 C 32.523438 13.382812 32.289062 13.414062 32.050781 13.433594 C 31.527344 13.472656 31.003906 13.539062 30.484375 13.542969 C 28.839844 13.550781 27.195312 13.519531 25.550781 13.535156 C 24.144531 13.550781 22.742188 13.609375 21.335938 13.644531 C 21.027344 13.648438 20.714844 13.636719 20.40625 13.648438 C 20.269531 13.652344 20.136719 13.695312 20 13.722656 Z M 41.179688 11.429688 C 40.378906 11.25 39.617188 11.257812 38.855469 11.238281 C 37.667969 11.210938 36.476562 11.285156 35.289062 11.359375 C 34.242188 11.425781 33.195312 11.398438 32.144531 11.410156 C 31.8125 11.414062 31.480469 11.402344 31.144531 11.417969 C 30.671875 11.433594 30.195312 11.472656 29.722656 11.5 C 29.507812 11.507812 29.292969 11.5 29.078125 11.507812 C 27.511719 11.554688 25.945312 11.695312 24.378906 11.617188 C 23.09375 11.554688 21.8125 11.558594 20.53125 11.660156 C 20.375 11.671875 20.21875 11.703125 20.042969 11.726562 C 20.058594 12.238281 19.941406 12.707031 20.039062 13.179688 C 20.132812 13.203125 20.195312 13.234375 20.265625 13.234375 C 20.882812 13.238281 21.503906 13.242188 22.121094 13.234375 C 22.835938 13.226562 23.550781 13.214844 24.265625 13.191406 C 24.691406 13.179688 25.117188 13.121094 25.546875 13.121094 C 27.355469 13.109375 29.164062 13.125 30.976562 13.109375 C 31.449219 13.105469 31.917969 12.996094 32.390625 12.980469 C 34.269531 12.929688 36.152344 12.894531 38.027344 12.855469 C 38.839844 12.835938 39.648438 12.820312 40.460938 12.808594 C 40.726562 12.800781 40.980469 12.773438 41.179688 12.515625 Z M 42.21875 19.746094 C 41.980469 19.722656 41.773438 19.679688 41.566406 19.679688 C 41.113281 19.675781 40.660156 19.6875 40.207031 19.703125 C 38.847656 19.742188 37.492188 19.765625 36.132812 19.832031 C 34.613281 19.902344 33.09375 20.015625 31.570312 20.105469 C 31.167969 20.128906 30.761719 20.125 30.355469 20.144531 C 29.355469 20.1875 28.355469 20.230469 27.355469 20.28125 C 26.785156 20.3125 26.214844 20.347656 25.644531 20.410156 C 24.769531 20.507812 23.898438 20.625 23.023438 20.734375 C 22.910156 20.75 22.800781 20.789062 22.699219 20.816406 C 22.671875 20.917969 22.632812 20.984375 22.632812 21.050781 C 22.632812 22.003906 22.597656 22.957031 22.648438 23.910156 C 22.730469 25.453125 22.75 27 22.65625 28.542969 C 22.597656 29.519531 22.582031 30.496094 22.546875 31.472656 C 22.546875 31.519531 22.546875 31.578125 22.570312 31.609375 C 22.625 31.675781 22.691406 31.75 22.769531 31.777344 C 22.894531 31.816406 23.007812 31.757812 23.035156 31.617188 C 23.0625 31.480469 23.082031 31.335938 23.074219 31.195312 C 22.984375 29.429688 23.089844 27.671875 23.207031 25.917969 C 23.3125 24.375 23.382812 22.828125 23.476562 21.285156 C 23.476562 21.25 23.527344 21.214844 23.574219 21.148438 C 23.71875 21.144531 23.882812 21.128906 24.046875 21.125 C 25.140625 21.082031 26.238281 21.109375 27.328125 20.96875 C 27.679688 20.921875 28.035156 20.867188 28.390625 20.859375 C 29.792969 20.824219 31.195312 20.886719 32.601562 20.714844 C 33.992188 20.542969 35.398438 20.523438 36.796875 20.40625 C 38.175781 20.292969 39.5625 20.460938 40.941406 20.308594 C 41.253906 20.273438 41.40625 20.433594 41.449219 20.777344 C 41.476562 20.988281 41.480469 21.203125 41.476562 21.417969 C 41.445312 22.847656 41.472656 24.273438 41.402344 25.703125 C 41.316406 27.558594 41.375 29.417969 41.371094 31.273438 C 41.371094 31.554688 41.375 31.824219 41.460938 32.109375 C 41.539062 32.375 41.382812 32.703125 41.375 33.003906 C 41.351562 34.003906 41.34375 35.003906 41.335938 36.003906 C 41.332031 36.191406 41.34375 36.382812 41.363281 36.570312 C 41.378906 36.703125 41.476562 36.800781 41.605469 36.777344 C 41.710938 36.761719 41.851562 36.695312 41.886719 36.613281 C 41.953125 36.464844 41.96875 36.289062 41.964844 36.125 C 41.960938 35.4375 41.929688 34.746094 41.933594 34.058594 C 41.941406 32.652344 41.945312 31.246094 41.992188 29.84375 C 42.027344 28.894531 42.175781 27.945312 42.195312 26.996094 C 42.246094 24.785156 42.25 22.566406 42.265625 20.351562 C 42.269531 20.167969 42.238281 19.980469 42.214844 19.753906 Z M 41.007812 32.457031 C 40.875 32.429688 40.785156 32.394531 40.695312 32.394531 C 39.671875 32.421875 38.644531 32.417969 37.625 32.492188 C 36.675781 32.5625 35.730469 32.675781 34.777344 32.683594 C 34.132812 32.6875 33.492188 32.71875 32.847656 32.746094 C 31.96875 32.78125 31.089844 32.828125 30.207031 32.859375 C 28.921875 32.910156 27.636719 32.945312 26.355469 33.007812 C 25.425781 33.050781 24.503906 33.117188 23.578125 33.183594 C 23.230469 33.210938 22.871094 33.214844 22.507812 33.347656 C 22.425781 33.757812 22.429688 34.148438 22.484375 34.589844 C 22.691406 34.601562 22.875 34.625 23.058594 34.621094 C 23.320312 34.617188 23.582031 34.585938 23.84375 34.574219 C 24.554688 34.535156 25.269531 34.5 25.984375 34.460938 C 26.863281 34.414062 27.738281 34.34375 28.617188 34.316406 C 29.640625 34.285156 30.664062 34.277344 31.691406 34.296875 C 32.929688 34.324219 34.167969 34.246094 35.398438 34.121094 C 36.085938 34.050781 36.765625 33.925781 37.453125 33.878906 C 38.5 33.800781 39.546875 33.769531 40.59375 33.710938 C 40.726562 33.703125 40.859375 33.660156 41.007812 33.628906 Z M 13.503906 33.417969 C 13.535156 33.292969 13.570312 33.203125 13.578125 33.113281 C 13.613281 32.59375 13.660156 32.070312 13.671875 31.550781 C 13.726562 29.175781 13.777344 26.796875 13.824219 24.421875 C 13.828125 24.300781 13.8125 24.183594 13.8125 24.066406 C 13.796875 23.304688 13.777344 22.546875 13.773438 21.785156 C 13.769531 21.101562 13.785156 20.417969 13.683594 19.757812 C 13.597656 19.722656 13.558594 19.691406 13.515625 19.691406 C 12.707031 19.699219 11.894531 19.714844 11.089844 19.59375 C 10.953125 19.578125 10.804688 19.621094 10.664062 19.625 C 10.523438 19.632812 10.375 19.65625 10.238281 19.628906 C 9.640625 19.511719 9.0625 19.6875 8.460938 19.695312 C 8.355469 20.003906 8.398438 20.289062 8.398438 20.570312 C 8.40625 21.210938 8.4375 21.855469 8.4375 22.496094 C 8.429688 24.070312 8.410156 25.640625 8.390625 27.210938 C 8.386719 27.589844 8.421875 27.980469 8.355469 28.351562 C 8.242188 28.992188 8.316406 29.636719 8.34375 30.269531 C 8.382812 31.246094 8.421875 32.21875 8.367188 33.195312 C 8.359375 33.320312 8.429688 33.449219 8.464844 33.574219 C 10.175781 33.640625 11.832031 33.539062 13.503906 33.417969 Z M 22.484375 36.132812 C 22.757812 36.320312 23.050781 36.269531 23.328125 36.253906 C 23.921875 36.226562 24.519531 36.167969 25.109375 36.125 C 26.058594 36.058594 27.007812 35.972656 27.960938 35.929688 C 28.765625 35.890625 29.578125 35.847656 30.382812 35.898438 C 31.714844 35.984375 33.042969 35.964844 34.375 35.898438 C 35.585938 35.832031 36.800781 35.796875 38.011719 35.707031 C 39.003906 35.632812 39.992188 35.503906 41.023438 35.394531 C 40.957031 34.945312 41.109375 34.527344 40.957031 34.09375 C 40.839844 34.085938 40.75 34.066406 40.660156 34.070312 C 40.183594 34.09375 39.707031 34.113281 39.234375 34.148438 C 38.023438 34.238281 36.8125 34.3125 35.605469 34.4375 C 34.394531 34.5625 33.191406 34.703125 31.972656 34.671875 C 31.710938 34.664062 31.449219 34.644531 31.1875 34.652344 C 29.402344 34.6875 27.617188 34.695312 25.832031 34.832031 C 24.726562 34.914062 23.613281 34.941406 22.476562 34.992188 C 22.402344 35.386719 22.449219 35.761719 22.488281 36.128906 Z M 41.085938 15.328125 C 40.824219 15.328125 40.660156 15.316406 40.5 15.332031 C 39.980469 15.382812 39.460938 15.472656 38.9375 15.492188 C 38.105469 15.527344 37.269531 15.5 36.4375 15.53125 C 35.675781 15.554688 34.917969 15.632812 34.15625 15.671875 C 33.15625 15.71875 32.15625 15.757812 31.15625 15.789062 C 30.75 15.800781 30.34375 15.800781 29.941406 15.765625 C 28.15625 15.605469 26.375 15.542969 24.59375 15.773438 C 24.472656 15.789062 24.355469 15.789062 24.234375 15.792969 C 22.972656 15.859375 21.710938 15.917969 20.449219 15.988281 C 20.316406 15.996094 20.183594 16.042969 20.011719 16.082031 C 20.003906 16.902344 19.875 17.699219 19.992188 18.558594 C 20.1875 18.480469 20.34375 18.433594 20.484375 18.367188 C 21.261719 18.003906 22.035156 17.625 22.8125 17.269531 C 23.046875 17.160156 23.296875 17.039062 23.550781 17.011719 C 24.257812 16.933594 24.972656 16.890625 25.683594 16.851562 C 26.207031 16.824219 26.730469 16.835938 27.253906 16.816406 C 28.0625 16.789062 28.875 16.753906 29.683594 16.714844 C 31.0625 16.648438 32.445312 16.578125 33.824219 16.507812 C 33.847656 16.507812 33.871094 16.503906 33.894531 16.503906 C 35.253906 16.425781 36.605469 16.335938 37.964844 16.269531 C 38.746094 16.230469 39.539062 16.316406 40.320312 16.171875 C 40.433594 16.148438 40.554688 16.191406 40.671875 16.191406 C 40.785156 16.1875 40.894531 16.164062 41.042969 16.144531 C 41.054688 15.878906 41.066406 15.648438 41.085938 15.328125 Z M 22.507812 37.546875 C 23.070312 37.601562 23.542969 37.574219 24.019531 37.53125 C 24.46875 37.488281 24.914062 37.417969 25.367188 37.398438 C 25.9375 37.375 26.503906 37.335938 27.074219 37.296875 C 27.929688 37.238281 28.785156 37.242188 29.644531 37.34375 C 30.589844 37.457031 31.539062 37.550781 32.496094 37.523438 C 34.019531 37.484375 35.542969 37.429688 37.066406 37.453125 C 38.167969 37.472656 39.25 37.339844 40.339844 37.246094 C 40.542969 37.226562 40.742188 37.148438 40.917969 37.105469 L 40.917969 35.957031 C 40.625 35.734375 40.332031 35.855469 40.058594 35.875 C 39.417969 35.917969 38.777344 35.996094 38.136719 36.042969 C 37.566406 36.089844 36.996094 36.105469 36.425781 36.152344 C 34.523438 36.316406 32.617188 36.316406 30.710938 36.273438 C 29.609375 36.246094 28.515625 36.25 27.421875 36.320312 C 26.304688 36.394531 25.1875 36.476562 24.070312 36.550781 C 23.808594 36.570312 23.546875 36.570312 23.285156 36.578125 C 23.027344 36.585938 22.773438 36.589844 22.460938 36.597656 C 22.476562 36.917969 22.488281 37.195312 22.503906 37.542969 Z M 14.152344 19.714844 C 14.152344 20.4375 14.152344 21.101562 14.152344 21.765625 C 14.160156 23.363281 14.1875 24.957031 14.167969 26.554688 C 14.136719 28.695312 14.070312 30.839844 14.023438 32.980469 C 14.023438 33.113281 14.0625 33.25 14.089844 33.425781 C 15.453125 33.40625 16.785156 33.390625 18.113281 33.363281 C 18.296875 33.355469 18.484375 33.289062 18.679688 33.246094 C 18.695312 33.136719 18.71875 33.046875 18.71875 32.953125 C 18.734375 31.980469 18.742188 31.003906 18.757812 30.03125 C 18.785156 28.53125 18.8125 27.03125 18.84375 25.53125 C 18.867188 24.558594 18.921875 23.582031 18.910156 22.609375 C 18.898438 21.867188 18.894531 21.132812 18.980469 20.398438 C 19.003906 20.210938 19.011719 20.019531 19.007812 19.828125 C 19.003906 19.695312 18.972656 19.558594 18.945312 19.378906 C 17.34375 19.398438 15.777344 19.398438 14.152344 19.714844 Z M 21.621094 31.441406 C 21.652344 30.929688 21.691406 30.53125 21.699219 30.132812 C 21.707031 29.800781 21.6875 29.46875 21.667969 29.140625 C 21.652344 28.78125 21.609375 28.429688 21.613281 28.070312 C 21.636719 26.339844 21.671875 24.605469 21.699219 22.875 C 21.707031 22.402344 21.699219 21.925781 21.699219 21.488281 C 20.777344 20.5 20.695312 20.441406 20.074219 20.292969 C 20.058594 20.40625 20.035156 20.515625 20.035156 20.628906 C 20.019531 21.507812 20.019531 22.386719 19.992188 23.265625 C 19.972656 23.882812 19.902344 24.496094 19.886719 25.113281 C 19.859375 26.085938 19.847656 27.0625 19.847656 28.035156 C 19.847656 28.792969 19.875 29.550781 19.886719 30.257812 C 20.386719 30.785156 21 31.015625 21.621094 31.441406 Z M 7.980469 29.769531 C 7.898438 26.546875 8.113281 23.273438 7.960938 19.941406 C 7.515625 20.007812 7.128906 19.71875 6.675781 19.890625 C 6.652344 20.527344 6.628906 21.144531 6.597656 21.757812 C 6.535156 22.992188 6.597656 24.230469 6.449219 25.464844 C 6.355469 26.242188 6.300781 27.027344 6.277344 27.8125 C 6.242188 28.90625 6.257812 30 6.253906 31.09375 C 6.253906 31.203125 6.28125 31.308594 6.308594 31.484375 C 6.886719 30.886719 7.414062 30.351562 7.980469 29.769531 Z M 4.875 19.988281 C 4.863281 20.117188 4.84375 20.238281 4.839844 20.351562 C 4.820312 21.566406 4.796875 22.777344 4.777344 23.988281 C 4.773438 24.296875 4.761719 24.605469 4.773438 24.914062 C 4.855469 26.863281 4.886719 28.808594 4.785156 30.757812 C 4.765625 31.105469 4.746094 31.460938 4.808594 31.804688 C 5.210938 31.886719 5.539062 31.753906 5.894531 31.675781 C 5.894531 30.699219 5.894531 29.75 5.894531 28.804688 C 5.894531 28.519531 5.890625 28.234375 5.910156 27.949219 C 5.96875 27.046875 6.054688 26.148438 6.097656 25.246094 C 6.140625 24.34375 6.152344 23.441406 6.175781 22.539062 C 6.195312 21.78125 6.222656 21.023438 6.234375 20.261719 C 6.238281 20.128906 6.191406 19.992188 6.164062 19.835938 C 5.714844 19.871094 5.289062 19.8125 4.875 19.988281 Z M 22.5 32.839844 C 23.320312 32.828125 24.074219 32.847656 24.832031 32.761719 C 25.542969 32.683594 26.253906 32.617188 26.964844 32.578125 C 27.703125 32.539062 28.441406 32.535156 29.179688 32.515625 C 29.894531 32.5 30.605469 32.488281 31.316406 32.457031 C 32.410156 32.414062 33.503906 32.355469 34.597656 32.308594 C 35.3125 32.277344 36.03125 32.292969 36.742188 32.21875 C 37.949219 32.09375 39.15625 31.964844 40.371094 31.980469 C 40.558594 31.984375 40.742188 31.980469 40.980469 31.980469 C 40.941406 31.753906 40.914062 31.585938 40.878906 31.375 C 40.453125 31.417969 40.078125 31.460938 39.703125 31.496094 C 38.613281 31.601562 37.523438 31.75 36.429688 31.800781 C 35.027344 31.871094 33.617188 31.921875 32.214844 31.875 C 30.953125 31.835938 29.695312 32.050781 28.433594 31.898438 C 28.367188 31.890625 28.292969 31.914062 28.21875 31.914062 C 27.769531 31.9375 27.316406 31.964844 26.867188 31.976562 C 26.035156 32.003906 25.199219 32.007812 24.367188 32.042969 C 23.84375 32.0625 23.324219 32.117188 22.804688 32.164062 C 22.695312 32.171875 22.585938 32.207031 22.457031 32.234375 C 22.472656 32.433594 22.484375 32.59375 22.5 32.839844 Z M 19.1875 31.453125 C 19.070312 31.871094 19.058594 32.296875 19.082031 32.714844 C 19.125 33.429688 19.144531 33.433594 19.65625 33.953125 C 19.859375 34.15625 20.089844 34.328125 20.039062 34.667969 C 20.03125 34.722656 20.09375 34.796875 20.136719 34.851562 C 20.695312 35.625 21.25 36.394531 21.808594 37.164062 C 21.875 37.253906 21.949219 37.363281 22.121094 37.304688 C 22.097656 36.652344 22.082031 35.992188 22.039062 35.332031 C 21.996094 34.644531 22.15625 33.953125 22.015625 33.292969 C 21.136719 32.5625 19.71875 31.636719 19.191406 31.453125 Z M 8.121094 35.542969 C 8.414062 35.601562 8.703125 35.644531 9.023438 35.628906 C 10.257812 35.574219 11.496094 35.554688 12.734375 35.535156 C 13.808594 35.519531 14.878906 35.53125 15.949219 35.515625 C 16.640625 35.503906 17.328125 35.441406 18.019531 35.4375 C 18.523438 35.433594 19.003906 35.335938 19.515625 35.210938 L 19.515625 34.761719 C 19.378906 34.734375 19.242188 34.683594 19.105469 34.683594 C 17.796875 34.6875 16.488281 34.691406 15.175781 34.714844 C 14.128906 34.734375 13.082031 34.796875 12.035156 34.808594 C 10.722656 34.824219 9.417969 34.910156 8.113281 35.039062 C 8.082031 35.042969 8.050781 35.09375 8.007812 35.132812 C 8.011719 35.191406 8.003906 35.265625 8.019531 35.332031 C 8.039062 35.398438 8.078125 35.460938 8.117188 35.542969 Z M 6.277344 32.683594 C 6.066406 36.199219 6.066406 36.292969 6.230469 36.804688 C 6.789062 35.925781 7.339844 35.066406 7.878906 34.203125 C 7.949219 34.089844 7.980469 33.9375 7.980469 33.800781 C 7.992188 32.96875 7.988281 32.136719 7.980469 31.304688 C 7.980469 31.195312 8.03125 31.058594 7.855469 31 C 7.359375 31.53125 6.855469 32.066406 6.277344 32.683594 Z M 5.636719 37.722656 C 5.757812 35.9375 5.855469 34.246094 5.890625 32.5 C 5.472656 32.542969 5.105469 32.59375 4.765625 32.738281 C 4.5 34.105469 4.402344 36.875 4.601562 37.664062 C 4.910156 37.683594 5.234375 37.699219 5.636719 37.722656 Z M 19.339844 34.253906 C 19.101562 33.910156 18.933594 33.695312 18.597656 33.695312 C 18.167969 33.699219 17.742188 33.6875 17.3125 33.703125 C 16.074219 33.742188 14.835938 33.789062 13.597656 33.835938 C 13.144531 33.851562 12.6875 33.863281 12.238281 33.894531 C 11.167969 33.976562 10.097656 34.035156 9.023438 33.988281 C 8.859375 33.980469 8.695312 33.988281 8.523438 33.988281 C 8.40625 34.1875 8.308594 34.363281 8.1875 34.574219 C 10.078125 34.511719 11.914062 34.519531 13.738281 34.375 C 15.570312 34.234375 17.402344 34.390625 19.339844 34.257812 Z M 32.074219 21.148438 C 32.132812 21.867188 32.175781 22.503906 32.234375 23.140625 C 32.390625 24.84375 32.507812 26.546875 32.511719 28.261719 C 32.515625 29.304688 32.609375 30.347656 32.664062 31.390625 C 32.664062 31.429688 32.707031 31.46875 32.757812 31.546875 C 32.847656 31.492188 32.972656 31.453125 33.011719 31.375 C 33.0625 31.277344 33.046875 31.140625 33.042969 31.023438 C 33.019531 30.480469 32.992188 29.933594 32.964844 29.390625 C 32.90625 28.109375 32.828125 26.828125 32.792969 25.546875 C 32.765625 24.527344 32.746094 23.507812 32.835938 22.484375 C 32.875 22.023438 32.945312 21.546875 32.84375 21.039062 C 32.585938 21.074219 32.359375 21.105469 32.074219 21.148438 Z M 21.605469 37.578125 C 21.390625 37.238281 21.246094 37.007812 20.976562 36.820312 C 20.554688 36.820312 20.101562 36.8125 19.652344 36.820312 C 19.214844 36.832031 18.773438 36.859375 18.3125 36.882812 C 18.332031 37.003906 18.324219 37.078125 18.355469 37.132812 C 18.464844 37.316406 18.582031 37.488281 18.691406 37.65625 C 19.648438 37.785156 20.5625 37.59375 21.605469 37.578125 Z M 17.839844 36.882812 L 15.621094 36.882812 C 15.527344 37.140625 15.460938 37.382812 15.597656 37.671875 C 15.886719 37.671875 16.167969 37.675781 16.449219 37.671875 C 16.734375 37.671875 17.019531 37.65625 17.304688 37.652344 C 17.574219 37.652344 17.859375 37.753906 18.160156 37.578125 C 18.046875 37.332031 17.953125 37.125 17.839844 36.882812 Z M 18.054688 36.425781 C 18.921875 36.425781 19.726562 36.425781 20.535156 36.425781 C 20.554688 36.425781 20.582031 36.414062 20.601562 36.398438 C 20.617188 36.386719 20.617188 36.359375 20.644531 36.296875 C 20.449219 35.984375 20.257812 35.640625 19.964844 35.332031 C 19.886719 35.464844 19.828125 35.558594 19.746094 35.695312 C 19.609375 35.695312 19.441406 35.683594 19.28125 35.695312 C 18.851562 35.734375 18.425781 35.777344 18 35.824219 C 17.964844 35.828125 17.933594 35.882812 17.875 35.933594 C 17.925781 36.074219 17.980469 36.222656 18.054688 36.425781 Z M 15.105469 36.878906 C 14.433594 36.894531 13.800781 36.855469 13.15625 36.953125 C 13.109375 37.113281 13.058594 37.246094 13.03125 37.382812 C 13.015625 37.445312 13.042969 37.519531 13.050781 37.582031 C 13.503906 37.679688 14.578125 37.699219 15.019531 37.621094 C 15.160156 37.414062 15.1875 37.191406 15.105469 36.878906 Z M 21.976562 32.742188 C 22.136719 32.34375 21.984375 32.128906 21.71875 31.957031 C 20.90625 31.421875 20.09375 30.886719 19.28125 30.355469 C 19.265625 30.34375 19.234375 30.355469 19.164062 30.355469 C 19.175781 30.554688 19.1875 30.757812 19.195312 30.894531 C 20.152344 31.53125 21.039062 32.121094 21.976562 32.746094 Z M 10.242188 37.777344 C 11.070312 37.746094 11.796875 37.71875 12.515625 37.691406 C 12.582031 37.511719 12.636719 37.378906 12.675781 37.242188 C 12.691406 37.179688 12.675781 37.109375 12.675781 37.042969 C 11.722656 36.910156 11.019531 36.914062 10.472656 37.058594 C 10.40625 37.257812 10.339844 37.476562 10.242188 37.78125 Z M 7.9375 37.828125 C 8.574219 37.882812 9.175781 37.871094 9.773438 37.789062 C 9.910156 37.535156 10.082031 37.3125 10.039062 37.019531 L 8.34375 37.019531 C 8.15625 37.28125 8 37.511719 7.9375 37.828125 Z M 13.023438 35.933594 C 12.414062 35.878906 11.898438 35.890625 11.382812 35.898438 C 10.914062 35.902344 10.914062 35.914062 10.777344 36.511719 C 11.457031 36.5625 12.128906 36.613281 12.808594 36.53125 C 12.875 36.347656 12.929688 36.199219 13.023438 35.933594 Z M 17.707031 36.453125 C 17.589844 36.195312 17.511719 36.03125 17.429688 35.851562 C 16.820312 35.828125 16.238281 35.796875 15.640625 35.9375 L 15.640625 36.421875 C 16.300781 36.507812 16.953125 36.574219 17.710938 36.453125 Z M 13.464844 35.921875 C 13.414062 36.023438 13.347656 36.121094 13.316406 36.230469 C 13.292969 36.3125 13.3125 36.40625 13.3125 36.511719 C 13.972656 36.574219 14.601562 36.550781 15.214844 36.382812 C 15.230469 36.277344 15.253906 36.210938 15.246094 36.140625 C 15.242188 36.078125 15.210938 36.015625 15.179688 35.921875 Z M 7.640625 35.441406 C 7.175781 35.960938 7.050781 36.167969 6.878906 36.691406 C 7.359375 36.757812 7.808594 36.660156 8.265625 36.527344 C 8.34375 36.359375 8.417969 36.199219 8.515625 35.996094 C 8.253906 35.984375 8.046875 35.972656 7.820312 35.964844 C 7.761719 35.792969 7.710938 35.640625 7.640625 35.441406 Z M 6.507812 37.089844 C 6.457031 37.378906 6.175781 37.523438 6.234375 37.859375 C 6.484375 37.859375 6.71875 37.863281 6.957031 37.859375 C 7.097656 37.855469 7.234375 37.839844 7.371094 37.832031 C 7.5625 37.605469 7.722656 37.382812 7.828125 37.09375 L 6.507812 37.09375 Z M 8.714844 36.59375 C 9.242188 36.605469 9.753906 36.578125 10.28125 36.539062 C 10.332031 36.417969 10.386719 36.316406 10.417969 36.207031 C 10.433594 36.148438 10.402344 36.078125 10.386719 35.984375 C 9.925781 35.933594 9.480469 35.972656 9.050781 36.007812 C 8.878906 36.171875 8.714844 36.3125 8.714844 36.597656 Z M 34.78125 21.003906 C 34.734375 21 34.636719 20.953125 34.609375 20.980469 C 34.136719 21.4375 33.671875 21.902344 33.21875 22.375 C 33.175781 22.421875 33.210938 22.546875 33.210938 22.664062 C 33.753906 22.09375 34.265625 21.550781 34.78125 21.007812 Z M 23.878906 21.539062 C 23.84375 21.851562 23.816406 22.082031 23.789062 22.3125 C 23.789062 22.328125 23.808594 22.347656 23.835938 22.402344 C 24.085938 22.148438 24.328125 21.898438 24.566406 21.644531 C 24.589844 21.621094 24.582031 21.5625 24.59375 21.464844 C 24.359375 21.488281 24.140625 21.515625 23.878906 21.539062 Z M 33.21875 21.71875 C 33.546875 21.507812 33.71875 21.316406 33.882812 21.121094 C 33.902344 21.097656 33.878906 21.042969 33.871094 20.960938 C 33.671875 21.03125 33.449219 20.90625 33.25 21.140625 C 33.242188 21.269531 33.230469 21.429688 33.21875 21.71875 Z M 22.996094 18.324219 C 23.199219 18.058594 23.203125 18.058594 23.183594 17.597656 C 22.949219 17.695312 22.726562 17.785156 22.621094 17.828125 C 22.746094 17.992188 22.871094 18.160156 22.996094 18.324219 Z M 31.730469 21.210938 C 31.523438 21.238281 31.398438 21.253906 31.1875 21.28125 C 31.359375 21.507812 31.480469 21.675781 31.613281 21.835938 C 31.628906 21.859375 31.691406 21.847656 31.730469 21.851562 Z M 21.625 9.089844 C 21.578125 8.875 21.457031 8.835938 21.308594 8.863281 C 21.269531 8.867188 21.226562 8.914062 21.21875 8.949219 C 21.210938 8.980469 21.25 9.042969 21.277344 9.050781 C 21.386719 9.070312 21.496094 9.078125 21.625 9.089844 Z M 41.070312 20.878906 C 41.027344 20.851562 40.980469 20.816406 40.925781 20.792969 C 40.917969 20.789062 40.855469 20.878906 40.863281 20.882812 C 40.914062 20.9375 40.972656 20.980469 41.027344 21.03125 C 41.042969 20.988281 41.050781 20.949219 41.070312 20.878906 Z M 25.296875 21.75 C 25.136719 21.757812 24.988281 21.859375 24.851562 22.054688 C 25.0625 21.914062 25.160156 21.84375 25.296875 21.75 Z M 21.054688 9.851562 C 21.054688 9.875 21.058594 9.898438 21.058594 9.925781 C 21.140625 9.917969 21.222656 9.914062 21.300781 9.90625 C 21.300781 9.886719 21.300781 9.871094 21.300781 9.851562 Z M 31.871094 23.019531 C 31.855469 22.984375 31.839844 22.949219 31.820312 22.917969 C 31.808594 22.933594 31.785156 22.949219 31.785156 22.964844 C 31.789062 23.003906 31.800781 23.042969 31.808594 23.085938 C 31.832031 23.0625 31.851562 23.039062 31.871094 23.019531 Z M 31.871094 23.019531 " fill-opacity="1" fill-rule="nonzero"/></g><path fill="#000000" d="M 37.480469 8.402344 C 37.957031 8.316406 38.351562 8.492188 38.726562 8.777344 C 39.132812 8.441406 39.5625 8.515625 40 8.6875 C 40.0625 8.714844 40.128906 8.757812 40.167969 8.8125 C 40.203125 8.863281 40.234375 8.949219 40.214844 9 C 40.195312 9.046875 40.109375 9.074219 40.046875 9.09375 C 40.003906 9.109375 39.953125 9.09375 39.90625 9.089844 L 39.933594 9.113281 C 39.664062 8.867188 39.375 8.886719 39.074219 9.050781 C 39.058594 9.058594 39.054688 9.089844 39.042969 9.113281 C 39.042969 9.113281 39.085938 9.097656 39.085938 9.097656 C 38.949219 9.078125 38.8125 9.058594 38.675781 9.039062 C 38.519531 9.015625 38.359375 8.988281 38.199219 8.960938 C 38.078125 8.71875 37.910156 8.800781 37.742188 8.949219 L 38.210938 8.949219 C 38.28125 9.0625 38.347656 9.175781 38.425781 9.316406 C 38.332031 9.347656 38.253906 9.40625 38.214844 9.386719 C 37.828125 9.207031 37.441406 9.230469 37.0625 9.402344 C 36.898438 8.871094 36.910156 8.824219 37.21875 8.589844 C 37.3125 8.523438 37.40625 8.453125 37.5 8.386719 C 37.5 8.386719 37.476562 8.402344 37.476562 8.402344 Z M 37.480469 8.402344 " fill-opacity="1" fill-rule="nonzero"/><path fill="#000000" d="M 19.46875 9.082031 C 19.535156 9.136719 19.59375 9.195312 19.660156 9.242188 C 19.753906 9.308594 19.875 9.347656 19.949219 9.429688 C 20.039062 9.535156 19.9375 9.640625 19.902344 9.75 C 19.855469 9.898438 19.867188 10.0625 19.855469 10.214844 C 19.789062 10.226562 19.726562 10.261719 19.703125 10.242188 C 19.4375 10.054688 19.175781 9.945312 18.847656 10.09375 C 18.757812 10.136719 18.628906 10.089844 18.429688 10.078125 C 18.535156 9.949219 18.578125 9.851562 18.644531 9.832031 C 18.90625 9.742188 19.179688 9.679688 19.460938 9.605469 C 19.25 9.410156 19.019531 9.589844 18.769531 9.554688 C 18.695312 9.410156 18.613281 9.246094 18.527344 9.074219 C 18.570312 9.011719 18.597656 8.941406 18.648438 8.902344 C 19.050781 8.578125 19.484375 8.625 19.921875 8.800781 C 19.96875 8.820312 20.011719 8.917969 20.003906 8.976562 C 20 9.027344 19.929688 9.082031 19.878906 9.109375 C 19.84375 9.132812 19.785156 9.113281 19.742188 9.113281 C 19.644531 9.109375 19.550781 9.101562 19.457031 9.097656 C 19.421875 9.089844 19.390625 9.078125 19.359375 9.070312 C 19.394531 9.074219 19.433594 9.078125 19.46875 9.082031 Z M 19.46875 9.082031 " fill-opacity="1" fill-rule="nonzero"/><path fill="#000000" d="M 14.898438 9.296875 C 14.773438 9.234375 14.652344 9.171875 14.550781 9.121094 C 14.523438 8.863281 14.679688 8.773438 14.832031 8.730469 C 15.296875 8.601562 15.71875 8.71875 16.085938 9.035156 C 16.160156 9.097656 16.105469 9.257812 15.980469 9.3125 C 15.921875 9.339844 15.847656 9.339844 15.78125 9.351562 C 15.742188 9.613281 15.707031 9.867188 15.664062 10.152344 C 15.558594 10.15625 15.460938 10.191406 15.386719 10.160156 C 15.195312 10.082031 15.023438 10.105469 14.839844 10.1875 C 14.773438 10.214844 14.632812 10.191406 14.597656 10.140625 C 14.515625 10.027344 14.574219 9.90625 14.699219 9.855469 C 14.824219 9.804688 14.894531 9.734375 14.886719 9.597656 C 14.988281 9.617188 15.085938 9.636719 15.1875 9.65625 C 15.191406 9.636719 15.191406 9.617188 15.195312 9.59375 L 14.890625 9.59375 C 14.832031 9.59375 14.742188 9.609375 14.726562 9.585938 C 14.699219 9.539062 14.699219 9.453125 14.726562 9.40625 C 14.753906 9.351562 14.824219 9.316406 14.875 9.269531 C 14.96875 9.246094 15.058594 9.230469 15.152344 9.203125 C 15.253906 9.171875 15.378906 9.285156 15.464844 9.148438 C 15.082031 8.980469 15.070312 8.984375 14.894531 9.296875 Z M 14.898438 9.296875 " fill-opacity="1" fill-rule="nonzero"/><path fill="#000000" d="M 26.5625 9.082031 C 26.847656 8.695312 27.1875 8.65625 27.554688 8.65625 C 27.863281 8.652344 28.109375 8.753906 28.300781 9.027344 C 28.160156 9.203125 28.320312 9.566406 27.925781 9.589844 C 27.960938 9.6875 27.988281 9.773438 28.019531 9.863281 C 27.984375 9.894531 27.949219 9.949219 27.917969 9.949219 C 27.59375 9.929688 27.265625 9.882812 26.941406 9.964844 C 26.910156 9.972656 26.863281 9.925781 26.785156 9.878906 C 26.847656 9.785156 26.910156 9.691406 26.976562 9.589844 C 26.847656 9.433594 26.71875 9.273438 26.5625 9.082031 Z M 27.417969 9.03125 C 27.464844 9.050781 27.503906 9.074219 27.542969 9.078125 C 27.648438 9.085938 27.75 9.082031 27.855469 9.085938 C 27.851562 9.0625 27.847656 9.023438 27.84375 9.019531 C 27.734375 9.007812 27.625 8.992188 27.519531 8.988281 C 27.488281 8.988281 27.453125 9.011719 27.417969 9.03125 Z M 27.507812 9.488281 L 27.507812 9.4375 L 27.277344 9.4375 L 27.277344 9.488281 Z M 27.507812 9.488281 " fill-opacity="1" fill-rule="nonzero"/><path fill="#000000" d="M 7.261719 10.242188 C 7.15625 10.023438 6.90625 10.152344 6.753906 10.03125 C 6.753906 9.863281 6.699219 9.660156 6.765625 9.515625 C 6.851562 9.339844 6.921875 9.191406 6.878906 8.992188 C 6.871094 8.945312 6.9375 8.867188 6.988281 8.824219 C 7.335938 8.539062 7.898438 8.589844 8.207031 8.933594 C 8.234375 8.960938 8.242188 9.042969 8.21875 9.0625 C 8.171875 9.109375 8.089844 9.171875 8.042969 9.15625 C 7.910156 9.113281 7.792969 9.023438 7.660156 8.976562 C 7.515625 8.925781 7.375 8.953125 7.296875 9.125 C 7.324219 9.277344 7.480469 9.214844 7.566406 9.277344 C 7.640625 9.332031 7.738281 9.367188 7.796875 9.433594 C 7.832031 9.476562 7.828125 9.5625 7.820312 9.625 C 7.816406 9.652344 7.738281 9.6875 7.703125 9.679688 C 7.566406 9.644531 7.4375 9.585938 7.300781 9.558594 C 7.25 9.550781 7.1875 9.605469 7.132812 9.632812 C 7.160156 9.816406 7.316406 9.773438 7.40625 9.832031 C 7.519531 9.902344 7.582031 10 7.539062 10.128906 C 7.488281 10.277344 7.359375 10.25 7.242188 10.222656 L 7.261719 10.238281 Z M 7.261719 10.242188 " fill-opacity="1" fill-rule="nonzero"/><path fill="#000000" d="M 17.601562 9.691406 C 17.484375 9.558594 17.347656 9.480469 17.164062 9.511719 C 17.003906 9.539062 16.84375 9.558594 16.664062 9.582031 C 16.570312 9.363281 16.492188 9.175781 16.398438 8.949219 C 16.5625 8.855469 16.6875 8.734375 16.835938 8.703125 C 17.191406 8.625 17.542969 8.6875 17.875 8.847656 C 18 8.90625 18.054688 9.105469 17.988281 9.136719 C 17.742188 9.246094 17.863281 9.613281 17.578125 9.671875 Z M 17.601562 9.691406 " fill-opacity="1" fill-rule="nonzero"/><path fill="#000000" d="M 35.242188 9.515625 C 34.972656 9.308594 34.972656 9.300781 35.160156 9.109375 C 35.207031 9.0625 35.261719 9.023438 35.378906 8.925781 L 34.804688 8.925781 C 34.804688 8.65625 34.945312 8.535156 35.140625 8.507812 C 35.605469 8.441406 36.03125 8.609375 36.449219 8.773438 C 36.660156 8.855469 36.648438 9 36.441406 9.375 C 36.199219 9.335938 35.949219 9.25 35.703125 9.265625 C 35.539062 9.277344 35.378906 9.4375 35.222656 9.527344 C 35.222656 9.527344 35.242188 9.515625 35.242188 9.515625 Z M 35.242188 9.515625 " fill-opacity="1" fill-rule="nonzero"/><path fill="#000000" d="M 25.28125 9.417969 C 25.085938 9.457031 24.90625 9.5 24.730469 9.527344 C 24.695312 9.535156 24.621094 9.496094 24.617188 9.46875 C 24.609375 9.410156 24.613281 9.328125 24.644531 9.285156 C 24.753906 9.148438 24.910156 9.101562 25.085938 9.089844 C 25.40625 9.070312 25.691406 9.171875 26.003906 9.324219 C 25.996094 9.441406 25.960938 9.574219 25.992188 9.695312 C 26.023438 9.816406 26.117188 9.917969 26.257812 10.152344 C 25.6875 9.925781 25.234375 9.917969 24.769531 10.085938 C 24.703125 9.636719 25.203125 9.738281 25.28125 9.417969 Z M 25.28125 9.417969 " fill-opacity="1" fill-rule="nonzero"/><path fill="#000000" d="M 31.207031 9.808594 C 31.054688 9.761719 30.917969 9.710938 30.988281 9.5 C 31.003906 9.445312 30.96875 9.375 30.960938 9.316406 C 31.199219 9.335938 31.421875 9.28125 31.632812 9.144531 C 31.351562 9.023438 31.191406 9.285156 30.972656 9.324219 C 30.808594 9.367188 30.71875 9.265625 30.804688 9.148438 C 31.125 8.691406 31.886719 8.6875 32.214844 9.128906 C 32.359375 9.320312 32.351562 9.519531 32.152344 9.730469 C 31.832031 9.65625 31.480469 9.515625 31.183594 9.824219 Z M 31.207031 9.808594 " fill-opacity="1" fill-rule="nonzero"/><path fill="#000000" d="M 24.207031 9.175781 C 24 9.109375 23.785156 9.042969 23.574219 8.976562 L 23.535156 9.042969 C 23.679688 9.179688 23.828125 9.308594 23.96875 9.445312 C 23.992188 9.472656 24.003906 9.558594 23.988281 9.578125 C 23.941406 9.621094 23.859375 9.679688 23.820312 9.664062 C 23.667969 9.605469 23.527344 9.515625 23.355469 9.425781 C 23.152344 9.484375 22.929688 9.550781 22.71875 9.613281 C 22.570312 9.515625 22.546875 9.410156 22.683594 9.332031 C 22.855469 9.234375 23.011719 9.152344 22.9375 8.90625 C 22.925781 8.867188 23 8.765625 23.050781 8.75 C 23.445312 8.621094 23.839844 8.570312 24.199219 8.84375 C 24.316406 8.929688 24.304688 9.039062 24.207031 9.175781 Z M 24.207031 9.175781 " fill-opacity="1" fill-rule="nonzero"/><path fill="#000000" d="M 28.972656 9.191406 C 28.910156 9.183594 28.839844 9.175781 28.777344 9.171875 C 28.789062 9.085938 28.765625 8.960938 28.816406 8.921875 C 29.109375 8.683594 29.445312 8.582031 29.8125 8.734375 C 30 8.816406 30.25 8.800781 30.34375 9.09375 C 30.289062 9.257812 30.222656 9.453125 30.167969 9.609375 L 28.984375 9.609375 C 28.796875 9.503906 29.0625 9.320312 28.960938 9.183594 C 29.25 9.253906 29.539062 9.269531 29.894531 9.222656 C 29.5 9.007812 29.496094 8.996094 29.363281 9.035156 C 29.230469 9.074219 29.101562 9.140625 28.972656 9.191406 Z M 28.972656 9.191406 " fill-opacity="1" fill-rule="nonzero"/><path fill="#000000" d="M 11.878906 9.210938 C 11.796875 9.394531 11.710938 9.597656 11.597656 9.851562 C 11.273438 9.636719 10.945312 9.554688 10.589844 9.671875 C 10.5625 9.683594 10.484375 9.632812 10.480469 9.605469 C 10.476562 9.546875 10.484375 9.445312 10.519531 9.429688 C 10.660156 9.351562 10.816406 9.285156 10.972656 9.253906 C 11.097656 9.222656 11.234375 9.246094 11.363281 9.246094 C 11.394531 9.070312 11.277344 9.046875 11.199219 9.03125 C 11.085938 9.011719 10.964844 9.046875 10.847656 9.027344 C 10.800781 9.019531 10.730469 8.941406 10.726562 8.890625 C 10.722656 8.835938 10.777344 8.746094 10.824219 8.730469 C 11.054688 8.65625 11.292969 8.640625 11.511719 8.765625 C 11.679688 8.859375 11.832031 8.972656 11.878906 9.207031 Z M 11.878906 9.210938 " fill-opacity="1" fill-rule="nonzero"/><path fill="#000000" d="M 12.675781 9.132812 C 12.96875 9.097656 13.269531 9.03125 13.546875 9.210938 C 13.640625 9.273438 13.765625 9.347656 13.667969 9.472656 C 13.585938 9.582031 13.46875 9.535156 13.371094 9.453125 C 13.328125 9.453125 13.285156 9.445312 13.246094 9.453125 C 13.230469 9.453125 13.222656 9.484375 13.207031 9.503906 C 13.230469 9.5 13.25 9.503906 13.269531 9.496094 C 13.3125 9.480469 13.347656 9.460938 13.386719 9.445312 C 13.503906 9.628906 13.617188 9.816406 13.738281 10.007812 C 13.65625 10.050781 13.605469 10.09375 13.578125 10.082031 C 13.242188 9.949219 12.914062 9.898438 12.566406 10.070312 C 12.515625 10.09375 12.414062 10.019531 12.257812 9.957031 C 12.472656 9.804688 12.617188 9.707031 12.757812 9.605469 C 12.621094 9.457031 12.621094 9.289062 12.703125 9.109375 C 12.703125 9.109375 12.675781 9.132812 12.675781 9.132812 Z M 12.675781 9.132812 " fill-opacity="1" fill-rule="nonzero"/><path fill="#000000" d="M 17.574219 9.671875 C 17.628906 9.792969 17.679688 9.914062 17.738281 10.042969 C 17.46875 10.210938 17.265625 9.882812 16.996094 10.039062 C 17.148438 10.164062 17.289062 10.28125 17.425781 10.398438 C 17.371094 10.46875 17.34375 10.53125 17.316406 10.53125 C 17.015625 10.539062 16.714844 10.535156 16.433594 10.535156 C 16.234375 10.308594 16.542969 10.277344 16.554688 10.125 C 16.582031 9.773438 16.707031 9.628906 16.964844 9.628906 C 17.179688 9.628906 17.390625 9.667969 17.601562 9.691406 C 17.601562 9.691406 17.578125 9.667969 17.578125 9.667969 Z M 17.574219 9.671875 " fill-opacity="1" fill-rule="nonzero"/><path fill="#000000" d="M 33.03125 8.691406 C 33.542969 8.566406 34.015625 8.660156 34.445312 8.953125 C 34.546875 9.019531 34.640625 9.113281 34.566406 9.238281 C 34.480469 9.382812 34.359375 9.285156 34.253906 9.253906 C 34.230469 9.246094 34.210938 9.238281 34.183594 9.234375 C 34.183594 9.234375 34.203125 9.253906 34.203125 9.253906 C 34.101562 9.199219 33.996094 9.144531 33.894531 9.09375 L 33.921875 9.105469 C 33.71875 8.972656 33.519531 8.855469 33.320312 9.109375 L 33.351562 9.09375 C 33.226562 9.105469 33.089844 9.101562 33.035156 9.253906 L 33.0625 9.238281 C 32.992188 9.234375 32.917969 9.246094 32.855469 9.226562 C 32.671875 9.175781 32.636719 9.066406 32.765625 8.9375 C 32.859375 8.84375 32.960938 8.757812 33.058594 8.667969 C 33.058594 8.667969 33.03125 8.691406 33.03125 8.691406 Z M 33.03125 8.691406 " fill-opacity="1" fill-rule="nonzero"/><path fill="#000000" d="M 40.8125 10.078125 C 40.609375 10.089844 40.40625 10.101562 40.203125 10.105469 C 40.167969 10.105469 40.097656 10.058594 40.097656 10.03125 C 40.101562 9.96875 40.113281 9.875 40.15625 9.851562 C 40.578125 9.601562 40.960938 9.738281 41.378906 9.964844 C 41.265625 10.171875 41.179688 10.328125 41.074219 10.515625 C 40.945312 10.527344 40.804688 10.546875 40.667969 10.546875 C 40.53125 10.542969 40.398438 10.515625 40.253906 10.5 C 40.300781 10.363281 40.488281 10.222656 40.8125 10.082031 Z M 40.8125 10.078125 " fill-opacity="1" fill-rule="nonzero"/><path fill="#000000" d="M 39.140625 9.566406 C 39.433594 9.53125 39.6875 9.589844 39.890625 9.851562 C 39.679688 10.089844 39.410156 9.855469 39.203125 10.007812 C 39.25 10.105469 39.304688 10.214844 39.371094 10.339844 C 39.128906 10.496094 38.898438 10.574219 38.632812 10.46875 C 38.550781 10.4375 38.53125 10.320312 38.597656 10.246094 C 38.726562 10.105469 38.734375 10.078125 38.703125 9.84375 C 38.847656 9.75 39.003906 9.652344 39.160156 9.554688 C 39.160156 9.554688 39.140625 9.566406 39.140625 9.566406 Z M 39.140625 9.566406 " fill-opacity="1" fill-rule="nonzero"/><path fill="#000000" d="M 36.898438 9.976562 C 36.882812 9.617188 37.117188 9.578125 37.320312 9.558594 C 37.605469 9.53125 37.894531 9.539062 38.148438 9.703125 C 38.191406 9.734375 38.199219 9.824219 38.222656 9.878906 C 38.171875 9.917969 38.140625 9.96875 38.101562 9.96875 C 37.703125 9.976562 37.308594 9.972656 36.898438 9.972656 Z M 36.898438 9.976562 " fill-opacity="1" fill-rule="nonzero"/><path fill="#000000" d="M 23.875 10.171875 C 23.792969 10.203125 23.71875 10.257812 23.671875 10.238281 C 23.351562 10.113281 23.046875 10.117188 22.726562 10.25 C 22.679688 10.269531 22.578125 10.183594 22.523438 10.125 C 22.507812 10.109375 22.5625 9.996094 22.613281 9.960938 C 22.984375 9.710938 23.417969 9.722656 23.78125 9.988281 C 23.828125 10.019531 23.839844 10.101562 23.875 10.171875 Z M 23.875 10.171875 " fill-opacity="1" fill-rule="nonzero"/><path fill="#000000" d="M 35.222656 9.527344 C 35.40625 9.496094 35.59375 9.445312 35.777344 9.441406 C 35.9375 9.441406 36.101562 9.484375 36.246094 9.542969 C 36.308594 9.5625 36.332031 9.679688 36.390625 9.785156 C 35.929688 9.820312 35.523438 9.851562 35.050781 9.886719 C 34.917969 9.722656 35.101562 9.625 35.242188 9.515625 C 35.242188 9.515625 35.222656 9.527344 35.222656 9.527344 Z M 35.222656 9.527344 " fill-opacity="1" fill-rule="nonzero"/><path fill="#000000" d="M 19.65625 10.578125 C 19.144531 10.714844 18.769531 10.632812 18.355469 10.640625 C 18.433594 10.347656 18.585938 10.230469 18.824219 10.246094 C 19.082031 10.261719 19.332031 10.316406 19.65625 10.578125 Z M 19.65625 10.578125 " fill-opacity="1" fill-rule="nonzero"/><path fill="#000000" d="M 26.738281 10.535156 C 26.753906 10.25 26.90625 10.148438 27.0625 10.125 C 27.316406 10.089844 27.582031 10.101562 27.835938 10.121094 C 27.898438 10.125 27.988281 10.246094 27.992188 10.3125 C 27.992188 10.367188 27.847656 10.484375 27.816406 10.46875 C 27.464844 10.289062 27.132812 10.558594 26.738281 10.535156 Z M 26.738281 10.535156 " fill-opacity="1" fill-rule="nonzero"/><path fill="#000000" d="M 24.589844 10.691406 C 24.601562 10.585938 24.582031 10.488281 24.617188 10.464844 C 24.925781 10.253906 25.257812 10.175781 25.613281 10.335938 C 25.660156 10.355469 25.707031 10.449219 25.699219 10.496094 C 25.6875 10.546875 25.613281 10.617188 25.558594 10.625 C 25.261719 10.65625 24.960938 10.667969 24.589844 10.695312 Z M 24.589844 10.691406 " fill-opacity="1" fill-rule="nonzero"/><path fill="#000000" d="M 34.1875 9.234375 L 34.1875 9.523438 C 33.820312 9.535156 33.484375 9.550781 33.144531 9.5625 C 32.957031 9.570312 32.9375 9.492188 33.0625 9.238281 C 33.0625 9.238281 33.035156 9.253906 33.035156 9.253906 C 33.140625 9.199219 33.246094 9.144531 33.351562 9.09375 L 33.320312 9.109375 C 33.519531 9.109375 33.722656 9.109375 33.921875 9.105469 C 33.921875 9.105469 33.894531 9.09375 33.894531 9.09375 C 33.945312 9.25 34.089844 9.21875 34.203125 9.253906 L 34.183594 9.234375 Z M 34.1875 9.234375 " fill-opacity="1" fill-rule="nonzero"/><path fill="#000000" d="M 28.933594 10.164062 C 29.257812 9.789062 29.734375 9.714844 30.109375 9.988281 C 30.140625 10.011719 30.167969 10.082031 30.15625 10.109375 C 30.128906 10.160156 30.058594 10.242188 30.027344 10.234375 C 29.695312 10.148438 29.371094 10.21875 29.046875 10.238281 C 29.011719 10.242188 28.972656 10.191406 28.933594 10.164062 Z M 28.933594 10.164062 " fill-opacity="1" fill-rule="nonzero"/><path fill="#000000" d="M 8.808594 8.828125 C 9.195312 8.480469 9.542969 8.453125 9.898438 8.703125 C 9.964844 8.75 10.019531 8.863281 10.015625 8.941406 C 10.007812 9.003906 9.90625 9.058594 9.84375 9.121094 C 9.597656 8.847656 9.292969 8.957031 8.996094 8.976562 C 8.949219 8.976562 8.898438 8.902344 8.808594 8.828125 Z M 8.808594 8.828125 " fill-opacity="1" fill-rule="nonzero"/><path fill="#000000" d="M 31.183594 9.824219 C 31.390625 9.839844 31.605469 9.835938 31.804688 9.882812 C 31.933594 9.910156 32.070312 9.992188 32.011719 10.175781 C 31.972656 10.203125 31.9375 10.246094 31.902344 10.246094 C 31.585938 10.238281 31.269531 10.222656 30.867188 10.207031 C 31.011719 10.039062 31.109375 9.925781 31.207031 9.808594 C 31.207031 9.808594 31.183594 9.824219 31.183594 9.824219 Z M 31.183594 9.824219 " fill-opacity="1" fill-rule="nonzero"/><path fill="#000000" d="M 32.824219 10.015625 C 32.898438 9.796875 33.042969 9.652344 33.28125 9.652344 C 33.511719 9.65625 33.761719 9.628906 33.929688 9.84375 C 33.953125 9.878906 33.96875 9.933594 33.960938 9.96875 C 33.953125 10.003906 33.894531 10.0625 33.875 10.058594 C 33.558594 9.9375 33.25 10.027344 32.9375 10.09375 C 32.910156 10.101562 32.863281 10.042969 32.824219 10.011719 Z M 32.824219 10.015625 " fill-opacity="1" fill-rule="nonzero"/><path fill="#000000" d="M 12.328125 10.453125 C 12.496094 10.265625 12.722656 10.210938 12.953125 10.195312 C 13.125 10.183594 13.289062 10.253906 13.375 10.417969 C 13.402344 10.46875 13.386719 10.550781 13.363281 10.609375 C 13.351562 10.640625 13.265625 10.679688 13.246094 10.667969 C 12.984375 10.511719 12.703125 10.59375 12.429688 10.574219 C 12.398438 10.574219 12.371094 10.507812 12.328125 10.453125 Z M 12.328125 10.453125 " fill-opacity="1" fill-rule="nonzero"/><path fill="#000000" d="M 39.910156 9.089844 C 39.960938 9.207031 40.015625 9.324219 40.082031 9.480469 C 39.738281 9.535156 39.40625 9.238281 39.140625 9.566406 C 39.140625 9.566406 39.160156 9.550781 39.160156 9.554688 C 39.046875 9.484375 38.941406 9.417969 38.804688 9.332031 C 38.921875 9.234375 39.007812 9.164062 39.089844 9.09375 C 39.089844 9.09375 39.050781 9.109375 39.050781 9.109375 C 39.34375 9.109375 39.640625 9.109375 39.933594 9.109375 C 39.933594 9.109375 39.910156 9.089844 39.910156 9.089844 Z M 39.910156 9.089844 " fill-opacity="1" fill-rule="nonzero"/><path fill="#000000" d="M 35.066406 10.46875 C 35.027344 10.417969 34.976562 10.375 34.953125 10.320312 C 34.945312 10.292969 34.980469 10.214844 35.007812 10.207031 C 35.320312 10.140625 35.636719 10.078125 35.953125 10.03125 C 35.984375 10.027344 36.0625 10.121094 36.066406 10.175781 C 36.070312 10.226562 36.019531 10.328125 35.976562 10.335938 C 35.683594 10.390625 35.382812 10.425781 35.066406 10.46875 Z M 35.066406 10.46875 " fill-opacity="1" fill-rule="nonzero"/><path fill="#000000" d="M 9.921875 9.644531 C 9.601562 9.613281 9.328125 9.59375 9.058594 9.550781 C 8.988281 9.539062 8.933594 9.449219 8.871094 9.398438 C 8.914062 9.351562 8.953125 9.261719 9 9.257812 C 9.253906 9.242188 9.515625 9.214844 9.761719 9.253906 C 9.933594 9.28125 10.027344 9.433594 9.921875 9.648438 Z M 9.921875 9.644531 " fill-opacity="1" fill-rule="nonzero"/><path fill="#000000" d="M 32.789062 10.441406 C 32.878906 10.378906 32.964844 10.285156 33.0625 10.269531 C 33.195312 10.246094 33.347656 10.261719 33.476562 10.300781 C 33.574219 10.328125 33.675781 10.40625 33.738281 10.492188 C 33.792969 10.566406 33.609375 10.691406 33.425781 10.660156 C 33.214844 10.625 32.945312 10.734375 32.785156 10.441406 Z M 32.789062 10.441406 " fill-opacity="1" fill-rule="nonzero"/><path fill="#000000" d="M 9.71875 10.171875 C 9.402344 10.410156 9.074219 9.988281 8.71875 10.183594 C 8.738281 10.101562 8.726562 9.984375 8.777344 9.949219 C 9.121094 9.695312 9.441406 9.773438 9.714844 10.167969 Z M 9.71875 10.171875 " fill-opacity="1" fill-rule="nonzero"/><path fill="#000000" d="M 11.398438 10.214844 C 11.109375 10.480469 10.773438 10.195312 10.5625 10.421875 C 10.402344 10.257812 10.414062 10.160156 10.523438 10.078125 C 10.75 9.90625 11 9.90625 11.246094 10.011719 C 11.3125 10.042969 11.347656 10.144531 11.398438 10.214844 Z M 11.398438 10.214844 " fill-opacity="1" fill-rule="nonzero"/><path fill="#000000" d="M 31.632812 10.359375 C 31.773438 10.375 31.867188 10.378906 31.953125 10.402344 C 31.988281 10.410156 32.035156 10.472656 32.03125 10.496094 C 32.019531 10.558594 31.980469 10.65625 31.941406 10.660156 C 31.664062 10.695312 31.378906 10.714844 31.097656 10.730469 C 31.066406 10.730469 31 10.675781 31 10.648438 C 31 10.585938 31.023438 10.476562 31.058594 10.46875 C 31.261719 10.414062 31.46875 10.386719 31.628906 10.355469 Z M 31.632812 10.359375 " fill-opacity="1" fill-rule="nonzero"/><path fill="#000000" d="M 29.769531 10.671875 C 29.441406 10.699219 29.164062 10.726562 28.882812 10.742188 C 28.851562 10.746094 28.800781 10.695312 28.78125 10.65625 C 28.765625 10.621094 28.761719 10.554688 28.785156 10.527344 C 28.96875 10.316406 29.222656 10.402344 29.449219 10.382812 C 29.59375 10.375 29.742188 10.394531 29.765625 10.671875 Z M 29.769531 10.671875 " fill-opacity="1" fill-rule="nonzero"/><path fill="#000000" d="M 23.203125 10.6875 C 22.660156 10.671875 22.457031 10.59375 22.527344 10.496094 C 22.667969 10.277344 22.90625 10.375 23.101562 10.359375 C 23.214844 10.347656 23.339844 10.378906 23.449219 10.417969 C 23.496094 10.433594 23.554688 10.523438 23.546875 10.570312 C 23.539062 10.617188 23.460938 10.675781 23.40625 10.683594 C 23.289062 10.703125 23.171875 10.691406 23.203125 10.691406 Z M 23.203125 10.6875 " fill-opacity="1" fill-rule="nonzero"/><path fill="#000000" d="M 7.246094 10.222656 C 7.273438 10.285156 7.3125 10.347656 7.328125 10.414062 C 7.359375 10.554688 7.285156 10.671875 7.179688 10.65625 C 6.9375 10.625 6.699219 10.582031 6.375 10.53125 C 6.5 10.410156 6.5625 10.292969 6.640625 10.28125 C 6.84375 10.242188 7.058594 10.253906 7.265625 10.242188 C 7.265625 10.242188 7.246094 10.226562 7.246094 10.226562 Z M 7.246094 10.222656 " fill-opacity="1" fill-rule="nonzero"/><path fill="#000000" d="M 6.035156 10.480469 L 5.1875 10.480469 C 5.269531 10.183594 5.324219 10.128906 5.539062 10.117188 C 5.769531 10.105469 5.941406 10.171875 6.035156 10.480469 Z M 6.035156 10.480469 " fill-opacity="1" fill-rule="nonzero"/><path fill="#000000" d="M 5.582031 9.652344 C 5.761719 9.617188 5.945312 9.5625 6.125 9.554688 C 6.316406 9.546875 6.394531 9.683594 6.433594 9.898438 C 6.179688 9.925781 5.957031 9.957031 5.734375 9.972656 C 5.570312 9.984375 5.539062 9.898438 5.597656 9.632812 C 5.597656 9.632812 5.582031 9.652344 5.582031 9.652344 Z M 5.582031 9.652344 " fill-opacity="1" fill-rule="nonzero"/><path fill="#000000" d="M 37.773438 10.339844 C 37.460938 10.386719 37.191406 10.425781 36.933594 10.460938 C 36.808594 10.351562 36.820312 10.234375 36.9375 10.171875 C 37.1875 10.03125 37.457031 10.011719 37.722656 10.148438 C 37.746094 10.160156 37.746094 10.226562 37.773438 10.339844 Z M 37.773438 10.339844 " fill-opacity="1" fill-rule="nonzero"/><path fill="#000000" d="M 14.480469 10.601562 C 14.558594 10.320312 14.773438 10.371094 14.945312 10.363281 C 15.121094 10.355469 15.3125 10.382812 15.417969 10.652344 C 15.070312 10.710938 14.78125 10.746094 14.480469 10.601562 Z M 14.480469 10.601562 " fill-opacity="1" fill-rule="nonzero"/><path fill="#000000" d="M 9.554688 10.515625 C 9.25 10.726562 9.023438 10.707031 8.796875 10.65625 C 8.769531 10.648438 8.734375 10.59375 8.730469 10.558594 C 8.726562 10.519531 8.75 10.460938 8.777344 10.445312 C 9.015625 10.339844 9.246094 10.339844 9.554688 10.515625 Z M 9.554688 10.515625 " fill-opacity="1" fill-rule="nonzero"/><path fill="#000000" d="M 36.328125 17.832031 C 36.234375 17.707031 36.140625 17.582031 36.046875 17.457031 C 35.832031 17.414062 35.675781 17.503906 35.609375 17.699219 C 35.554688 17.855469 35.4375 17.90625 35.308594 17.960938 C 35.308594 17.960938 35.347656 17.976562 35.347656 17.976562 C 35.148438 17.746094 35.066406 17.746094 34.75 17.976562 L 34.773438 17.957031 C 34.421875 17.929688 34.542969 17.539062 34.347656 17.386719 C 34.328125 17.375 34.386719 17.210938 34.449219 17.152344 C 34.695312 16.910156 35.007812 16.917969 35.316406 16.992188 C 35.492188 17.039062 35.660156 17.132812 35.828125 17.203125 C 36.023438 17.082031 36.199219 16.953125 36.390625 16.863281 C 36.8125 16.664062 37.128906 16.796875 37.347656 17.277344 C 37.230469 17.335938 37.109375 17.398438 36.992188 17.457031 C 36.988281 17.21875 36.988281 17.21875 36.621094 17.203125 C 36.796875 17.3125 36.902344 17.378906 37.007812 17.441406 C 37.273438 17.597656 37.214844 17.875 37.339844 18.179688 C 36.964844 18.105469 36.671875 17.96875 36.371094 18.273438 C 36.339844 18.039062 36.324219 17.929688 36.308594 17.816406 C 36.34375 17.792969 36.378906 17.769531 36.410156 17.746094 C 36.382812 17.773438 36.351562 17.804688 36.324219 17.832031 Z M 35.214844 17.34375 C 35.207031 17.324219 35.203125 17.300781 35.191406 17.296875 C 35.148438 17.292969 35.105469 17.292969 35.058594 17.292969 C 35.070312 17.320312 35.082031 17.371094 35.089844 17.371094 C 35.132812 17.367188 35.175781 17.351562 35.214844 17.34375 Z M 35.214844 17.34375 " fill-opacity="1" fill-rule="nonzero"/><path fill="#000000" d="M 37.9375 17.429688 C 37.816406 17.375 37.695312 17.320312 37.570312 17.265625 C 37.902344 16.738281 38.089844 16.71875 38.910156 17.136719 C 39.265625 16.878906 39.652344 16.652344 40.15625 16.914062 C 40.347656 17.203125 40.296875 17.566406 40.339844 17.910156 C 39.957031 18.066406 39.628906 18.113281 39.359375 18.046875 C 39.417969 17.894531 39.476562 17.746094 39.539062 17.601562 C 39.667969 17.621094 39.792969 17.640625 39.921875 17.660156 C 39.921875 17.636719 39.921875 17.613281 39.921875 17.589844 C 39.796875 17.59375 39.671875 17.601562 39.542969 17.605469 C 39.476562 17.699219 39.378906 17.714844 39.308594 17.644531 C 39.246094 17.589844 39.238281 17.46875 39.175781 17.414062 C 39.089844 17.335938 38.972656 17.28125 38.863281 17.386719 C 38.769531 17.476562 38.851562 17.550781 38.898438 17.625 C 39.003906 17.800781 38.878906 17.871094 38.746094 17.941406 L 38.773438 17.964844 C 38.609375 17.703125 38.402344 17.625 38.121094 17.800781 C 38.023438 17.863281 37.910156 17.898438 37.800781 17.933594 C 37.71875 17.957031 37.609375 17.8125 37.660156 17.738281 C 37.738281 17.625 37.832031 17.519531 37.917969 17.414062 C 38.039062 17.386719 38.164062 17.359375 38.355469 17.316406 C 38.109375 17.207031 37.964844 17.1875 37.933594 17.429688 Z M 39.769531 17.203125 C 39.714844 17.183594 39.6875 17.171875 39.667969 17.164062 C 39.667969 17.179688 39.667969 17.199219 39.671875 17.203125 C 39.691406 17.203125 39.710938 17.203125 39.769531 17.203125 Z M 39.769531 17.203125 " fill-opacity="1" fill-rule="nonzero"/><path fill="#000000" d="M 33.84375 17.640625 C 33.777344 18.042969 33.789062 18.039062 33.933594 18.410156 C 33.960938 18.480469 33.925781 18.589844 33.886719 18.667969 C 33.875 18.691406 33.734375 18.699219 33.707031 18.667969 C 33.585938 18.519531 33.433594 18.5 33.257812 18.515625 C 33.148438 18.523438 33.035156 18.5 32.9375 18.496094 C 32.859375 18.316406 32.933594 18.234375 33.046875 18.171875 C 33.144531 18.125 33.242188 18.082031 33.429688 17.996094 C 33.171875 17.984375 33.011719 17.972656 32.847656 17.964844 C 32.765625 17.796875 32.683594 17.636719 32.609375 17.488281 C 32.714844 17.242188 32.882812 17.128906 33.117188 17.117188 C 33.355469 17.105469 33.601562 17.074219 33.808594 17.226562 C 33.972656 17.347656 33.976562 17.5 33.820312 17.648438 C 33.671875 17.625 33.535156 17.511719 33.382812 17.628906 C 33.4375 17.464844 33.40625 17.382812 33.1875 17.460938 C 33.269531 17.519531 33.332031 17.5625 33.402344 17.609375 C 33.550781 17.617188 33.695312 17.628906 33.839844 17.640625 Z M 33.84375 17.640625 " fill-opacity="1" fill-rule="nonzero"/><path fill="#000000" d="M 32.109375 18.125 C 31.742188 18.078125 31.386719 17.992188 31.070312 18.128906 C 30.886719 18.023438 30.980469 17.910156 30.976562 17.800781 C 30.976562 17.695312 30.929688 17.589844 30.894531 17.460938 C 31.050781 17.375 31.1875 17.28125 31.335938 17.21875 C 31.835938 17.003906 32.226562 17.285156 32.179688 17.824219 C 32.171875 17.914062 32.136719 18.003906 32.109375 18.125 Z M 31.324219 17.605469 C 31.542969 17.644531 31.609375 17.664062 31.675781 17.664062 C 31.71875 17.664062 31.757812 17.632812 31.800781 17.613281 C 31.765625 17.589844 31.734375 17.542969 31.699219 17.542969 C 31.621094 17.542969 31.546875 17.566406 31.324219 17.605469 Z M 31.324219 17.605469 " fill-opacity="1" fill-rule="nonzero"/><path fill="#000000" d="M 27.828125 18.046875 C 27.761719 18.050781 27.671875 18.082031 27.636719 18.050781 C 27.597656 18.019531 27.574219 17.90625 27.601562 17.863281 C 27.738281 17.648438 27.9375 17.523438 28.199219 17.5625 C 28.359375 17.589844 28.523438 17.644531 28.667969 17.71875 C 28.730469 17.75 28.796875 17.917969 28.769531 17.945312 C 28.605469 18.128906 28.695312 18.332031 28.761719 18.558594 L 27.769531 18.558594 C 27.695312 18.5 27.703125 18.402344 27.765625 18.28125 C 27.804688 18.210938 27.800781 18.117188 27.820312 18.035156 C 27.996094 18.128906 28.171875 18.203125 28.351562 18.023438 C 28.160156 17.859375 28 17.996094 27.832031 18.046875 Z M 27.828125 18.046875 " fill-opacity="1" fill-rule="nonzero"/><path fill="#000000" d="M 38.75 17.9375 C 38.804688 18.058594 38.863281 18.183594 38.929688 18.324219 C 38.675781 18.476562 38.339844 18.113281 38.160156 18.480469 C 38.289062 18.609375 38.621094 18.441406 38.609375 18.808594 C 38.347656 18.867188 38.09375 19 37.761719 18.90625 C 37.796875 18.808594 37.828125 18.730469 37.847656 18.644531 C 37.882812 18.496094 37.683594 18.339844 37.851562 18.195312 C 38.035156 18.039062 38.242188 17.9375 38.496094 17.953125 C 38.589844 17.957031 38.683594 17.960938 38.773438 17.964844 C 38.773438 17.964844 38.75 17.9375 38.75 17.9375 Z M 38.75 17.9375 " fill-opacity="1" fill-rule="nonzero"/><path fill="#000000" d="M 26.363281 18.058594 C 26.226562 18.074219 26.089844 18.089844 25.894531 18.113281 C 25.933594 17.972656 25.933594 17.878906 25.976562 17.8125 C 26.136719 17.574219 26.386719 17.484375 26.652344 17.464844 C 26.808594 17.457031 26.984375 17.492188 27.125 17.566406 C 27.292969 17.652344 27.414062 17.804688 27.394531 18.023438 C 27.25 18.15625 27.15625 18.078125 27.027344 17.980469 C 26.722656 17.742188 26.671875 17.757812 26.34375 18.078125 Z M 26.363281 18.058594 " fill-opacity="1" fill-rule="nonzero"/><path fill="#000000" d="M 24.308594 18.96875 C 24.003906 18.820312 23.976562 18.714844 24.207031 18.554688 C 24.667969 18.230469 24.988281 18.203125 25.367188 18.472656 C 25.441406 18.523438 25.507812 18.601562 25.546875 18.683594 C 25.574219 18.734375 25.570312 18.828125 25.539062 18.871094 C 25.503906 18.914062 25.421875 18.914062 25.355469 18.929688 C 25.339844 18.933594 25.308594 18.914062 25.292969 18.898438 C 24.992188 18.539062 24.683594 18.648438 24.375 18.886719 C 24.339844 18.914062 24.316406 18.957031 24.285156 18.992188 C 24.285156 18.992188 24.308594 18.96875 24.308594 18.96875 Z M 24.308594 18.96875 " fill-opacity="1" fill-rule="nonzero"/><path fill="#000000" d="M 41.1875 17.097656 C 41.234375 17.320312 41.28125 17.542969 41.332031 17.796875 C 41.097656 17.855469 40.855469 17.914062 40.636719 17.96875 C 40.476562 17.839844 40.527344 17.726562 40.609375 17.644531 C 40.699219 17.550781 40.8125 17.488281 40.996094 17.351562 C 40.792969 17.320312 40.679688 17.316406 40.578125 17.277344 C 40.527344 17.261719 40.472656 17.171875 40.480469 17.121094 C 40.484375 17.070312 40.550781 17 40.605469 16.984375 C 40.824219 16.921875 41.027344 16.972656 41.203125 17.117188 C 41.203125 17.117188 41.1875 17.097656 41.1875 17.097656 Z M 41.1875 17.097656 " fill-opacity="1" fill-rule="nonzero"/><path fill="#000000" d="M 25.433594 18.285156 C 25.1875 18.171875 25.023438 18.09375 24.847656 18.007812 C 24.65625 18.097656 24.46875 18.183594 24.300781 18.261719 C 24.144531 18.175781 24.113281 18.058594 24.191406 17.953125 C 24.5 17.53125 25.15625 17.554688 25.453125 17.996094 C 25.480469 18.039062 25.445312 18.125 25.433594 18.285156 Z M 25.433594 18.285156 " fill-opacity="1" fill-rule="nonzero"/><path fill="#000000" d="M 24.285156 18.992188 C 24.449219 18.984375 24.613281 18.964844 24.777344 18.972656 C 25.003906 18.988281 25.183594 19.105469 25.292969 19.300781 C 25.316406 19.347656 25.289062 19.433594 25.261719 19.492188 C 25.25 19.515625 25.179688 19.519531 25.136719 19.523438 C 25.117188 19.527344 25.085938 19.519531 25.070312 19.503906 C 24.8125 19.265625 24.5625 19.351562 24.296875 19.503906 C 24.238281 19.535156 24.136719 19.492188 23.992188 19.476562 C 24.121094 19.269531 24.214844 19.117188 24.308594 18.96875 C 24.308594 18.96875 24.285156 18.992188 24.285156 18.992188 Z M 24.285156 18.992188 " fill-opacity="1" fill-rule="nonzero"/><path fill="#000000" d="M 29.328125 17.960938 C 29.253906 17.90625 29.179688 17.851562 29.082031 17.777344 C 29.230469 17.542969 29.414062 17.394531 29.664062 17.386719 C 29.871094 17.378906 30.078125 17.4375 30.285156 17.480469 C 30.324219 17.488281 30.367188 17.539062 30.382812 17.578125 C 30.40625 17.636719 30.425781 17.707031 30.417969 17.769531 C 30.414062 17.796875 30.347656 17.835938 30.304688 17.839844 C 30.210938 17.839844 30.117188 17.824219 30.023438 17.816406 C 30.023438 17.816406 30.054688 17.835938 30.054688 17.835938 C 29.863281 17.660156 29.789062 17.660156 29.597656 17.835938 L 29.625 17.820312 C 29.515625 17.871094 29.410156 17.929688 29.304688 17.980469 C 29.304688 17.980469 29.324219 17.960938 29.324219 17.960938 Z M 29.328125 17.960938 " fill-opacity="1" fill-rule="nonzero"/><path fill="#000000" d="M 26.34375 18.078125 C 26.609375 18.152344 26.886719 18.207031 27.140625 18.3125 C 27.300781 18.378906 27.386719 18.53125 27.183594 18.726562 C 26.914062 18.546875 26.621094 18.449219 26.292969 18.636719 C 26.25 18.660156 26.140625 18.574219 26.035156 18.523438 C 26.15625 18.34375 26.257812 18.203125 26.359375 18.058594 C 26.359375 18.058594 26.34375 18.074219 26.34375 18.074219 Z M 26.34375 18.078125 " fill-opacity="1" fill-rule="nonzero"/><path fill="#000000" d="M 41.328125 18.460938 C 41.371094 18.507812 41.429688 18.550781 41.457031 18.605469 C 41.523438 18.738281 41.453125 18.855469 41.320312 18.839844 C 41.230469 18.828125 41.125 18.824219 41.054688 18.777344 C 40.90625 18.679688 40.777344 18.558594 40.613281 18.421875 C 40.804688 18.121094 41.085938 18.058594 41.394531 18.058594 C 41.496094 18.058594 41.5625 18.222656 41.496094 18.339844 C 41.464844 18.394531 41.386719 18.421875 41.332031 18.460938 Z M 41.328125 18.460938 " fill-opacity="1" fill-rule="nonzero"/><path fill="#000000" d="M 29.625 18.394531 L 29.179688 18.394531 C 29.242188 18.210938 29.285156 18.085938 29.328125 17.960938 C 29.328125 17.960938 29.304688 17.980469 29.304688 17.980469 C 29.414062 17.925781 29.519531 17.871094 29.625 17.816406 C 29.625 17.816406 29.597656 17.835938 29.597656 17.835938 C 29.75 17.835938 29.902344 17.835938 30.054688 17.835938 C 30.054688 17.835938 30.027344 17.816406 30.027344 17.816406 C 30.097656 17.863281 30.175781 17.898438 30.234375 17.957031 C 30.304688 18.03125 30.414062 18.128906 30.402344 18.203125 C 30.394531 18.277344 30.253906 18.332031 30.171875 18.394531 L 30.195312 18.40625 C 29.902344 18.171875 29.855469 18.171875 29.605469 18.40625 L 29.628906 18.394531 Z M 29.625 18.394531 " fill-opacity="1" fill-rule="nonzero"/><path fill="#000000" d="M 30.171875 18.394531 C 30.238281 18.488281 30.324219 18.570312 30.371094 18.671875 C 30.390625 18.707031 30.324219 18.839844 30.304688 18.839844 C 30.128906 18.828125 29.953125 18.769531 29.78125 18.78125 C 29.628906 18.792969 29.484375 18.882812 29.332031 18.929688 C 29.3125 18.933594 29.269531 18.875 29.226562 18.835938 C 29.269531 18.613281 29.460938 18.515625 29.625 18.398438 C 29.625 18.398438 29.597656 18.40625 29.597656 18.40625 C 29.796875 18.40625 29.996094 18.40625 30.191406 18.40625 C 30.191406 18.40625 30.167969 18.398438 30.167969 18.398438 Z M 30.171875 18.394531 " fill-opacity="1" fill-rule="nonzero"/><path fill="#000000" d="M 32.3125 18.636719 C 32.242188 18.691406 32.191406 18.753906 32.179688 18.746094 C 31.832031 18.5625 31.476562 18.542969 31.132812 18.691406 C 30.96875 18.488281 31.101562 18.367188 31.214844 18.3125 C 31.636719 18.117188 32 18.21875 32.3125 18.636719 Z M 32.3125 18.636719 " fill-opacity="1" fill-rule="nonzero"/><path fill="#000000" d="M 34.867188 18.46875 C 34.824219 18.46875 34.773438 18.484375 34.730469 18.472656 C 34.652344 18.453125 34.566406 18.433594 34.511719 18.382812 C 34.484375 18.355469 34.511719 18.246094 34.546875 18.195312 C 34.609375 18.105469 34.695312 18.035156 34.773438 17.957031 C 34.773438 17.957031 34.75 17.976562 34.75 17.976562 C 34.949219 17.976562 35.152344 17.976562 35.351562 17.976562 C 35.351562 17.976562 35.3125 17.964844 35.3125 17.964844 C 35.441406 18.074219 35.667969 18.121094 35.589844 18.386719 C 35.347656 18.484375 35.066406 18.242188 34.855469 18.476562 C 34.855469 18.476562 34.871094 18.46875 34.871094 18.46875 Z M 34.867188 18.46875 " fill-opacity="1" fill-rule="nonzero"/><path fill="#000000" d="M 34.851562 18.476562 C 34.957031 18.660156 35.164062 18.53125 35.296875 18.625 C 35.441406 18.722656 35.570312 18.820312 35.496094 19.03125 C 35.300781 19.203125 35.171875 18.914062 34.980469 18.953125 C 34.828125 18.988281 34.660156 18.960938 34.503906 18.960938 C 34.433594 18.625 34.804688 18.675781 34.867188 18.46875 C 34.871094 18.46875 34.855469 18.476562 34.855469 18.476562 Z M 34.851562 18.476562 " fill-opacity="1" fill-rule="nonzero"/><path fill="#000000" d="M 26.070312 19.253906 C 26.109375 19.144531 26.121094 19.042969 26.160156 19.027344 C 26.355469 18.953125 26.554688 18.875 26.757812 18.851562 C 26.945312 18.832031 27.035156 18.96875 27.167969 19.390625 C 26.796875 19.332031 26.457031 19.222656 26.066406 19.253906 Z M 26.070312 19.253906 " fill-opacity="1" fill-rule="nonzero"/><path fill="#000000" d="M 27.625 19.375 C 27.964844 18.949219 28.003906 18.933594 28.371094 19.070312 C 28.484375 19.109375 28.613281 19.160156 28.585938 19.304688 C 28.550781 19.503906 28.417969 19.457031 28.261719 19.421875 C 28.085938 19.378906 27.898438 19.394531 27.625 19.375 Z M 27.625 19.375 " fill-opacity="1" fill-rule="nonzero"/><path fill="#000000" d="M 33.691406 19.242188 L 32.636719 19.242188 C 32.820312 18.890625 33.089844 18.839844 33.371094 18.855469 C 33.539062 18.867188 33.6875 18.949219 33.6875 19.242188 Z M 33.691406 19.242188 " fill-opacity="1" fill-rule="nonzero"/><path fill="#000000" d="M 32 19.109375 C 31.664062 19.191406 31.375 19.261719 31.085938 19.324219 C 31.050781 19.332031 30.996094 19.285156 30.972656 19.25 C 30.949219 19.21875 30.941406 19.148438 30.960938 19.128906 C 31.179688 18.867188 31.582031 18.777344 31.910156 18.914062 C 31.9375 18.925781 31.949219 18.992188 32 19.109375 Z M 32 19.109375 " fill-opacity="1" fill-rule="nonzero"/><path fill="#000000" d="M 37.089844 18.699219 C 36.769531 18.726562 36.546875 18.757812 36.320312 18.765625 C 36.265625 18.765625 36.175781 18.722656 36.15625 18.675781 C 36.132812 18.632812 36.167969 18.519531 36.207031 18.5 C 36.371094 18.425781 36.546875 18.351562 36.726562 18.3125 C 36.800781 18.300781 36.910156 18.363281 36.972656 18.421875 C 37.027344 18.480469 37.042969 18.578125 37.089844 18.699219 Z M 37.089844 18.699219 " fill-opacity="1" fill-rule="nonzero"/><path fill="#000000" d="M 29.226562 19.523438 C 29.21875 19.429688 29.195312 19.367188 29.21875 19.34375 C 29.449219 19.082031 29.742188 19.078125 30.042969 19.191406 C 30.089844 19.210938 30.140625 19.296875 30.140625 19.351562 C 30.136719 19.398438 30.066406 19.476562 30.019531 19.480469 C 29.769531 19.503906 29.515625 19.511719 29.222656 19.523438 Z M 29.226562 19.523438 " fill-opacity="1" fill-rule="nonzero"/><path fill="#000000" d="M 39.382812 18.675781 C 39.375 18.324219 39.457031 18.226562 39.75 18.222656 C 39.910156 18.21875 40.085938 18.214844 40.175781 18.386719 C 40.203125 18.441406 40.179688 18.519531 40.179688 18.617188 C 40.039062 18.609375 39.910156 18.589844 39.78125 18.601562 C 39.648438 18.613281 39.519531 18.648438 39.382812 18.675781 Z M 39.382812 18.675781 " fill-opacity="1" fill-rule="nonzero"/><path fill="#000000" d="M 13.015625 32.34375 C 12.5 32.632812 11.96875 32.613281 11.449219 32.597656 C 10.878906 32.578125 10.3125 32.488281 9.746094 32.636719 C 9.625 32.667969 9.476562 32.574219 9.320312 32.53125 C 9.195312 32.082031 9.261719 31.632812 9.261719 31.1875 C 9.253906 30.070312 9.28125 28.949219 9.261719 27.832031 C 9.242188 26.882812 9.167969 25.933594 9.117188 24.984375 C 9.085938 24.414062 9.035156 23.847656 9.03125 23.277344 C 9.015625 22.125 9.394531 21.132812 10.28125 20.363281 C 10.574219 20.109375 10.921875 19.949219 11.292969 19.855469 C 12.089844 19.65625 12.609375 20.078125 12.835938 20.664062 C 13.0625 21.246094 13.15625 21.851562 13.191406 22.472656 C 13.316406 24.777344 13.1875 27.078125 13.085938 29.378906 C 13.058594 29.996094 13.003906 30.613281 12.984375 31.230469 C 12.972656 31.582031 13.003906 31.9375 13.019531 32.34375 Z M 11.296875 23.054688 C 11.136719 24.339844 11.324219 25.621094 11.199219 26.898438 C 11.035156 28.53125 11.03125 30.175781 10.964844 31.816406 C 10.957031 31.90625 10.996094 32 11.019531 32.101562 C 11.53125 32.347656 12.03125 32.28125 12.535156 32.109375 C 12.585938 31.375 12.644531 30.664062 12.683594 29.957031 C 12.71875 29.25 12.828125 28.542969 12.742188 27.867188 C 12.644531 27.8125 12.605469 27.769531 12.566406 27.765625 C 12.273438 27.734375 12.15625 27.574219 12.167969 27.28125 C 12.175781 26.996094 12.167969 26.710938 12.15625 26.425781 C 12.144531 26.152344 12.265625 25.972656 12.511719 25.867188 C 12.617188 25.824219 12.71875 25.773438 12.839844 25.714844 C 12.839844 24.90625 12.847656 24.121094 12.835938 23.335938 C 12.835938 23.230469 12.761719 23.125 12.710938 22.992188 C 12.332031 22.992188 11.976562 22.992188 11.621094 22.996094 C 11.53125 22.996094 11.441406 23.027344 11.296875 23.054688 Z M 10.511719 32.109375 C 10.785156 30.78125 10.980469 24.277344 10.78125 23.050781 C 10.328125 22.890625 9.910156 23.097656 9.445312 23.171875 C 9.433594 23.335938 9.410156 23.472656 9.417969 23.609375 C 9.480469 25.0625 9.554688 26.511719 9.617188 27.964844 C 9.644531 28.675781 9.675781 29.390625 9.671875 30.101562 C 9.667969 30.671875 9.605469 31.242188 9.582031 31.8125 C 9.578125 31.941406 9.628906 32.078125 9.652344 32.207031 C 9.980469 32.28125 10.25 32.199219 10.511719 32.109375 Z M 12.6875 22.550781 C 12.820312 21.847656 12.621094 21.246094 12.367188 20.660156 C 12.257812 20.410156 12.046875 20.257812 11.761719 20.210938 C 11.476562 20.167969 11.296875 20.285156 11.289062 20.578125 C 11.273438 21.050781 11.28125 21.527344 11.28125 22 C 11.28125 22.179688 11.304688 22.363281 11.316406 22.578125 C 11.804688 22.597656 12.238281 22.597656 12.683594 22.546875 Z M 10.839844 22.617188 C 10.96875 21.960938 10.894531 21.324219 10.894531 20.695312 C 10.894531 20.640625 10.835938 20.582031 10.785156 20.496094 C 10.332031 20.742188 10.0625 21.105469 9.847656 21.53125 C 9.527344 22.179688 9.464844 22.382812 9.511719 22.769531 C 9.925781 22.722656 10.34375 22.671875 10.839844 22.617188 Z M 10.839844 22.617188 " fill-opacity="1" fill-rule="nonzero"/><path fill="#000000" d="M 18.28125 32.101562 C 17.101562 32.144531 16.011719 32.1875 14.921875 32.222656 C 14.859375 32.222656 14.796875 32.164062 14.707031 32.125 C 14.640625 31.492188 14.707031 30.851562 14.761719 30.21875 C 14.792969 29.816406 14.800781 29.417969 14.769531 29.015625 C 14.722656 28.421875 14.75 27.824219 14.746094 27.230469 C 14.746094 27.089844 14.785156 26.941406 14.769531 26.804688 C 14.613281 25.59375 14.710938 24.382812 14.746094 23.171875 C 14.773438 22.136719 15.039062 21.160156 15.703125 20.320312 C 15.90625 20.0625 16.113281 19.878906 16.421875 19.765625 C 16.859375 19.601562 17.277344 19.492188 17.71875 19.757812 C 18.183594 20.042969 18.421875 20.457031 18.46875 20.988281 C 18.507812 21.414062 18.566406 21.839844 18.578125 22.265625 C 18.617188 23.859375 18.578125 25.453125 18.46875 27.042969 C 18.394531 28.089844 18.332031 29.132812 18.289062 30.175781 C 18.261719 30.789062 18.28125 31.402344 18.28125 32.101562 Z M 15.160156 22.746094 C 15.128906 23.652344 15.011719 24.5 15.113281 25.339844 C 15.285156 25.386719 15.417969 25.421875 15.5625 25.464844 C 15.648438 26.203125 15.609375 26.910156 15.582031 27.613281 C 15.414062 27.710938 15.273438 27.792969 15.148438 27.867188 C 15.148438 28.535156 15.148438 29.175781 15.148438 29.820312 C 15.148438 30.476562 14.996094 31.128906 15.078125 31.816406 C 15.492188 31.851562 15.863281 31.894531 16.207031 31.71875 C 16.324219 30.890625 16.757812 23.648438 16.574219 22.691406 C 16.140625 22.707031 15.695312 22.726562 15.160156 22.75 Z M 17.828125 31.664062 C 17.835938 31.554688 17.84375 31.4375 17.847656 31.320312 C 17.871094 30.65625 17.875 29.988281 17.914062 29.320312 C 17.972656 28.371094 18.078125 27.425781 18.117188 26.476562 C 18.160156 25.382812 18.15625 24.285156 18.167969 23.1875 C 18.171875 23.027344 18.140625 22.867188 18.121094 22.683594 C 17.742188 22.691406 17.390625 22.542969 17.011719 22.761719 C 17.011719 23.003906 17.011719 23.265625 17.011719 23.527344 C 17 24.214844 17.03125 24.910156 16.964844 25.597656 C 16.785156 27.46875 16.765625 29.351562 16.667969 31.230469 C 16.65625 31.410156 16.707031 31.589844 16.734375 31.808594 C 17.125 31.773438 17.480469 31.890625 17.828125 31.664062 Z M 16.695312 20.113281 C 16.351562 20.175781 16.15625 20.375 15.980469 20.59375 C 15.582031 21.085938 15.378906 21.652344 15.292969 22.285156 C 15.773438 22.539062 16.179688 22.28125 16.617188 22.234375 C 16.609375 21.507812 16.816406 20.839844 16.695312 20.113281 Z M 18.121094 22.199219 C 18.121094 21.917969 18.132812 21.703125 18.117188 21.492188 C 18.101562 21.28125 18.058594 21.070312 18.019531 20.859375 C 17.972656 20.597656 17.835938 20.375 17.632812 20.199219 C 17.507812 20.085938 17.367188 20 17.191406 20.09375 C 17.027344 20.949219 16.914062 21.675781 17.113281 22.207031 C 17.425781 22.261719 17.746094 22.265625 18.117188 22.199219 Z M 18.121094 22.199219 " fill-opacity="1" fill-rule="nonzero"/><path fill="#000000" d="M 22.601562 18.679688 C 22.648438 18.828125 22.699219 18.972656 22.746094 19.125 C 22.632812 19.097656 22.484375 19.105469 22.417969 19.035156 C 22.234375 18.851562 22.011719 18.8125 21.78125 18.785156 C 21.78125 18.785156 21.804688 18.800781 21.804688 18.800781 C 21.816406 18.757812 21.832031 18.722656 21.835938 18.679688 C 21.875 18.457031 21.964844 18.367188 22.121094 18.429688 C 22.285156 18.5 22.441406 18.597656 22.601562 18.679688 Z M 22.601562 18.679688 " fill-opacity="1" fill-rule="nonzero"/><path fill="#000000" d="M 21.339844 19.023438 C 21.4375 18.820312 21.628906 18.820312 21.808594 18.800781 C 21.804688 18.800781 21.78125 18.785156 21.78125 18.785156 C 21.9375 18.953125 22.097656 19.125 22.25 19.300781 C 22.269531 19.324219 22.257812 19.414062 22.234375 19.425781 C 22.179688 19.453125 22.09375 19.488281 22.050781 19.464844 C 21.804688 19.324219 21.566406 19.167969 21.328125 19.019531 Z M 21.339844 19.023438 " fill-opacity="1" fill-rule="nonzero"/><path fill="#000000" d="M 21.328125 19.019531 C 21.457031 19.160156 21.59375 19.292969 21.703125 19.445312 C 21.746094 19.507812 21.726562 19.609375 21.738281 19.714844 C 21.445312 19.726562 21.320312 19.566406 21.195312 19.386719 C 21.246094 19.269531 21.296875 19.148438 21.34375 19.027344 C 21.339844 19.027344 21.328125 19.023438 21.328125 19.023438 Z M 21.328125 19.019531 " fill-opacity="1" fill-rule="nonzero"/></svg>