<svg xmlns="http://www.w3.org/2000/svg" xmlns:xlink="http://www.w3.org/1999/xlink" width="62" zoomAndPan="magnify" viewBox="0 0 46.5 46.5" height="62" preserveAspectRatio="xMidYMid meet" version="1.0"><defs><clipPath id="29080da809"><path d="M 6.386719 3.390625 L 39.777344 3.390625 L 39.777344 42.71875 L 6.386719 42.71875 Z M 6.386719 3.390625 " clip-rule="nonzero"/></clipPath></defs><g clip-path="url(#29080da809)"><path fill="#000000" d="M 39.726562 16.972656 C 39.550781 17.007812 39.351562 17.042969 39.15625 17.09375 C 38.976562 17.144531 38.808594 17.214844 38.601562 17.285156 C 38.574219 17.691406 38.523438 18.078125 38.527344 18.464844 C 38.535156 19.785156 38.5625 21.101562 38.585938 22.425781 C 38.59375 22.960938 38.609375 23.496094 38.625 24.03125 C 38.628906 24.132812 38.632812 24.238281 38.667969 24.328125 C 38.785156 24.609375 38.835938 24.871094 38.660156 25.152344 C 38.605469 25.242188 38.628906 25.394531 38.648438 25.511719 C 38.855469 27.023438 39.070312 28.535156 39.277344 30.042969 C 39.351562 30.574219 39.402344 31.109375 39.457031 31.644531 C 39.480469 31.910156 39.378906 32.019531 39.105469 32.023438 C 39.023438 32.023438 38.941406 32.007812 38.824219 31.996094 C 38.847656 35.117188 38.539062 38.222656 38.6875 41.359375 C 38.601562 41.457031 38.519531 41.578125 38.410156 41.660156 C 38.316406 41.726562 38.1875 41.777344 38.074219 41.777344 C 37.101562 41.804688 36.132812 41.824219 35.164062 41.832031 C 34.441406 41.835938 33.71875 41.820312 32.996094 41.820312 C 32.5 41.820312 32.003906 41.828125 31.507812 41.832031 C 30.390625 41.847656 29.277344 41.84375 28.160156 41.875 C 26.941406 41.914062 25.726562 41.980469 24.507812 42.035156 C 24.035156 42.054688 23.558594 42.066406 23.085938 42.074219 C 22.257812 42.089844 21.429688 42.097656 20.605469 42.105469 C 20.480469 42.105469 20.351562 42.082031 20.234375 42.105469 C 19.496094 42.234375 18.753906 42.195312 18.007812 42.21875 C 16.835938 42.257812 15.660156 42.351562 14.488281 42.425781 C 13.496094 42.488281 12.507812 42.554688 11.519531 42.617188 C 11.128906 42.640625 10.738281 42.667969 10.34375 42.691406 C 10.015625 42.707031 9.695312 42.628906 9.371094 42.589844 C 9.050781 42.550781 8.71875 42.652344 8.390625 42.6875 C 8.308594 42.699219 8.222656 42.691406 8.144531 42.675781 C 8.011719 42.652344 7.917969 42.566406 7.898438 42.429688 C 7.882812 42.332031 7.882812 42.226562 7.882812 42.121094 C 7.90625 41.339844 7.933594 40.554688 7.949219 39.773438 C 7.984375 37.960938 8.015625 36.144531 8.019531 34.332031 C 8.019531 32.925781 7.917969 31.527344 7.910156 30.125 C 7.90625 28.640625 7.941406 27.15625 7.949219 25.671875 C 7.957031 24.640625 7.941406 23.609375 7.960938 22.582031 C 7.984375 21.199219 8.039062 19.816406 8.074219 18.433594 C 8.078125 18.230469 8.054688 18.023438 8.042969 17.765625 C 7.921875 17.8125 7.828125 17.828125 7.757812 17.875 C 7.535156 18.027344 7.328125 18.199219 7.101562 18.34375 C 6.886719 18.488281 6.714844 18.433594 6.613281 18.183594 C 6.535156 17.996094 6.472656 17.796875 6.425781 17.597656 C 6.316406 17.132812 6.425781 16.789062 6.84375 16.476562 C 7.824219 15.753906 8.777344 14.992188 9.710938 14.210938 C 10.695312 13.394531 11.648438 12.535156 12.613281 11.695312 C 13.894531 10.585938 15.109375 9.40625 16.480469 8.402344 C 17.328125 7.777344 18.148438 7.113281 19 6.492188 C 19.5 6.128906 20.039062 5.824219 20.558594 5.484375 C 21.546875 4.84375 22.53125 4.199219 23.515625 3.554688 C 23.585938 3.511719 23.660156 3.476562 23.761719 3.417969 C 24.390625 3.847656 25.019531 4.277344 25.652344 4.703125 C 27.039062 5.644531 28.300781 6.742188 29.597656 7.796875 C 30.125 8.230469 30.667969 8.640625 31.226562 9.03125 C 32.261719 9.75 33.289062 10.480469 34.207031 11.351562 C 34.820312 11.933594 35.414062 12.535156 36.027344 13.121094 C 36.597656 13.664062 37.171875 14.195312 37.75 14.726562 C 38.359375 15.285156 38.972656 15.835938 39.589844 16.382812 C 39.765625 16.539062 39.835938 16.707031 39.726562 16.972656 Z M 25.539062 5.765625 C 25.449219 6.082031 25.628906 6.222656 25.960938 6.382812 C 25.835938 6.089844 25.753906 5.882812 25.53125 5.777344 C 25.441406 5.347656 25.152344 5.019531 24.941406 4.652344 C 24.929688 4.632812 24.855469 4.644531 24.734375 4.640625 C 24.988281 5.042969 25.207031 5.386719 25.433594 5.730469 C 25.449219 5.753906 25.503906 5.753906 25.539062 5.769531 Z M 23.832031 5.246094 C 23.714844 5.296875 23.59375 5.332031 23.492188 5.398438 C 22.832031 5.820312 22.179688 6.253906 21.523438 6.679688 C 20.476562 7.351562 19.507812 8.125 18.566406 8.929688 C 17.078125 10.203125 15.667969 11.570312 14.117188 12.773438 C 13.074219 13.585938 12.054688 14.429688 11.019531 15.25 C 10.132812 15.953125 9.234375 16.648438 8.390625 17.308594 C 8.390625 18.160156 8.429688 18.945312 8.382812 19.722656 C 8.296875 21.082031 8.300781 22.445312 8.304688 23.804688 C 8.304688 24.109375 8.324219 24.410156 8.335938 24.726562 C 8.453125 24.742188 8.53125 24.761719 8.609375 24.761719 C 9.042969 24.75 9.480469 24.734375 9.914062 24.71875 C 10.324219 24.707031 10.742188 24.710938 11.152344 24.671875 C 12.140625 24.582031 13.125 24.464844 14.117188 24.453125 C 14.40625 24.449219 14.695312 24.457031 14.984375 24.441406 C 16.117188 24.375 17.25 24.296875 18.382812 24.21875 C 18.507812 24.210938 18.628906 24.183594 18.753906 24.167969 C 19.203125 24.113281 19.652344 24.054688 20.105469 24.015625 C 20.351562 23.996094 20.425781 24.09375 20.410156 24.351562 C 20.402344 24.507812 20.300781 24.667969 20.445312 24.847656 C 20.550781 24.847656 20.671875 24.851562 20.796875 24.847656 C 21.621094 24.839844 22.445312 24.832031 23.273438 24.816406 C 24.488281 24.789062 25.703125 24.757812 26.921875 24.726562 C 27.230469 24.71875 27.539062 24.71875 27.847656 24.683594 C 28.667969 24.597656 29.484375 24.445312 30.3125 24.5625 C 30.375 24.574219 30.4375 24.5625 30.5 24.558594 C 31.261719 24.496094 32.019531 24.421875 32.78125 24.367188 C 33.910156 24.289062 35.042969 24.199219 36.179688 24.253906 C 36.695312 24.277344 37.210938 24.296875 37.726562 24.300781 C 37.882812 24.304688 38.042969 24.261719 38.222656 24.234375 C 38.207031 21.90625 38.191406 19.617188 38.175781 17.21875 C 38.148438 17.199219 38.039062 17.136719 37.945312 17.054688 C 37.355469 16.539062 36.769531 16.011719 36.179688 15.496094 C 35.527344 14.925781 34.871094 14.359375 34.210938 13.796875 C 33.378906 13.085938 32.539062 12.378906 31.707031 11.671875 C 30.652344 10.777344 29.601562 9.878906 28.542969 8.984375 C 28.167969 8.664062 27.78125 8.355469 27.394531 8.042969 C 26.527344 7.34375 25.660156 6.644531 24.785156 5.953125 C 24.480469 5.710938 24.15625 5.484375 23.832031 5.246094 Z M 36.996094 32.3125 C 36.972656 32.421875 36.933594 32.515625 36.921875 32.613281 C 36.875 33.191406 36.800781 33.765625 36.792969 34.339844 C 36.785156 34.777344 36.660156 35.144531 36.363281 35.480469 C 36.269531 35.488281 36.167969 35.496094 36.066406 35.496094 C 35.03125 35.5 34 35.496094 32.964844 35.507812 C 32.59375 35.511719 32.226562 35.554688 31.855469 35.582031 C 31.113281 35.640625 30.382812 35.765625 29.632812 35.738281 C 29.160156 35.71875 28.679688 35.726562 28.210938 35.796875 C 27.273438 35.933594 26.34375 36.140625 25.390625 36.148438 C 25.328125 36.148438 25.265625 36.160156 25.203125 36.164062 C 24.363281 36.261719 23.527344 36.390625 22.679688 36.375 C 22.496094 36.371094 22.300781 36.359375 22.125 36.40625 C 21.652344 36.527344 21.175781 36.453125 20.703125 36.480469 C 20.375 36.496094 20.09375 36.421875 19.816406 36.148438 L 19.816406 32.996094 C 19.695312 33.054688 19.582031 33.074219 19.570312 33.117188 C 19.523438 33.316406 19.476562 33.519531 19.480469 33.722656 C 19.492188 34.238281 19.539062 34.75 19.554688 35.265625 C 19.578125 35.96875 19.582031 36.667969 19.601562 37.367188 C 19.625 38.214844 19.65625 39.054688 19.691406 39.902344 C 19.695312 40.019531 19.730469 40.136719 19.753906 40.269531 C 19.925781 40.269531 20.066406 40.277344 20.203125 40.269531 C 20.535156 40.246094 20.863281 40.214844 21.191406 40.195312 C 21.5 40.171875 21.808594 40.164062 22.117188 40.144531 C 22.898438 40.089844 23.679688 40.027344 24.464844 39.980469 C 25.660156 39.917969 26.855469 39.867188 28.050781 39.808594 C 28.132812 39.804688 28.214844 39.789062 28.296875 39.785156 C 28.542969 39.773438 28.792969 39.742188 29.039062 39.765625 C 29.800781 39.832031 30.5625 39.832031 31.328125 39.820312 C 32.132812 39.808594 32.9375 39.820312 33.738281 39.824219 C 34.296875 39.832031 34.855469 39.855469 35.414062 39.855469 C 35.882812 39.859375 36.351562 39.832031 36.824219 39.6875 C 36.871094 39.054688 36.914062 38.441406 36.957031 37.828125 C 37 37.230469 37.039062 36.632812 37.074219 36.039062 C 37.113281 35.421875 37.164062 34.804688 37.175781 34.183594 C 37.191406 33.574219 37.40625 32.976562 37.28125 32.351562 C 37.171875 32.335938 37.09375 32.328125 36.992188 32.3125 Z M 20.203125 35.992188 C 20.472656 36.152344 20.707031 36.144531 20.929688 36.132812 C 21.855469 36.097656 22.78125 36.046875 23.710938 36 C 23.730469 36 23.75 35.992188 23.773438 35.992188 C 24.59375 35.910156 25.414062 35.816406 26.234375 35.746094 C 26.730469 35.703125 27.222656 35.664062 27.707031 35.539062 C 28.1875 35.417969 28.683594 35.386719 29.179688 35.394531 C 29.988281 35.410156 30.792969 35.378906 31.59375 35.265625 C 31.941406 35.214844 32.289062 35.152344 32.636719 35.144531 C 33.359375 35.121094 34.082031 35.128906 34.804688 35.128906 C 35.257812 35.125 35.710938 35.128906 36.199219 35.128906 C 36.261719 34.949219 36.339844 34.800781 36.359375 34.644531 C 36.449219 33.867188 36.527344 33.089844 36.601562 32.308594 C 36.617188 32.148438 36.605469 31.984375 36.605469 31.855469 C 36.316406 31.613281 35.988281 31.539062 35.769531 31.746094 C 35.535156 31.96875 35.226562 32.085938 35.023438 32.339844 C 34.964844 32.414062 34.863281 32.453125 34.785156 32.507812 C 34.710938 32.457031 34.652344 32.429688 34.613281 32.386719 C 34.554688 32.328125 34.511719 32.253906 34.457031 32.195312 C 34.140625 31.871094 33.664062 31.773438 33.273438 32.050781 C 33.039062 32.214844 32.78125 32.347656 32.601562 32.589844 C 32.535156 32.679688 32.414062 32.734375 32.308594 32.808594 C 32.191406 32.714844 32.082031 32.652344 32.003906 32.5625 C 31.679688 32.1875 31.285156 32.1875 30.878906 32.375 C 30.640625 32.484375 30.417969 32.636719 30.199219 32.789062 C 29.902344 32.996094 29.796875 33 29.5625 32.765625 C 29.519531 32.722656 29.492188 32.660156 29.449219 32.621094 C 29.113281 32.332031 28.753906 32.199219 28.308594 32.367188 C 28.03125 32.472656 27.804688 32.640625 27.59375 32.839844 C 27.132812 33.265625 27.132812 33.265625 26.640625 32.855469 C 26.335938 32.601562 26.011719 32.507812 25.609375 32.621094 C 25.222656 32.734375 24.871094 32.863281 24.589844 33.167969 C 24.4375 33.332031 24.253906 33.460938 24.054688 33.628906 C 23.867188 33.480469 23.71875 33.34375 23.550781 33.230469 C 23.347656 33.09375 23.144531 32.921875 22.878906 32.949219 C 22.464844 32.992188 22.058594 33.066406 21.746094 33.382812 C 21.566406 33.558594 21.371094 33.703125 21.148438 33.757812 C 21.101562 33.746094 21.074219 33.75 21.0625 33.734375 C 20.914062 33.59375 20.769531 33.449219 20.625 33.304688 C 20.515625 33.199219 20.394531 33.128906 20.207031 33.226562 L 20.207031 35.996094 Z M 9.90625 26.441406 C 9.886719 26.648438 9.851562 26.804688 9.855469 26.964844 C 9.859375 27.523438 9.882812 28.078125 9.894531 28.632812 C 9.90625 29.25 9.902344 29.867188 9.917969 30.488281 C 9.929688 30.816406 9.996094 31.144531 9.996094 31.472656 C 10 33.261719 10.078125 35.054688 9.917969 36.84375 C 9.828125 37.828125 9.851562 38.816406 9.890625 39.804688 C 9.894531 39.902344 9.855469 40.015625 9.996094 40.054688 C 10.011719 40.046875 10.035156 40.042969 10.046875 40.03125 C 10.78125 39.339844 11.515625 38.648438 12.246094 37.949219 C 12.394531 37.804688 12.496094 37.628906 12.507812 37.40625 C 12.539062 36.6875 12.601562 35.96875 12.613281 35.25 C 12.636719 33.847656 12.628906 32.445312 12.636719 31.046875 C 12.644531 30.121094 12.660156 29.191406 12.671875 28.265625 C 12.675781 27.960938 12.660156 27.65625 12.570312 27.375 C 11.839844 27.089844 11.132812 26.808594 10.421875 26.539062 C 10.273438 26.484375 10.109375 26.476562 9.90625 26.441406 Z M 13 27.375 C 13 27.464844 12.996094 27.566406 13 27.667969 C 13.019531 28.121094 13.066406 28.570312 13.0625 29.023438 C 13.050781 30.484375 13.019531 31.949219 12.996094 33.410156 C 12.976562 34.707031 13.046875 36.003906 12.910156 37.300781 C 12.90625 37.351562 12.949219 37.410156 12.972656 37.460938 C 14.226562 37.34375 15.46875 37.226562 16.75 37.105469 C 16.757812 36.808594 16.765625 36.546875 16.769531 36.28125 C 16.773438 36.136719 16.769531 35.992188 16.777344 35.847656 C 16.84375 34.902344 16.914062 33.960938 16.984375 33.015625 C 17.027344 32.460938 17.082031 31.90625 17.132812 31.355469 C 17.160156 31.046875 17.207031 30.738281 17.210938 30.433594 C 17.222656 29.359375 17.21875 28.289062 17.214844 27.214844 C 17.214844 27.101562 17.167969 26.988281 17.144531 26.882812 C 16.21875 26.808594 13.671875 27.113281 13 27.375 Z M 8.328125 40.695312 C 8.730469 40.601562 9.085938 40.675781 9.398438 40.546875 C 9.527344 40.15625 9.539062 39.789062 9.5 39.417969 C 9.421875 38.59375 9.480469 37.769531 9.550781 36.949219 C 9.640625 35.859375 9.621094 34.765625 9.648438 33.675781 C 9.671875 32.875 9.605469 32.074219 9.578125 31.269531 C 9.5625 30.898438 9.527344 30.527344 9.523438 30.160156 C 9.511719 29.148438 9.519531 28.140625 9.511719 27.128906 C 9.511719 26.949219 9.480469 26.769531 9.460938 26.578125 C 9.058594 26.445312 8.714844 26.605469 8.320312 26.652344 C 8.3125 26.921875 8.300781 27.164062 8.296875 27.410156 C 8.289062 28.109375 8.277344 28.808594 8.273438 29.511719 C 8.273438 29.984375 8.28125 30.457031 8.296875 30.929688 C 8.320312 31.835938 8.363281 32.742188 8.378906 33.648438 C 8.390625 34.304688 8.371094 34.964844 8.367188 35.625 C 8.367188 36.242188 8.40625 36.863281 8.355469 37.476562 C 8.273438 38.402344 8.316406 39.328125 8.304688 40.253906 C 8.300781 40.375 8.316406 40.496094 8.324219 40.699219 Z M 10.078125 40.554688 C 10.570312 40.484375 10.960938 40.445312 11.34375 40.371094 C 12.542969 40.132812 13.757812 40.066406 14.972656 39.976562 C 15.242188 39.960938 15.507812 39.9375 15.773438 39.902344 C 16.371094 39.824219 16.957031 39.691406 17.5625 39.707031 C 17.738281 39.710938 17.917969 39.6875 18.070312 39.585938 C 17.679688 38.613281 17.226562 37.835938 16.847656 37.484375 C 16.636719 37.511719 16.410156 37.566406 16.1875 37.566406 C 15.382812 37.570312 14.582031 37.640625 13.78125 37.734375 C 13.433594 37.777344 13.070312 37.800781 12.789062 38.019531 C 12.371094 38.351562 11.96875 38.710938 11.578125 39.078125 C 11.097656 39.527344 10.640625 40 10.078125 40.554688 Z M 9.894531 42.3125 C 10.207031 42.3125 10.457031 42.328125 10.699219 42.3125 C 11.730469 42.242188 12.757812 42.152344 13.789062 42.085938 C 14.777344 42.023438 15.773438 41.980469 16.761719 41.914062 C 17.269531 41.878906 17.785156 41.878906 18.273438 41.773438 C 18.359375 41.300781 18.355469 40.507812 18.265625 39.996094 C 18.105469 40.019531 17.949219 40.054688 17.789062 40.070312 C 16.289062 40.210938 14.789062 40.347656 13.285156 40.488281 C 12.855469 40.53125 12.414062 40.546875 11.992188 40.636719 C 11.40625 40.757812 10.8125 40.820312 10.214844 40.882812 C 10.101562 40.894531 9.988281 40.925781 9.84375 40.957031 C 9.859375 41.414062 9.878906 41.839844 9.894531 42.3125 Z M 18.308594 39.0625 C 18.394531 37.136719 18.476562 35.351562 18.554688 33.554688 C 18.363281 33.535156 18.199219 33.539062 18.050781 33.492188 C 17.972656 33.46875 17.90625 33.355469 17.878906 33.269531 C 17.855469 33.203125 17.898438 33.113281 17.917969 33.03125 C 18.148438 32.050781 18.375 31.070312 18.617188 30.09375 C 18.738281 29.609375 18.804688 29.125 18.808594 28.628906 C 18.8125 27.824219 18.835938 27.023438 18.84375 26.21875 C 18.84375 26.125 18.824219 26.027344 18.8125 25.925781 C 18.386719 26.082031 18.011719 26.347656 17.59375 26.789062 C 17.59375 26.960938 17.59375 27.144531 17.59375 27.332031 C 17.585938 29.019531 17.601562 30.707031 17.382812 32.386719 C 17.242188 33.488281 17.199219 34.601562 17.128906 35.710938 C 17.105469 36.082031 17.128906 36.453125 17.152344 36.824219 C 17.164062 36.984375 17.199219 37.160156 17.277344 37.296875 C 17.585938 37.851562 17.914062 38.394531 18.3125 39.066406 Z M 22.738281 26.242188 C 22.019531 28.449219 21.320312 30.617188 20.617188 32.78125 C 20.839844 32.984375 21.035156 33.164062 21.199219 33.3125 C 21.492188 33.113281 21.726562 32.90625 22.003906 32.78125 C 22.277344 32.65625 22.589844 32.617188 22.886719 32.535156 C 23.070312 32.171875 23.128906 31.785156 23.195312 31.402344 C 23.304688 30.753906 23.367188 30.101562 23.480469 29.453125 C 23.640625 28.523438 23.832031 27.597656 24.003906 26.667969 C 24.027344 26.546875 24.027344 26.425781 24.035156 26.285156 C 23.613281 26.191406 23.210938 26.199219 22.738281 26.242188 Z M 19.382812 25.238281 C 19.453125 25.429688 19.464844 25.601562 19.535156 25.628906 C 19.777344 25.726562 20.015625 25.851562 20.296875 25.851562 C 21.617188 25.84375 22.9375 25.851562 24.261719 25.851562 C 24.46875 25.851562 24.679688 25.855469 24.882812 25.820312 C 25.753906 25.652344 26.636719 25.566406 27.527344 25.554688 C 27.980469 25.550781 28.429688 25.5 28.882812 25.476562 C 29.171875 25.460938 29.460938 25.453125 29.746094 25.453125 C 30.449219 25.449219 31.152344 25.460938 31.855469 25.441406 C 32.511719 25.425781 33.171875 25.375 33.828125 25.339844 C 33.972656 25.332031 34.117188 25.324219 34.261719 25.304688 C 34.6875 25.25 35.117188 25.128906 35.542969 25.140625 C 36.414062 25.15625 37.265625 24.9375 38.136719 24.972656 C 38.207031 24.976562 38.285156 24.917969 38.351562 24.878906 C 38.378906 24.863281 38.402344 24.808594 38.398438 24.777344 C 38.398438 24.742188 38.367188 24.695312 38.335938 24.679688 C 38.28125 24.65625 38.21875 24.640625 38.160156 24.640625 C 37.230469 24.625 36.300781 24.59375 35.371094 24.605469 C 34.570312 24.613281 33.765625 24.671875 32.960938 24.722656 C 32.285156 24.765625 31.609375 24.867188 30.925781 24.855469 C 30.390625 24.84375 29.851562 24.851562 29.316406 24.878906 C 28.90625 24.902344 28.496094 24.992188 28.085938 25.011719 C 26.992188 25.066406 25.898438 25.101562 24.804688 25.144531 C 24.371094 25.160156 23.9375 25.214844 23.507812 25.191406 C 22.664062 25.140625 21.820312 25.175781 20.976562 25.210938 C 20.484375 25.230469 19.992188 25.230469 19.386719 25.238281 Z M 31.925781 31.953125 C 31.945312 31.757812 31.964844 31.636719 31.96875 31.515625 C 32.019531 30.40625 32.074219 29.292969 32.113281 28.179688 C 32.140625 27.5 32.144531 26.820312 32.148438 26.140625 C 32.148438 26.023438 32.109375 25.910156 32.085938 25.785156 C 31.628906 25.847656 31.191406 25.785156 30.761719 25.902344 C 30.574219 27.3125 30.386719 28.703125 30.207031 30.09375 C 30.121094 30.726562 30.042969 31.363281 29.96875 31.996094 C 29.957031 32.109375 29.988281 32.226562 30.007812 32.398438 C 30.609375 32.042969 31.183594 31.769531 31.921875 31.953125 Z M 8.367188 26.210938 C 8.722656 26.179688 9.046875 26.144531 9.371094 26.125 C 9.84375 26.101562 10.320312 26.113281 10.792969 26.074219 C 11.636719 26 12.476562 25.902344 13.320312 25.816406 C 14.53125 25.695312 15.742188 25.570312 16.953125 25.457031 C 17.445312 25.410156 17.941406 25.386719 18.433594 25.34375 C 18.617188 25.328125 18.851562 25.34375 18.96875 25.238281 C 19.261719 24.988281 19.609375 24.902344 19.976562 24.808594 C 19.957031 24.664062 19.945312 24.554688 19.929688 24.4375 C 19.105469 24.503906 18.324219 24.570312 17.546875 24.628906 C 16.804688 24.683594 16.0625 24.734375 15.320312 24.769531 C 14.453125 24.8125 13.582031 24.832031 12.71875 24.863281 C 12.554688 24.871094 12.390625 24.90625 12.226562 24.921875 C 11.753906 24.96875 11.273438 25.089844 10.8125 25.046875 C 10.164062 24.980469 9.535156 25.109375 8.894531 25.101562 C 8.714844 25.097656 8.519531 25.097656 8.367188 25.277344 L 8.367188 26.214844 Z M 25.472656 26.128906 C 25.167969 27 24.328125 32.074219 24.371094 32.835938 C 24.855469 32.375 25.484375 32.296875 26.082031 32.113281 C 26.144531 31.777344 26.226562 31.457031 26.265625 31.132812 C 26.433594 29.742188 26.589844 28.351562 26.746094 26.957031 C 26.765625 26.792969 26.777344 26.628906 26.789062 26.464844 C 26.804688 26.3125 26.882812 26.160156 26.828125 25.980469 C 26.351562 25.992188 25.894531 25.929688 25.46875 26.128906 Z M 33.402344 25.746094 C 33.394531 25.980469 33.390625 26.160156 33.382812 26.34375 C 33.355469 26.941406 33.335938 27.535156 33.300781 28.132812 C 33.238281 29.160156 33.164062 30.183594 33.101562 31.210938 C 33.09375 31.347656 33.125 31.488281 33.140625 31.660156 C 33.589844 31.445312 34.007812 31.5 34.449219 31.695312 C 34.480469 31.542969 34.515625 31.425781 34.523438 31.308594 C 34.566406 30.648438 34.621094 29.992188 34.644531 29.335938 C 34.683594 28.226562 34.710938 27.117188 34.734375 26.003906 C 34.734375 25.871094 34.683594 25.738281 34.652344 25.570312 C 34.234375 25.628906 33.851562 25.683594 33.402344 25.746094 Z M 27.445312 32.394531 C 27.910156 32.09375 28.375 31.910156 28.898438 31.898438 C 28.933594 31.769531 28.976562 31.675781 28.984375 31.574219 C 29.105469 29.707031 29.222656 27.839844 29.339844 25.972656 C 29.339844 25.957031 29.328125 25.9375 29.316406 25.917969 C 29.304688 25.902344 29.289062 25.890625 29.246094 25.851562 C 28.949219 25.816406 28.628906 25.828125 28.269531 25.933594 C 27.890625 28.054688 27.605469 30.191406 27.449219 32.394531 Z M 18.351562 33.136719 C 18.621094 32.984375 18.855469 32.816406 19.117188 32.714844 C 19.402344 32.601562 19.523438 32.425781 19.597656 32.132812 C 20.023438 30.390625 20.550781 28.679688 21.121094 26.980469 C 21.195312 26.75 21.257812 26.515625 21.332031 26.257812 C 20.839844 26.164062 20.402344 26.125 19.953125 26.253906 C 19.679688 26.980469 19.503906 27.722656 19.347656 28.46875 C 19.097656 29.660156 18.820312 30.84375 18.5 32.015625 C 18.40625 32.359375 18.246094 32.714844 18.351562 33.132812 Z M 37.636719 31.832031 C 37.773438 32.496094 37.605469 33.125 37.582031 33.761719 C 37.558594 34.378906 37.5 34.996094 37.457031 35.609375 C 37.414062 36.246094 37.355469 36.882812 37.335938 37.519531 C 37.316406 38.152344 37.175781 38.785156 37.246094 39.40625 C 37.589844 39.53125 37.929688 39.582031 38.265625 39.558594 C 38.28125 39.382812 38.3125 39.199219 38.308594 39.019531 C 38.265625 37.742188 38.402344 36.472656 38.382812 35.195312 C 38.371094 34.375 38.429688 33.550781 38.453125 32.726562 C 38.460938 32.441406 38.46875 32.152344 38.464844 31.863281 C 38.457031 31.664062 38.253906 31.519531 38.074219 31.59375 C 37.925781 31.652344 37.792969 31.746094 37.636719 31.832031 Z M 35.632812 31.289062 L 36.621094 31.289062 C 36.648438 31.175781 36.699219 31.0625 36.703125 30.949219 C 36.703125 30.578125 36.683594 30.207031 36.675781 29.832031 C 36.664062 29.257812 36.640625 28.683594 36.652344 28.109375 C 36.664062 27.65625 36.734375 27.203125 36.75 26.75 C 36.765625 26.378906 36.75 26.007812 36.738281 25.636719 C 36.738281 25.578125 36.703125 25.523438 36.679688 25.445312 C 36.535156 25.445312 36.390625 25.4375 36.253906 25.449219 C 36.113281 25.457031 35.976562 25.488281 35.855469 25.507812 C 35.699219 26.367188 35.539062 30.609375 35.632812 31.289062 Z M 38.957031 31.535156 C 38.988281 31.492188 39.03125 31.457031 39.027344 31.425781 C 38.984375 30.9375 38.945312 30.445312 38.878906 29.957031 C 38.792969 29.285156 38.679688 28.617188 38.589844 27.945312 C 38.488281 27.191406 38.40625 26.433594 38.304688 25.679688 C 38.269531 25.402344 38.195312 25.367188 37.839844 25.402344 C 37.691406 26.28125 37.640625 30.550781 37.773438 31.222656 C 37.972656 31.234375 38.175781 31.234375 38.375 31.261719 C 38.59375 31.289062 38.699219 31.59375 38.957031 31.535156 Z M 19.105469 33.199219 C 19.0625 33.203125 19.019531 33.210938 18.976562 33.21875 C 18.9375 33.683594 18.878906 34.144531 18.859375 34.613281 C 18.785156 36.175781 18.726562 37.738281 18.667969 39.304688 C 18.660156 39.488281 18.6875 39.671875 18.707031 39.855469 C 18.710938 39.890625 18.753906 39.917969 18.777344 39.953125 C 18.960938 39.964844 19.144531 39.972656 19.300781 39.789062 C 19.300781 39.582031 19.308594 39.355469 19.296875 39.128906 C 19.257812 38.453125 19.296875 37.777344 19.246094 37.097656 C 19.167969 36.054688 19.183594 35.003906 19.164062 33.957031 C 19.160156 33.769531 19.175781 33.585938 19.167969 33.402344 C 19.164062 33.332031 19.125 33.265625 19.101562 33.199219 Z M 14.054688 12.390625 C 14 12.003906 14.226562 11.695312 14.386719 11.367188 C 14.5625 11.015625 14.765625 10.683594 14.949219 10.335938 C 14.976562 10.28125 14.960938 10.199219 14.972656 10.066406 C 14.351562 10.496094 13.914062 11.019531 13.472656 11.382812 C 13.328125 11.804688 13.222656 12.136719 13.09375 12.460938 C 12.960938 12.789062 12.726562 13.085938 12.644531 13.519531 C 13.207031 13.191406 13.582031 12.75 14.054688 12.390625 Z M 18.058594 7.636719 C 17.648438 7.890625 17.300781 8.167969 16.960938 8.445312 C 16.855469 8.527344 16.800781 8.679688 16.742188 8.808594 C 16.605469 9.101562 16.484375 9.40625 16.34375 9.703125 C 16.222656 9.964844 16.085938 10.214844 15.96875 10.476562 C 15.925781 10.570312 15.917969 10.683594 15.867188 10.898438 C 16.285156 10.519531 16.617188 10.214844 16.949219 9.910156 C 16.996094 9.871094 17.039062 9.824219 17.070312 9.773438 C 17.339844 9.292969 17.613281 8.8125 17.875 8.324219 C 17.976562 8.132812 18.105469 7.9375 18.058594 7.636719 Z M 11.253906 14.527344 C 11.28125 14.554688 11.3125 14.585938 11.339844 14.613281 C 11.539062 14.445312 11.730469 14.261719 11.941406 14.109375 C 12.085938 14.003906 12.164062 13.863281 12.199219 13.703125 C 12.304688 13.261719 12.523438 12.867188 12.730469 12.46875 C 12.820312 12.292969 12.890625 12.109375 13.027344 11.800781 C 12.40625 12.253906 11.894531 12.609375 11.757812 13.289062 C 11.722656 13.464844 11.625 13.628906 11.554688 13.800781 C 11.457031 14.042969 11.355469 14.285156 11.253906 14.527344 Z M 34.285156 13.378906 C 34.390625 13.222656 34.253906 13.105469 34.207031 12.984375 C 34.007812 12.488281 33.789062 12 33.589844 11.503906 C 33.414062 11.058594 33.121094 10.761719 32.550781 10.515625 C 32.835938 11.136719 33.125 11.722656 33.375 12.324219 C 33.566406 12.78125 33.863281 13.128906 34.285156 13.382812 Z M 10.894531 14.941406 C 10.851562 14.578125 10.96875 14.300781 11.109375 14.019531 C 11.242188 13.753906 11.398438 13.488281 11.449219 13.164062 C 10.617188 13.574219 10.308594 14.328125 10.019531 15.09375 C 9.960938 15.25 9.8125 15.402344 9.957031 15.621094 C 10.265625 15.398438 10.5625 15.183594 10.894531 14.941406 Z M 16.238281 9.1875 C 15.816406 9.269531 15.554688 9.546875 15.261719 9.789062 C 15.339844 9.863281 15.398438 9.914062 15.476562 9.984375 C 15.316406 10.300781 15.152344 10.609375 15 10.921875 C 14.84375 11.246094 14.605469 11.535156 14.519531 11.957031 C 14.894531 11.804688 15.066406 11.503906 15.335938 11.324219 C 15.378906 11.292969 15.414062 11.21875 15.417969 11.164062 C 15.476562 10.546875 15.796875 10.039062 16.085938 9.519531 C 16.144531 9.414062 16.1875 9.296875 16.238281 9.1875 Z M 18.03125 8.9375 C 18.273438 8.75 18.515625 8.570312 18.734375 8.367188 C 18.789062 8.316406 18.8125 8.226562 18.847656 8.15625 C 19.023438 7.785156 19.203125 7.410156 19.375 7.039062 C 19.441406 6.898438 19.503906 6.753906 19.617188 6.492188 C 19.199219 6.707031 18.933594 6.921875 18.675781 7.140625 C 18.617188 7.1875 18.582031 7.277344 18.5625 7.351562 C 18.429688 7.871094 18.257812 8.375 17.988281 8.84375 C 17.984375 8.855469 18.003906 8.878906 18.03125 8.941406 Z M 27.667969 7.800781 C 27.6875 7.777344 27.710938 7.753906 27.734375 7.726562 C 27.519531 7.328125 27.300781 6.933594 27.09375 6.53125 C 26.835938 6.042969 26.46875 5.664062 26.003906 5.375 C 25.945312 5.335938 25.878906 5.25 25.796875 5.347656 C 25.804688 5.386719 25.796875 5.433594 25.816406 5.460938 C 26.144531 5.988281 26.472656 6.507812 26.800781 7.03125 C 26.84375 7.097656 26.90625 7.15625 26.96875 7.210938 C 27.199219 7.410156 27.433594 7.601562 27.667969 7.800781 Z M 20.675781 6.710938 C 20.710938 6.746094 20.746094 6.78125 20.777344 6.8125 C 21.027344 6.601562 21.347656 6.484375 21.539062 6.210938 C 21.808594 5.828125 22.046875 5.421875 22.285156 5.015625 C 22.324219 4.949219 22.425781 4.855469 22.316406 4.757812 C 21.792969 5.03125 21.332031 5.347656 21.121094 5.933594 C 21.050781 6.121094 20.902344 6.277344 20.792969 6.453125 C 20.746094 6.535156 20.714844 6.625 20.675781 6.710938 Z M 29.148438 9.050781 C 29.183594 9.019531 29.214844 8.988281 29.25 8.953125 C 28.9375 8.335938 28.585938 7.738281 28.210938 7.15625 C 28.082031 6.960938 27.890625 6.800781 27.660156 6.6875 C 27.648438 6.753906 27.625 6.800781 27.640625 6.832031 C 27.851562 7.339844 28.21875 7.773438 28.328125 8.332031 C 28.335938 8.386719 28.394531 8.4375 28.441406 8.476562 C 28.675781 8.671875 28.910156 8.859375 29.148438 9.054688 Z M 36.589844 15.335938 C 36.40625 14.71875 36.199219 14.117188 35.867188 13.574219 C 35.75 13.382812 35.617188 13.199219 35.480469 13.019531 C 35.429688 12.957031 35.371094 12.855469 35.25 12.90625 C 35.25 12.960938 35.238281 13.003906 35.25 13.039062 C 35.449219 13.535156 35.65625 14.03125 35.855469 14.527344 C 35.996094 14.882812 36.230469 15.15625 36.589844 15.335938 Z M 32.882812 12.242188 C 32.867188 12.101562 32.871094 12.039062 32.851562 11.988281 C 32.695312 11.628906 32.53125 11.273438 32.375 10.914062 C 32.328125 10.800781 32.273438 10.683594 32.261719 10.566406 C 32.253906 10.457031 32.304688 10.34375 32.328125 10.234375 C 32.074219 10.050781 31.839844 9.882812 31.601562 9.71875 C 31.589844 9.707031 31.558594 9.707031 31.542969 9.710938 C 31.527344 9.71875 31.515625 9.738281 31.503906 9.753906 C 31.636719 10.125 32.464844 11.804688 32.625 12.011719 C 32.679688 12.082031 32.757812 12.132812 32.882812 12.242188 Z M 7.542969 17.585938 C 7.800781 17.382812 8.007812 17.222656 8.21875 17.054688 C 8.257812 16.535156 8.585938 16.101562 8.636719 15.554688 C 8.210938 15.734375 7.953125 15.996094 7.835938 16.402344 C 7.75 16.699219 7.636719 16.988281 7.546875 17.28125 C 7.523438 17.351562 7.542969 17.433594 7.542969 17.585938 Z M 24.746094 5.496094 C 24.773438 5.46875 24.804688 5.449219 24.804688 5.445312 C 24.527344 4.957031 24.246094 4.472656 23.9375 3.9375 C 23.660156 4.285156 23.558594 4.664062 23.328125 4.988281 C 23.738281 4.933594 24.113281 5.039062 24.449219 5.296875 C 24.542969 5.371094 24.648438 5.433594 24.746094 5.496094 Z M 9.886719 14.546875 C 9.390625 14.847656 9.34375 14.863281 9.25 15.082031 C 9.054688 15.539062 8.828125 15.992188 8.761719 16.5625 C 8.957031 16.433594 9.097656 16.355469 9.222656 16.253906 C 9.347656 16.152344 9.453125 16.03125 9.507812 15.980469 C 9.492188 15.785156 9.445312 15.664062 9.476562 15.566406 C 9.585938 15.257812 9.71875 14.960938 9.890625 14.546875 Z M 31.734375 11.082031 C 31.441406 10.472656 31.152344 9.859375 30.859375 9.25 C 30.769531 9.074219 30.652344 9.011719 30.296875 8.925781 C 30.335938 9.035156 30.363281 9.132812 30.410156 9.21875 C 30.621094 9.617188 30.886719 9.996094 31.046875 10.417969 C 31.171875 10.753906 31.394531 10.953125 31.730469 11.082031 Z M 35.242188 14.238281 C 35.269531 14.222656 35.296875 14.203125 35.324219 14.1875 C 35.3125 14.128906 35.3125 14.070312 35.292969 14.019531 C 35.070312 13.445312 34.84375 12.871094 34.621094 12.296875 C 34.519531 12.042969 34.328125 11.875 34.007812 11.695312 C 34.332031 12.53125 34.691406 13.238281 35.019531 13.960938 C 35.066406 14.066406 35.167969 14.148438 35.242188 14.238281 Z M 20.84375 5.75 C 20.21875 6.011719 20.167969 6.039062 20.0625 6.277344 C 19.863281 6.722656 19.671875 7.171875 19.476562 7.617188 C 19.472656 7.628906 19.492188 7.652344 19.515625 7.703125 C 19.785156 7.558594 20.015625 7.410156 20.105469 7.078125 C 20.160156 6.867188 20.296875 6.671875 20.40625 6.476562 C 20.527344 6.261719 20.660156 6.058594 20.84375 5.75 Z M 30.328125 9.976562 C 30.347656 9.898438 30.363281 9.878906 30.355469 9.863281 C 30.113281 9.230469 29.726562 8.671875 29.394531 8.085938 C 29.351562 8.007812 29.28125 7.847656 29.097656 7.9375 C 29.160156 8.066406 29.222656 8.195312 29.289062 8.320312 C 29.472656 8.664062 29.707031 8.992188 29.824219 9.359375 C 29.917969 9.640625 30.070312 9.816406 30.324219 9.976562 Z M 6.785156 17 C 6.769531 17.277344 6.746094 17.542969 6.871094 17.785156 C 6.898438 17.84375 6.992188 17.894531 7.054688 17.894531 C 7.136719 17.894531 7.222656 17.800781 7.171875 17.730469 C 7.039062 17.542969 7.15625 17.382812 7.199219 17.210938 C 7.253906 16.984375 7.394531 16.777344 7.359375 16.457031 C 7.136719 16.664062 6.964844 16.832031 6.789062 17 Z M 23.476562 4.023438 C 23.035156 4.183594 22.820312 4.363281 22.777344 4.722656 C 22.761719 4.851562 22.652344 4.972656 22.589844 5.101562 C 22.511719 5.257812 22.4375 5.414062 22.339844 5.621094 C 22.445312 5.59375 22.507812 5.589844 22.550781 5.5625 C 22.617188 5.523438 22.695312 5.472656 22.734375 5.40625 C 22.96875 4.984375 23.191406 4.558594 23.476562 4.027344 Z M 37.675781 15.09375 C 37.632812 15.15625 37.605469 15.175781 37.609375 15.1875 C 37.765625 15.785156 38.042969 16.332031 38.347656 16.867188 C 38.394531 16.949219 38.480469 16.9375 38.546875 16.847656 C 38.351562 16.375 38.160156 15.898438 37.953125 15.429688 C 37.894531 15.304688 37.773438 15.210938 37.675781 15.09375 Z M 37.5625 16.207031 C 37.554688 16.097656 37.5625 16.015625 37.539062 15.949219 C 37.351562 15.40625 36.992188 14.941406 36.828125 14.386719 C 36.8125 14.34375 36.738281 14.234375 36.640625 14.324219 C 36.984375 15.398438 37.21875 15.890625 37.5625 16.207031 Z M 19.234375 25.996094 C 19.136719 26.484375 19.109375 26.941406 19.097656 27.539062 C 19.371094 27.015625 19.417969 26.5625 19.578125 26.125 C 19.445312 26.074219 19.355469 26.042969 19.234375 25.996094 Z M 38.683594 16.234375 C 38.75 16.417969 38.8125 16.601562 38.867188 16.761719 C 39.046875 16.808594 39.171875 16.800781 39.332031 16.683594 C 39.148438 16.46875 38.976562 16.3125 38.683594 16.234375 Z M 38.683594 16.234375 " fill-opacity="1" fill-rule="nonzero"/></g><path fill="#000000" d="M 20.753906 17.996094 C 20.960938 16.832031 21.019531 11.28125 20.832031 10.40625 C 20.441406 10.378906 20.039062 10.34375 19.628906 10.316406 C 19.550781 9.964844 19.625 9.667969 19.703125 9.371094 C 19.742188 9.210938 19.882812 9.152344 20.03125 9.128906 C 20.339844 9.085938 20.644531 9.03125 20.953125 9.003906 C 22.085938 8.890625 23.210938 8.816406 24.351562 8.933594 C 25.214844 9.023438 26.085938 8.925781 26.9375 8.71875 C 27.015625 8.699219 27.09375 8.664062 27.175781 8.648438 C 27.382812 8.613281 27.542969 8.6875 27.621094 8.890625 C 27.695312 9.082031 27.738281 9.28125 27.792969 9.457031 C 27.527344 9.71875 27.15625 9.917969 26.671875 10.046875 C 26.554688 10.410156 26.566406 10.804688 26.5625 11.1875 C 26.539062 12.546875 26.539062 13.910156 26.53125 15.273438 C 26.527344 15.996094 26.519531 16.71875 26.515625 17.4375 C 26.515625 17.578125 26.53125 17.71875 26.539062 17.859375 C 26.753906 17.988281 26.964844 17.9375 27.164062 17.941406 C 27.761719 17.964844 28.007812 18.3125 27.824219 18.886719 C 27.800781 18.964844 27.761719 19.042969 27.71875 19.109375 C 27.6875 19.160156 27.636719 19.199219 27.609375 19.230469 C 26.011719 19.46875 24.417969 19.394531 22.828125 19.441406 C 21.964844 19.46875 21.097656 19.390625 20.234375 19.507812 C 20.011719 19.539062 19.777344 19.515625 19.554688 19.496094 C 19.417969 19.480469 19.324219 19.382812 19.339844 19.238281 C 19.367188 18.96875 19.375 18.710938 19.300781 18.445312 C 19.25 18.253906 19.394531 18.078125 19.605469 18.058594 C 19.871094 18.03125 20.140625 18.035156 20.410156 18.023438 C 20.527344 18.019531 20.648438 18.003906 20.753906 17.996094 Z M 23.644531 9.992188 C 22.785156 9.972656 21.964844 9.902344 21.257812 10.414062 C 21.277344 11.574219 21.296875 12.707031 21.316406 13.835938 C 21.316406 13.871094 21.355469 13.90625 21.394531 13.972656 C 22.09375 13.953125 22.796875 13.859375 23.5 13.742188 C 23.550781 12.921875 23.605469 12.144531 23.644531 11.363281 C 23.664062 10.933594 23.648438 10.5 23.648438 9.992188 Z M 23.507812 17.886719 C 23.519531 16.664062 23.53125 15.5 23.539062 14.332031 C 23.539062 14.277344 23.496094 14.21875 23.464844 14.140625 C 22.753906 14.191406 22.042969 14.195312 21.335938 14.378906 C 21.320312 14.507812 21.304688 14.605469 21.300781 14.707031 C 21.273438 15.488281 21.242188 16.265625 21.214844 17.046875 C 21.207031 17.292969 21.195312 17.539062 21.203125 17.785156 C 21.207031 17.9375 21.328125 18.058594 21.476562 18.070312 C 21.578125 18.082031 21.683594 18.074219 21.78125 18.066406 C 22.335938 18.011719 22.882812 17.953125 23.511719 17.890625 Z M 23.925781 14.152344 C 23.914062 14.582031 23.867188 14.988281 23.871094 15.394531 C 23.878906 15.828125 23.882812 16.261719 23.90625 16.695312 C 23.929688 17.09375 23.804688 17.511719 24.007812 17.925781 C 24.363281 17.925781 24.714844 17.929688 25.066406 17.921875 C 25.410156 17.917969 25.757812 17.949219 26.140625 17.894531 C 26.152344 16.648438 26.179688 15.445312 26.140625 14.21875 C 25.402344 14.0625 24.691406 14.070312 23.925781 14.152344 Z M 26.246094 10.109375 C 25.457031 9.828125 24.722656 9.808594 24.039062 10.046875 C 24.007812 11.09375 23.902344 12.160156 23.921875 13.226562 C 23.925781 13.382812 23.941406 13.539062 23.953125 13.6875 C 24.753906 13.753906 25.734375 13.722656 26.148438 13.617188 C 26.179688 12.460938 26.210938 11.292969 26.242188 10.109375 Z M 19.726562 19.09375 C 19.832031 19.128906 19.871094 19.152344 19.910156 19.152344 C 21.003906 19.136719 22.101562 19.121094 23.195312 19.105469 C 23.832031 19.097656 24.472656 19.09375 25.109375 19.082031 C 25.808594 19.074219 26.511719 19.042969 27.199219 18.910156 C 27.535156 18.84375 27.578125 18.71875 27.40625 18.3125 C 27.089844 18.3125 26.761719 18.226562 26.441406 18.363281 C 26.386719 18.382812 26.320312 18.375 26.257812 18.367188 C 25.910156 18.34375 25.5625 18.292969 25.214844 18.292969 C 24.410156 18.292969 23.601562 18.289062 22.796875 18.339844 C 22.121094 18.382812 21.445312 18.46875 20.765625 18.371094 C 20.605469 18.347656 20.433594 18.378906 20.269531 18.386719 C 20.089844 18.398438 19.914062 18.414062 19.726562 18.429688 Z M 19.972656 9.960938 C 20.441406 10.082031 20.824219 10.066406 21.207031 9.941406 C 21.957031 9.699219 22.726562 9.570312 23.519531 9.617188 C 23.847656 9.632812 24.183594 9.597656 24.511719 9.554688 C 24.988281 9.488281 25.453125 9.511719 25.929688 9.582031 C 26.234375 9.628906 26.546875 9.625 26.855469 9.613281 C 26.992188 9.609375 27.132812 9.546875 27.261719 9.480469 C 27.316406 9.453125 27.359375 9.355469 27.371094 9.28125 C 27.394531 9.121094 27.269531 9.015625 27.101562 9.039062 C 26.628906 9.105469 26.160156 9.210938 25.691406 9.226562 C 24.804688 9.253906 23.914062 9.242188 23.023438 9.230469 C 22.03125 9.21875 21.046875 9.3125 20.042969 9.511719 C 20.023438 9.648438 20.003906 9.78125 19.976562 9.960938 Z M 19.972656 9.960938 " fill-opacity="1" fill-rule="nonzero"/><path fill="#000000" d="M 8.980469 24.4375 C 9.011719 23.878906 9.042969 23.367188 9.074219 22.855469 C 9.101562 22.339844 9.128906 21.824219 9.15625 21.3125 C 9.15625 21.289062 9.160156 21.261719 9.171875 21.253906 C 9.210938 21.214844 9.261719 21.15625 9.304688 21.15625 C 9.351562 21.160156 9.425781 21.21875 9.433594 21.261719 C 9.460938 21.398438 9.476562 21.542969 9.472656 21.6875 C 9.449219 22.324219 9.421875 22.964844 9.398438 23.601562 C 9.390625 23.742188 9.398438 23.882812 9.398438 24.023438 C 9.667969 24.160156 9.917969 24.078125 10.160156 24.070312 C 10.984375 24.039062 11.808594 24.007812 12.632812 23.941406 C 13.394531 23.878906 14.152344 23.769531 14.910156 23.679688 C 15.03125 23.667969 15.15625 23.636719 15.277344 23.628906 C 16.890625 23.570312 18.496094 23.402344 20.113281 23.453125 C 21.085938 23.484375 22.050781 23.40625 23.015625 23.285156 C 23.363281 23.242188 23.71875 23.230469 24.070312 23.238281 C 25.023438 23.257812 25.964844 23.132812 26.90625 23.019531 C 27.5625 22.9375 28.222656 22.90625 28.882812 22.863281 C 29.871094 22.796875 30.863281 22.730469 31.851562 22.679688 C 32.320312 22.65625 32.796875 22.671875 33.265625 22.679688 C 34.296875 22.699219 35.324219 22.652344 36.351562 22.585938 C 36.578125 22.570312 36.800781 22.527344 37.050781 22.492188 C 37.085938 21.671875 37.121094 20.875 37.160156 20.039062 C 37.0625 20.023438 36.96875 19.992188 36.875 19.996094 C 35.695312 20.035156 34.519531 20.082031 33.34375 20.128906 C 32.023438 20.179688 30.703125 20.234375 29.378906 20.285156 C 29.359375 20.285156 29.335938 20.285156 29.316406 20.285156 C 28 20.453125 26.675781 20.324219 25.351562 20.425781 C 24.59375 20.480469 23.828125 20.476562 23.0625 20.515625 C 22.300781 20.554688 21.539062 20.613281 20.773438 20.660156 C 20.175781 20.699219 19.578125 20.722656 18.980469 20.769531 C 18.21875 20.824219 17.457031 20.914062 16.695312 20.960938 C 16.015625 21 15.332031 21.011719 14.648438 21.019531 C 13.78125 21.03125 12.914062 21.070312 12.058594 21.238281 C 11.300781 21.390625 10.539062 21.320312 9.777344 21.265625 C 9.667969 21.257812 9.589844 21.191406 9.65625 21.019531 C 9.820312 21.019531 10 21.015625 10.183594 21.019531 C 10.988281 21.03125 11.789062 21.039062 12.585938 20.832031 C 13.058594 20.710938 13.566406 20.714844 14.058594 20.679688 C 14.410156 20.65625 14.765625 20.644531 15.113281 20.65625 C 16.046875 20.691406 16.972656 20.609375 17.898438 20.5 C 18.660156 20.410156 19.421875 20.417969 20.183594 20.367188 C 20.988281 20.3125 21.792969 20.253906 22.597656 20.195312 C 22.660156 20.191406 22.71875 20.183594 22.78125 20.179688 C 24.144531 20.132812 25.507812 20.039062 26.871094 20.050781 C 27.699219 20.058594 28.511719 20.023438 29.332031 19.945312 C 29.621094 19.917969 29.910156 19.925781 30.199219 19.910156 C 31.480469 19.835938 32.757812 19.761719 34.035156 19.691406 C 34.488281 19.667969 34.945312 19.65625 35.398438 19.644531 C 35.9375 19.632812 36.472656 19.65625 37.007812 19.566406 C 37.375 19.507812 37.550781 19.6875 37.535156 20.058594 C 37.511719 20.675781 37.46875 21.292969 37.441406 21.910156 C 37.429688 22.179688 37.453125 22.449219 37.445312 22.714844 C 37.441406 22.851562 37.332031 22.945312 37.207031 22.949219 C 36.320312 22.976562 35.433594 23.011719 34.546875 23.03125 C 34.15625 23.039062 33.761719 23.003906 33.371094 23.011719 C 32.292969 23.035156 31.222656 23.074219 30.148438 23.105469 C 28.90625 23.140625 27.679688 23.3125 26.449219 23.445312 C 25.46875 23.554688 24.472656 23.558594 23.484375 23.609375 C 23.339844 23.617188 23.191406 23.605469 23.050781 23.628906 C 21.941406 23.804688 20.824219 23.78125 19.710938 23.777344 C 18.488281 23.773438 17.269531 23.839844 16.058594 23.96875 C 15.996094 23.976562 15.933594 23.984375 15.871094 23.976562 C 15.265625 23.921875 14.679688 24.09375 14.085938 24.136719 C 13.28125 24.195312 12.484375 24.28125 11.679688 24.339844 C 11.207031 24.375 10.730469 24.375 10.253906 24.402344 C 9.988281 24.417969 9.710938 24.429688 9.460938 24.507812 C 9.269531 24.570312 9.140625 24.511719 8.976562 24.4375 Z M 8.980469 24.4375 " fill-opacity="1" fill-rule="nonzero"/><path fill="#000000" d="M 30.710938 13.8125 C 31.054688 13.8125 31.363281 13.8125 31.671875 13.8125 C 31.792969 13.8125 31.917969 13.8125 32.039062 13.824219 C 32.203125 13.835938 32.316406 13.929688 32.339844 14.085938 C 32.386719 14.367188 32.429688 14.648438 32.355469 14.949219 C 31.863281 15.128906 31.359375 15.199219 30.828125 15.191406 C 30.648438 15.519531 30.84375 15.882812 30.722656 16.195312 C 30.675781 16.230469 30.640625 16.269531 30.605469 16.269531 C 30.03125 16.289062 29.453125 16.292969 28.886719 16.410156 C 28.644531 16.457031 28.53125 16.351562 28.5 16.125 C 28.460938 15.84375 28.429688 15.558594 28.394531 15.285156 C 28.695312 15.054688 29.039062 15.121094 29.355469 15.074219 C 29.679688 15.023438 30 14.964844 30.359375 14.90625 C 30.378906 14.652344 30.414062 14.394531 30.296875 14.109375 C 29.734375 14.0625 29.214844 14.257812 28.65625 14.394531 C 28.617188 14.335938 28.53125 14.273438 28.53125 14.210938 C 28.527344 13.820312 28.46875 13.4375 28.382812 13.054688 C 28.367188 12.984375 28.410156 12.898438 28.429688 12.789062 C 28.761719 12.757812 29.085938 12.730469 29.40625 12.699219 C 29.628906 12.679688 29.855469 12.636719 30.082031 12.628906 C 30.398438 12.609375 30.578125 12.78125 30.609375 13.097656 C 30.628906 13.316406 30.582031 13.546875 30.714844 13.8125 Z M 30.21875 12.984375 C 29.675781 12.941406 29.230469 13.039062 28.738281 13.148438 C 28.898438 13.417969 28.804688 13.707031 29.003906 13.945312 C 29.402344 13.78125 29.863281 13.917969 30.253906 13.625 C 30.242188 13.425781 30.234375 13.230469 30.21875 12.984375 Z M 28.894531 16.046875 C 29.40625 16.023438 29.886719 15.96875 30.378906 15.875 C 30.375 15.667969 30.453125 15.484375 30.265625 15.285156 C 29.8125 15.347656 29.328125 15.40625 28.816406 15.476562 C 28.84375 15.675781 28.867188 15.847656 28.894531 16.046875 Z M 31.984375 14.199219 C 31.433594 14.078125 31.355469 14.082031 30.714844 14.261719 C 30.726562 14.433594 30.742188 14.609375 30.757812 14.761719 C 31.125 14.980469 31.464844 14.863281 31.800781 14.796875 C 31.929688 14.769531 32.007812 14.671875 32.003906 14.53125 C 32.003906 14.429688 31.992188 14.332031 31.984375 14.199219 Z M 31.984375 14.199219 " fill-opacity="1" fill-rule="nonzero"/><path fill="#000000" d="M 11.886719 17.621094 C 11.855469 17.308594 11.828125 17.066406 11.808594 16.820312 C 11.785156 16.527344 11.863281 16.433594 12.132812 16.421875 C 12.523438 16.402344 12.914062 16.382812 13.304688 16.371094 C 13.585938 16.359375 13.714844 16.480469 13.738281 16.765625 C 13.742188 16.828125 13.742188 16.890625 13.742188 16.949219 C 13.742188 17.234375 13.742188 17.519531 13.742188 17.839844 C 13.382812 17.882812 13.039062 17.882812 12.699219 17.90625 C 12.542969 17.914062 12.367188 17.980469 12.171875 18.097656 C 12.210938 18.425781 12.261719 18.769531 12.296875 19.113281 C 12.316406 19.273438 12.226562 19.40625 12.070312 19.425781 C 11.4375 19.496094 10.804688 19.5625 10.171875 19.613281 C 10.058594 19.621094 9.9375 19.550781 9.816406 19.519531 C 9.726562 19.09375 9.777344 18.683594 9.773438 18.277344 C 9.773438 18.085938 9.878906 17.960938 10.058594 17.917969 C 10.457031 17.828125 10.859375 17.742188 11.265625 17.671875 C 11.441406 17.636719 11.628906 17.636719 11.890625 17.617188 Z M 11.921875 19.027344 C 11.867188 18.664062 11.824219 18.367188 11.78125 18.070312 C 11.199219 17.945312 10.699219 18.167969 10.152344 18.21875 C 10.105469 18.578125 10.074219 18.910156 10.21875 19.246094 C 10.792969 19.261719 11.332031 19.207031 11.921875 19.027344 Z M 13.335938 17.507812 C 13.367188 17.203125 13.40625 16.960938 13.289062 16.703125 C 12.90625 16.667969 12.554688 16.769531 12.167969 16.839844 C 12.210938 17.101562 12.246094 17.335938 12.289062 17.597656 C 12.640625 17.566406 12.964844 17.539062 13.335938 17.507812 Z M 13.335938 17.507812 " fill-opacity="1" fill-rule="nonzero"/><path fill="#000000" d="M 22.109375 36.953125 C 21.453125 36.964844 20.980469 36.976562 20.503906 36.984375 C 20.425781 36.984375 20.335938 36.984375 20.265625 36.949219 C 20.21875 36.929688 20.175781 36.855469 20.175781 36.804688 C 20.175781 36.753906 20.21875 36.675781 20.265625 36.65625 C 20.335938 36.625 20.425781 36.628906 20.507812 36.628906 C 21.3125 36.621094 22.117188 36.636719 22.921875 36.609375 C 23.621094 36.585938 24.320312 36.523438 25.019531 36.472656 C 26.070312 36.398438 27.121094 36.320312 28.167969 36.238281 C 28.496094 36.214844 28.832031 36.199219 29.148438 36.125 C 29.761719 35.988281 30.378906 36.007812 30.996094 35.972656 C 32.003906 35.917969 33.011719 35.839844 34.023438 35.78125 C 34.351562 35.757812 34.683594 35.761719 35.011719 35.746094 C 35.363281 35.726562 35.710938 35.695312 36.058594 35.679688 C 36.160156 35.675781 36.265625 35.691406 36.355469 35.722656 C 36.398438 35.738281 36.425781 35.816406 36.441406 35.867188 C 36.449219 35.898438 36.421875 35.960938 36.398438 35.972656 C 36.265625 36.019531 36.128906 36.085938 35.996094 36.09375 C 35.601562 36.109375 35.210938 36.089844 34.816406 36.105469 C 34.300781 36.125 33.789062 36.167969 33.273438 36.195312 C 32.53125 36.234375 31.789062 36.25 31.046875 36.296875 C 30.453125 36.335938 29.859375 36.402344 29.261719 36.453125 C 28.996094 36.476562 28.726562 36.492188 28.460938 36.519531 C 27.804688 36.585938 27.148438 36.664062 26.492188 36.722656 C 25.875 36.777344 25.257812 36.839844 24.640625 36.859375 C 23.738281 36.890625 22.835938 37.03125 22.109375 36.949219 Z M 22.109375 36.953125 " fill-opacity="1" fill-rule="nonzero"/><path fill="#000000" d="M 16.5 27.316406 C 16.730469 27.601562 16.738281 27.871094 16.738281 28.136719 C 16.738281 29.101562 16.726562 30.066406 16.71875 31.035156 C 16.71875 31.113281 16.691406 31.195312 16.671875 31.308594 C 16.542969 31.339844 16.40625 31.398438 16.269531 31.402344 C 15.632812 31.417969 14.996094 31.425781 14.359375 31.421875 C 13.992188 31.417969 13.890625 31.292969 13.886719 30.933594 C 13.871094 30.03125 13.851562 29.128906 13.824219 28.226562 C 13.820312 28.0625 13.78125 27.898438 13.925781 27.710938 C 14.75 27.53125 15.613281 27.386719 16.5 27.316406 Z M 14.21875 27.96875 C 14.191406 28.082031 14.144531 28.175781 14.148438 28.269531 C 14.175781 28.96875 14.207031 29.664062 14.246094 30.363281 C 14.257812 30.582031 14.285156 30.800781 14.308594 31.058594 C 14.675781 31.058594 15 31.078125 15.328125 31.054688 C 15.644531 31.027344 15.980469 31.109375 16.277344 30.953125 C 16.386719 30.371094 16.398438 28.292969 16.292969 27.722656 C 16.222656 27.714844 16.144531 27.6875 16.070312 27.699219 C 15.460938 27.785156 14.851562 27.875 14.21875 27.96875 Z M 14.21875 27.96875 " fill-opacity="1" fill-rule="nonzero"/><path fill="#000000" d="M 13.628906 36.984375 C 13.613281 36.820312 13.582031 36.703125 13.589844 36.585938 C 13.617188 36.113281 13.660156 35.644531 13.691406 35.175781 C 13.714844 34.746094 13.738281 34.3125 13.75 33.882812 C 13.761719 33.457031 13.914062 33.292969 14.335938 33.269531 C 14.726562 33.246094 15.117188 33.21875 15.507812 33.195312 C 15.570312 33.191406 15.632812 33.191406 15.691406 33.191406 C 16.042969 33.203125 16.1875 33.332031 16.199219 33.671875 C 16.210938 33.917969 16.179688 34.164062 16.171875 34.410156 C 16.15625 35.007812 16.140625 35.601562 16.125 36.199219 C 16.121094 36.300781 16.128906 36.40625 16.121094 36.507812 C 16.105469 36.671875 16 36.792969 15.835938 36.765625 C 15.273438 36.675781 14.742188 36.933594 14.183594 36.890625 C 14.027344 36.878906 13.867188 36.941406 13.628906 36.984375 Z M 15.808594 33.542969 C 15.246094 33.570312 14.703125 33.597656 14.097656 33.632812 C 14.167969 34.566406 13.929688 35.492188 13.972656 36.441406 C 14.582031 36.660156 15.125 36.394531 15.722656 36.363281 C 15.757812 35.410156 15.933594 34.5 15.808594 33.542969 Z M 15.808594 33.542969 " fill-opacity="1" fill-rule="nonzero"/><path fill="#000000" d="M 16.523438 32.757812 C 16.304688 32.8125 16.132812 32.882812 15.953125 32.898438 C 15.378906 32.9375 14.804688 32.964844 14.226562 32.992188 C 13.980469 33.003906 13.894531 32.921875 13.886719 32.675781 C 13.875 32.449219 13.882812 32.226562 13.882812 31.972656 C 14.023438 31.960938 14.144531 31.957031 14.257812 31.941406 C 14.769531 31.871094 15.28125 31.804688 15.789062 31.726562 C 16.296875 31.648438 16.398438 31.71875 16.46875 32.246094 C 16.488281 32.386719 16.5 32.53125 16.523438 32.757812 Z M 16.523438 32.757812 " fill-opacity="1" fill-rule="nonzero"/></svg>