<?xml version="1.0" encoding="UTF-8"?>
<svg id="Layer_2" xmlns="http://www.w3.org/2000/svg" viewBox="0 0 66.94 81.66">
  <g id="Layer_2-2" data-name="Layer_2">
    <g>
      <path d="M55.23,0c.39.48.76.91,1.35.96.49.04.98.04,1.5.06.41.86-.01,1.81.48,2.56.53.33,1.09.17,1.63.16.3,0,.6-.06.91-.06.39,0,.68.24.73.63.06.5.03,1.01.06,1.51.02.39.08.79.12,1.19.67.32,1.32.26,1.97.26.55,0,1.1.05,1.64.11.46.05.71.36.79.8.06.35.1.7.08,1.05-.02.52.04.98.29,1.46.15.29.18.68.15,1.01-.12,1.96-.25,3.93-.41,5.89-.23,2.71-.39,5.44-.76,8.14-.38,2.71-.49,5.42-.58,8.14-.04,1.36-.18,2.72-.23,4.08-.06,1.56-.05,3.13-.11,4.69-.07,1.56-.22,3.11-.28,4.67-.05,1.41-.03,2.82-.05,4.23,0,.45.04.91-.02,1.36-.29,2.06-.15,4.13-.18,6.2-.03,3.08.06,6.15.32,9.22.05.55.09,1.11.16,1.66.25,2.05.26,4.13.77,6.15.1.41.04.82-.32,1.1-.29.23-.22.46-.17.78.1.75-.29,1.16-.99,1.22-.15.01-.31.02-.45,0-1.45-.2-2.92-.1-4.37-.08-2.92.06-5.84.24-8.76.37-.5.02-1.01.04-1.51.06-3.12.15-6.25.26-9.37.47-2.61.17-5.22.46-7.83.66-1.26.1-2.52.08-3.77.17-1.45.1-2.9.26-4.35.4-2.36.22-4.72.46-7.1.38-2.12-.08-4.23-.18-6.35-.3-.45-.03-.89-.17-1.33-.25-.54-.11-1.09-.22-1.63-.32-.15-.03-.3-.01-.45-.04-.68-.11-1.15-.83-1.92-.66-.63-.42-1.29-.8-1.87-1.27-.55-.44-1.07-.93-1.5-1.48-.43-.55-.79-1.17-1.09-1.81-.39-.84-.47-1.74-.38-2.74.65-.34.89-.92.92-1.7.06-1.66.22-3.31.33-4.97.09-1.26.2-2.51.24-3.77.12-3.53.21-7.06.33-10.59.04-1.16.15-2.31.19-3.47.06-1.81.15-3.63.13-5.45-.04-2.48.23-4.94.4-7.4.22-3.22.5-6.44.52-9.67,0-1.36.19-2.72.17-4.08-.05-2.62-.2-5.24-.28-7.86-.02-.7,0-1.41.09-2.1.11-.83.76-1.39,1.15-2.08.02-.04.08-.07.12-.08,1.14-.2,2.15-.89,3.33-.93.45-.02.91-.03,1.36-.05.35-.01.73.04,1.05-.07,1.63-.54,3.37-.52,5.01-.99,2.76-.79,5.55-1.53,8.4-1.87,1.91-.23,3.73-.8,5.62-1.1.3-.05.6-.15.89-.14,2,.08,3.88-.53,5.8-.91,1.68-.33,3.36-.66,5.04-.99.35-.07.7-.1,1.04-.18,1.96-.49,3.94-.83,5.94-1.09,1.24-.16,2.47-.46,3.71-.69.34-.06.7-.07,1.04-.13.49-.08.98-.17,1.47-.25.39-.06.78-.12,1.16-.18ZM7.11,79.42c.3.08.44.14.59.16,2.59.49,5.21.56,7.83.64,2.22.06,4.44.15,6.64-.19,2.1-.32,4.21-.48,6.33-.55,1.61-.06,3.22-.15,4.83-.27,1.96-.15,3.91-.36,5.87-.5,4.28-.31,8.57-.32,12.84-.65,3.22-.25,6.45-.26,9.68-.39.79-.03,1.58-.16,2.34-.25.06-.17.1-.26.12-.35.2-1.02-.2-2-.27-2.99-.19-2.56-.38-5.13-.52-7.7-.24-4.38-.22-8.77-.22-13.16,0-3.28.09-6.55.28-9.83.05-.85,0-1.71.04-2.57.07-1.61.16-3.22.24-4.83.09-1.91.18-3.83.27-5.74.04-.91.05-1.82.15-2.72.24-2.21.54-4.4.79-6.61.19-1.7.36-3.41.49-5.12.07-.9.05-1.82.02-2.72-.03-.92-.53-1.45-1.39-1.47-2.06-.04-4.13-.06-6.2-.04-1.61.01-3.22.12-4.83.14-2.02.02-4.04-.02-6.06-.01-1.41,0-2.82.03-4.23.09-1.31.06-2.61.18-3.92.26-2.92.17-5.84.35-8.77.29-1.01-.02-2.02.01-3.02.09-1.46.11-2.9.33-4.36.42-1.5.09-2.98.5-4.49.19-.05,0-.1.01-.15.01-1.51.07-3.02.15-4.52.21-1.31.05-2.6.26-3.93.49-.03.62-.09,1.17-.09,1.71,0,1.77.02,3.53.02,5.3,0,1.61.03,3.23-.09,4.84-.17,2.37-.34,4.73-.28,7.1.01.45,0,.91-.02,1.36-.07,2.77-.22,5.54-.2,8.31.02,3.34-.28,6.65-.48,9.97-.14,2.21-.46,4.43-.46,6.64,0,3.84-.42,7.65-.75,11.47-.22,2.57-.23,5.14-.25,7.71,0,.39.08.79.13,1.26ZM3.82,40.37c-.07.52-.14.91-.16,1.31-.18,3.37-.36,6.74-.51,10.11-.11,2.67-.12,5.34-.25,8.01-.13,2.77-.06,5.54-.44,8.31-.21,1.49-.18,3.02-.26,4.53-.02.35.08.73-.03,1.05-.11.36-.39.66-.59.98.59,1.69,1.71,2.88,3.17,3.77.18.11.43.13.72.21.05-1.07.09-2.03.14-2.98.07-1.46.11-2.92.23-4.38.17-2.11.45-4.21.6-6.32.14-1.96.15-3.93.24-5.89.11-2.37.26-4.73.39-7.09,0-.15.03-.3.04-.45.14-1.81.35-3.61.4-5.42.08-3.03.03-6.05.08-9.08.05-3.38.15-6.76.22-10.14.03-1.41.04-2.82.04-4.24,0-.19,0-.42-.32-.46-.05.13-.14.25-.15.39-.1,1.1-.24,2.2-.27,3.31-.07,2.82-.09,5.65-.12,8.47-.02,1.41,0,2.83-.03,4.24-.02.89-.26,1.15-1.11,1.36-.63.16-1.27.26-2.04.41ZM60.2,5.12c-1.2.09-2.36.1-3.48.29-1.69.29-3.37.58-5.08.67-1.26.07-2.52.15-3.76.31-2.94.38-5.84,1.03-8.81,1.22-2.11.13-4.21.4-6.32.58-1.71.15-3.39.41-5.06.81-2.49.6-4.97,1.23-7.51,1.61-1.37.2-2.72.59-4.08.89,0,.04.02.08.03.12h5.65c.13-.2.25-.31.28-.45.12-.54.49-.73.99-.74.3,0,.6.05.9.04.85-.03,1.74.06,2.56-.13,2.21-.52,4.49-.49,6.72-.85.64-.1,1.32.01,1.96-.11,3.39-.64,6.83-.37,10.24-.76,2.25-.25,4.52-.29,6.78-.48,1.81-.15,3.6-.4,5.4-.6.6-.07,1.21-.1,1.8-.18.29-.04.56-.14.82-.21.27-.65.26-1.24-.02-2.04ZM56.67,2.6c-.57-.04-1.17-.02-1.75.11-2.67.58-5.38.88-8.09,1.08-1.92.14-3.81.41-5.7.72-.94.16-1.88.36-2.82.52-1.44.25-2.89.45-4.32.73-2.27.45-4.46,1.26-6.76,1.6-1.15.16-2.29.37-3.42.61-2.52.52-5.03,1.05-7.54,1.6-.64.14-1.26.33-1.89.51-1.79.51-3.54,1.16-5.4,1.38-.7.08-1.39.26-2.07.43-.1.02-.22.24-.21.35,0,.11.18.3.27.3.65,0,1.32.03,1.95-.11,1.53-.35,3.08-.51,4.65-.54.22,0,.45,0,.84,0-.33-.22-.52-.3-.66-.44-.34-.34-.23-.83.22-.95.34-.09.71-.19,1.04-.14.93.15,1.8-.12,2.68-.31,1.28-.27,2.54-.62,3.81-.91,1.62-.36,3.25-.72,4.88-1.04,1.98-.38,3.96-.77,5.96-1.05,1.34-.19,2.72-.14,4.07-.32,3-.39,6-.74,8.99-1.21,3.42-.54,6.89-.81,10.34-1.22.33-.04.73-.16.94-.38.32-.34.35-.81.02-1.32ZM61.33,9.17c-1.15-.61-1.14-.59-2.56-.5-1.96.12-3.91.33-5.85.69-.79.15-1.6.16-2.4.23-1.68.14-3.36.28-5.03.43.17.24.34.32.52.33,4.14.2,8.27.17,12.41-.07,1.15-.07,2.29-.17,3.46.06.82.17,1.71.01,2.56-.03.33-.02.58-.24.62-.57.04-.33,0-.67-.01-.99-1.65-.27-2.39-.18-3.72.41ZM4.38,12.5c0,.74.02,1.09,0,1.44-.09,1.05.51,1.68,1.32,2.17.17.1.37.16.55.26.62.34.97.87,1.08,1.56.06.35.06.7.07,1.05.02.5.03.99.04,1.49.21-.33.22-.66.24-.99.04-.55.01-1.12.13-1.65.24-1.06.13-2.09,0-3.15-1.08-.7-2.34-1-3.43-2.17ZM32.1,11.03c.86,0,1.72.05,2.57,0,3.11-.21,6.22-.46,9.34-.7.04,0,.09-.04.11-.08.02-.04.01-.09.02-.25-4.03-.05-8.01.49-12.04,1.04Z"/>
      <path d="M59.65,74.6c-.16.17-.21.29-.3.32-1.07.29-2.21.48-3.25.21-1.36-.35-2.69-.33-4.04-.29-.25,0-.5.06-.75.06-4.69-.09-9.37.22-14.06.38-1.56.05-3.12.08-4.69.08-2.37,0-4.72.23-7.07.48-2.76.29-5.53.45-8.29.73-1.05.1-2.11.06-3.16.14-.51.04-.99.05-1.49-.13-.25-.09-.58,0-.87,0-.55,0-.85-.24-.93-.78-.03-.2-.06-.41-.02-.6.19-.95.09-1.91.02-2.86-.25-3.79.08-7.56.14-11.34.06-3.88-.01-7.77-.02-11.65,0-.91.05-1.81.09-2.72.12-2.77.21-5.54.36-8.3.12-2.17.08-4.33-.11-6.49-.01-.15,0-.3,0-.45.09-2.67.18-5.34.27-8.02.03-1.06.06-2.12.09-3.17.01-.4,0-.81.06-1.21.04-.23.16-.52.34-.64.9-.64,1.79-1.31,3.03-1.04.38.08.8-.02,1.2-.05.3-.02.62-.1.9-.04,1.26.24,2.52.06,3.77,0,1.36-.07,2.72-.16,4.08-.16,1.42,0,2.8-.26,4.19-.51,1.19-.21,2.4-.34,3.6-.44,2.15-.19,4.31-.4,6.47-.48,2.06-.07,4.13.04,6.2.05,2.37,0,4.74-.1,7.1-.02,2.52.09,5.03.32,7.54.52.95.08,1.38.64,1.34,1.67-.04,1.06-.07,2.12-.22,3.17-.66,4.5-.72,9.05-1.06,13.58-.17,2.21-.25,4.43-.42,6.64-.31,4.07-.57,8.15-.66,12.24-.07,3.18-.18,6.36-.13,9.53.06,3.37.09,6.76.74,10.09.09.49.01,1,.01,1.52ZM13.13,19.12c-.1,1.98-.21,3.99-.3,6-.07,1.46-.11,2.92-.15,4.39-.02.6-.05,1.21-.04,1.81,0,.6.09,1.21.08,1.81-.04,3.23-.1,6.46-.16,9.68,0,.1,0,.2-.01.3-.08,1.91-.17,3.83-.22,5.74-.05,2.06-.07,4.13-.09,6.19-.01.86-.05,1.71-.01,2.57.1,2.63,0,5.25-.22,7.87-.07.85-.14,1.71-.1,2.57.07,1.96.2,3.92.32,5.88.04.54.08,1.1.48,1.62,1,.04,2.01.17,3.01.12,2.07-.1,4.13-.25,6.19-.47,3.56-.38,7.13-.71,10.71-.81,2.57-.08,5.15-.15,7.72-.23,1.16-.03,2.32-.05,3.48-.09,2.82-.09,5.64-.28,8.46-.15.55.03,1.13-.13,1.65-.02,1.12.23,2.22.02,3.32-.02.71-.03.89-.27.86-.95,0-.2-.03-.4-.05-.6-.4-3.11-.4-6.24-.4-9.37,0-2.42.03-4.84.04-7.26,0-1.16-.02-2.32.02-3.47.07-2.01.17-4.02.27-6.04.03-.6.07-1.21.1-1.81.05-.8.11-1.61.15-2.41.03-.71.01-1.42.06-2.12.24-3.12.51-6.23.74-9.35.09-1.21.04-2.43.18-3.63.3-2.71.56-5.42.66-8.15.01-.29,0-.58,0-.92-.4-.12-.73-.3-1.06-.32-2.51-.1-5-.66-7.53-.39-.3.03-.61.07-.91.04-1.96-.21-3.93.1-5.88-.19-.3-.04-.6,0-.91.02-2.11.13-4.23.37-6.34.03-.1-.02-.21-.03-.3,0-1.47.44-3.02.1-4.5.46-1.99-.15-3.9.45-5.84.72-.8.11-1.59.25-2.39.27-1.05.03-2.1.05-3.16.1-1.01.04-2.01.15-3.02.15-.96,0-1.92-.08-2.87-.14-.73-.05-1.4.05-2.03.58Z"/>
      <path d="M22.66,71.76c.13-.72.3-1.45.4-2.2.06-.49.06-1,.03-1.5-.03-.45-.14-.89-.18-1.34-.03-.32.2-.61.53-.6.79.02,1.58-.08,2.37-.08,3.37,0,6.73-.17,10.1-.21,1.35-.01,2.7.1,4.06,0,1.65-.13,3.32-.12,4.98-.15.28,0,.57.07.94.11-.02.32-.03.55-.05.79-.08,1.26-.09,2.5.18,3.75.27,1.24-.38,1.92-1.65,1.82-.9-.07-1.8-.06-2.7.02-1.1.1-2.21.1-3.32.06-3.58-.14-7.15,0-10.72.12-1.16.04-2.31.15-3.46.26-.61.05-1.09-.13-1.49-.85Z"/>
      <path d="M22.67,26.63c-1.27,1.27-1.58,1.29-2.8.18-.09.89-.11,1.71.07,2.55.08.37.04.8-.04,1.18-.07.3-.33.5-.68.48-.32-.02-.62-.15-.72-.46-.12-.38-.19-.78-.22-1.18-.04-.65-.07-1.31-.04-1.97.06-1.15.18-2.3.28-3.48.64-.33,1.18-.31,1.65.22.34.37.64.77.99,1.19.68-.45.81-1.4,1.55-1.77.59.02.97.28,1.12.84.15.58.37,1.16.44,1.75.14,1.1.26,2.2.67,3.24.09.23.1.5.1.74-.01.39-.39.77-.77.82-.34.05-.67-.14-.81-.54-.11-.32-.14-.68-.18-1.02-.1-.94-.15-1.89-.59-2.78Z"/>
      <path d="M19.89,47.81c-.39-.32-.7-.57-.99-.81-.25-.8.24-1.27.7-1.73.48-.48,1.11-.77,1.75-.8.45-.03.93.26,1.62.48,1.18-.2,2.61-.43,4.11-.68.09.25.23.46.23.68,0,.17-.13.41-.28.5-.29.18-.63.28-1,.43-.14.82.11,1.59.25,2.37.07.39.14.79.1,1.18-.02.2-.22.46-.4.57-.25.15-.8-.08-.9-.36-.12-.33-.21-.67-.27-1.02-.12-.74-.21-1.48-.3-2.17-1.21-.58-2.37-.68-3.57-.36-.11.03-.19.19-.37.39.51.23.95.44,1.39.62,1.41.57,1.4,2.23.61,3.16-.69.82-2.51.64-2.93-.51-.2-.56-.15-1.09.25-1.93ZM20.78,48.11c-.06.36-.11.59-.14.82,0,.09,0,.22.06.28.13.12.29.28.45.28.15,0,.37-.14.43-.27.2-.46.07-.64-.8-1.11Z"/>
      <path d="M39.15,38.46c-.04.8-.09,1.59-.6,2.29-.46.65-1,1.11-1.81,1.22-.34.05-.66.18-.99.28-.59.17-1.15-.16-1.23-.74-.04-.25-.01-.5-.04-.75-.12-1.15-.16-2.32-.4-3.44-.21-.96-.04-1.68.73-2.26.76-.58,1.59-.57,2.43-.25.63.24,1.09.65,1.34,1.33.28.76.64,1.48.57,2.32ZM37.95,38.23c-.02-.8-.38-1.4-.89-1.91-.25-.26-.6-.4-.97-.27-.37.14-.49.47-.55.83,0,.05,0,.1,0,.15.1.9.19,1.79.31,2.69.05.4.34.6.71.68.4.08.71-.12.85-.47.22-.55.37-1.13.55-1.69Z"/>
      <path d="M20.3,37.54c.44.52.96.64,1.52.77,1.48.34,2.22,1.92,1.58,3.3-.06.14-.13.27-.21.4-.73,1.22-1.74,1.59-3.07,1.1-.33-.12-.64-.3-.94-.47-.36-.21-.69-.47-.63-.94.07-.53.38-.93.84-1.18.36-.2.91.17.97.64.02.18-.02.38-.04.66.41.03.82.18,1.05.03.3-.19.53-.59.65-.95.11-.31.02-.68.02-1.05-1.14-.78-2.62-.65-3.67-1.71-.36-.82.17-1.45.81-1.96.68-.54,1.51-.79,2.38-.86.49-.04.88.19,1.21.51.2.19.23.47.06.69-.11.14-.33.26-.5.26-.3,0-.59-.13-.89-.14-.56-.02-.96.24-1.14.9Z"/>
      <path d="M48.05,39.5c.07-1.76-.1-3.13-.4-4.57.23-.08.44-.21.66-.23.34-.04.61.14.66.48.21,1.59.39,3.2.61,4.79.09.67-.22,1.15-.91,1.35-.6.18-1.1-.08-1.47-.73q-.46-.81-1.15-1.3c-.35.18-.18.52-.24.79-.07.34-.11.7-.27.99-.09.16-.42.24-.63.24-.15,0-.39-.19-.42-.34-.09-.33-.15-.7-.09-1.04.2-1.15.24-2.29-.04-3.44-.12-.48.06-.77.38-.87.42-.13.81-.02,1.06.35.17.25.27.54.41.8.46.88,1.08,1.64,1.86,2.72Z"/>
      <path d="M38.95,55.88c.71.06,1.05.12,1.39.1.25,0,.49-.16.73-.15.29,0,.58.08.86.19.18.07.17.21.12,1.03-.98.13-1.96.33-2.96.22-.39-.04-.78-.19-1.14-.35-.35-.15-.52-.48-.49-.86.04-.4.08-.81.19-1.19.18-.61.1-1.16-.15-1.75-.34-.79-.04-1.1.77-1.43,1.02-.42,1.85-.03,2.72.37.26.12.37.33.31.61-.07.31-.38.55-.66.5-.24-.05-.47-.17-.72-.21-.23-.04-.48,0-.7,0-.14.52-.02.82.45.79.34-.02.68-.15,1.03-.19.19-.02.4,0,.58.07.39.13.48.54.22.84-.27.31-.57.56-1.02.56-.25,0-.52.02-.74.12-.2.09-.34.31-.79.74Z"/>
      <path d="M32.54,46.97c-.03-.3-.03-.6-.09-.9-.16-.82.34-1.34.87-1.79.18-.16.58-.17.84-.09.62.18,1.23.42,1.82.7.3.14.62.37.79.65,1,1.57.33,3.71-1.38,4.41-.8.33-1.59.13-2.3-.27-.22-.13-.38-.48-.42-.75-.11-.64-.13-1.29-.19-1.93.02,0,.03,0,.05,0ZM33.78,45.76c.12.8.18,1.49.32,2.17.13.63.82.84,1.29.42.54-.48.6-1.75.07-2.19-.43-.36-.92-.61-1.68-.41Z"/>
      <path d="M32.78,58c-.73-.18-1.06-.56-1-1.4.06-.89-.12-1.8-.18-2.71-.06-.97.15-1.21,1.12-1.44.81-.19,1.62-.1,2.39.1.98.25,1.5.98,1.63,1.97.12.92-.1,1.69-1.01,2.15-.66.33-1.2.9-2.05.86-.29-.01-.6.3-.9.47ZM33.18,56.16c.9-.16,1.56-.43,1.82-.68.55-.54.45-1.23-.22-1.61-.7-.4-1.22-.17-1.72.4.04.61.08,1.21.12,1.9Z"/>
      <path d="M27.13,31.75c.74,0,1.49-.14,2.22.12.14.05.3.07.42.16.25.19.44.46.33.78-.07.22-.24.52-.42.56-.48.11-1,.17-1.49.13-.91-.06-1.81.01-2.71.11-.99.1-1.99.25-3,.05-.28-.06-.61-.06-.89.03-.78.25-1.49-.06-2.21-.25-.21-.06-.4-.29-.56-.47-.21-.25-.06-.62.26-.71.1-.03.19-.06.29-.07,1.61-.07,3.22-.18,4.83-.19.86,0,1.71.07,2.53-.28.12-.05.29.03.44.05l-.04-.02Z"/>
      <path d="M41.4,38.75c-.22.47-.35.89-.1,1.36.72.19,1.26-.78,2.08-.24.26.29.08.68-.04,1.1-.44.19-.89.42-1.36.58-.33.11-.69.18-1.03.16-.95-.04-1.35-.5-1.32-1.46.02-.69.28-1.39-.08-2.07-.05-.1.03-.31.1-.42.34-.5.32-1.02.24-1.6-.08-.57.19-.88.71-.95.55-.07,1.1-.14,1.65-.17.61-.04,1.05.24,1.33.76-.19.56-.67.41-1.02.54-.37.14-1.07-.16-1.06.53,0,.51.59.42.97.51.1.02.23.05.27.11.11.16.24.34.23.51-.01.16-.16.41-.31.46-.42.14-.87.21-1.28.3Z"/>
      <path d="M27.18,31.77c-.31-.32-.61-.64-.93-.96.46-1.15.89-2.21,1.29-3.21-.25-.64-.65-1.01-1.05-1.4-.39-.39-.77-.79-1.12-1.21-.21-.24-.28-.55-.03-.82.21-.23.76-.33.98-.17.2.14.36.34.53.52.35.36.63.79,1.25.93.36-.58.7-1.18,1.1-1.74.13-.17.43-.33.64-.31.25.02.49.23.68.34-.81,2.33-1.61,4.54-2.36,6.77-.19.57-.53.95-1.03,1.24,0,0,.05.02.05.02Z"/>
      <path d="M31.54,42.58c-1.4-.19-2.18-.86-2.45-2.13-.22-1.03-.37-2.07-.53-3.11-.06-.37.2-.75.53-.8.34-.06.6.12.76.38.12.2.17.47.21.71.11.69.17,1.4.3,2.09.06.32.24.62.38.98.92-.97,1.09-1.95.82-4.31.05-.08.09-.21.16-.24,1.03-.41,1.64-.05,1.52.98-.22,1.89-.39,3.81-1.7,5.46Z"/>
      <path d="M21.83,52.34c-.1.32-.11.59-.25.75-.15.18-.4.3-.63.38-.55.19-.98.49-1.19,1.06-.27.72-.42,1.45-.15,2.2.06.18.19.37.35.47.14.09.42.16.53.08.12-.08.22-.38.16-.52-.14-.3-.38-.56-.61-.9.6-1.18,1.65-.79,2.54-.82.44.76-.25,1.03-.46,1.4,0,.43.03.78,0,1.13-.06.64-.43,1.02-1.05,1.09-.99.11-1.75-.39-2.43-.99-.59-.52-.6-1.22-.48-1.95.18-1.11.44-2.17,1.36-2.93.67-.55,1.39-.71,2.31-.47Z"/>
      <path d="M23.03,53.31c.23-.13.48-.27.73-.41.57.31.67.81.72,1.3.08.7.09,1.4.17,2.1.02.16.21.38.36.4.14.03.44-.12.47-.25.16-.63.28-1.27.36-1.91.05-.39,0-.79,0-1.17.49-.42.95-.36,1.45-.08.05.2.11.39.13.58.1,1.15.19,2.3.27,3.45.04.56-.23.79-.82.78-.6-.01-1.21-.03-1.81-.01-.96.03-1.81-.53-1.8-1.75,0-.95-.14-1.89-.24-3.04Z"/>
      <path d="M36.91,44.51c.83-.46,1.51-.37,2.16.18.3.25.64.45,1.04.73.11-.27.19-.44.26-.62.07-.19.11-.39.2-.57.17-.3.62-.5.9-.43.24.07.58.53.55.83-.01.19-.09.39-.15.57-.23.62-.46,1.23-.69,1.84-.38.98-.75,1.97-.6,3.03-.21.12-.33.25-.46.26-1.26.1-1.61-.33-1.24-1.49.06-.19.14-.39.25-.55.5-.73.25-1.34-.27-1.91-.38-.41-.77-.8-1.32-.98-.37-.12-.56-.41-.62-.9Z"/>
      <path d="M24.8,37.83c-.56-.42-1.3-.21-1.47-1.04.94-.8,2.07-1.22,3.33-1.31.18-.01.47.23.53.41.06.19-.04.51-.18.66-.2.2-.51.28-.86.45.28,1.47.55,2.93.83,4.39.03.15.06.29.08.44.06.49-.07.77-.4.85-.53.13-.97-.01-1.13-.46-.14-.42-.21-.87-.26-1.31-.08-.65-.09-1.3-.18-1.94-.05-.39-.2-.77-.3-1.15Z"/>
      <path d="M29.71,48.23c1.01-.93.49-2.06.47-3.22.21-.16.45-.42.75-.55.44-.19.98.21.94.68-.08.9-.22,1.8-.33,2.69-.09.74-.57,1.28-1.01,1.83-.13.16-.46.26-.66.21-.72-.16-1.29-.6-1.58-1.28-.41-.94-.42-1.96-.44-2.97,0-.15.18-.36.33-.46.25-.16.48,0,.66.18.38.39.48.87.46,1.39-.02.51,0,1.01.42,1.48Z"/>
      <path d="M50.97,35.82c-.42-.15-.76-.24-1.06-.4-.32-.17-.27-.7.06-.86.09-.04.18-.11.28-.12.9-.05,1.8-.13,2.69-.13.55,0,.8.31.75.73-.04.36-.22.47-.9.53-.05,0-.1.02-.24.06-.05.29-.14.62-.16.95-.07,1.3-.12,2.61-.19,3.92-.01.2-.06.39-.12.59-.07.25-.4.36-.61.19-.4-.33-.7-.68-.62-1.28.11-.85.16-1.7.18-2.56.02-.54-.05-1.09-.07-1.62Z"/>
      <path d="M30.55,57.42c-.35.04-.54.07-.74.08-.41.03-.67-.18-.81-.54-.09-.23-.15-.49-.15-.73-.03-.9-.07-1.8-.31-2.69-.13-.49.12-.78.6-.84.49-.06.82.14.88.59.18,1.34.34,2.67.53,4.14Z"/>
    </g>
  </g>
</svg>