<?xml version="1.0" encoding="UTF-8"?>
<svg id="Layer_2" xmlns="http://www.w3.org/2000/svg" viewBox="0 0 86.78 118.55">
  <g id="Layer_2-2" data-name="Layer_2">
    <g>
      <path d="M34.26,6.54c.77-.93,1.3-1.73,1.99-2.37.68-.64,1.46-1.23,2.3-1.63,1.49-.7,2.89-.15,4.06.78,1.49,1.19,2.65,2.71,3.54,4.4.76,1.45,1.34,2.98,1.74,4.63.46.11.88.21,1.32.31.11-.22.28-.4.25-.53-.51-1.96.02-3.9.3-5.8.21-1.39,1.03-2.69,1.62-4.02.12-.27.4-.49.66-.66.8-.52,1.59-1.05,2.44-1.47.37-.18.87-.2,1.29-.16,1.94.18,3.92.23,5.81.66,1.55.35,3.14.94,4.13,2.4.92,1.37,1.85,2.73,2.79,4.08.65.93,1.23,1.95,2.05,2.72,1.21,1.14,1.86,2.53,2.39,4.03.7,1.97,1.35,3.96,2.09,5.92.64,1.72,1.33,3.42,2.06,5.1,1.15,2.62,1.18,5.3.44,7.99-.38,1.4-.98,2.74-1.49,4.11-.06.17-.17.36-.32.46-1.01.7-.99,1.85-1.3,2.86-.05.18-.12.41-.05.55.54,1.08.12,2.12-.09,3.16-.25,1.28-.16,2.5.25,3.74,1.1,3.35,2.76,6.31,5.16,8.95,1.69,1.86,3.57,3.59,4.93,5.74.1.16.22.32.36.44,1.31,1.15,1.69,2.67,1.54,4.31-.27,2.91.11,5.81.09,8.71,0,1.21.13,2.39.14,3.59.01,1.39-.12,2.78-.16,4.18-.04,1.58,0,3.17-.08,4.75-.05,1.13-.02,2.27-.23,3.41-.22,1.16-.1,2.39-.18,3.59-.08,1.14-.31,2.25-.78,3.31-.34.78-.81,1.44-1.62,1.78-1.2.51-2.08,1.43-2.97,2.33-.61.62-1.15,1.27-2.09,1.55-.61.18-1.11.82-1.59,1.32-1.32,1.38-2.73,2.64-4.34,3.67-.11.07-.21.15-.28.25-1.3,1.79-3.27,2.28-5.28,2.66-2.61.5-5.24.94-7.84,1.45-2.11.42-4.19.96-6.3,1.35-1.99.37-4,.66-6.01.94-2.64.37-5.27.74-7.92,1.03-1.83.2-3.64.47-5.45.81-1.55.29-3.13.33-4.7.38-1.52.05-3.04.13-4.55.23-2.23.14-4.41-.18-6.58-.64-2.15-.45-3.96-1.47-5.64-2.92-1.68-1.45-3.21-3.04-4.79-4.59-.49-.48-1.12-.82-1.7-1.21-.42-.28-.87-.51-1.3-.79-1.54-.98-2.46-2.33-2.58-4.2-.14-2.4-.34-4.81-.52-7.21-.13-1.77-.29-3.53-.4-5.3-.14-2.21-.5-4.4-.81-6.59-.18-1.3-.02-2.65-.04-3.98-.04-2.87-.08-2.91,2.1-4.67.83-.67,1.23-1.41,1.2-2.43-.09-2.78.21-5.56-.16-8.34-.19-1.42.06-2.9.17-4.35.07-.91.53-1.69,1.11-2.39.28-.34.61-.65.87-1.01.65-.93,1.13-1.87,1.11-3.12-.05-2.91.57-5.77.85-8.66.04-.47.05-.74-.18-1.16-.72-1.28-.7-2.73-.18-4.01.98-2.41,1.02-4.9,1.11-7.43.09-2.65.23-5.3.59-7.93.23-1.69.16-3.41.5-5.1.57-2.79,1.08-5.59,1.83-8.33.08-.3.22-.6.35-.88.49-1.03.97-2.06,1.49-3.08.23-.44.45-1.01.84-1.23.87-.48,1.39-1.28,2.09-1.91.47-.42.97-.8,1.49-1.15.47-.31,1-.54,1.48-.84,4.09-2.5,8.11-1.86,12.05.35.7.39,1.25,1.06,1.87,1.61.51.46,1.01.93,1.62,1.49ZM49.74,44.34c0,.08.01.16.02.24,2.84-.24,5.7-.38,8.53-.74,2.32-.29,4.62-.79,6.92-1.26,2-.42,3.94-1.04,5.49-2.47.89-.81,1.71-1.7,2.6-2.51.96-.88,1.51-2.04,2.02-3.17.76-1.67,1.04-3.48,1.12-5.35.06-1.38-.24-2.65-.68-3.89-.48-1.36-1.24-2.64-1.67-4.01-.76-2.42-1.98-4.67-2.48-7.18-.06-.31-.19-.6-.3-.9-.53-1.4-1.5-1.95-2.98-1.6-.99.23-1.95.62-2.94.77-3.89.59-7.79,1.09-11.68,1.66-2.02.3-4.06.2-6.08.27-2.4.08-4.8.25-7.2.29-3.09.05-6.19-.26-9.28.15-.56.08-1.14.09-1.71.07-3.55-.1-7.1-.21-10.64-.33-1.57-.05-2.45.47-3.11,1.95-.21.46-.38.94-.51,1.43-.54,2.09-1.02,4.19-1.59,6.27-.98,3.61-2.03,7.19-3.15,10.76-.64,2.06-1.26,4.12-1.88,6.18-.11.36-.2.74-.27,1.11-.44,2.38,1.12,4.06,2.94,4.66,1.44.47,2.86.43,4.32.28,1.13-.11,2.3-.29,3.4-.11,1.15.18,2.28.22,3.41.13,2.65-.23,5.29-.56,7.92-.87,1.57-.18,3.14-.39,4.71-.6.94-.13,1.87-.33,2.81-.4,2.4-.18,4.81-.3,7.22-.46,1.58-.11,3.16-.24,4.74-.36ZM67.29,48.17c.19,1.02.41,1.87.49,2.74.17,1.96.28,3.92.4,5.89.21,3.56-.02,7.1-.73,10.6-.09.44-.19.87-.22,1.31-.06.79.37,1.21,1.14,1.12,1.13-.14,2.25-.31,3.36-.47,1.04.84,1.18.98,1.63,2.67.57,2.14,1.43,4.18,2.14,6.28.58,1.73,1.15,3.48,1.72,5.21-.21.29-.34.66-.59.78-1.68.84-3.1,2.16-4.99,2.58-.13,1.27-.38,2.46-.36,3.65.06,4.4-.54,8.73-1.29,13.06-.22,1.29-.76,2.46-1.51,3.46-.74.99-1.54,2.09-2.79,2.5-1.92.64-3.86,1.28-5.89,1.48-2.21.21-4.43.33-6.65.5-.38.03-.76.1-1.13.14-1.44.19-2.89.41-4.34.55-1.83.17-3.66.26-5.49.39-.25.02-.52.04-.75.13-2.46.94-5.08,1.02-7.64,1.41-1.69.26-3.4.46-5.11.51-2.47.08-4.95-.04-7.43,0-2.24.04-4.24-.66-6.11-1.8-.75-.45-1.4-1.06-2.09-1.61-.33-.26-.44-.59-.4-1.01.07-.95.15-1.9.18-2.85.07-1.96.11-3.92.17-5.87.02-.88.12-1.77.05-2.64-.18-2.08-.34-4.15-.16-6.22q-3.4-.8-5.19-2.84c.09-.42.21-.84.27-1.28.58-4.11,2.05-7.96,3.4-11.85.43-1.26,1.36-1.79,2.53-2,.68-.12,1.39-.07,2.09-.11.3-.02.59-.1.86-.14.04-.23.09-.36.07-.48-.36-2.19-.82-4.36-1.08-6.56-.25-2.07-.46-4.17-.38-6.24.07-1.89.56-3.76.82-5.64.14-.98.34-1.97.28-3.02h-6.13c-.24.32-.48.55-.62.83-.85,1.78-1.98,3.38-3.13,4.97-1.3,1.78-2.12,3.73-2.11,5.99.03,3.3,0,6.6.01,9.9,0,.23.14.45.24.77.49-.09.91-.18,1.34-.25.5-.08,1-.16,1.5-.21.09,0,.26.12.27.21.02.17.02.41-.08.51-.17.16-.43.34-.64.33-1.08-.05-1.96.51-2.84.97-1.16.61-2.06,1.53-2.57,2.88.74.22,1.39.43,2.11.32,1.52-.23,2.07.5,2.08,1.95,0,.76.08,1.52.13,2.28.22,3.41.49,6.82.66,10.24.21,4.38.66,8.72,1.59,13,.33,1.51.45,3.18,2,4.13.14.09.17.34.3.48.34.38.68.75,1.05,1.1.55.52,1.12,1.02,1.71,1.5.34.28.7.55,1.09.75,1.42.74,2.98,1.13,4.53,1.37,2.24.35,4.48.6,6.8.37,2.71-.27,5.43-.24,8.14-.71,3.43-.59,6.93-.82,10.39-1.26,1.95-.25,3.89-.56,5.82-.93,2.93-.57,5.83-1.25,8.75-1.81,2.74-.53,5.5-.94,8.25-1.47,1.57-.3,3.05-.84,4.23-2.01.45-.44.9-.93,1.45-1.2,1.94-.97,3.19-2.69,4.61-4.21.32-.34.48-.89.56-1.37.14-.88.08-1.79.24-2.66.59-3.26.79-6.54.88-9.84.09-3.23.13-6.46.18-9.7.02-1.27.05-2.54.04-3.81,0-1.33-.1-2.67-.08-4,.01-.81-.02-1.65.28-2.29.73-.43,1.38-.71,1.9-1.14.73-.61,1.37-1.32,2.02-2.01.14-.15.17-.4.22-.52-1.19-.36-2.27-.68-3.34-1.03-.22-.07-.41-.29-.56-.48-.25-.32-.36-.73-.07-1.05.19-.2.54-.33.82-.33.44,0,.87.18,1.3.24.29.04.59,0,.97,0-.09-.29-.11-.49-.21-.63-.72-.97-1.42-1.96-2.21-2.86-.8-.9-1.59-1.8-2.32-2.75-.73-.95-1.39-1.94-2.05-2.94-.95-1.43-1.74-2.93-2.36-4.53-.47-1.23-.93-2.46-1.41-3.75-1.62.74-3.22,1.48-4.97,2.28ZM13.16,76.09c-.27.5-.5.82-.62,1.17-.82,2.47-1.64,4.94-2.41,7.42-.4,1.27-.71,2.57-.6,3.92.11,1.3.5,1.82,1.73,2.16.61.17,1.24.3,1.87.35,4.63.38,9.25.3,13.86-.32,1-.13,2.02-.14,3.03-.24,4.92-.5,9.84-1,14.76-1.52,2.58-.27,5.17-.57,7.75-.88,2.52-.3,5.03-.66,7.55-.95,3.46-.4,6.96-.55,10.32-1.58.66-.2,1.35-.37,1.96-.68,2.5-1.25,2.78-2.37,2.1-4.56-.77-2.47-1.52-4.96-2.32-7.42-.15-.47-.44-.93-.77-1.3-.23-.25-.63-.47-.97-.49-1.2-.06-2.4-.02-3.54-.02-.18.27-.34.41-.39.58-.4,1.4-.78,2.8-1.19,4.2-.07.23-.18.46-.33.64-.42.49-.69,1.03-.86,1.66-.18.66-.5,1.3-.88,1.87-.37.54-.63,1.09-.73,1.73-.08.51-.2,1-.77,1.34-.83-.11-1.4-.54-1.71-1.43-.59-1.73-1.13-3.5-2.15-5.06-.69-1.06-1.37-2.12-2.09-3.24.29-.61.58-1.21.95-1.96-.52-.03-.87-.07-1.23-.06-3.1.13-6.21.27-9.31.41-.51.02-1.02,0-1.52.08-2.81.5-5.6,1.12-8.47,1.03-.31,0-.64.03-.95.09-1.56.32-3.14.42-4.74.39-.43,0-.86.15-1.27.23-.11.31-.26.54-.27.78-.04,1.17-.38,2.2-1.01,3.21-.42.67-.58,1.53-.75,2.32-.21.99-.27,2.01-.5,2.99-.16.68-.32,1.32-.22,2.03.13.89-.33,1.59-.95,2.18-.36.35-.79.37-1.23.16-.23-.11-.47-.22-.65-.39-2.05-1.99-4.1-3.97-5.52-6.5-.54-.97-.9-1.94-.96-3.05-.02-.42-.13-.84-.21-1.31h-3.8ZM57.55,69.92c.18-1.06.31-1.93.49-2.79.84-3.93,1.1-7.89.82-11.9-.14-2.03-.8-3.82-2.14-5.39-2.46-.45-4.91.01-7.37.13-.82.04-1.64.16-2.45.24-.82.08-1.63.19-2.45.24-.82.04-1.65-.01-2.47.03-2.97.16-5.95.25-8.9.54-1.74.17-3.54.22-5.36.88-.96,3.11-1.77,6.33-1.7,9.62.08,3.59.59,7.16,2.08,10.4.26.11.38.21.49.21,1.7-.08,3.41-.13,5.1-.27,1.26-.11,2.5-.36,3.76-.51.75-.09,1.51-.15,2.26-.19,2.72-.13,5.39-.71,8.13-.72,3.16-.02,6.32-.33,9.72-.52ZM80.16,100.81c1.21-.65,1.92-1.36,2.7-1.99.91-.74,1.32-1.66,1.41-2.79.32-3.72.94-7.43.69-11.19-.03-.5-.02-1.03.08-1.52.38-1.83.24-3.66.14-5.49-.03-.44-.07-.89-.05-1.33.12-2.53-.15-5.04-.39-7.55-.03-.27.12-.66-.38-.8-.91.44-1.55,1.23-2.2,2-.72.83-1.13,1.76-1.09,2.93.05,1.89-.08,3.79-.1,5.69-.03,2.41,0,4.81-.05,7.22-.05,2.21-.12,4.43-.26,6.63-.1,1.52-.37,3.02-.47,4.54-.08,1.11-.02,2.24-.02,3.66ZM23.47,64.63c-1.1.29-2.1.75-3.18.64-1.03-.1-2.06-.29-3.16-.45-.07.98-.15,1.85.13,2.72.11.35.1.74.14,1.12.09.82.04,1.67.28,2.44.59,1.96.8,3.97.92,5.99.11,1.84.84,3.43,1.95,4.86.43.55.93,1.04,1.34,1.6.65.9,1.6,1.36,2.61,2,.13-.41.25-.69.3-.98.37-1.93.8-3.84,1.08-5.78.15-1.05.19-2.16.05-3.21-.16-1.18-.59-2.32-.92-3.48-.31-1.09-.65-2.16-.74-3.32-.11-1.36-.51-2.7-.81-4.14ZM6.83,108.25c-.03-.41-.03-.71-.07-1.02-.21-1.57-.47-3.13-.63-4.71-.24-2.39-.48-4.79-.55-7.2-.06-2.27-.39-4.54-.58-6.81-.16-2.01-.26-4.03-.43-6.05-.04-.48-.24-.95-.38-1.43-.67-.03-1.23-.08-1.8-.07-.5,0-.86.31-.88.81-.03.95-.13,1.92.03,2.85.41,2.51.58,5.03.72,7.56.06,1.14.31,2.27.32,3.41,0,2.29.28,4.55.53,6.82.08.76.17,1.51.25,2.27.18,1.69,1.25,2.7,2.64,3.46.19.11.46.07.82.12ZM61.4,61.65c-.05.52-.09,1.07-.17,1.63-.32,2.31-.5,4.64-1.27,6.87-.39,1.13-.6,2.32-.92,3.48-.23.83-.17,1.66.15,2.42.58,1.39,1.26,2.74,1.92,4.16.23-.15.46-.22.52-.35.87-1.95,1.74-3.89,2.56-5.86.56-1.34.93-2.74,1.16-4.18.34-2.12.76-4.22,1.09-6.34.11-.71.17-1.44.12-2.15-1.77.11-3.41.21-5.16.33ZM28.2,13.1c-.14-1.27-.21-2.27-.36-3.26-.26-1.8-1.36-3.09-2.72-4.17-.44-.35-.95-.59-1.57-.56-.42.02-.85-.19-1.28-.27-.68-.12-1.37-.25-2.06-.32-.19-.02-.39.17-.75.34.86.62,1.57,1.12,2.24,1.59.26,1.13.62,2.16.72,3.22.1,1.05-.06,2.12-.11,3.27,1.68.06,3.25.11,4.82.16.31,0,.61,0,1.07,0ZM64.86,44.48c-1.87.03-3.6.68-5.41.73-.22,0-.44.17-.61.25.52,1.97,1.02,3.83,1.54,5.8.95.03,1.89.11,2.82.07.98-.05,1.95.4,3,.13.14-2.47-1.12-4.57-1.35-6.97ZM54.33,12.23c.23-1.82.34-3.46.66-5.05.23-1.14.31-2.39,1.42-3.2.33-.24.47-.74.74-1.08.24-.31.76-.4.75-.98-.68-.04-1.31-.16-1.92-.09-1.81.19-3,1.25-3.73,2.86-1.09,2.42-1.28,4.96-.96,7.56.01.09.17.17.32.31.69-.06,1.44-.11,2.2-.19.18-.02.35-.1.52-.15ZM23.27,62.83c.02-1.78.06-3.48.05-5.18,0-.3-.16-.59-.21-.74-1.46-1.25-3.03-1.14-4.62-.88-.53.09-.9.38-1.01.98-.33,1.87-.69,3.73-.51,5.64.01.11.12.2.24.39.36-.02.77-.05,1.2-.07.07-.61.11-1.12.19-1.62.08-.56.16-1.13.28-1.69.11-.5.49-.76.96-.72.45.03.71.43.64.98-.08.62-.2,1.24-.27,1.86-.17,1.61.42,2.03,2.04,1.57.3-.08.56-.28,1.02-.52ZM23.59,54.99c.57-1.08.73-2.19.89-3.3.17-1.15.98-2.14.95-3.41-2.05.11-3.97.21-5.95.31-.48,1.56-1.05,3.09-1.22,4.73-.04.35-.29.73.12,1.05.87,0,1.75.06,2.63-.02.92-.08,1.71.3,2.58.63ZM60.85,2.56c-.53.34-1,.67-1.49.94-1.46.81-2.39,2.02-2.72,3.66-.18.86-.39,1.73-.49,2.6-.09.73-.08,1.49.32,2.21,1.32.02,2.52-.2,3.64-.69.24-1.46.31-2.88.73-4.19.42-1.29,1.2-2.46,1.88-3.79-.62-.25-1.24-.5-1.87-.75ZM64.59,59.9c1.09-.04,1.49-.11,1.72-.5.19-.3.31-.69.31-1.04-.01-.95-.07-1.9-.18-2.84-.08-.67.31-1.54-.31-1.98-.52-.38-1.29-.41-1.96-.59-.06-.02-.12-.05-.18-.05-1.05-.04-2.11-.18-3.11.14.07,1.62.12,3.14.21,4.66.03.57.11,1.14.27,1.68.06.21.43.32.84.59.08-.82.16-1.44.2-2.05.04-.7.03-1.39.06-2.09.03-.68.33-1.05.82-1.06.47,0,.73.35.8,1.09.02.25.07.51.04.76-.15,1.11.27,2.12.46,3.27ZM33.45,12.88c.05-1.06.13-1.87.11-2.69,0-.42-.1-.89-.31-1.25-1.33-2.33-3.36-3.88-5.8-4.9-.67-.28-1.44-.3-2.5-.5.88.67,1.45,1.17,2.08,1.57.61.39,1.01.92,1.4,1.5.76,1.12,1.27,2.31,1.42,3.66.11.98.3,1.96.81,2.93.91-.11,1.77-.21,2.78-.33ZM38.4,12.92c1.51-.46,3.05.34,4.48-.28.49-.91.06-1.69-.23-2.43-.27-.69-.73-1.32-1.13-1.95-.09-.15-.29-.24-.46-.33-.77-.46-1.74-.33-2.17.45-.46.82-.8,1.72-1.07,2.62-.19.61-.05,1.26.58,1.92Z"/>
      <path d="M40.32,39.64c.08-.46.1-.84.22-1.19.5-1.36.44-2.75.17-4.12-.4-2.04-.99-4.05-1.35-6.1-.38-2.2-.33-4.42.49-6.54.52-1.35.74-2.67.24-4.06-.13-.35-.01-.62.38-.7.34-.07.67,0,.79.34.47,1.27.59,2.57.24,3.91-.3,1.15-.59,2.31-.86,3.47-.29,1.27-.17,3.67.3,5.05.66,1.93.86,3.95,1.2,5.94.21,1.19,0,2.4-.35,3.56-.08.26-.33.58-.57.65-.24.08-.56-.12-.91-.21Z"/>
      <path d="M40.11,87.6c-.5.04-.92-.21-1.28-.6-.84-.94-.94-1.87-.3-3.12.82-1.63,1.99-1.85,3.31-.65,1.42,1.28,1.06,2.41.34,3.54-.33.53-1.17.84-2.07.84Z"/>
      <path d="M20.41,69.79c-.68.19-1.22.2-1.7-.22-.35-.31-.53-.68-.39-1.17.18-.64.68-.87,1.24-1.01.35-.09.77.25,1.02.7.32.58.03,1.09-.17,1.71Z"/>
      <path d="M21.99,74.67c-.77.42-1.29.4-1.79.01-.41-.31-.64-.92-.46-1.31.21-.44.62-.6,1.07-.63.48-.03.89.19,1.04.64.13.39.09.84.13,1.29Z"/>
      <path d="M63.48,71.11c-.52-.26-1.03-.48-1.51-.76-.46-.27-.48-.77-.34-1.17.11-.31.4-.66.7-.79.57-.25,1.52.3,1.63.92.1.62.09,1.24-.48,1.8Z"/>
      <path d="M63.99,64.97c-.81.35-1.42.18-1.97-.33-.3-.28-.32-.66-.07-.99.28-.38.66-.55,1.12-.58.51-.03.97.33,1.02.86.03.35-.07.71-.1,1.04Z"/>
    </g>
  </g>
</svg>