<?xml version="1.0" encoding="UTF-8"?>
<svg id="Layer_2" xmlns="http://www.w3.org/2000/svg" viewBox="0 0 57.39 56.45">
  <g id="Layer_2-2" data-name="Layer_2">
    <g>
      <path d="M29.1,41.04c-2.1.25-4.19-.46-6.3-1.27-4.56-1.75-6.63-5.26-6.86-9.88-.11-2.1.14-4.3.66-6.33,1.49-5.79,5.58-8.69,11.35-9.38,2.21-.26,4.43-.46,6.62.32,2.77.98,4.78,2.67,5.74,5.51.26.76.64,1.48.92,2.23,2.35,6.15.3,11.36-3.6,16.08-2.15,2.6-5.25,2.75-8.53,2.74ZM18.28,28.58c-.26,5.5,2.52,8.9,7.87,9.54.61.07,1.21.34,1.83.38,2.79.17,5.36.03,7.64-2.21,3.3-3.23,3.78-9.14,2.05-12.98-.79-1.76-1.31-3.92-3.2-4.8-3.72-1.73-9.02-3.2-12.95.76-1.17,1.18-2.18,2.34-2.43,4.03-.26,1.76-.53,3.52-.79,5.29Z"/>
      <path d="M38.01,46.04c1.35,2.09,2.72,4.21,4.06,6.29-.07,2.14-1.9,1.39-3.13,2.25-.91-2.21-1.84-4.17-2.5-6.23-.31-.97-.21-2.18,1.57-2.31Z"/>
      <path d="M26.45,48.41c0,2.23.07,4.25-.02,6.26-.07,1.45-1.04,1.89-2.64,1.75-.2-1.98-.49-3.89-.56-5.81-.04-1.26.88-1.87,3.23-2.2Z"/>
      <path d="M33.81,8.9c-.73-2.77-.67-5.25.44-7.65.44-.95,1.24-1.53,2.4-1.1.89,3.97-.13,7.61-2.84,8.75Z"/>
      <path d="M0,30.81c2.07-1.22,6.12-1.37,8.69-.57.59.93.29,1.92-.66,2.1-1.64.3-3.38.37-5.03.17-.93-.11-1.77-.97-3.01-1.7Z"/>
      <path d="M52.9,46.23c-1.99-1.61-3.68-2.98-5.73-4.64.95-.71,1.63-1.23,2.39-1.79,2.01,1.61,3.84,3.08,6.06,4.86-1.06.62-1.82,1.06-2.71,1.58Z"/>
      <path d="M18.11,1.34c2.04-.23,2.36-.09,3.04,1.66.7,1.8,1.3,3.64,2.01,5.65-.48.38-.98.78-1.7,1.34-1.74-2.83-3.1-5.5-3.35-8.65Z"/>
      <path d="M51.97,9.32c.35.73.53,1.1.7,1.45-5.14,4.62-5.6,4.86-7.98,4.2-.58-1.1-.12-1.93.83-2.43,2.08-1.1,4.21-2.11,6.45-3.22Z"/>
      <path d="M3.94,13.39c.52-.98.84-1.59,1.22-2.32.48.09,1.06.02,1.28.27,1.6,1.81,4.13,2.85,5.08,5.71-3.78.73-4.9-2.6-7.59-3.66Z"/>
      <path d="M13.92,43.93c-.9,2.94-2.54,5.01-5.91,5.5-.25-.54-.53-1.13-.91-1.94,2.46-1.08,3.71-3.85,6.82-3.56Z"/>
      <path d="M57.39,27.29c-.5.37-1,1.04-1.51,1.05-2.26.04-4.6,1.59-7.06-.35,2.5-2.92,5.52-1.19,8.19-1.55.13.28.26.57.39.85Z"/>
    </g>
  </g>
</svg>