<?xml version="1.0" encoding="UTF-8"?>
<svg id="Layer_2" xmlns="http://www.w3.org/2000/svg" viewBox="0 0 80.24 67.89">
  <g id="Layer_2-2" data-name="Layer_2">
    <g>
      <path d="M7.07,18.67c-1.93-3.35-1.13-6.15,1.76-8.42-.15-.46-.28-.79-.38-1.13-1.09-3.98.86-7.03,4.86-7.9C18.23.16,23.2-.11,28.21.04c6.74.2,13.48.26,20.21.49,4.53.15,9.05.46,13.57.75,3.05.2,6.09.46,9.13.76,2.22.22,2.39.53,2.16,3.15,0,.1.07.22.19.56.76.24,1.67.52,2.79.86.15.81.32,1.73.52,2.76,1.07.23,2.13.46,3.42.75,0,.66.03,1.37,0,2.07-.29,5.28-1.23,10.45-2.52,15.57-.75,2.96-1.18,6.01-1.75,9.02-1.02,5.42-1.97,10.85-3.1,16.24-.56,2.67-.61,5.35-.73,8.04-.08,1.82.07,3.7-1.18,5.6-1.56.36-3.32.81-5.1,1.15-.58.11-1.3.11-1.8-.15-1.62-.85-3.33-.71-5.03-.68-5.77.09-11.48-.73-17.22-1.16-2.69-.2-5.37-.47-8.04-.81-6.56-.82-13.12-1.66-19.67-2.56-1.94-.27-3.85-.67-5.82-.27-.45.09-.94-.06-1.61-.12v-3.78c-.74-.07-1.31-.2-1.88-.18-3.69.18-6.23-5.01-3.8-7.8.31-.36.56-.78.93-1.3-1.74-2.79-.37-4.87,1.66-6.64-.09-3.13-1.33-6.39,2.14-8.38-.22-2.23-.34-4.32,1.25-6.17-2.02-3.07-2.62-6.14.14-9.14ZM71.42,4.29c-.55-.18-1.21-.52-1.9-.59-2.43-.25-4.87-.43-7.31-.59-4.28-.29-8.56-.64-12.84-.79-6.86-.23-13.72-.31-20.58-.45-3.91-.08-7.81-.02-11.56.22-.28.37-.52.55-.56.76-.48,2.52-.8,5.05-.57,7.63.05.57-.01,1.18-.14,1.75-.16.71-.56,1.38-.65,2.09-.44,3.76-.95,7.52-1.11,11.3-.04.99.09,1.82-.54,2.66-.27.36-.32.91-.41,1.39-.51,2.77-.94,5.55-1.5,8.31-1.48,7.18-1.81,14.55-3.51,21.7-.05.2.1.45.21.92,4.6-.48,9.08.88,13.68,1.27,5.48.46,10.92,1.26,16.39,1.83,5.12.53,10.24.98,15.37,1.4,1.71.14,3.43.16,5.14.06,1.81-.11,2.41-.72,2.64-2.45.65-4.86,1.41-9.7,1.85-14.58.71-7.83,2.07-15.53,4.03-23.13.61-2.37,1.17-4.76,1.57-7.18.69-4.22.98-8.52,2.48-12.59.07-.19-.07-.46-.16-.94ZM78.71,12.39c-1.09-.15-1.2.46-1.33,1.05-1.21,5.49-2.21,11.04-3.69,16.45-1.55,5.69-2.84,11.39-3.32,17.26-.42,5.12-.76,10.25-1.08,15.38-.04.61-.32,1.43.73,1.95.2-.46.53-.86.55-1.27.17-4.16.76-8.25,1.56-12.34.99-5.02,1.54-10.13,2.49-15.16.93-4.92,2.15-9.78,3.16-14.68.58-2.85.64-5.76.94-8.63ZM74,8.08c-.45,1.46-1.01,2.71-1.22,4.01-.54,3.38-.93,6.77-1.38,10.16-.18,1.33-.29,2.68-.57,4-1.01,4.66-2.16,9.29-3.08,13.97-.54,2.75-1.4,5.5-.98,8.38.66-2.11,1.2-4.24,1.63-6.39.84-4.2,1.46-8.44,2.46-12.6,1.57-6.54,3.13-13.07,4.06-19.74.08-.56.26-1.22-.91-1.8ZM11.91,29.22c-1.35-.62-1.79-.6-2.12.13-.7,1.56-1.03,3.18-.81,4.97.58.22,1.11.42,1.8.68.4-2.06.77-3.93,1.13-5.78ZM7.52,42.32c1.13.44,1.94.41,2.15-.44.33-1.39.45-2.83.58-4.26.02-.24-.39-.72-.61-.72-.41,0-1.08.15-1.2.43-.68,1.54-.99,3.17-.92,4.99ZM12.09,18.81c.42-.16.97-.23,1.01-.41.35-1.51.61-3.04.87-4.58.04-.22,0-.54-.14-.69-.22-.24-.55-.52-.84-.53-.29,0-.79.28-.83.5-.33,1.86-.88,3.73-.08,5.71ZM6.99,44.94c-.26,1.62-.5,3.12-.72,4.5.94.71,1.62.62,1.99-.18.63-1.32.57-2.77.78-4.42-.8.04-1.36.06-2.06.1ZM10.19,26.71c1.23-.51,2.08-.62,2.17-.93.38-1.37.57-2.81.73-4.23.03-.22-.44-.71-.66-.7-.4.02-1.05.25-1.12.51-.4,1.49-.65,3.02-1.12,5.35ZM8.56,25.98c.74-1.83,1.18-3.5.87-5.34-1.47-.23-2.07.75-2.26,1.82-.22,1.26-.2,2.62,1.39,3.53ZM14.86,2.93c-.71.27-1.1.32-1.12.44-.33,1.99-.63,3.99-.9,5.99-.02.14.33.49.45.46.3-.06.79-.25.81-.44.28-2,.48-4.01.76-6.44ZM10.11,12.56c-2.07,1.11-2.46,2-1.69,3.97.22.55.7.97,1.53.49.14-1.41.61-2.88.16-4.46ZM4.41,49.07c.87-1.74.7-3.15.7-4.62-2.45,1.03-2.66,2.13-.7,4.62ZM5.95,55.79c1.92-.47,1.93-2.01,2.15-3.51-.46-.19-.77-.4-1.1-.42-.33-.02-.67.15-1.12.28-.11.97-.23,1.91-.3,2.86-.01.2.18.42.37.8ZM4.23,51.18c-1.68,0-2.21.74-2.32,1.8-.12,1.15.14,2.16,1.75,2.56.18-1.4.35-2.68.57-4.35ZM6.55,36.65c-1.7.35-1.97,2.04-.57,3.95.75-1.3.41-2.65.57-3.95ZM10.62,8.26c1.09-1.23,1.3-2.16.82-3.39-1.28.87-1.28,1.86-.82,3.39ZM65.12,63.88l.13.29.11-.3h-.24Z"/>
      <path d="M29.78,18.92c-3.36.35-6.24.28-9.24-.77-.17-3.11.07-6.18,1.1-9.27,2.55.45,4.92.86,7.18,1.25,1.28-1.11,2.35-2.1,3.51-2.97.26-.19,1.01-.08,1.26.17.26.25.38.97.2,1.27-.42.72-1,1.38-1.62,1.96-1.71,1.59-2.63,3.47-2.41,5.86.07.71.01,1.44.01,2.5ZM28.84,15.33c-2.31,1.77-4.28,1.6-6.31-.7-.21.81-.35,1.33-.49,1.87,2.13.61,4.03,1.62,6.35.7.13-.56.29-1.21.44-1.87ZM22.36,11.76c.86.23,1.53.28,2.07.58.56.31.99.86,1.66,1.47.33-.46.57-.74.74-1.05.11-.2.13-.44.19-.67q-2.93-1.25-4.67-.33Z"/>
      <path d="M42.53,57.85c-.9.65-1.59,1.14-2.34,1.68-.88-.58-1.68-1.11-2.66-1.76-1.01.42-2.11.87-3.41,1.41-.49-.37-1.13-.72-1.6-1.23-.57-.62-1.22-.78-1.98-.65-.95.16-1.94.66-2.82.49-.85-.16-1.58-.99-2.37-1.53-1.25.56-2.45,1.11-3.77,1.7-.63-.75-1.16-1.38-1.73-2.06-1.03-.06-2.09-.13-3.4-.21.86-1.73,2.45-1.24,3.6-1.94.76.75,1.42,1.4,2.08,2.05,1.32-.44,2.57-.85,3.9-1.29,1.16,1.12,2.43,1.76,3.99,1.07,1.44-.64,2.61-.24,3.62.88.24.26.56.43.95.73,1.53-.85,3.13-1.32,4.81-.27.28.17.8.31,1.02.17,2.71-1.79,5.1.94,7.73.55.43-.06,1.03.6,1.43,1.04.17.18.16.73,0,.95-.16.22-.78.43-.9.32-.99-.91-2.18-.75-3.36-.89-.92-.11-1.77-.74-2.8-1.2Z"/>
      <path d="M25.66,47.49c-3.34.92-6.29.72-9.5-.59.44-2.95.88-5.91,1.35-9.08.54-.08,1.11-.28,1.67-.24,1.95.15,3.9.36,5.84.59,1.87.22,2.42.94,2.07,2.66-.44,2.15-.91,4.29-1.42,6.66ZM24.78,45.85c.13-2.12.94-3.93.57-6.05-2.29-.15-4.41-.64-6.65.03-.33,2.07-1.35,3.99-.38,6.17,2.11.42,4.11.65,6.46-.15Z"/>
      <path d="M27.97,31.8c-1.28,1.82-2.83,2.38-4.87,1.79-.8-.23-1.71-.09-2.56-.21-1.11-.17-1.95-1.27-1.86-2.36.17-2.07.35-4.14.55-6.2.1-1.11.83-1.71,2-1.68.37.01.74.03,1.1.11,2.01.45,4.02.92,6.27,1.44-.21,2.42-.42,4.83-.62,7.12ZM20.45,31.73c2.23-.04,4.11.89,5.98-.3.22-1.68,1.03-3.26.49-4.98-1.8-.94-3.52-1.7-5.59-1.6-1.04,2.15-.81,4.32-.88,6.89Z"/>
      <path d="M55.05,48.08c-1.04.8-1.38,1.28-1.75,1.31-.84.05-1.72,0-2.53-.22-2.88-.77-5.83-.61-8.75-.85-2.92-.24-5.83-.57-8.74-.93-.71-.09-1.41-.39-2.05-.71-.2-.1-.2-.6-.34-1.06,1.84-.3,3.51.04,5.2.22,1.7.18,3.4.42,5.11.43,3.56.01,7.09.17,10.53,1.23.78.24,1.63.29,3.34.57Z"/>
      <path d="M32.18,30.96c.6-.29,1.19-.77,1.82-.83,1.45-.16,2.93-.18,4.4-.14,4.27.11,8.56.08,12.79.8.47.08.93.25,1.35.46.14.07.21.43.18.64-.03.21-.2.45-.37.58-.18.14-.45.26-.66.23-5.71-.88-11.47-.39-17.21-.65-.83-.04-1.76.14-2.3-1.09Z"/>
      <path d="M34.09,15.59c1.83-.72,3.39-.12,4.94-.07,2.31.07,4.61.22,6.92.3,2.68.1,5.36.15,8.04.26.62.03,1.3.25,1.07,1.06-.1.33-.69.74-1.05.73-3.77-.06-7.55-.1-11.32-.33-2.54-.15-5.07-.57-7.6-.94-.33-.05-.59-.58-1-1.01Z"/>
    </g>
  </g>
</svg>