<?xml version="1.0" encoding="UTF-8"?>
<svg id="Layer_2" xmlns="http://www.w3.org/2000/svg" viewBox="0 0 176.11 162.15">
  <g id="Layer_1-2" data-name="Layer_1">
    <g>
      <path d="M152.29,152.07c-1.15,3.46-2.2,6.61-3.27,9.81-3.79.46-7.28.26-10.76.04-5.75-.36-11.48-.24-17.23.05-5.89.3-11.81,0-17.72-.07-.95-.01-1.92-.33-2.85-.23-6.38.66-12.74-.46-19.12-.08-8.92.52-17.85-.16-26.78.07-5.59.15-11.17.08-16.74-.26-4.46-.27-8.91-.76-13.35-1.22-1.73-.18-2.42-.96-2.63-2.85-.22-2.04-.34-4.09-.52-6.39-1.46-.14-2.68-.31-3.91-.38-3.98-.23-7.97-.41-11.95-.65-.95-.06-1.97-.11-2.81-.49-1.5-.66-2.73-1.66-2.63-3.6.07-1.44-.05-2.88.03-4.32.42-8.29.95-16.58,1.3-24.87.2-4.79.06-9.59.19-14.38.29-11.18.66-22.35.96-33.53.1-3.67.01-7.34.15-11.01.28-7.34.66-14.67,1.02-22,.03-.63.16-1.27.3-1.89.5-2.22,2.21-3.54,4.47-3.42.79.04,1.59.34,2.37.28,8.29-.65,16.59.25,24.88-.2,2.37-.13,4.77.21,7.16.22,10.55.08,21.09.13,31.64.16,11.51.03,23.01,0,34.52.07,2.53.02,5.06.39,8.21.65-.83-.86-1.22-1.47-1.77-1.79-4.42-2.57-8.91-5-13.29-7.62-7.67-4.59-15.28-9.26-22.88-13.96-1.67-1.03-3.36-1.63-5.36-1.78-1.93-.14-2.6-1.98-1.47-3.53.56-.76,1.23-1.48,1.96-2.07,1.61-1.29,3.43-1.09,4.35.78.71,1.45,1.83,2.16,3.05,2.86,7.61,4.38,15.22,8.75,22.86,13.08,2.77,1.57,5.66,2.95,8.44,4.51,5.42,3.04,10.8,6.17,16.22,9.21.67.37,1.49.57,2.25.65,3.18.33,6.35.69,9.54.86,7.49.39,14.99.63,22.49,1,2.7.13,5.4.45,8.1.68,2.63.22,4.23,1.53,4.32,4.19.14,4.3.19,8.64-.18,12.92-.64,7.31-1.74,14.56-1.65,21.94.05,4.46-.37,8.92-.59,13.39-.3,6.05-.66,12.1-.91,18.15-.07,1.74.19,3.5.25,5.25.31,9.41.62,18.82.9,28.23.09,3.17.17,6.35.15,9.52-.02,2.57-.7,3.37-3.26,3.82-1.38.24-2.82.2-4.24.2-4.63.02-9.25,0-14.18,0ZM170,148.63c.21-1.69.45-2.77.45-3.85,0-8.79-.05-17.57-.1-26.36-.03-5.74-.25-11.48-.09-17.22.29-10.54.79-21.07,1.2-31.61.08-2.07-.04-4.18.29-6.21,1.08-6.8,1.49-13.65,1.66-20.51.04-1.71.24-3.54-1.16-5.19-1.11-.22-2.34-.57-3.59-.68-2.86-.26-5.74-.43-8.61-.58-6.7-.36-13.4-.65-20.1-1.06-6.37-.39-12.73-1.07-19.11-1.31-11.49-.43-22.99-.68-34.48-.9-3.5-.07-7.01.32-10.51.29-5.59-.04-11.17-.31-16.75-.38-4.46-.05-8.92.07-13.38.08-4.62,0-9.23,0-13.85-.04-5.1-.05-10.17.72-15.3.07-2.93-.37-5.97.06-9.23.13-.28,1.3-.71,2.5-.79,3.72-.28,4.3-.48,8.61-.63,12.92-.27,7.98-.45,15.97-.73,23.95-.22,6.39-.68,12.77-.79,19.15-.26,15.65-.37,31.29-1.31,46.92-.13,2.19-.4,4.45.43,6.67,2.54.73,5,1.18,7.56,1.19,4.15.02,8.31.18,12.46.25,10.21.17,20.42.37,30.63.48,5.91.07,11.83,0,17.74.02,10.71.05,21.42.2,32.12.16,5.56-.02,11.13-.47,16.69-.56,5.91-.09,11.82-.06,17.73.06,7.34.14,14.68.47,22.02.63,3.01.06,6.03-.13,9.52-.21Z"/>
      <path d="M8.42,35.84c1.52-.07,2.59-.16,3.67-.16,3.83-.02,7.65,0,11.48,0,.96,0,1.94-.12,2.88.02,7,1.04,14.04.44,21.06.62,7.99.2,15.98.27,23.97.3,10.71.05,21.43-.12,32.13.07,6.54.11,13.08.74,19.62,1.1,1.73.09,3.48.11,5.21.03,3.68-.17,5.3.99,6.08,4.62.2.92.3,1.91.22,2.85-.46,5.57-1.07,11.13-1.46,16.7-.51,7.32-1.18,14.66-1.19,21.99,0,6.57-.58,13.07-.95,19.6-.61,11-1.17,22-1.62,33.01-.1,2.37.35,4.76.54,7.14.2,2.45-.4,3.14-2.95,3.07-3.98-.11-7.96-.31-11.94-.46-.8-.03-1.6-.03-2.39.06-6.37.74-12.72.55-19.12.01-6.2-.53-12.46-.52-18.69-.64-11.96-.23-23.92-.39-35.88-.58-5.59-.09-11.18-.09-16.77-.28-4.31-.15-8.61-.46-12.91-.81-2.77-.23-4.06-1.47-4.09-4.3-.05-5.27.1-10.54.25-15.81.22-8.14.45-16.29.78-24.42.46-11.49.98-22.98,1.53-34.47.33-6.86.8-13.71,1.19-20.57.08-1.44.25-2.88.17-4.31-.08-1.24-.46-2.46-.85-4.37ZM115.41,130.48c.49-2.24,1.01-4.24,1.35-6.26.5-2.98.77-6,1.34-8.97,2.51-13.06,4.11-26.19,3.43-39.52-.09-1.75-.07-3.52-.29-5.26-.5-4.11-1.09-8.22-1.7-12.32-.28-1.87-.71-3.72-1.07-5.57-2.84-1.38-5.63-2.04-8.41-2.67-10.94-2.5-22.02-3.84-33.25-4.09-7.82-.18-15.62.11-23.41.67-4.78.34-9.53,1.06-14.3,1.38-5.82.4-11.28,1.95-16.58,4.4-.49,1.22-.83,2.47-1.45,3.56-1.46,2.55-2.15,5.29-2.51,8.17-.56,4.43-.97,8.9-1.93,13.25-1.63,7.4-1.7,14.9-2.12,22.38-.13,2.38-.5,4.82-.18,7.15.8,5.84,1.72,11.68,2.98,17.44,1.26,5.77,1.81,6.12,7.38,8.25.89.34,1.81.64,2.73.88,2.62.68,5.26,1.31,7.89,1.97,7.31,1.84,14.67,3.14,22.26,2.67,2.23-.14,4.46-.25,6.68-.41,4.46-.32,8.91-.8,13.38-.97,6.24-.24,12.41-.98,18.54-2.08,2.35-.42,4.63-1.18,6.96-1.67,4.03-.84,8.07-1.58,12.27-2.39ZM9.7,141.26c2.47.83,4.54.72,6.58.76,6.86.15,13.73.23,20.59.37,7.98.17,15.97.66,23.95.5,9.11-.18,18.2.06,27.3.37,4.31.14,8.6.54,12.91.67,7.65.24,15.3-1.19,22.96-.2.32.04.71-.38,1.39-.77-3.33-3.29-5.93-6.92-9.48-9.32-5.13.95-10.03,1.66-14.83,2.78-8.13,1.89-16.35,2.69-24.66,2.95-2.39.07-4.78.38-7.17.47-6.38.25-12.79.83-19.15.54-5.87-.27-11.73-1.31-17.4-3.1-.91-.29-1.81-.78-2.74-.84-3.78-.24-7.06-1.86-10.35-3.52-.68-.34-1.46-.49-2.45-.81-2.49,2.91-6,4.82-7.45,9.15ZM126.32,139.15c.27-5.27.51-9.71.74-14.14.31-6.05.57-12.11.94-18.16.33-5.41.86-10.82,1.13-16.23.26-5.1.19-10.22.48-15.31.32-5.57.86-11.12,1.33-16.68.28-3.34.66-6.67.88-10.01.09-1.36.23-2.79-.36-4.27-.66.24-1.17.28-1.46.55-1.86,1.75-3.6,3.62-5.52,5.3-2.02,1.76-2.48,3.78-2.09,6.4.79,5.35,1.35,10.75,1.86,16.14,1.01,10.69.27,21.36-1.19,31.94-1.15,8.33-2.96,16.56-4.38,24.86-.14.84.06,2.04.6,2.63,2.02,2.21,4.24,4.24,7.05,6.99ZM13.17,43.24c-.33.1-.66.21-.99.31-2.66,30.32-3.1,60.74-3.9,91.15-.02.57.11,1.15.17,1.75.6-.1,1-.05,1.15-.22,1.48-1.66,2.91-3.38,4.38-5.05,1.16-1.32,1.38-2.77.97-4.45-.6-2.47-1.11-4.97-1.6-7.46-1.29-6.58-2.1-13.2-1.76-19.92.16-3.18.32-6.37.59-9.55.31-3.65.7-7.3,1.13-10.94.3-2.53.72-5.04,1.1-7.56.85-5.66,1.31-11.41,4.04-16.63.78-1.48.81-3.06-.26-4.52-1.68-2.29-3.34-4.6-5.02-6.9Z"/>
      <path d="M136.17,40.89c3.23-1.13,6.26-1,9.22-.87,5.57.24,11.13.72,16.7,1.08.63.04,1.3.04,1.91-.13,2.18-.59,3.69.34,4.95,1.91-.46,10.09-1.24,20.07-2.11,30.07-.71,8.07-1.17,16.22-.77,24.39.33,6.82-.11,13.69-.22,20.53-.12,8.14-.34,16.28-.32,24.42,0,2.16-1.09,3.43-3.01,3.47-3.19.07-6.42.28-9.56-.16-5.43-.75-10.81-.64-16.21.03-.47.06-.93.24-1.4.3-1.88.23-2.81-.46-2.84-2.27-.05-3.99-.19-7.99,0-11.97.44-8.77,1.16-17.53,1.57-26.3.33-7.17.22-14.36.57-21.52.32-6.53-.18-13.09.94-19.59.24-1.4.19-2.88.07-4.31-.5-6.24.44-12.42.5-19.09ZM138.44,71.53h-.44c-.17,1.23-.45,2.47-.48,3.72-.19,8.11-.28,16.23-.48,24.34-.15,6.37-.37,12.74-.63,19.1-.25,6.05-.63,12.1-.9,18.15-.08,1.73-.05,3.49.99,5.36,4.01.32,8.13-.36,12.24-.16,4.24.21,8.47.41,12.76.62,1.83-9.64.9-19.1,1.64-28.46.14-1.72-.05-3.46-.1-5.42-3.78,3.12-3.91,3.13-8.51.7-.74.48-1.47,1.2-2.33,1.45-.85.25-1.93.25-2.76-.05-1.81-.65-2.71-2.58-2.21-4.23.65-2.17,2.78-3.46,4.84-2.7,1.27.47,2.4,1.33,3.47,1.95,1.52-.84,2.88-1.6,4.1-2.28,1.16.73,2.04,1.29,3.06,1.93.18-.73.41-1.19.38-1.64-.03-.57-.25-1.14-.42-1.86-2.81,1.31-5.49,1.31-8.12.68-3.45-.82-6.94-.98-10.45-1.12-.8-.03-1.61.02-2.39-.11-2.3-.38-3.25-1.54-3.23-3.9.08-7.65.18-15.31.24-22.96,0-1.04-.17-2.08-.27-3.12ZM160.07,71.6c-1.09.76-1.85,1.24-2.56,1.78-2.16,1.63-4.43,1.59-6.77.51-3.3-1.52-5.85-3.93-7.55-7.09-1.39-2.59-1.12-5.32.53-7.73.88-1.29,2.07-2.44,3.32-3.38,3.62-2.73,7.44-2.59,10.91.29.91.75,1.7,1.64,2.78,2.7.73-3.65.59-6.92.59-10.12-4.68-1.28-14.52-1.69-18.88-.78-.5,6.1-1.15,12.28-1.47,18.48-.19,3.65.22,7.33.21,11,0,5.42-.22,10.84-.17,16.26.02,1.84.05,3.81,1.24,5.51,1.03.05,1.99.18,2.93.12.85-.06,1.88.38,2.63-.77-.72-.58-1.46-1.11-2.13-1.73-4.82-4.48-5.2-8.03-1.47-13.44.36-.52.71-1.09,1.18-1.5,2.79-2.43,4.91-4.14,9.45-1.75,1.51.8,3.01,1.61,4.84,2.59.38-3.78.88-7.14.4-10.95ZM158.97,64.83c.04-3.04-1.1-5.56-3.39-7.23-2.27-1.65-4.29-1.64-6.53.13-.87.69-1.7,1.46-2.39,2.31-1.63,2.01-1.69,4.39-.36,6.64,1.18,1.99,2.86,3.36,4.91,4.37,2.19,1.07,4,.91,5.6-.81,1.32-1.42,2.22-3.1,2.15-5.42ZM157.98,87.81c-.14-.52-.19-1.54-.65-2.32-1.25-2.15-3.19-3.63-5.66-3.84-2.47-.22-4.07,1.42-5.2,3.48-.38.69-.62,1.47-1.06,2.12-1.51,2.18.45,6.39,2.72,7.81,2.53,1.59,4.95,1.42,7.24-.9,1.61-1.63,2.56-3.59,2.61-6.34ZM163.85,66.63c1.77-7.36,2.03-14.75,1.81-22.37-4.54-.41-8.81-1.21-13.06-1.08-4.39.14-8.78-1.76-13.27-.17-.67,2.81-.71,5.45-.4,8.78.37-.94.54-1.21.58-1.5.06-.47,0-.96.04-1.44.26-2.94,1.28-3.88,4.21-3.84,1.76.02,3.51.09,5.27.1,3.51.02,7.03-.07,10.54.05,3.97.14,4.72,1.09,4.52,4.94-.21,3.98-.36,7.97-.46,11.96-.04,1.52.15,3.04.23,4.57ZM159.32,99.77q.67-3.48-.78-5.2c-.84.98-1.53,2.11-2.51,2.85-1.06.8-2.38,1.23-3.59,1.82.05.18.09.36.14.53h6.74ZM163.18,79.6c.53-2.37.85-4.75.11-7.13-.57,2.37-.59,4.75-.11,7.13ZM138.16,68.18l.22.04-.07-.32-.15.28Z"/>
      <path d="M148.63,128.91c2.55,0,5.09-.06,7.64.04.72.03,1.55.35,2.08.81.35.3.41,1.13.31,1.68-.06.33-.64.59-1.01.85-.12.08-.32.13-.46.1-5.49-1.23-11.1-.4-16.63-.94-.46-.04-.93-.22-1.33-.45-.23-.14-.42-.52-.43-.79,0-.28.18-.72.39-.8.73-.27,1.5-.55,2.26-.58,2.38-.07,4.77-.03,7.16-.03v.12Z"/>
      <path d="M148.24,136.46c2.55,0,5.09-.03,7.64.02.6.01,1.3.19,1.75.55.44.35.93,1.06.86,1.53-.08.47-.76,1.05-1.28,1.2-.73.22-1.61.26-2.35.06-2.98-.77-5.98-.67-9.02-.53-1.74.08-3.5-.11-5.24-.25-.82-.07-1.66-.47-1.69-1.37-.04-1.01.87-1.2,1.69-1.2,2.55-.02,5.09,0,7.64,0,0,0,0,0,0,0Z"/>
      <path d="M138.94,118.82c-.23-1.65.48-2.1,1.25-2.2,1.57-.2,3.17-.22,4.76-.29,3.97-.18,7.95-.38,11.93-.5,1.25-.04,2.2.47,1.83,2.23-.97.28-2.04.88-3.07.82-5.54-.34-11.1.94-16.7-.07Z"/>
      <path d="M138.57,123.23c1.76-.86,3.53-.54,5.26-.55,4.13-.03,8.27.01,12.4.05.94,0,1.97-.04,2.3,1.17.26.97-.68,1.78-2.2,1.78-4.61,0-9.22,0-13.83-.15-1.21-.04-2.42-.58-3.58-1.04-.24-.09-.23-.81-.34-1.27Z"/>
      <path d="M145.98,107.15c.12,2.08-1.3,4.22-2.84,4.29-1.96.09-4.32-1.72-4.47-3.45-.17-1.9,1.33-3.63,3.32-3.81,2.28-.21,3.89.99,4,2.97Z"/>
    </g>
  </g>
</svg>