<?xml version="1.0" encoding="UTF-8"?>
<svg id="Layer_2" xmlns="http://www.w3.org/2000/svg" viewBox="0 0 28.47 27.72">
  <g id="Layer_2-2" data-name="Layer_2">
    <path d="M14.38,23.15c-2.57.2-4.75.45-6.94.52-1.46.04-2.93-.12-4.38-.3-.79-.1-1.32-.71-1.4-1.5-.35-3.4-.81-6.81-.92-10.23-.1-2.94.03-5.87-.67-8.76-.14-.56-.02-1.19-.02-1.98.91-.33,1.79-.64,2.52-.91,1.69,1.06,1.67,2.63,1.79,4.05.31,3.53.52,7.08.69,10.62.06,1.23.06,2.44.8,3.56,2.9.12,5.75.23,8.69.35-1.01-1.77-3.89-1.36-4.16-4.18,1.02.2,1.88.21,2.59.54,2.37,1.11,4.88,1.58,7.43,1.95,1.82.26,3.61.65,5.42.97,1.32.23,2.16.95,2.65,2.36-4.94,2.94-10.07,5.14-15.23,7.29-.62.26-1.39.14-2.29.21.52-2.01,2.67-2.37,3.43-4.57ZM19.58,20.25c-1.66,0-3.42.28-5.05-.06-2.92-.61-5.8-.87-8.75-.38-1.15.19-1.86-.55-1.95-1.69-.02-.24.03-.49.01-.73-.25-4.14-.5-8.28-.78-12.42-.05-.73-.22-1.45-.4-2.16-.12-.49-.39-.9-1.22-.6-.03.49-.25,1.12-.09,1.63.77,2.38.63,4.84.75,7.28.14,2.69.35,5.38.65,8.05.1.94.55,1.84.77,2.56,1.28.72,2.38.52,3.48.46,3.54-.2,7.09-.37,10.64-.5.58-.02,1.38,0,1.7.35.89.97,1.87.61,2.67.23,1.19-.56,2.39-1.23,3.16-2.43-1.51-1.5-3.43-1.22-5.22-1.72-.14.77-.23,1.34-.37,2.13ZM18.4,23.68v-.23s-.26.11-.26.11l.26.12Z"/>
  </g>
</svg>