<?xml version="1.0" encoding="UTF-8"?>
<svg id="Layer_2" xmlns="http://www.w3.org/2000/svg" viewBox="0 0 29.65 23.66">
  <g id="Layer_2-2" data-name="Layer_2">
    <path d="M18.49,23.66q-.62-1.73,2.78-5.27c-.45-.22-.82-.54-1.22-.58-3.77-.31-7.54-.88-11.31-.06-.24.05-.49.03-.73.03-4.83.08-5.97-.94-6.6-5.81C.97,8.59.46,5.2.02,1.8-.05,1.23.09.64.13.09c1.58-.37,2.24.41,2.63,1.56.94,2.8,1.51,5.68,1.6,8.65.03,1.09.09,2.17.14,3.3,2.67.97,5.27.38,7.79.62,2.53.23,5.05.45,7.85.44-.36-1.58-1.43-1.99-2.31-2.51-.61-.37-1.42-.41-2.03-.79-.73-.45-1.32-1.1-.85-2.1.25-.09.5-.28.67-.22,3.98,1.18,7.97,2.36,11.93,3.61,2.13.67,2.82,2.79,1.24,4.19-3.1,2.73-6.39,5.24-10.29,6.84Z"/>
  </g>
</svg>