<?xml version="1.0" encoding="UTF-8"?>
<svg id="Layer_2" xmlns="http://www.w3.org/2000/svg" viewBox="0 0 91.15 104.41">
  <g id="Layer_2-2" data-name="Layer_2">
    <g>
      <path d="M25.47,35.16c4.88-.48,9.72-.22,14.6,0,4.3.19,8.62.21,12.93.03,3.61-.15,7.19-.82,10.79-1.04,1.7-.1,3.44.22,5.13.52,4.37.77,8.66,2.22,13.2,1.26.68-.14,1.41-.13,1.55-1.04-.97-.68-1.48-.8-2.86-.56-2.86.5-5.67.41-8.46-.45-1.39-.43-2.82-.79-4.26-1.02-3.83-.6-7.65-.02-11.43.5-4.1.56-8.19.7-12.29.57-4.52-.15-9.03-.6-13.55-.62-4.94-.03-9.88.26-14.82.45-.61.02-1.25.18-1.8.43-.28.12-.41.58-.87,1.3,1.5-.09,2.45-.18,3.4-.19,2.92-.04,5.86.16,8.75-.13Z"/>
      <path d="M89.53,96.29c-.81-3.29-1.67-6.58-2.58-10.08-1.25-.12-2.53-.23-3.77-.35-1.03-4.07.1-32.62,1.62-42.47,1.43-1.36,2.69-2.8,4.19-3.9,1.11-.82,1.5-1.78,1.54-3,.06-1.74.12-3.49.03-5.22-.03-.54-.44-1.18-.87-1.54-1.8-1.53-3.69-2.96-5.52-4.46-4.46-3.67-8.9-7.36-13.34-11.06-2.67-2.22-5.26-4.51-8.17-6.45-2.82-1.89-5.53-3.97-7.76-6.6-1.15-1.36-2.41-1.47-4.13-.56-1.23.65-2.41,1.39-3.57,2.16-5.57,3.69-11.3,7.17-16.65,11.15-6.19,4.62-12.01,9.73-18.07,14.52-1.5,1.19-2.51,2.3-1.75,4.32.16.43-.01.97,0,1.46.05,1.86.12,3.71.16,5.13,2.13,1.59,3.85,2.88,5.82,4.35-.36,7.3-.55,14.48-1.11,21.62-.57,7.18-1.51,14.33-2.3,21.53-.73.06-1.36.18-1.98.13-1.27-.09-2.49.46-3.23,1.49-1.62,2.25-3.27,4.49-4.93,6.71-.48.65-1.03,1.24-1.58,1.83-.42.44-.66.89-.5,1.46h-.05S.02,103.4.02,103.4c-.11.52.29,1.01.82,1.01l88.72-.29c1.04,0,1.8-.99,1.53-2l-1.56-5.83ZM15.29,38.02c-1.01-.06-2.01-.38-3.09-.6v-5.91c.97-.05,1.79-.11,2.61-.12,4.32-.05,8.65-.05,12.97-.12,3.76-.06,7.52-.33,11.27-.26,9.27.15,18.54.46,27.81.67,2.86.06,5.72-.03,8.58.04,2.99.08,5.97.3,8.96.41,1.45.06,2.91,0,4.64,0,.11,1.7.23,3.46.36,5.47-1.24.29-2.28.67-3.35.76-2.42.21-4.86.41-7.28.36-5.68-.1-11.38.99-17.03-.36-.27-.06-.56-.09-.83-.05-3.2.44-6.43.17-9.56-.19-4.21-.49-8.34.18-12.5.08-6.67-.16-13.35-.22-20.02-.3-1.18-.01-2.37.2-3.54.13ZM75.91,42.8c-.05,4.8-.06,9.61-.2,14.41-.12,4.1-.43,8.19-.63,12.29-.11,2.22-.22,4.44-.26,6.67-.04,2.71.01,5.42-.03,8.12-.01.67-.24,1.34-.36,2h-4.48c.47-14.93.93-29.64,1.4-44.58,1.46-.16,2.86-.32,4.4-.49.07.65.16,1.11.16,1.58ZM63.47,41.06c-.29,15.3-1.36,30.37-2.95,45.45-1.91.45-3.58.58-5.41-.66,0-1.26-.05-2.63,0-4.01.22-4.86.42-9.73.73-14.58.21-3.32.63-6.63.86-9.95.19-2.77.22-5.54.34-8.31.1-2.08.23-4.15.36-6.22.04-.53.15-1.06.25-1.71h5.81ZM48.99,40.27c-.23,15.53.1,30.95-2.29,46.5-3.02.58-5.76.24-8.53-.64.94-15.14,1.88-30.19,2.84-45.5,2.68-.12,5.21-.23,7.98-.35ZM30.84,63.61c-.48,7.62-1.02,15.24-1.55,23.14-2.53.37-4.73,1.47-7.24.32.31-15.47,2.62-30.76,2.87-46.25,2.26-.79,4.41-.17,6.73-.54.15,7.95-.32,15.64-.8,23.33ZM5.77,94.15c.63-.58,1.76-.83,2.67-.86,5.21-.16,10.42-.17,15.63-.32,2.28-.07,4.56-.57,6.84-.54,6.48.09,12.95.35,19.42.54,3.27.1,6.53.2,9.8.3,4.81.14,9.61.31,14.42.38,1.3.02,2.61-.3,3.92-.44,2.81-.3,5.63-.59,8.45-.89.32,1.06.57,1.85.81,2.65-2.28.19-4.46.47-6.66.55-5.84.22-11.69.47-17.54.5-3.82.02-7.65-.37-11.48-.52-3.41-.13-6.83-.1-10.24-.26-6.5-.29-12.93.6-19.39,1.04-3.05.21-6.11.38-9.16.61-2.21.17-4.41.42-6.61.61-.88.08-1.77.11-2.66.16-.09-.15-.17-.3-.26-.45.66-1.04,1.17-2.26,2.04-3.07Z"/>
    </g>
  </g>
</svg>