<?xml version="1.0" encoding="UTF-8"?>
<svg id="Layer_2" xmlns="http://www.w3.org/2000/svg" viewBox="0 0 89.57 99.24">
  <g id="Layer_2-2" data-name="Layer_2">
    <g>
      <path d="M15.68,43.68c-1.97-1.47-3.69-2.76-5.82-4.35-.05-1.42-.11-3.28-.16-5.13-.01-.49.16-1.03,0-1.46-.76-2.02.26-3.13,1.75-4.32,6.06-4.8,11.88-9.91,18.07-14.52,5.35-3.99,11.07-7.47,16.65-11.15,1.16-.77,2.34-1.51,3.57-2.16,1.72-.91,2.97-.8,4.13.56,2.23,2.64,4.94,4.72,7.76,6.6,2.9,1.94,5.5,4.23,8.17,6.45,4.44,3.7,8.88,7.38,13.34,11.06,1.83,1.5,3.72,2.93,5.52,4.46.43.37.84,1.01.87,1.54.09,1.74.03,3.48-.03,5.22-.04,1.22-.43,2.18-1.54,3-1.5,1.11-2.76,2.54-4.19,3.9-1.53,9.85-2.65,38.4-1.62,42.47,1.24.11,2.51.23,3.77.35.9,3.5,1.76,6.78,2.58,10.08.07.27-.21.63-.32.94-6.05-.39-12.02-.08-17.99.28-3.97.24-7.95.33-11.92.29-2.57-.03-5.13-.45-7.69-.64-1.46-.1-2.93-.05-4.39-.1-2.51-.09-5.02-.35-7.52-.29-3.96.1-7.92.34-11.88.63-2.43.18-4.84.63-7.26.8-5.7.39-11.42.7-17.12,1.02-.68.04-1.37,0-1.91,0-.81-1.05-.45-1.69.23-2.36.63-.62,1.18-1.33,1.71-2.05,1.57-2.11,3.13-4.23,4.67-6.36.81-1.12,1.86-1.59,3.22-1.49.62.04,1.24-.08,1.98-.13.78-7.2,1.73-14.35,2.3-21.53.57-7.15.75-14.33,1.11-21.62ZM12.05,29.88c3.05,0,5.82.06,8.59-.01,3.83-.1,7.65-.35,11.48-.44,2.5-.06,5.01.06,7.51.09,4.46.04,8.91.03,13.37.11,5.78.1,11.56.26,17.34.41,4.17.11,8.34.25,12.51.36,1.22.03,2.45,0,3.67,0l.38-.68c-.32-.13-.69-.19-.95-.39-2.43-1.86-4.89-3.68-7.24-5.62-3.16-2.61-6.21-5.35-9.36-7.98-2.46-2.05-4.98-4.01-7.49-5.99-2.73-2.14-5.7-4-7.93-6.74-.63-.78-1.52-1.35-2.18-1.92-14.44,8.03-27.27,17.84-39.69,28.8ZM11.15,37.42c1.09.22,2.08.54,3.09.6,1.17.07,2.36-.14,3.54-.13,6.67.08,13.35.13,20.02.3,4.16.1,8.29-.56,12.5-.08,3.13.36,6.37.63,9.56.19.27-.04.56-.01.83.05,5.65,1.36,11.35.26,17.03.36,2.43.04,4.86-.16,7.28-.36,1.07-.09,2.11-.47,3.35-.76-.13-2.01-.25-3.77-.36-5.47-1.73,0-3.19.05-4.64,0-2.99-.11-5.97-.33-8.96-.41-2.86-.07-5.72.02-8.58-.04-9.27-.21-18.54-.52-27.81-.67-3.75-.06-7.51.2-11.27.26-4.32.07-8.65.08-12.97.12-.82,0-1.64.08-2.61.12v5.91ZM45.65,86.77c2.39-15.55,2.06-30.97,2.29-46.5-2.77.12-5.3.24-7.98.35-.96,15.32-1.9,30.37-2.84,45.5,2.77.88,5.51,1.22,8.53.64ZM28.23,86.76c.53-7.91,1.08-15.52,1.55-23.14.48-7.69.95-15.38.8-23.33-2.33.38-4.48-.25-6.73.54-.25,15.49-2.55,30.78-2.87,46.25,2.52,1.14,4.72.05,7.24-.32ZM59.47,86.51c1.6-15.08,2.66-30.15,2.95-45.45h-5.81c-.1.65-.22,1.17-.25,1.71-.14,2.07-.27,4.15-.36,6.22-.13,2.77-.16,5.55-.34,8.31-.23,3.32-.65,6.63-.86,9.95-.3,4.86-.51,9.72-.73,14.58-.06,1.37,0,2.75,0,4.01,1.84,1.24,3.51,1.12,5.41.66ZM30.76,86.75c1.88-.16,3.29-.28,4.56-.39.16-.41.25-.53.26-.67.48-6.6.95-13.21,1.43-19.81.06-.83.13-1.67.19-2.5.19-2.64.56-5.29.52-7.93-.05-3.4-.49-6.79-.64-10.19-.06-1.45-.43-2.7-1.23-3.85-2.45-.2-3.72.69-3.81,2.69-.31,7.02-.6,14.05-.88,21.08-.04.9.05,1.81,0,2.72-.27,4.23-.65,8.45-.81,12.68-.08,1.97.26,3.96.42,6.16ZM2.68,97.22c.09.15.17.3.26.45.89-.05,1.77-.08,2.66-.16,2.21-.2,4.41-.45,6.61-.61,3.05-.23,6.11-.4,9.16-.61,6.46-.44,12.89-1.33,19.39-1.04,3.41.15,6.83.13,10.24.26,3.83.14,7.65.53,11.48.52,5.85-.03,11.69-.28,17.54-.5,2.19-.08,4.38-.36,6.66-.55-.25-.8-.49-1.59-.81-2.65-2.82.29-5.63.58-8.45.89-1.31.14-2.61.46-3.92.44-4.81-.07-9.61-.24-14.42-.38-3.27-.09-6.53-.2-9.8-.3-6.47-.19-12.95-.45-19.42-.54-2.28-.03-4.56.47-6.84.54-5.21.16-10.42.16-15.63.32-.92.03-2.04.28-2.67.86-.88.81-1.38,2.03-2.04,3.07ZM67.2,86.34c.22-2.46.58-4.8.61-7.14.05-3.93.06-7.88.27-11.79.35-6.4.91-12.78.02-19.17-.17-1.22-.49-2.42-.77-3.62-.25-1.08-.92-1.5-2.01-1.25-.47.11-.94.18-1.58.3-.06.72-.15,1.39-.17,2.07-.1,3.41-.08,6.83-.3,10.23-.4,6.39-.9,12.78-1.43,19.17-.25,3.03-.48,6.06.09,9.08.15.79.46,1.54.73,2.43,1.57-.1,2.93-.2,4.54-.3ZM76,42.27c0,.98,0,1.81,0,2.65.02,3.21.16,6.42.04,9.62-.25,6.69-.55,13.38-1.02,20.05-.22,3.17.31,6.24.68,9.34.1.85.53,1.66.81,2.53h3.65c0-2.03-.07-3.91.01-5.77.25-5.99.55-11.98.83-17.96.18-3.89.41-7.79.51-11.69.07-2.69-.05-5.39-.08-8.16-1.87-.69-3.53-1.11-5.44-.61ZM52.4,86.3c.16-2.27.34-4.41.47-6.56.29-4.66.59-9.31.83-13.97.15-2.98.3-5.97.3-8.96,0-3.61-.14-7.23-.25-10.84-.03-1.11-.06-2.24-.25-3.33-.28-1.61-1.76-2.1-2.94-.99-.82.77-1.51,1.67-1.5,2.88.02,1.67.13,3.34.1,5-.06,3.34-.16,6.68-.31,10.02-.26,5.98-.58,11.97-.86,17.95-.09,1.94-.35,3.91-.13,5.82.4,3.41.81,3.59,4.54,2.98ZM73.38,86.29c.12-.66.35-1.32.36-2,.04-2.71-.02-5.41.03-8.12.04-2.22.15-4.45.26-6.67.2-4.1.51-8.19.63-12.29.15-4.8.15-9.61.2-14.41,0-.46-.09-.93-.16-1.58-1.53.17-2.94.32-4.4.49-.47,14.94-.93,29.65-1.4,44.58h4.48ZM18.99,87.2c.17-1.55.35-3,.47-4.45.22-2.85.44-5.7.59-8.55.4-7.92,1.73-15.8,1.16-23.76-.02-.35-.02-.7,0-1.05.19-2.18-.15-4.3-.8-6.37-.56-1.78-1.12-1.95-2.65-.77-.27.2-.51.44-.61.54-.17,4.45-.3,8.69-.51,12.93-.16,3.4-.38,6.79-.65,10.18-.15,1.87-.56,3.72-.68,5.59-.26,4.08-.86,8.13-.63,12.26.15,2.67,1.27,3.84,4.31,3.46Z"/>
      <path d="M12.27,35.47c.46-.72.59-1.18.87-1.3.56-.24,1.19-.4,1.8-.43,4.94-.19,9.88-.48,14.82-.45,4.52.03,9.03.48,13.55.62,4.11.13,8.2,0,12.29-.57,3.78-.51,7.6-1.09,11.43-.5,1.44.22,2.87.59,4.26,1.02,2.79.86,5.6.95,8.46.45,1.38-.24,1.89-.12,2.86.56-.13.91-.87.9-1.55,1.04-4.54.96-8.83-.49-13.2-1.26-1.69-.3-3.44-.63-5.13-.52-3.61.22-7.19.89-10.79,1.04-4.3.18-8.62.16-12.93-.03-4.87-.22-9.72-.47-14.6,0-2.89.28-5.83.08-8.75.13-.95.01-1.9.1-3.4.19Z"/>
    </g>
  </g>
</svg>